<?xml version="1.0" encoding="UTF-8" standalone="no"?>
<!-- Created with Inkscape (http://www.inkscape.org/) -->

<svg
   xmlns:dc="http://purl.org/dc/elements/1.1/"
   xmlns:cc="http://creativecommons.org/ns#"
   xmlns:rdf="http://www.w3.org/1999/02/22-rdf-syntax-ns#"
   xmlns:svg="http://www.w3.org/2000/svg"
   xmlns="http://www.w3.org/2000/svg"
   xmlns:sodipodi="http://sodipodi.sourceforge.net/DTD/sodipodi-0.dtd"
   xmlns:inkscape="http://www.inkscape.org/namespaces/inkscape"
   width="800"
   height="600"
   id="svg2"
   version="1.1"
   inkscape:version="0.48.5 r10040"
   sodipodi:docname="baby1.svg">
  <defs
     id="defs4" />
  <sodipodi:namedview
     id="base"
     pagecolor="#ffffff"
     bordercolor="#666666"
     borderopacity="1.0"
     inkscape:pageopacity="0.0"
     inkscape:pageshadow="2"
     inkscape:zoom="1.979899"
     inkscape:cx="293.28972"
     inkscape:cy="183.35387"
     inkscape:document-units="px"
     inkscape:current-layer="layer1"
     showgrid="false"
     inkscape:window-width="1920"
     inkscape:window-height="1017"
     inkscape:window-x="-8"
     inkscape:window-y="-8"
     inkscape:window-maximized="1" />
  <metadata
     id="metadata7">
    <rdf:RDF>
      <cc:Work
         rdf:about="">
        <dc:format>image/svg+xml</dc:format>
        <dc:type
           rdf:resource="http://purl.org/dc/dcmitype/StillImage" />
        <dc:title></dc:title>
      </cc:Work>
    </rdf:RDF>
  </metadata>
  <g
     inkscape:label="Layer 1"
     inkscape:groupmode="layer"
     id="layer1"
     transform="translate(0,-452.36218)">
    <path
       style="fill:#ffffff;stroke:#000000;stroke-width:3;stroke-linecap:round;stroke-linejoin:round;stroke-opacity:1;stroke-miterlimit:4;stroke-dasharray:none;fill-opacity:1"
       d="m 196.97975,430.79945 c 28.78934,-2.52538 36.36549,8.08122 42.93148,21.2132 6.56599,13.13199 7.57614,13.13199 -2.02031,23.23351 -9.59644,10.10153 -35.35533,25.25381 -50.00255,13.63706 -14.64721,-11.61675 -8.58629,-36.36549 2.02031,-45.45686 10.6066,-9.09138 18.18274,-15.15229 25.25381,-14.64722"
       id="path4389"
       inkscape:connector-curvature="0"
       transform="translate(0,452.36218)" />
    <path
       style="fill:none;stroke:#000000;stroke-width:3;stroke-linecap:round;stroke-linejoin:round;stroke-opacity:1;stroke-miterlimit:4;stroke-dasharray:none"
       d="m 205.56604,447.97204 -2.0203,7.57615"
       id="path4391"
       inkscape:connector-curvature="0"
       transform="translate(0,452.36218)" />
    <path
       style="fill:none;stroke:#000000;stroke-width:3;stroke-linecap:round;stroke-linejoin:round;stroke-opacity:1;stroke-miterlimit:4;stroke-dasharray:none"
       d="m 215.16249,448.47712 0.50508,6.56599"
       id="path4393"
       inkscape:connector-curvature="0"
       transform="translate(0,452.36218)" />
    <path
       style="fill:#ffffff;stroke:#000000;stroke-width:3;stroke-linecap:round;stroke-linejoin:round;stroke-opacity:1;stroke-miterlimit:4;stroke-dasharray:none;fill-opacity:1"
       d="m 171.72593,476.76139 c 18.68782,14.64721 25.25382,30.80965 13.13199,46.97209 -12.12183,16.16244 -26.26397,13.63706 -38.3858,15.15229 -12.12183,1.51523 -35.35534,7.57615 -51.012705,2.52538 -15.657364,-5.05076 -24.748737,-10.6066 -15.152288,-19.1929 0,0 36.870573,-26.76904 51.517783,-27.77919 14.64721,-1.01015 53.03301,-10.6066 58.08377,-3.53553"
       id="path4395"
       inkscape:connector-curvature="0"
       transform="translate(0,452.36218)" />
    <path
       style="fill:none;stroke:#000000;stroke-width:3;stroke-linecap:round;stroke-linejoin:round;stroke-opacity:1;stroke-miterlimit:4;stroke-dasharray:none"
       d="m 108.08632,504.03551 c -3.53553,12.62691 -3.53553,31.8198 2.02031,39.39595"
       id="path4397"
       inkscape:connector-curvature="0"
       transform="translate(0,452.36218)" />
    <path
       style="fill:none;stroke:#000000;stroke-width:3;stroke-linecap:round;stroke-linejoin:round;stroke-opacity:1;stroke-miterlimit:4;stroke-dasharray:none"
       d="m 122.73353,532.31978 c 0.50508,2.52538 1.01016,7.57614 1.01016,7.57614"
       id="path4399"
       inkscape:connector-curvature="0"
       transform="translate(0,452.36218)" />
    <path
       style="fill:none;stroke:#000000;stroke-width:3;stroke-linecap:round;stroke-linejoin:round;stroke-opacity:1;stroke-miterlimit:4;stroke-dasharray:none"
       d="m 87.378195,534.84516 c -3.030458,5.05076 -13.637059,34.85026 -13.637059,34.85026"
       id="path4401"
       inkscape:connector-curvature="0"
       transform="translate(0,452.36218)" />
    <path
       style="fill:none;stroke:#000000;stroke-width:3;stroke-linecap:round;stroke-linejoin:round;stroke-opacity:1;stroke-miterlimit:4;stroke-dasharray:none"
       d="m 93.944187,541.41115 c 2.525381,13.63706 -8.081221,26.76904 -6.060916,32.82996"
       id="path4403"
       inkscape:connector-curvature="0"
       transform="translate(0,452.36218)" />
    <path
       style="fill:none;stroke:#000000;stroke-width:3;stroke-linecap:round;stroke-linejoin:round;stroke-opacity:1;stroke-miterlimit:4;stroke-dasharray:none"
       d="m 142.43151,537.37054 c 4.04061,11.11168 3.53553,29.7995 10.6066,34.34519"
       id="path4405"
       inkscape:connector-curvature="0"
       transform="translate(0,452.36218)" />
    <path
       style="fill:none;stroke:#000000;stroke-width:3;stroke-linecap:round;stroke-linejoin:round;stroke-opacity:1;stroke-miterlimit:4;stroke-dasharray:none"
       d="m 160.61425,533.83501 c 4.04061,4.54568 14.64722,33.33503 14.64722,33.33503"
       id="path4407"
       inkscape:connector-curvature="0"
       transform="translate(0,452.36218)" />
    <path
       sodipodi:type="arc"
       style="color:#000000;fill:#000000;fill-opacity:1;fill-rule:nonzero;stroke:none;stroke-width:3;marker:none;visibility:visible;display:inline;overflow:visible;enable-background:accumulate"
       id="path4409"
       sodipodi:cx="208.5965"
       sodipodi:cy="475.49869"
       sodipodi:rx="7.0710678"
       sodipodi:ry="9.3439112"
       d="m 215.66756,475.49869 a 7.0710678,9.3439112 0 1 1 -14.14213,0 7.0710678,9.3439112 0 1 1 14.14213,0 z"
       transform="matrix(0.9058718,0.42355198,-0.42355198,0.9058718,221.03322,408.76856)" />
  </g>
</svg>
