<?xml version="1.0" encoding="UTF-8" standalone="no"?>
<!-- Created with Inkscape (http://www.inkscape.org/) -->

<svg
   xmlns:dc="http://purl.org/dc/elements/1.1/"
   xmlns:cc="http://creativecommons.org/ns#"
   xmlns:rdf="http://www.w3.org/1999/02/22-rdf-syntax-ns#"
   xmlns:svg="http://www.w3.org/2000/svg"
   xmlns="http://www.w3.org/2000/svg"
   xmlns:sodipodi="http://sodipodi.sourceforge.net/DTD/sodipodi-0.dtd"
   xmlns:inkscape="http://www.inkscape.org/namespaces/inkscape"
   width="800"
   height="600"
   id="svg2"
   version="1.1"
   inkscape:version="0.48.5 r10040"
   sodipodi:docname="ball1.svg">
  <defs
     id="defs4" />
  <sodipodi:namedview
     id="base"
     pagecolor="#ffffff"
     bordercolor="#666666"
     borderopacity="1.0"
     inkscape:pageopacity="0.0"
     inkscape:pageshadow="2"
     inkscape:zoom="1.4"
     inkscape:cx="247.78206"
     inkscape:cy="306.0321"
     inkscape:document-units="px"
     inkscape:current-layer="layer1"
     showgrid="false"
     inkscape:window-width="1920"
     inkscape:window-height="1017"
     inkscape:window-x="-8"
     inkscape:window-y="-8"
     inkscape:window-maximized="1" />
  <metadata
     id="metadata7">
    <rdf:RDF>
      <cc:Work
         rdf:about="">
        <dc:format>image/svg+xml</dc:format>
        <dc:type
           rdf:resource="http://purl.org/dc/dcmitype/StillImage" />
        <dc:title />
      </cc:Work>
    </rdf:RDF>
  </metadata>
  <g
     inkscape:label="Layer 1"
     inkscape:groupmode="layer"
     id="layer1"
     transform="translate(0,-452.36218)">
    <path
       style="fill:#ffffff;fill-opacity:1;stroke:#000000;stroke-width:3;stroke-linecap:round;stroke-linejoin:round;stroke-miterlimit:4;stroke-opacity:1;stroke-dasharray:none"
       d="m 529.65356,745.84911 c -2.45039,-6.94102 -35.53072,-31.43873 -70.24464,-38.78804 -34.71393,-7.34931 -85.76382,-15.10692 -115.16856,11.02397 -29.40473,26.13089 -46.1491,45.72906 -42.4735,81.25074 3.67559,35.52168 31.03833,96.35767 51.04989,114.73095 20.01155,18.37329 78.41262,35.52169 107.81737,28.17238 29.40473,-7.34932 60.44306,-24.08942 73.92023,-57.16133 13.47717,-33.07192 28.17954,-51.8535 21.64516,-69.41019 -6.53439,-17.55669 -17.15277,-45.72907 -42.47351,-57.16133 -25.32075,-11.43227 -53.50028,-23.27283 -73.51185,-22.45624"
       id="path4411"
       inkscape:connector-curvature="0" />
    <path
       style="fill:none;stroke:#000000;stroke-width:3;stroke-linecap:round;stroke-linejoin:round;stroke-miterlimit:4;stroke-opacity:1;stroke-dasharray:none"
       d="m 490.44725,725.43435 c -20.41996,12.24885 -28.17954,31.03044 -31.85514,79.61757 -3.67559,48.58713 -4.08399,55.52814 -2.042,65.73552 2.042,10.20738 2.4504,11.84056 6.9428,15.92352 4.49238,4.08295 9.80158,8.98249 11.02677,14.29033 1.2252,5.30783 15.11077,14.29033 19.60316,17.96499 4.49239,3.67465 12.25197,7.75761 12.25197,7.75761"
       id="path4413"
       inkscape:connector-curvature="0" />
    <path
       style="fill:none;stroke:#000000;stroke-width:3;stroke-linecap:round;stroke-linejoin:round;stroke-miterlimit:4;stroke-opacity:1;stroke-dasharray:none"
       d="m 354.04194,717.67674 c 6.53439,-0.40829 9.39318,6.94102 13.06877,8.16591 3.6756,1.22488 7.35119,1.22488 7.75959,11.43226 0.40839,10.20738 13.88556,36.74657 15.51917,46.54565 1.63359,9.79909 9.80157,24.90601 0.40839,58.38622 -9.39318,33.4802 -26.13754,67.36871 -26.13754,67.36871 0,0 -2.85879,10.61567 -16.33596,13.06544"
       id="path4415"
       inkscape:connector-curvature="0" />
    <path
       style="fill:none;stroke:#000000;stroke-width:3;stroke-linecap:round;stroke-linejoin:round;stroke-miterlimit:4;stroke-opacity:1;stroke-dasharray:none"
       d="m 381.40468,726.25094 c 27.36274,9.39079 58.80947,16.33181 73.92023,16.33181"
       id="path4417"
       inkscape:connector-curvature="0" />
    <path
       style="fill:none;stroke:#000000;stroke-width:3;stroke-linecap:round;stroke-linejoin:round;stroke-miterlimit:4;stroke-opacity:1;stroke-dasharray:none"
       d="m 391.20626,723.80117 c 2.45039,2.04148 -2.4504,16.33181 -1.6336,33.07191 0.81681,16.74011 1.6336,52.26178 3.2672,60.01939 1.63359,7.75761 1.63359,13.06545 1.63359,13.06545"
       id="path4419"
       inkscape:connector-curvature="0" />
    <path
       style="fill:none;stroke:#000000;stroke-width:3;stroke-linecap:round;stroke-linejoin:round;stroke-miterlimit:4;stroke-opacity:1;stroke-dasharray:none"
       d="m 454.50812,738.0915 c 0,12.65715 -4.08399,40.42122 -5.30919,54.30326 -1.2252,13.88204 -0.4084,40.82952 -0.4084,40.82952"
       id="path4421"
       inkscape:connector-curvature="0" />
    <path
       style="fill:#000000;fill-opacity:1;stroke:#000000;stroke-width:3;stroke-linecap:round;stroke-linejoin:round;stroke-miterlimit:4;stroke-opacity:1;stroke-dasharray:none"
       d="m 397.33224,827.50815 c 0.40841,9.39079 0.8168,14.29033 -9.39317,14.69863 -10.20998,0.40829 -13.47717,-14.69863 -7.35118,-20.82306 6.12598,-6.12442 11.84357,-2.04147 14.70236,0.8166 2.85879,2.85806 2.04199,5.30783 2.04199,5.30783 z"
       id="path4423"
       inkscape:connector-curvature="0" />
    <path
       style="fill:#000000;fill-opacity:1;stroke:#000000;stroke-width:3;stroke-linecap:round;stroke-linejoin:round;stroke-miterlimit:4;stroke-opacity:1;stroke-dasharray:none"
       d="m 432.86297,827.50815 c 4.90079,-6.53272 8.98478,-12.24885 13.88556,-7.75761 4.90079,4.49125 2.042,12.24886 -1.63359,18.78158 -3.67559,6.53273 -9.39318,11.43226 -10.61838,7.34932 -1.22519,-4.08296 -4.08399,-13.06545 -1.63359,-18.37329 z"
       id="path4425"
       inkscape:connector-curvature="0" />
  </g>
</svg>
