<?xml version="1.0" encoding="UTF-8" standalone="no"?>
<!-- Created with Inkscape (http://www.inkscape.org/) -->

<svg
   xmlns:dc="http://purl.org/dc/elements/1.1/"
   xmlns:cc="http://creativecommons.org/ns#"
   xmlns:rdf="http://www.w3.org/1999/02/22-rdf-syntax-ns#"
   xmlns:svg="http://www.w3.org/2000/svg"
   xmlns="http://www.w3.org/2000/svg"
   xmlns:sodipodi="http://sodipodi.sourceforge.net/DTD/sodipodi-0.dtd"
   xmlns:inkscape="http://www.inkscape.org/namespaces/inkscape"
   width="800"
   height="600"
   id="svg2"
   version="1.1"
   inkscape:version="0.48.5 r10040"
   sodipodi:docname="ball2.svg">
  <defs
     id="defs4" />
  <sodipodi:namedview
     id="base"
     pagecolor="#ffffff"
     bordercolor="#666666"
     borderopacity="1.0"
     inkscape:pageopacity="0.0"
     inkscape:pageshadow="2"
     inkscape:zoom="1.979899"
     inkscape:cx="301.85285"
     inkscape:cy="261.02126"
     inkscape:document-units="px"
     inkscape:current-layer="layer1"
     showgrid="false"
     inkscape:window-width="1920"
     inkscape:window-height="1017"
     inkscape:window-x="-8"
     inkscape:window-y="-8"
     inkscape:window-maximized="1" />
  <metadata
     id="metadata7">
    <rdf:RDF>
      <cc:Work
         rdf:about="">
        <dc:format>image/svg+xml</dc:format>
        <dc:type
           rdf:resource="http://purl.org/dc/dcmitype/StillImage" />
        <dc:title />
      </cc:Work>
    </rdf:RDF>
  </metadata>
  <g
     inkscape:label="Layer 1"
     inkscape:groupmode="layer"
     id="layer1"
     transform="translate(0,-452.36218)">
    <path
       style="fill:none;stroke:#000000;stroke-width:3;stroke-linecap:round;stroke-linejoin:round;stroke-miterlimit:4;stroke-opacity:1;stroke-dasharray:none"
       d="m 394.46457,692.74788 c 75.25636,8.58629 84.85281,16.16244 110.6117,42.93148 25.75889,26.76904 35.35534,55.55839 35.35534,72.22591 0,16.66751 7.07107,47.47717 -15.65737,59.09392 -22.72843,11.61675 -102.0254,47.98225 -140.4112,35.35534 -38.3858,-12.62691 -75.25636,-38.89087 -77.78175,-68.1853 -2.52538,-29.29442 22.72844,-80.8122 37.88072,-85.35789 15.15229,-4.54568 32.82996,-23.73858 54.54824,-33.84011 21.71828,-10.10152 46.97209,-26.76904 71.72083,-14.64721"
       id="path3774"
       inkscape:connector-curvature="0" />
    <path
       style="fill:none;stroke:#000000;stroke-width:3;stroke-linecap:round;stroke-linejoin:round;stroke-miterlimit:4;stroke-opacity:1;stroke-dasharray:none"
       d="m 362.13968,731.63875 c 30.80966,42.42641 28.78935,61.61931 21.71828,88.89342 -7.07106,27.27412 -27.77919,91.92388 -33.33503,69.19545"
       id="path3776"
       inkscape:connector-curvature="0" />
    <path
       style="fill:none;stroke:#000000;stroke-width:3;stroke-linecap:round;stroke-linejoin:round;stroke-miterlimit:4;stroke-opacity:1;stroke-dasharray:none"
       d="m 489.92398,719.01184 c -1.01015,-14.64721 -15.65736,8.5863 -19.69797,25.25382 -4.04061,16.66751 -20.20305,74.24621 0.50507,96.46956 20.70813,22.22336 43.43656,14.64722 43.43656,14.64722"
       id="path3778"
       inkscape:connector-curvature="0" />
    <path
       style="fill:none;stroke:#000000;stroke-width:3;stroke-linecap:round;stroke-linejoin:round;stroke-miterlimit:4;stroke-opacity:1;stroke-dasharray:none"
       d="m 399.51533,746.79104 c 19.69797,-6.06092 30.80965,0.50507 43.43656,-2.02031"
       id="path3780"
       inkscape:connector-curvature="0" />
    <path
       style="fill:none;stroke:#000000;stroke-width:3;stroke-linecap:round;stroke-linejoin:round;stroke-miterlimit:4;stroke-opacity:1;stroke-dasharray:none"
       d="m 402.54579,738.20474 c 5.55583,16.66752 -1.51523,27.27412 0,39.90103 1.51522,12.6269 2.52538,42.93148 2.52538,42.93148"
       id="path3782"
       inkscape:connector-curvature="0" />
    <path
       style="fill:none;stroke:#000000;stroke-width:3;stroke-linecap:round;stroke-linejoin:round;stroke-miterlimit:4;stroke-opacity:1;stroke-dasharray:none"
       d="m 435.88082,738.70982 c 5.55584,8.58629 8.5863,34.34518 9.59645,44.95179 1.01015,10.6066 5.05076,29.29442 5.05076,29.29442"
       id="path3784"
       inkscape:connector-curvature="0" />
    <path
       style="fill:none;stroke:#000000;stroke-width:3;stroke-linecap:round;stroke-linejoin:round;stroke-miterlimit:4;stroke-opacity:1;stroke-dasharray:none"
       d="m 535.88592,800.32912 c 18.68782,-12.6269 74.24621,-16.66751 98.48987,-12.12183 24.24366,4.54569 52.02286,9.59645 61.11423,15.65737 9.09137,6.06091 17.1726,9.09137 17.1726,9.09137 l -83.84267,18.18275 c 0,0 -48.99239,5.05076 -67.68022,18.68782 -18.68782,13.63706 -26.26396,10.6066 -26.26396,10.6066"
       id="path3786"
       inkscape:connector-curvature="0" />
    <path
       style="fill:none;stroke:#000000;stroke-width:3;stroke-linecap:round;stroke-linejoin:round;stroke-miterlimit:4;stroke-opacity:1;stroke-dasharray:none"
       d="m 311.12698,797.29867 c -17.67767,1.01015 -54.54824,10.10152 -67.17514,13.63705 -12.62691,3.53554 -18.68782,1.51523 -33.84011,5.55584 -15.15229,4.04061 -31.81981,15.65737 -31.81981,15.65737 0,0 23.73859,8.08122 43.43656,10.10152 19.69798,2.02031 58.58885,12.62691 69.19545,13.63706 10.6066,1.01016 22.72843,2.02031 22.72843,2.02031"
       id="path3788"
       inkscape:connector-curvature="0" />
    <path
       style="fill:none;stroke:#000000;stroke-width:3;stroke-linecap:round;stroke-linejoin:round;stroke-miterlimit:4;stroke-opacity:1;stroke-dasharray:none"
       d="m 382.84781,902.85961 c 0.50508,17.67766 -9.09137,47.98224 -18.18274,65.65991 -9.09138,17.67767 -24.24367,47.98228 -28.78935,50.00258"
       id="path3790"
       inkscape:connector-curvature="0" />
    <path
       style="fill:none;stroke:#000000;stroke-width:3;stroke-linecap:round;stroke-linejoin:round;stroke-miterlimit:4;stroke-opacity:1;stroke-dasharray:none"
       d="m 468.71078,892.75808 c -2.52538,13.63706 -7.07107,31.81981 4.54568,45.96194 11.61676,14.14214 27.7792,30.30458 31.81981,31.81981"
       id="path3792"
       inkscape:connector-curvature="0" />
    <path
       style="fill:none;stroke:#000000;stroke-width:3;stroke-linecap:round;stroke-linejoin:round;stroke-miterlimit:4;stroke-opacity:1;stroke-dasharray:none"
       d="m 176.27162,857.90782 c -6.56599,-11.61676 2.0203,-20.70813 8.08122,-24.24366"
       id="path3794"
       inkscape:connector-curvature="0" />
    <path
       style="fill:none;stroke:#000000;stroke-width:3;stroke-linecap:round;stroke-linejoin:round;stroke-miterlimit:4;stroke-opacity:1;stroke-dasharray:none"
       d="m 186.87822,861.44335 c -7.07107,-12.12183 1.01015,-22.72843 8.08122,-24.24366"
       id="path3796"
       inkscape:connector-curvature="0" />
    <path
       style="fill:none;stroke:#000000;stroke-width:3;stroke-linecap:round;stroke-linejoin:round;stroke-miterlimit:4;stroke-opacity:1;stroke-dasharray:none"
       d="m 199.50513,863.96873 c -3.53554,-12.12183 2.52538,-21.71828 5.55583,-23.73858"
       id="path3798"
       inkscape:connector-curvature="0" />
    <path
       style="fill:none;stroke:#000000;stroke-width:3;stroke-linecap:round;stroke-linejoin:round;stroke-miterlimit:4;stroke-opacity:1;stroke-dasharray:none"
       d="m 699.02556,815.98649 c -0.50508,11.11168 -1.51523,20.70812 -1.51523,20.70812"
       id="path3800"
       inkscape:connector-curvature="0" />
    <path
       style="fill:none;stroke:#000000;stroke-width:3;stroke-linecap:round;stroke-linejoin:round;stroke-miterlimit:4;stroke-opacity:1;stroke-dasharray:none"
       d="m 703.57124,815.98649 c 2.02031,2.0203 1.01015,8.58629 1.01015,8.58629"
       id="path3802"
       inkscape:connector-curvature="0" />
    <path
       style="fill:none;stroke:#000000;stroke-width:3;stroke-linecap:round;stroke-linejoin:round;stroke-miterlimit:4;stroke-opacity:1;stroke-dasharray:none"
       d="m 707.10678,814.97633 c 2.52538,1.51523 3.03045,8.5863 3.03045,8.5863"
       id="path3804"
       inkscape:connector-curvature="0" />
    <path
       style="fill:none;stroke:#000000;stroke-width:3;stroke-linecap:round;stroke-linejoin:round;stroke-miterlimit:4;stroke-opacity:1;stroke-dasharray:none"
       d="m 712.15754,813.46111 8.08122,7.57614"
       id="path3806"
       inkscape:connector-curvature="0" />
    <path
       style="fill:#000000;fill-opacity:1;stroke:none"
       d="m 404.56609,816.99664 c -2.0203,-9.59645 -6.06091,-14.64721 -10.6066,-4.04061 -4.54569,10.6066 -3.03046,20.20305 0.50508,21.2132 3.53553,1.01016 10.10152,-6.56599 10.6066,-15.15229 0.50507,-8.58629 -0.50508,-2.0203 -0.50508,-2.0203 z"
       id="path3808"
       inkscape:connector-curvature="0" />
    <path
       style="fill:#000000;fill-opacity:1;stroke:none"
       d="m 438.91128,809.92557 c 2.0203,11.61676 6.56599,17.67767 9.09137,16.16244 2.52538,-1.51523 9.09137,-10.10152 5.05076,-18.18274 -4.04061,-8.08122 -8.58629,-11.61676 -10.10152,-7.07107 -1.51523,4.54569 -4.04061,9.09137 -4.04061,9.09137 z"
       id="path3810"
       inkscape:connector-curvature="0" />
  </g>
</svg>
