<?xml version="1.0" encoding="UTF-8" standalone="no"?>
<!-- Created with Inkscape (http://www.inkscape.org/) -->

<svg
   xmlns:dc="http://purl.org/dc/elements/1.1/"
   xmlns:cc="http://creativecommons.org/ns#"
   xmlns:rdf="http://www.w3.org/1999/02/22-rdf-syntax-ns#"
   xmlns:svg="http://www.w3.org/2000/svg"
   xmlns="http://www.w3.org/2000/svg"
   xmlns:sodipodi="http://sodipodi.sourceforge.net/DTD/sodipodi-0.dtd"
   xmlns:inkscape="http://www.inkscape.org/namespaces/inkscape"
   width="800"
   height="600"
   id="svg2"
   version="1.1"
   inkscape:version="0.48.5 r10040"
   sodipodi:docname="dino2.svg">
  <defs
     id="defs4" />
  <sodipodi:namedview
     id="base"
     pagecolor="#ffffff"
     bordercolor="#666666"
     borderopacity="1.0"
     inkscape:pageopacity="0.0"
     inkscape:pageshadow="2"
     inkscape:zoom="1.979899"
     inkscape:cx="293.28972"
     inkscape:cy="304.57218"
     inkscape:document-units="px"
     inkscape:current-layer="layer1"
     showgrid="false"
     inkscape:window-width="1680"
     inkscape:window-height="987"
     inkscape:window-x="1912"
     inkscape:window-y="-8"
     inkscape:window-maximized="1" />
  <metadata
     id="metadata7">
    <rdf:RDF>
      <cc:Work
         rdf:about="">
        <dc:format>image/svg+xml</dc:format>
        <dc:type
           rdf:resource="http://purl.org/dc/dcmitype/StillImage" />
        <dc:title />
      </cc:Work>
    </rdf:RDF>
  </metadata>
  <g
     inkscape:label="Layer 1"
     inkscape:groupmode="layer"
     id="layer1"
     transform="translate(0,-452.36218)">
    <path
       style="fill:none;stroke:#000000;stroke-width:3;stroke-linecap:round;stroke-linejoin:round;stroke-opacity:1;stroke-miterlimit:4;stroke-dasharray:none"
       d="m 170.2107,175.23085 c -13.13198,-21.2132 -13.13198,-25.75888 -20.20305,-26.26396 -7.07106,-0.50508 -16.66751,23.73858 -16.66751,34.34519 0,10.6066 -1.01016,16.16244 -1.01016,16.16244 0,0 -6.06091,-5.55584 -9.09137,-5.55584 -3.03046,0 -4.04061,2.0203 -4.04061,7.57614 0,5.55584 -3.44619,46.19086 -32.324881,38.3858 -18.687822,-5.05077 -14.142136,-5.05076 -13.63706,0 0.505077,5.05076 -7.071067,35.35534 -19.192898,32.32488 -12.12183,-3.03046 -19.192898,-17.17259 -27.274119,-5.55584 -8.08122,11.61675 -9.596449,39.39595 -23.2335081,41.92133 -13.6370589,2.52538 -36.3654919,15.65737 -36.3654919,15.65737"
       id="path4363"
       inkscape:connector-curvature="0"
       transform="translate(0,452.36218)"
       sodipodi:nodetypes="csscsssssssc" />
    <path
       style="fill:none;stroke:#000000;stroke-width:3;stroke-linecap:round;stroke-linejoin:round;stroke-opacity:1;stroke-miterlimit:4;stroke-dasharray:none"
       d="m 172.73609,161.08872 c 38.38579,-5.05076 42.4264,30.80965 34.34518,39.39595 -8.08122,8.5863 -35.86041,35.35534 -54.04316,24.24366 -18.18275,-11.11168 -11.61675,-58.08377 19.69798,-63.63961 z"
       id="path4365"
       inkscape:connector-curvature="0"
       transform="translate(0,452.36218)" />
    <path
       style="fill:none;stroke:#000000;stroke-width:3;stroke-linecap:round;stroke-linejoin:round;stroke-opacity:1;stroke-miterlimit:4;stroke-dasharray:none"
       d="m 160.61425,177.75624 c 10.60661,9.09137 13.13199,20.70812 13.13199,20.70812"
       id="path4367"
       inkscape:connector-curvature="0"
       transform="translate(0,452.36218)" />
    <path
       style="fill:none;stroke:#000000;stroke-width:3;stroke-linecap:round;stroke-linejoin:round;stroke-opacity:1;stroke-miterlimit:4;stroke-dasharray:none"
       d="m 175.76654,173.71563 c -10.6066,12.12183 -15.15229,28.78934 -15.15229,28.78934"
       id="path4369"
       inkscape:connector-curvature="0"
       transform="translate(0,452.36218)" />
    <path
       style="fill:none;stroke:#000000;stroke-width:3;stroke-linecap:round;stroke-linejoin:round;stroke-opacity:1;stroke-miterlimit:4;stroke-dasharray:none"
       d="m 193.44421,173.21055 c -5.05076,14.64721 -11.11168,20.70813 -11.11168,20.70813"
       id="path4371"
       inkscape:connector-curvature="0"
       transform="translate(0,452.36218)" />
    <path
       style="fill:none;stroke:#000000;stroke-width:3;stroke-linecap:round;stroke-linejoin:round;stroke-opacity:1;stroke-miterlimit:4;stroke-dasharray:none"
       d="m 184.35284,175.73593 c 9.09137,6.06092 10.6066,12.62691 10.6066,12.62691"
       id="path4373"
       inkscape:connector-curvature="0"
       transform="translate(0,452.36218)" />
    <path
       sodipodi:type="arc"
       style="color:#000000;fill:#000000;fill-opacity:1;fill-rule:nonzero;stroke:none;stroke-width:3;stroke-linecap:round;stroke-linejoin:round;stroke-miterlimit:4;stroke-opacity:1;stroke-dasharray:none;stroke-dashoffset:0;marker:none;visibility:visible;display:inline;overflow:visible;enable-background:accumulate"
       id="path4375"
       sodipodi:cx="178.797"
       sodipodi:cy="212.85904"
       sodipodi:rx="10.101525"
       sodipodi:ry="9.8489876"
       d="m 188.89852,212.85904 c 0,5.43944 -4.5226,9.84899 -10.10152,9.84899 -5.57892,0 -10.10153,-4.40955 -10.10153,-9.84899 0,-5.43945 4.52261,-9.84899 10.10153,-9.84899 5.57892,0 10.10152,4.40954 10.10152,9.84899 z"
       transform="translate(0,452.36218)" />
    <path
       style="fill:none;stroke:#000000;stroke-width:3;stroke-linecap:round;stroke-linejoin:round;stroke-opacity:1;stroke-miterlimit:4;stroke-dasharray:none"
       d="m 155.56349,225.23341 c -19.69797,10.6066 -31.8198,24.74873 -45.96194,32.82995 -14.142135,8.08122 -54.04316,31.31473 -54.04316,31.31473 0,0 -6.565992,0.50508 -12.626907,14.14214 -6.060915,13.63706 -37.8807203,34.85026 -37.8807203,34.85026 l -23.2335087,7.57614"
       id="path4377"
       inkscape:connector-curvature="0"
       transform="translate(0,452.36218)" />
    <path
       style="fill:none;stroke:#000000;stroke-width:3;stroke-linecap:round;stroke-linejoin:round;stroke-opacity:1;stroke-miterlimit:4;stroke-dasharray:none"
       d="m 167.68532,223.71818 c 7.07107,16.66751 -18.68782,58.08377 -45.96194,77.78174 -27.274117,19.69798 -29.799498,17.1726 -43.941634,33.33504 -14.142136,16.16244 -28.789348,21.2132 -42.931483,30.30457 -14.142136,9.09138 -20.203051,17.1726 -29.7995003,17.67767 -9.5964492,0.50508 -32.8299577,1.51523 -32.8299577,1.51523"
       id="path4379"
       inkscape:connector-curvature="0"
       transform="translate(0,452.36218)" />
    <path
       style="fill:none;stroke:#000000;stroke-width:3;stroke-linecap:round;stroke-linejoin:round;stroke-opacity:1;stroke-miterlimit:4;stroke-dasharray:none"
       d="m 133.34014,286.34763 c 25.75889,1.51523 42.4264,20.70813 42.4264,20.70813 l -21.2132,27.7792 c 0,0 -12.12183,-22.22336 -20.20305,-29.29443 -8.08122,-7.07106 -10.10153,-8.08122 -10.10153,-8.08122"
       id="path4381"
       inkscape:connector-curvature="0"
       transform="translate(0,452.36218)" />
    <path
       style="fill:none;stroke:#000000;stroke-width:3;stroke-linecap:round;stroke-linejoin:round;stroke-opacity:1;stroke-miterlimit:4;stroke-dasharray:none"
       d="m 112.63201,309.58114 c 7.57614,7.57615 0,7.07107 10.10152,14.14214 10.10153,7.07107 9.59645,11.11168 10.60661,19.1929 1.01015,8.08122 4.04061,19.1929 7.57614,21.71828 3.53553,2.52538 7.07107,5.05076 7.07107,5.05076 0,0 -19.69798,1.51523 -26.76904,6.06092 -7.07107,4.54568 -5.05077,7.57614 -5.05077,7.57614 0,0 -14.64721,-28.78935 -16.667514,-38.89087 -2.020305,-10.10153 -4.545687,-18.68783 -3.030458,-24.74874"
       id="path4383"
       inkscape:connector-curvature="0"
       transform="translate(0,452.36218)" />
    <path
       style="fill:none;stroke:#000000;stroke-width:3;stroke-linecap:round;stroke-linejoin:round;stroke-opacity:1;stroke-miterlimit:4;stroke-dasharray:none"
       d="m 69.195449,344.43141 c 14.647212,5.55584 10.606602,8.58629 14.647212,18.18274 4.04061,9.59645 11.111678,30.80965 16.667519,41.41626 5.55584,10.6066 8.58629,21.71828 8.58629,21.71828 0,0 -15.152283,2.52538 -24.243656,6.56599 -9.091373,4.04061 -12.626907,11.11168 -12.626907,11.11168 0,0 -4.545686,-23.23351 -9.091373,-34.34519 -4.545686,-11.11168 -12.626907,-33.84011 -10.101525,-49.49748"
       id="path4385"
       inkscape:connector-curvature="0"
       transform="translate(0,452.36218)"
       sodipodi:nodetypes="csscscsc" />
    <path
       style="fill:none;stroke:#000000;stroke-width:3;stroke-linecap:round;stroke-linejoin:round;stroke-opacity:1;stroke-miterlimit:4;stroke-dasharray:none"
       d="m 38.890873,363.11923 c 12.626907,2.52538 5.555839,13.13198 6.060915,26.76904 0.505077,13.63706 0,23.73859 1.515229,27.27412 1.515229,3.53553 1.010153,5.55584 1.010153,5.55584 l -23.233509,6.06091 c 0,0 -4.04061,-13.63706 -3.535534,-24.74873 0.505076,-11.11168 1.515229,-39.90103 1.515229,-39.90103"
       id="path4387"
       inkscape:connector-curvature="0"
       transform="translate(0,452.36218)" />
  </g>
</svg>
