<?xml version="1.0" encoding="UTF-8" standalone="no"?>
<!-- Created with Inkscape (http://www.inkscape.org/) -->

<svg
   xmlns:dc="http://purl.org/dc/elements/1.1/"
   xmlns:cc="http://creativecommons.org/ns#"
   xmlns:rdf="http://www.w3.org/1999/02/22-rdf-syntax-ns#"
   xmlns:svg="http://www.w3.org/2000/svg"
   xmlns="http://www.w3.org/2000/svg"
   xmlns:sodipodi="http://sodipodi.sourceforge.net/DTD/sodipodi-0.dtd"
   xmlns:inkscape="http://www.inkscape.org/namespaces/inkscape"
   width="800"
   height="600"
   id="svg3782"
   version="1.1"
   inkscape:version="0.48.5 r10040"
   sodipodi:docname="New document 4">
  <defs
     id="defs3784" />
  <sodipodi:namedview
     id="base"
     pagecolor="#ffffff"
     bordercolor="#666666"
     borderopacity="1.0"
     inkscape:pageopacity="0.0"
     inkscape:pageshadow="2"
     inkscape:zoom="1.979899"
     inkscape:cx="316.98133"
     inkscape:cy="185.08498"
     inkscape:document-units="px"
     inkscape:current-layer="layer1"
     showgrid="false"
     inkscape:window-width="1920"
     inkscape:window-height="1017"
     inkscape:window-x="-8"
     inkscape:window-y="-8"
     inkscape:window-maximized="1" />
  <metadata
     id="metadata3787">
    <rdf:RDF>
      <cc:Work
         rdf:about="">
        <dc:format>image/svg+xml</dc:format>
        <dc:type
           rdf:resource="http://purl.org/dc/dcmitype/StillImage" />
        <dc:title></dc:title>
      </cc:Work>
    </rdf:RDF>
  </metadata>
  <g
     inkscape:label="Layer 1"
     inkscape:groupmode="layer"
     id="layer1"
     transform="translate(0,-452.36218)">
    <path
       style="fill:none;stroke:#000000;stroke-width:3;stroke-linecap:round;stroke-linejoin:round;stroke-opacity:1;stroke-miterlimit:4;stroke-dasharray:none"
       d="m 568.71588,379.78674 c 29.7995,8.5863 34.85027,48.48733 27.27412,62.62946 -7.57614,14.14214 -8.58629,28.28427 -26.76904,24.74874 -18.18275,-3.53553 -47.47717,-10.6066 -56.56854,-19.69797 -9.09138,-9.09138 -18.18275,-16.66752 -8.5863,-29.29443 9.59645,-12.62691 29.29442,-26.76904 52.02286,-24.24366 22.72843,2.52538 40.4061,12.62691 41.41625,17.67767 1.01015,5.05076 -1.01015,12.62691 -4.04061,13.63706"
       id="path3801"
       inkscape:connector-curvature="0"
       transform="translate(0,452.36218)" />
    <path
       style="fill:none;stroke:#000000;stroke-width:3;stroke-linecap:round;stroke-linejoin:round;stroke-opacity:1;stroke-miterlimit:4;stroke-dasharray:none"
       d="m 542.45192,401.50502 c 1.51523,11.11168 4.54568,28.78935 3.53553,31.81981"
       id="path3803"
       inkscape:connector-curvature="0"
       transform="translate(0,452.36218)" />
    <path
       style="fill:none;stroke:#000000;stroke-width:3;stroke-linecap:round;stroke-linejoin:round;stroke-opacity:1;stroke-miterlimit:4;stroke-dasharray:none"
       d="m 556.59405,409.08117 c -17.67767,-4.54569 -31.31473,18.68782 -32.82995,29.29442"
       id="path3805"
       inkscape:connector-curvature="0"
       transform="translate(0,452.36218)" />
    <path
       style="fill:none;stroke:#000000;stroke-width:3;stroke-linecap:round;stroke-linejoin:round;stroke-opacity:1;stroke-miterlimit:4;stroke-dasharray:none"
       d="m 566.1905,409.58625 c 0,14.14213 5.05076,23.73858 0,28.28427"
       id="path3807"
       inkscape:connector-curvature="0"
       transform="translate(0,452.36218)" />
    <path
       style="fill:none;stroke:#000000;stroke-width:3;stroke-linecap:round;stroke-linejoin:round;stroke-opacity:1;stroke-miterlimit:4;stroke-dasharray:none"
       d="m 581.84787,413.62686 c -10.60661,9.59644 -16.16244,5.05076 -28.28427,20.70812"
       id="path3809"
       inkscape:connector-curvature="0"
       transform="translate(0,452.36218)" />
    <path
       style="fill:none;stroke:#000000;stroke-width:3;stroke-linecap:round;stroke-linejoin:round;stroke-opacity:1;stroke-miterlimit:4;stroke-dasharray:none"
       d="m 564.1702,394.93903 c 0,-22.22335 0,-18.68782 -20.20305,-10.10152 -20.20305,8.58629 -20.70813,8.58629 -20.70813,-2.52538 0,-11.11168 -1.51523,-15.15229 -28.78935,7.57614 -27.27412,22.72843 -32.32488,18.68782 -31.31473,4.04061 1.01015,-14.64721 7.07107,-18.68782 -26.26396,7.07107 -33.33504,25.75889 -47.47717,22.72843 -45.45687,2.0203 2.02031,-20.70812 5.05076,-23.73858 -17.17259,-9.09137 -22.22336,14.64721 -27.27412,12.62691 -28.28427,1.01015 -1.01016,-11.61675 -1.01016,-15.65736 -17.67767,-0.50507 -16.66752,15.15229 -15.65737,12.12183 -22.22336,8.58629 -6.56599,-3.53553 -11.11168,-2.0203 -23.73858,14.64722 -12.62691,16.66751 -22.72844,21.71828 -25.25382,16.66751"
       id="path3811"
       inkscape:connector-curvature="0"
       transform="translate(0,452.36218)" />
    <path
       style="fill:none;stroke:#000000;stroke-width:3;stroke-linecap:round;stroke-linejoin:round;stroke-opacity:1;stroke-miterlimit:4;stroke-dasharray:none"
       d="m 494.97475,431.8096 c 22.22335,1.01015 17.17259,13.63706 8.58629,29.7995 -8.58629,16.16244 -21.71828,26.26397 -22.72843,31.81981 -1.01015,5.55584 -2.52538,9.09137 -2.52538,9.09137 0,0 -0.50508,-5.55584 -17.67767,-3.53553 -17.17259,2.0203 -58.58885,-10.60661 -100.0051,-18.68783 -41.41626,-8.08122 -71.21576,-6.56599 -83.33759,-12.6269 -12.12183,-6.06092 -13.63706,-16.66752 0,-28.78935 13.63706,-12.12183 45.45687,-38.3858 89.3985,-33.84011 43.94164,4.54569 104.55079,17.17259 112.63201,24.74874 8.08122,7.57614 15.15229,16.66751 10.10153,20.20305"
       id="path3813"
       inkscape:connector-curvature="0"
       transform="translate(0,452.36218)" />
    <path
       style="fill:none;stroke:#000000;stroke-width:3;stroke-linecap:round;stroke-linejoin:round;stroke-opacity:1;stroke-miterlimit:4;stroke-dasharray:none"
       d="m 271.22596,458.07357 c -27.27412,20.70812 -36.36549,41.41625 -38.89087,53.53808 -2.52539,12.12183 -0.50508,27.27412 6.56599,33.84011 7.07106,6.56599 8.08122,10.6066 8.08122,10.6066 0,0 0,-27.77919 9.59645,-45.45686 9.59645,-17.67767 19.1929,-45.45686 26.76904,-48.48732"
       id="path3815"
       inkscape:connector-curvature="0"
       transform="translate(0,452.36218)" />
    <path
       style="fill:none;stroke:#000000;stroke-width:3;stroke-linecap:round;stroke-linejoin:round;stroke-opacity:1;stroke-miterlimit:4;stroke-dasharray:none"
       d="m 258.09398,467.16494 c 0,-25.25381 -3.53554,-16.16244 -10.10153,-2.52538 -6.56599,13.63706 -2.02031,12.12183 -11.61675,10.10152 -9.59645,-2.0203 -6.06092,6.06092 -8.08122,17.67767 -2.02031,11.61676 0,16.16244 0,16.16244 0,0 -4.54569,-20.70812 -6.06092,3.03046 -1.51523,23.73859 4.54569,27.27412 4.54569,27.27412"
       id="path3817"
       inkscape:connector-curvature="0"
       transform="translate(0,452.36218)" />
    <path
       sodipodi:type="arc"
       style="opacity:1;color:#000000;fill:#000000;fill-opacity:1;fill-rule:nonzero;stroke:none;stroke-width:3;marker:none;visibility:visible;display:inline;overflow:visible;enable-background:accumulate"
       id="path4327"
       sodipodi:cx="544.97729"
       sodipodi:cy="454.28549"
       sodipodi:rx="5.5558391"
       sodipodi:ry="4.7982244"
       d="m 550.53313,454.28549 a 5.5558391,4.7982244 0 1 1 -11.11167,0 5.5558391,4.7982244 0 1 1 11.11167,0 z"
       transform="translate(0,452.36218)" />
  </g>
</svg>
