<?xml version="1.0" encoding="UTF-8" standalone="no"?>
<!-- Created with Inkscape (http://www.inkscape.org/) -->

<svg
   xmlns:dc="http://purl.org/dc/elements/1.1/"
   xmlns:cc="http://creativecommons.org/ns#"
   xmlns:rdf="http://www.w3.org/1999/02/22-rdf-syntax-ns#"
   xmlns:svg="http://www.w3.org/2000/svg"
   xmlns="http://www.w3.org/2000/svg"
   xmlns:sodipodi="http://sodipodi.sourceforge.net/DTD/sodipodi-0.dtd"
   xmlns:inkscape="http://www.inkscape.org/namespaces/inkscape"
   width="800"
   height="600"
   id="svg2"
   version="1.1"
   inkscape:version="0.48.5 r10040"
   sodipodi:docname="girls.svg">
  <defs
     id="defs4" />
  <sodipodi:namedview
     id="base"
     pagecolor="#ffffff"
     bordercolor="#666666"
     borderopacity="1.0"
     inkscape:pageopacity="0.0"
     inkscape:pageshadow="2"
     inkscape:zoom="3.959798"
     inkscape:cx="690.98912"
     inkscape:cy="228.71433"
     inkscape:document-units="px"
     inkscape:current-layer="layer1"
     showgrid="false"
     inkscape:window-width="1680"
     inkscape:window-height="987"
     inkscape:window-x="1912"
     inkscape:window-y="-8"
     inkscape:window-maximized="1" />
  <metadata
     id="metadata7">
    <rdf:RDF>
      <cc:Work
         rdf:about="">
        <dc:format>image/svg+xml</dc:format>
        <dc:type
           rdf:resource="http://purl.org/dc/dcmitype/StillImage" />
        <dc:title></dc:title>
      </cc:Work>
    </rdf:RDF>
  </metadata>
  <g
     inkscape:label="Layer 1"
     inkscape:groupmode="layer"
     id="layer1"
     transform="translate(0,-452.36218)">
    <path
       style="fill:none;stroke:#000000;stroke-width:3;stroke-linecap:round;stroke-linejoin:round;stroke-opacity:1;stroke-miterlimit:4;stroke-dasharray:none"
       d="m 676.78571,393.57143 c -2.5,-6.07143 0.35715,-22.14286 9.28572,-36.78572 8.92857,-14.64285 27.5,-47.85714 39.28571,-43.21428 11.78572,4.64286 16.42857,17.5 19.28572,31.42857 2.85714,13.92857 4.64285,44.64286 8.21428,48.57143"
       id="path4427"
       inkscape:connector-curvature="0"
       transform="translate(0,452.36218)" />
    <path
       style="fill:none;stroke:#000000;stroke-width:3;stroke-linecap:round;stroke-linejoin:round;stroke-opacity:1;stroke-miterlimit:4;stroke-dasharray:none"
       d="m 749.64286,406.42857 c 0.35714,-7.5 9.64285,-15.35714 9.64285,-23.57143 0,-8.21428 16.07143,-48.92857 20.35715,-52.5 4.28571,-3.57143 4.28571,1.78572 6.78571,5.71429 2.5,3.92857 8.57143,7.85714 10,23.21428 1.42857,15.35715 4.28572,26.78572 0.71429,35.71429 -3.57143,8.92857 -10.35715,17.5 -8.57143,23.92857"
       id="path4429"
       inkscape:connector-curvature="0"
       transform="translate(0,452.36218)" />
    <path
       style="fill:none;stroke:#000000;stroke-width:3;stroke-linecap:round;stroke-linejoin:round;stroke-opacity:1;stroke-miterlimit:4;stroke-dasharray:none"
       d="m 703.57143,377.85714 c -7.5,-5.35714 -13.92857,-13.57143 -7.5,-31.78571 C 702.5,327.85714 720,307.5 727.85714,315 c 7.85715,7.5 13.57143,15.71429 10.71429,33.57143 -2.85714,17.85714 -10.71429,23.92857 -21.07143,27.14286 -10.35714,3.21428 -9.64286,3.92857 -13.92857,2.14285 z"
       id="path4431"
       inkscape:connector-curvature="0"
       transform="translate(0,452.36218)" />
    <path
       style="fill:none;stroke:#000000;stroke-width:3;stroke-linecap:round;stroke-linejoin:round;stroke-opacity:1;stroke-miterlimit:4;stroke-dasharray:none"
       d="m 779.28571,334.28571 c 16.42858,-0.71428 21.07143,11.07143 17.5,25.71429 -3.57142,14.64286 -13.92857,36.42857 -22.85714,35 -8.92857,-1.42857 -17.5,-10.71429 -13.57143,-19.28571 3.92857,-8.57143 16.07143,-42.14286 18.92857,-41.42858 z"
       id="path4433"
       inkscape:connector-curvature="0"
       transform="translate(0,452.36218)" />
    <path
       style="fill:none;stroke:#000000;stroke-width:3;stroke-linecap:round;stroke-linejoin:round;stroke-opacity:1;stroke-miterlimit:4;stroke-dasharray:none"
       d="m 715,328.92857 c 0,2.85714 -1.07143,8.57143 -1.07143,8.57143"
       id="path4435"
       inkscape:connector-curvature="0"
       transform="translate(0,452.36218)" />
    <path
       style="fill:none;stroke:#000000;stroke-width:3;stroke-linecap:round;stroke-linejoin:round;stroke-miterlimit:4;stroke-opacity:1;stroke-dasharray:none"
       d="M 726.89032,334.19906 C 726.36729,336.53317 724.28571,340 724.28571,340"
       id="path4437"
       inkscape:connector-curvature="0"
       transform="translate(0,452.36218)"
       sodipodi:nodetypes="cc" />
    <path
       style="fill:none;stroke:#000000;stroke-width:3;stroke-linecap:round;stroke-linejoin:round;stroke-opacity:1;stroke-miterlimit:4;stroke-dasharray:none"
       d="m 778.21429,347.14286 c 0.71428,2.5 0.35714,7.14285 0.35714,7.14285"
       id="path4439"
       inkscape:connector-curvature="0"
       transform="translate(0,452.36218)" />
    <path
       style="fill:none;stroke:#000000;stroke-width:3;stroke-linecap:round;stroke-linejoin:round;stroke-opacity:1;stroke-miterlimit:4;stroke-dasharray:none"
       d="m 790,347.5 -1.07143,5.35714"
       id="path4441"
       inkscape:connector-curvature="0"
       transform="translate(0,452.36218)" />
    <path
       style="fill:none;stroke:#000000;stroke-width:3;stroke-linecap:round;stroke-linejoin:round;stroke-opacity:1;stroke-miterlimit:4;stroke-dasharray:none"
       d="m 766.78571,375 c 7.14286,0 14.64286,2.85714 16.07143,3.21429"
       id="path4445"
       inkscape:connector-curvature="0"
       transform="translate(0,452.36218)" />
    <path
       style="fill:none;stroke:#000000;stroke-width:3;stroke-linecap:round;stroke-linejoin:round;stroke-opacity:1;stroke-miterlimit:4;stroke-dasharray:none"
       d="m 705.35714,379.28571 c -2.14285,9.28572 -20,46.78572 -23.92857,52.85715 -3.92857,6.07143 -7.85714,10.35714 -5,12.85714 2.85714,2.5 17.85714,6.07143 25,6.07143 7.14286,0 15.35714,3.92857 15.35714,3.92857 0,0 -1.07142,-30.71429 -4.64285,-42.14286 -3.57143,-11.42857 -4.28572,-15.71428 -11.78572,-18.21428"
       id="path4447"
       inkscape:connector-curvature="0"
       transform="translate(0,452.36218)" />
    <path
       style="fill:none;stroke:#000000;stroke-width:3;stroke-linecap:round;stroke-linejoin:round;stroke-opacity:1;stroke-miterlimit:4;stroke-dasharray:none"
       d="M 690.71429,415 C 679.64286,416.42857 670,422.14286 666.78571,423.57143"
       id="path4449"
       inkscape:connector-curvature="0"
       transform="translate(0,452.36218)" />
    <path
       style="fill:none;stroke:#000000;stroke-width:3;stroke-linecap:round;stroke-linejoin:round;stroke-opacity:1;stroke-miterlimit:4;stroke-dasharray:none"
       d="m 712.85714,420.71429 c 6.42857,0.35714 14.64286,5 19.28572,16.78571"
       id="path4451"
       inkscape:connector-curvature="0"
       transform="translate(0,452.36218)" />
    <path
       style="fill:none;stroke:#000000;stroke-width:3;stroke-linecap:round;stroke-linejoin:round;stroke-opacity:1;stroke-miterlimit:4;stroke-dasharray:none"
       d="m 693.57143,449.64286 c -11.42857,19.28571 -17.14286,27.85714 -17.5,36.42857 -0.35714,8.57143 -0.35714,12.85714 -0.35714,12.85714"
       id="path4453"
       inkscape:connector-curvature="0"
       transform="translate(0,452.36218)" />
    <path
       style="fill:none;stroke:#000000;stroke-width:3;stroke-linecap:round;stroke-linejoin:round;stroke-opacity:1;stroke-miterlimit:4;stroke-dasharray:none"
       d="m 696.78571,451.78571 c 4.64286,21.78572 1.07143,51.07143 1.07143,51.07143"
       id="path4455"
       inkscape:connector-curvature="0"
       transform="translate(0,452.36218)" />
    <path
       style="fill:none;stroke:#000000;stroke-width:3;stroke-linecap:round;stroke-linejoin:round;stroke-opacity:1;stroke-miterlimit:4;stroke-dasharray:none"
       d="m 768.57143,393.92857 c -5,16.42857 -21.42857,55 -21.42857,55 l 28.92857,9.64286 c 0,0 -0.35714,-5 -5.35714,-10 -5,-5 -4.64286,-8.92857 -1.78572,-23.21429 2.85714,-14.28571 3.21429,-17.5 1.07143,-23.57143 -2.14286,-6.07142 -3.21429,-6.42857 -3.21429,-6.42857"
       id="path4457"
       inkscape:connector-curvature="0"
       transform="translate(0,452.36218)" />
    <path
       style="fill:none;stroke:#000000;stroke-width:3;stroke-linecap:round;stroke-linejoin:round;stroke-opacity:1;stroke-miterlimit:4;stroke-dasharray:none"
       d="m 770.35714,423.57143 c 10.35715,5.71428 15,15.35714 16.07143,20.71428"
       id="path4459"
       inkscape:connector-curvature="0"
       transform="translate(0,452.36218)" />
    <path
       style="fill:none;stroke:#000000;stroke-width:3;stroke-linecap:round;stroke-linejoin:round;stroke-opacity:1;stroke-miterlimit:4;stroke-dasharray:none"
       d="m 761.78571,414.28571 c -6.78571,0 -8.92857,14.28572 -13.92857,14.64286"
       id="path4461"
       inkscape:connector-curvature="0"
       transform="translate(0,452.36218)" />
    <path
       style="fill:none;stroke:#000000;stroke-width:3;stroke-linecap:round;stroke-linejoin:round;stroke-opacity:1;stroke-miterlimit:4;stroke-dasharray:none"
       d="m 751.78571,453.92858 c 6.42858,8.21428 3.57143,9.64285 1.78572,23.57142 -1.78572,13.92857 -5,27.85714 -5,27.85714"
       id="path4463"
       inkscape:connector-curvature="0"
       transform="translate(0,452.36218)"
       sodipodi:nodetypes="csc" />
    <path
       style="fill:none;stroke:#000000;stroke-width:3;stroke-linecap:round;stroke-linejoin:round;stroke-opacity:1;stroke-miterlimit:4;stroke-dasharray:none"
       d="m 764.64286,456.78571 c 0.71428,12.14286 -1.78572,47.85715 -3.57143,48.92858"
       id="path4465"
       inkscape:connector-curvature="0"
       transform="translate(0,452.36218)" />
    <path
       style="fill:#000000;stroke:#000000;stroke-width:3;stroke-linecap:butt;stroke-linejoin:miter;stroke-opacity:1;stroke-miterlimit:4;stroke-dasharray:none;fill-opacity:1"
       d="m 711.90501,352.26009 c 6.06091,0 11.86929,7.3236 11.86929,7.3236 0,0 -7.07107,5.55584 -12.37437,5.55584 -5.3033,0 -10.10152,-7.07107 -10.10152,-7.07107 0,0 3.03046,-6.06091 10.6066,-5.80837 z"
       id="path3002"
       inkscape:connector-curvature="0"
       transform="translate(0,452.36218)" />
  </g>
</svg>
