<?xml version="1.0" encoding="UTF-8" standalone="no"?>
<!-- Created with Inkscape (http://www.inkscape.org/) -->

<svg
   xmlns:dc="http://purl.org/dc/elements/1.1/"
   xmlns:cc="http://creativecommons.org/ns#"
   xmlns:rdf="http://www.w3.org/1999/02/22-rdf-syntax-ns#"
   xmlns:svg="http://www.w3.org/2000/svg"
   xmlns="http://www.w3.org/2000/svg"
   xmlns:sodipodi="http://sodipodi.sourceforge.net/DTD/sodipodi-0.dtd"
   xmlns:inkscape="http://www.inkscape.org/namespaces/inkscape"
   width="800"
   height="600"
   id="svg2"
   version="1.1"
   inkscape:version="0.48.5 r10040"
   sodipodi:docname="sing1.svg">
  <defs
     id="defs4" />
  <sodipodi:namedview
     id="base"
     pagecolor="#ffffff"
     bordercolor="#666666"
     borderopacity="1.0"
     inkscape:pageopacity="0.0"
     inkscape:pageshadow="2"
     inkscape:zoom="1.979899"
     inkscape:cx="620.81665"
     inkscape:cy="248.54908"
     inkscape:document-units="px"
     inkscape:current-layer="layer1"
     showgrid="false"
     inkscape:window-width="1920"
     inkscape:window-height="1017"
     inkscape:window-x="-8"
     inkscape:window-y="-8"
     inkscape:window-maximized="1" />
  <metadata
     id="metadata7">
    <rdf:RDF>
      <cc:Work
         rdf:about="">
        <dc:format>image/svg+xml</dc:format>
        <dc:type
           rdf:resource="http://purl.org/dc/dcmitype/StillImage" />
        <dc:title></dc:title>
      </cc:Work>
    </rdf:RDF>
  </metadata>
  <g
     inkscape:label="Layer 1"
     inkscape:groupmode="layer"
     id="layer1"
     transform="translate(0,-452.36218)">
    <path
       style="fill:none;stroke:#000000;stroke-width:3;stroke-linecap:round;stroke-linejoin:round;stroke-opacity:1;stroke-miterlimit:4;stroke-dasharray:none"
       d="m 611.64736,226.24356 c 0,0 47.98225,-21.71828 58.08377,-15.15229 10.10153,6.56599 45.45687,30.80966 40.91118,60.60915 -4.54569,29.7995 -2.52538,37.88073 -11.11168,43.43656 -8.58629,5.55584 -28.78934,27.7792 -49.49747,25.25382 -20.70813,-2.52538 -42.42641,-17.67767 -45.96194,-53.53809 -3.53554,-35.86041 7.57614,-60.60915 7.57614,-60.60915 z"
       id="path3010"
       inkscape:connector-curvature="0"
       transform="translate(0,452.36218)" />
    <path
       style="fill:none;stroke:#000000;stroke-width:3;stroke-linecap:round;stroke-linejoin:round;stroke-opacity:1;stroke-miterlimit:4;stroke-dasharray:none"
       d="m 656.09407,341.40095 c -15.15228,22.72843 -27.27411,52.02286 -29.29442,77.27667 -2.0203,25.25381 -7.57614,32.32488 3.03046,32.32488 10.6066,0 43.43656,-11.61675 61.6193,-7.57614 18.18275,4.04061 21.21321,4.54568 21.21321,4.54568 0,0 -1.01016,-26.26396 -21.71828,-42.93148 -20.70813,-16.66752 -48.9924,-28.78935 -54.04316,-37.88072"
       id="path3012"
       inkscape:connector-curvature="0"
       transform="translate(0,452.36218)" />
    <path
       style="fill:none;stroke:#000000;stroke-width:3;stroke-linecap:round;stroke-linejoin:round;stroke-opacity:1;stroke-miterlimit:4;stroke-dasharray:none"
       d="m 684.88342,394.93903 c 25.75889,1.01016 45.45687,24.74874 45.45687,24.74874"
       id="path3014"
       inkscape:connector-curvature="0"
       transform="translate(0,452.36218)" />
    <path
       style="fill:none;stroke:#000000;stroke-width:3;stroke-linecap:round;stroke-linejoin:round;stroke-opacity:1;stroke-miterlimit:4;stroke-dasharray:none"
       d="m 640.94179,391.90858 c -20.70813,17.17259 -36.3655,24.74873 -40.91118,34.85026 -4.54569,10.10153 -16.16244,27.77919 -16.16244,27.77919"
       id="path3016"
       inkscape:connector-curvature="0"
       transform="translate(0,452.36218)" />
    <path
       style="fill:none;stroke:#000000;stroke-width:3;stroke-linecap:round;stroke-linejoin:round;stroke-opacity:1;stroke-miterlimit:4;stroke-dasharray:none"
       d="m 660.13468,437.36544 c 0.50508,12.62691 0,64.64976 0,64.64976"
       id="path3018"
       inkscape:connector-curvature="0"
       transform="translate(0,452.36218)" />
    <path
       style="fill:none;stroke:#000000;stroke-width:3;stroke-linecap:round;stroke-linejoin:round;stroke-opacity:1;stroke-miterlimit:4;stroke-dasharray:none"
       d="m 678.31743,440.3959 c -1.01015,10.10152 7.57614,63.13453 4.04061,65.15484"
       id="path3020"
       inkscape:connector-curvature="0"
       transform="translate(0,452.36218)" />
    <path
       style="fill:none;stroke:#000000;stroke-width:3;stroke-linecap:round;stroke-linejoin:round;stroke-opacity:1;stroke-miterlimit:4;stroke-dasharray:none"
       d="m 643.97224,259.07352 1.01016,10.10152"
       id="path3022"
       inkscape:connector-curvature="0"
       transform="translate(0,452.36218)" />
    <path
       style="fill:none;stroke:#000000;stroke-width:3;stroke-linecap:round;stroke-linejoin:round;stroke-opacity:1;stroke-miterlimit:4;stroke-dasharray:none"
       d="m 662.66007,258.06337 0,10.6066"
       id="path3024"
       inkscape:connector-curvature="0"
       transform="translate(0,452.36218)" />
    <path
       style="fill:none;stroke:#000000;stroke-width:3;stroke-linecap:round;stroke-linejoin:round;stroke-opacity:1;stroke-miterlimit:4;stroke-dasharray:none"
       d="m 640.94179,313.62176 c 8.08122,-3.53554 16.16244,-3.03046 20.20305,-0.50508"
       id="path3026"
       inkscape:connector-curvature="0"
       transform="translate(0,452.36218)" />
    <path
       style="fill:none;stroke:#000000;stroke-width:3;stroke-linecap:round;stroke-linejoin:round;stroke-opacity:1;stroke-miterlimit:4;stroke-dasharray:none"
       d="m 632.35549,223.71818 c -18.68782,19.1929 -36.36549,42.93148 -34.85026,35.35534 1.51523,-7.57615 49.49747,-59.599 45.45686,-46.97209 -4.04061,12.6269 -23.23351,29.29442 -23.23351,29.29442 0,0 35.86042,-39.39595 37.37565,-30.80965 1.51523,8.58629 -4.04061,12.6269 -4.04061,12.6269 0,0 11.11167,-15.65736 14.64721,-12.12183 3.53553,3.53554 -39.90103,40.91118 -39.90103,40.91118 0,0 60.60916,-42.93148 55.05332,-28.78935 -5.55584,14.14214 -21.71828,21.71828 -21.71828,21.71828 0,0 51.0127,-32.32488 46.46701,-19.1929 -4.54568,13.13199 -20.20305,15.65737 -20.20305,18.18275 0,2.52538 34.85027,-12.62691 34.34519,-5.05076 -0.50508,7.57614 -28.28427,17.17259 -28.28427,17.17259 0,0 0.50507,-13.63706 5.05076,-17.17259"
       id="path3028"
       inkscape:connector-curvature="0"
       transform="translate(0,452.36218)" />
    <path
       style="fill:none;stroke:#000000;stroke-width:3;stroke-linecap:round;stroke-linejoin:round;stroke-opacity:1;stroke-miterlimit:4;stroke-dasharray:none"
       d="m 711.65246,227.25371 c -2.52538,18.18275 5.05077,70.71068 5.05077,70.71068 0,0 -4.54569,-45.45686 1.51522,-53.03301 6.06092,-7.57614 3.03046,32.32488 1.01016,46.9721 -2.02031,14.64721 -3.03046,39.90102 -3.03046,39.90102 0,0 -7.57614,-20.20305 -5.05076,-19.1929 2.52538,1.01016 1.01015,28.78935 1.01015,28.78935 0,0 -7.07107,-40.91118 -4.54569,-45.45686 2.52538,-4.54569 2.02031,66.16499 -2.52538,67.68022 -4.54568,1.51522 -5.55584,-38.89088 -4.04061,-42.42641 1.51523,-3.53553 -1.51523,45.96194 -6.56599,46.46702 -5.05076,0.50507 -7.07107,-34.85027 -7.07107,-34.85027 0,0 1.51523,37.88072 -5.55584,28.78935 -7.07106,-9.09137 -6.06091,-28.28427 -13.13198,-16.16244 -7.07107,12.12183 -11.61675,33.33503 -14.64721,23.73858 -3.03046,-9.59644 0.50508,-29.29442 0.50508,-29.29442 0,0 -8.5863,23.23351 -6.566,27.27412 2.02031,4.04061 -0.50507,-31.31473 -3.53553,-34.85026 -3.03046,-3.53554 -7.57614,13.63706 -6.56599,19.69797 1.01015,6.06092 -3.03046,10.6066 -4.04061,1.01015 -1.01015,-9.59644 -4.54569,-31.8198 -7.57615,-20.70812 -3.03045,11.11168 0.50508,32.82995 0.50508,32.82995 0,0 -16.66752,-53.53808 -18.18275,-59.599 -1.51522,-6.06091 -2.52538,27.27412 1.01016,39.90103 3.53553,12.62691 4.54568,17.67767 4.54568,17.67767 0,0 -9.09137,-62.62946 -8.58629,-68.69037 0.50507,-6.06092 -4.04061,20.70812 -2.02031,38.38579 2.02031,17.67767 4.54569,31.31473 4.54569,31.31473 0,0 -8.5863,-35.86041 -6.56599,-60.60915 2.0203,-24.74874 5.55584,-46.97209 0.50507,-41.92133 -5.05076,5.05076 -6.56599,77.78175 -6.56599,77.78175"
       id="path3030"
       inkscape:connector-curvature="0"
       transform="translate(0,452.36218)" />
  </g>
</svg>
