<?xml version="1.0" encoding="UTF-8" standalone="no"?>
<!-- Created with Inkscape (http://www.inkscape.org/) -->

<svg
   xmlns:dc="http://purl.org/dc/elements/1.1/"
   xmlns:cc="http://creativecommons.org/ns#"
   xmlns:rdf="http://www.w3.org/1999/02/22-rdf-syntax-ns#"
   xmlns:svg="http://www.w3.org/2000/svg"
   xmlns="http://www.w3.org/2000/svg"
   xmlns:sodipodi="http://sodipodi.sourceforge.net/DTD/sodipodi-0.dtd"
   xmlns:inkscape="http://www.inkscape.org/namespaces/inkscape"
   width="800"
   height="600"
   id="svg4329"
   version="1.1"
   inkscape:version="0.48.5 r10040"
   sodipodi:docname="New document 7">
  <defs
     id="defs4331" />
  <sodipodi:namedview
     id="base"
     pagecolor="#ffffff"
     bordercolor="#666666"
     borderopacity="1.0"
     inkscape:pageopacity="0.0"
     inkscape:pageshadow="2"
     inkscape:zoom="1.4"
     inkscape:cx="327.8667"
     inkscape:cy="283.21292"
     inkscape:document-units="px"
     inkscape:current-layer="layer1"
     showgrid="false"
     inkscape:window-width="1920"
     inkscape:window-height="1017"
     inkscape:window-x="-8"
     inkscape:window-y="-8"
     inkscape:window-maximized="1" />
  <metadata
     id="metadata4334">
    <rdf:RDF>
      <cc:Work
         rdf:about="">
        <dc:format>image/svg+xml</dc:format>
        <dc:type
           rdf:resource="http://purl.org/dc/dcmitype/StillImage" />
        <dc:title></dc:title>
      </cc:Work>
    </rdf:RDF>
  </metadata>
  <g
     inkscape:label="Layer 1"
     inkscape:groupmode="layer"
     id="layer1"
     transform="translate(0,-452.36218)">
    <path
       style="fill:none;stroke:#000000;stroke-width:3;stroke-linecap:round;stroke-linejoin:round;stroke-opacity:1;stroke-miterlimit:4;stroke-dasharray:none"
       d="m 422.14286,251.42857 c 78.57143,1.42857 85,85.71429 82.85714,108.57143 -2.14286,22.85714 -5.71429,35.71429 -32.85714,50 -27.14286,14.28571 -67.85715,47.85714 -104.28572,30.71429 -36.42857,-17.14286 -59.28571,-46.42858 -48.57143,-90 C 330,307.14286 355,267.85714 390,260.71429 c 35,-7.14286 20.71429,-10 32.14286,-9.28572 z"
       id="path4348"
       inkscape:connector-curvature="0"
       transform="translate(0,452.36218)" />
    <path
       style="fill:none;stroke:#000000;stroke-width:3;stroke-linecap:round;stroke-linejoin:round;stroke-opacity:1;stroke-miterlimit:4;stroke-dasharray:none"
       d="m 352.85714,284.28571 c 55,9.28572 33.57143,47.85715 30,63.57143 -3.57143,15.71429 -32.14285,69.28572 -32.85714,91.42857"
       id="path4350"
       inkscape:connector-curvature="0"
       transform="translate(0,452.36218)" />
    <path
       style="fill:none;stroke:#000000;stroke-width:3;stroke-linecap:round;stroke-linejoin:round;stroke-opacity:1;stroke-miterlimit:4;stroke-dasharray:none"
       d="m 475.71429,275 c -27.85715,32.85714 -36.42858,57.14286 -36.42858,80 0,22.85714 11.42858,50 33.57143,60.71429"
       id="path4352"
       inkscape:connector-curvature="0"
       transform="translate(0,452.36218)" />
    <path
       style="fill:none;stroke:#000000;stroke-width:3;stroke-linecap:round;stroke-linejoin:round;stroke-opacity:1;stroke-miterlimit:4;stroke-dasharray:none"
       d="m 329.28571,404.28571 c -58.57142,-16.42857 -97.85714,1.42858 -122.14285,28.57143 -24.28572,27.14286 -46.42857,48.57143 -43.57143,83.57143 2.85714,35 5.71428,30 5.71428,30 0,0 18.57143,-70 62.85715,-94.28571 44.28571,-24.28572 76.42857,-38.57143 94.28571,-33.57143 17.85714,5 22.85714,7.85714 22.85714,7.85714"
       id="path4354"
       inkscape:connector-curvature="0"
       transform="translate(0,452.36218)" />
    <path
       style="fill:none;stroke:#000000;stroke-width:3;stroke-linecap:round;stroke-linejoin:round;stroke-opacity:1;stroke-miterlimit:4;stroke-dasharray:none"
       d="m 461.42857,413.57143 c 35,36.42857 79.28572,64.28571 112.85714,64.28571 33.57143,0 47.14286,-26.42857 38.57143,-40 C 604.28571,424.28571 592.14286,399.28571 565,399.28571 c -27.14286,0 -97.14286,9.28572 -97.14286,9.28572"
       id="path4356"
       inkscape:connector-curvature="0"
       transform="translate(0,452.36218)" />
    <path
       style="fill:none;stroke:#000000;stroke-width:3;stroke-linecap:round;stroke-linejoin:round;stroke-opacity:1;stroke-miterlimit:4;stroke-dasharray:none"
       d="m 499.28571,394.28571 c 10,-13.57142 17.14286,-10 17.14286,-2.85714 0,7.14286 4.28572,6.42857 9.28572,0 5,-6.42857 7.85714,-10.71428 8.57142,-4.28571 0.71429,6.42857 6.42858,2.14285 6.42858,-3.57143 0,-5.71429 3.57142,-11.42857 3.57142,-11.42857 0,0 -0.71428,26.42857 10.71429,14.28571 11.42857,-12.14286 7.85714,-2.14286 10,0.71429 2.14286,2.85714 10.71429,10 9.28571,13.57143"
       id="path4358"
       inkscape:connector-curvature="0"
       transform="translate(0,452.36218)" />
    <path
       style="fill:none;stroke:#000000;stroke-width:3;stroke-linecap:round;stroke-linejoin:round;stroke-opacity:1;stroke-miterlimit:4;stroke-dasharray:none"
       d="M 317.14286,382.14286 C 295,384.28571 279.28571,370 276.42857,381.42857 273.57143,392.85714 273.57143,407.14286 260.71429,390 247.85714,372.85714 251.42857,369.28571 243.57143,392.85714 235.71429,416.42857 230,412.14286 221.42857,405 c -8.57143,-7.14286 -6.42857,-7.14286 -9.28571,5.71429 -2.85715,12.85714 -5,16.42857 -5,16.42857 0,0 0,-15.71429 -7.85715,-17.14286 -7.85714,-1.42857 -8.57142,20 -8.57142,20"
       id="path4360"
       inkscape:connector-curvature="0"
       transform="translate(0,452.36218)" />
    <path
       style="fill:none;stroke:#000000;stroke-width:3;stroke-linecap:round;stroke-linejoin:round;stroke-opacity:1;stroke-miterlimit:4;stroke-dasharray:none"
       d="m 532.85714,406.42857 c 0,0 9.28572,32.85714 6.42857,35"
       id="path4362"
       inkscape:connector-curvature="0"
       transform="translate(0,452.36218)" />
    <path
       style="fill:none;stroke:#000000;stroke-width:3;stroke-linecap:round;stroke-linejoin:round;stroke-opacity:1;stroke-miterlimit:4;stroke-dasharray:none"
       d="M 547.85714,414.28571 C 529.28571,415 518.57143,435.71429 517.14286,442.85714"
       id="path4364"
       inkscape:connector-curvature="0"
       transform="translate(0,452.36218)" />
    <path
       style="fill:none;stroke:#000000;stroke-width:3;stroke-linecap:round;stroke-linejoin:round;stroke-opacity:1;stroke-miterlimit:4;stroke-dasharray:none"
       d="m 546.42857,445.71429 c 11.42857,-16.42858 26.42857,-27.85715 36.42857,-27.85715"
       id="path4366"
       inkscape:connector-curvature="0"
       transform="translate(0,452.36218)" />
    <path
       style="fill:none;stroke:#000000;stroke-width:3;stroke-linecap:round;stroke-linejoin:round;stroke-opacity:1;stroke-miterlimit:4;stroke-dasharray:none"
       d="m 568.57143,414.28571 c -5,11.42858 0.71428,23.57143 0,28.57143"
       id="path4368"
       inkscape:connector-curvature="0"
       transform="translate(0,452.36218)" />
    <path
       style="fill:#000000;stroke:#000000;stroke-width:3;stroke-linecap:round;stroke-linejoin:round;stroke-opacity:1;stroke-miterlimit:4;stroke-dasharray:none;fill-opacity:1"
       d="m 527.14286,464.28571 c 0.71428,-13.57142 14.28571,-10.71428 11.42857,-3.57142 C 535.71429,467.85714 535,469.28571 535,469.28571 z"
       id="path4370"
       inkscape:connector-curvature="0"
       transform="translate(0,452.36218)" />
  </g>
</svg>
