<?xml version="1.0" encoding="UTF-8" standalone="no"?>
<!-- Created with Inkscape (http://www.inkscape.org/) -->

<svg
   xmlns:dc="http://purl.org/dc/elements/1.1/"
   xmlns:cc="http://creativecommons.org/ns#"
   xmlns:rdf="http://www.w3.org/1999/02/22-rdf-syntax-ns#"
   xmlns:svg="http://www.w3.org/2000/svg"
   xmlns="http://www.w3.org/2000/svg"
   xmlns:sodipodi="http://sodipodi.sourceforge.net/DTD/sodipodi-0.dtd"
   xmlns:inkscape="http://www.inkscape.org/namespaces/inkscape"
   width="800"
   height="600"
   id="svg2"
   version="1.1"
   inkscape:version="0.48.5 r10040"
   sodipodi:docname="ptera1.svg">
  <defs
     id="defs4" />
  <sodipodi:namedview
     id="base"
     pagecolor="#ffffff"
     bordercolor="#666666"
     borderopacity="1.0"
     inkscape:pageopacity="0.0"
     inkscape:pageshadow="2"
     inkscape:zoom="5.6"
     inkscape:cx="423.79475"
     inkscape:cy="441.96671"
     inkscape:document-units="px"
     inkscape:current-layer="layer1"
     showgrid="false"
     inkscape:window-width="1920"
     inkscape:window-height="1017"
     inkscape:window-x="-8"
     inkscape:window-y="-8"
     inkscape:window-maximized="1" />
  <metadata
     id="metadata7">
    <rdf:RDF>
      <cc:Work
         rdf:about="">
        <dc:format>image/svg+xml</dc:format>
        <dc:type
           rdf:resource="http://purl.org/dc/dcmitype/StillImage" />
        <dc:title></dc:title>
      </cc:Work>
    </rdf:RDF>
  </metadata>
  <g
     inkscape:label="Layer 1"
     inkscape:groupmode="layer"
     id="layer1"
     transform="translate(0,-452.36218)">
    <path
       style="fill:none;stroke:#000000;stroke-width:3;stroke-linecap:round;stroke-linejoin:round;stroke-opacity:1;stroke-miterlimit:4;stroke-dasharray:none"
       d="m 375.71428,85.714289 c -27.14285,-24.285714 -37.14285,-25 -52.14285,-32.857142 -15,-7.857143 -51.42857,-26.428572 -51.42857,-26.428572 0,0 5.71428,24.285714 18.57142,32.142857 12.85715,7.857143 31.42857,20.714286 35,24.285714 3.57143,3.571429 20.71429,12.857143 32.85715,19.285714 C 370.71428,108.57143 380,118.57143 380,118.57143"
       id="path3853"
       inkscape:connector-curvature="0"
       transform="translate(0,452.36218)" />
    <path
       style="fill:none;stroke:#000000;stroke-width:3;stroke-linecap:round;stroke-linejoin:round;stroke-opacity:1;stroke-miterlimit:4;stroke-dasharray:none"
       d="M 411.42857,75.714289 C 463.57143,92.857146 472.85714,135 467.14285,139.28572 461.42857,143.57143 391.42857,160 366.42857,147.85715 c -25,-12.14286 -22.14286,-43.57143 -10,-52.857147 12.14286,-9.285714 25.71428,-18.571428 47.14286,-16.428571 21.42857,2.142857 33.57142,14.285714 33.57142,14.285714"
       id="path3855"
       inkscape:connector-curvature="0"
       transform="translate(0,452.36218)" />
    <path
       style="fill:none;stroke:#000000;stroke-width:3;stroke-linecap:round;stroke-linejoin:round;stroke-opacity:1;stroke-miterlimit:4;stroke-dasharray:none"
       d="m 406.42857,151.42857 c -16.42857,40 -37.14286,85 -36.42857,112.85715 0.71428,27.85714 27.85714,55 42.14285,55.71428 14.28572,0.71429 32.14286,-15.71428 31.42858,-25 -0.71429,-9.28571 11.42857,-27.14285 12.14285,-37.85714 0.71429,-10.71429 -2.14285,-50.71429 -7.85714,-60.71429 -5.71429,-10 -30,-34.28571 -42.85714,-40"
       id="path3863"
       inkscape:connector-curvature="0"
       transform="translate(0,452.36218)" />
    <path
       style="fill:none;stroke:#000000;stroke-width:3;stroke-linecap:round;stroke-linejoin:round;stroke-opacity:1;stroke-miterlimit:4;stroke-dasharray:none"
       d="M 385.71428,208.57143 C 372.14285,187.14286 377.14285,192.14286 360,190.71429 c -17.14286,-1.42857 -70.71429,-2.85714 -83.57143,5 -12.85714,7.85714 -4.28571,13.57143 6.42857,18.57143 10.71429,5 65.71429,14.28571 77.85714,20 12.14286,5.71428 22.14286,7.85714 22.14286,10"
       id="path3865"
       inkscape:connector-curvature="0"
       transform="translate(0,452.36218)" />
    <path
       style="fill:none;stroke:#000000;stroke-width:3;stroke-linecap:round;stroke-linejoin:round;stroke-opacity:1;stroke-miterlimit:4;stroke-dasharray:none"
       d="M 451.42857,216.42857 C 470,193.57143 498.57143,196.42857 523.57143,200 c 24.99999,3.57143 45.71428,7.85715 45.71428,7.85715 0,0 -3.57143,5.71428 -8.57143,7.14285 -5,1.42857 -89.28571,25 -103.57143,35"
       id="path3867"
       inkscape:connector-curvature="0"
       transform="translate(0,452.36218)" />
    <path
       style="fill:none;stroke:#000000;stroke-width:3;stroke-linecap:round;stroke-linejoin:round;stroke-opacity:1;stroke-miterlimit:4;stroke-dasharray:none"
       d="M 571.42857,209.28572 580,217.14286"
       id="path3869"
       inkscape:connector-curvature="0"
       transform="translate(0,452.36218)" />
    <path
       style="fill:none;stroke:#000000;stroke-width:3;stroke-linecap:round;stroke-linejoin:round;stroke-opacity:1;stroke-miterlimit:4;stroke-dasharray:none"
       d="m 563.57142,213.57143 5,7.14286"
       id="path3871"
       inkscape:connector-curvature="0"
       transform="translate(0,452.36218)" />
    <path
       style="fill:none;stroke:#000000;stroke-width:3;stroke-linecap:round;stroke-linejoin:round;stroke-opacity:1;stroke-miterlimit:4;stroke-dasharray:none"
       d="m 556.42857,212.85715 2.14285,12.85714"
       id="path3873"
       inkscape:connector-curvature="0"
       transform="translate(0,452.36218)" />
    <path
       style="fill:none;stroke:#000000;stroke-width:3;stroke-linecap:round;stroke-linejoin:round;stroke-opacity:1;stroke-miterlimit:4;stroke-dasharray:none"
       d="m 407.85714,310.71429 c 0,0 -18.57143,50.71428 -22.85714,51.42857"
       id="path3881"
       inkscape:connector-curvature="0"
       transform="translate(0,452.36218)" />
    <path
       style="fill:none;stroke:#000000;stroke-width:3;stroke-linecap:round;stroke-linejoin:round;stroke-opacity:1;stroke-miterlimit:4;stroke-dasharray:none"
       d="M 423.57143,315 C 430,320.71429 440,340.71429 440,340.71429"
       id="path3883"
       inkscape:connector-curvature="0"
       transform="translate(0,452.36218)" />
    <path
       sodipodi:type="arc"
       style="color:#000000;fill:#000000;fill-opacity:1;fill-rule:nonzero;stroke:none;stroke-width:3;stroke-linecap:round;stroke-linejoin:round;stroke-miterlimit:4;stroke-opacity:1;stroke-dasharray:none;stroke-dashoffset:0;marker:none;visibility:visible;display:inline;overflow:visible;enable-background:accumulate"
       id="path3885"
       sodipodi:cx="418.8345"
       sodipodi:cy="108.18198"
       sodipodi:rx="2.1465743"
       sodipodi:ry="4.9244938"
       d="m 420.98108,108.18198 a 2.1465743,4.9244938 0 1 1 -4.29315,0 2.1465743,4.9244938 0 1 1 4.29315,0 z"
       transform="translate(0,452.36218)" />
    <path
       sodipodi:type="arc"
       style="color:#000000;fill:#000000;fill-opacity:1;fill-rule:nonzero;stroke:none;stroke-width:3;marker:none;visibility:visible;display:inline;overflow:visible;enable-background:accumulate"
       id="path3887"
       sodipodi:cx="437.52231"
       sodipodi:cy="108.56079"
       sodipodi:rx="2.6516504"
       sodipodi:ry="3.2829957"
       d="m 440.17396,108.56079 a 2.6516504,3.2829957 0 1 1 -5.3033,0 2.6516504,3.2829957 0 1 1 5.3033,0 z"
       transform="matrix(0.94284549,0.33323021,-0.33323021,0.94284549,61.182107,312.77127)" />
    <path
       style="fill:none;stroke:#000000;stroke-width:3;stroke-linecap:round;stroke-linejoin:round;stroke-miterlimit:4;stroke-opacity:1;stroke-dasharray:none"
       d="m 393.02858,791.69554 c 63.59378,7.25386 71.70306,13.65433 93.47006,36.26932 21.767,22.61498 29.87628,46.93676 29.87628,61.01779 0,14.08102 5.97525,40.10959 -13.23093,49.92364 -19.20617,9.81404 -86.21439,40.53629 -118.65149,29.86885 -32.4371,-10.66745 -63.59378,-32.85573 -65.72781,-57.60421 -2.13402,-24.74847 19.20618,-68.27165 32.01029,-72.11193 12.80412,-3.84028 27.74226,-20.0548 46.09483,-28.58876 18.35257,-8.53395 39.69277,-22.61498 60.60616,-12.37423"
       id="path3774"
       inkscape:connector-curvature="0" />
    <path
       style="fill:none;stroke:#000000;stroke-width:3;stroke-linecap:round;stroke-linejoin:round;stroke-miterlimit:4;stroke-opacity:1;stroke-dasharray:none"
       d="m 365.71312,824.55127 c 26.03505,35.84262 24.32783,52.05714 18.35257,75.09882 -5.97525,23.04168 -23.47421,77.659 -28.16905,58.4576"
       id="path3776"
       inkscape:connector-curvature="0" />
    <path
       style="fill:none;stroke:#000000;stroke-width:3;stroke-linecap:round;stroke-linejoin:round;stroke-miterlimit:4;stroke-opacity:1;stroke-dasharray:none"
       d="m 473.69452,813.88383 c -0.8536,-12.37424 -13.23092,7.25386 -16.64535,21.33489 -3.41443,14.08102 -17.07216,62.72458 0.4268,81.49928 17.49896,18.77471 36.70514,12.37424 36.70514,12.37424"
       id="path3778"
       inkscape:connector-curvature="0" />
    <path
       style="fill:none;stroke:#000000;stroke-width:3;stroke-linecap:round;stroke-linejoin:round;stroke-miterlimit:4;stroke-opacity:1;stroke-dasharray:none"
       d="m 397.29662,837.35221 c 16.64535,-5.12038 26.03504,0.42669 36.70514,-1.7068"
       id="path3780"
       inkscape:connector-curvature="0" />
    <path
       style="fill:none;stroke:#000000;stroke-width:3;stroke-linecap:round;stroke-linejoin:round;stroke-miterlimit:4;stroke-opacity:1;stroke-dasharray:none"
       d="m 399.85744,830.09834 c 4.69484,14.08103 -1.28041,23.04169 0,33.70914 1.28041,10.66744 2.13402,36.26931 2.13402,36.26931"
       id="path3782"
       inkscape:connector-curvature="0" />
    <path
       style="fill:none;stroke:#000000;stroke-width:3;stroke-linecap:round;stroke-linejoin:round;stroke-miterlimit:4;stroke-opacity:1;stroke-dasharray:none"
       d="m 428.0265,830.52504 c 4.69485,7.25386 7.25567,29.01545 8.10928,37.97611 0.8536,8.96065 4.26803,24.74847 4.26803,24.74847"
       id="path3784"
       inkscape:connector-curvature="0" />
    <path
       style="fill:#000000;fill-opacity:1;stroke:none"
       d="m 401.56465,896.66321 c -1.70721,-8.10726 -5.12164,-12.37423 -8.96288,-3.41358 -3.84123,8.96065 -2.56082,17.06791 0.42681,17.92131 2.98762,0.8534 8.53607,-5.54708 8.96288,-12.80094 0.4268,-7.25386 -0.42681,-1.70679 -0.42681,-1.70679 z"
       id="path3808"
       inkscape:connector-curvature="0" />
    <path
       style="fill:#000000;fill-opacity:1;stroke:none"
       d="m 430.58733,890.68944 c 1.70721,9.81406 5.54845,14.93442 7.68246,13.65433 2.13402,-1.28009 7.68247,-8.53395 4.26804,-15.36112 -3.41443,-6.82716 -7.25566,-9.81405 -8.53607,-5.97377 -1.28042,3.84029 -3.41443,7.68056 -3.41443,7.68056 z"
       id="path3810"
       inkscape:connector-curvature="0" />
    <path
       style="fill:#000000;stroke:#000000;stroke-width:3;stroke-linecap:round;stroke-linejoin:round;stroke-opacity:1;stroke-miterlimit:4;stroke-dasharray:none;fill-opacity:1"
       d="m 408.39285,128.57143 c 3.57143,-5.35714 29.28572,-7.32143 32.85715,-2.5 3.57143,4.82143 -7.32143,13.92857 -15.53572,14.10714 -8.21428,0.17858 -19.10714,-8.39285 -17.32143,-11.60714 z"
       id="path4009"
       inkscape:connector-curvature="0"
       transform="translate(0,452.36218)" />
  </g>
</svg>
