<?xml version="1.0" encoding="UTF-8" standalone="no"?>
<!-- Created with Inkscape (http://www.inkscape.org/) -->

<svg
   xmlns:dc="http://purl.org/dc/elements/1.1/"
   xmlns:cc="http://creativecommons.org/ns#"
   xmlns:rdf="http://www.w3.org/1999/02/22-rdf-syntax-ns#"
   xmlns:svg="http://www.w3.org/2000/svg"
   xmlns="http://www.w3.org/2000/svg"
   xmlns:sodipodi="http://sodipodi.sourceforge.net/DTD/sodipodi-0.dtd"
   xmlns:inkscape="http://www.inkscape.org/namespaces/inkscape"
   width="800"
   height="600"
   id="svg2"
   version="1.1"
   inkscape:version="0.48.5 r10040"
   sodipodi:docname="ptera2.svg">
  <defs
     id="defs4" />
  <sodipodi:namedview
     id="base"
     pagecolor="#ffffff"
     bordercolor="#666666"
     borderopacity="1.0"
     inkscape:pageopacity="0.0"
     inkscape:pageshadow="2"
     inkscape:zoom="0.9899495"
     inkscape:cx="456.73251"
     inkscape:cy="248.54378"
     inkscape:document-units="px"
     inkscape:current-layer="layer1"
     showgrid="false"
     inkscape:window-width="1920"
     inkscape:window-height="1017"
     inkscape:window-x="-8"
     inkscape:window-y="-8"
     inkscape:window-maximized="1" />
  <metadata
     id="metadata7">
    <rdf:RDF>
      <cc:Work
         rdf:about="">
        <dc:format>image/svg+xml</dc:format>
        <dc:type
           rdf:resource="http://purl.org/dc/dcmitype/StillImage" />
        <dc:title></dc:title>
      </cc:Work>
    </rdf:RDF>
  </metadata>
  <g
     inkscape:label="Layer 1"
     inkscape:groupmode="layer"
     id="layer1"
     transform="translate(0,-452.36218)">
    <path
       style="fill:none;stroke:#000000;stroke-width:3;stroke-linecap:round;stroke-linejoin:round;stroke-opacity:1;stroke-miterlimit:4;stroke-dasharray:none"
       d="m 667.14285,207.14286 c 27.14286,2.14286 52.14286,47.14286 53.57143,63.57143 1.42857,16.42857 -12.85714,80.71428 -62.85714,77.85714 -50,-2.85714 -45,-52.14286 -43.57143,-70 1.42857,-17.85714 33.57143,-71.42857 52.85714,-71.42857 z"
       id="path4022"
       inkscape:connector-curvature="0"
       transform="translate(0,452.36218)" />
    <path
       style="fill:none;stroke:#000000;stroke-width:3;stroke-linecap:round;stroke-linejoin:round;stroke-opacity:1;stroke-miterlimit:4;stroke-dasharray:none"
       d="m 647.14285,245 1.42857,10.71429"
       id="path4024"
       inkscape:connector-curvature="0"
       transform="translate(0,452.36218)" />
    <path
       style="fill:none;stroke:#000000;stroke-width:3;stroke-linecap:round;stroke-linejoin:round;stroke-opacity:1;stroke-miterlimit:4;stroke-dasharray:none"
       d="m 676.42857,245.71429 0,11.42857"
       id="path4026"
       inkscape:connector-curvature="0"
       transform="translate(0,452.36218)" />
    <path
       style="fill:none;stroke:#000000;stroke-width:3;stroke-linecap:round;stroke-linejoin:round;stroke-opacity:1;stroke-miterlimit:4;stroke-dasharray:none"
       d="m 662.14285,347.85714 c -9.28571,16.42858 -22.85714,76.42858 -24.28571,87.85715 C 636.42857,447.14286 635,454.28572 635,454.28572 c 0,0 7.14285,1.42857 17.85714,0 10.71428,-1.42858 25,-6.42858 35.71428,-5.71429 10.71429,0.71429 20.71429,5 20.71429,5 0,0 -16.42857,-44.28571 -28.57143,-61.42857 -12.14286,-17.14286 -15,-25 -24.28571,-30.71429"
       id="path4028"
       inkscape:connector-curvature="0"
       transform="translate(0,452.36218)" />
    <path
       style="fill:none;stroke:#000000;stroke-width:3;stroke-linecap:round;stroke-linejoin:round;stroke-opacity:1;stroke-miterlimit:4;stroke-dasharray:none"
       d="m 691.42857,405.71429 c 14.28571,12.85714 39.28571,30.71428 39.28571,30.71428"
       id="path4030"
       inkscape:connector-curvature="0"
       transform="translate(0,452.36218)" />
    <path
       style="fill:none;stroke:#000000;stroke-width:3;stroke-linecap:round;stroke-linejoin:round;stroke-opacity:1;stroke-miterlimit:4;stroke-dasharray:none"
       d="M 617.85714,426.42857 C 626.42857,412.14286 642.14285,387.14286 650,384.28572"
       id="path4032"
       inkscape:connector-curvature="0"
       transform="translate(0,452.36218)" />
    <path
       style="fill:none;stroke:#000000;stroke-width:3;stroke-linecap:round;stroke-linejoin:round;stroke-opacity:1;stroke-miterlimit:4;stroke-dasharray:none"
       d="M 662.14285,452.14286 C 655.71428,469.28572 660,506.42857 660,506.42857"
       id="path4034"
       inkscape:connector-curvature="0"
       transform="translate(0,452.36218)" />
    <path
       style="fill:none;stroke:#000000;stroke-width:3;stroke-linecap:round;stroke-linejoin:round;stroke-opacity:1;stroke-miterlimit:4;stroke-dasharray:none"
       d="M 672.85714,450.71429 C 670,469.28572 687.14285,512.85714 687.14285,512.85714"
       id="path4036"
       inkscape:connector-curvature="0"
       transform="translate(0,452.36218)" />
    <path
       style="fill:none;stroke:#000000;stroke-width:3;stroke-linecap:round;stroke-linejoin:round;stroke-opacity:1;stroke-miterlimit:4;stroke-dasharray:none"
       d="M 727.5,253.21429 C 744.64285,262.5 721.42857,232.85715 714.28571,224.64286 707.14285,216.42857 693.57142,200 698.21428,213.57143 c 4.64286,13.57143 37.14286,93.21429 40.71429,110 3.57143,16.78571 12.85714,45.35714 15.35714,47.85714"
       id="path4038"
       inkscape:connector-curvature="0"
       transform="translate(0,452.36218)" />
    <path
       style="fill:none;stroke:#000000;stroke-width:3;stroke-linecap:round;stroke-linejoin:round;stroke-opacity:1;stroke-miterlimit:4;stroke-dasharray:none"
       d="M 729.64285,278.92857 C 730.35714,300 747.5,368.21429 747.5,368.21429 c 0,0 -8.92858,-22.5 -10.71429,-31.42857 -1.78571,-8.92858 -7.5,-35 -7.5,-35 0,0 11.42857,63.57142 13.57143,67.14285 C 745,372.5 733.57142,357.14286 733.57142,357.14286"
       id="path4040"
       inkscape:connector-curvature="0"
       transform="translate(0,452.36218)" />
    <path
       style="fill:none;stroke:#000000;stroke-width:3;stroke-linecap:round;stroke-linejoin:round;stroke-opacity:1;stroke-miterlimit:4;stroke-dasharray:none"
       d="m 716.78571,364.64286 c 1.78571,12.14286 1.78571,8.92857 5.71429,-0.35714 C 726.42857,355 745,305.71429 733.92857,307.5 c -11.07143,1.78572 -24.28572,33.21429 -25,45 -0.71429,11.78572 -0.71429,17.85714 -0.71429,17.85714"
       id="path4042"
       inkscape:connector-curvature="0"
       transform="translate(0,452.36218)" />
    <path
       style="fill:none;stroke:#000000;stroke-width:3;stroke-linecap:round;stroke-linejoin:round;stroke-opacity:1;stroke-miterlimit:4;stroke-dasharray:none"
       d="m 727.5,351.07143 c -1.78572,-20 -7.14286,-50.35714 -3.57143,-52.5 3.57143,-2.14286 8.92857,52.14286 7.5,65.71429 -1.42857,13.57142 -2.85715,11.42857 -10,-2.14286 -7.14286,-13.57143 -12.5,-44.28572 -8.92857,-47.14286 3.57142,-2.85714 7.14285,18.92857 1.42857,37.85714 -5.71429,18.92858 -16.07143,36.78572 -20.35715,16.07143 -4.28571,-20.71428 -1.42857,-35.71428 -1.42857,-35.71428 0,0 -8.57143,50 -13.57143,44.64285 -5,-5.35714 -6.42857,-31.78571 -1.42857,-39.28571"
       id="path4044"
       inkscape:connector-curvature="0"
       transform="translate(0,452.36218)" />
    <path
       style="fill:none;stroke:#000000;stroke-width:3;stroke-linecap:round;stroke-linejoin:round;stroke-opacity:1;stroke-miterlimit:4;stroke-dasharray:none"
       d="M 677.85714,377.5 C 683.57142,360 681.78571,335 675,333.57143 c -6.78572,-1.42857 -12.5,15.35714 -12.14286,26.78571 0.35714,11.42858 3.21428,20 7.14286,8.57143 3.92857,-11.42857 10,-29.64285 17.85714,-31.42857 7.85714,-1.78571 21.78571,-1.07143 25,3.21429"
       id="path4046"
       inkscape:connector-curvature="0"
       transform="translate(0,452.36218)" />
    <path
       style="fill:none;stroke:#000000;stroke-width:3;stroke-linecap:round;stroke-linejoin:round;stroke-opacity:1;stroke-miterlimit:4;stroke-dasharray:none"
       d="m 650,375 c 0.71428,-21.42857 0.71428,-30.35714 -4.28572,-30 -5,0.35714 -5,23.92857 -3.57143,28.92857 1.42857,5 3.21429,7.85715 3.21429,7.85715 0,0 -6.42857,-36.78572 -11.78572,-38.57143 -5.35714,-1.78572 -6.78571,11.07143 -5.35714,18.92857 1.42857,7.85714 5.35714,15.71428 5.35714,15.71428 0,0 -12.85714,-52.14285 -19.28571,-55.71428 -6.42857,-3.57143 -4.64286,2.85714 -5,11.07143 -0.35714,8.21428 2.14286,28.21428 4.64286,32.5 2.5,4.28571 3.92857,9.28571 3.92857,9.28571 l -5,-51.07143"
       id="path4048"
       inkscape:connector-curvature="0"
       transform="translate(0,452.36218)" />
    <path
       style="fill:none;stroke:#000000;stroke-width:3;stroke-linecap:round;stroke-linejoin:round;stroke-opacity:1;stroke-miterlimit:4;stroke-dasharray:none"
       d="m 632.85714,377.85714 c -12.14286,-26.07142 -25,-56.78571 -22.85714,-81.07142 2.14285,-24.28572 7.5,-70.35715 19.28571,-80 11.78571,-9.64286 26.78571,-20.71429 37.14286,-10.71429"
       id="path4050"
       inkscape:connector-curvature="0"
       transform="translate(0,452.36218)" />
    <path
       style="fill:none;stroke:#000000;stroke-width:3;stroke-linecap:round;stroke-linejoin:round;stroke-opacity:1;stroke-miterlimit:4;stroke-dasharray:none"
       d="M 670.35714,229.64286 C 685,220.71429 690,223.57143 697.14285,230 c 7.14286,6.42857 20.35715,16.78572 20.35715,16.78572 0,0 -18.21429,-16.78572 -21.78572,-23.92857 -3.57143,-7.14286 -7.85714,-19.28572 -7.85714,-19.28572 0,0 0.71428,15.71429 2.85714,21.78572 2.14286,6.07142 5.71429,15.71428 5.71429,15.71428 0,0 -20.35715,-31.42857 -25.71429,-33.92857 -5.35714,-2.5 -0.71428,13.92857 2.14286,16.78571 2.85714,2.85715 5.35714,8.92858 5.35714,8.92858 0,0 -8.57143,-26.78572 -9.28571,-31.42858 -0.71429,-4.64285 -0.71429,-10 -0.71429,-10 0,0 -11.78571,58.57143 -16.78571,43.21429 -5,-15.35714 10.35714,-30.71429 5.71428,-31.78571 -4.64285,-1.07143 -15.71428,19.28571 -16.42857,24.28571 -0.71428,5 -4.64286,15 -4.64286,15 0,0 14.28572,-31.78571 11.07143,-34.28571 -3.21428,-2.5 -15.71428,16.07142 -18.92857,25.35714 C 625,242.5 621.07142,252.5 621.07142,252.5 c 0,0 27.5,-46.78571 24.64286,-49.64285 -2.85714,-2.85715 -12.14286,8.21428 -16.78571,20 -4.64286,11.78571 -9.28572,21.42857 -8.57143,27.5"
       id="path4052"
       inkscape:connector-curvature="0"
       transform="translate(0,452.36218)" />
    <path
       style="fill:none;stroke:#000000;stroke-width:3;stroke-linecap:round;stroke-linejoin:round;stroke-opacity:1;stroke-miterlimit:4;stroke-dasharray:none"
       d="m 642.96209,317.15729 c 12.62691,-4.04061 20.70813,-5.05076 25.75889,-1.51523"
       id="path4054"
       inkscape:connector-curvature="0"
       transform="translate(0,452.36218)" />
  </g>
</svg>
