<?xml version="1.0" encoding="UTF-8" standalone="no"?>
<!-- Created with Inkscape (http://www.inkscape.org/) -->

<svg
   xmlns:dc="http://purl.org/dc/elements/1.1/"
   xmlns:cc="http://creativecommons.org/ns#"
   xmlns:rdf="http://www.w3.org/1999/02/22-rdf-syntax-ns#"
   xmlns:svg="http://www.w3.org/2000/svg"
   xmlns="http://www.w3.org/2000/svg"
   xmlns:sodipodi="http://sodipodi.sourceforge.net/DTD/sodipodi-0.dtd"
   xmlns:inkscape="http://www.inkscape.org/namespaces/inkscape"
   width="800"
   height="600"
   id="svg2"
   version="1.1"
   inkscape:version="0.48.5 r10040"
   sodipodi:docname="the-end.svg">
  <defs
     id="defs4" />
  <sodipodi:namedview
     id="base"
     pagecolor="#ffffff"
     bordercolor="#666666"
     borderopacity="1.0"
     inkscape:pageopacity="0.0"
     inkscape:pageshadow="2"
     inkscape:zoom="0.98994949"
     inkscape:cx="440.3518"
     inkscape:cy="275.31102"
     inkscape:document-units="px"
     inkscape:current-layer="layer1"
     showgrid="false"
     inkscape:window-width="1920"
     inkscape:window-height="1017"
     inkscape:window-x="-8"
     inkscape:window-y="-8"
     inkscape:window-maximized="1" />
  <metadata
     id="metadata7">
    <rdf:RDF>
      <cc:Work
         rdf:about="">
        <dc:format>image/svg+xml</dc:format>
        <dc:type
           rdf:resource="http://purl.org/dc/dcmitype/StillImage" />
        <dc:title />
      </cc:Work>
    </rdf:RDF>
  </metadata>
  <g
     inkscape:label="Layer 1"
     inkscape:groupmode="layer"
     id="layer1"
     transform="translate(0,-452.36218)">
    <path
       style="fill:none;stroke:#000000;stroke-width:3;stroke-linecap:round;stroke-linejoin:round;stroke-opacity:1;stroke-miterlimit:4;stroke-dasharray:none"
       d="M 418.70823,117.14708 C 387.3935,108.56079 407.59655,114.11663 396.48487,103.00495 385.3732,91.893269 364.66507,67.144532 350.52293,60.073464 336.3808,53.002396 315.67267,40.37549 315.67267,40.37549 c 0,0 24.24366,30.809652 32.32488,38.385796 8.08122,7.576144 42.93149,39.395954 43.94164,42.426404"
       id="path2996"
       inkscape:connector-curvature="0"
       transform="translate(0,452.36218)" />
    <path
       style="fill:none;stroke:#000000;stroke-width:3;stroke-linecap:round;stroke-linejoin:round;stroke-opacity:1;stroke-miterlimit:4;stroke-dasharray:none"
       d="m 457.09403,124.21815 c 2.52538,-33.335033 -49.49748,-30.809652 -66.16499,-5.55584 -16.66752,25.25382 -33.84012,52.02286 -16.66752,81.31728 17.17259,29.29443 90.91373,-24.74874 96.46957,-31.8198 5.55584,-7.07107 13.63706,-19.1929 -2.52538,-37.88072 -16.16245,-18.68783 -29.29443,-26.76905 -41.92134,-26.76905"
       id="path2998"
       inkscape:connector-curvature="0"
       transform="translate(0,452.36218)" />
    <path
       style="fill:none;stroke:#000000;stroke-width:3;stroke-linecap:round;stroke-linejoin:round;stroke-opacity:1;stroke-miterlimit:4;stroke-dasharray:none"
       d="m 411.63716,127.75368 1.01015,7.57615"
       id="path3000"
       inkscape:connector-curvature="0"
       transform="translate(0,452.36218)" />
    <path
       style="fill:none;stroke:#000000;stroke-width:3;stroke-linecap:round;stroke-linejoin:round;stroke-opacity:1;stroke-miterlimit:4;stroke-dasharray:none"
       d="m 428.80976,129.77399 2.0203,6.06092"
       id="path3002"
       inkscape:connector-curvature="0"
       transform="translate(0,452.36218)" />
    <path
       style="fill:none;stroke:#000000;stroke-width:3;stroke-linecap:round;stroke-linejoin:round;stroke-opacity:1;stroke-miterlimit:4;stroke-dasharray:none"
       d="m 404.56609,164.62425 c 6.06092,40.4061 24.24367,23.73859 28.28428,8.08122"
       id="path3004"
       inkscape:connector-curvature="0"
       transform="translate(0,452.36218)" />
    <path
       style="fill:none;stroke:#000000;stroke-width:3;stroke-linecap:round;stroke-linejoin:round;stroke-opacity:1;stroke-miterlimit:4;stroke-dasharray:none"
       d="m 409.11178,207.55574 c -21.2132,7.07106 -17.67767,71.21575 -8.5863,83.84266 9.09138,12.6269 20.20306,11.11168 26.76905,-8.08122 6.56599,-19.1929 13.63706,-41.92133 3.53553,-52.02286 -10.10152,-10.10152 -16.16244,-15.65736 -26.76904,-13.13198"
       id="path3006"
       inkscape:connector-curvature="0"
       transform="translate(0,452.36218)" />
    <path
       style="fill:none;stroke:#000000;stroke-width:3;stroke-linecap:round;stroke-linejoin:round;stroke-opacity:1;stroke-miterlimit:4;stroke-dasharray:none"
       d="m 410.12193,297.45931 c -2.52538,14.64721 -7.07106,22.72843 -8.08122,38.3858"
       id="path3024"
       inkscape:connector-curvature="0"
       transform="translate(0,452.36218)" />
    <path
       style="fill:none;stroke:#000000;stroke-width:3;stroke-linecap:round;stroke-linejoin:round;stroke-opacity:1;stroke-miterlimit:4;stroke-dasharray:none"
       d="m 424.26407,288.36794 c -1.01015,27.27412 2.0203,18.18275 5.05076,24.74874 3.03046,6.56599 8.5863,18.68782 8.5863,18.68782"
       id="path3026"
       inkscape:connector-curvature="0"
       transform="translate(0,452.36218)" />
    <path
       style="fill:none;stroke:#000000;stroke-width:3;stroke-linecap:round;stroke-linejoin:round;stroke-opacity:1;stroke-miterlimit:4;stroke-dasharray:none"
       d="m 131.31983,364.12938 c 3.03046,37.88072 8.5863,70.71068 14.14214,83.84266 5.55584,13.13198 10.10152,59.09393 9.59645,65.15484"
       id="path3028"
       inkscape:connector-curvature="0"
       transform="translate(0,452.36218)" />
    <path
       style="fill:none;stroke:#000000;stroke-width:3;stroke-linecap:round;stroke-linejoin:round;stroke-opacity:1;stroke-miterlimit:4;stroke-dasharray:none"
       d="m 117.68277,448.47712 c 47.98225,-4.54569 82.83251,-4.54569 93.43911,-1.51523 10.6066,3.03046 16.66752,0.50508 16.66752,0.50508"
       id="path3030"
       inkscape:connector-curvature="0"
       transform="translate(0,452.36218)" />
    <path
       style="fill:none;stroke:#000000;stroke-width:3;stroke-linecap:round;stroke-linejoin:round;stroke-opacity:1;stroke-miterlimit:4;stroke-dasharray:none"
       d="m 241.93153,342.4111 c 6.566,36.36549 0.50508,35.35534 1.51523,52.52793 1.01016,17.1726 5.05077,73.74114 7.57615,85.35789 2.52538,11.61676 6.06091,24.24366 6.06091,24.24366 0,0 -1.01015,-38.89087 9.59645,-40.91117 10.6066,-2.02031 48.9924,13.13198 48.48732,50.00255"
       id="path3032"
       inkscape:connector-curvature="0"
       transform="translate(0,452.36218)" />
    <path
       style="fill:none;stroke:#000000;stroke-width:3;stroke-linecap:round;stroke-linejoin:round;stroke-opacity:1;stroke-miterlimit:4;stroke-dasharray:none"
       d="m 358.09908,488.88322 c 30.30457,5.05076 38.38579,1.51523 38.38579,-7.57614 0,-9.09138 -3.53553,-46.46702 -21.2132,-37.88072 -17.67767,8.58629 -0.50508,66.67006 18.18275,70.2056 18.68782,3.53553 31.31473,-9.59645 31.31473,-16.66752"
       id="path3034"
       inkscape:connector-curvature="0"
       transform="translate(0,452.36218)" />
    <path
       style="fill:none;stroke:#000000;stroke-width:3;stroke-linecap:round;stroke-linejoin:round;stroke-opacity:1;stroke-miterlimit:4;stroke-dasharray:none"
       d="m 467.70063,472.72078 c 35.35534,3.03046 45.45686,-4.04061 50.50763,-10.10153 5.05076,-6.06091 6.06091,-1.51523 0,-10.10152 -6.06092,-8.5863 -23.73859,-48.48732 -43.94164,-14.14214 -20.20305,34.34519 16.16244,66.67007 45.96194,66.67007"
       id="path3036"
       inkscape:connector-curvature="0"
       transform="translate(0,452.36218)" />
    <path
       style="fill:none;stroke:#000000;stroke-width:3;stroke-linecap:round;stroke-linejoin:round;stroke-opacity:1;stroke-miterlimit:4;stroke-dasharray:none"
       d="m 545.98745,439.38575 c 4.54569,19.19289 -1.51523,30.80965 0.50508,43.43655 2.0203,12.62691 7.07107,23.73859 7.07107,23.73859 0,0 -6.06092,-56.06347 4.04061,-62.12438 10.10152,-6.06092 23.73858,9.59645 24.24366,28.28427 0.50507,18.68782 -0.50508,38.3858 -0.50508,38.3858"
       id="path3038"
       inkscape:connector-curvature="0"
       transform="translate(0,452.36218)" />
    <path
       style="fill:none;stroke:#000000;stroke-width:3;stroke-linecap:round;stroke-linejoin:round;stroke-opacity:1;stroke-miterlimit:4;stroke-dasharray:none"
       d="m 629.32504,395.44411 c 6.56599,24.74874 7.07106,84.85281 7.07106,84.85281 0,0 -7.07106,-31.8198 -17.17259,-31.31473 -10.10152,0.50508 -13.63706,29.29443 -7.07107,36.3655 6.56599,7.07106 14.64721,7.57614 18.68782,4.04061"
       id="path3040"
       inkscape:connector-curvature="0"
       transform="translate(0,452.36218)" />
  </g>
</svg>
