<?xml version="1.0" encoding="UTF-8" standalone="no"?>
<!-- Created with Inkscape (http://www.inkscape.org/) -->

<svg
   xmlns:dc="http://purl.org/dc/elements/1.1/"
   xmlns:cc="http://creativecommons.org/ns#"
   xmlns:rdf="http://www.w3.org/1999/02/22-rdf-syntax-ns#"
   xmlns:svg="http://www.w3.org/2000/svg"
   xmlns="http://www.w3.org/2000/svg"
   xmlns:sodipodi="http://sodipodi.sourceforge.net/DTD/sodipodi-0.dtd"
   xmlns:inkscape="http://www.inkscape.org/namespaces/inkscape"
   width="800"
   height="600"
   id="svg2"
   version="1.1"
   inkscape:version="0.48.5 r10040"
   sodipodi:docname="title-main.svg">
  <defs
     id="defs4" />
  <sodipodi:namedview
     id="base"
     pagecolor="#ffffff"
     bordercolor="#666666"
     borderopacity="1.0"
     inkscape:pageopacity="0.0"
     inkscape:pageshadow="2"
     inkscape:zoom="1.4"
     inkscape:cx="372.71653"
     inkscape:cy="335.13917"
     inkscape:document-units="px"
     inkscape:current-layer="layer1"
     showgrid="false"
     inkscape:window-width="1920"
     inkscape:window-height="1017"
     inkscape:window-x="-8"
     inkscape:window-y="-8"
     inkscape:window-maximized="1" />
  <metadata
     id="metadata7">
    <rdf:RDF>
      <cc:Work
         rdf:about="">
        <dc:format>image/svg+xml</dc:format>
        <dc:type
           rdf:resource="http://purl.org/dc/dcmitype/StillImage" />
        <dc:title />
      </cc:Work>
    </rdf:RDF>
  </metadata>
  <g
     inkscape:label="Layer 1"
     inkscape:groupmode="layer"
     id="layer1"
     transform="translate(0,-452.36218)">
    <path
       style="fill:none;stroke:#000000;stroke-width:3;stroke-linecap:round;stroke-linejoin:round;stroke-opacity:1;stroke-miterlimit:4;stroke-dasharray:none"
       d="m 208.57143,129.28571 c -32.85714,-10 -55.71429,36.42858 -51.42857,50.71429 4.28571,14.28571 14.28571,16.42857 30.71428,21.42857 16.42857,5 37.85715,12.85714 30.71429,35.71429 -7.14286,22.85714 -40.71429,52.14285 -55,60 -14.28572,7.85714 -17.85714,13.57143 -24.28572,2.14285"
       id="path3004"
       inkscape:connector-curvature="0"
       transform="translate(0,452.36218)" />
    <path
       style="fill:none;stroke:#000000;stroke-width:3;stroke-linecap:round;stroke-linejoin:round;stroke-opacity:1;stroke-miterlimit:4;stroke-dasharray:none"
       d="m 255.71429,218.57143 c 2.14285,35.71428 0.71428,80 5.71428,88.57143"
       id="path3006"
       inkscape:connector-curvature="0"
       transform="translate(0,452.36218)" />
    <path
       style="fill:none;stroke:#000000;stroke-width:3;stroke-linecap:round;stroke-linejoin:round;stroke-opacity:1;stroke-miterlimit:4;stroke-dasharray:none"
       d="m 258.57143,172.14286 c 0,0 -4.28572,10 -3.57143,15"
       id="path3008"
       inkscape:connector-curvature="0"
       transform="translate(0,452.36218)" />
    <path
       style="fill:none;stroke:#000000;stroke-width:3;stroke-linecap:round;stroke-linejoin:round;stroke-opacity:1;stroke-miterlimit:4;stroke-dasharray:none"
       d="m 306.42857,206.42857 -15,-0.71428 c 0,0 -2.14286,20.71428 1.42857,31.42857 3.57143,10.71428 11.42857,37.14285 10.71429,42.14285 -0.71429,5 -3.57143,12.14286 -3.57143,12.14286 0,0 -8.57143,-25.71428 -4.28571,-45 4.28571,-19.28571 7.85714,-42.85714 20,-35.71428 12.14285,7.14285 37.14285,58.57142 37.14285,73.57142"
       id="path3010"
       inkscape:connector-curvature="0"
       transform="translate(0,452.36218)" />
    <path
       style="fill:none;stroke:#000000;stroke-width:3;stroke-linecap:round;stroke-linejoin:round;stroke-opacity:1;stroke-miterlimit:4;stroke-dasharray:none"
       d="m 407.14286,205.71429 c -28.57143,-18.57143 -28.57143,2.85714 -34.28572,15 -5.71428,12.14285 -13.57143,39.28571 1.42857,46.42857 15,7.14285 26.42858,4.28571 30.71429,-15 4.28571,-19.28572 12.14286,-60 12.14286,-60 0,0 2.85714,54.28571 -2.85715,82.85714 -5.71428,28.57143 -10.71428,85 -30.71428,90 -20,5 -27.14286,-5 -27.14286,-5"
       id="path3012"
       inkscape:connector-curvature="0"
       transform="translate(0,452.36218)" />
    <path
       style="fill:none;stroke:#000000;stroke-width:3;stroke-linecap:round;stroke-linejoin:round;stroke-opacity:1;stroke-miterlimit:4;stroke-dasharray:none"
       d="m 466.42857,117.85714 c 7.14286,53.57143 2.14286,119.28572 6.42857,140 4.28572,20.71429 7.14286,35.71429 7.14286,35.71429 0,0 -26.42857,-58.57143 -24.28571,-97.85714 2.14285,-39.28572 -5,-81.42858 22.85714,-81.42858 27.85714,0 44.28571,22.14286 41.42857,43.57143 -2.85714,21.42857 -24.28571,42.85715 -36.42857,40 -12.14286,-2.85714 -15.71429,-5.71428 -15.71429,-5.71428 0,0 15,-1.42857 32.14286,7.85714 17.14286,9.28571 32.14286,15.71429 29.28571,35 -2.85714,19.28571 -34.28571,45 -58.57142,60.71429"
       id="path3014"
       inkscape:connector-curvature="0"
       transform="translate(0,452.36218)" />
    <path
       style="fill:none;stroke:#000000;stroke-width:3;stroke-linecap:round;stroke-linejoin:round;stroke-opacity:1;stroke-miterlimit:4;stroke-dasharray:none"
       d="M 584.28571,202.85714 C 590.71429,235.71429 590,265 590,265 c 0,0 -5.71429,-66.42857 -12.85714,-68.57143 -7.14286,-2.14286 -30,55.71429 -18.57143,72.85714 11.42857,17.14286 30,7.14286 36.42857,-5.71428"
       id="path3016"
       inkscape:connector-curvature="0"
       transform="translate(0,452.36218)" />
    <path
       style="fill:none;stroke:#000000;stroke-width:3;stroke-linecap:round;stroke-linejoin:round;stroke-opacity:1;stroke-miterlimit:4;stroke-dasharray:none"
       d="m 657.85714,122.14286 c 0,0 -3.57143,-14.28572 -8.57143,-6.42857 -5,7.85714 -10.71428,12.85714 -7.85714,25.71428 2.85714,12.85714 7.85714,44.28572 5,68.57143 -2.85714,24.28571 -5.71428,32.14286 -2.85714,39.28571"
       id="path3018"
       inkscape:connector-curvature="0"
       transform="translate(0,452.36218)" />
    <path
       style="fill:none;stroke:#000000;stroke-width:3;stroke-linecap:round;stroke-linejoin:round;stroke-opacity:1;stroke-miterlimit:4;stroke-dasharray:none"
       d="m 685,105 c 5,16.42857 -2.85714,42.85714 1.42857,65.71429 4.28572,22.85714 7.85715,65.71428 7.85715,65.71428"
       id="path3020"
       inkscape:connector-curvature="0"
       transform="translate(0,452.36218)" />
  </g>
</svg>
