<?xml version="1.0" encoding="UTF-8" standalone="no"?>
<svg viewBox="0 0 220 118" xmlns:dc="http://purl.org/dc/elements/1.1/" xmlns="http://www.w3.org/2000/svg" xmlns:cc="http://creativecommons.org/ns#" xmlns:rdf="http://www.w3.org/1999/02/22-rdf-syntax-ns#" version="1.1">
<title>Cracker Barrel Old Country Store logo</title>
<defs>
<clipPath id="a" clipPathUnits="userSpaceOnUse">
<path d="m0 576h576v-576h-576v576z"/>
</clipPath>
</defs>
<metadata>
<rdf:RDF>
<cc:Work rdf:about="">
<dc:format>image/svg+xml</dc:format>
<dc:type rdf:resource="http://purl.org/dc/dcmitype/StillImage"/>
<dc:title>Cracker Barrel Old Country Store logo</dc:title>
<dc:date>2012-01-16</dc:date>
<dc:creator>
<cc:Agent>
<dc:title>Cracker Barrel Old Country Store, Inc.</dc:title>
</cc:Agent>
</dc:creator>
<dc:rights>
<cc:Agent>
<dc:title>Cracker Barrel Old Country Store, Inc.</dc:title>
</cc:Agent>
</dc:rights>
<dc:publisher>
<cc:Agent>
<dc:title>Cracker Barrel Old Country Store, Inc.</dc:title>
</cc:Agent>
</dc:publisher>
<dc:description>Converted from an Adobe Illustrator file obtained from BrandsOfTheWorld.com</dc:description>
</cc:Work>
</rdf:RDF>
</metadata>
<g transform="translate(-262.43 -404.1)">
<g transform="matrix(.39532 0 0 -.39532 259.05 567.21)">
<g clip-path="url(#a)">
<g transform="translate(562.04 299.39)">
<path d="m0 0c-1.139 35.582-15.476 57.325-33.402 75.25-17.8 17.8-42.889 28.242-72.946 29.563-16.495 0.725-29.735-2.642-42.617-5.759-10.853-2.627-21.225-7.16-33.017-7.679-8.25-0.362-16.486 2.091-24.572 2.304-2.034-2.146-1.7-5.401-3.071-7.679-3.383-5.622-13.933-8.122-23.42-7.294-15.747 1.373-26.238 11.083-38.393 18.812-12.186 7.749-27.284 13-43.768 13.821-22.985 1.146-34.189-5.926-48.375-16.508-1.695-1.375-3.232-2.912-4.607-4.607-10.291-11.466-17.207-26.305-21.884-43.385-6.811 1.123-16.228-0.358-23.035 0.768-0.505 1.16-0.264 3.064-0.768 4.224-6.532 6.225-16.563 10.38-28.027 11.517-2.057 0.205-4.828-0.537-6.527 1.152-1.005 2.426 0.79 5.568-0.768 7.679-1.087 1.6-4.891 0.483-6.142 1.919 0.599 2.264 3.075 5.848 2.302 10.751-0.492 1.681-2.811 1.539-3.454 3.071 3.042 17.095-24.661 18.079-28.027 6.527-0.924-3.171 0.543-6.687-0.768-9.982-0.458-1.15-1.714-1.565-1.92-2.688-1.108-6.058 4.359-7.915 3.071-13.054-4.134-1.81-8.384 0-12.285-1.152-3.254-0.96-5.488-4.878-8.83-4.99-0.501 4.084 0.808 6.358 0.767 9.982-2.14 2.737-8.362 2.131-10.749 0 1.517-6.673 1.475-16.521 0.767-24.188-1.81-2.812-5.045-5.78-5.759-9.598-0.378-2.023 0.299-3.918 0-5.758-0.306-1.894-1.988-3.66-2.687-5.76-0.513-1.538-0.315-3.165-0.768-4.223-1.241-2.9-5-4.527-3.84-9.215-2.633-6.279-6.074-11.808-6.91-19.964-0.444-4.327 1.786-8.899 1.152-13.053-0.383-2.508-3.14-5.788-2.304-9.598-1.881-0.551-4.555-0.31-6.143-1.151-1.108-1.836-0.713-5.175-0.767-8.064-0.639-1.928-0.639-6.519 0-8.446-0.155-5.785 1.122-10.14 0.767-16.125v-9.215c0.385-8.19-0.4-15.213-2.687-20.731 1.667-0.764 3.911-0.953 4.607-2.689-0.273-3.77 1.372-5.305 1.152-7.678-0.707-7.606-13.009-9.105-12.286-17.277 0.392-4.425 7.379-6.442 11.518-6.143 6.538 0.473 11.208 7.984 14.205 10.75 4.077-0.877 3.888 2.511 6.911 2.688 2.223-5.762 6.09-12.703 13.438-13.438 13.044-1.303 8.297 18.671 3.455 24.957-1.779 2.308-4.791 2.247-3.072 6.141 1.962-1.562 1.392 2.93 2.688 4.224 4.732 1.263 13.647 1.271 21.884 1.152 0.892-8.235 0.056-18.835 6.142-20.733 2.258 0.942 1.35 5.051 1.537 8.063-0.244 1.293 0.494 3.567-0.385 4.223v22.268c0.639 1.418 0.639 5.493 0 6.911v21.501c0.892 2.305 0.132 6.266 0.385 9.213 1.069 0.338 2.336 0.48 3.071 1.152 2.25 0.053 3.125 1.482 5.375 1.536-1.067-1.366 0.319-5.182-0.768-6.527-2.105-0.454-6.063 0.945-6.911-0.767-0.848-0.049-0.163-1.63-0.384-2.304 0.311-2.274 3.508 0.266 4.992-1.152-3.083-0.597-6.051-2.596-4.608-6.527 2.72 0.356 4.724 3.461 6.911 3.072-0.323-2.492-0.501-5.131-0.384-8.063-2.112-0.192-5.03 0.424-6.527-0.383-0.118-1.4 0.062-2.499 0.384-3.457 0.663-1.128 3.945 0.362 4.607-0.767-2.917-1.326-6.287-2.856-4.607-7.679 1.442-0.405 3.948 3.462 5.759 2.689-0.87-1.179 0.183-4.28-0.768-5.376-1.622-0.425-4.998 0.904-5.375-0.768-0.308-1.332 0.572-1.475 0.384-2.687 0.414-1.122 3.426 0.352 3.839-0.768-2.339-2.765-5.336-4.732-3.839-10.367 1.428-0.009 3.343 4.837 4.991 4.607-1.172-6.079 0.698-11.629 1.536-16.893 2.076-0.104 2.286-0.328 4.223 0 3.31 14.479 1.718 33.86 3.84 49.527 0.712-17.795 5.748-31.275 10.366-45.687 1.472-4.595 2.869-10.802 5.375-13.439 2.462-2.59 8.722-4.774 14.589-6.525 8.73-2.608 16.904-5.372 25.34-4.992 1.552 0.071 3.191 1.26 4.99 1.537 1.639 0.25 2.963-0.316 4.224 0 1.558 0.387 2.731 1.677 4.223 1.919 1.17 0.189 2.711-0.55 3.839-0.383 1.126 0.165 1.908 1.543 3.456 1.919 1.156 0.28 2.554-0.328 3.455 0 2.054 0.748 4.494 3.204 6.91 4.222 3.389 1.429 5.39 2.094 7.679 3.84 3.235 10.459 5.916 21.47 8.831 32.251 39.768-40.11 109.26-56.051 191.2-52.215 42.725 2 77.753 12.788 108.27 31.866 28.585 17.877 51.402 48.958 53.74 91.374 0.637 0.662 0.637 3.945 0 4.607" fill-rule="evenodd" fill="#fff"/>
</g>
<g transform="translate(100.94 393.84)">
<path d="m0 0c-1.246-1.186-4.345-0.518-4.991-2.304-0.049-0.688 0.47-0.809 0.384-1.535 2.381-0.206 3.165 1.186 5.759 0.768 2.79-1.528-1.434-8.004 2.304-8.83-0.487-1.05-0.609-2.464-1.152-3.456 0.072-1.08 1.252-1.051 1.535-1.92-0.96-2.824-3.604-3.008-4.991-4.607-1.548 0.628-1.723 2.629-3.455 3.071-1.972 0.052-2.334-1.505-4.223-1.536-1.451 1.301-0.435 4.778 0.767 5.76 1.228-0.437 1.566-1.763 2.304-2.688 2.137 0.55 3.366 2.009 5.759 2.304-0.308 1.332 0.572 1.475 0.384 2.687-1.211 1.093-3.554 1.053-5.759 1.152 0.815 3.553-5.351 3.314-8.447 4.223-0.174 1.838 0.278 3.051 1.152 3.84 2.263-0.681 3.147-2.741 6.911-1.92 0.928 6.687-6.468 5.05-9.215 8.062 3.336 4.073 14.331 2.378 14.974-3.071" fill-rule="evenodd" fill="#fbaa29"/>
</g>
<g transform="translate(86.737 377.33)">
<path d="m0 0c1.288-0.351 0.189-0.713 0.383-1.919-1.716-0.065-0.99 1.351-0.383 1.919" fill-rule="evenodd" fill="#fbaa29"/>
</g>
<g transform="translate(97.487 370.8)">
<path d="m0 0c-0.006-0.586-2.846-0.842-2.304 0.383 1.169 0.482 1.493 0.294 2.304-0.383" fill-rule="evenodd" fill="#fbaa29"/>
</g>
<g transform="translate(100.94 369.26)">
<path d="m0 0c1.074-2.96-3.056-7.388-6.143-4.991 0.334 1.527 0.334 1.929 0 3.456 2.33-0.161 3.719 0.91 6.143 1.535" fill-rule="evenodd" fill="#fbaa29"/>
</g>
<g transform="translate(108.62 369.26)">
<path d="m0 0h1.151v-4.991c-1.894 0.153-0.898 3.198-1.151 4.991" fill-rule="evenodd" fill="#fbaa29"/>
</g>
<g transform="translate(51.416 367.73)">
<path d="m0 0h2.688c1.984-3.896 0.233-9.349-1.92-11.518-1.112 1.513 0.211 3.872 0.768 4.991-0.61 2.078-2.162 3.213-1.536 6.527" fill-rule="evenodd" fill="#fbaa29"/>
</g>
<g transform="translate(97.487 361.59)">
<path d="m0 0c0.835-5.087-2.425-9.328-4.992-12.286-0.109 2.194-2.452 2.154-2.303 4.607 1.19-0.038 1.834 0.47 2.688 0.768 0.113 1.522-0.469 2.347-1.152 3.072 1.286 1.384 1.666-1.384 3.071-1.152 1.874 0.687-0.603 5.721 2.688 4.991" fill-rule="evenodd" fill="#fbaa29"/>
</g>
<g transform="translate(109.77 360.05)">
<path d="m0 0c-0.052-3.787-0.771-6.908-1.536-9.982-0.705 0.574-0.957 1.602-1.92 1.919-0.902-0.121-0.228-1.82-1.535-1.536 0.008 0.906-0.662 1.131-0.384 2.304 0.818 0.461 2.091 0.469 2.304 1.536-0.228 2.46-1.209 4.165-2.304 5.759 0.871 1.994 4.02 0.776 5.375 0" fill-rule="evenodd" fill="#fbaa29"/>
</g>
<g transform="translate(102.09 360.05)">
<path d="m0 0h1.152c0.277-1.173-0.393-1.399-0.384-2.304-0.671 0.353-0.848 1.2-0.768 2.304" fill-rule="evenodd" fill="#fbaa29"/>
</g>
<g transform="translate(63.701 353.52)">
<path d="m0 0c-2.202-0.284-3.346 1.225-4.991 0.384 0.044-3.238 3.498-5.494 3.455-9.214-0.038-3.307-1.695-5.99-5.759-6.527-1.033-1.27-2.02-2.587-2.303-4.607 0.414-1.122 1.828-1.244 3.455-1.152-1.858-3.628-6.628-1.698-10.366-2.303 1.269-1.547 4.444-1.187 4.223-4.224-1.56-0.76-2.286 2.204-4.991 1.536 0.818-2.794 6.038-4.449 6.527-7.295 0.676-3.928-3.086-3.492-5.759-5.759 0.795-1.527 1.053-3.233-0.384-4.223-2.407 1.432-5.317 2.361-8.83 2.688 0.094 5.214 3.206 9.25 8.83 7.678-0.605 2.339-3.281 2.605-4.607 4.223-0.442 4.666 1.883 6.563 3.072 9.599 2.033 0.654 4.651 0.723 6.91 1.152-2.877 2.803-5.392 10.084-0.768 13.437 1.053-0.348-0.749-1.414 0.768-1.536 2.891 0.181 2.334 3.809 3.071 6.143 2.149 2.075 3.841 4.606 6.527 6.143 1.887-0.835 3.383-4.274 1.92-6.143" fill-rule="evenodd" fill="#fbaa29"/>
</g>
<g transform="translate(118.6 355.06)">
<path d="m0 0c-0.708-0.827-0.356-2.716-2.304-2.304 0.328 0.783-0.334 2.386-0.768 1.152-0.777 0.314 0.243 2.025 0.384 2.688-2.217-0.214-1.034-3.829-2.687-4.607-2.847 0.71-1.19 6.017 0 7.294 1.779-0.331 3.69 0.943 6.142 0.384 0.619-0.141 1.263-1.034 1.92-1.151 3.353-0.603 8.287 0.398 11.518-0.768 6.789-2.451 14.83-9.192 11.518-13.822-3.323-0.123-2.606 3.793-5.375 4.223-0.737-0.511 0.441-1.704-0.384-2.687-1.305-0.742-3.178-0.917-2.688-3.456-2.134-0.214-3.473 0.366-3.455 2.304-2.459 1.892-5.235 3.468-5.375 7.679 2.317 0.497 4.723 0.907 7.679 0.767-4.396 2.473-7.877-0.894-11.519-1.535-1.057 0.692-0.899 3.023-0.383 4.223-1.66-1.155-1.891-3.739-4.607-3.84-0.302 1.581 0.589 1.971 0.384 3.456" fill-rule="evenodd" fill="#fbaa29"/>
</g>
<g transform="translate(70.996 358.13)">
<path d="m0 0c0.829-2.629 2.425-6.096 1.919-8.831-5.42-4.03-8.654 9.127-1.919 8.831" fill-rule="evenodd" fill="#fbaa29"/>
</g>
<g transform="translate(77.139 355.06)">
<path d="m0 0c1.715-0.077 1.832-1.751 3.072-2.304 3.888 1.509 5.936-1.249 7.294-3.455-3.194 1.09-7.508-0.369-10.366 0.384 0.406 2.101-1.076 3.823 0 5.375" fill-rule="evenodd" fill="#fbaa29"/>
</g>
<g transform="translate(103.63 350.84)">
<path d="m0 0c-1.756-0.547-2.4-2.207-3.456-3.456-5.576 3.593 3.023 11.97 3.456 3.456" fill-rule="evenodd" fill="#fbaa29"/>
</g>
<g transform="translate(128.2 341.62)">
<path d="m0 0c-1.111-1.548-5.032-1.548-6.143 0 0.354 3.426-1.237 4.906-3.455 5.759 3.131 6.041 10.574 0.38 9.598-5.759" fill-rule="evenodd" fill="#fbaa29"/>
</g>
<g transform="translate(92.88 345.08)">
<path d="m0 0c-0.936-2.292-1.47-6.875 1.152-7.678 1.492 1.579 1.836 4.306 3.455 5.759 2.142 0.222 3.395-0.444 4.991-0.768-0.469-1.963-2.503-2.359-3.839-3.456 1.169-3.822 5.055-4.926 3.839-11.134-1.626-0.09-1.951 1.12-3.071 1.537-1.87-4.873 1.116-11.204-0.384-16.894-3.722-0.445-9.064-1.564-11.902 0.384 0.012 5.413-4.362 12.118 0 16.125 0.689 0.049 0.81-0.47 1.536-0.384 0.681-0.726 0.28-2.535 0.384-3.839 1.851 2.244 2.755 5.436 3.455 8.83-1.521-0.398-1.42-2.42-2.304-3.455-3.147-0.204-5.06 0.826-8.062 0.767 1.056 1.882 0.87 3.307 1.152 5.376 0.861 1.38 2.603-2.682 4.607-2.688-1.215 3.005-2.933 13.342 4.991 11.518" fill-rule="evenodd" fill="#fbaa29"/>
</g>
<g transform="translate(117.84 344.31)">
<path d="m0 0c2.545-8.045-4.644-12.669-4.607-20.732-3.561 1.333-0.596 5.818-1.152 9.598-2.354-0.973-1.198-5.457-1.92-8.062-5.932 3.854 1.892 12.552 1.536 19.196 1.476 0.819 4.774 1.265 6.143 0" fill-rule="evenodd" fill="#fbaa29"/>
</g>
<g transform="translate(160.84 338.93)">
<path d="m0 0c-4.056-3.975-11.015-5.883-19.196-4.606 4.675 3.259 10.377 5.492 19.196 4.606" fill-rule="evenodd" fill="#fbaa29"/>
</g>
<g transform="translate(180.8 338.55)">
<path d="m0 0c-3.129-1.454-6.056-5.371-10.366-6.143-5.259-0.942-11.097 1.274-16.893 1.152 7.249 3.502 15.468 6.032 27.259 4.991" fill-rule="evenodd" fill="#fbaa29"/>
</g>
<g transform="translate(143.17 338.17)">
<path d="m0 0c0.342-1.622-0.391-2.168-1.151-2.688-1.912-0.375-2.287 0.785-3.456 1.152 0.914 1.134 2.612 1.483 4.607 1.536" fill-rule="evenodd" fill="#fbaa29"/>
</g>
<g transform="translate(187.71 336.25)">
<path d="m0 0c-0.896-2.606-6.252-2.643-9.214-1.919 1.627 1.921 6.075 3.924 9.214 1.919" fill-rule="evenodd" fill="#fbaa29"/>
</g>
<g transform="translate(194.24 331.26)">
<path d="m0 0h-2.688c0.034 0.544 0.063 1.087-0.383 1.152 0.347 1.378 4.043 1.155 3.071-1.152" fill-rule="evenodd" fill="#fbaa29"/>
</g>
<g transform="translate(135.88 330.87)">
<path d="m0 0c-0.56-1.135-3.919-0.979-4.991-0.383-0.764 3.501 5.095 2.756 4.991 0.383" fill-rule="evenodd" fill="#fbaa29"/>
</g>
<g transform="translate(189.63 330.49)">
<path d="m0 0c-1.011-0.37-3.289-0.742-4.223 0v1.151c1.15 0.675 4.485 0.805 4.223-1.151" fill-rule="evenodd" fill="#fbaa29"/>
</g>
<g transform="translate(105.55 331.64)">
<path d="m0 0c0.619 0.109 0.66-0.362 1.151-0.383-0.594-1.521-0.382-6.991-2.303-8.447-0.888 2.756-0.441 7.294 1.152 8.83" fill-rule="evenodd" fill="#fbaa29"/>
</g>
<g transform="translate(142.41 330.87)">
<path d="m0 0c0.515-2.525-3.453-1.426-4.607-1.152-0.788 2.7 3.883 2.294 4.607 1.152" fill-rule="evenodd" fill="#fbaa29"/>
</g>
<g transform="translate(183.49 329.34)">
<path d="m0 0c-2.139 0.164-4.158-1.148-4.991 0.768 0.176 2.132 5.793 2.366 4.991-0.768" fill-rule="evenodd" fill="#fbaa29"/>
</g>
<g transform="translate(151.62 330.49)">
<path d="m0 0v-2.303c-1.991 0.184-4.765-0.414-6.143 0.383v2.303c2.389 0.352 3.954 0.226 6.143-0.383" fill-rule="evenodd" fill="#fbaa29"/>
</g>
<g transform="translate(175.81 329.72)">
<path d="m0 0c-0.371-2.325-5.825-2.075-5.375 0.769 1.011 0.906 5.468 1.618 5.375-0.769" fill-rule="evenodd" fill="#fbaa29"/>
</g>
<g transform="translate(160.07 330.87)">
<path d="m0 0c0.441-1.075 0.441-1.995 0-3.071h-5.759c-2.116 3.775 2.801 3.162 5.759 3.071" fill-rule="evenodd" fill="#fbaa29"/>
</g>
<g transform="translate(168.51 330.87)">
<path d="m0 0c-0.279-1.173 0.662-1.128 0.384-2.303-1.898 0.091-4.149-1.029-5.759 0 0.157 0.925-0.702 0.834-0.385 1.92 1.623 0.425 3.654 0.442 5.76 0.383" fill-rule="evenodd" fill="#fbaa29"/>
</g>
<g transform="translate(154.69 322.04)">
<path d="m0 0v1.535c-0.454 0.443-1.357 0.435-2.304 0.384-1.153-1.558 0.9-3.037 2.304-1.919m44.152 4.606c-11.978-5.469-31.485-7.361-48.375-5.374-0.742 0.934-0.37 3.212 0 4.223 16.202-0.303 34.837 0.206 46.839 5.375 1.234-0.686 0.515-3.324 1.536-4.224" fill-rule="evenodd" fill="#fbaa29"/>
</g>
<g transform="translate(129.35 328.95)">
<path d="m0 0c6.177-1.374 12.446-2.654 19.58-3.072-0.931-0.961-1.103-3.674 0-4.607-6.387-0.242-14.224 1.388-19.964 3.072-0.424 2.015 0.107 2.564 0.384 4.607" fill-rule="evenodd" fill="#fbaa29"/>
</g>
<g transform="translate(79.059 326.65)">
<path d="m0 0h1.152c-0.209-1.903 1.305-3.594 0.384-4.991-2.087 0.089-1.422 2.93-1.536 4.991" fill-rule="evenodd" fill="#fbaa29"/>
</g>
<g transform="translate(82.13 326.65)">
<path d="m0 0c1.328-0.847 1.214-3.137 1.536-4.991-2.472-0.435-2.177 3.55-1.536 4.991" fill-rule="evenodd" fill="#fbaa29"/>
</g>
<g transform="translate(152.39 323.96)">
<path d="m0 0c0.947 0.051 1.85 0.058 2.304-0.384v-1.535c-1.405-1.119-3.457 0.361-2.304 1.919" fill-rule="evenodd" fill="#7c4300"/>
</g>
<g transform="translate(195 321.66)">
<path d="m0 0h1.152c1.677-8.323 6.373-17.662 5.759-25.723-3.5 7.378-3.547 18.208-6.911 25.723" fill-rule="evenodd" fill="#fbaa29"/>
</g>
<g transform="translate(190.01 320.5)">
<path d="m0 0h0.768c4.506-6.628 6.006-16.261 7.294-26.107-0.859-1.06-1.828-2.011-3.839-1.92-0.946 9.555-3.12 19.906-4.223 28.027" fill-rule="evenodd" fill="#fbaa29"/>
</g>
<g transform="translate(127.82 320.12)">
<path d="m0 0c1.462-0.457 3.331-0.508 4.607-1.151-0.461-9.394-1.384-18.325-2.303-27.26-2.521 8.387-2.527 18.911-2.304 28.411" fill-rule="evenodd" fill="#fbaa29"/>
</g>
<g transform="translate(186.56 318.97)">
<path d="m0 0c1.492-9.059 5.134-17.827 4.607-27.644-1.639-0.919-3.835-1.283-6.143-1.535-0.954 9.924-0.696 21.059-4.223 28.411 1.161 1.047 4.014 1.464 5.759 0.768" fill-rule="evenodd" fill="#fbaa29"/>
</g>
<g transform="translate(139.72 318.2)">
<path d="m0 0c0.43-9.692-0.335-21.386-1.151-31.098-2.273-0.225-3.72 0.375-5.375 0.767 0.6 10.534 1.581 20.687 2.687 30.714 1.709 0.301 2.305-0.511 3.839-0.383" fill-rule="evenodd" fill="#fbaa29"/>
</g>
<g transform="translate(108.24 317.82)">
<path d="m0 0h3.071c0.497-6.559-2.452-12.87-3.455-19.196-0.8 5.793 0.327 12.981 0.384 19.196" fill-rule="evenodd" fill="#fbaa29"/>
</g>
<g transform="translate(150.47 317.43)">
<path d="m0 0c-0.676-10.201-0.931-20.824-0.768-31.866-2.628-0.196-4.181 0.682-6.91 0.385 0.369 10.124-0.823 21.81 0.767 30.713 0.266 2.127 5.453 1.081 6.911 0.768" fill-rule="evenodd" fill="#fbaa29"/>
</g>
<g transform="translate(168.51 317.82)">
<path d="m0 0c1.712-8.8 1.794-21.217 1.919-30.33-1.221-0.816-4.541-1.186-6.142-0.384 0.251 9.91-1.929 21.281 0 30.33 1.076 0.46 2.649 0.422 4.223 0.384" fill-rule="evenodd" fill="#fbaa29"/>
</g>
<g transform="translate(177.73 317.82)">
<path d="m0 0c2.745-8.004 2.76-18.74 3.455-28.795-1.622-1.194-3.684-1.946-6.526-1.919-0.255 10.24-2.087 20.949-1.92 30.33 1.468 0.323 3.081 0.501 4.991 0.384" fill-rule="evenodd" fill="#fbaa29"/>
</g>
<g transform="translate(160.45 317.43)">
<path d="m0 0v-31.098c-1.515-0.756-5.047-1.218-6.911-0.383v31.481h6.911z" fill-rule="evenodd" fill="#fbaa29"/>
</g>
<g transform="translate(47.576 292.86)">
<path d="m0 0c-3.594 0.696-1.39 4.816-1.919 8.446-5.074-0.557-2.39-8.873-3.072-13.821-2.033 2.318-1.747 6.956-1.92 11.134-1.69 0.516-2.408-1.913-3.071-1.152-2.291 2.076 1.307 2.738 1.919 4.223 0.137 16.267 12.25-0.61 8.063-8.83" fill-rule="evenodd" fill="#fbaa29"/>
</g>
<g transform="translate(99.79 307.84)">
<path d="m0 0c0.683-1.59 0.578-5.688 0-7.295-1.02 0.003-2.193-0.145-2.688 0.384 0.003 3.197 1.395 5.005 2.688 6.911" fill-rule="evenodd" fill="#fbaa29"/>
</g>
<g transform="translate(51.8 304)">
<path d="m0 0c7.96-1.218 16.479-13.668 17.277-22.651 0.163-1.851-0.428-4.239-0.385-5.76-1.791 1.536-2.173 4.482-3.455 6.526-6.491-0.475-9.014 3.017-11.518 6.528-0.113 1.521 0.469 2.346 1.153 3.071-3.645 1.475-2.244 7.994-3.072 12.286" fill-rule="evenodd" fill="#fbaa29"/>
</g>
<g transform="translate(562.04 299.39)">
<path d="m0 0c0.637-0.662 0.637-3.945 0-4.607v4.607z" fill-rule="evenodd" fill="#fbaa29"/>
</g>
<g transform="translate(79.442 297.47)">
<path d="m0 0c0.25-1.531-1.46-1.1-2.688-1.152 0.822-0.713 2.291-0.781 2.304-2.303-1.087 0.063-1.6 0.703-2.687 0.767-0.068-1.653 3.038-1.578 1.919-3.071-2.534 0.793-6.769-0.116-9.214 0.768 0.062 0.446-0.085 0.683-0.384 0.768 1.397 3.152 6.726 6.233 10.75 4.223" fill-rule="evenodd" fill="#fbaa29"/>
</g>
<g transform="translate(152 277.5)">
<path d="m0 0c0.513-0.547 2.175-0.547 2.688 0v1.92c-1.248 0.967-3.185 0.059-2.688-1.92m54.518 17.661c0.925-1.891 0.812-4.82 1.536-6.911-9.14-6.805-25.655-11.919-43.384-13.054-6.743-0.43-19.533-1.543-14.206 6.91 22.147 0.89 42.164 3.91 56.054 13.055" fill-rule="evenodd" fill="#fbaa29"/>
</g>
<g transform="translate(96.335 287.87)">
<path d="m0 0h1.919c0.633-3.121 0.633-8.781 0-11.902-1.754-0.123-2.13-0.394-3.455 0.383 0.04 4.313 1.319 7.385 1.536 11.519" fill-rule="evenodd" fill="#fbaa29"/>
</g>
<g transform="translate(132.04 285.18)">
<path d="m0 0c5.385-0.885 10.219-2.323 16.509-2.304-1.602-2.17-1.079-6.678 0-7.678-5.885 0.385-10.772 1.769-16.125 2.687-0.232 2.16-1.459 5.074-0.384 7.295" fill-rule="evenodd" fill="#fbaa29"/>
</g>
<g transform="translate(207.67 282.5)">
<path d="m0 0c0.342-0.171 0.687-0.338 0.768-0.769-0.843-12.466 1.796-28.416-1.536-38.392 0.48 11.293 0.057 26.817 0.768 39.161" fill-rule="evenodd" fill="#fbaa29"/>
</g>
<g transform="translate(204.22 280.19)">
<path d="m0 0c0.102-12.132 1.854-29.24-1.151-39.546 0.318 11.713-0.216 27.604 1.151 39.546" fill-rule="evenodd" fill="#fbaa29"/>
</g>
<g transform="translate(154.69 279.42)">
<path d="m0 0v-1.92c-0.512-0.547-2.175-0.547-2.688 0-0.497 1.979 1.44 2.887 2.688 1.92" fill-rule="evenodd" fill="#7c4300"/>
</g>
<g transform="translate(199.23 277.89)">
<path d="m0 0c1.856-5.082 1.285-13.646 0.768-19.964-0.67-8.197 1.279-17.843-3.072-21.501-1.916 6.568-1.168 14.961-1.535 23.036-0.255 5.604 0.192 11.441 0 16.893 1.055 0.737 2.116 1.468 3.839 1.536" fill-rule="evenodd" fill="#fbaa29"/>
</g>
<g transform="translate(191.55 275.2)">
<path d="m0 0c1.098-12.175 1.745-30.012-0.768-41.08-0.901-0.123-1.441-0.608-2.688-0.385-2.87 11.207-0.984 27.171-1.535 40.698 1.809 0.11 2.718 1.121 4.991 0.767" fill-rule="evenodd" fill="#fbaa29"/>
</g>
<g transform="translate(132.04 273.67)">
<path d="m0 0c1.94-0.235 3.644-0.708 5.759-0.768 1.061-13.404 2.432-28.535 2.688-41.465-4.42 2.504-5.262 9.198-6.143 14.973-1.251 8.2-2.342 16.3-2.304 26.108v1.152z" fill-rule="evenodd" fill="#fbaa29"/>
</g>
<g transform="translate(180.8 273.28)">
<path d="m0 0c1.928-2.544 1.762-6.509 1.919-9.983 0.452-9.933-0.178-21.601 0.385-31.481-1.828-0.861-4.054-1.323-6.527-1.537-1.396 13.195-0.769 28.411-1.536 42.232 1.296 0.88 4.417-0.064 5.759 0.769" fill-rule="evenodd" fill="#fbaa29"/>
</g>
<g transform="translate(148.17 271.36)">
<path d="m0 0c0.697-13.507 0.544-27.867 1.151-41.465-1.307-0.665-2.251 0.295-4.222 0-2.483 12.746-1.893 28.567-3.072 42.616 2.614 0.183 4.427-0.435 6.143-1.151" fill-rule="evenodd" fill="#fbaa29"/>
</g>
<g transform="translate(160.45 270.98)">
<path d="m0 0c0.232-13.594 0.892-28.793 0.384-41.848-2.908-0.22-4.932 0.444-7.295 0.768-0.963 13.498-1.323 27.6-1.919 41.465 2.807 0.619 6.365 0.415 8.83-0.385" fill-rule="evenodd" fill="#fbaa29"/>
</g>
<g transform="translate(171.2 271.75)">
<path d="m0 0v-41.849c-2.033 0.114-3.978-1.474-5.375-0.767-0.668 13.793-1.269 27.655-1.536 41.847 2.276 0.285 4.333 0.788 6.911 0.769" fill-rule="evenodd" fill="#fbaa29"/>
</g>
<g transform="translate(65.237 268.29)">
<path d="m0 0c0.417-0.095 0.26-0.763 0.769-0.769-2.78-17.275-6.174-33.691-7.68-52.598-2.874-0.536-5.308 3.744-5.374 6.143-0.044 1.547 1.671 3.16 1.92 4.608 1.088 6.362-1.207 14.499 0.767 20.347 0.792 2.349 3.696 3.628 4.991 6.144 2.767 5.372 2.321 11.414 4.607 16.125" fill-rule="evenodd" fill="#fbaa29"/>
</g>
<g transform="translate(89.809 266.75)">
<path d="m0 0c-0.97-1.491-3.125-1.009-4.991-0.767v1.152c1.144 0.668 4.331 0.651 4.991-0.385" fill-rule="evenodd" fill="#fbaa29"/>
</g>
<g transform="translate(92.88 262.15)">
<path d="m0 0c-0.735-0.672-2.001-0.813-3.071-1.151-0.253-2.948 0.507-6.909-0.385-9.214 0.186 5.443-0.857 12.118 2.304 14.589 0.313-1.48-0.194-3.78 1.152-4.224" fill-rule="evenodd" fill="#fbaa29"/>
</g>
<g transform="translate(76.371 259.84)">
<path d="m0 0h-1.536c0.881 0.399-0.182 2.741 0.768 3.071 1.515 0.236 0.452-2.107 0.768-3.071" fill-rule="evenodd" fill="#fbaa29"/>
</g>
<g transform="translate(79.826 259.84)">
<path d="m0 0h-1.536c0.046 1.106-0.209 2.514 0.385 3.071 1.38-0.026 1.213-1.601 1.151-3.071" fill-rule="evenodd" fill="#fbaa29"/>
</g>
<g transform="translate(73.3 259.84)">
<path d="m0 0h-1.537c0.345 0.808 0.598 1.708 1.152 2.304 0.848-0.048 0.164-1.629 0.385-2.304" fill-rule="evenodd" fill="#fbaa29"/>
</g>
<g transform="translate(19.55 261.38)">
<path d="m0 0v-8.446c-0.639 1.926-0.639 6.518 0 8.446" fill-rule="evenodd" fill="#fbaa29"/>
</g>
<g transform="translate(79.826 259.84)">
<path d="m0 0h1.92v-3.07h-13.438c0.094 1.183 0.39 2.169 0.768 3.07h2.687 1.537 1.535 1.536 1.919 1.536z" fill-rule="evenodd" fill="#fff"/>
</g>
<g transform="translate(66.772 247.94)">
<path d="m0 0c0.206 1.585 0.563 3.021 0.768 4.607h14.206v-4.607h-14.974z" fill-rule="evenodd" fill="#fff"/>
</g>
<g transform="translate(81.746 243.72)">
<path d="m0 0v-2.688h-16.125c0.123 0.901 0.606 1.441 0.384 2.688h15.741z" fill-rule="evenodd" fill="#fff"/>
</g>
<g transform="translate(157 220.68)">
<path d="m0 0c0.839 0.088 2.216 1.583 1.152 2.305-0.662-1.784-2.27-0.002-2.688 0.768-0.924-1.206-0.077-3.205 1.536-3.073m50.679 19.198c0.489-2.123 0.109-4.364-0.768-6.144-2.99-6.064-14.735-9.606-23.036-11.517-10.103-2.327-21.709-3.357-30.714-1.921-2.408 6.71 3.593 5.89 9.597 6.144 15.672 0.661 35.612 5.253 44.153 12.67 0.095 0.417 0.763 0.259 0.768 0.768" fill-rule="evenodd" fill="#fbaa29"/>
</g>
<g transform="translate(20.317 236.81)">
<path d="m0 0c0.639-2.183 0.639-7.032 0-9.215v9.215z" fill-rule="evenodd" fill="#fbaa29"/>
</g>
<g transform="translate(81.746 232.2)">
<path d="m0 0h-17.277c0.479 1.313 0.13 3.455 0.768 4.608h16.509v-4.608z" fill-rule="evenodd" fill="#fff"/>
</g>
<g transform="translate(81.746 236.81)">
<path d="m0 0c0.637-0.662 0.637-3.946 0-4.608v4.608z" fill-rule="evenodd" fill="#fbaa29"/>
</g>
<g transform="translate(89.424 230.28)">
<path d="m0 0c0.639-1.418 0.639-5.492 0-6.91v6.91z" fill-rule="evenodd" fill="#fbaa29"/>
</g>
<g transform="translate(81.746 227.21)">
<path d="m0 0c-1.258-2.092-5.346-1.151-8.446-1.151-3.338 0-6.858-0.297-9.215 0.383v0.768c4.119 1.275 13.542 1.275 17.661 0" fill-rule="evenodd" fill="#fff"/>
</g>
<g transform="translate(140.49 227.21)">
<path d="m0 0c4.303 0.081 7.443-1.003 11.901-0.768-2.37-1.402-1.871-5.887-0.767-6.911-3.53-0.203-5.814 0.842-9.215 0.768-0.988 1.956-1.998 3.89-1.919 6.911" fill-rule="evenodd" fill="#fbaa29"/>
</g>
<g transform="translate(204.22 224.91)">
<path d="m0 0c0.714-4.985-2.292-12.772-3.455-18.429-0.326 6.086 1.806 13.037 3.455 18.429" fill-rule="evenodd" fill="#fbaa29"/>
</g>
<g transform="translate(155.46 223.76)">
<path d="m0 0c0.417-0.771 2.025-2.552 2.688-0.769 1.064-0.721-0.313-2.216-1.152-2.304-1.614-0.132-2.461 1.867-1.536 3.073" fill-rule="evenodd" fill="#7c4300"/>
</g>
<g transform="translate(63.701 213.77)">
<path d="m0 0c-0.042 2.859-0.868 5.811 0 8.447h18.045v-8.831c-5.898 0.247-12.784-0.499-18.045 0.384" fill-rule="evenodd" fill="#fff"/>
</g>
<g transform="translate(199.23 222.22)">
<path d="m0 0h1.152c-1.028-6.522-1.594-13.507-3.839-18.813-0.709 6.341 1.991 12.596 2.687 18.813" fill-rule="evenodd" fill="#fbaa29"/>
</g>
<g transform="translate(196.16 221.07)">
<path d="m0 0c-0.142-3.624-1.163-7.716-1.919-11.518-0.66-3.31-0.194-8.388-3.84-9.214 1.475 6.843 0.754 15.883 4.223 20.732h1.536z" fill-rule="evenodd" fill="#fbaa29"/>
</g>
<g transform="translate(190.01 218.76)">
<path d="m0 0c-0.137-3.581-1.216-7.905-1.92-11.902-0.617-3.504 0.156-8.986-4.223-9.214 0.151 7.398 1.186 13.914 2.304 20.347 1.372 0.164 2.048 1.023 3.839 0.769" fill-rule="evenodd" fill="#fbaa29"/>
</g>
<g transform="translate(181.57 216.84)">
<path d="m0 0c1.81-6.052-0.813-14.274-1.152-20.732-1.454-0.21-2.398-0.929-4.223-0.769v20.348c1.892 0.284 3.549 0.803 5.375 1.153" fill-rule="evenodd" fill="#fbaa29"/>
</g>
<g transform="translate(151.62 214.92)">
<path d="m0 0c1.343-6.463 1.662-13.95 1.919-21.499-6.457 0.867-5.867 13.418-6.143 21.884 1.575 0.038 3.148 0.075 4.224-0.385" fill-rule="evenodd" fill="#fbaa29"/>
</g>
<g transform="translate(162.37 214.92)">
<path d="m0 0c1.363-6.369 1.354-15.098 1.151-21.884h-6.143c-1.317 6.489-1.425 14.189-1.919 21.501 1.616 0.815 4.676 0.186 6.911 0.383" fill-rule="evenodd" fill="#fbaa29"/>
</g>
<g transform="translate(172.35 214.92)">
<path d="m0 0v-20.348c-1.716-0.333-3.164-0.932-5.375-0.766-0.326 6.614-1.148 15.402 0 21.114h5.375z" fill-rule="evenodd" fill="#fbaa29"/>
</g>
<g transform="translate(142.79 214.54)">
<path d="m0 0c1.425-0.994 1.744-4.313 1.152-6.144-1.243 1.031-1.452 4.815-1.152 6.144" fill-rule="evenodd" fill="#fbaa29"/>
</g>
<g transform="translate(57.943 213.77)">
<path d="m0 0c0.104-2.664-1.881-3.238-4.608-3.071-0.298 0.853-0.806 1.496-0.767 2.687 1.427 0.561 3.428-0.307 5.375 0.384" fill-rule="evenodd" fill="#fbaa29"/>
</g>
<g transform="translate(158.15 186.51)">
<path d="m0 0h2.303v1.92c-0.446 0.322-1.03 0.507-1.92 0.383-0.442-0.452-0.434-1.358-0.383-2.303m-1.92 0v3.072c17.683 1.513 32.971 5.422 44.151 13.437 0.447 0.062 0.684-0.084 0.768-0.384 0.105-2.535-1.345-3.518-1.919-5.375-11.458-5.962-25.861-13.023-43-10.75" fill-rule="evenodd" fill="#fbaa29"/>
</g>
<g transform="translate(89.424 201.1)">
<path d="m0 0c0.879-0.656 0.141-2.93 0.384-4.223-0.878 0.658-0.14 2.93-0.384 4.223" fill-rule="evenodd" fill="#fbaa29"/>
</g>
<g transform="translate(53.335 193.81)">
<path d="m0 0c-1.485 1.724 2.242 3.521 3.071 1.918-1.069-0.594-2.805-0.522-3.071-1.918" fill-rule="evenodd" fill="#fbaa29"/>
</g>
<g transform="translate(57.558 196.11)">
<path d="m0 0c0.93 1.12 2.975-1.3 3.072-2.303 0.273-2.821 2.241-7.786 2.303-9.216 0.118-2.722-2.672-5.091-0.768-6.911 1.544 0.505 1.094 3.003 1.152 4.992 2.53-1.995 0.058-6.293-1.152-8.063-1.398-0.118-2.499 0.062-3.455 0.385 0.17 2.089-0.973 2.866-1.535 4.222 0.201 1.847 1.655 2.441 2.687 3.456-1.935 1.263-4.012 2.387-4.223 5.375 1.786 1.654 3.802 4.991 1.919 8.063" fill-rule="evenodd" fill="#fbaa29"/>
</g>
<g transform="translate(27.228 195.34)">
<path d="m0 0c0.841-1.868-0.933-4.088-0.383-6.91h-2.304c0.038-1.573 0.075-3.148-0.384-4.224-3.155-0.504-5.05-5.232-8.83-2.686 0.541 5.09 3.356 7.904 8.446 8.444 0.874 0.921-0.842 1.415-0.384 3.072 1.504 0.3 2.557 3.059 3.839 2.304" fill-rule="evenodd" fill="#fbaa29"/>
</g>
<g transform="translate(56.023 193.81)">
<path d="m0 0c-1.5-0.294-2.047-1.538-3.456-1.921-0.236 1.932 1.986 2.913 3.456 1.921" fill-rule="evenodd" fill="#fbaa29"/>
</g>
<g transform="translate(56.79 191.5)">
<path d="m0 0c-1.831 0.295-2.529-0.542-3.071-1.537-1.676 1.689 2.851 3.934 3.071 1.537" fill-rule="evenodd" fill="#fbaa29"/>
</g>
<g transform="translate(158.53 188.82)">
<path d="m0 0c0.89 0.124 1.474-0.061 1.919-0.383v-1.92h-2.302c-0.052 0.946-0.059 1.851 0.383 2.303" fill-rule="evenodd" fill="#7c4300"/>
</g>
<g transform="translate(185.41 188.05)">
<path d="m0 0c0.401-1.913-2.717-3.172-3.456-1.536 0.459 1.204 1.905 1.422 3.456 1.536" fill-rule="evenodd" fill="#fbaa29"/>
</g>
<g transform="translate(178.88 184.98)">
<path d="m0 0c0.243-1.778-2.1-0.972-3.456-1.151-0.694 2.115 3.117 2.459 3.456 1.151" fill-rule="evenodd" fill="#fbaa29"/>
</g>
<g transform="translate(171.2 183.83)">
<path d="m0 0c-0.29-1.245-1.404-1.668-3.072-1.535v1.535c1.186-0.063 2.171 0.907 3.072 0" fill-rule="evenodd" fill="#fbaa29"/>
</g>
<g transform="translate(164.29 183.44)">
<path d="m0 0c0.406-2.719-3.603-2.166-4.991-1.919-0.153 2.455 2.823 1.783 4.991 1.919" fill-rule="evenodd" fill="#fbaa29"/>
</g>
<g transform="translate(13.79 182.67)">
<path d="m0 0c1.703-1.368 1.8-4.342 5.375-3.839-0.225-9.07-11.984 0.56-5.375 3.839" fill-rule="evenodd" fill="#fbaa29"/>
</g>
<g transform="translate(193.85 389.61)">
<path d="m0 0c1.375 1.696 2.912 3.232 4.607 4.607-1.375-1.696-2.911-3.232-4.607-4.607" fill-rule="evenodd" fill="#fbaa29"/>
</g>
<g transform="translate(159.3 181.52)">
<path d="m0 0c1.388-0.247 5.397-0.8 4.991 1.919-2.168-0.136-5.144 0.536-4.991-1.919m8.83 2.303v-1.535c1.668-0.133 2.782 0.29 3.072 1.535-0.902 0.907-1.886-0.063-3.072 0m7.295 0c1.356 0.179 3.699-0.627 3.456 1.151-0.339 1.308-4.151 0.964-3.456-1.151m6.527 2.687c0.739-1.636 3.857-0.377 3.455 1.536-1.55-0.114-2.996-0.332-3.455-1.536m-128.23 3.454c0.542 0.995 1.241 1.832 3.072 1.537-0.22 2.398-4.747 0.153-3.072-1.537m-30.33 3.073c-0.458-1.658 1.258-2.152 0.384-3.073-5.09-0.54-7.906-3.354-8.446-8.444 3.78-2.546 5.675 2.183 8.829 2.687 0.46 1.076 0.423 2.65 0.385 4.223h2.303c-0.549 2.822 1.225 5.042 0.384 6.91-1.282 0.755-2.335-2.004-3.839-2.303m32.25-4.991c0.211-2.988 2.288-4.112 4.223-5.376-1.032-1.014-2.486-1.608-2.687-3.455 0.562-1.356 1.705-2.133 1.535-4.222 0.957-0.324 2.057-0.503 3.456-0.385 1.209 1.769 3.681 6.068 1.152 8.062-0.059-1.988 0.391-4.486-1.152-4.991-1.905 1.82 0.885 4.189 0.768 6.911-0.062 1.43-2.031 6.395-2.304 9.216-0.097 1.003-2.142 3.423-3.072 2.303 1.884-3.072-0.133-6.409-1.919-8.063m0.767 7.678c-0.829 1.604-4.556-0.194-3.071-1.918 0.266 1.397 2.002 1.324 3.071 1.918m-3.838-3.839c1.408 0.383 1.955 1.627 3.455 1.921-1.47 0.992-3.692 0.011-3.455-1.921m146.66 5.375c0.575 1.858 2.024 2.84 1.92 5.375-0.084 0.3-0.321 0.447-0.768 0.384-11.172-8.015-26.461-11.924-44.143-13.436v-3.073c17.138-2.273 31.542 4.788 42.999 10.75m-146.66 16.125c-0.039-1.191 0.469-1.834 0.767-2.687 2.727-0.167 4.713 0.407 4.608 3.071-1.947-0.691-3.948 0.177-5.375-0.384m91.375-4.991c0.592 1.831 0.273 5.149-1.152 6.144-0.3-1.33-0.091-5.114 1.152-6.144m23.033 6.526c-1.148-5.712-0.325-14.5 0-21.114 2.212-0.166 3.66 0.434 5.376 0.767v20.347zm-11.517-0.382c0.494-7.313 0.602-15.012 1.919-21.501h6.143c0.202 6.786 0.212 15.514-1.151 21.883-2.235-0.197-5.296 0.432-6.911-0.382m-8.063 0.767c0.276-8.466-0.314-21.016 6.143-21.884-0.258 7.549-0.576 15.037-1.92 21.499-1.076 0.46-2.649 0.423-4.223 0.385m28.795 0.383v-20.348c1.824-0.16 2.769 0.559 4.223 0.769 0.339 6.458 2.962 14.681 1.152 20.732-1.827-0.349-3.483-0.869-5.375-1.153m9.982 2.305c-1.118-6.434-2.153-12.95-2.304-20.348 4.379 0.229 3.607 5.71 4.223 9.214 0.705 3.997 1.784 8.321 1.92 11.902-1.79 0.254-2.466-0.605-3.839-0.768m8.446 3.071c-3.469-4.849-2.748-13.889-4.223-20.732 3.646 0.826 3.18 5.904 3.84 9.214 0.756 3.802 1.777 7.894 1.919 11.518zm1.92-17.661c2.245 5.306 2.811 12.291 3.839 18.813h-1.152c-0.696-6.217-3.395-12.471-2.687-18.813m-114.8 18.813h-18.045c-0.867-2.636-0.042-5.588 0-8.447 4.523-1.511 13.273-0.78 18.429-0.384-0.253 2.819 0.507 6.651-0.384 8.831m119.02-15.741c1.163 5.656 4.169 13.443 3.455 18.429-1.648-5.392-3.781-12.343-3.455-18.429m-58.357 13.82c3.4 0.075 5.684-0.97 9.214-0.767-1.104 1.023-1.602 5.509 0.768 6.911-4.458-0.235-7.598 0.849-11.902 0.768-0.078-3.022 0.931-4.956 1.92-6.912m-78.321 6.912v-0.768c2.357-0.681 5.877-0.384 9.214-0.384 3.101 0 7.188-0.94 8.446 1.152-4.119 1.275-13.542 1.275-17.66 0m17.66 9.598h-16.509c-0.638-1.153-0.289-3.295-0.768-4.608h17.277c0.637 0.662 0.637 3.946 0 4.608m125.16 2.304c-8.541-7.417-28.481-12.009-44.152-12.67-6.005-0.254-12.006 0.566-9.598-6.144 9.005-1.436 20.611-0.406 30.714 1.921 8.302 1.911 20.046 5.453 23.036 11.517 0.877 1.78 1.258 4.021 0.768 6.144-0.004-0.508-0.673-0.351-0.768-0.768m-125.16 4.607h-15.74c0.222-1.247-0.262-1.787-0.385-2.687 4.609-0.895 10.877-0.13 16.125-0.386 0.405 0.399 0.794 2.743 0 3.073m0 8.83h-14.205c-0.206-1.586-0.562-3.022-0.768-4.607 4.225-0.894 10.109-0.13 14.973-0.384 0.525 0.901 0.718 4.123 0 4.991m-6.911 7.294h-1.535c-0.221 0.675 0.463 2.256-0.385 2.304-0.554-0.596-0.807-1.496-1.152-2.304h-2.686c-0.379-0.901-0.674-1.886-0.768-3.07h13.437v3.07h-1.92c0.062 1.47 0.23 3.045-1.151 3.072-0.594-0.558-0.338-1.965-0.384-3.072h-1.92c-0.316 0.964 0.747 3.307-0.768 3.072-0.949-0.33 0.114-2.672-0.768-3.072m9.983 7.295v-1.151c1.866-0.242 4.021-0.725 4.991 0.766-0.66 1.037-3.847 1.053-4.991 0.385m-24.189-14.972c-1.295-2.516-4.199-3.795-4.991-6.144-1.974-5.849 0.321-13.985-0.767-20.348-0.249-1.448-1.964-3.06-1.92-4.607 0.066-2.399 2.5-6.68 5.374-6.144 1.506 18.908 4.9 35.324 7.68 52.599-0.509 0.006-0.352 0.674-0.769 0.769-2.286-4.711-1.84-10.753-4.607-16.125m103.66 18.811c0.267-14.192 0.867-28.055 1.536-41.848 1.397-0.707 3.342 0.881 5.375 0.768v41.849c-2.578 0.018-4.635-0.485-6.911-0.769m-12.67 0.385c0.596-13.865 0.957-27.967 1.92-41.465 2.363-0.324 4.386-0.988 7.294-0.768 0.508 13.055-0.152 28.254-0.384 41.848-2.464 0.8-6.023 1.004-8.83 0.385m-9.598 1.151c1.179-14.05 0.589-29.87 3.072-42.616 1.971 0.295 2.915-0.665 4.223 0-0.608 13.598-0.455 27.958-1.152 41.465-1.716 0.716-3.529 1.334-6.143 1.151m33.018 0c0.767-13.821 0.14-29.037 1.536-42.232 2.473 0.214 4.699 0.676 6.527 1.537-0.563 9.88 0.067 21.548-0.385 31.48-0.157 3.475 0.009 7.44-1.919 9.984-1.342-0.833-4.463 0.111-5.759-0.769m-43 0c-0.038-9.807 1.053-17.907 2.303-26.107 0.881-5.776 1.724-12.47 6.143-14.974-0.255 12.931-1.626 28.062-2.687 41.466-2.116 0.06-3.819 0.532-5.759 0.768zm54.518 1.921c0.551-13.527-1.335-29.491 1.535-40.698 1.247-0.223 1.787 0.262 2.688 0.385 2.513 11.068 1.866 28.905 0.768 41.08-2.273 0.353-3.182-0.657-4.991-0.767m8.83 1.918c0.192-5.452-0.255-11.289 0-16.892 0.367-8.076-0.381-16.469 1.536-23.037 4.351 3.659 2.401 13.304 3.071 21.501 0.517 6.318 1.089 14.882-0.768 19.964-1.723-0.068-2.784-0.799-3.839-1.536m7.679-35.706c3.005 10.306 1.253 27.414 1.151 39.546-1.366-11.942-0.833-27.833-1.151-39.546m3.839 2.69c3.332 9.976 0.693 25.925 1.536 38.392-0.081 0.431-0.426 0.598-0.768 0.769-0.711-12.34-0.288-27.865-0.768-39.157m-74.482 34.552c5.353-0.918 10.239-2.302 16.125-2.687-1.079 1-1.603 5.509 0 7.678-6.29-0.019-11.125 1.419-16.509 2.304-1.075-2.221 0.152-5.135 0.384-7.295m-37.625-1.536c1.324-0.777 1.7-0.507 3.455-0.384 0.633 3.121 0.633 8.782 0 11.903h-1.919c-0.218-4.134-1.496-7.206-1.536-11.519m55.669 5.759c-5.327-8.453 7.463-7.341 14.206-6.91 17.729 1.135 34.244 6.249 43.384 13.053-0.724 2.092-0.611 5.02-1.536 6.912-13.89-9.146-33.907-12.165-56.054-13.055m-81.777 11.135c0.299-0.085 0.447-0.322 0.385-0.768 2.444-0.884 6.68 0.025 9.214-0.768 1.118 1.493-1.987 1.418-1.92 3.071 1.088-0.064 1.6-0.704 2.688-0.767-0.014 1.522-1.482 1.59-2.304 2.303 1.228 0.052 2.938-0.379 2.688 1.152-4.025 2.01-9.353-1.071-10.751-4.223m-13.82-1.536c-0.684-0.725-1.266-1.551-1.153-3.071 2.504-3.512 5.027-7.004 11.518-6.528 1.282-2.044 1.664-4.99 3.455-6.526-0.043 1.521 0.548 3.909 0.385 5.759-0.798 8.983-9.317 21.433-17.277 22.652 0.828-4.292-0.573-10.811 3.072-12.286m42.231 9.214c0.495-0.529 1.668-0.38 2.688-0.384 0.578 1.607 0.682 5.705 0 7.295-1.294-1.906-2.685-3.714-2.688-6.911m-57.589 0.768c-0.612-1.485-4.211-2.148-1.92-4.223 0.663-0.761 1.382 1.668 3.072 1.152 0.173-4.179-0.114-8.816 1.919-11.134 0.683 4.948-2.002 13.264 3.072 13.821 0.529-3.63-1.675-7.75 1.919-8.446 4.187 8.22-7.926 25.097-8.062 8.83m165.86-3.83c-0.219 1.367-0.061 3.264-0.383 4.991-0.369 1.971-1.961 7.275-2.304 6.527 1.164-3.572 1.418-8.052 2.687-11.518m-51.83 19.58v-31.481c1.863-0.835 5.395-0.373 6.91 0.383v31.098zm19.197 0c-0.167-9.381 1.665-20.09 1.919-30.33 2.842-0.027 4.905 0.725 6.527 1.919-0.696 10.055-0.71 20.791-3.455 28.795-1.91 0.117-3.523-0.061-4.991-0.384m-8.447 0c-1.928-9.049 0.252-20.42 0-30.33 1.602-0.802 4.922-0.432 6.143 0.384-0.126 9.113-0.208 21.53-1.92 30.33-1.574 0.038-3.147 0.076-4.223-0.384m-20.732-0.768c-1.591-8.903-0.398-20.589-0.768-30.713 2.729 0.297 4.282-0.581 6.91-0.385-0.163 11.041 0.092 21.664 0.768 31.866-1.457 0.312-6.645 1.359-6.91-0.768m-35.706-18.044c1.003 6.326 3.952 12.637 3.455 19.196h-3.071c-0.057-6.215-1.184-13.403-0.384-19.196m28.027 19.964c-1.106-10.028-2.087-20.181-2.687-30.714 1.655-0.393 3.102-0.993 5.375-0.768 0.816 9.712 1.581 21.406 1.151 31.098-1.534-0.128-2.13 0.684-3.839 0.384m44.92-0.384c3.527-7.352 3.269-18.487 4.223-28.41 2.308 0.252 4.504 0.615 6.143 1.535 0.527 9.817-3.116 18.585-4.607 27.643-1.745 0.697-4.598 0.28-5.759-0.768m-50.679-26.491c0.919 8.935 1.843 17.865 2.304 27.259-1.276 0.644-3.145 0.695-4.607 1.152-0.224-9.5-0.218-20.024 2.303-28.411m64.117 0.768c2.01-0.091 2.979 0.86 3.838 1.919-1.287 9.847-2.788 19.48-7.294 26.107h-0.768c1.103-8.12 3.278-18.471 4.224-28.026m7.678 3.455c0.614 8.062-4.082 17.4-5.759 25.723h-1.152c3.364-7.514 3.411-18.345 6.911-25.723m-118.25 25.723c-0.322 1.854-0.208 4.144-1.536 4.991-0.641-1.441-0.935-5.426 1.536-4.991m-3.072 0c0.921 1.397-0.592 3.088-0.383 4.991h-1.152c0.114-2.061-0.551-4.902 1.535-4.991m48.375 2.688c5.741-1.683 13.578-3.314 19.965-3.071-1.104 0.933-0.931 3.645 0 4.606-7.134 0.418-13.403 1.699-19.58 3.072-0.277-2.043-0.808-2.592-0.385-4.607m68.34 6.526c-12.003-5.169-30.637-5.677-46.84-5.375-0.369-1.011-0.741-3.289 0-4.222 16.891-1.987 36.398-0.095 48.376 5.374-1.021 0.9-0.302 3.538-1.536 4.223m-34.554-0.4c-0.317-1.086 0.541-0.995 0.384-1.92 1.61-1.029 3.862 0.091 5.759 0 0.278 1.175-0.662 1.13-0.384 2.303-2.106 0.059-4.136 0.042-5.759-0.383m-8.446-2.688h5.759c0.441 1.076 0.441 1.996 0 3.071-2.958 0.091-7.875 0.704-5.759-3.071m16.125 2.688c-0.45-2.844 5.004-3.094 5.375-0.769 0.093 2.388-4.364 1.675-5.375 0.769m-24.956 0.383v-2.303c1.379-0.797 4.153-0.199 6.143-0.383v2.303c-2.189 0.609-3.754 0.735-6.143 0.383m33.018-0.767c0.833-1.915 2.852-0.603 4.992-0.767 0.802 3.134-4.816 2.899-4.992 0.767m-40.696-0.37c1.154-0.274 5.122-1.373 4.607 1.152-0.724 1.142-5.395 1.548-4.607-1.152m-33.402-6.91c1.922 1.456 1.709 6.926 2.304 8.447-0.491 0.021-0.532 0.492-1.152 0.383-1.592-1.535-2.039-6.074-1.152-8.83m81.009 8.83v-1.151c0.934-0.742 3.212-0.37 4.223 0 0.262 1.956-3.073 1.826-4.223 1.151m-54.518-1.151c1.072-0.596 4.431-0.752 4.991 0.383 0.104 2.373-5.755 3.118-4.991-0.383m60.277 1.92c0.447-0.065 0.417-0.608 0.384-1.152h2.688c0.972 2.307-2.725 2.53-3.072 1.152m-12.67 1.919c2.963-0.723 8.319-0.687 9.215 1.92-3.139 2.005-7.588 0.002-9.215-1.92m-39.928 2.303c1.169-0.367 1.544-1.526 3.455-1.151 0.76 0.519 1.493 1.066 1.152 2.688-1.996-0.053-3.693-0.402-4.607-1.537m14.973-3.071c5.796 0.122 11.634-2.094 16.893-1.151 4.31 0.771 7.237 4.688 10.366 6.142-11.791 1.041-20.01-1.489-27.259-4.991m-11.902 0.768c8.182-1.277 15.14 0.632 19.196 4.607-8.819 0.885-14.521-1.347-19.196-4.607m-29.946 9.982c0.356-6.643-7.469-15.342-1.537-19.196 0.723 2.605-0.434 7.089 1.92 8.062 0.557-3.779-2.408-8.265 1.152-9.598-0.036 8.063 7.153 12.687 4.608 20.732-1.369 1.265-4.668 0.819-6.143 0m-23.804-10.75c-2.004 0.006-3.746 4.068-4.607 2.688-0.282-2.07-0.096-3.494-1.152-5.376 3.002 0.059 4.915-0.972 8.063-0.767 0.883 1.035 0.782 3.057 2.303 3.455-0.7-3.394-1.604-6.586-3.455-8.83-0.104 1.303 0.297 3.112-0.384 3.839-0.726-0.086-0.847 0.433-1.536 0.384-4.362-4.007 0.012-10.713 0-16.125 2.838-1.948 8.18-0.829 11.902-0.384 1.5 5.69-1.486 12.021 0.384 16.894 1.12-0.417 1.445-1.627 3.071-1.537 1.216 6.207-2.67 7.312-3.839 11.134 1.336 1.096 3.37 1.493 3.839 3.456-1.595 0.323-2.849 0.989-4.991 0.767-1.619-1.452-1.963-4.179-3.455-5.758-2.622 0.803-2.088 5.385-1.152 7.678-7.924 1.823-6.206-8.513-4.991-11.518m30.715 13.821c2.218-0.852 3.809-2.333 3.455-5.758 1.111-1.549 5.032-1.549 6.143 0 0.976 6.138-6.467 11.799-9.598 5.758m-18.429 0c1.055 1.249 1.699 2.909 3.455 3.456-0.433 8.514-9.032 0.137-3.455-3.456m-23.036 2.304c2.858-0.753 7.172 0.706 10.366-0.384-1.358 2.206-3.406 4.964-7.294 3.455-1.24 0.553-1.357 2.227-3.072 2.304-1.076-1.552 0.406-3.274 0-5.375m-4.224-0.384c0.507 2.734-1.09 6.202-1.919 8.83-6.735 0.297-3.501-12.861 1.919-8.83m45.304 2.304c2.717 0.1 2.947 2.684 4.608 3.839-0.517-1.2-0.674-3.531 0.383-4.223 3.642 0.641 7.123 4.008 11.518 1.535-2.955 0.141-5.361-0.27-7.678-0.767 0.14-4.211 2.916-5.787 5.375-7.679-0.018-1.937 1.321-2.518 3.455-2.304-0.491 2.539 1.382 2.714 2.688 3.456 0.825 0.983-0.353 2.176 0.383 2.687 2.77-0.43 2.053-4.346 5.375-4.223 3.312 4.63-4.729 11.371-11.517 13.822-3.231 1.166-8.166 0.165-11.518 0.768-0.657 0.117-1.302 1.01-1.92 1.151-2.452 0.559-4.363-0.715-6.143-0.384-1.19-1.277-2.846-6.584 0-7.294 1.654 0.778 0.47 4.393 2.688 4.607-0.141-0.663-1.161-2.374-0.384-2.688 0.434 1.234 1.096-0.369 0.768-1.152 1.948-0.412 1.595 1.477 2.304 2.304 0.205-1.485-0.686-1.874-0.385-3.455m-56.438 8.062c-2.686-1.537-4.378-4.067-6.526-6.142-0.737-2.335-0.181-5.963-3.072-6.144-1.516 0.123 0.285 1.189-0.767 1.537-4.624-3.354-2.11-10.635 0.767-13.438-2.258-0.429-4.876-0.498-6.91-1.152-1.188-3.035-3.514-4.932-3.072-9.598 1.326-1.619 4.003-1.884 4.608-4.224-5.624 1.572-8.737-2.463-8.831-7.678 3.513-0.326 6.423-1.255 8.831-2.688 1.436 0.991 1.178 2.697 0.384 4.223 2.672 2.267 6.434 1.832 5.759 5.76-0.49 2.845-5.71 4.5-6.527 7.294 2.704 0.669 3.43-2.295 4.991-1.536 0.22 3.037-2.955 2.677-4.223 4.224 3.737 0.605 8.507-1.324 10.365 2.304-1.627-0.092-3.041 0.03-3.455 1.151 0.283 2.021 1.271 3.337 2.303 4.608 4.064 0.536 5.722 3.219 5.76 6.526 0.043 3.721-3.411 5.977-3.456 9.214 1.645 0.841 2.79-0.668 4.991-0.383 1.464 1.869-0.032 5.308-1.92 6.142m41.081-1.919c-0.008 0.904 0.662 1.13 0.384 2.303h-1.152c-0.079-1.104 0.098-1.95 0.768-2.303m1.536 2.303c1.095-1.593 2.076-3.298 2.304-5.758-0.213-1.068-1.485-1.076-2.304-1.537-0.278-1.172 0.392-1.398 0.384-2.303 1.308-0.284 0.633 1.415 1.536 1.536 0.962-0.318 1.214-1.345 1.919-1.92 0.766 3.075 1.484 6.195 1.536 9.982-1.355 0.777-4.504 1.995-5.375 0m-9.598-3.455c-1.405-0.232-1.785 2.536-3.072 1.152 0.683-0.725 1.266-1.55 1.152-3.072-0.853-0.298-1.497-0.806-2.687-0.768-0.149-2.453 2.193-2.413 2.303-4.607 2.567 2.958 5.826 7.199 4.991 12.286-3.29 0.73-0.814-4.304-2.687-4.991m-41.848 4.607c-0.558-1.119-1.88-3.478-0.769-4.991 2.154 2.169 3.905 7.622 1.92 11.518h-2.687c-0.627-3.314 0.926-4.449 1.536-6.527m56.821 3.072v4.99h-1.151c0.253-1.793-0.743-4.838 1.151-4.99m-14.973 3.455c0.334-1.527 0.334-1.929 0-3.455 3.087-2.397 7.217 2.03 6.143 4.99-2.424-0.625-3.814-1.696-6.143-1.535m0.384 3.455c-0.542-1.225 2.297-0.97 2.303-0.384-0.811 0.678-1.134 0.866-2.303 0.384m-8.063 4.223c-0.194 1.206 0.905 1.569-0.384 1.92-0.607-0.569-1.333-1.984 0.384-1.92m-1.152 21.5c2.747-3.012 10.143-1.375 9.215-8.062-3.765-0.821-4.648 1.239-6.911 1.92-0.874-0.789-1.326-2.002-1.152-3.84 3.096-0.909 9.262-0.67 8.447-4.223 2.204-0.099 4.548-0.059 5.758-1.152 0.188-1.212-0.692-1.355-0.383-2.687-2.393-0.295-3.622-1.754-5.759-2.304-0.738 0.925-1.077 2.251-2.304 2.688-1.202-0.982-2.219-4.459-0.768-5.76 1.89 0.031 2.252 1.588 4.224 1.537 1.732-0.443 1.907-2.444 3.455-3.072 1.387 1.599 4.031 1.783 4.991 4.607-0.283 0.869-1.463 0.84-1.536 1.92 0.544 0.992 0.666 2.406 1.152 3.456-3.738 0.826 0.486 7.302-2.304 8.83-2.594 0.418-3.377-0.974-5.758-0.768 0.086 0.726-0.433 0.847-0.385 1.535 0.646 1.786 3.745 1.118 4.992 2.304-0.643 5.449-11.638 7.144-14.974 3.071m124.78-162.02c-0.593-1.84-0.422-4.441-1.153-6.142 40.479-43.018 121.44-60.558 203.87-52.215 39.306 3.979 71.007 15.367 96.749 33.018 23.678 16.235 46.171 45.244 47.991 81.777 1.871 37.503-14.097 63.549-33.017 81.009-17.735 16.368-40.079 28.231-73.715 28.027-13.319-0.081-24.993-2.69-36.088-5.375-18.027-4.362-36.093-12.227-57.589-5.759-2.507-11.726-14.175-16.349-29.947-14.974-16.909 1.476-27.96 12.036-41.082 19.965-12.348 7.463-29.802 13.824-48.374 12.67-18.82-1.17-32.307-10.109-41.464-19.965-10.154-10.929-15.89-23.426-20.732-41.08 2.201-0.487 4.419-0.956 6.911-1.152 6.9768-0.58421 14.161-6.6401 16.569-9.5037 2.1309-2.5341 11.961-36.476 13.377-48.469 0.377-15.094-1.076-28.36-1.151-43m-192.73-64.894c-3.574-0.503-3.672 2.47-5.375 3.838-6.609-3.279 5.15-12.909 5.375-3.838m70.644 18.044c-0.187-3.012 0.721-7.121-1.536-8.063-6.087 1.898-5.25 12.498-6.143 20.733-8.237 0.12-17.152 0.112-21.884-1.152-1.296-1.294-0.726-5.786-2.688-4.224-1.719-3.894 1.293-3.833 3.072-6.141 4.842-6.285 9.589-26.26-3.455-24.956-7.348 0.734-11.215 7.676-13.438 13.437-3.023-0.177-2.834-3.565-6.911-2.687-2.997-2.767-7.667-10.278-14.205-10.75-4.139-0.3-11.126 1.718-11.518 6.142-0.723 8.172 11.579 9.671 12.286 17.278 0.221 2.373-1.425 3.907-1.152 7.677-0.696 1.736-2.939 1.925-4.606 2.689 2.286 5.518 3.071 12.541 2.686 20.731 0.639 2.183 0.639 7.033 0 9.215 0.355 5.986-0.921 10.34-0.767 16.125v8.446c0.054 2.889-0.341 6.228 0.767 8.064 1.588 0.842 4.262 0.601 6.144 1.151-0.837 3.81 1.92 7.09 2.303 9.598 0.634 4.154-1.595 8.727-1.152 13.054 0.836 8.155 4.277 13.684 6.911 19.964-1.161 4.687 2.598 6.314 3.839 9.214 0.453 1.058 0.255 2.685 0.768 4.223 0.699 2.1 2.381 3.866 2.688 5.76 0.298 1.841-0.378 3.736 0 5.759 0.713 3.817 3.948 6.785 5.758 9.598 0.708 7.666 0.75 17.514-0.767 24.187 2.387 2.132 8.61 2.737 10.749 0 0.041-3.624-1.268-5.898-0.767-9.982 3.342 0.113 5.576 4.03 8.83 4.991 3.902 1.151 8.151-0.659 12.285 1.151 1.288 5.139-4.179 6.996-3.071 13.054 0.206 1.123 1.463 1.539 1.92 2.688 1.311 3.295-0.156 6.812 0.768 9.982 3.366 11.552 31.069 10.568 28.027-6.527 0.644-1.532 2.962-1.389 3.455-3.071 0.773-4.903-1.704-8.486-2.303-10.751 1.251-1.436 5.055-0.319 6.142-1.919 1.558-2.111-0.236-5.253 0.768-7.679 1.699-1.689 4.47-0.947 6.527-1.152 11.464-1.136 21.495-5.292 28.027-11.517 0.504-1.159 0.263-3.064 0.768-4.223 6.807-1.127 16.224 0.355 23.035-0.768 4.677 17.079 11.593 31.919 21.884 43.384 1.697 1.375 3.232 2.911 4.608 4.607 14.185 10.582 25.389 17.654 48.375 16.509 16.483-0.822 31.581-6.073 43.768-13.822 12.154-7.729 22.645-17.439 38.392-18.812 9.488-0.827 20.037 1.672 23.42 7.294 1.371 2.279 1.037 5.533 3.072 7.679 8.085-0.213 16.321-2.666 24.571-2.303 11.792 0.518 22.164 5.051 33.017 7.678 12.882 3.118 26.122 6.484 42.618 5.759 30.056-1.321 55.145-11.762 72.945-29.562 17.927-17.926 32.264-39.669 33.402-75.251v-4.607c-2.32-42.428-25.13-73.509-53.73-91.387-30.51-19.077-65.54-29.865-108.27-31.865-81.93-3.836-151.42 12.104-191.19 52.214-2.918-10.781-5.599-21.792-8.834-32.251-2.289-1.746-4.29-2.411-7.678-3.839-2.416-1.019-4.856-3.475-6.911-4.223-0.901-0.328-2.298 0.28-3.455 0-1.548-0.376-2.33-1.754-3.456-1.919-1.128-0.167-2.669 0.572-3.839 0.383-1.492-0.241-2.665-1.531-4.223-1.919-1.261-0.316-2.585 0.25-4.223 0-1.8-0.277-3.439-1.466-4.991-1.536-8.436-0.381-16.61 2.384-25.34 4.991-5.867 1.751-12.127 3.935-14.589 6.525-2.506 2.637-3.903 8.844-5.375 13.439-4.617 14.412-9.654 27.892-10.366 45.687-2.122-15.667-0.53-35.048-3.84-49.527-1.936-0.328-2.146-0.104-4.223 0-0.837 5.265-2.708 10.814-1.536 16.894-1.648 0.229-3.563-4.617-4.99-4.608-1.498 5.635 1.5 7.603 3.839 10.367-0.414 1.12-3.426-0.354-3.839 0.768 0.188 1.212-0.693 1.355-0.385 2.687 0.377 1.672 3.753 0.343 5.375 0.768 0.952 1.097-0.102 4.197 0.768 5.376-1.811 0.773-4.317-3.094-5.758-2.689-1.681 4.824 1.69 6.353 4.607 7.679-0.663 1.129-3.945-0.361-4.607 0.768-0.323 0.957-0.503 2.056-0.385 3.456 1.497 0.807 4.415 0.191 6.527 0.384-0.116 2.931 0.061 5.57 0.384 8.062-2.187 0.389-4.191-2.716-6.911-3.072-1.443 3.931 1.525 5.93 4.608 6.527-1.484 1.418-4.68-1.122-4.991 1.153 0.22 0.673-0.464 2.254 0.383 2.303 0.848 1.712 4.806 0.314 6.911 0.767 1.087 1.346-0.298 5.161 0.768 6.527-2.249-0.054-3.125-1.482-5.375-1.536-1.346 0.444-0.839 2.744-1.152 4.224-3.161-2.471-2.117-9.146-2.303-14.589v-21.501-6.91-22.269c0.243-1.293-0.495-3.565 0.384-4.223" fill-rule="evenodd" fill="#7c4300"/>
</g>
<g transform="translate(470.28 288.25)">
<path d="m-258.38-44.535c0.076 14.64 1.529 27.906 1.152 43-5.7083 18.513-10.325 43.279-13.257 47.283-3.025 4.1312-7.3358 7.25-16.69 10.69-2.491 0.196-4.71 0.666-6.911 1.152 4.843 17.654 10.579 30.151 20.732 41.08 9.157 9.856 22.644 18.795 41.464 19.965 18.573 1.154 36.026-5.207 48.375-12.67 13.122-7.929 24.172-18.489 41.081-19.965 15.773-1.375 27.441 3.248 29.948 14.974 21.496-6.468 39.561 1.397 57.589 5.759 11.094 2.685 22.768 5.294 36.088 5.375 33.635 0.205 55.98-11.659 73.714-28.027 18.911-17.434 34.88-43.48 33.009-80.983-1.82-36.533-24.314-65.542-47.991-81.777-25.742-17.651-57.444-29.039-96.749-33.018-82.427-8.343-163.39 9.197-203.87 52.215 0.731 1.701 0.56 4.302 1.152 6.142z" fill-rule="evenodd" fill="#fbaa29"/>
</g>
<g transform="translate(202.68 309.37)">
<path d="m0 0c0.342 0.749 1.935-4.555 2.303-6.527 0.322-1.726 0.164-3.624 0.384-4.991-1.269 3.466-1.523 7.947-2.687 11.518" fill-rule="evenodd" fill="#fbaa29"/>
</g>
<g transform="translate(81.746 252.55)">
<path d="m0 0c0.718-0.868 0.524-4.091 0-4.991-4.865 0.254-10.749-0.51-14.974 0.384h14.974v4.607z" fill-rule="evenodd" fill="#fbaa29"/>
</g>
<g transform="translate(81.746 243.72)">
<path d="m0 0c0.793-0.33 0.405-2.674 0-3.073-5.248 0.256-11.517-0.509-16.125 0.385h16.125v2.688z" fill-rule="evenodd" fill="#fbaa29"/>
</g>
<g transform="translate(63.701 213.77)">
<path d="m0 0c5.261-0.883 12.147-0.137 18.045-0.384v8.831c0.891-2.18 0.131-6.012 0.384-8.831-5.157-0.396-13.906-1.127-18.429 0.384" fill-rule="evenodd" fill="#fbaa29"/>
</g>
<g transform="translate(480.78 177.08)">
<path d="m0 0v-1.941h1.201c1.059 0 2.507-0.177 2.507 0.882 0 0.989-0.83 1.059-1.766 1.059h-1.942zm4.731-6.673h-1.288l-1.995 3.602h-1.448v-3.602h-1.13v7.803h3.284c1.412 0 2.684-0.423 2.684-2.066 0-1.535-1.042-2.1-2.083-2.135l1.976-3.602zm-9.003 3.954c0-3.265 2.648-5.807 5.826-5.807 3.177 0 5.826 2.542 5.826 5.807 0 3.284-2.649 5.809-5.826 5.809-3.178 0-5.826-2.525-5.826-5.809m-1.13 0c0 3.867 3.072 6.939 6.956 6.939s6.956-3.072 6.956-6.939c0-3.866-3.072-6.937-6.956-6.937s-6.956 3.071-6.956 6.937" fill="#7c4300"/>
</g>
</g>
</g>
</g>
</svg>
