<?xml version="1.0" encoding="UTF-8" standalone="no"?>
<!DOCTYPE svg  PUBLIC '-//W3C//DTD SVG 1.1//EN'  'http://www.w3.org/Graphics/SVG/1.1/DTD/svg11.dtd'>
<svg viewBox="-1 -1 191 33" height="34" xmlns="http://www.w3.org/2000/svg" width="193" version="1.1">
<path d="m22.477 29.654c-2.515-1.575-4.367-7.011-4.367-13.469 0-0.237 0.001-0.471 0.007-0.704l0.003 0.003c-6.994-1.099-12.048-4.111-12.177-7.672l-0.021 0.041c-1.712 2.127-2.689 4.586-2.689 7.206 0 7.71 8.463 14.027 19.198 14.586l0.046 0.009zm-22.477-14.032c0-8.627 10.736-15.622 23.98-15.622s23.98 6.995 23.98 15.622-10.736 15.622-23.98 15.622c-13.244 0-23.98-6.995-23.98-15.622zm23.98-13.368c2.557 0 4.731 3.878 5.537 9.29l0.003-0.008c4.974-0.774 8.457-2.561 8.457-4.639 0-2.79-6.267-5.048-13.997-5.048s-13.997 2.259-13.997 5.048c0 2.078 3.482 3.864 8.457 4.639l0.003 0.008c0.806-5.411 2.981-9.29 5.537-9.29zm1.548 27.391c10.735-0.559 19.199-6.876 19.199-14.586 0-2.62-0.978-5.079-2.689-7.206l-0.021-0.041c-0.129 3.561-5.182 6.573-12.177 7.672l0.003-0.003c0.005 0.233 0.007 0.467 0.007 0.704 0 6.458-1.854 11.894-4.367 13.469l0.045-0.009zm-1.548-17.699c1.146 0 2.259-0.049 3.324-0.143l-0.001 0.001c-0.53-3.469-1.818-5.917-3.323-5.917s-2.792 2.448-3.323 5.917l-0.001-0.001c1.065 0.094 2.178 0.143 3.324 0.143zm0 12.846c1.925 0 3.495-4.006 3.579-9.03l0.01 0.003c-1.16 0.107-2.36 0.164-3.589 0.164s-2.429-0.056-3.589-0.164l0.011-0.003c0.083 5.025 1.653 9.03 3.578 9.03z" fill="#F00"/>
<path d="m122.36 15.622c0-6.594 5.346-11.939 11.939-11.939 6.596 0 11.941 5.346 11.941 11.939 0 6.595-5.346 11.939-11.941 11.939-6.59 0-11.94-5.345-11.94-11.939zm11.94 7.561c3.683 0 6.668-3.386 6.668-7.562 0-4.175-2.985-7.562-6.668-7.562-3.681 0-6.665 3.386-6.665 7.562s2.98 7.562 6.66 7.562z" fill="#F00"/>
<path d="m159.79 8.657v18.362h-5.03v-18.362h0.017-7.035v-4.152h19.066v4.151h-7.02z" fill="#F00"/>
<path d="m172.89 21.954l-0.005 0.005-1.93 5.061h-5.875l9.288-22.514h6.261l9.289 22.514h-5.876l-1.93-5.061-0.005-0.005h-9.207zm4.61-3.8h3.165l-0.002 0.001-3.142-8.24h-0.044l-3.144 8.24-0.001-0.001h3.16z" fill="#F00"/>
<path d="m67.057 8.657v18.362h-5.031v-18.362h0.017-7.036v-4.152h19.067v4.151h-7.017z" fill="#F00"/>
<path d="m75.362 15.622c0-6.594 5.346-11.939 11.941-11.939 6.594 0 11.94 5.346 11.94 11.939 0 6.595-5.346 11.939-11.94 11.939-6.595 0-11.941-5.345-11.941-11.939zm11.941 7.561c3.681 0 6.667-3.386 6.667-7.562 0-4.175-2.985-7.562-6.667-7.562s-6.667 3.386-6.667 7.562 2.985 7.562 6.667 7.562z" fill="#F00"/>
<path d="m110.8 27.019h2.551v-8.549l8.776-13.965h-5.874l-5.453 9.463-5.452-9.463h-5.876l8.777 13.965v8.548h2.54z" fill="#F00"/>
</svg>
