<?xml version="1.0" encoding="UTF-8" standalone="no"?>
<svg version="1.0" xmlns="http://www.w3.org/2000/svg" viewBox="0 0 450 240">
<g transform="translate(-78.652 -397.33)">
<path d="m436.33 545.55c-1.8995-0.62249-4.4251-1.6846-5.6123-2.3604-2.0282-1.1544-1.7219-1.257 5.0721-1.6997 6.5371-0.4259 7.4274-0.69981 9.2818-2.8558 3.7084-4.3112 1.9984-8.2579-4.8562-11.208-5.1832-2.2308-1.2297-1.563 7.3561 1.2425 10.22 3.3394 17.571 3.2503 26.318-0.31885 6.4702-2.6402 4.5861-0.71523-2.5903 2.6464-3.4823 1.6312-6.5994 2.3221-11.687 2.5905l-6.9384 0.36598 0.33192 2.8432c0.26668 2.2843-0.24228 3.4698-2.589 6.0305-2.3642 2.5797-3.6558 3.2509-6.7767 3.5213-2.1207 0.18372-5.4099-0.17527-7.3095-0.79776zm-25.04-14.03c-10.786-5.951-13.492-6.5674-31.947-7.2759-18.61-0.71455-23.027-1.7915-32.571-7.9419-6.6983-4.3165-15.651-13.468-19.666-20.103-7.0585-11.664-10.207-12.882-31.083-12.025-16.016 0.65728-30.772-0.58052-40.496-3.3969l-6.9866-2.0236-4.5361 2.244c-3.8975 1.928-5.6302 2.2384-12.307 2.2042-6.4916-0.0332-8.979-0.48278-15.11-2.7312-19.02-6.9753-19.96-7.2488-24.005-6.9881-3.7993 0.24478-4.0742 0.42545-4.3386 2.8516-0.3372 3.0941-1.8763 5.0931-1.8763 2.437 0-0.9866-0.60157-2.2931-1.3368-2.9033-1.8816-1.5616-1.2152-4.4619 1.3368-5.8185 3.1987-1.7003 12.002-0.76571 21.586 2.2916 11.376 3.6294 15.935 4.5518 22.561 4.5655 6.7446 0.0139 10.442-1.5881 12.875-5.5789 2.0596-3.3779 2.2192-10.221 0.39676-17.011-0.70106-2.6119-1.2792-4.8227-1.2849-4.9129-0.006-0.0902 3.1952 1.5266 7.113 3.593 3.9178 2.0663 10.232 4.8599 14.031 6.208l6.9074 2.451-5.784 0.2543c-3.1864 0.1401-7.967-0.31575-10.645-1.015-4.5015-1.1755-4.8149-1.1624-4.2412 0.1774 0.34071 0.7957 0.8077 3.6986 1.0378 6.4509 0.41457 4.9596 0.45387 5.0218 4.413 6.9806 12.706 6.2863 19.374 7.3558 44.638 7.159l19.058-0.14846 3.4332 2.2714c2.6805 1.7734 4.235 3.927 7.0905 9.8229 5.9835 12.355 16.181 20.987 28.018 23.719 2.0032 0.46227 9.276 0.85675 16.162 0.87661 20.114 0.058 30.169 3.1634 40.149 12.401 2.8493 2.6371 4.9863 4.7792 4.7488 4.7603-0.23743-0.0189-3.54-1.7494-7.3391-3.8454zm13.764-11.207c-5.8165-3.4898-10.081-7.3285-12.533-11.283-2.2117-3.5658-4.6964-4.4535-15.135-5.4073-8.873-0.81078-16.445-3.2286-18.663-5.9592-0.94909-1.1684-0.87574-1.2756 0.51569-0.75324 4.0129 1.5064 9.4985 2.3831 19.266 3.0793 12.539 0.89366 14.812 1.973 19.713 9.362 1.8144 2.7354 5.3863 7.0133 7.9375 9.5064 2.5512 2.4932 4.5011 4.533 4.3332 4.533s-2.6137-1.385-5.435-3.0778zm27.249 1.256c-5.8774-1.7742-23.94-10.932-39.286-19.918-26.353-15.432-70.069-38.221-69.378-36.166 0.16717 0.4968 5.2862 6.1524 11.376 12.568 6.0895 6.4157 10.833 11.665 10.54 11.665-1.1756 0-10.769-7.6123-16.863-13.381-7.9156-7.4927-12.807-10.898-21.435-14.921-5.9394-2.7698-7.4035-3.0966-14.12-3.1516-8.5358-0.07-8.1197-0.92409 1.0862-2.2297 3.4668-0.49169 6.4334-1.0241 6.5925-1.1832 0.65605-0.65605-48.072-18.327-64.511-23.395-11.032-3.4008-21.523-5.9825-22.074-5.432-0.22339 0.2234 0.35484 2.1059 1.285 4.1834 0.93012 2.0775 1.5367 3.9317 1.348 4.1204-0.18872 0.18873-2.1219-1.2226-4.296-3.1364-8.291-7.298-24.333-13.754-39.837-16.031-8.6331-1.2681-12.115-0.72639-16.475 2.5632l-2.7713 2.0911 6.3142 6.2425c8.1808 8.088 10.321 11.77 3.8837 6.6817-5.8604-4.6324-11.535-7.4819-18.268-9.173-5.3175-1.3357-9.2675-3.2333-9.2698-4.4534-0.00066-0.34522 2.0392-0.50769 4.533-0.36103 3.6164 0.21266 5.4876-0.22425 9.2448-2.1586 8.3512-4.2995 7.265-4.8456-8.7053-4.376-11.261 0.3311-15.299 0.79094-19.846 2.2604-6.1071 1.9734-10.619 4.893-9.7462 6.306 0.30707 0.49687 1.5251-0.0838 2.8616-1.3643 2.4545-2.3516 7.0773-2.9998 9.5716-1.3422 1.9904 1.3227-3.8556 6.3122-9.5749 8.172-9.5099 3.0924-12.786 7.806-7.4852 10.771 3.0805 1.7231 4.4591 0.85954 8.6474-5.4169 4.7811-7.1649 7.8248-8.0937 12.501-3.8146 4.6301 4.2371 2.5628 12.546-4.6142 18.545-4.2547 3.5565-4.5197 4.1824-2.0968 4.9514 2.4305 0.77142 4.7736-0.76644 7.7426-5.0818 2.0092-2.9202 3.3121-3.9057 5.7748-4.3677 4.7376-0.88878 8.1009-4.6646 8.1009-9.0942 0-1.9673-0.41483-4.352-0.92184-5.2994-0.89814-1.6782-0.85186-1.6863 1.7997-0.31509 1.4969 0.77406 3.897 3.2982 5.3336 5.6093 2.3881 3.8417 3.1081 4.3526 8.3974 5.9592 3.1819 0.96648 7.5104 2.9814 9.6189 4.4776 4.4048 3.1257 11.173 9.4558 11.173 10.45 0 0.37011-2.1013-0.67127-4.6696-2.3142-18.191-11.637-31.233-11.478-45.131 0.55107-6.5542 5.6726-11.596 3.6845-11.255-4.4384 0.17801-4.2402 0.2512-4.3555 2.4584-3.871 1.7809 0.39085 2.6716-0.005 4.1013-1.8225 2.0535-2.6106 2.2923-4.7708 0.83363-7.5421-2.1305-4.0476-5.3122-4.2604-7.2641-0.48592-0.94501 1.8275-1.2108 3.6704-0.82543 5.7244 0.55742 2.9714 0.52174 3.0181-1.8663 2.4468-1.339-0.32038-3.9888-0.91872-5.8883-1.3296-3.9398-0.85227-9.066-6.0151-9.066-9.1307 0-1.1552 1.6443-3.4346 4.2062-5.8309 2.3134-2.1639 4.4576-4.9361 4.7649-6.1605 1.8655-7.4329 23.892-13.378 45.425-12.261 16.724 0.8679 29.084 2.969 51.374 8.7334 35.874 9.2772 77.202 26.036 133.4 54.095 23.326 11.646 35.668 18.338 64.13 34.77 5.591 3.228 14.139 7.638 18.995 9.7999 7.6943 3.4253 9.7738 3.9794 16.169 4.3083l7.3391 0.37745 7.5382-3.9903c5.7094-3.0223 8.0827-3.8537 9.7826-3.427 3.0849 0.77427 4.4415 3.9445 3.0094 7.033-1.0904 2.3517-1.1079 2.3561-1.8281 0.45755-1.2072-3.1826-4.2991-3.2543-11.126-0.25787-6.8763 3.018-15.589 4.0722-20.759 2.5116zm-321.19-98.04c0-0.1631-0.3186-0.29655-0.70801-0.29655-1.0847 0-7.9263 6.0646-7.9263 7.0261 0 0.46614 1.9427-0.79059 4.3171-2.7927 2.3744-2.0022 4.3171-3.7737 4.3171-3.9368zm8.2534-2.4747c1.5988-1.2541 1.5597-1.3038-0.84767-1.0793-1.388 0.12947-2.6832 0.72109-2.8781 1.3147-0.4899 1.492 1.7 1.3536 3.7258-0.2354zm32.983 61.97c-4.6577-4.8968-3.7935-11.801 2.2313-17.826 4.3268-4.3268 10.503-6.3763 21.567-7.1572l7.21-0.50882-1.2024-3.4901c-1.3191-3.8286-0.38235-10.166 1.9594-13.256 1.0764-1.4203 1.2012-1.1609 1.2259 2.5477 0.0294 4.4207 1.7613 9.4652 4.1617 12.122 2.0238 2.2399 8.9 5.6576 16.156 8.0301 7.162 2.3417 6.3004 2.4647-5.6778 0.81039-16.464-2.2738-26.515-2.5794-32.702-0.99437-8.9414 2.2907-13.858 7.1824-13.858 13.788 0 3.5096 3.1627 6.5731 6.808 6.5945 1.775 0.0104 1.9809 0.19226 0.96284 0.8502-2.5356 1.6387-6.4896 0.96305-8.8429-1.511zm-15.414-66.75c-1.8226-1.1264-0.8445-1.4089 6.5566-1.8931 6.0876-0.39831 6.6-0.3236 4.3171 0.62951-3.4921 1.4579-9.4407 2.1492-10.874 1.2636z"/>
</g>
</svg>
