<?xml version="1.0" encoding="UTF-8" standalone="no"?>
<svg version="1.0" xmlns="http://www.w3.org/2000/svg" xmlns:rdf="http://www.w3.org/1999/02/22-rdf-syntax-ns#" xmlns:cc="http://creativecommons.org/ns#" xmlns:dc="http://purl.org/dc/elements/1.1/" viewBox="0 0 450 240">
<metadata>
<rdf:RDF>
<cc:Work rdf:about="">
<dc:format>image/svg+xml</dc:format>
<dc:type rdf:resource="http://purl.org/dc/dcmitype/StillImage"/>
</cc:Work>
</rdf:RDF>
</metadata>
<g transform="translate(-78.652 -397.33)">
<path d="m91.62 623.59c6.602-7.34 6.897-8.88 7.332-38.29l0.381-25.72 4.877 0.25 4.88 0.26 0.26 21.15c0.16 13.19-0.11 23.11-0.72 26.34-2 10.64-8.27 17.37-18.441 19.79-2.457 0.58-2.434 0.52 1.431-3.78zm157.78-8.32c-12.46-2.06-18.15-4.55-22.82-10.01-6.29-7.35-7.35-18.95-2.6-28.63 5.41-11.06 17.08-17.2 32.55-17.13 7.32 0.03 10.6 0.56 15.53 2.52 2.86 1.13 3.24 1.63 3.24 4.21 0 1.61-0.21 2.93-0.46 2.93s-2.49-1.04-4.96-2.31c-6.06-3.1-16.86-3.83-22.83-1.55-5.45 2.08-11.03 7.4-12.93 12.34-2.31 5.97-2.08 15.8 0.49 21.09 2.38 4.9 7.48 9.49 12.07 10.87 4.08 1.22 14.73 1.31 17.77 0.16 2.2-0.84 2.22-0.9 2.22-10.84v-9.99l4.96 0.26 4.97 0.26v11.21 11.21l-5.35 1.44c-5.47 1.48-17.99 2.6-21.85 1.96zm79.03-0.36c-9.99-1.79-14.86-5.16-17.26-11.99-1.05-2.97-1.33-7.95-1.33-23.55v-19.8l4.96 0.26 4.97 0.26 0.43 20.72c0.49 23.55 0.84 24.97 7.05 28.14 4.9 2.5 17.46 2.16 21.11-0.56 6.41-4.79 7.12-7.9 7.19-31.73l0.05-17.11 2.81 0.27 2.8 0.27v20.29c0 19.14-0.1 20.49-1.86 23.74-2.53 4.69-6.07 7.88-10.46 9.43-4.71 1.66-14.96 2.34-20.46 1.36zm-175.1-27.84l13.61-26.98h2.97c3.34 0 2.6-1.29 21.29 37.34l8.04 16.62h-6.05-6.04l-3.37-7.34-3.38-7.33h-13.43-13.43l-3.64 7.33c-3.61 7.28-3.66 7.34-6.91 7.34h-3.27l13.61-26.98zm19.97-3.45c-2.86-6.29-5.45-11.7-5.78-12.03-0.32-0.32-3.18 4.83-6.35 11.45l-5.76 12.02h11.54 11.54l-5.19-11.44zm212.52 30c0-0.24 6.03-12.51 13.41-27.25l13.41-26.81 3.09 0.26 3.09 0.27 12.82 26.33c7.05 14.49 12.84 26.63 12.86 26.99 0.02 0.35-2.64 0.64-5.91 0.64h-5.94l-3.06-7.12-3.07-7.12-13.75-0.24-13.75-0.24-3.36 7.36c-3.35 7.31-3.38 7.35-6.6 7.36-1.78 0-3.24-0.19-3.24-0.43zm37.99-19.02c0-0.25-2.41-5.72-5.35-12.16l-5.35-11.69-2.99 5.89c-1.64 3.25-4.27 8.72-5.85 12.16l-2.87 6.26h11.21c6.16 0 11.2-0.21 11.2-0.46zm47.69-7.53l0.23-26.98 8.63-0.26c16.73-0.5 27.63 2.13 31.72 7.67 4.58 6.2 3.25 15.71-2.95 21.02-1.98 1.7-4.12 3.08-4.75 3.08-0.62 0-1.13 0.3-1.12 0.65 0.01 0.36 3.51 5.43 7.78 11.26l7.76 10.62-6.2-0.25-6.19-0.26-6.95-10.14-6.94-10.15h-5.43-5.43v10.36 10.36h-5.19-5.2l0.23-26.98zm26.66 0.55c7.62-4.39 7.95-17.11 0.56-21.47-1.91-1.13-5-1.76-9.92-2.02l-7.14-0.37v13.17 13.17l6.79-0.39c4.58-0.27 7.73-0.94 9.71-2.09zm-61.83-42.07c-1.9-0.62-4.43-1.69-5.61-2.36-2.03-1.16-1.72-1.26 5.07-1.7 6.54-0.43 7.43-0.7 9.28-2.86 3.71-4.31 2-8.25-4.86-11.2-5.18-2.23-1.22-1.57 7.36 1.24 10.22 3.34 17.57 3.25 26.32-0.32 6.47-2.64 4.58-0.72-2.59 2.65-3.48 1.63-6.6 2.32-11.69 2.59l-6.94 0.36 0.33 2.85c0.27 2.28-0.24 3.47-2.58 6.03-2.37 2.58-3.66 3.25-6.78 3.52-2.12 0.18-5.41-0.18-7.31-0.8zm-25.04-14.03c-10.79-5.95-13.49-6.56-31.95-7.27-18.61-0.72-23.02-1.79-32.57-7.94-6.7-4.32-15.65-13.47-19.66-20.11-7.06-11.66-10.21-12.88-31.09-12.02-16.01 0.65-30.77-0.58-40.49-3.4l-6.99-2.02-4.54 2.24c-3.89 1.93-5.63 2.24-12.3 2.21-6.49-0.04-8.98-0.49-15.11-2.74-19.02-6.97-19.96-7.24-24.01-6.98-3.8 0.24-4.07 0.42-4.34 2.85-0.33 3.09-1.87 5.09-1.87 2.43 0-0.98-0.6-2.29-1.34-2.9-1.88-1.56-1.21-4.46 1.34-5.82 3.2-1.7 12-0.76 21.58 2.29 11.38 3.63 15.94 4.56 22.56 4.57 6.75 0.01 10.44-1.59 12.88-5.58 2.06-3.38 2.22-10.22 0.4-17.01-0.71-2.61-1.28-4.82-1.29-4.91s3.2 1.52 7.11 3.59c3.92 2.07 10.23 4.86 14.03 6.21l6.91 2.45-5.78 0.25c-3.19 0.14-7.97-0.31-10.65-1.01-4.5-1.18-4.81-1.16-4.24 0.18 0.34 0.79 0.81 3.69 1.04 6.45 0.41 4.96 0.45 5.02 4.41 6.98 12.71 6.28 19.38 7.35 44.64 7.16l19.06-0.15 3.43 2.27c2.68 1.77 4.24 3.93 7.09 9.82 5.98 12.36 16.18 20.99 28.02 23.72 2 0.46 9.28 0.86 16.16 0.88 20.12 0.06 30.17 3.16 40.15 12.4 2.85 2.64 4.99 4.78 4.75 4.76s-3.54-1.75-7.34-3.85zm13.76-11.2c-5.81-3.49-10.08-7.33-12.53-11.29-2.21-3.56-4.7-4.45-15.13-5.4-8.88-0.81-16.45-3.23-18.67-5.96-0.95-1.17-0.87-1.28 0.52-0.76 4.01 1.51 9.5 2.39 19.26 3.08 12.54 0.9 14.82 1.98 19.72 9.36 1.81 2.74 5.38 7.02 7.94 9.51 2.55 2.49 4.5 4.53 4.33 4.53s-2.61-1.38-5.44-3.07zm27.25 1.25c-5.87-1.77-23.94-10.93-39.28-19.92-26.36-15.43-70.07-38.22-69.38-36.16 0.17 0.49 5.28 6.15 11.37 12.57 6.09 6.41 10.84 11.66 10.54 11.66-1.17 0-10.76-7.61-16.86-13.38-7.91-7.49-12.81-10.9-21.43-14.92-5.94-2.77-7.41-3.1-14.12-3.15-8.54-0.07-8.12-0.93 1.08-2.23 3.47-0.49 6.44-1.03 6.6-1.19 0.65-0.65-48.08-18.32-64.52-23.39-11.03-3.4-21.52-5.98-22.07-5.43-0.22 0.22 0.36 2.1 1.29 4.18s1.53 3.93 1.34 4.12c-0.18 0.19-2.12-1.22-4.29-3.14-8.29-7.29-24.34-13.75-39.84-16.03-8.63-1.26-12.11-0.72-16.47 2.57l-2.77 2.09 6.31 6.24c8.18 8.09 10.32 11.77 3.88 6.68-5.86-4.63-11.53-7.48-18.26-9.17-5.32-1.34-9.27-3.23-9.27-4.45 0-0.35 2.04-0.51 4.53-0.37 3.62 0.22 5.49-0.22 9.24-2.15 8.36-4.3 7.27-4.85-8.7-4.38-11.26 0.33-15.3 0.79-19.85 2.26-6.1 1.97-10.62 4.89-9.74 6.31 0.3 0.49 1.52-0.09 2.86-1.37 2.45-2.35 7.07-3 9.57-1.34 1.99 1.32-3.86 6.31-9.58 8.17-9.51 3.09-12.78 7.81-7.48 10.77 3.08 1.73 4.46 0.86 8.65-5.41 4.78-7.17 7.82-8.1 12.5-3.82 4.63 4.24 2.56 12.55-4.62 18.55-4.25 3.55-4.52 4.18-2.09 4.95s4.77-0.77 7.74-5.08c2.01-2.92 3.31-3.91 5.77-4.37 4.74-0.89 8.1-4.67 8.1-9.1 0-1.96-0.41-4.35-0.92-5.3-0.9-1.67-0.85-1.68 1.8-0.31 1.5 0.77 3.9 3.3 5.34 5.61 2.38 3.84 3.1 4.35 8.39 5.96 3.19 0.96 7.51 2.98 9.62 4.48 4.41 3.12 11.18 9.45 11.18 10.45 0 0.37-2.11-0.68-4.67-2.32-18.2-11.64-31.24-11.48-45.14 0.55-6.55 5.68-11.59 3.69-11.25-4.44 0.18-4.24 0.25-4.35 2.46-3.87 1.78 0.39 2.67 0 4.1-1.82 2.05-2.61 2.29-4.77 0.83-7.54-2.13-4.05-5.31-4.26-7.26-0.49-0.95 1.83-1.21 3.67-0.83 5.73 0.56 2.97 0.53 3.02-1.86 2.44-1.34-0.32-3.99-0.91-5.89-1.33-3.94-0.85-9.07-6.01-9.07-9.13 0-1.15 1.65-3.43 4.21-5.83 2.31-2.16 4.46-4.93 4.76-6.16 1.87-7.43 23.9-13.38 45.43-12.26 16.72 0.87 29.08 2.97 51.37 8.73 35.88 9.28 77.2 26.04 133.4 54.1 23.33 11.65 35.67 18.34 64.13 34.77 5.59 3.23 14.14 7.64 19 9.8 7.69 3.42 9.77 3.98 16.17 4.31l7.34 0.38 7.53-3.99c5.71-3.03 8.09-3.86 9.79-3.43 3.08 0.77 4.44 3.94 3.01 7.03-1.09 2.35-1.11 2.36-1.83 0.46-1.21-3.18-4.3-3.26-11.13-0.26-6.87 3.02-15.59 4.07-20.76 2.51zm-321.19-98.04c0-0.16-0.32-0.29-0.71-0.29-1.08 0-7.93 6.06-7.93 7.02 0 0.47 1.95-0.79 4.32-2.79 2.38-2 4.32-3.77 4.32-3.94zm8.25-2.47c1.6-1.26 1.56-1.31-0.85-1.08-1.38 0.13-2.68 0.72-2.87 1.31-0.49 1.5 1.7 1.36 3.72-0.23zm32.98 61.97c-4.65-4.9-3.79-11.8 2.24-17.83 4.32-4.32 10.5-6.37 21.56-7.15l7.21-0.51-1.2-3.49c-1.32-3.83-0.38-10.17 1.96-13.26 1.08-1.42 1.2-1.16 1.23 2.55 0.02 4.42 1.76 9.46 4.16 12.12 2.02 2.24 8.9 5.66 16.15 8.03 7.17 2.34 6.3 2.47-5.67 0.81-16.47-2.27-26.52-2.58-32.71-0.99-8.94 2.29-13.85 7.18-13.85 13.79 0 3.5 3.16 6.57 6.8 6.59 1.78 0.01 1.98 0.19 0.97 0.85-2.54 1.64-6.49 0.96-8.85-1.51zm-15.41-66.75c-1.82-1.13-0.84-1.41 6.56-1.89 6.08-0.4 6.6-0.33 4.31 0.63-3.49 1.45-9.44 2.14-10.87 1.26z"/>
</g>
</svg>
