<?xml version="1.0" encoding="UTF-8" standalone="no"?>
<svg xmlns:dc="http://purl.org/dc/elements/1.1/" xmlns="http://www.w3.org/2000/svg" xmlns:rdf="http://www.w3.org/1999/02/22-rdf-syntax-ns#" version="1.1" xmlns:xlink="http://www.w3.org/1999/xlink" xml:space="preserve" viewBox="0 0 605.02 658.71" xmlns:cc="http://creativecommons.org/ns#"><metadata><rdf:RDF><cc:Work rdf:about=""><dc:format>image/svg+xml</dc:format><dc:type rdf:resource="http://purl.org/dc/dcmitype/StillImage"/><dc:title/></cc:Work></rdf:RDF></metadata><defs><linearGradient id="a" gradientTransform="translate(-204.74 -10.965)" x1="577.36" gradientUnits="userSpaceOnUse" x2="546.66" y2="288.12" y1="208.96"><stop offset="0" stop-color="#39daba"/><stop offset="1" stop-color="#00635e"/></linearGradient></defs><g transform="matrix(1.25 0 0 -1.25 -69.083 829.38)"><path d="m479.5 262.4-140.97 22.945c-13.059-3.9844-26.91-6.1794-41.278-6.1794-77.872 0-141.15 63.504-141.15 141.63 0 78.222 63.282 141.84 141.15 141.84 77.945 0 141.3-63.614 141.3-141.84 0-30.949-9.9599-59.557-26.818-82.888l88.864-47.42c24.9 38.548 38.678 83.626 38.678 130.31 0 133.74-108.54 242.71-242.03 242.71-133.44 0-241.99-108.97-241.99-242.71 0-133.76 108.54-242.51 241.99-242.51 35.837 0 72.634 8.9643 105.1 24.568l76.839 59.151 0.31356 0.38754" fill="#40abba"/><path d="m338.46 285.38 112.5-148.84 81.071 61.772-50.261 63.716-143.31 23.353" fill="#74d1d3"/><path d="m338.82 285.4 12.927-100.46c17.105 4.0682 33.807 9.9408 49.525 17.375z" fill="url(#a)"/></g></svg>
