<?xml version="1.0" encoding="UTF-8" standalone="no"?>
<svg xml:space="preserve" xmlns:dc="http://purl.org/dc/elements/1.1/" xmlns:rdf="http://www.w3.org/1999/02/22-rdf-syntax-ns#" xmlns:cc="http://creativecommons.org/ns#" version="1.1" viewBox="0 0 605.02 658.71" xmlns="http://www.w3.org/2000/svg" xmlns:xlink="http://www.w3.org/1999/xlink"><metadata><rdf:RDF><cc:Work rdf:about=""><dc:format>image/svg+xml</dc:format><dc:type rdf:resource="http://purl.org/dc/dcmitype/StillImage"/><dc:title/></cc:Work></rdf:RDF></metadata><defs><linearGradient id="a" gradientUnits="userSpaceOnUse" x2="546.66" gradientTransform="translate(-204.74 -10.965)" y2="288.12" y1="208.96" x1="577.36"><stop stop-color="#39daba" offset="0"/><stop stop-color="#00635e" offset="1"/></linearGradient></defs><g transform="matrix(1.25 0 0 -1.25 -69.083 829.38)"><path fill="#2b758c" d="m386.89 404.61-4.2401 3.2831-2.9716 2.2809-2.4736-2.8527c-4.3078-5.0496-9.4537-7.4822-15.79-7.4822-5.7997 0-10.429 1.7624-14.182 5.4021-3.7503 3.6766-5.5517 8.1216-5.5517 13.538 0 3.5188 0.82794 6.7732 2.5248 9.6853 1.6169 2.8117 3.8876 5.0599 6.9576 6.81 3.0904 1.6743 6.3161 2.5371 9.9025 2.5371 3.3015 0 6.3407-0.67834 9.0541-1.9592 2.7154-1.3136 5.0353-3.2216 6.9412-5.7505l2.4613-3.1745 3.1273 2.4613 4.2401 3.2298 3.029 2.3486-2.2215 3.1232c-2.8876 4.0004-6.7076 7.2588-11.319 9.5726-4.6787 2.2604-9.6832 3.3569-15.393 3.3569-9.2898 0-17.168-3.0433-23.414-9.1115-6.3018-6.1727-9.4599-13.788-9.4599-22.68 0-8.4536 2.6314-15.772 7.8122-21.699 6.0784-7.1256 14.563-10.72 25.142-10.72 5.5784 0 10.523 1.0595 15.1 3.2134 4.5537 2.078 8.4229 5.1091 11.452 9.0213l2.4469 3.1335-3.1745 2.4326"/><path fill="#2b758c" d="m311.93 449.69c-5.2238-12.912-13.907-41.027-15.671-41.027s-10.766 27.753-15.969 41.027h-14.405s15.919-39.383 24.343-60.151c0.5839-1.4395 2.1882-5.4286 6.0798-5.4193 3.8916 0.009 5.3223 3.785 5.8804 5.1914 7.9537 20.044 24.168 60.379 24.168 60.379h-14.425"/><path fill="#2b758c" d="m231.33 437.67c10.307 0 18.7-8.4106 18.7-18.774 0-10.366-8.3936-18.768-18.7-18.768-10.311 0-18.68 8.4024-18.68 18.768 0 10.364 8.3696 18.774 18.68 18.774m24.068-39.842c5.1105 5.8181 7.9734 13.296 7.9734 21.067 0 17.69-14.35 32.124-32.042 32.124-17.684 0-32.063-14.434-32.063-32.124 0-17.754 14.379-32.138 32.063-32.138 4.7551 0 9.4064 1.1087 13.7 3.1683l4.6031-5.8325h16.7l-10.935 13.735"/><path fill="#40abba" d="m479.5 262.4-140.97 22.945c-13.059-3.9844-26.91-6.1794-41.278-6.1794-77.872 0-141.15 63.504-141.15 141.63 0 78.222 63.282 141.84 141.15 141.84 77.945 0 141.3-63.614 141.3-141.84 0-30.949-9.9599-59.557-26.818-82.888l88.864-47.42c24.9 38.548 38.678 83.626 38.678 130.31 0 133.74-108.54 242.71-242.03 242.71-133.44 0-241.99-108.97-241.99-242.71 0-133.76 108.54-242.51 241.99-242.51 35.837 0 72.634 8.9643 105.1 24.568l76.839 59.151 0.31356 0.38754"/><path fill="#74d1d3" d="m338.46 285.38 112.5-148.84 81.071 61.772-50.261 63.716-143.31 23.353"/><path fill="url(#a)" d="m338.82 285.4 12.927-100.46c17.105 4.0682 33.807 9.9408 49.525 17.375z"/></g></svg>
