<?xml version="1.0" encoding="UTF-8" standalone="no"?>
<!-- Created with Inkscape (http://www.inkscape.org/) -->

<svg
   xmlns:dc="http://purl.org/dc/elements/1.1/"
   xmlns:cc="http://creativecommons.org/ns#"
   xmlns:rdf="http://www.w3.org/1999/02/22-rdf-syntax-ns#"
   xmlns:svg="http://www.w3.org/2000/svg"
   xmlns="http://www.w3.org/2000/svg"
   xmlns:sodipodi="http://sodipodi.sourceforge.net/DTD/sodipodi-0.dtd"
   xmlns:inkscape="http://www.inkscape.org/namespaces/inkscape"
   width="768"
   height="110"
   id="svg2"
   version="1.1"
   inkscape:version="0.48.5 r10040"
   sodipodi:docname="console.svg">
  <defs
     id="defs4" />
  <sodipodi:namedview
     id="base"
     pagecolor="#3f98a0"
     bordercolor="#666666"
     borderopacity="1.0"
     inkscape:pageopacity="0"
     inkscape:pageshadow="2"
     inkscape:zoom="2"
     inkscape:cx="249.45551"
     inkscape:cy="126.54457"
     inkscape:document-units="px"
     inkscape:current-layer="layer1"
     showgrid="true"
     inkscape:snap-global="true"
     inkscape:window-width="1137"
     inkscape:window-height="818"
     inkscape:window-x="104"
     inkscape:window-y="104"
     inkscape:window-maximized="0"
     inkscape:snap-grids="false"
     inkscape:snap-page="false">
    <inkscape:grid
       type="xygrid"
       id="grid2985"
       empspacing="5"
       visible="true"
       enabled="true"
       snapvisiblegridlinesonly="true"
       spacingx="5px"
       spacingy="5px" />
  </sodipodi:namedview>
  <metadata
     id="metadata7">
    <rdf:RDF>
      <cc:Work
         rdf:about="">
        <dc:format>image/svg+xml</dc:format>
        <dc:type
           rdf:resource="http://purl.org/dc/dcmitype/StillImage" />
        <dc:title />
      </cc:Work>
    </rdf:RDF>
  </metadata>
  <g
     inkscape:label="Layer 1"
     inkscape:groupmode="layer"
     id="layer1"
     transform="translate(0,-942.36218)">
    <rect
       style="color:#000000;fill:#3f98a0;fill-opacity:1;fill-rule:nonzero;stroke:none;stroke-width:1.50000011999999990;stroke-linecap:round;stroke-linejoin:round;stroke-miterlimit:4;stroke-opacity:1;stroke-dasharray:none;stroke-dashoffset:0;marker:none;visibility:visible;display:inline;overflow:visible;enable-background:accumulate"
       id="rect4239"
       width="768.00006"
       height="110"
       x="0"
       y="942.36218"
       rx="2.1094235e-015"
       ry="2.1094237e-015" />
    <path
       style="fill:#e4a7e9;fill-opacity:1;stroke:#000000;stroke-width:0.80000001;stroke-linejoin:round;stroke-miterlimit:4;stroke-opacity:1;stroke-dasharray:none"
       d="m 15,947.36218 25,0 -5,5 10,10 -15,15 -10,-10 -5,5 z"
       id="path3763"
       inkscape:connector-curvature="0"
       sodipodi:nodetypes="cccccccc" />
    <path
       style="fill:#c8c8c8;fill-opacity:1;stroke:#000000;stroke-width:0.80000001;stroke-linejoin:round;stroke-miterlimit:4;stroke-opacity:1;stroke-dasharray:none"
       d="m 80,947.36218 -25,0 5,5 -10,10 15,15 10,-10 5,5 z"
       id="path3763-1"
       inkscape:connector-curvature="0"
       sodipodi:nodetypes="cccccccc" />
    <path
       style="fill:#c8c8c8;fill-opacity:1;stroke:#000000;stroke-width:0.80000001;stroke-linejoin:round;stroke-miterlimit:4;stroke-opacity:1;stroke-dasharray:none"
       d="m 15,1012.3622 25,0 -5,-5 10,-10.00002 -15,-15 -10,10 -5,-5 z"
       id="path3763-7"
       inkscape:connector-curvature="0"
       sodipodi:nodetypes="cccccccc" />
    <path
       style="fill:#c8c8c8;fill-opacity:1;stroke:#000000;stroke-width:0.80000001;stroke-linejoin:round;stroke-miterlimit:4;stroke-opacity:1;stroke-dasharray:none"
       d="m 80,1012.3622 -25,0 5,-5 -10,-10.00002 15,-15 10,10 5,-5 z"
       id="path3763-1-4"
       inkscape:connector-curvature="0"
       sodipodi:nodetypes="cccccccc" />
    <path
       sodipodi:type="arc"
       style="color:#000000;fill:none;stroke:#000000;stroke-width:2;stroke-linecap:round;stroke-linejoin:round;stroke-miterlimit:4;stroke-opacity:1;stroke-dasharray:none;stroke-dashoffset:0;marker:none;visibility:visible;display:inline;overflow:visible;enable-background:accumulate"
       id="path3867"
       sodipodi:cx="15.125"
       sodipodi:cy="15.8125"
       sodipodi:rx="5.25"
       sodipodi:ry="6.1875"
       d="m 20.375,15.8125 c 0,3.417262 -2.350505,6.1875 -5.25,6.1875 -2.899495,0 -5.25,-2.770238 -5.25,-6.1875 0,-3.417262 2.350505,-6.1875 5.25,-6.1875 2.899495,0 5.25,2.770238 5.25,6.1875 z"
       transform="translate(11,942.23718)" />
    <path
       style="fill:none;stroke:#000000;stroke-width:2;stroke-linecap:butt;stroke-linejoin:miter;stroke-miterlimit:4;stroke-opacity:1;stroke-dasharray:none"
       d="m 27.125,960.23718 4.75,5.25"
       id="path3869"
       inkscape:connector-curvature="0"
       sodipodi:nodetypes="cc" />
    <path
       style="fill:none;stroke:#000000;stroke-width:2;stroke-linecap:butt;stroke-linejoin:bevel;stroke-miterlimit:4;stroke-opacity:1;stroke-dasharray:none"
       d="m 63.375,953.23718 2.875,11.375 3.5,-11.5 3.5,11.625 3,-11.5"
       id="path3871"
       inkscape:connector-curvature="0" />
    <path
       style="fill:none;stroke:#000000;stroke-width:2;stroke-linecap:butt;stroke-linejoin:bevel;stroke-miterlimit:4;stroke-opacity:1;stroke-dasharray:none"
       d="m 20.25,1007.4594 5.442251,-12.08466 5.581797,12.36246"
       id="path3873"
       inkscape:connector-curvature="0" />
    <path
       style="fill:none;stroke:#000000;stroke-width:2;stroke-linecap:butt;stroke-linejoin:miter;stroke-miterlimit:4;stroke-opacity:1;stroke-dasharray:none"
       d="m 21.75,1004.1122 8.024048,0.125"
       id="path3875"
       inkscape:connector-curvature="0" />
    <path
       style="fill:none;stroke:#000000;stroke-width:2;stroke-linecap:butt;stroke-linejoin:miter;stroke-miterlimit:4;stroke-opacity:1;stroke-dasharray:none"
       d="m 73,997.73718 c -1.875,-4.5 -7.75,-2.125 -7.5,0 0.25,2.125 1,2.37502 3.75,3.25002 2.75,0.875 3.75,1.2171 3.75,3.375 0,2.75 -6.75,4.125 -7.875,-0.375"
       id="path3877"
       inkscape:connector-curvature="0"
       sodipodi:nodetypes="csssc" />
    <rect
       style="color:#000000;fill:#e4a7e9;fill-opacity:1;stroke:#000000;stroke-width:0.80000001;stroke-linecap:round;stroke-linejoin:bevel;stroke-miterlimit:4;stroke-opacity:1;stroke-dasharray:none;stroke-dashoffset:0;marker:none;visibility:visible;display:inline;overflow:visible;enable-background:accumulate"
       id="rect3881"
       width="85"
       height="24.999998"
       x="5"
       y="1022.3622"
       rx="5"
       ry="4.9999995" />
    <path
       style="fill:#f0f29a;fill-opacity:1;stroke:#000000;stroke-width:0.80000001;stroke-miterlimit:4;stroke-opacity:1;stroke-dasharray:none"
       d="m 10.076272,1029.0761 27.069218,13.2583 20.301916,-8.6621 27.552595,6.8943 -26.827528,-12.9047 -20.060225,8.4853 z"
       id="path3885"
       inkscape:connector-curvature="0"
       sodipodi:nodetypes="ccccccc" />
    <g
       id="g3823"
       transform="translate(2.20434,-19.71387)">
      <path
         inkscape:connector-curvature="0"
         id="path2999"
         d="m 102.70726,992.21818 0.0884,-14.14213"
         style="fill:none;stroke:#000000;stroke-width:2;stroke-linecap:butt;stroke-linejoin:miter;stroke-miterlimit:4;stroke-opacity:1;stroke-dasharray:none" />
      <path
         inkscape:connector-curvature="0"
         id="path3001"
         d="m 111.4577,978.16444 0,14.14213"
         style="fill:none;stroke:#000000;stroke-width:2;stroke-linecap:butt;stroke-linejoin:miter;stroke-miterlimit:4;stroke-opacity:1;stroke-dasharray:none" />
      <path
         inkscape:connector-curvature="0"
         id="path3003"
         d="m 111.36932,984.97034 -8.57367,0"
         style="fill:none;stroke:#000000;stroke-width:2;stroke-linecap:butt;stroke-linejoin:miter;stroke-miterlimit:4;stroke-opacity:1;stroke-dasharray:none" />
      <path
         sodipodi:nodetypes="ccssccc"
         inkscape:connector-curvature="0"
         id="path3005"
         d="m 117.29133,982.05352 -0.0884,6.71752 c 0,0 -0.0884,2.20971 2.03293,2.56326 2.12132,0.35355 2.91681,-0.53033 3.62392,-1.59099 0.29301,-0.43951 1.10101,-1.84958 1.10101,-1.84958 l -0.0404,-5.66343 0.0884,10.07627"
         style="fill:none;stroke:#000000;stroke-width:2;stroke-linecap:butt;stroke-linejoin:miter;stroke-miterlimit:4;stroke-opacity:1;stroke-dasharray:none" />
      <path
         sodipodi:nodetypes="ccssccc"
         inkscape:connector-curvature="0"
         id="path3005-1"
         d="m 136.07357,992.39496 0.0884,-6.71751 c 0,0 0.0884,-2.20971 -2.03293,-2.56327 -2.12132,-0.35355 -2.91681,0.53033 -3.62392,1.59099 -0.29301,0.43952 -1.10101,1.84958 -1.10101,1.84958 l 0.0404,5.66343 -0.0884,-10.07627"
         style="fill:none;stroke:#000000;stroke-width:2;stroke-linecap:butt;stroke-linejoin:miter;stroke-miterlimit:4;stroke-opacity:1;stroke-dasharray:none" />
      <path
         inkscape:connector-curvature="0"
         id="path3795"
         d="m 141.59813,993.27884 c 0,0 0.44194,2.2981 3.44714,2.2981 3.00521,0 3.35876,-2.12132 3.35876,-2.12132 l 0,-11.49048"
         style="fill:none;stroke:#000000;stroke-width:2;stroke-linecap:butt;stroke-linejoin:miter;stroke-miterlimit:4;stroke-opacity:1;stroke-dasharray:none" />
      <path
         transform="matrix(0.94444444,0,0,0.93333333,8.5785795,945.62699)"
         d="m 148.05047,44.331734 c 0,2.562815 -1.78077,4.640388 -3.97747,4.640388 -2.1967,0 -3.97748,-2.077573 -3.97748,-4.640388 0,-2.562816 1.78078,-4.640388 3.97748,-4.640388 2.1967,0 3.97747,2.077572 3.97747,4.640388 z"
         sodipodi:ry="4.640388"
         sodipodi:rx="3.9774756"
         sodipodi:cy="44.331734"
         sodipodi:cx="144.073"
         id="path3797"
         style="color:#000000;fill:none;stroke:#000000;stroke-width:2.13021493;stroke-linecap:round;stroke-linejoin:round;stroke-miterlimit:4;stroke-opacity:1;stroke-dasharray:none;stroke-dashoffset:0;marker:none;visibility:visible;display:inline;overflow:visible;enable-background:accumulate"
         sodipodi:type="arc" />
      <path
         sodipodi:nodetypes="cssscc"
         inkscape:connector-curvature="0"
         id="path3799"
         d="m 159.98291,989.47815 c 0,0 -0.7955,2.2097 -3.00521,2.12132 -2.20971,-0.0884 -3.8007,-1.23744 -3.71231,-4.15426 0.0884,-2.91681 1.23744,-4.68458 3.35876,-4.68458 3.71231,0 3.53553,4.24264 3.53553,4.24264 l -6.8059,0.0884"
         style="fill:none;stroke:#000000;stroke-width:2;stroke-linecap:butt;stroke-linejoin:miter;stroke-miterlimit:4;stroke-opacity:1;stroke-dasharray:none" />
      <path
         inkscape:connector-curvature="0"
         id="path3801"
         d="m 164.93265,982.05352 0.17678,10.34144 -0.0884,-6.36396 c 0,0 1.23744,-4.33103 4.50781,-2.74004"
         style="fill:none;stroke:#000000;stroke-width:2;stroke-linecap:butt;stroke-linejoin:miter;stroke-miterlimit:4;stroke-opacity:1;stroke-dasharray:none" />
      <path
         transform="matrix(1.16,0,0,1.1153846,-27.930717,939.35301)"
         d="m 174.56698,41.01717 c 0,0.634602 -0.49466,1.149048 -1.10485,1.149048 -0.6102,0 -1.10486,-0.514446 -1.10486,-1.149048 0,-0.634602 0.49466,-1.149048 1.10486,-1.149048 0.61019,0 1.10485,0.514446 1.10485,1.149048 z"
         sodipodi:ry="1.1490484"
         sodipodi:rx="1.1048543"
         sodipodi:cy="41.01717"
         sodipodi:cx="173.46213"
         id="path3803"
         style="color:#000000;fill:#000000;fill-opacity:1;stroke:none;stroke-width:1;marker:none;visibility:visible;display:inline;overflow:visible;enable-background:accumulate"
         sodipodi:type="arc" />
      <path
         d="m 174.56698,41.01717 c 0,0.634602 -0.49466,1.149048 -1.10485,1.149048 -0.6102,0 -1.10486,-0.514446 -1.10486,-1.149048 0,-0.634602 0.49466,-1.149048 1.10486,-1.149048 0.61019,0 1.10485,0.514446 1.10485,1.149048 z"
         sodipodi:ry="1.1490484"
         sodipodi:rx="1.1048543"
         sodipodi:cy="41.01717"
         sodipodi:cx="173.46213"
         id="path3803-7"
         style="color:#000000;fill:#000000;fill-opacity:1;stroke:none;stroke-width:1;marker:none;visibility:visible;display:inline;overflow:visible;enable-background:accumulate"
         sodipodi:type="arc"
         transform="matrix(1.12,0,0,1.0384615,-20.992231,947.28114)" />
    </g>
    <rect
       style="color:#000000;fill:#ffffff;fill-opacity:1;fill-rule:nonzero;stroke:#ffffff;stroke-width:1.99999976;stroke-linecap:round;stroke-linejoin:round;stroke-miterlimit:4;stroke-opacity:1;stroke-dasharray:none;stroke-dashoffset:0;marker:none;visibility:visible;display:inline;overflow:visible;enable-background:accumulate"
       id="rect3836"
       width="520"
       height="20"
       x="190"
       y="957.36218"
       rx="2.1094235e-015"
       ry="2.1094237e-015" />
    <path
       style="fill:#d4d4d4;fill-opacity:1;stroke:#000000;stroke-width:1px;stroke-linecap:butt;stroke-linejoin:miter;stroke-opacity:1"
       d="M 735.51973,967.61991 719.7866,957.8972 c 0,0 -2.65165,1.94454 -3.53553,0.17677 -0.88388,-1.76776 1.94454,-3.53553 1.94454,-3.53553 0,0 -1.41421,-3.18198 1.41422,-2.47488 2.82842,0.70711 1.76776,2.82843 1.76776,2.82843 l 17.67767,11.31371 16.26346,-10.6066 c 0,0 -1.23744,-4.24264 1.23744,-4.24264 2.47487,0 2.47487,3.35876 2.47487,3.35876 0,0 3.0052,-1.23744 3.0052,1.76776 0,3.00521 -4.41941,1.59099 -4.41941,1.59099 l -14.84925,10.07625 13.61181,7.2479 c 0,0 3.53553,-1.9446 4.24264,0.8839 0.70711,2.8284 -2.82843,2.298 -2.82843,2.298 0,0 2.2981,3.35878 -0.53033,3.35878 -2.82842,0 -2.29809,-3.53548 -2.29809,-3.53548 l -15.73313,-8.1318 -16.61701,9.1924 c 0,0 2.12132,3.53558 -0.53033,3.88908 -2.65165,0.3536 -2.65165,-3.0052 -2.65165,-3.0052 0,0 -3.35876,-0.53028 -1.76777,-3.18198 1.59099,-2.6516 3.18198,-0.3535 3.18198,-0.3535 z"
       id="path3840"
       inkscape:connector-curvature="0" />
    <g
       id="g3870"
       transform="matrix(0.79276348,0,0,0.85056168,153.50556,126.87088)">
      <path
         inkscape:connector-curvature="0"
         id="path3838"
         d="m 726.37542,997.73818 0,-10.78338 c 0,0 -6.01041,-1.94454 -6.01041,-9.36916 0,-7.42462 3.53554,-10.07627 17.32412,-10.42983 13.78858,-0.35355 17.50089,2.82843 17.85445,9.36917 0.35355,6.54074 -7.24785,10.42982 -7.24785,10.42982 l 0.17678,10.96016 z"
         style="fill:#c2c2c2;fill-opacity:1;stroke:#000000;stroke-width:1.21779810999999990px;stroke-linecap:butt;stroke-linejoin:miter;stroke-opacity:1" />
      <path
         transform="translate(0,942.36218)"
         inkscape:connector-curvature="0"
         id="path3842"
         d="m 730.79484,55.022449 0.88388,-5.656854"
         style="fill:none;stroke:#000000;stroke-width:1.21779811px;stroke-linecap:butt;stroke-linejoin:miter;stroke-opacity:1" />
      <path
         transform="translate(0,942.36218)"
         inkscape:connector-curvature="0"
         id="path3844"
         d="m 736.98202,55.376003 -1.06066,-4.949748"
         style="fill:none;stroke:#000000;stroke-width:1.21779811px;stroke-linecap:butt;stroke-linejoin:miter;stroke-opacity:1" />
      <path
         transform="translate(0,942.36218)"
         inkscape:connector-curvature="0"
         id="path3846"
         d="m 742.81565,55.552779 -0.35355,-5.3033"
         style="fill:none;stroke:#000000;stroke-width:1.21779811px;stroke-linecap:butt;stroke-linejoin:miter;stroke-opacity:1" />
      <path
         transform="translate(0,942.36218)"
         inkscape:connector-curvature="0"
         id="path3848"
         d="m 725.66832,35.046683 c 1.23743,-2.65165 7.24784,-4.596194 9.19238,-2.298097 1.94455,2.298097 -1.94454,7.954951 -5.3033,7.778175 -3.35875,-0.176777 -3.88908,-5.480078 -3.88908,-5.480078 z"
         style="fill:#000000;fill-opacity:1;stroke:none" />
      <path
         inkscape:connector-curvature="0"
         id="path3848-4"
         d="m 749.43988,977.38622 c -1.23743,-2.65165 -7.24784,-4.59619 -9.19238,-2.29809 -1.94455,2.29809 1.94454,7.95495 5.3033,7.77817 3.35875,-0.17677 3.88908,-5.48008 3.88908,-5.48008 z"
         style="fill:#000000;fill-opacity:1;stroke:none" />
      <path
         transform="translate(0,942.36218)"
         inkscape:connector-curvature="0"
         id="path3868"
         d="m 737.33558,41.410644 c -1.76777,0 -4.24264,2.828427 -2.65165,4.419417 1.59099,1.59099 4.24264,1.944544 5.3033,0.176777 1.06066,-1.767767 -2.65165,-4.596194 -2.65165,-4.596194 z"
         style="fill:#000000;fill-opacity:1;stroke:none" />
    </g>
    <g
       id="g4114">
      <path
         sodipodi:nodetypes="csssc"
         transform="translate(0,942.36218)"
         inkscape:connector-curvature="0"
         id="path3891"
         d="m 115.125,52.375 c 0,0 -0.125,-3.625 -4.375,-3.625 -4.25,0 -4,3.75 -4.125,6.25 -0.125,2.5 0.12599,6.173102 3.875,6.25 4.87558,0.100005 4.875,-3.625 4.875,-3.625"
         style="fill:none;stroke:#000000;stroke-width:2;stroke-linecap:butt;stroke-linejoin:miter;stroke-opacity:1;stroke-miterlimit:4;stroke-dasharray:none" />
      <path
         style="fill:none;stroke:#000000;stroke-width:2;stroke-linecap:butt;stroke-linejoin:miter;stroke-miterlimit:4;stroke-opacity:1;stroke-dasharray:none"
         d="m 126.18927,1004.4887 0.0884,-6.7175 c 0,0 0.0884,-2.2097 -2.03293,-2.5633 -2.12132,-0.3535 -2.91681,0.5304 -3.62392,1.591 -0.29301,0.4395 -1.10101,1.8496 -1.10101,1.8496 l 0.0404,5.6634 0.0366,-14.8262"
         id="path3005-1-9"
         inkscape:connector-curvature="0"
         sodipodi:nodetypes="ccssccc" />
      <path
         transform="translate(0,942.36218)"
         inkscape:connector-curvature="0"
         id="path3918"
         d="m 130.875,54.375 c 0,0 -0.625,-2.25 2.875,-2.25 3.5,0 2.875,2.25 2.875,2.25 l 0.125,5.375 0.375,2.125"
         style="fill:none;stroke:#000000;stroke-width:2;stroke-linecap:butt;stroke-linejoin:miter;stroke-opacity:1;stroke-miterlimit:4;stroke-dasharray:none" />
      <path
         transform="translate(0,942.36218)"
         inkscape:connector-curvature="0"
         id="path3920"
         d="m 136.75,56.5 c 0,0 -6.375,-1.375 -6.25,2.625 0.125,4 6.375,0.75 6.375,0.75"
         style="fill:none;stroke:#000000;stroke-width:2;stroke-linecap:butt;stroke-linejoin:miter;stroke-opacity:1;stroke-miterlimit:4;stroke-dasharray:none" />
      <path
         style="fill:none;stroke:#000000;stroke-width:2;stroke-linecap:butt;stroke-linejoin:miter;stroke-miterlimit:4;stroke-opacity:1;stroke-dasharray:none"
         d="m 141.57691,994.06646 0.17678,10.34144 -0.0884,-6.36396 c 0,0 1.23744,-4.33103 4.50781,-2.74004"
         id="path3801-8"
         inkscape:connector-curvature="0" />
      <path
         style="fill:none;stroke:#000000;stroke-width:2;stroke-linecap:butt;stroke-linejoin:miter;stroke-miterlimit:4;stroke-opacity:1;stroke-dasharray:none"
         d="m 148.95061,1005.37 c 0,0 0.44194,2.2981 3.44714,2.2981 3.00521,0 3.35876,-2.1213 3.35876,-2.1213 l 0,-11.49052"
         id="path3795-2"
         inkscape:connector-curvature="0" />
      <path
         sodipodi:type="arc"
         style="color:#000000;fill:none;stroke:#000000;stroke-width:2.13021493000000020;stroke-linecap:round;stroke-linejoin:round;stroke-miterlimit:4;stroke-opacity:1;stroke-dasharray:none;stroke-dashoffset:0;marker:none;visibility:visible;display:inline;overflow:visible;enable-background:accumulate"
         id="path3797-4"
         sodipodi:cx="144.073"
         sodipodi:cy="44.331734"
         sodipodi:rx="3.9774756"
         sodipodi:ry="4.640388"
         d="m 148.05047,44.331734 a 3.9774756,4.640388 0 1 1 -7.95495,0 3.9774756,4.640388 0 1 1 7.95495,0 z"
         transform="matrix(0.94444444,0,0,0.93333333,15.931055,957.71813)" />
      <path
         style="fill:none;stroke:#000000;stroke-width:2;stroke-linecap:butt;stroke-linejoin:miter;stroke-miterlimit:4;stroke-opacity:1;stroke-dasharray:none"
         d="m 166.89646,1001.659 c 0,0 -0.7955,2.2097 -3.00521,2.1213 -2.20971,-0.088 -3.8007,-1.2374 -3.71231,-4.15425 0.0884,-2.91681 1.23744,-4.68458 3.35876,-4.68458 3.71231,0 3.53553,4.24264 3.53553,4.24264 l -6.8059,0.0884"
         id="path3799-5"
         inkscape:connector-curvature="0"
         sodipodi:nodetypes="cssscc" />
      <path
         sodipodi:type="arc"
         style="color:#000000;fill:#000000;fill-opacity:1;stroke:none;stroke-width:1;marker:none;visibility:visible;display:inline;overflow:visible;enable-background:accumulate"
         id="path3803-5"
         sodipodi:cx="173.46213"
         sodipodi:cy="41.01717"
         sodipodi:rx="1.1048543"
         sodipodi:ry="1.1490484"
         d="m 174.56698,41.01717 a 1.1048543,1.1490484 0 1 1 -2.20971,0 1.1048543,1.1490484 0 1 1 2.20971,0 z"
         transform="matrix(1.16,0,0,1.1153846,-29.716068,951.39497)" />
      <path
         transform="matrix(1.12,0,0,1.0384615,-22.777578,959.3231)"
         sodipodi:type="arc"
         style="color:#000000;fill:#000000;fill-opacity:1;stroke:none;stroke-width:1;marker:none;visibility:visible;display:inline;overflow:visible;enable-background:accumulate"
         id="path3803-7-1"
         sodipodi:cx="173.46213"
         sodipodi:cy="41.01717"
         sodipodi:rx="1.1048543"
         sodipodi:ry="1.1490484"
         d="m 174.56698,41.01717 a 1.1048543,1.1490484 0 1 1 -2.20971,0 1.1048543,1.1490484 0 1 1 2.20971,0 z" />
    </g>
    <g
       id="g4097"
       transform="translate(-1.0606609,-3.5355339)">
      <path
         style="fill:none;stroke:#000000;stroke-width:2;stroke-linecap:butt;stroke-linejoin:miter;stroke-miterlimit:4;stroke-opacity:1;stroke-dasharray:none"
         d="m 210.27698,1005.5151 c 0,0 -0.7955,2.2097 -3.00521,2.1213 -2.20971,-0.088 -3.8007,-1.2374 -3.71231,-4.1543 0.0884,-2.9168 1.23744,-4.68451 3.35876,-4.68451 3.71231,0 3.53553,4.24261 3.53553,4.24261 l -6.8059,0.088"
         id="path3799-5-7"
         inkscape:connector-curvature="0"
         sodipodi:nodetypes="cssscc" />
      <path
         inkscape:connector-curvature="0"
         id="path3918-1"
         d="m 214.67552,1000.9468 c 0,0 -0.625,-2.24997 2.875,-2.24997 3.5,0 2.875,2.24997 2.875,2.24997 l 0.125,5.375 0.375,2.125"
         style="fill:none;stroke:#000000;stroke-width:2;stroke-linecap:butt;stroke-linejoin:miter;stroke-miterlimit:4;stroke-opacity:1;stroke-dasharray:none" />
      <path
         inkscape:connector-curvature="0"
         id="path3920-1"
         d="m 220.55052,1003.0718 c 0,0 -6.375,-1.375 -6.25,2.625 0.125,4 6.375,0.75 6.375,0.75"
         style="fill:none;stroke:#000000;stroke-width:2;stroke-linecap:butt;stroke-linejoin:miter;stroke-miterlimit:4;stroke-opacity:1;stroke-dasharray:none" />
      <path
         transform="translate(0,942.36218)"
         inkscape:connector-curvature="0"
         id="path4075"
         d="m 191.25,65.875 0,-13.25 4.375,0.125 c 0,0 3.5,0.125 3.375,3.25 -0.125,3.125 -2.875,3.5 -2.875,3.5 l -4.75,0.125"
         style="fill:none;stroke:#000000;stroke-width:2;stroke-linecap:butt;stroke-linejoin:miter;stroke-miterlimit:4;stroke-opacity:1;stroke-dasharray:none" />
      <path
         transform="translate(0,942.36218)"
         inkscape:connector-curvature="0"
         id="path4077"
         d="m 196.25,59.375 3.125,6.5"
         style="fill:none;stroke:#000000;stroke-width:2;stroke-linecap:butt;stroke-linejoin:miter;stroke-miterlimit:4;stroke-opacity:1;stroke-dasharray:none" />
      <path
         transform="translate(0,942.36218)"
         inkscape:connector-curvature="0"
         id="path4079"
         d="m 231.75,51.125 0.125,14.75"
         style="fill:none;stroke:#000000;stroke-width:2;stroke-linecap:butt;stroke-linejoin:miter;stroke-miterlimit:4;stroke-opacity:1;stroke-dasharray:none" />
      <path
         transform="translate(0,942.36218)"
         inkscape:connector-curvature="0"
         id="path4083"
         d="m 231.75,57.875 c 0,0 -6.5,-5.25 -6.5,2.75 0,8 6.75,2.375 6.75,2.375"
         style="fill:none;stroke:#000000;stroke-width:2;stroke-linecap:butt;stroke-linejoin:miter;stroke-miterlimit:4;stroke-opacity:1;stroke-dasharray:none" />
      <path
         transform="translate(0,942.36218)"
         inkscape:connector-curvature="0"
         id="path4085"
         d="m 242.75,55.625 -3.875,11.75 c 0,0 -0.375,2.25 -3.125,1.75"
         style="fill:none;stroke:#000000;stroke-width:2;stroke-linecap:butt;stroke-linejoin:miter;stroke-miterlimit:4;stroke-opacity:1;stroke-dasharray:none" />
      <path
         transform="translate(0,942.36218)"
         inkscape:connector-curvature="0"
         id="path4087"
         d="m 235.875,55.625 3.5,9.75"
         style="fill:none;stroke:#000000;stroke-width:2;stroke-linecap:butt;stroke-linejoin:miter;stroke-miterlimit:4;stroke-opacity:1;stroke-dasharray:none" />
    </g>
    <g
       id="g4218">
      <path
         inkscape:connector-curvature="0"
         id="path3801-8-6"
         d="m 229.52202,1015.7252 0.17678,10.3414 -0.0884,-6.3639 c 0,0 1.23744,-4.3311 4.50781,-2.7401"
         style="fill:none;stroke:#000000;stroke-width:2;stroke-linecap:butt;stroke-linejoin:miter;stroke-miterlimit:4;stroke-opacity:1;stroke-dasharray:none" />
      <path
         style="fill:none;stroke:#000000;stroke-width:2;stroke-linecap:butt;stroke-linejoin:miter;stroke-miterlimit:4;stroke-opacity:1;stroke-dasharray:none"
         d="m 243.79253,1023.0037 c 0,0 -0.7955,2.2097 -3.00521,2.1213 -2.20971,-0.088 -3.8007,-1.2374 -3.71231,-4.1543 0.0884,-2.9168 1.23744,-4.6845 3.35876,-4.6845 3.71231,0 3.53553,4.2426 3.53553,4.2426 l -6.8059,0.088"
         id="path3799-5-7-2"
         inkscape:connector-curvature="0"
         sodipodi:nodetypes="cssscc" />
      <path
         inkscape:connector-curvature="0"
         id="path3918-1-7"
         d="m 248.19107,1018.4354 c 0,0 -0.625,-2.25 2.875,-2.25 3.5,0 2.875,2.25 2.875,2.25 l 0.125,5.375 0.375,2.125"
         style="fill:none;stroke:#000000;stroke-width:2;stroke-linecap:butt;stroke-linejoin:miter;stroke-miterlimit:4;stroke-opacity:1;stroke-dasharray:none" />
      <path
         inkscape:connector-curvature="0"
         id="path3920-1-6"
         d="m 254.06607,1020.5604 c 0,0 -6.375,-1.375 -6.25,2.625 0.125,4 6.375,0.75 6.375,0.75"
         style="fill:none;stroke:#000000;stroke-width:2;stroke-linecap:butt;stroke-linejoin:miter;stroke-miterlimit:4;stroke-opacity:1;stroke-dasharray:none" />
      <path
         inkscape:connector-curvature="0"
         id="path4079-2"
         d="m 265.26555,1010.9758 0.125,14.75"
         style="fill:none;stroke:#000000;stroke-width:2;stroke-linecap:butt;stroke-linejoin:miter;stroke-miterlimit:4;stroke-opacity:1;stroke-dasharray:none" />
      <path
         inkscape:connector-curvature="0"
         id="path4083-3"
         d="m 265.26555,1017.7258 c 0,0 -6.5,-5.25 -6.5,2.75 0,8 6.75,2.375 6.75,2.375"
         style="fill:none;stroke:#000000;stroke-width:2;stroke-linecap:butt;stroke-linejoin:miter;stroke-miterlimit:4;stroke-opacity:1;stroke-dasharray:none" />
      <path
         inkscape:connector-curvature="0"
         id="path4085-2"
         d="m 276.26555,1015.4758 -3.875,11.75 c 0,0 -0.375,2.25 -3.125,1.75"
         style="fill:none;stroke:#000000;stroke-width:2;stroke-linecap:butt;stroke-linejoin:miter;stroke-miterlimit:4;stroke-opacity:1;stroke-dasharray:none" />
      <path
         inkscape:connector-curvature="0"
         id="path4087-2"
         d="m 269.39055,1015.4758 3.5,9.75"
         style="fill:none;stroke:#000000;stroke-width:2;stroke-linecap:butt;stroke-linejoin:miter;stroke-miterlimit:4;stroke-opacity:1;stroke-dasharray:none" />
      <path
         inkscape:connector-curvature="0"
         id="path4089-6"
         d="m 190.31402,1025.1235 0.125,-12.75 8.75,12.25 0,-12.625"
         style="fill:none;stroke:#000000;stroke-width:2;stroke-linecap:butt;stroke-linejoin:bevel;stroke-miterlimit:4;stroke-opacity:1;stroke-dasharray:none" />
      <path
         transform="translate(-2.4359834,934.74847)"
         d="m 214.25,85.3125 a 4.125,4.6875 0 1 1 -8.25,0 4.125,4.6875 0 1 1 8.25,0 z"
         sodipodi:ry="4.6875"
         sodipodi:rx="4.125"
         sodipodi:cy="85.3125"
         sodipodi:cx="210.125"
         id="path4091-8"
         style="color:#000000;fill:none;stroke:#000000;stroke-width:2;stroke-linecap:round;stroke-linejoin:bevel;stroke-miterlimit:4;stroke-opacity:1;stroke-dasharray:none;stroke-dashoffset:0;marker:none;visibility:visible;display:inline;overflow:visible;enable-background:accumulate"
         sodipodi:type="arc" />
      <path
         inkscape:connector-curvature="0"
         id="path4093-5"
         d="m 216.18902,1012.3735 -0.125,10.625 c 0,0 0.5,2.125 3.375,1.5"
         style="fill:none;stroke:#000000;stroke-width:2;stroke-linecap:butt;stroke-linejoin:miter;stroke-miterlimit:4;stroke-opacity:1;stroke-dasharray:none" />
      <path
         inkscape:connector-curvature="0"
         id="path4095-7"
         d="m 213.68902,1015.8735 5.375,0"
         style="fill:none;stroke:#000000;stroke-width:2;stroke-linecap:butt;stroke-linejoin:miter;stroke-miterlimit:4;stroke-opacity:1;stroke-dasharray:none" />
    </g>
  </g>
</svg>
