<?xml version="1.0" encoding="UTF-8" standalone="no"?>
<!-- Created with Inkscape (http://www.inkscape.org/) -->

<svg
   xmlns:dc="http://purl.org/dc/elements/1.1/"
   xmlns:cc="http://creativecommons.org/ns#"
   xmlns:rdf="http://www.w3.org/1999/02/22-rdf-syntax-ns#"
   xmlns:svg="http://www.w3.org/2000/svg"
   xmlns="http://www.w3.org/2000/svg"
   xmlns:sodipodi="http://sodipodi.sourceforge.net/DTD/sodipodi-0.dtd"
   xmlns:inkscape="http://www.inkscape.org/namespaces/inkscape"
   width="400"
   height="60"
   id="svg3855"
   version="1.1"
   inkscape:version="0.48.5 r10040"
   sodipodi:docname="title.svg">
  <defs
     id="defs3857" />
  <sodipodi:namedview
     id="base"
     pagecolor="#ffffff"
     bordercolor="#666666"
     borderopacity="1.0"
     inkscape:pageopacity="0.0"
     inkscape:pageshadow="2"
     inkscape:zoom="2"
     inkscape:cx="198.60965"
     inkscape:cy="25.5"
     inkscape:document-units="px"
     inkscape:current-layer="layer1"
     showgrid="true"
     inkscape:window-width="1083"
     inkscape:window-height="727"
     inkscape:window-x="172"
     inkscape:window-y="171"
     inkscape:window-maximized="0">
    <inkscape:grid
       type="xygrid"
       id="grid3867"
       empspacing="5"
       visible="true"
       enabled="false"
       snapvisiblegridlinesonly="true" />
    <inkscape:grid
       type="axonomgrid"
       id="grid3869"
       units="px"
       empspacing="5"
       visible="true"
       enabled="true"
       snapvisiblegridlinesonly="true"
       gridanglex="30"
       gridanglez="30"
       spacingy="5.9433px" />
  </sodipodi:namedview>
  <metadata
     id="metadata3860">
    <rdf:RDF>
      <cc:Work
         rdf:about="">
        <dc:format>image/svg+xml</dc:format>
        <dc:type
           rdf:resource="http://purl.org/dc/dcmitype/StillImage" />
        <dc:title />
      </cc:Work>
    </rdf:RDF>
  </metadata>
  <g
     inkscape:label="Layer 1"
     inkscape:groupmode="layer"
     id="layer1"
     transform="translate(0,-992.3622)">
    <path
       style="fill:#00ff00;fill-opacity:1;stroke:#000000;stroke-width:1px;stroke-linecap:butt;stroke-linejoin:miter;stroke-opacity:1"
       d="m 257.35244,1034.5323 -10.2941,-5.9433 0,-11.8866 10.2941,-5.9433 10.29409,5.9433 0,11.8866 z"
       id="path4443"
       inkscape:connector-curvature="0" />
    <path
       style="fill:#eeff33;fill-opacity:1;fill-rule:evenodd;stroke:#000000;stroke-width:2.5;stroke-linecap:butt;stroke-linejoin:bevel;stroke-miterlimit:4;stroke-opacity:1;stroke-dasharray:none"
       d="m 30.882293,12.4536 0,35.6598 5.147048,2.97165 5.147049,-2.97165 0,-11.8866 5.147049,-2.97165 5.147049,-2.97165 5.147049,2.97165 5.147048,2.97165 0,11.8866 5.147049,2.97165 5.147049,-2.97165 0,-35.6598 -5.147049,-2.97165 -5.147049,2.97165 0,11.8866 -5.147048,2.97165 -5.147049,2.97165 -4.824904,-2.785659 -5.469194,-3.157641 0,-11.8866 -5.147049,-2.97165 z"
       id="path3871"
       inkscape:connector-curvature="0"
       transform="translate(0,992.3622)"
       sodipodi:nodetypes="ccccccccccccccccccccccc" />
    <path
       style="fill:#eeff33;fill-opacity:1;fill-rule:evenodd;stroke:#000000;stroke-width:2.50000000000000000;stroke-linecap:butt;stroke-linejoin:bevel;stroke-opacity:1;stroke-miterlimit:4;stroke-dasharray:none"
       d="M 118.38212,15.42525 102.94098,6.5103 82.352781,18.3969 l 0,23.7732 20.588199,11.8866 15.44114,-8.91495 0,-5.9433 -5.14705,-2.97165 -10.29409,5.9433 -10.294102,-5.9433 5.147049,-2.97165 5.147053,-2.97165 -5.147053,-2.97165 -5.147049,-2.97165 10.294102,-5.9433 10.29409,5.9433 5.14705,-2.97165 z"
       id="path3873"
       inkscape:connector-curvature="0"
       transform="translate(0,992.3622)"
       sodipodi:nodetypes="cccccccccccccccccc" />
    <path
       style="fill:#eeff33;fill-opacity:1;fill-rule:evenodd;stroke:#000000;stroke-width:2.50000000000000000;stroke-linecap:butt;stroke-linejoin:bevel;stroke-opacity:1;stroke-miterlimit:4;stroke-dasharray:none"
       d="m 133.82328,1010.7591 0,-5.9433 5.14704,-2.9716 15.44115,8.9149 15.44115,-8.9149 5.14705,2.9716 0,5.9433 -15.44115,8.915 0,5.9433 15.44115,8.9149 0,5.9433 -5.14705,2.9717 -15.44115,-8.915 -15.44115,8.915 -5.14704,-2.9717 0,-5.9433 15.44114,-8.9149 0,-5.9433 z"
       id="path3877"
       inkscape:connector-curvature="0"
       sodipodi:nodetypes="ccccccccccccccccccc" />
    <path
       style="fill:#eeff33;fill-opacity:1;fill-rule:evenodd;stroke:#000000;stroke-width:2.5;stroke-linecap:butt;stroke-linejoin:bevel;stroke-miterlimit:4;stroke-opacity:1;stroke-dasharray:none"
       d="m 185.29376,48.1134 0,-35.6598 10.29409,-5.9433 10.2941,5.9433 10.2941,-5.9433 5.14705,2.97165 0,5.9433 -5.14705,2.97165 -5.14705,-2.97165 -5.14705,-2.97165 -10.2941,5.9433 0,5.9433 10.2941,5.9433 10.2941,-5.9433 5.14705,2.97165 0,5.9433 -5.14705,2.97165 -5.14705,-2.97165 -5.14705,-2.97165 -10.2941,5.9433 0,11.8866 -5.14705,2.97165 z"
       id="path3879"
       inkscape:connector-curvature="0"
       transform="translate(0,992.3622)"
       sodipodi:nodetypes="ccccccccccccccccccccccc" />
    <path
       style="fill:#eeff33;fill-opacity:1;fill-rule:evenodd;stroke:#000000;stroke-width:2.5;stroke-linecap:butt;stroke-linejoin:bevel;stroke-miterlimit:4;stroke-opacity:1;stroke-dasharray:none"
       d="m 303.67588,1001.8442 -5.14705,-2.9717 -5.14705,2.9717 0,35.6598 15.44115,8.9149 15.44114,-8.9149 0,-5.9433 -5.14705,-2.9717 -10.29409,5.9433 -5.14705,-2.9717 z"
       id="path3881"
       inkscape:connector-curvature="0"
       sodipodi:nodetypes="ccccccccccc" />
    <path
       style="fill:#eeff33;fill-opacity:1;fill-rule:evenodd;stroke:#000000;stroke-width:2.5;stroke-linecap:butt;stroke-linejoin:bevel;stroke-miterlimit:4;stroke-opacity:1;stroke-dasharray:none"
       d="m 236.76424,1010.7591 20.5882,-11.8866 20.58819,11.8866 0,23.7732 -20.58819,11.8866 -20.5882,-11.8866 z m 10.2941,5.9433 10.2941,-5.9433 10.29409,5.9433 0,11.8866 -10.29409,5.9433 -10.2941,-5.9433 z"
       id="path3883"
       inkscape:connector-curvature="0"
       sodipodi:nodetypes="cccccccccccccc" />
    <path
       style="fill:#eeff33;fill-opacity:1;fill-rule:evenodd;stroke:#000000;stroke-width:2.5;stroke-linecap:butt;stroke-linejoin:bevel;stroke-miterlimit:4;stroke-opacity:1;stroke-dasharray:none"
       d="m 339.70522,1004.8158 10.2941,-5.94335 20.58819,11.88655 0,23.7732 -20.58819,11.8867 -10.2941,-5.9433 z m 10.2941,5.9432 10.29409,5.9434 0,11.8866 -10.29409,5.9433 z"
       id="path3883-1"
       inkscape:connector-curvature="0"
       sodipodi:nodetypes="cccccccccccc" />
  </g>
</svg>
