<?xml version="1.0" encoding="UTF-8" standalone="no"?>
<svg xmlns:dc="http://purl.org/dc/elements/1.1/" xmlns:rdf="http://www.w3.org/1999/02/22-rdf-syntax-ns#" xmlns="http://www.w3.org/2000/svg" xml:space="preserve" viewBox="0 0 767 315" version="1.1" y="0px" x="0px" xmlns:cc="http://creativecommons.org/ns#" enable-background="new 0 0 612 792"><metadata><rdf:RDF><cc:Work rdf:about=""><dc:format>image/svg+xml</dc:format><dc:type rdf:resource="http://purl.org/dc/dcmitype/StillImage"/></cc:Work></rdf:RDF></metadata>
<path clip-rule="evenodd" d="m333.61 178.61c10.627 4.1336 21.254 8.5644 31.588 13.581-33.065 13.288-65.242 29.228-95.65 47.533-10.334-5.3134-20.961-10.627-31.588-15.35 30.701-17.714 62.586-33.065 95.651-45.763z" fill-rule="evenodd" fill="#0067b1"/><path clip-rule="evenodd" d="m294.04 164.73c-34.249 10.928-67.314 25.095-98.902 42.219 10.037 3.8365 20.074 7.6774 29.818 11.811 30.408-18.012 62.586-33.065 95.948-44.871-8.8572-3.251-17.71-6.4976-26.864-9.1588z" fill-rule="evenodd" fill="#0067b1"/><path clip-rule="evenodd" d="m542.91 229.68c0.59432 1.7697 2.0668 2.3596 3.5438 2.3596 0.88261 0 1.7697 0 2.3596-0.58989 0.29272-0.29716 0.59432-0.88704 0.59432-1.4769 0-1.1842-0.88705-1.7697-2.0713-1.7697l-2.0624-0.59432c-0.59432-0.29272-1.4814-0.29272-2.0713-0.88261-0.58989-0.58989-0.88261-1.4769-0.88261-2.3596 0-2.3596 2.0668-3.2466 4.1336-3.2466 1.7697 0 3.5438 0.88705 4.1336 2.9494l-1.4769 0.29716c0-1.1842-1.4725-2.0668-2.9494-2.0668-0.88261 0-2.364 0.58989-2.364 1.7652 0 1.4769 0.88704 1.7697 2.0712 2.0713l1.7697 0.29273c0.88261 0.29272 1.7697 0.58988 2.3596 0.88261 0.58989 0.88705 0.88261 1.4769 0.88261 2.6612 0 0.88261-0.29272 2.0668-1.1798 2.6567-0.88705 0.59432-2.0668 0.88705-3.2466 0.88705-2.3596 0-3.8365-1.1842-4.7191-3.5438l1.1753-0.29273z" fill-rule="evenodd" fill="#ee2a24"/><polygon clip-rule="evenodd" fill-rule="evenodd" fill="#ee2a24" transform="matrix(4.4352 0 0 4.4352 -977.18 -1618.9)" points="345.33 415.26 345.33 415.26 345.33 417.59 345.33 417.59 345.06 417.59 345.06 414.93 345.53 414.93 346.39 417.06 347.12 414.93 347.66 414.93 347.66 417.59 347.32 417.59 347.32 415.26 347.32 415.26 346.46 417.59 346.19 417.59"/><path clip-rule="evenodd" d="m405.34 177.13c-27.161-12.991-55.206-23.915-83.839-32.772-10.334 2.9539-20.371 6.2005-30.115 9.4515 29.521 8.8528 58.452 20.074 86.203 33.357 9.1544-3.5438 18.304-6.7859 27.751-10.037z" fill-rule="evenodd" fill="#ee2a24"/><path clip-rule="evenodd" d="m449.33 164.14c-27.454-12.104-56.088-22.141-85.316-30.111-9.4471 1.7697-18.601 3.8365-27.751 6.196 28.931 8.5645 57.272 19.187 84.434 32.182 9.4471-2.9539 19.187-5.9078 28.634-8.2673z" fill-rule="evenodd" fill="#ee2a24"/><path clip-rule="evenodd" d="m520.18 187.76c-69.381 23.325-134.33 56.682-193.08 98.307 14.76 9.1499 28.931 18.597 42.805 28.931 55.503-43.989 117.21-80.597 183.34-108.35-10.92-6.7904-21.844-12.986-33.065-18.89z" fill-rule="evenodd" fill="#ee2a24"/><path clip-rule="evenodd" d="m472.35 165.32c-72.028 18.894-139.63 49.599-200.75 90.337 13.581 6.7859 27.161 13.873 40.445 21.546 59.933-41.328 126.36-73.807 197.21-95.061-12.104-5.8989-24.203-11.802-36.906-16.823z" fill-rule="evenodd" fill="#ee2a24"/><path clip-rule="evenodd" d="m750.75 77.643c0-4.4308 3.5438-7.9701 8.2673-7.9701 4.4264 0 7.9701 3.5438 7.9701 7.9701 0 4.4264-3.5438 7.9701-7.9701 7.9701-4.7235 0-8.2673-3.5438-8.2673-7.9701zm1.4769 0c0 3.5438 2.9539 6.2005 6.7904 6.2005 3.5393 0 6.4932-2.6567 6.4932-6.2005 0-3.5393-2.9539-6.4976-6.4932-6.4976-3.8365 0-6.7904 2.9539-6.7904 6.4976z" fill-rule="evenodd" fill="#0067b1"/><path clip-rule="evenodd" d="m762.86 82.07h-1.4769l-2.6567-4.1336h-1.4769v4.1336h-1.4769v-8.8572h4.1336c0.58989 0 1.4769 0 2.0668 0.29716 0.88705 0.58989 1.1842 1.1798 1.1842 2.0668 0 1.7697-1.4769 2.3596-2.9539 2.3596l2.6567 4.1336zm-4.1292-5.3134c1.1798 0 2.9494 0.29273 2.9494-1.1798 0-1.1842-0.88705-1.4769-2.0668-1.4769h-2.3596v2.6567h1.4769z" fill-rule="evenodd" fill="#0067b1"/>
</svg>
