<?xml version="1.0" encoding="UTF-8" standalone="no"?>
<svg y="0px" x="0px" version="1.1" enable-background="new 0 0 612 792" xml:space="preserve" xmlns="http://www.w3.org/2000/svg" viewBox="0 0 767 315">
<path fill="#0067b1" clip-rule="evenodd" d="m333.61 178.61c10.627 4.1336 21.254 8.5644 31.588 13.581-33.065 13.288-65.242 29.228-95.65 47.533-10.334-5.3134-20.961-10.627-31.588-15.35 30.701-17.714 62.586-33.065 95.651-45.763z" fill-rule="evenodd"/><path fill="#0067b1" clip-rule="evenodd" d="m294.04 164.73c-34.249 10.928-67.314 25.095-98.902 42.219 10.037 3.8365 20.074 7.6774 29.818 11.811 30.408-18.012 62.586-33.065 95.948-44.871-8.8572-3.251-17.71-6.4976-26.864-9.1588z" fill-rule="evenodd"/><path fill="#ee2a24" clip-rule="evenodd" d="m542.91 229.68c0.59432 1.7697 2.0668 2.3596 3.5438 2.3596 0.88261 0 1.7697 0 2.3596-0.58989 0.29272-0.29716 0.59432-0.88704 0.59432-1.4769 0-1.1842-0.88705-1.7697-2.0713-1.7697l-2.0624-0.59432c-0.59432-0.29272-1.4814-0.29272-2.0713-0.88261-0.58989-0.58989-0.88261-1.4769-0.88261-2.3596 0-2.3596 2.0668-3.2466 4.1336-3.2466 1.7697 0 3.5438 0.88705 4.1336 2.9494l-1.4769 0.29716c0-1.1842-1.4725-2.0668-2.9494-2.0668-0.88261 0-2.364 0.58989-2.364 1.7652 0 1.4769 0.88704 1.7697 2.0712 2.0713l1.7697 0.29273c0.88261 0.29272 1.7697 0.58988 2.3596 0.88261 0.58989 0.88705 0.88261 1.4769 0.88261 2.6612 0 0.88261-0.29272 2.0668-1.1798 2.6567-0.88705 0.59432-2.0668 0.88705-3.2466 0.88705-2.3596 0-3.8365-1.1842-4.7191-3.5438l1.1753-0.29273z" fill-rule="evenodd"/><polygon fill="#ee2a24" points="345.33 415.26 345.33 415.26 345.33 417.59 345.33 417.59 345.06 417.59 345.06 414.93 345.53 414.93 346.39 417.06 347.12 414.93 347.66 414.93 347.66 417.59 347.32 417.59 347.32 415.26 347.32 415.26 346.46 417.59 346.19 417.59" clip-rule="evenodd" fill-rule="evenodd" transform="matrix(4.4352 0 0 4.4352 -977.18 -1618.9)"/><path fill="#ee2a24" clip-rule="evenodd" d="m405.34 177.13c-27.161-12.991-55.206-23.915-83.839-32.772-10.334 2.9539-20.371 6.2005-30.115 9.4515 29.521 8.8528 58.452 20.074 86.203 33.357 9.1544-3.5438 18.304-6.7859 27.751-10.037z" fill-rule="evenodd"/><path fill="#ee2a24" clip-rule="evenodd" d="m449.33 164.14c-27.454-12.104-56.088-22.141-85.316-30.111-9.4471 1.7697-18.601 3.8365-27.751 6.196 28.931 8.5645 57.272 19.187 84.434 32.182 9.4471-2.9539 19.187-5.9078 28.634-8.2673z" fill-rule="evenodd"/><path fill="#ee2a24" clip-rule="evenodd" d="m520.18 187.76c-69.381 23.325-134.33 56.682-193.08 98.307 14.76 9.1499 28.931 18.597 42.805 28.931 55.503-43.989 117.21-80.597 183.34-108.35-10.92-6.7904-21.844-12.986-33.065-18.89z" fill-rule="evenodd"/><path fill="#ee2a24" clip-rule="evenodd" d="m472.35 165.32c-72.028 18.894-139.63 49.599-200.75 90.337 13.581 6.7859 27.161 13.873 40.445 21.546 59.933-41.328 126.36-73.807 197.21-95.061-12.104-5.8989-24.203-11.802-36.906-16.823z" fill-rule="evenodd"/><path fill="#0067b1" clip-rule="evenodd" d="m274.26 24.5c17.417 0 26.274 12.991 26.274 30.408 0 18.012-8.5645 30.705-26.274 30.705-18.012 0-26.274-12.694-26.274-30.705 0-17.417 8.8572-30.408 26.274-30.408zm0 49.307c4.7235 0 6.7904-4.1381 6.7904-18.899 0-13.581-1.4769-18.597-6.7904-18.597-5.3134 0-6.7904 5.0163-6.7904 18.597 0 14.76 2.0668 18.899 6.7904 18.899z" fill-rule="evenodd"/><path fill="#0067b1" clip-rule="evenodd" d="m312.64 39.261h-7.6774v-12.991h7.6774v-6.4932c0-14.463 7.0875-19.777 19.484-19.777 3.5438 0 6.4932 0.58989 9.4471 0.88261v14.467c-0.88705-0.29716-2.364-0.58989-3.5393-0.58989-5.0207 0-6.7904 2.0668-6.7904 5.6062v5.9077h10.334v12.991h-10.32v45.169h-18.6v-45.173h-0.004z" fill-rule="evenodd"/><path fill="#0067b1" clip-rule="evenodd" d="m93.291 42.512c0-3.5438-1.4769-5.9033-4.7235-5.9033-4.7235 0-6.196 4.1336-6.196 7.673l-16.534-3.544c2.067-11.221 12.693-15.941 23.32-15.941 11.217 0 23.028 4.7191 23.028 17.714v32.475c0 6.4932 0.88705 8.56 1.7697 9.4471h-19.479c-0.29273-1.7697-0.58989-4.4264-0.58989-5.3134-3.2466 3.2466-8.8572 6.4932-14.171 6.4932-9.4471 0-16.535-6.4932-16.237-17.124 0.293-15.058 17.417-19.777 29.814-21.254v-4.723h0.0044zm0 13.873c-6.4932 0.58989-11.514 3.2466-11.514 10.627 0 4.1292 2.0668 6.196 5.6106 6.196 2.0668 0 4.4308-1.4769 5.9033-3.5438v-13.279z" fill-rule="evenodd"/><path fill="#0067b1" clip-rule="evenodd" d="m142 42.805v41.624h-18.89v-58.159h18.304l0.29272 5.9077c4.1336-4.1336 9.1499-7.3802 16.535-7.3802 8.2673 0 12.991 5.6106 12.991 13.581v46.05h-18.89v-40.148c0-3.2466-1.1842-5.0207-4.4308-5.0207-2.0624 0-4.1336 1.1842-5.9033 3.5438z" fill-rule="evenodd"/><polygon fill="#0067b1" points="261.52 365.41 261.52 365.41 265.78 365.41 265.78 374.86 265.85 374.86 268.98 370.93 273.17 370.93 269.64 374.93 273.17 384.04 268.78 384.04 266.72 378.32 266.65 378.32 265.78 379.32 265.78 384.04 261.52 384.04" clip-rule="evenodd" fill-rule="evenodd" transform="matrix(4.4352 0 0 4.4352 -977.18 -1618.9)"/><path fill="#0067b1" clip-rule="evenodd" d="m43.399 41.328c8.8572 2.9539 15.35 10.334 15.35 20.965 0 14.171-11.217 22.141-27.161 22.141h-31.588v-82.66h32.475c14.76 0 24.208 8.8572 24.208 20.074 0 10.92-7.3802 16.535-13.284 18.894v0.58545zm-23.321 27.751h7.673c4.7235 0 10.627-2.0668 10.627-10.334 0-6.2005-3.8365-10.334-10.627-10.334h-7.673v20.668zm0-34.542h7.0831c7.3802 0 10.334-4.1336 10.334-8.8572 0-7.9701-5.3134-9.1499-10.037-9.1499h-7.3802v18.007z" fill-rule="evenodd"/><path fill="#0067b1" clip-rule="evenodd" d="m722.71 42.512c0-3.5438-1.7697-5.9033-5.0207-5.9033-4.4264 0-5.9033 4.1336-6.196 7.673l-16.237-3.5438c2.0668-11.221 12.694-15.94 23.325-15.94 11.217 0 23.023 4.7191 23.023 17.714v32.475c0 6.4932 0.88705 8.56 1.4769 9.4471h-19.187c-0.29716-1.7697-0.59432-4.4264-0.59432-5.3134-3.2466 3.2466-8.8572 6.4932-14.468 6.4932-9.1499 0-16.53-6.4932-16.237-17.124 0.59432-15.058 17.714-19.777 30.115-21.254v-4.724zm0 13.873c-6.4976 0.58989-11.514 3.2466-11.514 10.627 0 4.1292 2.0668 6.196 5.3134 6.196 2.3596 0 4.4264-1.4769 6.196-3.5438v-13.279h0.004z" fill-rule="evenodd"/><path fill="#0067b1" clip-rule="evenodd" d="m529.34 59.339c-0.29716 5.0207 1.1798 13.873 8.8572 13.873 4.4264 0 8.2629-3.5438 9.1499-7.9701l12.698 4.4264c-0.88705 2.6611-6.4976 15.945-23.325 15.945-18.012 0-26.279-14.468-26.279-30.705 0-16.53 8.8616-30.408 25.982-30.408 18.007 0 24.5 15.648 24.5 30.998v3.8365h-31.583v0.0044zm14.17-11.221c0-5.3134-0.59432-11.811-7.0875-11.811-5.3134 0-7.3847 6.4932-7.0875 11.811h14.175z" fill-rule="evenodd"/><polygon fill="#0067b1" points="358.17 370.93 358.17 370.93 362.43 370.93 362.43 384.04 358.17 384.04" clip-rule="evenodd" fill-rule="evenodd" transform="matrix(4.4352 0 0 4.4352 -977.18 -1618.9)"/><polygon fill="#0067b1" points="358.17 365.41 358.17 365.41 362.43 365.41 362.43 369.2 358.17 369.2" clip-rule="evenodd" fill-rule="evenodd" transform="matrix(4.4352 0 0 4.4352 -977.18 -1618.9)"/><path fill="#0067b1" clip-rule="evenodd" d="m671.93 47.825c0-2.3596 0-5.3134-0.88261-7.3802-0.88705-2.364-2.3596-4.1336-5.3134-4.1336-6.196 0-7.0875 7.6774-7.0875 19.488 0 12.991 2.0668 17.417 7.0875 17.417 6.4932 0 7.0875-6.7904 7.0875-11.217l14.76 2.0668c-1.4769 14.171-9.7442 21.551-23.325 21.551-16.827 0-25.685-14.76-25.685-29.228 0-15.94 8.8572-31.885 26.572-31.885 19.781 0 23.023 17.422 23.023 23.321h-16.237z" fill-rule="evenodd"/><path fill="#0067b1" clip-rule="evenodd" d="m374.34 1.7696h27.454l17.43 82.659h-20.074l-3.2466-16.823h-19.191l-3.8365 16.823h-18.007l19.48-82.66zm5.0163 51.369h13.58l-5.9033-33.655h-0.59432l-7.0875 33.655z" fill-rule="evenodd"/><path fill="#0067b1" clip-rule="evenodd" d="m568.6 26.274h18.304v7.6774h0.29273c3.8365-6.2005 10.924-9.1499 18.304-9.1499v18.894c-2.3596-0.88705-4.4264-1.4769-7.673-1.4769-5.0207 0-8.2673 1.7697-10.334 4.4264v37.79h-18.88v-58.16z" fill-rule="evenodd"/><path fill="#0067b1" clip-rule="evenodd" d="m473.24 42.805v41.624h-18.6v-39.855c0-3.2466-0.88261-5.3134-4.4264-5.3134-1.7697 0-4.7235 1.4769-6.2005 3.5438v41.625h-18.59v-58.159h18.304l0.29272 5.9077c4.1381-3.8365 10.041-7.3802 16.832-7.3802 5.9033 0 9.7398 3.2466 11.509 7.673h0.29716c3.2466-3.5438 8.8572-7.673 16.535-7.673 7.9701 0 13.284 5.0163 13.284 13.284v46.347h-18.59v-39.855c0-3.2466-0.88704-5.3134-4.4264-5.3134-2.3684 0-5.0251 2.0668-6.2093 3.5438z" fill-rule="evenodd"/><path fill="#0067b1" clip-rule="evenodd" d="m750.75 77.643c0-4.4308 3.5438-7.9701 8.2673-7.9701 4.4264 0 7.9701 3.5438 7.9701 7.9701 0 4.4264-3.5438 7.9701-7.9701 7.9701-4.7235 0-8.2673-3.5438-8.2673-7.9701zm1.4769 0c0 3.5438 2.9539 6.2005 6.7904 6.2005 3.5393 0 6.4932-2.6567 6.4932-6.2005 0-3.5393-2.9539-6.4976-6.4932-6.4976-3.8365 0-6.7904 2.9539-6.7904 6.4976z" fill-rule="evenodd"/><path fill="#0067b1" clip-rule="evenodd" d="m762.86 82.07h-1.4769l-2.6567-4.1336h-1.4769v4.1336h-1.4769v-8.8572h4.1336c0.58989 0 1.4769 0 2.0668 0.29716 0.88705 0.58989 1.1842 1.1798 1.1842 2.0668 0 1.7697-1.4769 2.3596-2.9539 2.3596l2.6567 4.1336zm-4.1292-5.3134c1.1798 0 2.9494 0.29273 2.9494-1.1798 0-1.1842-0.88705-1.4769-2.0668-1.4769h-2.3596v2.6567h1.4769z" fill-rule="evenodd"/>
</svg>
