<?xml version="1.0" encoding="UTF-8" standalone="no"?>
<!DOCTYPE svg  PUBLIC '-//W3C//DTD SVG 1.1//EN'  'http://www.w3.org/Graphics/SVG/1.1/DTD/svg11.dtd'>
<svg height="218px" xml:space="preserve" x="0px" y="0px" enable-background="new 553.5 53 226.5 218" version="1.1" xmlns="http://www.w3.org/2000/svg" viewBox="553.5 53 226.5 218" width="226.5px">
	<g fill="#0CA655">
		<path d="m775.76 158.01c0.28 13.72-1.399 28.1-8.649 40.05-4.98 8.32-13.431 14.48-22.95 16.46-8.641 1.82-18.561 1.86-25.84-3.86-0.13 13.899-8.92 25.859-18.771 34.87-9.27 8.229-19.85 15.319-31.569 19.479-5.881-1.16-11.11-4.52-16.341-7.35 12.431-16.88 25.23-33.47 37.9-50.17 5.29-6.71 10.01-13.9 16.04-20 3.36-3.57 7.62-6.7 12.66-7.14 6.24-0.4 12.51 0.14 18.76-0.23 2.3-0.05 4.67-1.19 5.68-3.35 1.57-3.09-0.25-6.45 0.11-9.68 0.89-1.58 2.92-1.92 4.24-3.07 0.58-2.8-2.48-3.92-4.58-4.51 2.99-1.31 6.33-2.42 8.26-5.27-1.05-1.62-3.58-3.96-1.49-5.81 2.351-1.92 6.45-2.83 6.38-6.56-3.68-4.5-8.779-8.3-10.02-14.34-1.01-6.04 0.54-12.17-0.271-18.24 7.841 1.73 15.141 6.08 19.94 12.58 7.77 10.29 10.06 23.54 10.51 36.14z"/>
		<path d="m734.82 133.05c1.029 4.4-4.49 5.47-6.86 7.94-0.34 1.9 1.19 3.16 2.25 4.49-1.27 3.34-4.92 4.36-7.89 5.66 1.59 0.45 3.68 0.85 4.06 2.82 1.45 3.41-4.729 2.89-4.29 6.04 0.69 3.81 1.58 9.23-2.75 11.24-7.85 2.45-16.229-0.43-24.2 1.41-7.069 1.34-11.5 7.61-15.859 12.75-14.95 19.67-29.931 39.32-44.851 59.01-5.83-5.19-10.479-11.63-13.96-18.601 12.221-16.839 25.07-33.229 37.71-49.76 4.15-5.07 8.83-10.74 15.69-11.88 7.59-1.67 15.36 0.41 22.97-0.93 2.29-0.28 4.141-2.14 4.73-4.33 0.72-2.57-0.351-5.18-0.33-7.78-0.01-2.78 4.979-2.12 4.39-5.19-0.78-1.91-2.93-2.41-4.53-3.36 2.87-1.01 6.11-2 7.931-4.64-0.391-1.77-2.12-3.07-2.07-4.93 1.59-2.82 5.63-3.15 7-6.18 0.72-2.27-1.51-3.59-2.83-4.98-4.43-3.94-7.689-9.45-7.8-15.49-7.811 0.1-15.79-3.72-19.7-10.66-0.86 14.47-10.649 25.87-19.06 36.83-21.09 27.77-42.62 55.22-63.73 82.97-11.3 0.27-22.81-4.54-29.77-13.58-8.58-10.97-11.25-25.34-11.34-38.96-0.261-13.45 1.52-27.64 9.039-39.13 5.141-7.99 13.82-13.49 23.211-14.83 7.14-0.99 14.93-1.09 21.31 2.75-2.08-11.17-0.6-23.66 6.62-32.79 6.67-8.54 17-13.34 27.41-15.5 12.979-2.65 26.479-2.48 39.489-0.14 12.301 2.32 24.811 8.22 31.521 19.27 6.21 9.57 6.56 21.38 6.22 32.41-0.4 7.62 5.87 12.75 10.27 18.05z"/>
	</g>
</svg>
