<?xml version="1.0" encoding="UTF-8" standalone="no"?>
<svg version="1.0" xmlns:dc="http://purl.org/dc/elements/1.1/" xmlns:rdf="http://www.w3.org/1999/02/22-rdf-syntax-ns#" xmlns:cc="http://creativecommons.org/ns#" viewBox="0 0 755.64 927.96" xmlns="http://www.w3.org/2000/svg">
<metadata>
<rdf:RDF>
<cc:Work rdf:about="">
<dc:format>image/svg+xml</dc:format>
<dc:type rdf:resource="http://purl.org/dc/dcmitype/StillImage"/>
</cc:Work>
</rdf:RDF>
</metadata>
<path d="m562.47 0.0005438c-46.67 1.8736-103.17 31.097-136.68 70.341-30 34.688-56.32 90.268-49.18 143.55 52.05 4.04 105.21-26.49 137.61-65.68 32.4-39.24 54.28-93.82 48.25-148.21zm-17.76 223.65c-65.928 0.88924-127.02 43.251-160.77 43.251-36.612 0-93.222-41.455-153.11-40.285-78.839 1.1697-151.41 45.791-192 116.32-81.822 141.94-20.879 352.31 58.779 467.53 39.01 56.322 85.454 119.76 146.51 117.42 58.837-2.3394 81.043-37.986 152.04-37.986 71.002 0 91.007 37.998 153.18 36.887 63.223-1.2282 103.36-57.561 142.08-114.06 44.683-65.387 63.157-128.65 64.21-131.99-1.4037-0.58485-123.3-47.307-124.59-187.73-1.0527-117.44 95.91-173.82 100.3-176.57-54.567-79.833-139.48-90.78-169.77-92.067-5.643-0.57115-11.273-0.80843-16.861-0.73306z" fill="#fff"/>
</svg>
