<?xml version="1.0" encoding="UTF-8" standalone="no"?>
<!DOCTYPE svg  PUBLIC '-//W3C//DTD SVG 1.1//EN'  'http://www.w3.org/Graphics/SVG/1.1/DTD/svg11.dtd'>
<svg viewBox="0 0 300 180" y="0px" x="0px" version="1.1" xml:space="preserve" xmlns="http://www.w3.org/2000/svg" style="enable-background:new 0 0 300 180">
		<path fill="#f90" d="m298.03 90.5c0.014 48.936-39.646 88.614-88.582 88.627-48.937 0.012-88.614-39.646-88.627-88.582v-0.045c-0.013-48.935 39.647-88.615 88.581-88.628 48.937-0.013 88.615 39.647 88.628 88.583v0.042z"/>
		<path fill="#c00" d="m90.001 1.895c-48.646 0.309-88.034 39.886-88.034 88.605 0 48.909 39.695 88.604 88.605 88.604 22.955 0 43.879-8.748 59.624-23.086-0.001 0-0.003-0.002-0.007-0.004h0.019c3.224-2.938 6.231-6.108 8.995-9.488h-18.15c-2.424-2.928-4.627-5.979-6.606-9.127h31.308c1.904-3.047 3.628-6.211 5.158-9.488h-41.635c-1.419-3.042-2.651-6.153-3.703-9.309h49.045c2.956-8.832 4.56-18.281 4.56-28.103 0-6.512-0.706-12.861-2.042-18.974h-54.164c0.671-3.146 1.518-6.254 2.528-9.308h49.063c-1.097-3.25-2.371-6.417-3.82-9.487h-41.48c1.496-3.196 3.191-6.305 5.084-9.307h31.285c-2.082-3.317-4.386-6.486-6.877-9.488h-17.443c2.697-3.174 5.666-6.163 8.889-8.95-15.746-14.34-36.676-23.09-59.636-23.09-0.193 0.012-0.382 0.011-0.573 0.012z"/>
		<path fill="#FCB340" d="m289.14 136.82c0.482 0 0.951 0.125 1.409 0.371 0.46 0.246 0.814 0.601 1.07 1.062 0.256 0.456 0.384 0.937 0.384 1.435 0 0.492-0.127 0.968-0.379 1.424-0.251 0.455-0.605 0.81-1.061 1.063-0.451 0.249-0.928 0.375-1.424 0.375s-0.972-0.126-1.426-0.375c-0.455-0.254-0.807-0.607-1.063-1.063-0.252-0.456-0.377-0.932-0.377-1.424 0-0.498 0.127-0.979 0.384-1.435 0.258-0.461 0.614-0.813 1.071-1.062 0.47-0.24 0.94-0.36 1.42-0.36m0 0.48c-0.401 0-0.793 0.104-1.176 0.311-0.38 0.207-0.677 0.5-0.891 0.888-0.217 0.382-0.325 0.778-0.325 1.194 0 0.412 0.106 0.81 0.315 1.188 0.214 0.377 0.51 0.673 0.888 0.885 0.381 0.211 0.776 0.315 1.188 0.315 0.414 0 0.81-0.104 1.189-0.315 0.378-0.212 0.673-0.508 0.884-0.885 0.209-0.378 0.313-0.775 0.313-1.188 0-0.416-0.106-0.813-0.321-1.194-0.213-0.388-0.511-0.681-0.894-0.888-0.38-0.21-0.77-0.31-1.17-0.31m-1.25 3.97v-3.082h1.062c0.36 0 0.622 0.028 0.784 0.088 0.162 0.057 0.291 0.154 0.388 0.297 0.095 0.141 0.144 0.291 0.144 0.451 0 0.226-0.08 0.422-0.242 0.588-0.158 0.166-0.373 0.261-0.639 0.281 0.109 0.045 0.196 0.102 0.264 0.164 0.125 0.12 0.275 0.323 0.455 0.61l0.375 0.603h-0.606l-0.272-0.485c-0.215-0.382-0.388-0.62-0.521-0.718-0.091-0.069-0.224-0.105-0.397-0.105h-0.293v1.311h-0.5m0.49-1.73h0.604c0.288 0 0.483-0.044 0.588-0.129 0.106-0.088 0.159-0.2 0.159-0.342 0-0.092-0.024-0.174-0.075-0.244-0.052-0.073-0.122-0.125-0.213-0.162-0.089-0.035-0.255-0.055-0.497-0.055h-0.564v0.932"/>
</svg>
