<?xml version="1.0" encoding="UTF-8" standalone="no"?>
<svg width="344" xmlns="http://www.w3.org/2000/svg" xml:space="preserve" viewBox="-0.169 -0.038 344 550" height="550" enable-background="new -0.169 -0.038 344 550" version="1.1">
<polyline clip-rule="evenodd" fill-rule="evenodd" fill="none" points="0 574.03 0 0 349.46 0.369 349.46 574.03"/>
<path d="m325.74 0c9.509 0 17.198 7.607 17.198 17.015v515.4c0 9.4-7.689 17.015-17.198 17.015h-307.99c-9.5 0-17.191-7.614-17.191-17.015v-515.4c0.003-9.413 7.694-17.02 17.194-17.02h307.99" fill="#fff"/>
<path d="m7.246 76.404h329.23v454.99c0 3.784-0.646 6.123-3.198 8.661-2.77 2.753-5.2 3-9.586 3l-306.62 0.03c-2.416 0-4.269-0.77-6.269-2.461-2.477-2.123-3.561-4.769-3.561-7.569v-456.65" fill="#FFF200"/>
<rect height="23.375" width="329.23" fill="#ED1C24" x="7.246" y="53.513"/>
<rect height="23.376" width="329.23" fill="#fff" x="7.246" y="30.091"/>
<path d="m16.553 6.315h310.4c4.971 0 9.555 4.792 9.555 9.469v14.922h-329.25l0.03-13.123v-1.092c-0.004-5.291 4.073-9.653 9.273-10.176" fill="#009A4E"/>
<path d="m325.74 0c9.509 0 17.198 7.607 17.198 17.015v515.4c0 9.4-7.689 17.015-17.198 17.015h-307.99c-9.5 0-17.191-7.614-17.191-17.015v-515.4c0.003-9.413 7.694-17.02 17.194-17.02h307.99m0 6.792h-307.99c-5.708 0-10.322 4.584-10.322 10.223v515.4c0 5.646 4.615 10.199 10.322 10.199h307.98c5.709 0 10.323-4.553 10.323-10.199v-515.4c0.01-5.643-4.6-10.228-10.31-10.228z"/>
<path d="m165.69 105.28s-0.208 1.984-0.661 3.146c-0.446 1.076-1.608 1.8-1.531 2.522 0.077 0.708 0.831 1.562 2 2.153 1.146 0.6 1.607 1.062 2.784 1.362 1.092 0.27 2.477 1.069 2.869 0.154 0.393-0.931-0.199-2.062-0.861-3.146-1.154-1.892-1.738-2.354-3.438-4.954-0.36-0.55-0.64-1.15-1.16-1.23"/>
<path d="m157.07 309.69c0.115-0.339 2.838 1.385 4.253 2.216 2.977 1.784 4.315 2.845 6.946 4.814 2.085 1.585 3.092 2.4 5.185 4.2 2.568 2.215 3.953 4.107 4.646 3.677 1-1.2-1.638-4.708-3.97-6.614-2.268-1.878-4.614-3.4-6.422-4.585-2.331-1.555-2.539-1.908-6.023-4.247-3.746-2.507-6.976-5.66-6.976-5.66l-3.639-2.861-5.699-4.808-6.338-5.838-4.784-5.331s-3.723-4.553-4.315-5.431c-0.6-0.869-2.354-3.685-3.799-6.068-1.293-2.139-3.8-5.461-4.031-5.746-1.354-1.639-4.446-0.977-8.039-3.092-4.361-2.577-5.415-4.931-5.415-4.931s-0.162-0.345-0.331-0.53c-0.162-0.193-0.492-0.431-0.492-0.431l-2.285-1.592-1.308-0.862s-0.992-0.823-2.238-1.354c-1.254-0.554-4.046-2.177-4.046-2.177l-4.992-3.184s-1.954-1.569-2.6-2.092c-0.661-0.5-1.892-1.215-1.892-1.215s-0.785-0.393-1.023-0.408c-0.238-0.016-1.276-0.108-1.276-0.108s-0.962-0.254-1.939 0.893c-0.977 1.154-0.738 0.538 0.854 7.03 0.63 2.553 0.569 11.561 1.246 14.306 0.861 3.523 3.338 8.077 3.592 8.615 0.247 0.531 0.423 2.5 0.423 2.5s-0.107 1.593 0.062 2.601c0.754 4.653 7.561 1.591 9.062 7.976 1.477 6.3-0.885 12.584-0.885 12.584s-1.462 3.124-3.531 3.615c-2.061 0.478-5.261-4.091-7.576-7.791-2.284-3.639-4.153-8.408-4.753-9.923-0.6-1.516-0.916-1.847-1.608-2.946-1.023-1.639-1.846-1.338-2.992-3.923-1.154-2.584-0.131-3.623-0.646-5.876-0.3-1.246-0.569-1.385-0.961-3.17-0.377-1.776-0.885-7.43-0.885-7.43l-0.723-5.261s-0.254-2.4-0.584-3.908c-1.146-5.261-1.546-10.353-1.546-10.353l-0.215-2.092-0.077-2.161s-0.069-1.039 0.185-2.108c0.254-1.068 0.77-1.953 0.77-1.953s1.062-1.777 1.246-2.223c0.177-0.423 2.346-2.946 2.346-2.946s1.138-0.946 2.992-2.077c1.862-1.131 3.531-1.054 3.531-1.054s0.492-0.046 3.785 0.362c3.292 0.407 10.061 2.207 11.769 2.646 1.684 0.455 3.7 1.162 5.007 1.892 3.761 2.046 4.9 1.178 1.908-1.168-2.016-1.577-2.584-2.285-4.208-3.761-1.37-1.262-2.446-2.101-3.469-3.262-1.023-1.185-3.938-5.484-3.938-5.484l-1.823-2.692s-0.977-1.107-1.139-1.185c-0.153-0.092-0.646-0.469-0.646-0.469s-1.207 0.061-2.454-0.177c-1.261-0.254-1.846 1.516-1.846 1.516s-2.708 5.053-5.461 8.146c-4.461 5.022-7.661 8.438-9.299 11.114-2.3 3.708-1.792 7.77-2.977 9.646-0.692 1.1-1.069 1.262-1.446 2.223-1.154 2.916 3.038 4.515 2.077 7.745-1.531 5.124-13.53 10.192-15.123 9.346-1.654-0.869-0.3-7.799 0.254-10.038 0.569-2.253 2.253-5.576 2.408-5.745 0.146-0.162 0.554-0.947 0.676-1.608 0.131-0.661 0.177-2.161 0.254-2.992 0.077-0.839 0.423-2.161 0.423-2.161s0.046-0.285 1.107-2.584c1.069-2.315 4.977-7.7 7.777-12.838 1.846-3.354 2.615-5.384 4.461-8.746 1.7-3.084 4.615-7.792 4.615-7.792s1.23-2.4 1.807-3.292c0.585-0.916 1.815-2.646 2.969-4.354 1.162-1.7 1.446-2.977 2.961-4.377 1.254-1.169 2.108-1.792 3.746-2.315 2.438-0.808 4.108-0.376 6.6 0.316 2.584 0.707 4.361 1.892 6.054 3.292 1.684 1.416 2.938 2.977 2.938 2.977l0.823 1.215 0.507 0.3 1.57 1.008 3.592 2.376s8.523 5.8 9 6.115c0.454 0.3 1.984 1.554 2.284 1.654 0.316 0.092 2.585-2.37 7.039-5.438 5.153-3.577 6.976-3.308 8.685-4.238 1.684-0.931 2.376-1.7 3.7-3.023 2-2 2.015-3.069 4.284-5.861 2.285-2.784 4.423-4.346 4.423-4.346s0.315-0.315 4.385-4.915c4.061-4.584 5.861-8.054 5.861-8.054l2.231-4.469s3.23-6.945 4.269-9.692c1.046-2.753 1.046-3.669 1.046-3.669s0.153-0.723-0.631-2.123c-0.808-1.393-1.639-0.762-3.185-0.446-2.961 0.631-4.761-0.139-7.753-0.661-2.738-0.455-4.169-1.277-6.915-1.731-2.784-0.469-4.407-0.93-7.2-0.661-0.423 0.046-1.276 0.223-1.685 0.361-1.577 0.523-2.015 0.646-3.184 1.323-1.354 0.631-2.246 0.831-3.746 0.869-1.039 0.031-1.669 0.062-2.63-0.315-0.662-0.254-1.039-0.446-1.562-0.915-0.315-0.285-0.484-0.47-0.723-0.839-0.03-0.292-0.123-0.277 0.162-0.753 0.277-0.485 0.623-0.57 0.623-0.57l1.277-0.315s1.8-0.469 1.969-0.516c0.162-0.046 1.877-0.6 2.63-0.838 0.762-0.238 1.593-0.677 1.593-0.677s0.461-0.738 0.284-1.161c-0.223-0.478-1.246-0.523-1.246-0.523s-1.431 0.523-1.592 0.569c-0.154 0.031-2.439 0.753-2.439 0.753s-1.792 0.393-3.184 0.723c-1.4 0.315-3.4 0.477-3.4 0.477l-0.6-0.162s-0.677-0.454-0.784-0.93c-0.1-0.423-0.162-0.739-0.239-1.223-0.3-1.77-0.661-2.839-0.238-4.584 0.162-0.731 0.331-1.139 0.646-1.815 0.269-0.562 0.446-0.885 0.792-1.416l1.101-1.8 2.077-3.069c0.715-0.723 1.185-1.084 2.084-1.592 1.323-0.738 2.092-0.946 3.746-1.131 1.623-0.177 1.846-0.161 4.146-0.677 2.315-0.523 3.954-1.438 3.954-1.438s5.531-2.031 8.899-3.685c3.53-1.73 5.069-3.577 8.723-5.007 1.546-0.6 2.446-0.885 4.038-1.292 0.2-0.131 0.3-0.254 0.362-0.493 0.154-0.577-0.738-0.846-1.354-0.785-0.554 0.046-1.815 0.631-2.1 0-0.216-0.484 1.153-0.769 1.153-0.769s0.646-0.3 0.662-0.661c0.016-0.554-0.93-0.193-1.354-0.239-2.146-0.239-2.315-0.631-3.8-0.992-1.746-0.438-2.691-0.977-4.507-1.054-1.6-0.062-3.1 0.277-4.107 0.515-0.992 0.254-1.023-0.723-0.631-0.915 2.808-1.308 2.869-1.416 4.854-1.508 1.084-0.046 2.6 0.185 2.769 0.269 0.162 0.092 2.331-0.015 2.885-0.584 0.569-0.554-1.777-0.523-2.885-0.962-1.022-0.407-2.584-0.522-2.553-1.2 0.054-0.677 0.808-0.3 1.346-0.438 0.676-0.162 1.069-0.146 1.761-0.238 1.247-0.169 1.354-0.285 3.2-0.438 1.823-0.177 4.454 0.6 4.454 0.6s2.761 1.224 4.115 1.87c1.354 0.63 2.992 0.961 2.992 0.961s1.922 0.269 3.385-0.646c1.484-0.908 0.646-1.508 0.13-2.346-0.508-0.785-1.153-1.923-0.208-4.077 0.839-1.877 1.277-4.069 1.516-4.269 0.301-0.238 1.462 1.446 2.215 2.139 2.7 2.523 6.27 3.769 9.639 9.045 0.262 0.423 1.508-0.254 5.415 0.346s7.323 4.784 8.185 5.785c0.893 1.007 2.046 0.953 2.046 0.953l1.877 0.254 6.814 0.115s3.093-0.554 4.877 0.124c1.246 0.469 5.4 3.246 3.508 4.299-1.323 0.739-2.569-0.884-3.769-0.961-1.416-0.092-2.031 0.177-3.293 0.492-2.646 0.662-8.322 2.377-6.261 3.069 0.153 0.061 0.446 0.107 0.446 0.107l1.015 0.177s2.493 0.569 4 1.161c2.276 0.9 3.354 1.893 5.446 3.123 1.199 0.692 1.723 1.385 3.03 1.777 1.2 0.347 1.969 0 3.2 0.208 1.615 0.285 2.522 0.616 4 1.323 2.199 1.054 2.999 2.331 4.969 3.746 0.984 0.715 1.814 0.823 2.553 1.785 0.17 0.215 0.309 0.331 0.386 0.584 0.262 0.877-1.447 0.361-2.354 0.216-1-0.169-1.415-0.662-2.338-1.085-1.369-0.646-2.016-1.354-3.508-1.623-1.077-0.208-1.723-0.046-2.83 0.015-1.077 0.046-1.646 0.208-2.724 0.223-1.83 0.031-2.861-0.13-4.661-0.508-2.016-0.422-3.016-1.207-5.015-1.623-2.262-0.469-6.261-2.407-5.877-0.469 0.2 0.931 2.323 1.715 2.323 1.715s1.461 0.785 2.846 1.4c1.385 0.6 2.153 1.516 2.153 1.516l0.954 0.708s0.984 1.354 2.277 2.884c1.261 1.508 3.507 1.461 3.507 1.461s1.354 0 4.276 0.6c2.908 0.6 5.908 2.399 5.908 2.399s2.261 1.554 3.584 3.116c1.308 1.562 0.554 2.346 0.385 2.507-0.153 0.169-0.093 0.092-0.277 0.169-0.153 0.077-1.784-1.969-1.784-1.969l-1.169-0.992s-1.139-0.8-2.615-1.277c-1.477-0.469-1.97-0.154-1.97-0.154s-3.138 0.877-5.876 0.8c-2.708-0.077-4.123-1.162-4.123-1.162l-1.723-1.154s-2.585-2.423-2.678-1.276c-0.062 0.777 1.139 1.638 1.139 1.638s0.831 0.838 1.385 1.37c1.046 1.03 1.478 1.546 2.677 2.614 1.2 1.078 1.938 1.078 1.938 1.078s0.646 0.153 0.892 0.2c0.247 0.046 0.678 0.162 0.678 0.162s0.4 0.154 2.276 0.916c1.861 0.753 3.877 2.392 3.877 2.392s0.185 0.154 0.462 0.208c0.276 0.031 0.83 0.308 0.984 0.354 0.169 0.038 0.646 0.038 1.723 0.192 1.093 0.162 0.677 0.854 0.677 0.854l-0.185 0.261-0.893 0.6s-1.153 0.331-1.938 0.369c-0.8 0.046-1.938-0.399-1.938-0.399l-2.416-0.908s-2.445-0.646-2.969-0.731c-0.523-0.077-2.707-0.515-3.076-0.592-0.354-0.084-1.446-0.477-1.738-0.646-0.293-0.161-0.831-0.269-2.154-0.915-1.308-0.646-1.831-1.392-3.461-1.908-1.646-0.523-2.646-0.63-3.877 0.224-2.123 1.461 3.199 1.7 5.846 3.022 3.908 1.923 6.107 3.338 7.03 5.416 0.938 2.084 1.877 2.838 1.877 2.838s2.754 1.385 3.984 2.838c0.677 0.784 0.77 1.431 1.446 2.215 1.507 1.769 4.431 1.669 5.016 3.169 0.554 1.399-2.37 0.769-3.893 0.63-2.738-0.269-3.4-2.777-5.954-3.784-1.445-0.577-2.368-0.577-3.846-1.084-2.692-0.885-3.953-2.046-6.646-2.884-1.631-0.5-4.585-2.646-4.215-0.993 0.061 0.4 0.307 0.708 0.414 0.947 0.139 0.238 0.816 1.115 0.816 1.115s0.907 1.2 1.322 1.516c0.385 0.331 2.123 1.638 4.615 2.992 2.462 1.354 4.615 3.954 4.615 3.954s0.739 1.062 1.093 1.801c0.369 0.831 0.107 1.084 0.692 2.238 0.538 1.146 0.8 1.369 1.538 2.077 1.815 1.746 3.723 1.399 6.03 2.346 0.631 0.269 0.677 0.361 1.354 1.084 0.677 0.715-0.124 1.022-0.124 1.022s-2.568 0.662-4.23 0.523c-2.153-0.169-3.123-0.831-5.215-1.877-2.123-1.038-3.23-2.907-3.445-3.022-0.185-0.124-0.708-0.677-1.108-0.962-0.399-0.284-1.431-0.5-2.354-0.754-0.938-0.253-1.462-0.3-2.399-0.554-1.277-0.362-2.601-0.923-3.201-1.115-0.6-0.208-1.969-0.454-2.969 0.138-2 1.185 3.107 1.984 4.692 3.685 0.815 0.854 1.153 1.454 1.923 2.354 0.585 0.692 0.831 1.177 1.555 1.715 0.491 0.361 1.399 0.753 1.399 0.753s1.23 0.57 3.03 1.562 3.907 3.799 3.907 3.799l1.277 1.954 0.754 1.115 0.2 0.516 0.276 0.63s0.924 1.2 1.6 1.592c0.678 0.408 0.554 0.762 0.554 0.762s-0.076 0.247-0.554 0.516c-0.461 0.285-0.723 0.046-1.399-0.154-0.677-0.192-1.123-0.838-1.707-1.308-0.616-0.492-1.262-1.684-2.354-2.361-0.969-0.584-2.23-0.792-2.723-0.946-0.477-0.176-1.677-0.93-2.154-1.138-0.461-0.185-1.707-0.754-1.707-0.754s-2.399-1.338-3.724-1.699c-1.322-0.37-0.477 0.438-0.477 0.438s1.186 1.846 2.323 2.584c1.478 0.977 3.554 1.839 2.877 2.63-0.462 0.516-1.077 0.331-1.754 0.254-1.107-0.13-2.446-1.454-2.446-1.454s-0.553-0.361-3.03-1.146c-2.462-0.808-1.554 0.546-0.985 1.277 0.555 0.708 1.309 1.115 1.309 1.115l1.677 0.754 0.769 0.238s0.678 0.123 2.908 0.646c2.23 0.508 3.462 1.593 3.462 1.593s1.199 1.115 2.86 2.346c1.692 1.246 3.354 1.562 4.277 1.685 0.923 0.115 0.892 0.761 0.892 0.761s0.123 0.593 0.063 0.785c-0.031 0.2-0.231 0.362-0.432 0.362-0.185 0-0.276 0.077-0.522 0.208-0.246 0.123-1.2 0.277-1.2 0.277s-2.492-0.077-4.461-0.562c-1.938-0.477-3.662-1.831-3.847-1.907-0.153-0.077-1.969-1.084-3.23-1.484-1.215-0.408-3.169-0.231-3.385-0.154-0.199 0.077-0.877 0.185-2.03 0.523-1.169 0.308 0.292 0.753 0.292 0.753l0.831 0.077 1.984 0.154s2.062 0.238 3.8 0.884c1.738 0.631 2.877 1.908 4.031 3.077 1.153 1.146 2.431 1.9 2.431 1.9l0.923 0.6 0.477 0.361 0.123 0.315s-0.046 0.162-0.123 0.361c-0.077 0.208-0.369 0.361-0.369 0.361s-0.431-0.077-0.615-0.077c-0.216 0-1.523-0.692-2.492-1.115-1-0.438-1.508-0.854-2.585-1.116-0.923-0.223-2.153-0.323-2.431-0.238-0.276 0.077-2.308 0.362-3.877 0.469-1.568 0.123-2.923 0.146-4.769-0.077-2.63-0.315-6.122-2.393-6.569-1.815-0.907 1.215 1.862 1.561 3.216 2.338 1.846 1.069 5.046 2.031 5.046 2.031s2.338 0.515 3.707 1.161c3 1.393 3.908 3.454 6.323 5.623 1.323 1.215 2.4 1.738 4.184 2 1.539 0.224 1.508 0.039 3.938-0.438 2.446-0.484 3.924-2.8 4.631-1.953 0.139 0.162 0.077 0.315 0.046 0.554-0.046 0.238-0.245 0.677-0.245 0.677s-0.277 0.392-0.708 0.838c-0.446 0.438-2.123 1.354-3 1.715-0.877 0.362-3.03 0.962-5.738 0.877-2.708-0.077-6.522-2.154-6.522-2.154l-2.738-1.154s-1.262-0.592-2.123-0.915c-2.277-0.862-3.723-0.785-6.062-1.4-1.446-0.392-2.399-0.8-3.707-1.069-1.323-0.284-0.569 0.239-0.446 0.423 0.615 0.838 1.445 1.107 2.492 1.592 1.385 0.677 2.354 0.539 3.769 1.139 1.585 0.639 2.97 1.539 3.847 2.108 0.861 0.554 1.508 1.185 2.354 2.062l2.907 2.492s0.677 0.554 0.754 0.785c0.076 0.239 0.399 0.838 0.246 1.8-0.17 0.962-0.954 0.285-0.954 0.285l-0.769-0.492-0.77-0.708-1.216-1.007s-1.045-0.947-2.846-1.862c-1.784-0.931-3.938-1.162-3.938-1.162s-1.908-0.284-1.846 0.316c0.092 0.592 0.521 0.646 2.029 1.038 1.523 0.393 2.523 1.162 2.523 1.162s1.555 1.154 2.677 2.43c1.107 1.278 1.431 2.516 1.431 2.516s0.569 1.046 2 2.43c1.431 1.4 2.185 0.915 2.107 1.593-0.077 0.677-0.708 0.8-0.708 0.8s-0.369-0.032-0.522-0.032c-0.154 0-0.523-0.207-0.923-0.361s-1.908-1.2-1.908-1.2-2.368-1.922-2.63-2.107c-0.293-0.208-2.523-1.877-2.523-1.877s-1.323-0.846-2.262-1.323c-0.969-0.469-2.246-0.961-2.969-1.2-0.707-0.231-2.031-0.308-2.031-0.308s-1.584-0.238-2.553-0.6c-1.523-0.585-3.293-2.208-3.492-2.285-0.216-0.084-1.631-0.569-1.908-0.523-0.276 0.031-0.923 2.708-1.076 4.254-0.646 6.477 1.076 10.776 3.753 16.715 3.861 8.63 14.614 19.36 14.614 19.36s2.708 1.531 3.847 2.446c3.215 2.516 8.538 6.077 13.261 10.784 4.03 4.038 9.385 11.199 9.385 11.199s3.106 4.323 4.553 7.384c1.754 3.754 3.17 9.478 3.17 9.478s0.123 0.984 0.215 1.2c0.123 0.199 0.399 0.461 0.585 0.461l1.876 0.062c0.185 0 2.323-0.153 3.739-0.508 1.4-0.354 4.723-1.877 6.938-3.03 2.184-1.17 4.815-3.385 4.815-3.385s0.507-0.431 3.062-3.292c2.585-2.861 4.246-7.153 4.876-8.776 0.616-1.607 1.124-4.707 1.493-10 0.399-5.314-0.323-10.915-0.323-10.915s-0.969-7.815-1.555-10.477c-0.584-2.645-1.999-6.984-1.999-6.984s-0.984-3.86-1.292-6.298c-0.324-2.439-0.369-6.408-0.369-6.408s0-2.43 0.783-6.922c0.816-4.469 3.555-8.977 3.555-8.977s0.769-1.516 3.724-5.054c3.03-3.623 3.998-4.192 6.983-6.354 2.37-1.7 5.43-4.438 6.432-3.792 1.107 0.692-1.079 2.077-1.817 2.8-1.861 1.846-5.337 5.107-8.153 10.022-2.461 4.254-3.384 7.069-3.998 9.846-0.617 2.77-0.354 5.815-0.277 6.854 0.093 1.039 0.661 0.662 0.661 0.662s5.984-4.808 9.23-8.446c3.523-3.938 6.661-10.946 7.891-11.007 0.831-0.054 1.216 1.823 1.016 2.692-0.768 3.638-1.029 4.092-2.216 6.507-1.353 2.769-2.613 4-4.491 6.554-1.97 2.677-2.938 3.7-4.522 7.245-2.291 5.1-0.954 9.039-0.954 9.039s0.277 2.392 1.353 2.361c1.802-0.062 5.754-5.054 8.339-9.139 1.909-2.992 2.6-6.453 3.847-8.269 1.138-1.607 2.139 2.616 1.646 5.108-0.57 2.961-2.031 5.623-5.246 9.815-3.138 4.091-3.046 7.984-3.046 7.984s-0.323 1.777-0.585 5.654c-0.245 3.86 0.862 9.723 0.862 9.723s0.983 4.899 1.185 8.614c0.185 3.738 0.061 12.223-3.432 18.83-1.384 2.646-4.354 6.308-4.354 6.308s-2.292 2.354-4.169 3.722c-1.878 1.37-6.385 3.509-6.385 3.509s-3.122 1.076-3.553 1.169c-0.462 0.123-0.738 0.507-0.738 0.507s0.276 0.601 0.399 0.847c0.107 0.247 0.984 2.399 0.984 2.399s0.938 3.046 1.292 5.462c0.354 2.415-0.062 2.969-0.399 4.815-0.339 1.77-1.107 0.953-1.308 4.43-0.169 3.078 1.216 4.615 0.969 8.062-0.106 1.508-1.815-1.907-2.646-3.353-1.754-3.14-1.339-7.97-1.369-9.169-0.047-1.2-0.14-2.524-0.585-4.031-0.538-1.97-1.354-3.492-2.261-4.692-0.924-1.185-1.893-1.861-2.216-1.738-0.323 0.108-0.354 0.738-0.354 1.046-0.016 0.339 0.63 1.477 0.769 1.724 0.169 0.23 1.323 2.338 1.323 2.338s0.507 1.631 0.707 4.801c0.201 3.138-0.769 7.045-0.769 7.045s-1.262 4.385-2.584 6.97c-1.479 2.845-4.754 6.722-4.754 6.722s-2.354 2.154-4.124 5.692c-1.737 3.538-0.245 5.077-0.892 5.538-0.677 0.446-2.062-2.046-2.431-3.723-0.354-1.569-0.185-2.308 0.462-4.062 0.6-1.692 2.016-4.139 2.016-4.139l2.107-3.584s2.554-4.861 3.354-8.4c0.8-3.507-0.123-7.414-0.123-7.414s-0.107-1.292-0.984-1.231c-0.893 0.046-1.507 0.816-1.877 1.754-0.724 1.938 0.308 1.585-0.801 4.815-0.86 2.538-1.107 2.2-1.569 3.707-0.554 1.8-0.846 3.646-0.814 4.77 0.046 1.107-0.569 0.646-0.569 0.646s-1.077-2.001-1.077-4.492c0-1.354 0.062-2.123 0.216-3.478 0.246-2.169 1.138-5.491 1.138-5.491s0.954-3.277 0.754-6.262c-0.229-3.015-1.276-3.568-1.276-3.568s-0.276-0.4-1.446-0.339c-1.153 0.093-1.092 2.169-1.092 2.169s-0.354 2.97-0.815 4.815c-1.277 5.092-2.984 7.769-6 12.061-2.738 3.877-6.445 7.293-8.308 8.893-1.846 1.631-7.538 5.769-7.538 5.769l-6.676 4.445s-2.646 2.585-3.847 5.662c-1.23 3.062-1.169 5.461-0.462 8.276 0.709 2.831 1.724 4.123 2.262 4.922 0.523 0.771 1.555 2.154 1.893 3.786 0.215 0.999 0.062 1.599 0.123 2.614 0.063 0.893 0.185 1.385 0.154 2.293-0.031 1.415 0.23 2.414-0.585 3.568-0.585 0.877-2.185 1.646-2.185 1.646s-1.814 0.799-2.893 1.461c-11.354 6.846-15.383 11.292-21.783 18.922-2.031 2.446-0.538 2.293-2.707 5.185-1.316 1.724-4.354 1.724-5.454 3.784-1.53 2.815 3.446 5.585-2.3 8.062-7.407 3.2-20.153 0.907-20.407-0.092-0.692-2.739 2.492-5.907 3.623-7.169 5.184-5.662 9.815-5.801 11.515-10.492 0.369-1 0.223-1.861 4.353-4.923 2.9-2.139 14.484-10.861 19.546-16.676 1.738-2 3.23-3.322 3.984-5.477 0.77-2.186-0.754-3.554-0.754-3.554l-2.077-3.385-3.984-7.123s-1.676-3.784-2.584-5.969c-0.938-2.185-2.677-8.062-2.677-8.062s-1.276-5.291-1.493-8.738c-0.384-6.184 0.462-9.783 2.094-15.783 2.107-7.784 6.891-11.046 8.799-18.769 0.555-2.245 0.677-6.092-0.462-5.907-1.077 0.2-1.169 3.23-1.999 5.262-3.077 7.661-7.139 11.015-9.369 18.952-1.492 5.369-2.107 8.555-2.093 14.123 0.017 3.184-0.107 2.6 0.708 8.123 0.323 2.03 0.815 3.122 1.416 5.106 0.43 1.416 1.584 4.062 1.584 4.062s1.585 3.492 2.139 5.938c0.168 0.847 0.385 1.322 0.322 2.169-0.107 1.461 0.154 1.77-0.553 3.092-0.877 1.647-0.34 2.616-3.139 3.23-2.492 0.523-7.584-1.138-7.584-1.138s-20.93-6.338-34.291-4.508c-2.646 0.354-4.069 1.323-6.73 1.277-2.423-0.031-3.654-1.924-6.077-1.2-0.492 0.139-0.646 0.492-1.092 0.785-3.538 2.461-0.831 6.553-10.153 4.43-5.723-1.308-12.653-4.814-11.454-7.015 1.607-2.923 3.761-3.4 8.285-5.262 4.838-1.969 12.099-1.415 13.53-1.507 1.746-0.139 4.254-1.354 7.376-1.431 5.4-0.093 6.361 0.554 6.361 0.554l9.168 0.814 17.546 0.217s3.138-0.231 4.384-0.478c1.262-0.247 2.254-2.723 2.945-3.908 0.678-1.168-0.03-2.892-0.03-2.892l-0.522-0.815-1.67-2.692-3.084-5.2-3.423-6.83s-2.238-4.753-3.43-7.876c-1.185-3.108-1.877-4.862-2.662-8.076-0.823-3.309-1.331-5.985-1.438-8.646-0.24-3.77-0.49-6.73 0.58-9.86"/>
<path d="m270.97 303.36c3.691-4.738 4.047-9.139 4.261-15.338 0.169-4.507-1.537-11.453-1.537-11.453l-0.232-0.508s-0.646-0.839-1.044 0.269c0.061 0.978 0.185 1.762 0.185 1.762l0.214 8.946s-0.277 4.507-1.814 9.153c-2.585 7.846-9.446 11.338-10.445 14.169-1.71 4.69 6-1.3 10.41-7" fill="#fff"/>
<path d="m232.27 317.83s-1.508 0.431-1.539 1.922c-0.03 1.493 0.369 2.785 0.323 4.585-0.03 2.293-2.138 4.938-0.784 5.8 2.323 1.477 4.322-8.923 3.615-10.461-0.71-1.54-1.4-1.86-1.61-1.85" fill="#fff"/>
<path d="m206.21 389.94s-0.432-0.23-1.277 0.093c-0.83 0.322-0.77 1.185-0.77 1.185s-0.169 0.923 0.508 1.016c0.678 0.123 1.785-1.539 1.785-1.724s-0.25-0.58-0.25-0.58" fill="#fff"/>
<path d="m181.68 407.36s-0.247 0.247-0.031 0.415c0.23 0.201 0.554-0.046 0.554-0.046s4.23-3.307 6.738-5.63c2.646-2.492 6.462-6.784 6.462-6.784s0.261-0.323-0.031-0.6c-0.309-0.277-1.031 0.153-1.631 0.43-0.523 0.277-0.831 0.569-1.23 0.893-0.369 0.339-1.631 1.631-1.631 1.631l-3.262 3.169-2.062 1.938-1.999 1.907-0.831 0.955s-0.216 0.369-0.276 0.461c-0.063 0.107-0.277 0.384-0.277 0.384s-0.309 0.293-0.309 0.385c0 0.077-0.092 0.154-0.092 0.247-0.03 0.13-0.09 0.25-0.09 0.25" fill="#fff"/>
<path d="m174.37 412.17s-0.454-0.369-1.169-0.016c-0.723 0.385-1.492 1.368-1.555 1.477-0.068 0.139-0.461 0.662-0.191 1.123 0.269 0.462 1.184-0.216 1.322-0.246 0.131 0 1.324-0.953 1.324-0.953s0.7-0.43 0.28-1.38" fill="#fff"/>
<path d="m160.36 426.35s-0.6-1.107-1.385-0.646c-0.785 0.462-1.215 0.616-1.938 1.615-0.123 0.169-0.9 1.17-1.039 1.431-0.138 0.247-0.915 1.724 0.662 1.831 2.708 0.153 0.93-1.584 1.861-2.262 0.754-0.522 2.169-0.384 2.185-0.938 0.02-0.55-0.34-1.03-0.34-1.03" fill="#fff"/>
<path d="m112.36 369.67s-1.623 0.401-1.746 0.955c-0.131 0.584 0.946 1.138 1.115 1.168 0.192 0.031 0.554 0.462 1.638-0.277 1.069-0.722 1.023-1.338 1.023-1.338s0.64-0.73-2.02-0.5" fill="#fff"/>
<path d="m138.76 368.81s-0.016-0.6-1.162-0.522c-1.169 0.062-1.415 0.276-1.446 0.461-0.038 0.169 0.062 0.462 1.1 0.554 1.06 0.07 1.48 0 1.51-0.49" fill="#fff"/>
<path d="m163.72 369.54c-2.1-0.016-1.438 0.047-2.73 0.108-2.346 0.123-3.623 0.03-5.938-0.124-3.247-0.215-8.269-1.015-8.269-1.015s-0.631-0.153-0.885 0.262c-0.231 0.384 0.615 1.276 1.369 1.508 4.115 1.277 4.338 1.062 7.138 1.107 1.562 0.016 2.431-0.139 3.985-0.231 1.969-0.152 2.884 0.154 5.03-0.415 0.55-0.16 1.09-1.21 0.29-1.22" fill="#fff"/>
<path d="m177.78 365.37s-0.423-0.491-1.293-0.061c-0.86 0.415-1.384 1.353-1.384 1.353s-0.407 0.646 0.462 0.555c0.846-0.123 1.607-0.492 1.807-0.615 0.22-0.13 0.85-0.71 0.4-1.23" fill="#fff"/>
<path d="m165.55 196.6s5.938-5.561 10.191-12.914c2.522-4.385 3.622-14.592 1.454-12.054-0.978 1.162-2.162 6.454-4.039 10.376-2.677 5.584-8.392 13.492-8.392 13.492s-1.23 2.62 0.79 1.09" fill="#fff"/>
<path d="m141.81 210.73s-0.631 0.492-0.346 1.277c0.3 0.8 1.508 0.2 1.508 0.2s2.746-1.038 5.623-1.146c2.884-0.123 6.884 0.738 6.884 0.738s1.907 0.523 2.223 0.646c0.315 0.131 1.354 0.631 1.531 0.692 0.154 0.069 1.146 0.554 1.7 0.054 0.554-0.508-3.469-4.161-7.576-4.715-6.839-0.931-11.33 2.015-11.33 2.015l-0.2 0.23" fill="#fff"/>
<path d="m113.64 234.81c0.484 0.416 2.769-3.938 4.676-6.692 1.4-2.015 3.955-5.384 3.955-5.384s1.153-1.546-0.8-0.684c-0.792 0.354-2.961 2.007-4.492 5.046-1.3 2.57-3.86 7.29-3.35 7.7" fill="#fff"/>
<path d="m97.842 215.9s-0.493 1.685 1.477 3.792c1.984 2.116 2.492 3.861 3.754 2.6 0.346-0.346-1.231-3.192-2.031-3.984-0.823-0.785-1.408-1.431-1.408-1.431l-0.515-0.423-0.662-0.369-0.377-0.153c0.002-0.01-0.098-0.1-0.236-0.04" fill="#fff"/>
<path d="m91.441 199.74s-2.138 0.4-2.661 1.438c-0.531 1.039 2.461 0.408 2.461 0.408s1.984 0.107 2.031-0.646c0.046-0.76-0.253-0.84-1.831-1.2" fill="#fff"/>
<path d="m57.466 256.05c-1.092-0.315-1.276 1.832-1.423 2.523-0.123 0.692 0.493 2.077 0.746 2.077 0.246-0.016 1.115-1.369 1.161-2.03 0.047-0.68 0.478-2.27-0.484-2.57" fill="#fff"/>
<path d="m92.75 297.99s-1.954-1.547-2.254-0.931c-0.292 0.615 1.608 3.33 1.608 3.33s0.584 0.893 1.484 0.492c0.884-0.43 0.569-1.415 0.569-1.415s-0.6-1.26-1.407-1.47" fill="#fff"/>
<path d="m78.02 252.63s-0.5-0.13-0.677 0.469c-0.185 0.6-0.169 1.577-0.3 2.761-0.107 0.924 0.239 3.385 0.239 3.385s0.192 1.954 0.584 3.116c0.423 1.276 1.546 3.092 1.546 3.092s0.423 0.931 0.946 0.885c0.515-0.054 0.392-0.662 0.392-0.662s-1.638-6.491-1.684-7.153c-0.193-2.161-0.193-4.792-0.193-4.792l-0.015-0.393c0-0.01-0.016-0.7-0.838-0.72" fill="#fff"/>
<path d="m80.573 232.83s-0.9-0.169-1.73 1.561c-0.838 1.754-0.661 2.462-0.585 2.539 0.062 0.077 0.723 0.062 1.785-1.561 1.054-1.608 0.815-2.224 0.815-2.224s-0.062-0.32-0.285-0.32" fill="#fff"/>
<path d="m105.33 250.77s1.084 1.622-0.992 1.246c-2.084-0.377-6.461-3.831-8.246-4.761-1.762-0.931-4.662-1.224-3.446-2.315 0.223-0.185 0.284-0.363 0.63-0.377 0.362-0.016 1.562 0.453 1.638 0.507 0.062 0.03 3.146 1.307 3.261 1.338 0.108 0.046 1.839 0.785 3.069 1.507 1.231 0.73 3.23 2.13 3.23 2.13l0.85 0.72" fill="#fff"/>
<path d="m163.02 300.45c0.569 1.784-6.569-3.77-10.392-6.716-10.13-7.8-22.53-23.791-20.984-25.206 1.277-1.162 6.361 6.161 13.815 14.229 7.97 8.61 17.23 16.64 17.56 17.7" fill="#fff"/>
<path d="m192.82 292.8c-2.215 2.361-2.999 5.385-1.723 7.646 1.246 2.199 1.631-3.216 3.016-4.808 1.2-1.393 1.938-1.169 3.907-2.569 3.35-2.36-2.41-3.28-5.21-0.27" fill="#fff"/>
<path d="m180.14 242.33c-1.523-0.246-1.477 2.069-1.262 3.708 1.016 7.337 4.309 12.991 8.707 18.314 2.678 3.246 10.016 9.03 10.861 8.1 0.309-0.331-6.984-5.969-11.63-13.214-3.292-5.138-5.046-9.484-5.461-13.723-0.04-0.55 0.08-2.98-1.22-3.19" fill="#fff"/>
<path d="m151.73 133.57c-3.308 1.792-9.046 3.37-9.046 3.37s-0.262 0.569 0.477 0.508c4.916-0.393 6.792-1.008 9.408-2.162 2.615-1.13 4.515-4.269 4.515-4.269s1.062-1.954-0.907-0.346c-0.61 0.49-2.62 1.91-4.44 2.9" fill="#fff"/>
<path d="m191.64 120.96s-1.123-0.247-1.877 0.223c-0.754 0.477-0.539 0.854-0.539 0.854s1.17 0.892 2 1.039c0.831 0.123 2.615 0.9 2.555 0.3-0.078-0.615-1.077-1.715-1.432-2.015-0.33-0.31-0.71-0.4-0.71-0.4" fill="#fff"/>
<path d="m172.85 155.42c0.191 0.392 3.545-0.523 4.838-1.247 1.008-0.569 1.407-2.477 1.407-2.477s0.277-1.846-0.153-1.131c-1.92 3.14-6.28 4.46-6.1 4.86" fill="#fff"/>
<path d="m172.75 146.82c1.354-2.6-3.716 2.7-6.3 4.069-1.577 0.831-4.146 1.938-4.146 1.938s-0.677 0.846 0.269 0.769c0.946-0.062 3.354 0.754 5.308-0.754 0.462-0.369 2.492-3.323 2.492-3.323s1.73-1.48 2.38-2.71" fill="#fff"/>
<path d="m171.96 157.88c0.107 0.423 5.791 0.284 7.215-0.146 1.123-0.308 1.738-2.292 1.738-2.292s0.677-1.738 0.092-1.154c-2.58 2.63-9.15 3.16-9.05 3.59" fill="#fff"/>
<path d="m80.665 209.94s-0.861-0.315-1.93 1.292c-1.062 1.6-5.846 8.869-5 9.938 1.007 1.261 5.153-6.492 6.416-7.938 1.276-1.469 0.753-2.946 0.753-2.946s-0.015-0.32-0.239-0.34" fill="#fff"/>
<path d="m184.88 341c-0.523 2.415 0.092 7.354 0.924 8.322 2.03 2.446 0.784-3.83 1.076-6.031 0.246-2.045 0.492-2.753 1.508-4.938 1.82-3.93-2.44-2.49-3.51 2.65" fill="#fff"/>
<path d="m167.42 130.96s-1.576 0.046-2.807 0.723c-1.246 0.677-1.554 1.639-1.554 1.639s-0.254 0.692-0.084 1.069c0.361 0.823 2.069-0.423 3.261-0.016 0.961 0.346 1.423 0.631 2.161 1.515 0.646 0.77 1.777 1.877 2.485 1.246 0.73-0.615 0.462-2.192 0.462-2.192s-0.839-2.569-1.938-3.292c-1.1-0.74-1.98-0.69-1.98-0.69" fill="#fff"/>
<path d="m141.22 149.02s-0.885 0.138-0.677 1.215c0.208 1.054 0.785 0.892 0.785 0.892s1.831-0.785 1.723-1.884c-0.12-1.11-1.82-0.23-1.82-0.23" fill="#fff"/>
<path d="m128.43 143.29s-0.961 0.039-1.638 1.23c-0.661 1.185-1.054 2.416-1.054 2.416s-0.315 1.554 0.238 2.046c0.562 0.484 1.177-1.007 1.984-1.592 0.484-0.346 0.785-0.5 1.285-0.854 0.685-0.47 1.8 0.13 1.723-1.254-0.09-1.42-1.57-2.08-2.53-2.01" fill="#fff"/>
<path d="m169.77 128.4s-2.176-0.315-2.092 0.523c0.077 0.784 1.178 0.315 1.885 0.631 0.692 0.315 1.154 0.438 1.707 0.946 0.408 0.361 0.361 1.069 0.862 1.084 0.692 0.016 0.554-0.269 0.554-0.269s-0.631-1.877-1.453-2.407c-0.81-0.53-1.46-0.5-1.46-0.5" fill="#fff"/>
<path d="m194.05 137.18c-0.308 1.185-0.493 1.592-0.493 1.592s-0.614 2.408 1.816 1.523c2.431-0.893 1.169-0.516 2.922-1.369 1.724-0.846 1.693-0.377 2.955-0.315 0.43 0.015 0.707 0.03 1.354-0.092 0.553-0.124 0.322-0.77-0.908-1.101-1.322-0.346-2.938-0.269-4.814-0.285-1.11 0-2.51-1.13-2.84 0.06" fill="#fff"/>
<path d="m195.13 128.28s-1.108-0.254-1.877 0.223c-0.754 0.469-0.523 0.846-0.523 0.846s1.154 0.916 2 1.039c0.831 0.146 2.615 0.915 2.554 0.3-0.093-0.6-1.077-1.715-1.431-2.015-0.35-0.31-0.72-0.4-0.72-0.4" fill="#fff"/>
<path d="m199.41 144.99s-1.186-0.239-2.001 0.215c-0.8 0.446-0.585 0.808-0.585 0.808s1.262 0.847 2.154 0.977c0.893 0.123 2.8 0.846 2.723 0.269-0.076-0.569-1.154-1.623-1.508-1.907-0.34-0.28-0.77-0.36-0.77-0.36" fill="#fff"/>
<path d="m199.78 151.05s-1.263-0.284-2.124 0.239c-0.861 0.515-0.601 0.931-0.601 0.931s1.309 0.992 2.263 1.131c0.938 0.146 2.969 0.977 2.876 0.315-0.076-0.661-1.215-1.861-1.615-2.184-0.37-0.33-0.8-0.43-0.8-0.43" fill="#fff"/>
<path d="m200.34 156.96s-1.369-0.315-2.293 0.269c-0.938 0.584-0.646 1.054-0.646 1.054s1.415 1.107 2.431 1.277c1.031 0.162 3.23 1.107 3.139 0.361-0.093-0.738-1.324-2.108-1.754-2.469-0.4-0.38-0.88-0.49-0.88-0.49" fill="#fff"/>
<path d="m200.22 164.27s-1.369-0.292-2.293 0.285c-0.938 0.569-0.676 1.038-0.676 1.038s1.445 1.107 2.461 1.277c1.016 0.162 3.215 1.108 3.123 0.369-0.107-0.746-1.323-2.115-1.738-2.477-0.42-0.39-0.87-0.5-0.87-0.5" fill="#fff"/>
<path d="m199.22 178.52s-1.385-0.3-2.308 0.285c-0.923 0.577-0.646 1.039-0.646 1.039s1.415 1.115 2.431 1.277c1.031 0.154 3.231 1.115 3.139 0.361-0.093-0.738-1.322-2.1-1.754-2.477-0.41-0.38-0.86-0.48-0.86-0.48" fill="#fff"/>
<path d="m200.14 171.39s-1.57-0.361-2.678 0.315c-1.062 0.661-0.738 1.2-0.738 1.2s1.646 1.292 2.83 1.477c1.17 0.192 3.724 1.277 3.631 0.431-0.123-0.869-1.539-2.446-2.03-2.869-0.48-0.42-1.01-0.55-1.01-0.55" fill="#fff"/>
<path d="m198.54 184.96s-1.139-0.27-1.907 0.215c-0.77 0.477-0.523 0.854-0.523 0.854s1.169 0.931 2 1.054c0.846 0.139 2.646 0.915 2.584 0.3-0.092-0.616-1.092-1.731-1.445-2.031-0.33-0.31-0.7-0.39-0.7-0.39" fill="#fff"/>
<path d="m197.47 191.13s-0.923-0.2-1.569 0.193c-0.614 0.392-0.431 0.707-0.431 0.707s0.969 0.754 1.662 0.869c0.691 0.108 2.215 0.77 2.153 0.247-0.062-0.5-0.923-1.431-1.2-1.685-0.29-0.25-0.61-0.33-0.61-0.33" fill="#fff"/>
<path d="m196.14 196.76s-0.831-0.192-1.416 0.169c-0.554 0.346-0.4 0.646-0.4 0.646s0.877 0.677 1.508 0.77c0.631 0.115 1.984 0.692 1.924 0.238-0.047-0.454-0.801-1.308-1.063-1.531-0.25-0.24-0.55-0.3-0.55-0.3" fill="#fff"/>
<path d="m194.82 201.38s-0.861-0.193-1.414 0.153c-0.586 0.362-0.416 0.646-0.416 0.646s0.877 0.692 1.508 0.785c0.631 0.1 1.984 0.692 1.923 0.224-0.046-0.454-0.8-1.292-1.077-1.516-0.24-0.22-0.52-0.28-0.52-0.28" fill="#fff"/>
<path d="m193.21 206.73s-0.677-0.162-1.154 0.123c-0.462 0.3-0.308 0.523-0.308 0.523s0.707 0.555 1.215 0.647c0.508 0.076 1.615 0.554 1.555 0.168-0.047-0.361-0.662-1.038-0.862-1.23-0.22-0.18-0.45-0.23-0.45-0.23" fill="#fff"/>
<path d="m191.28 211.74s-0.585-0.139-0.985 0.107c-0.399 0.254-0.276 0.461-0.276 0.461s0.615 0.469 1.046 0.531c0.431 0.085 1.384 0.493 1.338 0.162-0.03-0.315-0.569-0.9-0.738-1.054-0.2-0.17-0.39-0.21-0.39-0.21" fill="#fff"/>
<path d="m189.3 216.5s-0.601-0.131-1 0.123c-0.386 0.238-0.247 0.438-0.247 0.438s0.585 0.477 1.031 0.554c0.446 0.062 1.384 0.469 1.338 0.162-0.03-0.339-0.569-0.916-0.738-1.077-0.18-0.15-0.38-0.19-0.38-0.19" fill="#fff"/>
<path d="m60.52 240.72s-0.992 1.922-0.5 2.977c0.485 1.062 1.823-1.685 1.823-1.685s1.384-2.739 0.823-3.238c-0.569-0.51-0.899 0.9-2.146 1.94" fill="#fff"/>
<path d="m200.54 487.68v-3.737c0-8.493 4.293-10.154 16.831-10.215 11.538 0.061 15.614 1.507 15.614 8.83v28.26h4.261v6.369h-28.183c-5.938 0-9.814-4.077-9.814-9.092v-5.724c0-4.938 2.522-9.245 11.353-9.292h11.015v-8.6c0-4.492-0.308-5.03-4.814-5.03h-0.047c-5.399 0-5.753 0.708-5.753 5.03v3.2h-10.47m13.08 10.14c-2.215 0-3.523 1.784-3.523 3.999v5.461c0 2.201 0.939 3.954 3.523 3.985h3.969c2.185 0 3.97-0.677 3.97-3.985l0.03-9.46h-3.754-4.22z"/>
<path d="m173.74 484.38v-9.88h-15.722v5.877h4.192v30.429h-4.192v6.385h19.692v-6.385h-3.97v-16.32c0-1.522 9.269-13.229 9.269-11.877v16.199h10.893v-18.229c0-4.169-2.724-6.86-7.693-6.86-5.91 0-9.9 7.43-12.47 10.65"/>
<polyline points="299.06 510.78 299.06 474.5 283.02 474.5 283.02 480.38 287.51 480.38 287.51 510.78 283.02 510.78 283.02 517.19 303.28 517.19 303.28 510.78 299.06 510.78"/>
<path d="m133.29 484.38v-9.88h-15.722v5.877h4.192v30.429h-4.192v6.385h19.676v-6.385h-3.954v-16.32c0-1.522 9.261-13.229 9.261-11.877v16.199h10.884v-18.229c0-4.169-2.708-6.86-7.684-6.86-5.91 0-9.9 7.43-12.47 10.65"/>
<path d="m111.55 503.21h-11.03v3.2c0 4.339-0.723 4.523-6.1 4.584h-0.077c-6.162 0.031-5.815-0.584-5.746-4.584v-7.585h22.952v-16.476c0-5.97-4.507-8.477-16.399-8.522h-1.707c-12.838 0.061-16.253 2.984-16.253 10.369v24.121c0 8.122 4.799 9.492 16.491 9.815h1.276c12.762-0.293 16.592-1.17 16.592-8.754v-6.16m-22.831-20.25c0-2.245 0.677-3.354 3.246-3.385h4.838c2 0 3.115 0.893 3.115 2.492v12.354h-11.2v-11.46z" clip-rule="evenodd" fill-rule="evenodd"/>
<line y2="458.01" stroke-width=".74" x1="293.25" stroke-miterlimit="10" fill="none" y1="465.73" x2="293.25" stroke="#000"/>
<path d="m257.25 484.38v-9.88h-15.738v5.877h4.185v30.429h-4.185v6.385h19.691v-6.385h-3.953v-16.32c0-1.522 9.246-13.229 9.246-11.877v16.199h10.907v-18.229c0-4.169-2.74-6.86-7.725-6.86-5.9 0-9.9 7.43-12.45 10.65"/>
<polyline points="63.435 496.44 63.435 490.75 57.305 490.75 57.305 510.82 67.927 510.82 67.927 517.19 36.783 517.19 36.783 510.82 45.067 510.82 45.067 465.73 38.56 465.73 38.56 457.98 281.14 457.98 281.14 465.73 57.305 465.73 57.305 483.84 63.435 483.84 63.435 478.48 70.489 478.48 70.489 496.44 63.435 496.44"/>
<rect clip-rule="evenodd" fill-rule="evenodd" width="11.568" height="7.631" x="287.34" y="457.7"/>
</svg>
