<?xml version="1.0" encoding="UTF-8" standalone="no"?>
<!-- Created with Inkscape (http://www.inkscape.org/) -->

<svg
   xmlns:dc="http://purl.org/dc/elements/1.1/"
   xmlns:cc="http://creativecommons.org/ns#"
   xmlns:rdf="http://www.w3.org/1999/02/22-rdf-syntax-ns#"
   xmlns:svg="http://www.w3.org/2000/svg"
   xmlns="http://www.w3.org/2000/svg"
   xmlns:xlink="http://www.w3.org/1999/xlink"
   xmlns:sodipodi="http://sodipodi.sourceforge.net/DTD/sodipodi-0.dtd"
   xmlns:inkscape="http://www.inkscape.org/namespaces/inkscape"
   width="1200"
   height="800"
   id="svg13193"
   version="1.1"
   inkscape:version="0.48.5 r10040"
   sodipodi:docname="bed3.svg">
  <defs
     id="defs13195">
    <linearGradient
       id="linearGradient14157">
      <stop
         style="stop-color:#138a14;stop-opacity:1;"
         offset="0"
         id="stop14159" />
      <stop
         style="stop-color:#0e690f;stop-opacity:1;"
         offset="1"
         id="stop14161" />
    </linearGradient>
    <linearGradient
       inkscape:collect="always"
       xlink:href="#linearGradient14157"
       id="linearGradient14163"
       x1="836.5625"
       y1="151.42188"
       x2="1024.5625"
       y2="151.42188"
       gradientUnits="userSpaceOnUse"
       gradientTransform="matrix(0.99934154,-0.0362834,0.0362834,0.99934154,-4.9869803,284.60761)" />
  </defs>
  <sodipodi:namedview
     id="base"
     pagecolor="#ffffff"
     bordercolor="#666666"
     borderopacity="1.0"
     inkscape:pageopacity="0.0"
     inkscape:pageshadow="2"
     inkscape:zoom="0.7"
     inkscape:cx="582.29208"
     inkscape:cy="584.61945"
     inkscape:document-units="px"
     inkscape:current-layer="layer1"
     showgrid="false"
     inkscape:snap-bbox="true"
     inkscape:snap-page="false"
     inkscape:window-width="1413"
     inkscape:window-height="907"
     inkscape:window-x="378"
     inkscape:window-y="6"
     inkscape:window-maximized="0"
     inkscape:object-nodes="true"
     inkscape:snap-global="false"
     inkscape:object-paths="true"
     showguides="true"
     inkscape:guide-bbox="true" />
  <metadata
     id="metadata13198">
    <rdf:RDF>
      <cc:Work
         rdf:about="">
        <dc:format>image/svg+xml</dc:format>
        <dc:type
           rdf:resource="http://purl.org/dc/dcmitype/StillImage" />
        <dc:title></dc:title>
      </cc:Work>
    </rdf:RDF>
  </metadata>
  <g
     inkscape:label="Layer 1"
     inkscape:groupmode="layer"
     id="layer1"
     transform="translate(0,-252.36218)">
    <path
       style="fill:#28210f;stroke:#000000;stroke-width:2.50000000000000000;stroke-linecap:round;stroke-linejoin:round;stroke-opacity:1;fill-opacity:1;stroke-miterlimit:4;stroke-dasharray:none"
       d="m 1150.5637,655.04311 2.0204,-42.42641 -53.0331,-3.53553 16.6676,45.45686 z"
       id="path3816"
       inkscape:connector-curvature="0"
       transform="translate(0,252.36218)" />
    <path
       style="fill:#d2cab4;fill-opacity:1;stroke:#000000;stroke-width:2.50000000000000000;stroke-linecap:round;stroke-linejoin:round;stroke-opacity:1;stroke-miterlimit:4;stroke-dasharray:none"
       d="m 1000.051,395.93898 154.5534,-39.39595 -3.0305,261.62951 -153.54321,-49.49747 z"
       id="path3770"
       inkscape:connector-curvature="0"
       transform="translate(0,252.36218)"
       sodipodi:nodetypes="ccccc" />
    <path
       style="fill:#847d68;stroke:#000000;stroke-width:2.50000000000000000;stroke-linecap:round;stroke-linejoin:round;stroke-opacity:1;fill-opacity:1;stroke-miterlimit:4;stroke-dasharray:none"
       d="m 995.00026,395.93898 6.06094,-1.01015 -1.0102,177.28177 -6.56597,-1.51523 z"
       id="path3772"
       inkscape:connector-curvature="0"
       transform="translate(0,252.36218)" />
    <path
       style="fill:#847d68;stroke:#000000;stroke-width:2.50000000000000000;stroke-linecap:round;stroke-linejoin:round;stroke-opacity:1;fill-opacity:1;stroke-miterlimit:4;stroke-dasharray:none"
       d="m 1153.0891,356.54303 6.566,-2.0203 -3.5355,308.09652 -6.566,-2.52538 z"
       id="path3778"
       inkscape:connector-curvature="0"
       transform="translate(0,252.36218)" />
    <path
       style="fill:#5b533d;stroke:#000000;stroke-width:2.50000000000000000;stroke-linecap:round;stroke-linejoin:round;stroke-opacity:1;fill-opacity:1;stroke-miterlimit:4;stroke-dasharray:none"
       d="m 1148.0384,739.39085 -66.165,-28.28427 66.67,1.01015 z"
       id="path3786"
       inkscape:connector-curvature="0"
       transform="translate(0,252.36218)" />
    <path
       style="fill:#847d68;stroke:#000000;stroke-width:2.50000000000000000;stroke-linecap:round;stroke-linejoin:round;stroke-opacity:1;fill-opacity:1;stroke-miterlimit:4;stroke-dasharray:none"
       d="m 1153.5942,817.17259 1.0102,-108.08632 -7.5762,-2.0203 -0.5051,109.60155 z"
       id="path3784"
       inkscape:connector-curvature="0"
       transform="translate(0,252.36218)" />
    <path
       style="fill:#5b533d;fill-opacity:1;stroke:#000000;stroke-width:2.50000000000000000;stroke-linecap:round;stroke-linejoin:round;stroke-opacity:1;stroke-miterlimit:4;stroke-dasharray:none"
       d="m 998.03071,789.39339 -7.07106,-4.0406 1.01015,-80.81221 5.55584,2.52539 z"
       id="path3790"
       inkscape:connector-curvature="0"
       transform="translate(0,252.36218)"
       sodipodi:nodetypes="ccccc" />
    <path
       style="fill:#a9a087;stroke:#000000;stroke-width:2.50000000000000000;stroke-linecap:round;stroke-linejoin:round;stroke-opacity:1;fill-opacity:1;stroke-miterlimit:4;stroke-dasharray:none"
       d="m 189.90868,784.84771 -0.50508,-84.34774 11.61676,0 0,84.85282 z"
       id="path3792"
       inkscape:connector-curvature="0"
       transform="translate(0,252.36218)" />
    <path
       style="fill:#5f5741;fill-opacity:1;stroke:#000000;stroke-width:2.50000000000000000;stroke-linecap:round;stroke-linejoin:round;stroke-opacity:1;stroke-miterlimit:4;stroke-dasharray:none"
       d="m 201.02036,785.35279 5.55584,-3.53554 0.50507,-87.88327 -6.06091,5.55584 z"
       id="path3794"
       inkscape:connector-curvature="0"
       transform="translate(0,252.36218)"
       sodipodi:nodetypes="ccccc" />
    <path
       style="fill:#d2cab4;stroke:#000000;stroke-width:2.50000000000000000;stroke-linecap:round;stroke-linejoin:round;stroke-opacity:1;fill-opacity:1;stroke-miterlimit:4;stroke-dasharray:none"
       d="m 30.809653,615.64716 44.951788,-10.6066 7.071068,4.54569 -24.243661,6.56599 z"
       id="path3798"
       inkscape:connector-curvature="0"
       transform="translate(0,252.36218)" />
    <path
       style="fill:#5b533d;stroke:#000000;stroke-width:2.50000000000000000;stroke-linecap:round;stroke-linejoin:round;stroke-opacity:1;fill-opacity:1;stroke-miterlimit:4;stroke-dasharray:none"
       d="m 65.659915,805.55584 132.835065,-79.29698 0,-30.30457 -131.319836,1.51523 z"
       id="path3806"
       inkscape:connector-curvature="0"
       transform="translate(0,252.36218)" />
    <path
       style="fill:#353127;stroke:#000000;stroke-width:2.50000000000000000;stroke-linecap:round;stroke-linejoin:round;stroke-opacity:1;fill-opacity:1;stroke-miterlimit:4;stroke-dasharray:none"
       d="m 59.599,621.203 15.152288,-4.04061 0.505077,27.27412 -16.667517,8.58629 z"
       id="path3808"
       inkscape:connector-curvature="0"
       transform="translate(0,252.36218)" />
    <path
       style="fill:#363226;stroke:#000000;stroke-width:2.50000000000000000;stroke-linecap:round;stroke-linejoin:round;stroke-opacity:1;fill-opacity:1;stroke-miterlimit:4;stroke-dasharray:none"
       d="m 93.944187,654.03296 11.616753,-10.6066 -30.809652,1.01015 -16.16244,9.09137 z"
       id="path3810"
       inkscape:connector-curvature="0"
       transform="translate(0,252.36218)" />
    <path
       style="fill:#7b7666;stroke:#000000;stroke-width:2.50000000000000000;stroke-linecap:round;stroke-linejoin:round;stroke-opacity:1;fill-opacity:1;stroke-miterlimit:4;stroke-dasharray:none"
       d="m 1010.1525,788.88832 1.0102,-81.82235 -14.14214,-0.50508 0,82.32743 z"
       id="path3788"
       inkscape:connector-curvature="0"
       transform="translate(0,252.36218)" />
    <path
       style="fill:#837c69;stroke:#000000;stroke-width:2.50000000000000000;stroke-linecap:round;stroke-linejoin:round;stroke-opacity:1;fill-opacity:1;stroke-miterlimit:4;stroke-dasharray:none"
       d="m 61.619305,891.92388 6.565992,-5.55584 -0.505076,-183.84776 -7.071068,3.03046 z"
       id="path3804"
       inkscape:connector-curvature="0"
       transform="translate(0,252.36218)" />
    <path
       style="fill:#f5f0e3;stroke:#000000;stroke-width:2.50000000000000000;stroke-linecap:round;stroke-linejoin:round;stroke-opacity:1;fill-opacity:1;stroke-miterlimit:4;stroke-dasharray:none"
       d="m 1156.6247,651.50758 -1100.056157,0.50507 0,62.62946 1100.561157,2.02031 z"
       id="path3782"
       inkscape:connector-curvature="0"
       transform="translate(0,252.36218)" />
    <path
       style="fill:#f5f0e3;stroke:#000000;stroke-width:2.50000000000000000;stroke-linecap:round;stroke-linejoin:round;stroke-opacity:1;fill-opacity:1;stroke-miterlimit:4;stroke-dasharray:none"
       d="m 1179.8582,354.01765 -20.2031,0.50508 -6.0609,462.64986 22.7284,-0.50507 z"
       id="path3780"
       inkscape:connector-curvature="0"
       transform="translate(0,252.36218)" />
    <path
       style="fill:#d2cab4;stroke:#000000;stroke-width:2.50000000000000000;stroke-linecap:round;stroke-linejoin:round;stroke-opacity:1;fill-opacity:1;stroke-miterlimit:4;stroke-dasharray:none"
       d="m 991.46472,390.38314 0,8.5863 167.68528,-42.42641 0,-12.12183 z"
       id="path3774"
       inkscape:connector-curvature="0"
       transform="translate(0,252.36218)" />
    <path
       style="fill:#f5f0e3;stroke:#000000;stroke-width:2.50000000000000000;stroke-linecap:round;stroke-linejoin:round;stroke-opacity:1;fill-opacity:1;stroke-miterlimit:4;stroke-dasharray:none"
       d="m 1187.4343,343.91613 -28.2843,0.50507 0,12.12183 28.7894,-1.01015 z"
       id="path3776"
       inkscape:connector-curvature="0"
       transform="translate(0,252.36218)" />
    <path
       style="fill:#f5f0e3;stroke:#000000;stroke-width:2.50000000000000000;stroke-linecap:round;stroke-linejoin:round;stroke-opacity:1;fill-opacity:1;stroke-miterlimit:4;stroke-dasharray:none"
       d="m 38.385797,622.21315 22.223356,0 1.515229,269.71073 -20.708128,0.50508 z"
       id="path3802"
       inkscape:connector-curvature="0"
       transform="translate(0,252.36218)" />
    <path
       style="fill:#635c48;stroke:#000000;stroke-width:2.50000000000000000;stroke-linecap:round;stroke-linejoin:round;stroke-opacity:1;fill-opacity:1;stroke-miterlimit:4;stroke-dasharray:none"
       d="m 58.083771,616.65731 0.505077,6.56599 24.748737,-7.57614 0,-5.55584 z"
       id="path3800"
       inkscape:connector-curvature="0"
       transform="translate(0,252.36218)" />
    <path
       style="fill:#f5f0e3;stroke:#000000;stroke-width:2.50000000000000000;stroke-linecap:round;stroke-linejoin:round;stroke-opacity:1;fill-opacity:1;stroke-miterlimit:4;stroke-dasharray:none"
       d="m 30.304576,615.64716 0.505077,7.57614 28.284271,0.50508 0,-7.07107 z"
       id="path3796"
       inkscape:connector-curvature="0"
       transform="translate(0,252.36218)" />
    <path
       style="fill:#bff2be;stroke:#000000;stroke-width:2.50000000000000000;stroke-linecap:round;stroke-linejoin:round;stroke-opacity:1;fill-opacity:1;stroke-miterlimit:4;stroke-dasharray:none"
       d="m 70,577.14286 c 4.285714,-5 113.57143,-25.71429 130,-26.42857 16.42857,-0.71429 247.14286,-2.85715 262.85714,-2.14286 15.71429,0.71428 375,1.42857 394.28572,2.14286 19.28571,0.71428 152.85714,2.85714 156.42854,2.85714 3.5715,0 122.1429,15.71428 130,22.14286 7.8572,6.42857 -2.1428,47.85714 -2.1428,47.85714 L 87.857143,626.42857 z"
       id="path3814"
       inkscape:connector-curvature="0"
       transform="translate(0,252.36218)" />
    <path
       style="fill:#adeeab;fill-opacity:1;stroke:#000000;stroke-width:2.50000000000000000;stroke-linecap:round;stroke-linejoin:round;stroke-opacity:1;stroke-miterlimit:4;stroke-dasharray:none"
       d="M 69.913342,644.24727 C 66.812599,638.86925 66.428571,582.85714 70.714286,577.14286 75,571.42857 270.71429,571.42857 280,571.42857 c 9.28571,0 692.14286,-1.42857 702.85714,-1.42857 10.71429,0 159.28566,1.42857 163.57136,7.85714 4.2857,6.42857 2.7296,66.11919 -1.4681,70.14231 -4.1978,4.02312 -33.1445,2.85168 -42.8832,2.56373 -8.9511,-0.26466 -993.61908,0.81898 -1000.57834,0.44187 -9.10302,0.0644 -28.484775,-1.37976 -31.585518,-6.75778 z"
       id="path3812"
       inkscape:connector-curvature="0"
       transform="translate(0,252.36218)"
       sodipodi:nodetypes="zsssszscz" />
    <path
       style="color:#000000;fill:#de4feb;fill-opacity:1;fill-rule:nonzero;stroke:none;stroke-width:4.89443541;marker:none;visibility:visible;display:inline;overflow:visible;enable-background:accumulate"
       inkscape:transform-center-x="-21.934674"
       inkscape:transform-center-y="5.8871083"
       d="m 941.02912,811.95999 c -8.77077,-1.22291 -7.57491,0.0303 -7.79185,0.93251 -2.9504,-0.91441 -5.5855,-1.97217 -11.67645,-1.45877 -4.13539,1.0382 0.44835,1.91113 5.90739,2.76748 -4.62841,-0.14333 -9.85558,-0.43122 -4.83266,1.75563 5.002,2.02228 8.25222,1.48733 11.39033,0.7887 0.60954,1.35872 2.1134,2.53369 8.9436,2.61435 6.24961,0.0808 6.17161,-0.77471 1.18426,-2.3567 4.39997,0.49215 9.97655,1.6037 10.06506,-0.17381 -1.22589,-1.51514 -4.5845,-2.30945 -10.72983,-2.16188 2.77067,-0.77966 5.33416,-1.5664 -2.45988,-2.70751 z"
       id="path3971-6-8-7"
       inkscape:connector-curvature="0"
       sodipodi:nodetypes="ccccccccccc" />
    <path
       style="color:#000000;fill:#fff626;fill-opacity:1;fill-rule:nonzero;stroke:none;stroke-width:4.89443541;marker:none;visibility:visible;display:inline;overflow:visible;enable-background:accumulate"
       inkscape:transform-center-x="0.16099917"
       inkscape:transform-center-y="0.063021795"
       d="m 896.97774,805.12752 c 8.34668,0.69186 6.55294,1.57064 6.19687,2.42291 3.11127,-0.21781 6.0355,-0.62827 11.0097,1.07267 2.96106,1.77252 -1.54211,1.62037 -6.79459,1.27501 4.10169,0.81473 8.81001,1.62198 3.13305,2.55716 -5.55954,0.79205 -8.05636,-0.34936 -10.35713,-1.61452 -1.34865,1.09274 -3.36224,1.83869 -9.33624,0.51917 -5.47034,-1.20106 -4.88649,-1.95142 0.39465,-2.3521 -4.11398,-0.45575 -9.62243,-0.59649 -8.62671,-2.20656 1.97772,-1.10726 5.37064,-1.13433 10.61277,0.25004 -1.93318,-1.26287 -3.68232,-2.48987 3.76763,-1.92378 z"
       id="path3971-2-63-1"
       inkscape:connector-curvature="0"
       sodipodi:nodetypes="ccccccccccc" />
    <path
       style="fill:none;stroke:#000000;stroke-width:2.5;stroke-linecap:round;stroke-linejoin:round;stroke-miterlimit:4;stroke-opacity:1;stroke-dasharray:none"
       d="m 70,829.50504 c 4.285714,-5 113.57143,-25.71429 130,-26.42857 16.42857,-0.71429 247.14286,-2.85715 262.85714,-2.14286 15.71429,0.71428 375,1.42857 394.28572,2.14286 19.28571,0.71428 152.85714,2.85714 156.42854,2.85714 3.5715,0 122.1429,15.71428 130,22.14286"
       id="path3814-1"
       inkscape:connector-curvature="0"
       sodipodi:nodetypes="cssssc" />
    <path
       style="fill:none;fill-opacity:1;stroke:#000000;stroke-width:2.50000000000000000;stroke-linecap:round;stroke-linejoin:round;stroke-miterlimit:4;stroke-opacity:1;stroke-dasharray:none"
       d="M 69.913342,896.60945 C 66.812599,891.23143 66.428571,835.21932 70.714286,829.50504 75,823.79075 270.71429,823.79075 280,823.79075 c 9.28571,0 692.14286,-1.42857 702.85714,-1.42857 10.71429,0 159.28566,1.42857 163.57136,7.85714 4.2857,6.42857 2.7296,66.11919 -1.4681,70.14231 -4.1978,4.02312 -33.1445,2.85168 -42.8832,2.56373 -8.9511,-0.26466 -993.61908,0.81898 -1000.57834,0.44187 -9.10302,0.0644 -28.484775,-1.37976 -31.585518,-6.75778 z"
       id="path3812-7"
       inkscape:connector-curvature="0"
       sodipodi:nodetypes="zsssszscz" />
    <path
       sodipodi:type="arc"
       style="color:#000000;fill:#e9fc1c;fill-opacity:1;fill-rule:nonzero;stroke:none;stroke-width:3;marker:none;visibility:visible;display:inline;overflow:visible;enable-background:accumulate"
       id="path3969-8-2-7"
       sodipodi:cx="96.3433"
       sodipodi:cy="626.75885"
       sodipodi:rx="7.1973367"
       sodipodi:ry="7.323606"
       d="m 103.54064,626.75885 a 7.1973367,7.323606 0 1 1 -14.394677,0 7.1973367,7.323606 0 1 1 14.394677,0 z"
       transform="matrix(1,0,-0.5213381,-0.27444581,1166.7416,987.13345)"
       inkscape:transform-center-x="-21.175047"
       inkscape:transform-center-y="5.6770472" />
    <path
       sodipodi:type="arc"
       style="color:#000000;fill:#cd820f;fill-opacity:1;fill-rule:nonzero;stroke:none;stroke-width:3;marker:none;visibility:visible;display:inline;overflow:visible;enable-background:accumulate"
       id="path3969-1-78-7"
       sodipodi:cx="96.3433"
       sodipodi:cy="626.75885"
       sodipodi:rx="7.1973367"
       sodipodi:ry="7.323606"
       d="m 103.54064,626.75885 a 7.1973367,7.323606 0 1 1 -14.394677,0 7.1973367,7.323606 0 1 1 14.394677,0 z"
       transform="matrix(-0.86751402,-0.20376346,0.61786591,-0.13957994,595.47112,916.03106)" />
    <path
       style="fill:#f88fce;stroke:#000000;stroke-width:2.50000000000000000;stroke-linecap:round;stroke-linejoin:round;stroke-opacity:1;fill-opacity:1;stroke-miterlimit:4;stroke-dasharray:none"
       d="m 856.60936,544.43141 c 2.0203,-11.11168 29.29442,-30.80966 42.42641,-33.84011 13.13198,-3.03046 74.75128,-10.10153 95.45941,-10.10153 20.70812,0 42.93152,-2.0203 59.09392,3.03046 16.1624,5.05076 47.4772,15.15229 52.5279,15.15229 5.0508,0 26.264,5.05076 30.3046,12.6269 4.0406,7.57615 11.6168,28.78935 8.0812,32.82996 -3.5355,4.04061 -10.1015,-9.59645 -13.637,-7.07107 -3.5356,2.52538 -12.1219,11.11168 -21.7183,12.12183 -9.5965,1.01016 -71.7208,0.50508 -84.8528,0.50508 -13.132,0 -76.26654,-3.53553 -80.30715,-6.06092 -4.04061,-2.52538 -8.08122,-5.55583 -8.08122,-5.55583 0,0 -3.03045,6.56599 -11.61675,7.57614 -8.5863,1.01015 -33.33503,-11.61675 -35.35534,-13.63706 -2.02031,-2.0203 -9.09137,2.02031 -12.12183,0 -3.03046,-2.0203 -6.06092,-6.06092 -9.09137,-5.05076 -3.03046,1.01015 -7.07107,2.0203 -11.11168,-2.52538 z"
       id="path3818"
       inkscape:connector-curvature="0"
       transform="translate(0,252.36218)" />
    <path
       transform="matrix(0.61879925,0,0,0.60713818,40.395652,499.19964)"
       style="color:#000000;fill:#de4feb;fill-opacity:1;fill-rule:nonzero;stroke:none;stroke-width:4.89443540999999980;stroke-linecap:round;stroke-linejoin:round;stroke-miterlimit:4;stroke-opacity:1;stroke-dashoffset:0;marker:none;visibility:visible;display:inline;overflow:visible;enable-background:accumulate"
       inkscape:transform-center-x="0.5098159"
       inkscape:transform-center-y="-1.0676948"
       d="m 101.59008,633.50437 c -10.41974,7.33923 -12.334203,-0.18205 -15.454527,-5.59644 -1.960867,5.48779 -2.97213,11.83589 -14.39137,8.75476 -9.870009,-6.23073 -5.142279,-11.46958 1.050862,-16.60886 -7.03967,0.86018 -14.603147,2.58789 -13.199196,-10.53634 1.875364,-12.13664 8.770034,-8.92614 15.985973,-4.73333 -3.185986,-8.15428 -4.362644,-15.20584 6.427637,-15.6899 9.851449,-0.48493 12.351738,4.6494 9.148448,14.14358 5.599678,-2.95358 11.199353,-9.62445 16.799033,1.04312 2.67012,9.09306 -0.31911,13.86009 -10.703197,12.97445 6.870927,4.67903 13.428767,9.4006 4.336337,16.24896 z"
       id="path3971"
       inkscape:connector-curvature="0"
       sodipodi:nodetypes="ccccccccccc" />
    <path
       sodipodi:type="arc"
       style="color:#000000;fill:#e9fc1c;fill-opacity:1;fill-rule:nonzero;stroke:none;stroke-width:3;stroke-linecap:round;stroke-linejoin:round;stroke-miterlimit:4;stroke-opacity:1;stroke-dasharray:none;stroke-dashoffset:0;marker:none;visibility:visible;display:inline;overflow:visible;enable-background:accumulate"
       id="path3969"
       sodipodi:cx="96.3433"
       sodipodi:cy="626.75885"
       sodipodi:rx="7.1973367"
       sodipodi:ry="7.323606"
       d="m 103.54064,626.75885 a 7.1973367,7.323606 0 1 1 -14.394677,0 7.1973367,7.323606 0 1 1 14.394677,0 z"
       transform="translate(-3.788072,245.54365)" />
    <path
       style="color:#000000;fill:#f56ea2;fill-opacity:1;fill-rule:nonzero;stroke:none;stroke-width:4.89443540999999980;marker:none;visibility:visible;display:inline;overflow:visible;enable-background:accumulate"
       inkscape:transform-center-x="0.55537708"
       inkscape:transform-center-y="-0.37726315"
       d="m 126.21539,864.51897 c -7.05857,-3.40661 -3.6726,-6.69161 -1.76744,-9.99385 -3.49647,0.59006 -7.157,1.949 -9.01944,-5.11938 0.2738,-7.17899 4.48426,-6.20555 9.0899,-4.41373 -2.6051,-3.53018 -5.82829,-7.08214 1.52976,-10.2612 6.98068,-2.62934 7.39233,2.04317 7.38351,7.18303 3.33166,-4.15896 6.69507,-6.90613 10.24761,-1.24499 3.26613,5.15569 1.31937,8.04033 -4.67194,9.16291 3.27036,2.12773 8.50329,3.14104 4.58222,9.35228 -3.98492,4.16282 -7.41507,3.98343 -10.12035,-1.86975 -0.37093,5.09998 -0.85998,10.04424 -7.25383,7.20468 z"
       id="path3971-3"
       inkscape:connector-curvature="0"
       sodipodi:nodetypes="ccccccccccc" />
    <path
       sodipodi:type="arc"
       style="color:#000000;fill:#34ad45;fill-opacity:1;fill-rule:nonzero;stroke:none;stroke-width:3;marker:none;visibility:visible;display:inline;overflow:visible;enable-background:accumulate"
       id="path3969-2"
       sodipodi:cx="96.3433"
       sodipodi:cy="626.75885"
       sodipodi:rx="7.1973367"
       sodipodi:ry="7.323606"
       d="m 103.54064,626.75885 a 7.1973367,7.323606 0 1 1 -14.394677,0 7.1973367,7.323606 0 1 1 14.394677,0 z"
       transform="matrix(0.49377871,0.8695876,-0.8695876,0.49377871,628.39854,456.26231)" />
    <path
       style="color:#000000;fill:#fff626;fill-opacity:1;fill-rule:nonzero;stroke:none;stroke-width:4.89443540999999980;marker:none;visibility:visible;display:inline;overflow:visible;enable-background:accumulate"
       inkscape:transform-center-x="-0.48993243"
       inkscape:transform-center-y="0.25517838"
       d="m 174.75499,859.48729 c 7.31996,2.80118 4.22213,6.35919 2.60131,9.80989 3.4345,-0.88189 6.96784,-2.54375 9.41788,4.34305 0.33067,7.17659 -3.94671,6.56056 -8.68668,5.16226 2.89265,3.29868 6.40302,6.56711 -0.66173,10.35348 -6.73493,3.20686 -7.53792,-1.41451 -7.96122,-6.53692 -2.97025,4.42432 -6.09081,7.44451 -10.10667,2.10205 -3.68799,-4.86287 -1.99062,-7.90095 3.88512,-9.52322 -3.43766,-1.84527 -8.73725,-2.4151 -5.35221,-8.93397 3.62087,-4.48308 7.05396,-4.59268 10.24171,1.01237 -0.0591,-5.11312 0.0126,-10.08099 6.62249,-7.78899 z"
       id="path3971-2"
       inkscape:connector-curvature="0"
       sodipodi:nodetypes="ccccccccccc" />
    <path
       sodipodi:type="arc"
       style="color:#000000;fill:#cd820f;fill-opacity:1;fill-rule:nonzero;stroke:none;stroke-width:3;marker:none;visibility:visible;display:inline;overflow:visible;enable-background:accumulate"
       id="path3969-1"
       sodipodi:cx="96.3433"
       sodipodi:cy="626.75885"
       sodipodi:rx="7.1973367"
       sodipodi:ry="7.323606"
       d="m 103.54064,626.75885 a 7.1973367,7.323606 0 1 1 -14.394677,0 7.1973367,7.323606 0 1 1 14.394677,0 z"
       transform="matrix(-0.56513289,-0.82499989,0.82499989,-0.56513289,-291.33039,1308.5149)" />
    <path
       style="color:#000000;fill:#de4feb;fill-opacity:1;fill-rule:nonzero;stroke:none;stroke-width:4.89443541;marker:none;visibility:visible;display:inline;overflow:visible;enable-background:accumulate"
       inkscape:transform-center-x="0.5098159"
       inkscape:transform-center-y="1.0676977"
       d="m 222.21854,837.2178 c -6.44773,-4.45593 -7.63239,0.11053 -9.56325,3.39781 -1.21338,-3.33185 -1.83915,-7.18602 -8.90537,-5.31535 -6.10755,3.78292 -3.18204,6.96362 0.65028,10.08387 -4.35615,-0.52224 -9.03643,-1.5712 -8.16766,6.39702 1.16048,7.36862 5.42689,5.4194 9.89211,2.87378 -1.97148,4.95078 -2.6996,9.23205 3.97742,9.52594 6.09607,0.29442 7.64324,-2.82283 5.66105,-8.58711 3.46508,1.79324 6.93015,5.84338 10.39523,-0.63331 1.65227,-5.52075 -0.19747,-8.41499 -6.62313,-7.87729 4.25172,-2.84082 8.30971,-5.70746 2.68332,-9.86536 z"
       id="path3971-6"
       inkscape:connector-curvature="0"
       sodipodi:nodetypes="ccccccccccc" />
    <path
       sodipodi:type="arc"
       style="color:#000000;fill:#e9fc1c;fill-opacity:1;fill-rule:nonzero;stroke:none;stroke-width:3;marker:none;visibility:visible;display:inline;overflow:visible;enable-background:accumulate"
       id="path3969-8"
       sodipodi:cx="96.3433"
       sodipodi:cy="626.75885"
       sodipodi:rx="7.1973367"
       sodipodi:ry="7.323606"
       d="m 103.54064,626.75885 a 7.1973367,7.323606 0 1 1 -14.394677,0 7.1973367,7.323606 0 1 1 14.394677,0 z"
       transform="matrix(1,0,0,-1,115.17095,1475.4985)" />
    <path
       style="color:#000000;fill:#f56ea2;fill-opacity:1;fill-rule:nonzero;stroke:none;stroke-width:4.89443541;marker:none;visibility:visible;display:inline;overflow:visible;enable-background:accumulate"
       inkscape:transform-center-x="0.55537708"
       inkscape:transform-center-y="0.37726331"
       d="m 246.5894,859.64831 c -7.05857,3.40661 -3.6726,6.69161 -1.76744,9.99385 -3.49647,-0.59006 -7.157,-1.949 -9.01944,5.11938 0.2738,7.17899 4.48426,6.20555 9.0899,4.41373 -2.6051,3.53018 -5.82829,7.08214 1.52976,10.2612 6.98068,2.62934 7.39233,-2.04317 7.38351,-7.18303 3.33166,4.15896 6.69507,6.90613 10.24761,1.24499 3.26613,-5.15569 1.31937,-8.04033 -4.67194,-9.16291 3.27036,-2.12773 8.50329,-3.14104 4.58222,-9.35228 -3.98492,-4.16282 -7.41507,-3.98343 -10.12035,1.86975 -0.37093,-5.09998 -0.85998,-10.04424 -7.25383,-7.20468 z"
       id="path3971-3-5"
       inkscape:connector-curvature="0"
       sodipodi:nodetypes="ccccccccccc" />
    <path
       sodipodi:type="arc"
       style="color:#000000;fill:#34ad45;fill-opacity:1;fill-rule:nonzero;stroke:none;stroke-width:3;marker:none;visibility:visible;display:inline;overflow:visible;enable-background:accumulate"
       id="path3969-2-7"
       sodipodi:cx="96.3433"
       sodipodi:cy="626.75885"
       sodipodi:rx="7.1973367"
       sodipodi:ry="7.323606"
       d="m 103.54064,626.75885 a 7.1973367,7.323606 0 1 1 -14.394677,0 7.1973367,7.323606 0 1 1 14.394677,0 z"
       transform="matrix(0.49377871,-0.8695876,-0.8695876,-0.49377871,748.77255,1267.905)" />
    <path
       style="color:#000000;fill:#fff626;fill-opacity:1;fill-rule:nonzero;stroke:none;stroke-width:4.89443541;marker:none;visibility:visible;display:inline;overflow:visible;enable-background:accumulate"
       inkscape:transform-center-x="-0.48993243"
       inkscape:transform-center-y="-0.25517718"
       d="m 300.81368,866.01045 c 7.31996,-2.80118 4.22213,-6.35919 2.60131,-9.80989 3.4345,0.88189 6.96784,2.54375 9.41788,-4.34305 0.33067,-7.17659 -3.94671,-6.56056 -8.68668,-5.16226 2.89265,-3.29868 6.40302,-6.56711 -0.66173,-10.35348 -6.73493,-3.20686 -7.53792,1.41451 -7.96122,6.53692 -2.97025,-4.42432 -6.09081,-7.44451 -10.10667,-2.10205 -3.68799,4.86287 -1.99062,7.90095 3.88512,9.52322 -3.43766,1.84527 -8.73725,2.4151 -5.35221,8.93397 3.62087,4.48308 7.05396,4.59268 10.24171,-1.01237 -0.0591,5.11312 0.0126,10.08099 6.62249,7.78899 z"
       id="path3971-2-6"
       inkscape:connector-curvature="0"
       sodipodi:nodetypes="ccccccccccc" />
    <path
       sodipodi:type="arc"
       style="color:#000000;fill:#cd820f;fill-opacity:1;fill-rule:nonzero;stroke:none;stroke-width:3;marker:none;visibility:visible;display:inline;overflow:visible;enable-background:accumulate"
       id="path3969-1-1"
       sodipodi:cx="96.3433"
       sodipodi:cy="626.75885"
       sodipodi:rx="7.1973367"
       sodipodi:ry="7.323606"
       d="m 103.54064,626.75885 a 7.1973367,7.323606 0 1 1 -14.394677,0 7.1973367,7.323606 0 1 1 14.394677,0 z"
       transform="matrix(-0.56513289,0.82499989,0.82499989,0.56513289,-165.2717,416.98282)" />
    <path
       style="color:#000000;fill:#de4feb;fill-opacity:1;fill-rule:nonzero;stroke:none;stroke-width:4.89443541;marker:none;visibility:visible;display:inline;overflow:visible;enable-background:accumulate"
       inkscape:transform-center-x="0.5098159"
       inkscape:transform-center-y="-1.0676948"
       d="m 353.24984,886.23425 c -6.44773,4.45593 -7.6324,-0.11053 -9.56325,-3.39781 -1.21339,3.33184 -1.83916,7.18602 -8.90537,5.31535 -6.10756,-3.78292 -3.18204,-6.96362 0.65027,-10.08388 -4.35614,0.52225 -9.03642,1.57121 -8.16765,-6.39701 1.16047,-7.36862 5.42689,-5.4194 9.89211,-2.87379 -1.97149,-4.95077 -2.69961,-9.23204 3.97741,-9.52593 6.09607,-0.29442 7.64325,2.82282 5.66105,8.5871 3.46508,-1.79323 6.93016,-5.84337 10.39523,0.63332 1.65227,5.52075 -0.19746,8.41499 -6.62313,7.87729 4.25173,2.84081 8.30971,5.70746 2.68333,9.86536 z"
       id="path3971-8"
       inkscape:connector-curvature="0"
       sodipodi:nodetypes="ccccccccccc" />
    <path
       sodipodi:type="arc"
       style="color:#000000;fill:#e9fc1c;fill-opacity:1;fill-rule:nonzero;stroke:none;stroke-width:3;marker:none;visibility:visible;display:inline;overflow:visible;enable-background:accumulate"
       id="path3969-9"
       sodipodi:cx="96.3433"
       sodipodi:cy="626.75885"
       sodipodi:rx="7.1973367"
       sodipodi:ry="7.323606"
       d="m 103.54064,626.75885 a 7.1973367,7.323606 0 1 1 -14.394677,0 7.1973367,7.323606 0 1 1 14.394677,0 z"
       transform="translate(246.20225,247.95357)" />
    <path
       style="color:#000000;fill:#f56ea2;fill-opacity:1;fill-rule:nonzero;stroke:none;stroke-width:4.89443541;marker:none;visibility:visible;display:inline;overflow:visible;enable-background:accumulate"
       inkscape:transform-center-x="0.55537708"
       inkscape:transform-center-y="-0.37726315"
       d="m 376.20571,866.92889 c -7.05857,-3.40661 -3.6726,-6.69161 -1.76744,-9.99385 -3.49647,0.59006 -7.157,1.949 -9.01944,-5.11938 0.2738,-7.17899 4.48426,-6.20555 9.0899,-4.41373 -2.6051,-3.53018 -5.82829,-7.08214 1.52976,-10.2612 6.98068,-2.62934 7.39233,2.04317 7.38351,7.18303 3.33166,-4.15896 6.69507,-6.90613 10.24761,-1.24499 3.26613,5.15569 1.31937,8.04033 -4.67194,9.16291 3.27036,2.12773 8.50329,3.14104 4.58222,9.35228 -3.98492,4.16282 -7.41507,3.98343 -10.12035,-1.86975 -0.37093,5.09998 -0.85998,10.04424 -7.25383,7.20468 z"
       id="path3971-3-2"
       inkscape:connector-curvature="0"
       sodipodi:nodetypes="ccccccccccc" />
    <path
       sodipodi:type="arc"
       style="color:#000000;fill:#34ad45;fill-opacity:1;fill-rule:nonzero;stroke:none;stroke-width:3;marker:none;visibility:visible;display:inline;overflow:visible;enable-background:accumulate"
       id="path3969-2-79"
       sodipodi:cx="96.3433"
       sodipodi:cy="626.75885"
       sodipodi:rx="7.1973367"
       sodipodi:ry="7.323606"
       d="m 103.54064,626.75885 a 7.1973367,7.323606 0 1 1 -14.394677,0 7.1973367,7.323606 0 1 1 14.394677,0 z"
       transform="matrix(0.49377871,0.8695876,-0.8695876,0.49377871,878.38886,458.67223)" />
    <path
       style="color:#000000;fill:#fff626;fill-opacity:1;fill-rule:nonzero;stroke:none;stroke-width:4.89443541;marker:none;visibility:visible;display:inline;overflow:visible;enable-background:accumulate"
       inkscape:transform-center-x="-0.48993243"
       inkscape:transform-center-y="0.25517838"
       d="m 424.74531,861.89721 c 7.31996,2.80118 4.22213,6.35919 2.60131,9.80989 3.4345,-0.88189 6.96784,-2.54375 9.41788,4.34305 0.33067,7.17659 -3.94671,6.56056 -8.68668,5.16226 2.89265,3.29868 6.40302,6.56711 -0.66173,10.35348 -6.73493,3.20686 -7.53792,-1.41451 -7.96122,-6.53692 -2.97025,4.42432 -6.09081,7.44451 -10.10667,2.10205 -3.68799,-4.86287 -1.99062,-7.90095 3.88512,-9.52322 -3.43766,-1.84527 -8.73725,-2.4151 -5.35221,-8.93397 3.62087,-4.48308 7.05396,-4.59268 10.24171,1.01237 -0.0591,-5.11312 0.0126,-10.08099 6.62249,-7.78899 z"
       id="path3971-2-5"
       inkscape:connector-curvature="0"
       sodipodi:nodetypes="ccccccccccc" />
    <path
       sodipodi:type="arc"
       style="color:#000000;fill:#cd820f;fill-opacity:1;fill-rule:nonzero;stroke:none;stroke-width:3;marker:none;visibility:visible;display:inline;overflow:visible;enable-background:accumulate"
       id="path3969-1-4"
       sodipodi:cx="96.3433"
       sodipodi:cy="626.75885"
       sodipodi:rx="7.1973367"
       sodipodi:ry="7.323606"
       d="m 103.54064,626.75885 a 7.1973367,7.323606 0 1 1 -14.394677,0 7.1973367,7.323606 0 1 1 14.394677,0 z"
       transform="matrix(-0.56513289,-0.82499989,0.82499989,-0.56513289,-41.340072,1310.9248)" />
    <path
       style="color:#000000;fill:#de4feb;fill-opacity:1;fill-rule:nonzero;stroke:none;stroke-width:4.89443541;marker:none;visibility:visible;display:inline;overflow:visible;enable-background:accumulate"
       inkscape:transform-center-x="0.5098159"
       inkscape:transform-center-y="1.0676977"
       d="m 472.20886,839.62772 c -6.44773,-4.45593 -7.63239,0.11053 -9.56325,3.39781 -1.21338,-3.33185 -1.83915,-7.18602 -8.90537,-5.31535 -6.10755,3.78292 -3.18204,6.96362 0.65028,10.08387 -4.35615,-0.52224 -9.03643,-1.5712 -8.16766,6.39702 1.16048,7.36862 5.42689,5.4194 9.89211,2.87378 -1.97148,4.95078 -2.6996,9.23205 3.97742,9.52594 6.09607,0.29442 7.64324,-2.82283 5.66105,-8.58711 3.46508,1.79324 6.93015,5.84338 10.39523,-0.63331 1.65227,-5.52075 -0.19747,-8.41499 -6.62313,-7.87729 4.25172,-2.84082 8.30971,-5.70746 2.68332,-9.86536 z"
       id="path3971-6-3"
       inkscape:connector-curvature="0"
       sodipodi:nodetypes="ccccccccccc" />
    <path
       sodipodi:type="arc"
       style="color:#000000;fill:#e9fc1c;fill-opacity:1;fill-rule:nonzero;stroke:none;stroke-width:3;marker:none;visibility:visible;display:inline;overflow:visible;enable-background:accumulate"
       id="path3969-8-1"
       sodipodi:cx="96.3433"
       sodipodi:cy="626.75885"
       sodipodi:rx="7.1973367"
       sodipodi:ry="7.323606"
       d="m 103.54064,626.75885 a 7.1973367,7.323606 0 1 1 -14.394677,0 7.1973367,7.323606 0 1 1 14.394677,0 z"
       transform="matrix(1,0,0,-1,365.16127,1477.9084)" />
    <path
       style="color:#000000;fill:#f56ea2;fill-opacity:1;fill-rule:nonzero;stroke:none;stroke-width:4.89443541;marker:none;visibility:visible;display:inline;overflow:visible;enable-background:accumulate"
       inkscape:transform-center-x="0.55537708"
       inkscape:transform-center-y="0.37726331"
       d="m 496.57972,862.05823 c -7.05857,3.40661 -3.6726,6.69161 -1.76744,9.99385 -3.49647,-0.59006 -7.157,-1.949 -9.01944,5.11938 0.2738,7.17899 4.48426,6.20555 9.0899,4.41373 -2.6051,3.53018 -5.82829,7.08214 1.52976,10.2612 6.98068,2.62934 7.39233,-2.04317 7.38351,-7.18303 3.33166,4.15896 6.69507,6.90613 10.24761,1.24499 3.26613,-5.15569 1.31937,-8.04033 -4.67194,-9.16291 3.27036,-2.12773 8.50329,-3.14104 4.58222,-9.35228 -3.98492,-4.16282 -7.41507,-3.98343 -10.12035,1.86975 -0.37093,-5.09998 -0.85998,-10.04424 -7.25383,-7.20468 z"
       id="path3971-3-5-2"
       inkscape:connector-curvature="0"
       sodipodi:nodetypes="ccccccccccc" />
    <path
       sodipodi:type="arc"
       style="color:#000000;fill:#34ad45;fill-opacity:1;fill-rule:nonzero;stroke:none;stroke-width:3;marker:none;visibility:visible;display:inline;overflow:visible;enable-background:accumulate"
       id="path3969-2-7-3"
       sodipodi:cx="96.3433"
       sodipodi:cy="626.75885"
       sodipodi:rx="7.1973367"
       sodipodi:ry="7.323606"
       d="m 103.54064,626.75885 a 7.1973367,7.323606 0 1 1 -14.394677,0 7.1973367,7.323606 0 1 1 14.394677,0 z"
       transform="matrix(0.49377871,-0.8695876,-0.8695876,-0.49377871,998.76287,1270.3149)" />
    <path
       style="color:#000000;fill:#fff626;fill-opacity:1;fill-rule:nonzero;stroke:none;stroke-width:4.89443541;marker:none;visibility:visible;display:inline;overflow:visible;enable-background:accumulate"
       inkscape:transform-center-x="-0.48993243"
       inkscape:transform-center-y="-0.25517718"
       d="m 550.804,868.42037 c 7.31996,-2.80118 4.22213,-6.35919 2.60131,-9.80989 3.4345,0.88189 6.96784,2.54375 9.41788,-4.34305 0.33067,-7.17659 -3.94671,-6.56056 -8.68668,-5.16226 2.89265,-3.29868 6.40302,-6.56711 -0.66173,-10.35348 -6.73493,-3.20686 -7.53792,1.41451 -7.96122,6.53692 -2.97025,-4.42432 -6.09081,-7.44451 -10.10667,-2.10205 -3.68799,4.86287 -1.99062,7.90095 3.88512,9.52322 -3.43766,1.84527 -8.73725,2.4151 -5.35221,8.93397 3.62087,4.48308 7.05396,4.59268 10.24171,-1.01237 -0.0591,5.11312 0.0126,10.08099 6.62249,7.78899 z"
       id="path3971-2-6-3"
       inkscape:connector-curvature="0"
       sodipodi:nodetypes="ccccccccccc" />
    <path
       sodipodi:type="arc"
       style="color:#000000;fill:#cd820f;fill-opacity:1;fill-rule:nonzero;stroke:none;stroke-width:3;marker:none;visibility:visible;display:inline;overflow:visible;enable-background:accumulate"
       id="path3969-1-1-4"
       sodipodi:cx="96.3433"
       sodipodi:cy="626.75885"
       sodipodi:rx="7.1973367"
       sodipodi:ry="7.323606"
       d="m 103.54064,626.75885 a 7.1973367,7.323606 0 1 1 -14.394677,0 7.1973367,7.323606 0 1 1 14.394677,0 z"
       transform="matrix(-0.56513289,0.82499989,0.82499989,0.56513289,84.718618,419.39274)" />
    <path
       style="color:#000000;fill:#de4feb;fill-opacity:1;fill-rule:nonzero;stroke:none;stroke-width:4.89443541;marker:none;visibility:visible;display:inline;overflow:visible;enable-background:accumulate"
       inkscape:transform-center-x="0.5098159"
       inkscape:transform-center-y="-1.0676948"
       d="m 599.67841,886.94853 c -6.44773,4.45593 -7.63239,-0.11053 -9.56325,-3.39781 -1.21338,3.33184 -1.83915,7.18602 -8.90537,5.31535 -6.10755,-3.78292 -3.18204,-6.96362 0.65028,-10.08388 -4.35615,0.52225 -9.03642,1.57121 -8.16766,-6.39701 1.16048,-7.36862 5.42689,-5.4194 9.89211,-2.87379 -1.97148,-4.95077 -2.6996,-9.23204 3.97742,-9.52593 6.09607,-0.29442 7.64324,2.82282 5.66105,8.5871 3.46508,-1.79323 6.93015,-5.84337 10.39523,0.63332 1.65227,5.52075 -0.19747,8.41499 -6.62313,7.87729 4.25172,2.84081 8.30971,5.70746 2.68332,9.86536 z"
       id="path3971-1"
       inkscape:connector-curvature="0"
       sodipodi:nodetypes="ccccccccccc" />
    <path
       sodipodi:type="arc"
       style="color:#000000;fill:#e9fc1c;fill-opacity:1;fill-rule:nonzero;stroke:none;stroke-width:3;marker:none;visibility:visible;display:inline;overflow:visible;enable-background:accumulate"
       id="path3969-13"
       sodipodi:cx="96.3433"
       sodipodi:cy="626.75885"
       sodipodi:rx="7.1973367"
       sodipodi:ry="7.323606"
       d="m 103.54064,626.75885 a 7.1973367,7.323606 0 1 1 -14.394677,0 7.1973367,7.323606 0 1 1 14.394677,0 z"
       transform="translate(492.63082,248.66785)" />
    <path
       style="color:#000000;fill:#f56ea2;fill-opacity:1;fill-rule:nonzero;stroke:none;stroke-width:4.89443541;marker:none;visibility:visible;display:inline;overflow:visible;enable-background:accumulate"
       inkscape:transform-center-x="0.55537708"
       inkscape:transform-center-y="-0.37726315"
       d="m 622.63428,867.64317 c -7.05857,-3.40661 -3.6726,-6.69161 -1.76744,-9.99385 -3.49647,0.59006 -7.157,1.949 -9.01944,-5.11938 0.2738,-7.17899 4.48426,-6.20555 9.0899,-4.41373 -2.6051,-3.53018 -5.82829,-7.08214 1.52976,-10.2612 6.98068,-2.62934 7.39233,2.04317 7.38351,7.18303 3.33166,-4.15896 6.69507,-6.90613 10.24761,-1.24499 3.26613,5.15569 1.31937,8.04033 -4.67194,9.16291 3.27036,2.12773 8.50329,3.14104 4.58222,9.35228 -3.98492,4.16282 -7.41507,3.98343 -10.12035,-1.86975 -0.37093,5.09998 -0.85998,10.04424 -7.25383,7.20468 z"
       id="path3971-3-8"
       inkscape:connector-curvature="0"
       sodipodi:nodetypes="ccccccccccc" />
    <path
       sodipodi:type="arc"
       style="color:#000000;fill:#34ad45;fill-opacity:1;fill-rule:nonzero;stroke:none;stroke-width:3;marker:none;visibility:visible;display:inline;overflow:visible;enable-background:accumulate"
       id="path3969-2-74"
       sodipodi:cx="96.3433"
       sodipodi:cy="626.75885"
       sodipodi:rx="7.1973367"
       sodipodi:ry="7.323606"
       d="m 103.54064,626.75885 a 7.1973367,7.323606 0 1 1 -14.394677,0 7.1973367,7.323606 0 1 1 14.394677,0 z"
       transform="matrix(0.49377871,0.8695876,-0.8695876,0.49377871,1124.8175,459.38651)" />
    <path
       style="color:#000000;fill:#fff626;fill-opacity:1;fill-rule:nonzero;stroke:none;stroke-width:4.89443541;marker:none;visibility:visible;display:inline;overflow:visible;enable-background:accumulate"
       inkscape:transform-center-x="-0.48993243"
       inkscape:transform-center-y="0.25517838"
       d="m 671.17388,862.61149 c 7.31996,2.80118 4.22213,6.35919 2.60131,9.80989 3.4345,-0.88189 6.96784,-2.54375 9.41788,4.34305 0.33067,7.17659 -3.94671,6.56056 -8.68668,5.16226 2.89265,3.29868 6.40302,6.56711 -0.66173,10.35348 -6.73493,3.20686 -7.53792,-1.41451 -7.96122,-6.53692 -2.97025,4.42432 -6.09081,7.44451 -10.10667,2.10205 -3.68799,-4.86287 -1.99062,-7.90095 3.88512,-9.52322 -3.43766,-1.84527 -8.73725,-2.4151 -5.35221,-8.93397 3.62087,-4.48308 7.05396,-4.59268 10.24171,1.01237 -0.0591,-5.11312 0.0126,-10.08099 6.62249,-7.78899 z"
       id="path3971-2-2"
       inkscape:connector-curvature="0"
       sodipodi:nodetypes="ccccccccccc" />
    <path
       sodipodi:type="arc"
       style="color:#000000;fill:#cd820f;fill-opacity:1;fill-rule:nonzero;stroke:none;stroke-width:3;marker:none;visibility:visible;display:inline;overflow:visible;enable-background:accumulate"
       id="path3969-1-7"
       sodipodi:cx="96.3433"
       sodipodi:cy="626.75885"
       sodipodi:rx="7.1973367"
       sodipodi:ry="7.323606"
       d="m 103.54064,626.75885 a 7.1973367,7.323606 0 1 1 -14.394677,0 7.1973367,7.323606 0 1 1 14.394677,0 z"
       transform="matrix(-0.56513289,-0.82499989,0.82499989,-0.56513289,205.0885,1311.6391)" />
    <path
       style="color:#000000;fill:#de4feb;fill-opacity:1;fill-rule:nonzero;stroke:none;stroke-width:4.89443541;marker:none;visibility:visible;display:inline;overflow:visible;enable-background:accumulate"
       inkscape:transform-center-x="0.5098159"
       inkscape:transform-center-y="1.0676977"
       d="m 718.63743,840.342 c -6.44773,-4.45593 -7.63239,0.11053 -9.56325,3.39781 -1.21338,-3.33185 -1.83915,-7.18602 -8.90537,-5.31535 -6.10755,3.78292 -3.18204,6.96362 0.65028,10.08387 -4.35615,-0.52224 -9.03643,-1.5712 -8.16766,6.39702 1.16048,7.36862 5.42689,5.4194 9.89211,2.87378 -1.97148,4.95078 -2.6996,9.23205 3.97742,9.52594 6.09607,0.29442 7.64324,-2.82283 5.66105,-8.58711 3.46508,1.79324 6.93015,5.84338 10.39523,-0.63331 1.65227,-5.52075 -0.19747,-8.41499 -6.62313,-7.87729 4.25172,-2.84082 8.30971,-5.70746 2.68332,-9.86536 z"
       id="path3971-6-7"
       inkscape:connector-curvature="0"
       sodipodi:nodetypes="ccccccccccc" />
    <path
       sodipodi:type="arc"
       style="color:#000000;fill:#e9fc1c;fill-opacity:1;fill-rule:nonzero;stroke:none;stroke-width:3;marker:none;visibility:visible;display:inline;overflow:visible;enable-background:accumulate"
       id="path3969-8-9"
       sodipodi:cx="96.3433"
       sodipodi:cy="626.75885"
       sodipodi:rx="7.1973367"
       sodipodi:ry="7.323606"
       d="m 103.54064,626.75885 a 7.1973367,7.323606 0 1 1 -14.394677,0 7.1973367,7.323606 0 1 1 14.394677,0 z"
       transform="matrix(1,0,0,-1,611.58984,1478.6227)" />
    <path
       style="color:#000000;fill:#f56ea2;fill-opacity:1;fill-rule:nonzero;stroke:none;stroke-width:4.89443541;marker:none;visibility:visible;display:inline;overflow:visible;enable-background:accumulate"
       inkscape:transform-center-x="0.55537708"
       inkscape:transform-center-y="0.37726331"
       d="m 743.00829,862.77251 c -7.05857,3.40661 -3.6726,6.69161 -1.76744,9.99385 -3.49647,-0.59006 -7.157,-1.949 -9.01944,5.11938 0.2738,7.17899 4.48426,6.20555 9.0899,4.41373 -2.6051,3.53018 -5.82829,7.08214 1.52976,10.2612 6.98068,2.62934 7.39233,-2.04317 7.38351,-7.18303 3.33166,4.15896 6.69507,6.90613 10.24761,1.24499 3.26613,-5.15569 1.31937,-8.04033 -4.67194,-9.16291 3.27036,-2.12773 8.50329,-3.14104 4.58222,-9.35228 -3.98492,-4.16282 -7.41507,-3.98343 -10.12035,1.86975 -0.37093,-5.09998 -0.85998,-10.04424 -7.25383,-7.20468 z"
       id="path3971-3-5-3"
       inkscape:connector-curvature="0"
       sodipodi:nodetypes="ccccccccccc" />
    <path
       sodipodi:type="arc"
       style="color:#000000;fill:#34ad45;fill-opacity:1;fill-rule:nonzero;stroke:none;stroke-width:3;marker:none;visibility:visible;display:inline;overflow:visible;enable-background:accumulate"
       id="path3969-2-7-1"
       sodipodi:cx="96.3433"
       sodipodi:cy="626.75885"
       sodipodi:rx="7.1973367"
       sodipodi:ry="7.323606"
       d="m 103.54064,626.75885 a 7.1973367,7.323606 0 1 1 -14.394677,0 7.1973367,7.323606 0 1 1 14.394677,0 z"
       transform="matrix(0.49377871,-0.8695876,-0.8695876,-0.49377871,1245.1915,1271.0292)" />
    <path
       style="color:#000000;fill:#fff626;fill-opacity:1;fill-rule:nonzero;stroke:none;stroke-width:4.89443541;marker:none;visibility:visible;display:inline;overflow:visible;enable-background:accumulate"
       inkscape:transform-center-x="-0.48993243"
       inkscape:transform-center-y="-0.25517718"
       d="m 797.23257,869.13465 c 7.31996,-2.80118 4.22213,-6.35919 2.60131,-9.80989 3.4345,0.88189 6.96784,2.54375 9.41788,-4.34305 0.33067,-7.17659 -3.94671,-6.56056 -8.68668,-5.16226 2.89265,-3.29868 6.40302,-6.56711 -0.66173,-10.35348 -6.73493,-3.20686 -7.53792,1.41451 -7.96122,6.53692 -2.97025,-4.42432 -6.09081,-7.44451 -10.10667,-2.10205 -3.68799,4.86287 -1.99062,7.90095 3.88512,9.52322 -3.43766,1.84527 -8.73725,2.4151 -5.35221,8.93397 3.62087,4.48308 7.05396,4.59268 10.24171,-1.01237 -0.0591,5.11312 0.0126,10.08099 6.62249,7.78899 z"
       id="path3971-2-6-9"
       inkscape:connector-curvature="0"
       sodipodi:nodetypes="ccccccccccc" />
    <path
       sodipodi:type="arc"
       style="color:#000000;fill:#cd820f;fill-opacity:1;fill-rule:nonzero;stroke:none;stroke-width:3;marker:none;visibility:visible;display:inline;overflow:visible;enable-background:accumulate"
       id="path3969-1-1-8"
       sodipodi:cx="96.3433"
       sodipodi:cy="626.75885"
       sodipodi:rx="7.1973367"
       sodipodi:ry="7.323606"
       d="m 103.54064,626.75885 a 7.1973367,7.323606 0 1 1 -14.394677,0 7.1973367,7.323606 0 1 1 14.394677,0 z"
       transform="matrix(-0.56513289,0.82499989,0.82499989,0.56513289,331.14719,420.10702)" />
    <path
       style="color:#000000;fill:#de4feb;fill-opacity:1;fill-rule:nonzero;stroke:none;stroke-width:4.89443541;marker:none;visibility:visible;display:inline;overflow:visible;enable-background:accumulate"
       inkscape:transform-center-x="0.5098159"
       inkscape:transform-center-y="-1.0676948"
       d="m 848.24984,887.66282 c -6.44773,4.45593 -7.63239,-0.11053 -9.56325,-3.39781 -1.21338,3.33184 -1.83915,7.18602 -8.90537,5.31535 -6.10755,-3.78292 -3.18204,-6.96362 0.65028,-10.08388 -4.35615,0.52225 -9.03642,1.57121 -8.16766,-6.39701 1.16048,-7.36862 5.42689,-5.4194 9.89211,-2.87379 -1.97148,-4.95077 -2.6996,-9.23204 3.97742,-9.52593 6.09607,-0.29442 7.64324,2.82282 5.66105,8.5871 3.46508,-1.79323 6.93015,-5.84337 10.39523,0.63332 1.65227,5.52075 -0.19747,8.41499 -6.62313,7.87729 4.25172,2.84081 8.30971,5.70746 2.68332,9.86536 z"
       id="path3971-65"
       inkscape:connector-curvature="0"
       sodipodi:nodetypes="ccccccccccc" />
    <path
       sodipodi:type="arc"
       style="color:#000000;fill:#e9fc1c;fill-opacity:1;fill-rule:nonzero;stroke:none;stroke-width:3;marker:none;visibility:visible;display:inline;overflow:visible;enable-background:accumulate"
       id="path3969-0"
       sodipodi:cx="96.3433"
       sodipodi:cy="626.75885"
       sodipodi:rx="7.1973367"
       sodipodi:ry="7.323606"
       d="m 103.54064,626.75885 a 7.1973367,7.323606 0 1 1 -14.394677,0 7.1973367,7.323606 0 1 1 14.394677,0 z"
       transform="translate(741.20225,249.38214)" />
    <path
       style="color:#000000;fill:#f56ea2;fill-opacity:1;fill-rule:nonzero;stroke:none;stroke-width:4.89443541;marker:none;visibility:visible;display:inline;overflow:visible;enable-background:accumulate"
       inkscape:transform-center-x="0.55537708"
       inkscape:transform-center-y="-0.37726315"
       d="m 871.20571,868.35746 c -7.05857,-3.40661 -3.6726,-6.69161 -1.76744,-9.99385 -3.49647,0.59006 -7.157,1.949 -9.01944,-5.11938 0.2738,-7.17899 4.48426,-6.20555 9.0899,-4.41373 -2.6051,-3.53018 -5.82829,-7.08214 1.52976,-10.2612 6.98068,-2.62934 7.39233,2.04317 7.38351,7.18303 3.33166,-4.15896 6.69507,-6.90613 10.24761,-1.24499 3.26613,5.15569 1.31937,8.04033 -4.67194,9.16291 3.27036,2.12773 8.50329,3.14104 4.58222,9.35228 -3.98492,4.16282 -7.41507,3.98343 -10.12035,-1.86975 -0.37093,5.09998 -0.85998,10.04424 -7.25383,7.20468 z"
       id="path3971-3-28"
       inkscape:connector-curvature="0"
       sodipodi:nodetypes="ccccccccccc" />
    <path
       sodipodi:type="arc"
       style="color:#000000;fill:#34ad45;fill-opacity:1;fill-rule:nonzero;stroke:none;stroke-width:3;marker:none;visibility:visible;display:inline;overflow:visible;enable-background:accumulate"
       id="path3969-2-6"
       sodipodi:cx="96.3433"
       sodipodi:cy="626.75885"
       sodipodi:rx="7.1973367"
       sodipodi:ry="7.323606"
       d="m 103.54064,626.75885 a 7.1973367,7.323606 0 1 1 -14.394677,0 7.1973367,7.323606 0 1 1 14.394677,0 z"
       transform="matrix(0.49377871,0.8695876,-0.8695876,0.49377871,1373.3889,460.1008)" />
    <path
       style="color:#000000;fill:#fff626;fill-opacity:1;fill-rule:nonzero;stroke:none;stroke-width:4.89443541;marker:none;visibility:visible;display:inline;overflow:visible;enable-background:accumulate"
       inkscape:transform-center-x="-0.48993243"
       inkscape:transform-center-y="0.25517838"
       d="m 919.74531,863.32578 c 7.31996,2.80118 4.22213,6.35919 2.60131,9.80989 3.4345,-0.88189 6.96784,-2.54375 9.41788,4.34305 0.33067,7.17659 -3.94671,6.56056 -8.68668,5.16226 2.89265,3.29868 6.40302,6.56711 -0.66173,10.35348 -6.73493,3.20686 -7.53792,-1.41451 -7.96122,-6.53692 -2.97025,4.42432 -6.09081,7.44451 -10.10667,2.10205 -3.68799,-4.86287 -1.99062,-7.90095 3.88512,-9.52322 -3.43766,-1.84527 -8.73725,-2.4151 -5.35221,-8.93397 3.62087,-4.48308 7.05396,-4.59268 10.24171,1.01237 -0.0591,-5.11312 0.0126,-10.08099 6.62249,-7.78899 z"
       id="path3971-2-0"
       inkscape:connector-curvature="0"
       sodipodi:nodetypes="ccccccccccc" />
    <path
       sodipodi:type="arc"
       style="color:#000000;fill:#cd820f;fill-opacity:1;fill-rule:nonzero;stroke:none;stroke-width:3;marker:none;visibility:visible;display:inline;overflow:visible;enable-background:accumulate"
       id="path3969-1-2"
       sodipodi:cx="96.3433"
       sodipodi:cy="626.75885"
       sodipodi:rx="7.1973367"
       sodipodi:ry="7.323606"
       d="m 103.54064,626.75885 a 7.1973367,7.323606 0 1 1 -14.394677,0 7.1973367,7.323606 0 1 1 14.394677,0 z"
       transform="matrix(-0.56513289,-0.82499989,0.82499989,-0.56513289,453.65993,1312.3534)" />
    <path
       style="color:#000000;fill:#de4feb;fill-opacity:1;fill-rule:nonzero;stroke:none;stroke-width:4.89443541;marker:none;visibility:visible;display:inline;overflow:visible;enable-background:accumulate"
       inkscape:transform-center-x="0.5098159"
       inkscape:transform-center-y="1.0676977"
       d="m 967.20886,841.05629 c -6.44773,-4.45593 -7.63239,0.11053 -9.56325,3.39781 -1.21338,-3.33185 -1.83915,-7.18602 -8.90537,-5.31535 -6.10755,3.78292 -3.18204,6.96362 0.65028,10.08387 -4.35615,-0.52224 -9.03643,-1.5712 -8.16766,6.39702 1.16048,7.36862 5.42689,5.4194 9.89211,2.87378 -1.97148,4.95078 -2.6996,9.23205 3.97742,9.52594 6.09607,0.29442 7.64324,-2.82283 5.66105,-8.58711 3.46508,1.79324 6.93015,5.84338 10.39523,-0.63331 1.65227,-5.52075 -0.19747,-8.41499 -6.62313,-7.87729 4.25172,-2.84082 8.30971,-5.70746 2.68332,-9.86536 z"
       id="path3971-6-4"
       inkscape:connector-curvature="0"
       sodipodi:nodetypes="ccccccccccc" />
    <path
       sodipodi:type="arc"
       style="color:#000000;fill:#e9fc1c;fill-opacity:1;fill-rule:nonzero;stroke:none;stroke-width:3;marker:none;visibility:visible;display:inline;overflow:visible;enable-background:accumulate"
       id="path3969-8-8"
       sodipodi:cx="96.3433"
       sodipodi:cy="626.75885"
       sodipodi:rx="7.1973367"
       sodipodi:ry="7.323606"
       d="m 103.54064,626.75885 a 7.1973367,7.323606 0 1 1 -14.394677,0 7.1973367,7.323606 0 1 1 14.394677,0 z"
       transform="matrix(1,0,0,-1,860.16127,1479.337)" />
    <path
       style="color:#000000;fill:#f56ea2;fill-opacity:1;fill-rule:nonzero;stroke:none;stroke-width:4.89443541;marker:none;visibility:visible;display:inline;overflow:visible;enable-background:accumulate"
       inkscape:transform-center-x="0.55537708"
       inkscape:transform-center-y="0.37726331"
       d="m 991.57969,863.4868 c -7.0585,3.40661 -3.6726,6.69161 -1.7674,9.99385 -3.4965,-0.59006 -7.157,-1.949 -9.0194,5.11938 0.2738,7.17899 4.4842,6.20555 9.0899,4.41373 -2.6051,3.53018 -5.8283,7.08214 1.5297,10.2612 6.9807,2.62934 7.3923,-2.04317 7.3835,-7.18303 3.33171,4.15896 6.69511,6.90613 10.24761,1.24499 3.2662,-5.15569 1.3194,-8.04033 -4.6719,-9.16291 3.2704,-2.12773 8.5033,-3.14104 4.5822,-9.35228 -3.9849,-4.16282 -7.4151,-3.98343 -10.12031,1.86975 -0.371,-5.09998 -0.86,-10.04424 -7.2539,-7.20468 z"
       id="path3971-3-5-6"
       inkscape:connector-curvature="0"
       sodipodi:nodetypes="ccccccccccc" />
    <path
       sodipodi:type="arc"
       style="color:#000000;fill:#34ad45;fill-opacity:1;fill-rule:nonzero;stroke:none;stroke-width:3;marker:none;visibility:visible;display:inline;overflow:visible;enable-background:accumulate"
       id="path3969-2-7-5"
       sodipodi:cx="96.3433"
       sodipodi:cy="626.75885"
       sodipodi:rx="7.1973367"
       sodipodi:ry="7.323606"
       d="m 103.54064,626.75885 a 7.1973367,7.323606 0 1 1 -14.394677,0 7.1973367,7.323606 0 1 1 14.394677,0 z"
       transform="matrix(0.49377871,-0.8695876,-0.8695876,-0.49377871,1493.7629,1271.7435)" />
    <path
       style="color:#000000;fill:#fff626;fill-opacity:1;fill-rule:nonzero;stroke:none;stroke-width:4.89443541;marker:none;visibility:visible;display:inline;overflow:visible;enable-background:accumulate"
       inkscape:transform-center-x="-0.48993243"
       inkscape:transform-center-y="-0.25517718"
       d="m 1045.804,869.84894 c 7.32,-2.80118 4.2221,-6.35919 2.6013,-9.80989 3.4345,0.88189 6.9679,2.54375 9.4179,-4.34305 0.3307,-7.17659 -3.9467,-6.56056 -8.6867,-5.16226 2.8927,-3.29868 6.403,-6.56711 -0.6617,-10.35348 -6.7349,-3.20686 -7.5379,1.41451 -7.9612,6.53692 -2.9703,-4.42432 -6.0908,-7.44451 -10.1067,-2.10205 -3.688,4.86287 -1.9906,7.90095 3.8851,9.52322 -3.4376,1.84527 -8.7372,2.4151 -5.3522,8.93397 3.6209,4.48308 7.054,4.59268 10.2417,-1.01237 -0.059,5.11312 0.013,10.08099 6.6225,7.78899 z"
       id="path3971-2-6-0"
       inkscape:connector-curvature="0"
       sodipodi:nodetypes="ccccccccccc" />
    <path
       sodipodi:type="arc"
       style="color:#000000;fill:#cd820f;fill-opacity:1;fill-rule:nonzero;stroke:none;stroke-width:3;marker:none;visibility:visible;display:inline;overflow:visible;enable-background:accumulate"
       id="path3969-1-1-9"
       sodipodi:cx="96.3433"
       sodipodi:cy="626.75885"
       sodipodi:rx="7.1973367"
       sodipodi:ry="7.323606"
       d="m 103.54064,626.75885 a 7.1973367,7.323606 0 1 1 -14.394677,0 7.1973367,7.323606 0 1 1 14.394677,0 z"
       transform="matrix(-0.56513289,0.82499989,0.82499989,0.56513289,579.71862,420.82131)" />
    <path
       style="color:#000000;fill:#de4feb;fill-opacity:1;fill-rule:nonzero;stroke:none;stroke-width:4.89443541;marker:none;visibility:visible;display:inline;overflow:visible;enable-background:accumulate"
       inkscape:transform-center-x="0.5098159"
       inkscape:transform-center-y="-1.0676948"
       d="m 1100.3927,890.51996 c -6.4477,4.45593 -7.6324,-0.11053 -9.5632,-3.39781 -1.2134,3.33184 -1.8392,7.18602 -8.9054,5.31535 -6.1076,-3.78292 -3.182,-6.96362 0.6503,-10.08388 -4.3562,0.52225 -9.0365,1.57121 -8.1677,-6.39701 1.1605,-7.36862 5.4269,-5.4194 9.8921,-2.87379 -1.9715,-4.95077 -2.6996,-9.23204 3.9774,-9.52593 6.0961,-0.29442 7.6433,2.82282 5.6611,8.5871 3.4651,-1.79323 6.9301,-5.84337 10.3952,0.63332 1.6523,5.52075 -0.1974,8.41499 -6.6231,7.87729 4.2517,2.84081 8.3097,5.70746 2.6833,9.86536 z"
       id="path3971-0"
       inkscape:connector-curvature="0"
       sodipodi:nodetypes="ccccccccccc" />
    <path
       sodipodi:type="arc"
       style="color:#000000;fill:#e9fc1c;fill-opacity:1;fill-rule:nonzero;stroke:none;stroke-width:3;marker:none;visibility:visible;display:inline;overflow:visible;enable-background:accumulate"
       id="path3969-06"
       sodipodi:cx="96.3433"
       sodipodi:cy="626.75885"
       sodipodi:rx="7.1973367"
       sodipodi:ry="7.323606"
       d="m 103.54064,626.75885 a 7.1973367,7.323606 0 1 1 -14.394677,0 7.1973367,7.323606 0 1 1 14.394677,0 z"
       transform="translate(993.34511,252.23928)" />
    <path
       style="color:#000000;fill:#f56ea2;fill-opacity:1;fill-rule:nonzero;stroke:none;stroke-width:4.89443541;marker:none;visibility:visible;display:inline;overflow:visible;enable-background:accumulate"
       inkscape:transform-center-x="0.55537708"
       inkscape:transform-center-y="-0.37726315"
       d="m 1123.3486,871.2146 c -7.0586,-3.40661 -3.6726,-6.69161 -1.7675,-9.99385 -3.4964,0.59006 -7.157,1.949 -9.0194,-5.11938 0.2738,-7.17899 4.4843,-6.20555 9.0899,-4.41373 -2.6051,-3.53018 -5.8283,-7.08214 1.5298,-10.2612 6.9806,-2.62934 7.3923,2.04317 7.3835,7.18303 3.3316,-4.15896 6.695,-6.90613 10.2476,-1.24499 3.2661,5.15569 1.3194,8.04033 -4.672,9.16291 3.2704,2.12773 8.5033,3.14104 4.5823,9.35228 -3.985,4.16282 -7.4151,3.98343 -10.1204,-1.86975 -0.3709,5.09998 -0.86,10.04424 -7.2538,7.20468 z"
       id="path3971-3-1"
       inkscape:connector-curvature="0"
       sodipodi:nodetypes="ccccccccccc" />
    <path
       sodipodi:type="arc"
       style="color:#000000;fill:#34ad45;fill-opacity:1;fill-rule:nonzero;stroke:none;stroke-width:3;marker:none;visibility:visible;display:inline;overflow:visible;enable-background:accumulate"
       id="path3969-2-3"
       sodipodi:cx="96.3433"
       sodipodi:cy="626.75885"
       sodipodi:rx="7.1973367"
       sodipodi:ry="7.323606"
       d="m 103.54064,626.75885 a 7.1973367,7.323606 0 1 1 -14.394677,0 7.1973367,7.323606 0 1 1 14.394677,0 z"
       transform="matrix(0.49377871,0.8695876,-0.8695876,0.49377871,1625.5317,462.95794)" />
    <path
       style="color:#000000;fill:#f56ea2;fill-opacity:1;fill-rule:nonzero;stroke:none;stroke-width:4.89443541;marker:none;visibility:visible;display:inline;overflow:visible;enable-background:accumulate"
       inkscape:transform-center-x="-1.1609564"
       inkscape:transform-center-y="-0.089540622"
       d="m 160.97192,819.99539 c -5.19727,-0.80851 -0.0164,-1.58817 3.69304,-2.37192 -3.81887,0.14004 -8.22191,0.46258 -6.22229,-1.21502 4.19629,-1.70385 7.87487,-1.47281 11.50149,-1.04755 -0.67625,-0.83785 -1.95871,-1.68086 7.13633,-2.43538 8.41731,-0.62404 6.27598,0.48493 3.45882,1.70481 5.60404,-0.98708 10.46846,-1.63908 10.92785,-0.29549 0.44913,1.22365 -3.07374,1.90828 -9.67842,2.17472 2.1078,0.50499 6.78707,0.74549 -0.52772,2.21965 -6.25943,0.988 -9.59157,0.94542 -9.09874,-0.44377 -3.1575,1.21043 -6.34801,2.38389 -11.19036,1.70995 z"
       id="path3971-3-84"
       inkscape:connector-curvature="0"
       sodipodi:nodetypes="ccccccccccc" />
    <path
       sodipodi:type="arc"
       style="color:#000000;fill:#34ad45;fill-opacity:1;fill-rule:nonzero;stroke:none;stroke-width:3;marker:none;visibility:visible;display:inline;overflow:visible;enable-background:accumulate"
       id="path3969-2-9"
       sodipodi:cx="96.3433"
       sodipodi:cy="626.75885"
       sodipodi:rx="7.1973367"
       sodipodi:ry="7.323606"
       d="m 103.54064,626.75885 a 7.1973367,7.323606 0 1 1 -14.394677,0 7.1973367,7.323606 0 1 1 14.394677,0 z"
       transform="matrix(0.01864924,0.20638639,-1.1393808,0.11719256,886.2203,723.10048)" />
    <path
       style="color:#000000;fill:#fff626;fill-opacity:1;fill-rule:nonzero;stroke:none;stroke-width:4.89443541;marker:none;visibility:visible;display:inline;overflow:visible;enable-background:accumulate"
       inkscape:transform-center-x="0.60858994"
       inkscape:transform-center-y="0.063021795"
       d="m 225.19434,806.85269 c 6.04157,0.69186 1.31996,1.57064 -1.87566,2.42291 3.83696,-0.21781 8.12874,-0.62827 7.43584,1.07267 -2.94453,1.77252 -6.94077,1.62037 -11.0426,1.27501 1.38722,0.81473 3.40599,1.62198 -5.38676,2.55716 -8.19845,0.79205 -6.89238,-0.34936 -4.97796,-1.61452 -4.98938,1.09274 -9.48828,1.83869 -11.06598,0.51917 -1.46871,-1.20106 1.61515,-1.95142 8.23125,-2.3521 -2.59554,-0.45575 -7.63508,-0.59649 -1.27501,-2.20656 5.66683,-1.10726 9.14994,-1.13433 9.7797,0.25004 2.27438,-1.26287 4.61329,-2.48987 10.17718,-1.92378 z"
       id="path3971-2-63"
       inkscape:connector-curvature="0"
       sodipodi:nodetypes="ccccccccccc" />
    <path
       sodipodi:type="arc"
       style="color:#000000;fill:#cd820f;fill-opacity:1;fill-rule:nonzero;stroke:none;stroke-width:3;marker:none;visibility:visible;display:inline;overflow:visible;enable-background:accumulate"
       id="path3969-1-78"
       sodipodi:cx="96.3433"
       sodipodi:cy="626.75885"
       sodipodi:rx="7.1973367"
       sodipodi:ry="7.323606"
       d="m 103.54064,626.75885 a 7.1973367,7.323606 0 1 1 -14.394677,0 7.1973367,7.323606 0 1 1 14.394677,0 z"
       transform="matrix(-0.18862594,-0.20376346,1.0829108,-0.13957994,-445.8147,917.75623)" />
    <path
       style="color:#000000;fill:#de4feb;fill-opacity:1;fill-rule:nonzero;stroke:none;stroke-width:4.89443541;marker:none;visibility:visible;display:inline;overflow:visible;enable-background:accumulate"
       inkscape:transform-center-x="-1.7857143"
       inkscape:transform-center-y="6.0714286"
       d="m 264.43804,813.70585 c -4.6067,-1.2612 -7.67808,0.0313 -10.9671,0.96171 0.16322,-0.94304 1.12985,-2.03392 -6.70926,-1.50445 -7.67051,1.07071 -6.05915,1.97097 -3.51602,2.85413 -4.14037,-0.14782 -8.38726,-0.44472 -10.81068,1.8106 -1.88397,2.0856 3.18779,1.5339 8.70477,0.81339 -4.01697,1.40126 -6.51395,2.61302 0.0416,2.69621 5.97448,0.0833 8.80954,-0.79897 9.20895,-2.43049 2.72417,0.50756 4.51586,1.65391 10.65689,-0.17925 3.93324,-1.56258 3.2793,-2.38176 -3.36852,-2.22957 5.42546,-0.80407 10.66784,-1.61544 6.75934,-2.79228 z"
       id="path3971-6-8"
       inkscape:connector-curvature="0"
       sodipodi:nodetypes="ccccccccccc" />
    <path
       sodipodi:type="arc"
       style="color:#000000;fill:#e9fc1c;fill-opacity:1;fill-rule:nonzero;stroke:none;stroke-width:3;marker:none;visibility:visible;display:inline;overflow:visible;enable-background:accumulate"
       id="path3969-8-2"
       sodipodi:cx="96.3433"
       sodipodi:cy="626.75885"
       sodipodi:rx="7.1973367"
       sodipodi:ry="7.323606"
       d="m 103.54064,626.75885 a 7.1973367,7.323606 0 1 1 -14.394677,0 7.1973367,7.323606 0 1 1 14.394677,0 z"
       transform="matrix(1,0,0.41316436,-0.2830385,-106.32438,994.36386)"
       inkscape:transform-center-x="-1.8444139"
       inkscape:transform-center-y="5.8547925" />
    <path
       style="color:#000000;fill:#f56ea2;fill-opacity:1;fill-rule:nonzero;stroke:none;stroke-width:4.89443541;marker:none;visibility:visible;display:inline;overflow:visible;enable-background:accumulate"
       inkscape:transform-center-x="-0.034650467"
       inkscape:transform-center-y="0.089537826"
       d="m 290.11316,806.75075 c -8.37588,0.80851 -6.26019,1.58817 -5.63201,2.37192 -3.26831,-0.14004 -6.40331,-0.46258 -10.99906,1.21502 -2.50229,1.70385 2.08461,1.47281 7.38311,1.04755 -3.9702,0.83785 -8.5669,1.68086 -2.43821,2.43538 5.96394,0.62404 8.18246,-0.48493 10.16117,-1.70481 1.7234,0.98708 4.02453,1.63908 9.76615,0.29549 5.25983,-1.22365 4.42854,-1.90828 -1.12865,-2.17472 4.09314,-0.50499 9.71792,-0.74549 8.19869,-2.21965 -2.37517,-0.988 -5.87471,-0.94542 -10.84339,0.44377 1.60123,-1.21043 3.0241,-2.38389 -4.4678,-1.70995 z"
       id="path3971-3-84-9"
       inkscape:connector-curvature="0"
       sodipodi:nodetypes="ccccccccccc" />
    <path
       sodipodi:type="arc"
       style="color:#000000;fill:#34ad45;fill-opacity:1;fill-rule:nonzero;stroke:none;stroke-width:3;marker:none;visibility:visible;display:inline;overflow:visible;enable-background:accumulate"
       id="path3969-2-9-1"
       sodipodi:cx="96.3433"
       sodipodi:cy="626.75885"
       sodipodi:rx="7.1973367"
       sodipodi:ry="7.323606"
       d="m 103.54064,626.75885 a 7.1973367,7.323606 0 1 1 -14.394677,0 7.1973367,7.323606 0 1 1 14.394677,0 z"
       transform="matrix(0.83004383,-0.20638639,-0.67864592,-0.11719256,634.42559,903.64566)" />
    <path
       style="color:#000000;fill:#fff626;fill-opacity:1;fill-rule:nonzero;stroke:none;stroke-width:4.89443541;marker:none;visibility:visible;display:inline;overflow:visible;enable-background:accumulate"
       inkscape:transform-center-x="0.057679691"
       inkscape:transform-center-y="-0.063024591"
       d="m 329.51043,819.89345 c 8.17997,-0.69186 6.1745,-1.57064 5.61309,-2.42291 3.16375,0.21781 6.18688,0.62827 10.75126,-1.07267 2.53399,-1.77252 -1.93252,-1.62037 -7.10179,-1.27501 3.90539,-0.81473 8.41922,-1.62198 2.51693,-2.55716 -5.75038,-0.79205 -7.97219,0.34936 -9.96813,1.61452 -1.61193,-1.09274 -3.80524,-1.83869 -9.46133,-0.51917 -5.18095,1.20106 -4.41631,1.95142 0.96136,2.3521 -4.00417,0.45575 -9.47872,0.59649 -8.09506,2.20656 2.2445,1.10726 5.64394,1.13433 10.55252,-0.25004 -1.62891,1.26287 -3.08242,2.48987 4.23115,1.92378 z"
       id="path3971-2-63-3"
       inkscape:connector-curvature="0"
       sodipodi:nodetypes="ccccccccccc" />
    <path
       sodipodi:type="arc"
       style="color:#000000;fill:#cd820f;fill-opacity:1;fill-rule:nonzero;stroke:none;stroke-width:3;marker:none;visibility:visible;display:inline;overflow:visible;enable-background:accumulate"
       id="path3969-1-78-5"
       sodipodi:cx="96.3433"
       sodipodi:cy="626.75885"
       sodipodi:rx="7.1973367"
       sodipodi:ry="7.323606"
       d="m 103.54064,626.75885 a 7.1973367,7.323606 0 1 1 -14.394677,0 7.1973367,7.323606 0 1 1 14.394677,0 z"
       transform="matrix(-0.81841982,0.20376346,0.6514959,0.13957994,1.2830143,708.98991)" />
    <path
       style="color:#000000;fill:#de4feb;fill-opacity:1;fill-rule:nonzero;stroke:none;stroke-width:4.89443541;marker:none;visibility:visible;display:inline;overflow:visible;enable-background:accumulate"
       inkscape:transform-center-x="-17.103182"
       inkscape:transform-center-y="-6.0714314"
       d="m 371.58785,812.326 c -7.77666,1.2612 -7.59941,-0.0313 -8.54988,-0.96171 -2.20707,0.94304 -3.98231,2.03392 -10.49063,1.50445 -4.97933,-1.07071 -1.10521,-1.97097 3.6577,-2.85413 -4.51191,0.14782 -9.50504,0.44472 -6.25982,-1.8106 3.35808,-2.0856 7.04317,-1.5339 10.74918,-0.81339 -0.49497,-1.40126 0.0538,-2.61302 6.81839,-2.69621 6.18386,-0.0833 6.80137,0.79897 3.10004,2.43049 3.99989,-0.50756 8.67288,-1.65391 10.20635,0.17925 0.006,1.56258 -2.70714,2.38176 -8.97244,2.22957 3.40447,0.80407 6.60751,1.61544 -0.25892,2.79228 z"
       id="path3971-6-8-9"
       inkscape:connector-curvature="0"
       sodipodi:nodetypes="ccccccccccc" />
    <path
       sodipodi:type="arc"
       style="color:#000000;fill:#e9fc1c;fill-opacity:1;fill-rule:nonzero;stroke:none;stroke-width:3;marker:none;visibility:visible;display:inline;overflow:visible;enable-background:accumulate"
       id="path3969-8-2-8"
       sodipodi:cx="96.3433"
       sodipodi:cy="626.75885"
       sodipodi:rx="7.1973367"
       sodipodi:ry="7.323606"
       d="m 103.54064,626.75885 a 7.1973367,7.323606 0 1 1 -14.394677,0 7.1973367,7.323606 0 1 1 14.394677,0 z"
       transform="matrix(1,0,-0.29823917,0.2830385,454.90057,631.66799)"
       inkscape:transform-center-x="-16.560157"
       inkscape:transform-center-y="-5.8547953" />
    <path
       style="color:#000000;fill:#f56ea2;fill-opacity:1;fill-rule:nonzero;stroke:none;stroke-width:4.89443541;marker:none;visibility:visible;display:inline;overflow:visible;enable-background:accumulate"
       inkscape:transform-center-x="-0.77011907"
       inkscape:transform-center-y="-0.089540622"
       d="m 390.28957,819.34165 c -5.63598,-0.80851 -0.87817,-1.58817 2.40599,-2.37192 -3.74288,0.14004 -7.9709,0.46258 -6.88158,-1.21502 3.27175,-1.70385 7.0757,-1.47281 10.93307,-1.04755 -1.13088,-0.83785 -2.87078,-1.68086 5.81485,-2.43538 8.07869,-0.62404 6.53911,0.48493 4.38388,1.70481 5.06843,-0.98708 9.57906,-1.63908 10.76751,-0.29549 1.1131,1.22365 -2.03827,1.90828 -8.49838,2.17472 2.38182,0.50499 7.19159,0.74549 0.67671,2.21965 -5.72333,0.988 -9.07857,0.94542 -9.33954,-0.44377 -2.5007,1.21043 -5.05447,2.38389 -10.26251,1.70995 z"
       id="path3971-3-84-4"
       inkscape:connector-curvature="0"
       sodipodi:nodetypes="ccccccccccc" />
    <path
       sodipodi:type="arc"
       style="color:#000000;fill:#34ad45;fill-opacity:1;fill-rule:nonzero;stroke:none;stroke-width:3;marker:none;visibility:visible;display:inline;overflow:visible;enable-background:accumulate"
       id="path3969-2-9-0"
       sodipodi:cx="96.3433"
       sodipodi:cy="626.75885"
       sodipodi:rx="7.1973367"
       sodipodi:ry="7.323606"
       d="m 103.54064,626.75885 a 7.1973367,7.323606 0 1 1 -14.394677,0 7.1973367,7.323606 0 1 1 14.394677,0 z"
       transform="matrix(0.13063826,0.20638639,-1.07579,0.11719256,1062.961,722.44674)" />
    <path
       style="color:#000000;fill:#fff626;fill-opacity:1;fill-rule:nonzero;stroke:none;stroke-width:4.89443541;marker:none;visibility:visible;display:inline;overflow:visible;enable-background:accumulate"
       inkscape:transform-center-x="0.60858994"
       inkscape:transform-center-y="0.063021795"
       d="m 452.59868,806.19895 c 6.04157,0.69186 1.31996,1.57064 -1.87566,2.42291 3.83696,-0.21781 8.12874,-0.62827 7.43584,1.07267 -2.94453,1.77252 -6.94077,1.62037 -11.0426,1.27501 1.38722,0.81473 3.40599,1.62198 -5.38676,2.55716 -8.19845,0.79205 -6.89238,-0.34936 -4.97796,-1.61452 -4.98938,1.09274 -9.48828,1.83869 -11.06598,0.51917 -1.46871,-1.20106 1.61515,-1.95142 8.23125,-2.3521 -2.59554,-0.45575 -7.63508,-0.59649 -1.27501,-2.20656 5.66683,-1.10726 9.14994,-1.13433 9.7797,0.25004 2.27438,-1.26287 4.61329,-2.48987 10.17718,-1.92378 z"
       id="path3971-2-63-7"
       inkscape:connector-curvature="0"
       sodipodi:nodetypes="ccccccccccc" />
    <path
       sodipodi:type="arc"
       style="color:#000000;fill:#cd820f;fill-opacity:1;fill-rule:nonzero;stroke:none;stroke-width:3;marker:none;visibility:visible;display:inline;overflow:visible;enable-background:accumulate"
       id="path3969-1-78-6"
       sodipodi:cx="96.3433"
       sodipodi:cy="626.75885"
       sodipodi:rx="7.1973367"
       sodipodi:ry="7.323606"
       d="m 103.54064,626.75885 a 7.1973367,7.323606 0 1 1 -14.394677,0 7.1973367,7.323606 0 1 1 14.394677,0 z"
       transform="matrix(-0.18862594,-0.20376346,1.0829108,-0.13957994,-218.41036,917.10249)" />
    <path
       style="color:#000000;fill:#de4feb;fill-opacity:1;fill-rule:nonzero;stroke:none;stroke-width:4.89443541;marker:none;visibility:visible;display:inline;overflow:visible;enable-background:accumulate"
       inkscape:transform-center-x="-3.2142509"
       inkscape:transform-center-y="6.0714286"
       d="m 492.52746,813.05211 c -4.93983,-1.2612 -7.66982,0.0313 -10.71308,0.96171 -0.0859,-0.94304 0.59262,-2.03392 -7.10664,-1.50445 -7.3877,1.07071 -5.53855,1.97097 -2.76214,2.85413 -4.17942,-0.14782 -8.50473,-0.44472 -10.33244,1.8106 -1.33309,2.0856 3.59294,1.5339 8.91961,0.81339 -3.64685,1.40126 -5.82376,2.61302 0.75376,2.69621 5.99649,0.0833 8.59851,-0.79897 8.56698,-2.43049 2.85823,0.50756 4.95271,1.65391 10.60954,-0.17925 3.52051,-1.56258 2.6502,-2.38176 -3.95742,-2.22957 5.21307,-0.80407 10.24114,-1.61544 6.0218,-2.79228 z"
       id="path3971-6-8-3"
       inkscape:connector-curvature="0"
       sodipodi:nodetypes="ccccccccccc" />
    <path
       sodipodi:type="arc"
       style="color:#000000;fill:#e9fc1c;fill-opacity:1;fill-rule:nonzero;stroke:none;stroke-width:3;marker:none;visibility:visible;display:inline;overflow:visible;enable-background:accumulate"
       id="path3969-8-2-6"
       sodipodi:cx="96.3433"
       sodipodi:cy="626.75885"
       sodipodi:rx="7.1973367"
       sodipodi:ry="7.323606"
       d="m 103.54064,626.75885 a 7.1973367,7.323606 0 1 1 -14.394677,0 7.1973367,7.323606 0 1 1 14.394677,0 z"
       transform="matrix(1,0,0.33840409,-0.2830385,169.48307,993.71012)"
       inkscape:transform-center-x="-3.390863"
       inkscape:transform-center-y="5.8547925" />
    <path
       style="color:#000000;fill:#f56ea2;fill-opacity:1;fill-rule:nonzero;stroke:none;stroke-width:4.89443541;marker:none;visibility:visible;display:inline;overflow:visible;enable-background:accumulate"
       inkscape:transform-center-x="0.25497114"
       inkscape:transform-center-y="0.089537826"
       d="m 514.8867,806.09701 c -7.77265,0.80851 -5.07525,1.58817 -3.86232,2.37192 -3.37279,-0.14004 -6.74844,-0.46258 -10.09253,1.21502 -1.23105,1.70385 3.18347,1.47281 8.16469,1.04755 -3.34508,0.83785 -7.31282,1.68086 -0.62118,2.43538 6.42954,0.62404 7.82066,-0.48493 8.88921,-1.70481 2.45986,0.98708 5.24745,1.63908 9.98662,0.29549 4.34686,-1.22365 3.00477,-1.90828 -2.75121,-2.17472 3.71637,-0.50499 9.16171,-0.74549 6.54261,-2.21965 -3.11232,-0.988 -6.58009,-0.94542 -10.51229,0.44377 0.69812,-1.21043 1.24548,-2.38389 -5.7436,-1.70995 z"
       id="path3971-3-84-9-1"
       inkscape:connector-curvature="0"
       sodipodi:nodetypes="ccccccccccc" />
    <path
       sodipodi:type="arc"
       style="color:#000000;fill:#34ad45;fill-opacity:1;fill-rule:nonzero;stroke:none;stroke-width:3;marker:none;visibility:visible;display:inline;overflow:visible;enable-background:accumulate"
       id="path3969-2-9-1-5"
       sodipodi:cx="96.3433"
       sodipodi:cy="626.75885"
       sodipodi:rx="7.1973367"
       sodipodi:ry="7.323606"
       d="m 103.54064,626.75885 a 7.1973367,7.323606 0 1 1 -14.394677,0 7.1973367,7.323606 0 1 1 14.394677,0 z"
       transform="matrix(0.67605893,-0.20638639,-0.7660833,-0.11719256,931.49243,902.99192)" />
    <path
       style="color:#000000;fill:#fff626;fill-opacity:1;fill-rule:nonzero;stroke:none;stroke-width:4.89443541;marker:none;visibility:visible;display:inline;overflow:visible;enable-background:accumulate"
       inkscape:transform-center-x="-0.60145241"
       inkscape:transform-center-y="-0.063024591"
       d="m 562.26666,819.23971 c 7.18561,-0.69186 3.91714,-1.57064 2.13083,-2.42291 3.47679,0.21781 7.08984,0.62827 9.20959,-1.07267 -0.0135,-1.77252 -4.26135,-1.62037 -8.93426,-1.27501 2.73444,-0.81473 6.08807,-1.62198 -1.15829,-2.55716 -6.88873,-0.79205 -7.47008,0.34936 -7.6477,1.61452 -3.18244,-1.09274 -6.44785,-1.83869 -10.20749,-0.51917 -3.45476,1.20106 -1.61169,1.95142 4.34185,2.3521 -3.34915,0.45575 -8.62143,0.59649 -4.92374,2.20656 3.83588,1.10726 7.27423,1.13433 10.19316,-0.25004 0.18612,1.26287 0.49608,2.48987 6.99605,1.92378 z"
       id="path3971-2-63-3-4"
       inkscape:connector-curvature="0"
       sodipodi:nodetypes="ccccccccccc" />
    <path
       sodipodi:type="arc"
       style="color:#000000;fill:#cd820f;fill-opacity:1;fill-rule:nonzero;stroke:none;stroke-width:3;marker:none;visibility:visible;display:inline;overflow:visible;enable-background:accumulate"
       id="path3969-1-78-5-2"
       sodipodi:cx="96.3433"
       sodipodi:cy="626.75885"
       sodipodi:rx="7.1973367"
       sodipodi:ry="7.323606"
       d="m 103.54064,626.75885 a 7.1973367,7.323606 0 1 1 -14.394677,0 7.1973367,7.323606 0 1 1 14.394677,0 z"
       transform="matrix(-0.52556614,0.20376346,0.8521035,0.13957994,74.646041,708.33617)" />
    <path
       style="color:#000000;fill:#de4feb;fill-opacity:1;fill-rule:nonzero;stroke:none;stroke-width:4.89443541;marker:none;visibility:visible;display:inline;overflow:visible;enable-background:accumulate"
       inkscape:transform-center-x="-13.26425"
       inkscape:transform-center-y="-6.0714314"
       d="m 601.2437,811.9248 c -7.02949,1.2612 -7.61795,-0.0313 -9.11962,-0.96171 -1.64839,0.94304 -2.77736,2.03392 -9.59935,1.50445 -5.61365,-1.07071 -2.27287,-1.97097 1.96683,-2.85413 -4.42433,0.14782 -9.24157,0.44472 -7.33246,-1.8106 2.12251,-2.0856 6.13444,-1.5339 10.2673,-0.81339 -1.32511,-1.40126 -1.49422,-2.61302 5.22109,-2.69621 6.13451,-0.0833 7.2747,0.79897 4.53992,2.43049 3.6992,-0.50756 7.69306,-1.65391 10.31255,0.17925 0.93171,1.56258 -1.29613,2.38176 -7.65159,2.22957 3.88082,0.80407 7.56454,1.61544 1.3953,2.79228 z"
       id="path3971-6-8-9-0"
       inkscape:connector-curvature="0"
       sodipodi:nodetypes="ccccccccccc" />
    <path
       sodipodi:type="arc"
       style="color:#000000;fill:#e9fc1c;fill-opacity:1;fill-rule:nonzero;stroke:none;stroke-width:3;marker:none;visibility:visible;display:inline;overflow:visible;enable-background:accumulate"
       id="path3969-8-2-8-9"
       sodipodi:cx="96.3433"
       sodipodi:cy="626.75885"
       sodipodi:rx="7.1973367"
       sodipodi:ry="7.323606"
       d="m 103.54064,626.75885 a 7.1973367,7.323606 0 1 1 -14.394677,0 7.1973367,7.323606 0 1 1 14.394677,0 z"
       transform="matrix(1,0,-0.13055975,0.2830385,577.52989,631.26679)"
       inkscape:transform-center-x="-13.091627"
       inkscape:transform-center-y="-5.8547953" />
    <path
       style="color:#000000;fill:#f56ea2;fill-opacity:1;fill-rule:nonzero;stroke:none;stroke-width:4.89443541;marker:none;visibility:visible;display:inline;overflow:visible;enable-background:accumulate"
       inkscape:transform-center-x="0.17378551"
       inkscape:transform-center-y="-0.089540622"
       d="m 624.23737,819.34165 c -6.62308,-0.80851 -2.81715,-1.58817 -0.48986,-2.37192 -3.57191,0.14004 -7.40615,0.46258 -8.36499,-1.21502 1.19153,-1.70385 5.27755,-1.47281 9.65412,-1.04755 -2.1538,-0.83785 -4.92292,-1.68086 2.84152,-2.43538 7.31681,-0.62404 7.13116,0.48493 6.46527,1.70481 3.86331,-0.98708 7.57792,-1.63908 10.40675,-0.29549 2.60705,1.22365 0.29153,1.90828 -5.84328,2.17472 2.99835,0.50499 8.10175,0.74549 3.38665,2.21965 -4.51708,0.988 -7.92431,0.94542 -9.88133,-0.44377 -1.0229,1.21043 -2.144,2.38389 -8.17485,1.70995 z"
       id="path3971-3-84-7"
       inkscape:connector-curvature="0"
       sodipodi:nodetypes="ccccccccccc" />
    <path
       sodipodi:type="arc"
       style="color:#000000;fill:#34ad45;fill-opacity:1;fill-rule:nonzero;stroke:none;stroke-width:3;marker:none;visibility:visible;display:inline;overflow:visible;enable-background:accumulate"
       id="path3969-2-9-3"
       sodipodi:cx="96.3433"
       sodipodi:cy="626.75885"
       sodipodi:rx="7.1973367"
       sodipodi:ry="7.323606"
       d="m 103.54064,626.75885 a 7.1973367,7.323606 0 1 1 -14.394677,0 7.1973367,7.323606 0 1 1 14.394677,0 z"
       transform="matrix(0.38261355,0.20638639,-0.93271063,0.11719256,1178.6107,722.44674)" />
    <path
       style="color:#000000;fill:#fff626;fill-opacity:1;fill-rule:nonzero;stroke:none;stroke-width:4.89443541;marker:none;visibility:visible;display:inline;overflow:visible;enable-background:accumulate"
       inkscape:transform-center-x="-0.36723947"
       inkscape:transform-center-y="0.063021795"
       d="m 674.45697,806.19895 c 7.48791,0.69186 4.6034,1.57064 3.18945,2.42291 3.38163,-0.21781 6.81534,-0.62827 9.67827,1.07267 0.76093,1.77252 -3.55338,1.62037 -8.37719,1.27501 3.09042,0.81473 6.79676,1.62198 -0.041,2.55716 -6.54267,0.79205 -7.62272,-0.34936 -8.35313,-1.61452 -2.705,1.09274 -5.64448,1.83869 -9.98065,0.51917 -3.97954,-1.20106 -2.46431,-1.95142 3.31417,-2.3521 -3.54829,-0.45575 -8.88205,-0.59649 -5.88784,-2.20656 3.35209,-1.10726 6.77861,-1.13433 10.30241,0.25004 -0.36566,-1.26287 -0.5918,-2.48987 6.1555,-1.92378 z"
       id="path3971-2-63-72"
       inkscape:connector-curvature="0"
       sodipodi:nodetypes="ccccccccccc" />
    <path
       sodipodi:type="arc"
       style="color:#000000;fill:#cd820f;fill-opacity:1;fill-rule:nonzero;stroke:none;stroke-width:3;marker:none;visibility:visible;display:inline;overflow:visible;enable-background:accumulate"
       id="path3969-1-78-60"
       sodipodi:cx="96.3433"
       sodipodi:cy="626.75885"
       sodipodi:rx="7.1973367"
       sodipodi:ry="7.323606"
       d="m 103.54064,626.75885 a 7.1973367,7.323606 0 1 1 -14.394677,0 7.1973367,7.323606 0 1 1 14.394677,0 z"
       transform="matrix(-0.61459493,-0.20376346,0.79111792,-0.13957994,235.29258,917.10249)" />
    <path
       style="color:#000000;fill:#de4feb;fill-opacity:1;fill-rule:nonzero;stroke:none;stroke-width:4.89443541;marker:none;visibility:visible;display:inline;overflow:visible;enable-background:accumulate"
       inkscape:transform-center-x="-15.351947"
       inkscape:transform-center-y="6.0714286"
       d="m 717.45941,812.2945 c -7.43828,-1.2612 -7.60781,0.0313 -8.80793,0.96171 -1.95404,-0.94304 -3.43659,-2.03392 -10.08696,-1.50445 -5.26661,1.07071 -1.63404,1.97097 2.89191,2.85413 -4.47225,-0.14782 -9.38572,-0.44472 -6.74562,1.8106 2.7985,2.0856 6.63162,1.5339 10.53095,0.81339 -0.87094,1.40126 -0.64735,2.61302 6.09498,2.69621 6.1615,0.0833 7.01573,-0.79897 3.75215,-2.43049 3.86371,0.50756 8.22912,1.65391 10.25444,-0.17925 0.42503,-1.56258 -2.06809,-2.38176 -8.37422,-2.22957 3.62021,-0.80407 7.04094,-1.61544 0.49027,-2.79228 z"
       id="path3971-6-8-1"
       inkscape:connector-curvature="0"
       sodipodi:nodetypes="ccccccccccc" />
    <path
       sodipodi:type="arc"
       style="color:#000000;fill:#e9fc1c;fill-opacity:1;fill-rule:nonzero;stroke:none;stroke-width:3;marker:none;visibility:visible;display:inline;overflow:visible;enable-background:accumulate"
       id="path3969-8-2-65"
       sodipodi:cx="96.3433"
       sodipodi:cy="626.75885"
       sodipodi:rx="7.1973367"
       sodipodi:ry="7.323606"
       d="m 103.54064,626.75885 a 7.1973367,7.323606 0 1 1 -14.394677,0 7.1973367,7.323606 0 1 1 14.394677,0 z"
       transform="matrix(1,0,-0.2222979,-0.2830385,752.30028,992.95251)"
       inkscape:transform-center-x="-14.989269"
       inkscape:transform-center-y="5.8547925" />
    <path
       style="color:#000000;fill:#f56ea2;fill-opacity:1;fill-rule:nonzero;stroke:none;stroke-width:4.89443541;marker:none;visibility:visible;display:inline;overflow:visible;enable-background:accumulate"
       inkscape:transform-center-x="0.069451072"
       inkscape:transform-center-y="0.089537826"
       d="m 739.0288,806.09701 c -6.51135,0.80851 -2.59767,1.58817 -0.16206,2.37192 -3.59126,-0.14004 -7.47008,-0.46258 -8.19707,1.21502 1.42701,1.70385 5.4811,1.47281 9.7989,1.04755 -2.03801,0.83785 -4.69063,1.68086 3.17808,2.43538 7.40306,0.62404 7.06415,-0.48493 6.22966,-1.70481 3.99974,0.98708 7.80446,1.63908 10.44759,0.29549 2.43794,-1.22365 0.0278,-1.90828 -6.14383,-2.17472 2.92857,-0.50499 7.99873,-0.74549 3.07989,-2.21965 -4.65362,-0.988 -8.05496,-0.94542 -9.82,0.44377 -1.19017,-1.21043 -2.47345,-2.38389 -8.41116,-1.70995 z"
       id="path3971-3-84-9-7"
       inkscape:connector-curvature="0"
       sodipodi:nodetypes="ccccccccccc" />
    <path
       sodipodi:type="arc"
       style="color:#000000;fill:#34ad45;fill-opacity:1;fill-rule:nonzero;stroke:none;stroke-width:3;marker:none;visibility:visible;display:inline;overflow:visible;enable-background:accumulate"
       id="path3969-2-9-1-54"
       sodipodi:cx="96.3433"
       sodipodi:cy="626.75885"
       sodipodi:rx="7.1973367"
       sodipodi:ry="7.323606"
       d="m 103.54064,626.75885 a 7.1973367,7.323606 0 1 1 -14.394677,0 7.1973367,7.323606 0 1 1 14.394677,0 z"
       transform="matrix(0.3540905,-0.20638639,-0.94890691,-0.11719256,1306.7933,902.99192)" />
    <path
       style="color:#000000;fill:#fff626;fill-opacity:1;fill-rule:nonzero;stroke:none;stroke-width:4.89443541;marker:none;visibility:visible;display:inline;overflow:visible;enable-background:accumulate"
       inkscape:transform-center-x="0.83587996"
       inkscape:transform-center-y="-0.063024591"
       d="m 799.20755,819.23971 c 5.82967,-0.69186 0.83892,-1.57064 -2.61771,-2.42291 3.90366,0.21781 8.32116,0.62827 7.10732,-1.07267 -3.48739,-1.77252 -7.43704,-1.62037 -11.4331,-1.27501 1.1377,-0.81473 2.90924,-1.62198 -6.16993,-2.55716 -8.44103,-0.79205 -6.78539,0.34936 -4.48348,1.61452 -5.32405,-1.09274 -10.05141,-1.83869 -11.22499,-0.51917 -1.10086,1.20106 2.21281,1.95142 8.95162,2.3521 -2.45596,0.45575 -7.4524,0.59649 -0.59922,2.20656 6.00595,1.10726 9.49735,1.13433 9.70312,-0.25004 2.66115,1.26287 5.37585,2.48987 10.76637,1.92378 z"
       id="path3971-2-63-3-1"
       inkscape:connector-curvature="0"
       sodipodi:nodetypes="ccccccccccc" />
    <path
       sodipodi:type="arc"
       style="color:#000000;fill:#cd820f;fill-opacity:1;fill-rule:nonzero;stroke:none;stroke-width:3;marker:none;visibility:visible;display:inline;overflow:visible;enable-background:accumulate"
       id="path3969-1-78-5-20"
       sodipodi:cx="96.3433"
       sodipodi:cy="626.75885"
       sodipodi:rx="7.1973367"
       sodipodi:ry="7.323606"
       d="m 103.54064,626.75885 a 7.1973367,7.323606 0 1 1 -14.394677,0 7.1973367,7.323606 0 1 1 14.394677,0 z"
       transform="matrix(-0.12622021,0.20376346,1.1256593,0.13957994,94.232572,708.33617)" />
    <path
       style="color:#000000;fill:#de4feb;fill-opacity:1;fill-rule:nonzero;stroke:none;stroke-width:4.89443541;marker:none;visibility:visible;display:inline;overflow:visible;enable-background:accumulate"
       inkscape:transform-center-x="-2.4309996"
       inkscape:transform-center-y="-6.0714314"
       d="m 839.0236,813.71051 c -4.75685,1.2612 -7.67435,-0.0313 -10.85259,-0.96171 0.0509,0.94304 0.88769,2.03392 -6.88838,1.50445 -7.54303,-1.07071 -5.82449,-1.97097 -3.1762,-2.85413 -4.15798,0.14782 -8.44021,0.44472 -10.5951,-1.8106 -1.63567,-2.0856 3.37041,-1.5339 8.80161,-0.81339 -3.85013,-1.40126 -6.2028,-2.61302 0.3626,-2.69621 5.98442,-0.0833 8.71442,0.79897 8.91959,2.43049 2.78459,-0.50756 4.71278,-1.65391 10.63554,0.17925 3.74742,1.56258 2.99572,2.38176 -3.63398,2.22957 5.32972,0.80407 10.4755,1.61544 6.42688,2.79228 z"
       id="path3971-6-8-9-01"
       inkscape:connector-curvature="0"
       sodipodi:nodetypes="ccccccccccc" />
    <path
       sodipodi:type="arc"
       style="color:#000000;fill:#e9fc1c;fill-opacity:1;fill-rule:nonzero;stroke:none;stroke-width:3;marker:none;visibility:visible;display:inline;overflow:visible;enable-background:accumulate"
       id="path3969-8-2-8-4"
       sodipodi:cx="96.3433"
       sodipodi:cy="626.75885"
       sodipodi:rx="7.1973367"
       sodipodi:ry="7.323606"
       d="m 103.54064,626.75885 a 7.1973367,7.323606 0 1 1 -14.394677,0 7.1973367,7.323606 0 1 1 14.394677,0 z"
       transform="matrix(1,0,0.37946516,0.2830385,489.77074,633.0525)"
       inkscape:transform-center-x="-2.5415036"
       inkscape:transform-center-y="-5.8547953" />
    <path
       style="color:#000000;fill:#f56ea2;fill-opacity:1;fill-rule:nonzero;stroke:none;stroke-width:4.89443541;marker:none;visibility:visible;display:inline;overflow:visible;enable-background:accumulate"
       inkscape:transform-center-x="0.25394729"
       inkscape:transform-center-y="-0.089540622"
       d="m 861.45342,818.27022 c -7.7747,-0.80851 -5.0793,-1.58817 -3.86836,-2.37192 -3.37244,0.14004 -6.74726,0.46258 -10.09563,-1.21502 -1.23538,-1.70385 3.17973,-1.47281 8.16203,-1.04755 -3.34722,-0.83785 -7.3171,-1.68086 -0.62738,-2.43538 6.42794,-0.62404 7.82188,0.48493 8.89355,1.70481 2.45735,-0.98708 5.24327,-1.63908 9.98587,-0.29549 4.34998,1.22365 3.00963,1.90828 -2.74567,2.17472 3.71765,0.50499 9.1636,0.74549 6.54826,2.21965 -3.1098,0.988 -6.57768,0.94542 -10.51343,-0.44377 0.70121,1.21043 1.25155,2.38389 -5.73924,1.70995 z"
       id="path3971-3-84-6"
       inkscape:connector-curvature="0"
       sodipodi:nodetypes="ccccccccccc" />
    <path
       sodipodi:type="arc"
       style="color:#000000;fill:#34ad45;fill-opacity:1;fill-rule:nonzero;stroke:none;stroke-width:3;marker:none;visibility:visible;display:inline;overflow:visible;enable-background:accumulate"
       id="path3969-2-9-07"
       sodipodi:cx="96.3433"
       sodipodi:cy="626.75885"
       sodipodi:rx="7.1973367"
       sodipodi:ry="7.323606"
       d="m 103.54064,626.75885 a 7.1973367,7.323606 0 1 1 -14.394677,0 7.1973367,7.323606 0 1 1 14.394677,0 z"
       transform="matrix(0.67658472,0.20638639,-0.76578473,0.11719256,1277.8123,721.37531)" />
  </g>
</svg>
