<?xml version="1.0" encoding="UTF-8" standalone="no"?>
<svg viewBox="0 0 1175.9 358.16" xmlns="http://www.w3.org/2000/svg" version="1.1">
<g transform="translate(89.312 -287.75)">
<g transform="matrix(16.78 0 0 16.78 -89.326 287.75)">
<path transform="matrix(.059596 0 0 .059596 5.3235 -17.149)" d="m87.656 287.75c-98.58 0-176.97 80.488-176.97 178.53 0 99.117 78.389 179.62 176.97 179.62 99.1 0 176.44-80.493 176.44-179.59 0.01-98.04-77.34-178.56-176.44-178.56zm0 75.781c80.492 0 139.46 51.117 164.38 102.78-24.918 52.453-83.883 103.81-164.38 103.81-81.012 0-139.51-51.376-164.41-103.81 24.901-51.648 83.411-102.75 164.41-102.75v-0.0312zm0 8.125c-52.436 0-95.188 42.44-95.188 94.625 0 52.973 42.751 95.188 95.188 95.188 52.436 0 94.625-42.217 94.625-95.156 0-52.185-42.189-94.656-94.625-94.656z"/>
</g>
</g>
</svg>
