<?xml version="1.0" encoding="UTF-8" standalone="no"?>
<svg xmlns:dc="http://purl.org/dc/elements/1.1/" xmlns:rdf="http://www.w3.org/1999/02/22-rdf-syntax-ns#" version="1.1" xmlns="http://www.w3.org/2000/svg" viewBox="0 0 422.69 461.53" xmlns:cc="http://creativecommons.org/ns#">
<defs>
<clipPath id="a" clipPathUnits="userSpaceOnUse">
<path d="m0 636h792v-636h-792z"/>
</clipPath>
</defs>
<metadata>
<rdf:RDF>
<cc:Work rdf:about="">
<dc:format>image/svg+xml</dc:format>
<dc:type rdf:resource="http://purl.org/dc/dcmitype/StillImage"/>
<dc:title/>
</cc:Work>
</rdf:RDF>
</metadata>
<g transform="translate(199.24 -604.3)">
<g transform="matrix(1.3333 0 0 -1.3333 -515.86 1416.3)">
<g transform="translate(395.76 425.89)">
<path fill="#ed1c24" d="m0 0-52.767 91.348 52.767 91.762 53.163-91.762z"/>
</g>
<g transform="translate(448.93 334.49)">
<path fill="#ed1c24" d="m0 0-53.163 91.4h105.98l52.733-91.4z"/>
</g>
<g transform="translate(343 334.49)">
<path fill="#ed1c24" d="m0 0h-105.53l52.783 91.4h105.51z"/>
</g>
<g clip-path="url(#a)">
<g transform="translate(286.36 264.01)">
<path fill="#fff" d="m0 0v28.678l-9.849-20.834-9.407 20.834v-28.678h-7.837v43.992h8.645l8.599-20.041 9.071 20.041h8.63v-43.992z"/>
</g>
<path fill="#fff" d="m301.27 264.01h7.836v43.992h-7.836z"/>
<g transform="translate(329.95 301.31)">
<path fill="#fff" d="m0 0v-37.299h-7.867v37.299h-9.407v6.693h26.681v-6.693z"/>
</g>
<g transform="translate(353.87 262.85)">
<path fill="#fff" d="m0 0c-10.2 0-13.722 6.67-14.118 14.904h7.471c0-3.92 1.966-7.83 6.647-7.83 3.964 0 6.296 1.93 6.296 5.092 0 2.738-1.951 3.934-10.214 8.652-5.885 3.508-9.804 7.061-9.804 13.327 0 6.685 4.315 11.396 13.356 11.396 9.819 0 13.356-6.289 13.752-13.76h-7.852c0 3.553-1.967 7.082-5.9 7.082-3.552 0-5.504-1.554-5.504-4.33 0-3.125 2.363-4.695 8.629-7.836 7.059-3.933 11.389-7.082 11.389-14.14 0-8.264-6.662-12.557-14.148-12.557"/>
</g>
<g transform="translate(386.63 263.24)">
<path fill="#fff" d="m0 0c-7.074 0-15.307 2.752-15.307 14.529v30.235h7.837v-30.235c0-4.724 2.347-7.455 7.47-7.455 4.3 0 6.663 2.731 6.663 7.455v30.235h7.866v-30.235c0-11.402-7.866-14.529-14.529-14.529"/>
</g>
<g transform="translate(422.35 264.01)">
<path fill="#fff" d="m0 0h-16.07v43.992h14.499c8.233 0 13.356-3.941 13.356-11.008 0-5.877-4.346-9.406-6.297-9.818 2.76-0.785 7.882-3.91 7.882-10.978 0-7.081-5.518-12.188-13.37-12.188m-2.349 19.256h-3.14v7.058h3.14c3.919 0 6.282 1.555 6.282 5.497 0 3.933-2.73 5.488-6.282 5.488h-5.915v-30.608h6.297c4.315 0 7.074 1.959 7.074 6.678 0 4.293-2.759 5.887-7.456 5.887"/>
</g>
<g transform="translate(509.53 264.01)">
<path fill="#fff" d="m0 0v19.256h-16.115v-19.256h-8.218v43.992h8.218v-17.273h15.719v17.273h8.233v-43.992z"/>
</g>
<path fill="#fff" d="m440.04 264.01h7.837v43.992h-7.837z"/>
<path fill="#fff" d="m524.84 264.01h7.836v43.992h-7.836z"/>
<g transform="translate(467.1 263.63)">
<path fill="#fff" d="m0 0c-10.199 0-13.736 6.297-14.133 14.92h7.471c0-3.912 1.967-8.234 6.662-8.234 3.949 0 6.282 1.959 6.282 5.093 0 2.752-1.936 4.323-10.184 9.018-5.901 3.164-9.834 6.693-9.834 12.959 0 6.678 4.33 11.412 13.355 11.412 9.819 0 13.371-6.305 13.737-13.744h-7.44c-0.412 3.918-2.363 7.051-6.297 7.051-3.14 0-5.488-1.571-5.488-4.323 0-2.728 2.348-4.306 8.66-7.83 7.028-3.947 11.373-6.683 11.373-14.154 0-7.846-6.678-12.168-14.164-12.168"/>
</g>
</g>
</g>
</g>
</svg>
