<?xml version="1.0" encoding="UTF-8" standalone="no"?>
<svg xmlns:cc="http://creativecommons.org/ns#" width="254" version="1.2" xmlns:dc="http://purl.org/dc/elements/1.1/" xmlns="http://www.w3.org/2000/svg" xmlns:rdf="http://www.w3.org/1999/02/22-rdf-syntax-ns#" height="238.68" viewBox="0 0 203.19999 190.94288">
<metadata>Created by potrace 1.10, written by Peter Selinger 2001-2011
<rdf:RDF>
<cc:Work rdf:about="">
<dc:format>image/svg+xml</dc:format>
<dc:type rdf:resource="http://purl.org/dc/dcmitype/StillImage"/>
<dc:title/>
</cc:Work>
</rdf:RDF>
</metadata>
<g transform="matrix(.045417 0 0 -.045417 -39.962 199.4)">
<path transform="matrix(17.615 0 0 -18.115 879.9 4496.7)" style="color:#000000" fill="#fff" d="m220.47 123.38a93.044 88.999 0 1 1 -186.09 0 93.044 88.999 0 1 1 186.09 0z"/>
<path d="m3115 4346c-55-7-122-18-150-24-50-10-135-28-270-56-90-18-283-77-360-109-33-13-71-28-85-32-76-24-312-143-405-204-150-100-172-116-235-170-286-245-482-543-577-876-44-155-54-234-53-435 0-205 10-280 44-325 60-78 106-48 106 69 0 218 48 484 126 696 144 392 432 716 806 908 155 79 201 96 378 142 56 15 92 13 88-5-2-10-78-49-195-99-323-140-421-201-586-363-230-225-362-445-448-747-41-143-53-307-46-621 8-332 19-436 58-555 34-103 120-284 171-359 60-86 275-300 364-361 12-8 57-40 100-70 164-114 321-195 449-229 94-26 267-61 300-61 32 0 52-25 35-45-14-17-104-20-180-6-222 41-385 94-565 182-199 98-416 288-593 521-125 164-157 193-186 168-56-46-1-225 123-400 111-156 338-359 496-443 330-176 738-248 1140-202 320 38 601 123 890 272 63 32 88 48 188 115 16 11 48 33 73 50 69 47 265 239 331 325 251 329 386 623 434 943 27 178 10 606-32 835-45 239-85 348-192 522-72 116-86 134-188 236-225 225-578 426-800 457-194 27-217 32-238 51-47 44-16 73 71 66 220-18 396-74 623-200 249-137 443-287 561-434 175-217 309-585 345-943 18-177 6-569-20-695-56-266-93-380-182-559-167-335-414-585-847-855-56-36-77-63-68-88 5-13 17-15 59-10 101 11 238.89 84.841 405 206 111.23 81.129 111.67 85.182 180 143 54.413 46.045 301 284 374 378 147 191 227 342 287 542 76 258 108 544 98 883-4 110-11 218-16 240s-18 85-30 140c-67 315-228 651-426 890-263 317-598 497-1105 592-106 19-498 25-625 9zm461-814c20-13 33-47 45-118 6-38 20-91 29-119l17-50 209-71c216-73 246-85 400-160 112-54 139-80 129-123-8-36-55-66-88-57-11 3-197 1-411-5-364-9-787-35-951-59-38-6-122-17-185-25-121-15-239-31-480-65-80-11-179-25-220-30-41-6-117-17-168-26-85-14-96-14-118 1-27 17-26 17-18 39 19 50 380 255 634 361 63 27 121 52 128 58 7 5 56 74 108 153 65 98 103 145 117 148 12 2 103 21 202 41s194 38 210 41c17 3 89 18 160 34 176 39 231 46 251 32z" fill="#ee3a43"/>
<path d="m3965 2391c-39-17-115-91-115-111 0-16 18-12 86 20 50 23 65 35 70 57 4 15 11 34 17 41 14 18-10 15-58-7z" fill="#ee3a43"/>
<path d="m2185 2362c-3-3-5-19-5-35s-20-89-45-163c-51-150-52-158-27-145 9 5 46 21 81 37 79 36 155 107 170 159 8 31 7 44-9 74-10 21-31 43-47 51-32 15-110 29-118 22z" fill="#ee3a43"/>
<path d="m952 1872c-34-36-44-95-32-181 19-134 50-193 120-228 54-28 91-29 115-3 16 17 16 28 6 122-6 57-14 128-17 158-11 105-44 149-118 157-41 5-48 3-74-25z" fill="#ee3a43"/>
</g>
<g fill="#ee3a43" transform="matrix(0.46 0 0 .44841 -39.962 -8.6089)">
<path d="m463.93 404.64v-8.297h-3.0993v-1.1101h7.4564v1.1101h-3.1122v8.297z"/>
<path d="m469.53 404.64v-9.4071h1.8737l2.2266 6.6607c0.20534 0.6203 0.35506 1.0844 0.44918 1.3925 0.10695-0.34223 0.27378-0.84488 0.50052-1.508l2.2523-6.5452h1.6748v9.4071h-1.2v-7.8735l-2.7336 7.8735h-1.123l-2.7207-8.0082v8.0082z"/>
</g>
</svg>
