<?xml version="1.0" encoding="UTF-8" standalone="no"?>
<svg xmlns:dc="http://purl.org/dc/elements/1.1/" version="1.1" xmlns:rdf="http://www.w3.org/1999/02/22-rdf-syntax-ns#" xmlns="http://www.w3.org/2000/svg" xmlns:cc="http://creativecommons.org/ns#" viewBox="0 0 500 500">
<metadata>
<rdf:RDF>
<cc:Work rdf:about="">
<dc:format>image/svg+xml</dc:format>
<dc:type rdf:resource="http://purl.org/dc/dcmitype/StillImage"/>
<dc:title/>
</cc:Work>
</rdf:RDF>
</metadata>
<path fill="#fff" d="m250 10c-132.5 0-240 107.51-240 240s107.5 240 240 240c132.51 0 240-107.51 240-240s-107.49-240-240-240z"/>
<g transform="translate(-324.99,-325.01)">
<path d="m574.99 335.01c-132.5 0-240 107.5-240 239.99s107.5 240.01 240 240.01c132.51 0 240-107.52 240-240.01s-107.49-239.99-240-239.99zm0 8.53c127.87 0 231.48 103.57 231.48 231.46 0 127.9-103.61 231.49-231.48 231.49-127.88 0-231.45-103.59-231.45-231.49 0-127.89 103.57-231.46 231.45-231.46z" fill="#003da5"/>
</g>
<g transform="translate(-324.99,-325.01)" fill="#da291c">
<path d="m596.6 458.24-5.22 6.76 5.9-0.34 3.47-5z"/>
<path d="m583.71 454.1c-0.28 0.46-6.01 7.55-6.01 7.55l2.95 5 4.43-0.1-2.05-4.37 4.72-7.1z"/>
<path d="m570.37 450.11s-1.04 1.83-1.68 2.86c-0.65 1.02-1.58 2.29-2.36 3.18-0.78 0.9-2.47 2.32-2.47 2.32s1.06 1.18 1.5 1.93c0.45 0.76 0.97 1.8 1.32 2.71 0.35 0.92 0.62 1.89 0.78 2.77 0.17 0.88 0.28 2.28 0.28 2.28l4.94 0.19s-0.13-1.46-0.38-2.44c-0.24-0.99-0.74-2.43-1.18-3.41-0.43-0.97-0.97-1.83-1.37-2.44-0.41-0.61-0.97-1.24-0.97-1.24s1.02-0.72 1.55-1.2 1.09-1.05 1.66-1.76c0.56-0.71 1-1.39 1.43-2.13 0.42-0.74 1.21-2.33 1.21-2.33z"/>
<path d="m557.71 447.61 4.46 0.91s-1.6 2.26-2.4 3.22-1.54 1.78-2.35 2.54c-0.81 0.77-2.5 2.07-2.5 2.07s1.11 1.32 1.58 2.16c0.48 0.83 0.92 1.77 1.21 2.83 0.28 1.06 0.36 2.39 0.43 3.5 0.1 1.12-0.1 3.02-0.1 3.02l-4.69-0.16s0.22-2.15 0.16-3.24c-0.1-1.09-0.17-2.34-0.43-3.31-0.27-0.98-0.62-1.86-1.11-2.79-0.49-0.92-1.87-2.54-1.87-2.54s1.43-1.14 2.11-1.73 1.45-1.35 2.12-2.06 1.26-1.43 1.87-2.21c0.6-0.78 1.49-2.21 1.49-2.21z"/>
<path d="m542.58 445.64c0.44 0.1 5.19 0.58 5.19 0.58s-1.23 2.31-1.83 3.31c-0.59 1-0.82 1.45-1.34 2.16s-1.17 1.45-1.63 1.92-1.49 1.44-1.49 1.44 1.02 0.99 1.44 1.63c0.42 0.65 0.79 1.41 1.05 2.21 0.27 0.8 0.55 1.82 0.68 3.12s0 4.94 0 4.94l-5.14-0.18s0.12-2.87 0.1-3.94c-0.1-1.07-0.21-2.03-0.44-2.98-0.23-0.94-0.91-2.35-1.05-2.59-0.15-0.24-1.78-2.11-1.78-2.11s1.2-1.13 1.87-1.92c0.67-0.8 1.36-1.52 1.92-2.4s1.1-1.71 1.49-2.5c0.39-0.78 0.96-2.69 0.96-2.69z"/>
<path d="m486.41 479.4c0.1 0.24 3.4-2.05 3.4-2.05-1.47-1.99-2.48-3.4-3.95-5.37 1.54-1.33 3.27-2.74 4.63-3.78l4.99 7.04 2.83-2.23-4.35-7.49 5.53-3.84c0.82 0.82 2.49 2.59 3.16 3.85 0.68 1.28 0.82 2.17 0.98 3.14 0.16 0.98 0.23 2.32 0.23 2.32l4.48-0.92s0-1.25-0.22-2.4c-0.24-1.15-0.55-2.62-1.08-3.49-0.52-0.86-1.17-1.86-1.77-2.68-0.59-0.8-1.78-2.05-1.89-2.25 2.17-1.3 3.91-2.39 6.42-3.78 1.28-0.62 2.91-1.51 2.91-1.51s-0.48 2.03-0.89 2.91c-0.39 0.88-1.27 1.88-1.27 1.88s1.58 1.25 2.28 2.29c0.69 1.04 1.35 2.68 1.62 3.93s0.19 3.13 0.19 3.13l4.2-0.43s0.12-2.02 0-3.09c-0.1-1.07-0.3-1.73-0.58-2.54-0.27-0.81-0.62-1.51-1.08-2.28-0.45-0.77-1.65-2.33-1.65-2.33s0.76-1.22 1.11-1.93c0.35-0.72 0.74-1.54 0.97-2.35 0.22-0.79 0.5-1.83 0.5-1.83s5.56-2.44 8.17-3.43c0 0-0.1 1.59-0.38 2.61-0.3 1.02-0.72 1.95-1.24 2.77s-1.8 2.11-1.8 2.11 0.95 1.12 1.5 1.96c0.56 0.84 1.31 2.03 1.76 3.1 0.46 1.06 0.81 2.24 0.98 3.23 0.16 1 0.1 2.67 0.1 2.67l4.72 0.1s0.1-2.21 0-3.27c-0.1-1.05-0.17-1.98-0.56-3.03-0.39-1.06-1.19-2.28-1.81-3.15-0.62-0.86-1.84-2.06-1.84-2.06 2.17-3.06 4.03-6.6 5.05-9.17 12.01-4 21.66-5.66 33.86-6.3 15.82-0.83 32.01 0.88 46.34 5.2 16.39 4.96 24.92 10.13 24.92 10.13l9.94-3.08s-13.69-8.37-29.18-13.35c-13.55-4.36-28.64-6.86-45.73-6.9-24.47 0.22-46.03 6.68-64.93 15.94-13.22 6.61-29.6 18.71-47.14 39.6-11.74 13.99-18.18 30.1-20.91 37.42l8.76-1.2c1.47-4.58 11.3-23.33 19.98-33.55l1.24 1.29 2.97-2.82-1.49-1.7c1.26-1.43 2.85-3.19 4.11-4.55l1.88 3.2 3.08-2.24-2.66-3.33c1.82-1.79 3.22-3.11 5.1-4.88z"/>
<path d="m656.46 650.88 2.61-2.03 3.27 2.39-3.34 9.73-4.36-0.14 3.13-8.5-1.31-1.45"/>
<path d="m665.1 642.53 3.78-3.12c0.19 0.96 0.46 1.91 0.79 2.83 0.36 1 0.81 1.98 1.46 2.83 0.55 0.72 1.24 1.33 1.96 1.89 0.57 0.44 1.16 0.84 1.77 1.21l-4.61 8.94-4.44 0.25c0.67-1.48 1.36-2.95 2.08-4.4 0.62-1.26 1.27-2.51 1.93-3.75-0.9-0.58-1.71-1.29-2.4-2.1-0.6-0.71-1.11-1.49-1.52-2.33-0.35-0.72-0.62-1.47-0.8-2.25"/>
<path d="m676.53 637.57 3.67-0.78c0.22 1.1 0.5 2.19 0.86 3.26 0.34 1.03 0.75 2.03 1.21 3.01 0.34 0.72 0.71 1.44 1.2 2.07 0.37 0.48 0.82 0.91 1.31 1.27l-4.66 9.39h-3.57c0.6-1.28 1.22-2.55 1.87-3.8 0.59-1.15 1.21-2.3 1.86-3.42 0.3-0.51 0.6-1.02 0.91-1.52-0.47-0.53-0.9-1.1-1.3-1.69-0.5-0.75-0.95-1.54-1.34-2.36-0.41-0.85-0.76-1.72-1.09-2.61-0.34-0.93-0.65-1.87-0.93-2.82"/>
<path d="m688.28 643.84c-0.49-0.72-0.88-1.51-1.14-2.34-0.22-0.7-0.35-1.42-0.44-2.14-0.11-0.82-0.17-1.64-0.18-2.46l3.39-0.1c0 0.82 0.16 1.63 0.36 2.43 0.16 0.61 0.36 1.22 0.7 1.76 0.35 0.55 0.83 1.01 1.39 1.33 2.6-4.96 5.01-10.01 7.22-15.15 1.2-2.78 2.34-5.59 3.42-8.42l7.84 0.1c-1.2 3.88-2.6 7.71-4.18 11.45-2.57 6.08-5.63 11.96-9.05 17.61-5.44 8.99-11.79 17.44-18.97 25.11-5.87 6.26-12.29 12.01-19.19 17.12-7.23 5.36-14.98 10.02-23.11 13.88-8.03 3.81-16.43 6.85-25.05 9.04l5.75-9.33c5.23-1.76 10.35-3.85 15.32-6.26 7.18-3.48 14.04-7.61 20.58-12.19 7.28-5.09 14.17-10.76 20.35-17.14 6.44-6.65 12.07-14.08 16.75-22.07l-1.76-2.21"/>
<path d="m432.2 594.33 7.66 1.64 2.98 14.64 2.74 8.93 5.19 13.01 1.79-0.22 2.19 2.66-1.47 2.73 1.95 3.51 2.05-3 2.61 2.81-1.9 4.85 2.82 4.71 2.99-6.02 2.57 2.27-2.61 7.96 5.29 6.92-0.28-5.49 2.23-5.89 3.45 2.65-1.89 3.03v9.79l5.05 5.36 2.06-3.49c-0.53-0.94-0.93-1.95-1.18-3-0.3-1.29-0.38-2.63-0.29-3.96 0.11-1.71 0.5-3.41 1.13-5l3.92 2.4c-0.42 1.07-0.72 2.19-0.89 3.32-0.17 1.11-0.22 2.24-0.17 3.36 0.1 1.68 0.39 3.35 0.93 4.94l-2.65 4.17 6.52 5.93 3.24-6.27c-0.71-1.51-1.25-3.11-1.6-4.74-0.33-1.53-0.49-3.1-0.38-4.66 0.1-1.19 0.33-2.36 0.72-3.48l3.33 2.2-0.55 3.7 0.16 4.28 1.69 3.83-3.11 8.05 10.81 7.49c9.44 5.98 19.6 10.85 30.18 14.45 5.93 2.02 11.99 3.64 18.13 4.86l3.12 6.86c-7.84-1.22-15.58-3.07-23.11-5.55-11.33-3.72-22.21-8.85-32.28-15.24-9.38-5.95-18.07-12.99-25.84-20.92-6.64-6.78-12.62-14.22-17.8-22.18-6.78-10.41-12.18-21.72-15.99-33.54-2.58-8.03-4.43-16.29-5.51-24.66"/>
<path d="m499.29 665.54 4.21 1.24s-0.2 5.6 0.13 7.37c0.32 1.76 0.59 2.18 1.16 3.2 0.56 1.02 2.25 2.53 2.25 2.53s-1.11 1.18-1.54 1.87c-0.42 0.7-0.76 1.14-0.99 2.27-0.24 1.13 0 4.45 0 4.45h-3.8s-0.26-2.56-0.18-3.74c0.1-1.16 0.46-2.22 0.79-3.18 0.34-0.94 1.22-2.44 1.22-2.44s-1.46-1.61-1.98-2.48c-0.53-0.87-0.83-0.92-1.24-2.77-0.4-1.85-0.1-8.32-0.1-8.32z"/>
<path d="m511.26 669.05 4.12 0.99s-0.1 4.16 0.34 5.79c0.43 1.62 1.09 2.74 1.85 3.83 0.77 1.09 2.62 2.66 2.62 2.66s-1.14 2.27-1.42 3.85 0 5.54 0 5.54l-4.61 0.1s-0.36-4.08 0-5.73c0.34-1.64 1.74-3.99 1.74-3.99s-1.54-0.95-2.14-1.54-0.98-1.07-1.43-1.96c-0.45-0.88-0.83-1.77-1.07-3.37-0.25-1.6 0-6.15 0-6.15z"/>
<path d="m524.55 671.17 4.65 0.54s0.22 3.02 0.71 4.43c0.49 1.42 0.91 2.6 1.92 3.77 1.01 1.18 3.01 2.63 3.01 2.63s-0.49 1.62-0.61 2.57-0.2 2.06-0.22 3.28c0 1.22 0.17 4.05 0.17 4.05l-4.49-0.22s-0.1-2.19-0.1-3.23 0-1.48 0.22-2.73c0.22-1.26 1.26-3.01 1.26-3.01s-1.12-0.68-2.03-1.31c-1.05-0.74-1.84-1.86-2.51-2.84-0.68-0.99-1.14-1.63-1.53-2.96-0.4-1.33-0.5-4.97-0.5-4.97z"/>
</g>
<g transform="translate(-324.99,-325.01)">
<path d="m575.24 348.57c-124.87 0-226.17 101.32-226.17 226.18 0 124.87 101.3 226.19 226.17 226.19s226.2-101.32 226.2-226.19c0-124.86-101.33-226.18-226.2-226.18zm0 8.52c120.25 0 217.63 97.39 217.63 217.66s-97.38 217.67-217.63 217.67-217.64-97.4-217.64-217.67 97.39-217.66 217.64-217.66z" fill="#003da5"/>
<path d="m604.19 473.06c4.47-1.03 8.93-2.11 13.37-3.25 4.3-1.1 8.59-2.25 12.86-3.45 4.78-1.34 9.55-2.72 14.26-4.29 6.53-2.18 12.92-4.78 19.19-7.62 5.31-2.4 10.54-4.98 15.56-7.93 4.18-2.45 8.22-5.18 11.79-8.45 2.96-2.72 5.59-5.8 7.79-9.16 0.32 2.33 0.39 4.69 0.2 7.03-0.15 1.87-0.47 3.72-0.84 5.55-0.41 2.04-0.9 4.06-1.46 6.06l11.39-5.02c4.96-2.19 10.17-4.02 15.58-4.24l-2.41 2.15c-1.71 1.93-3.35 3.91-4.91 5.96-1.61 2.1-3.14 4.27-4.6 6.48-2.3 3.48-4.43 7.08-6.37 10.77l-4.29 9.51 2.93-2.3c1.69-1.01 3.4-1.98 5.12-2.93s3.47-1.86 5.33-2.51c1.52-0.53 3.11-0.88 4.71-1.04 1.42-0.14 2.86-0.14 4.28 0-0.83 0.7-1.6 1.47-2.3 2.3-1.4 1.67-2.5 3.59-3.24 5.64-1.2 2.62-2.25 5.31-3.14 8.05-1.24 3.81-2.16 7.72-3.13 11.61-0.93 3.74-1.91 7.47-2.93 11.18l-15.16-24.98-17.98 29.27-17.14-6.79 3.86 38.88-19.33-18.4-5.86 14.01-24.28-3.81v4.6c-3.62-0.36-7.23-0.76-10.84-1.21-4.77-0.59-9.53-1.27-14.22-2.29-4.01-0.87-7.97-1.99-11.91-3.14-4.17-1.22-8.32-2.49-12.44-3.87-4.1-1.38-8.16-2.87-12.26-4.24-2.84-0.95-5.7-1.83-8.57-2.66 3.19-0.47 6.4-0.82 9.62-1.07 2.76-0.21 5.53-0.34 8.3-0.31 3.34 0 6.67 0.3 9.97 0.79-4.4-1.58-8.89-2.9-13.44-3.96-4.51-1.05-9.08-1.84-13.67-2.43-3.82-0.49-7.67-0.83-11.52-0.97-3.45-0.12-6.9-0.1-10.35 0.11-3.3 0.18-6.6 0.48-9.83 1.15-2.94 0.61-5.81 1.54-8.57 2.72-1.62 0.69-3.2 1.48-4.73 2.35-4.15 1.84-7.37 5.66-8.48 10.07-0.81 3.21-0.51 6.69 0.82 9.72-2.94 0.1-5.89-0.76-8.34-2.39-1.81-1.2-3.33-2.81-4.62-4.56-1.18-1.6-2.18-3.34-2.88-5.2-1.12-2.99-1.41-6.34-0.44-9.38 0.61-1.92 1.7-3.66 2.98-5.22 1.27-1.56 2.73-2.96 4.17-4.36 2.92-2.84 5.79-5.73 9.02-8.21 4.07-3.13 8.64-5.56 13.38-7.54 6.31-2.63 12.94-4.49 19.7-5.5 8.68-1.41 17.4-2.65 26.13-3.71 8.32-1.01 16.66-1.87 24.97-2.93 9.83-1.25 19.63-2.78 29.38-4.59" fill="#003da5"/>
<path fill="#041e42" stroke="#000" d="m467.9 517.52s-4.03 1.58-5.79 2.72-3.4 2.6-4.74 4.02c-1.35 1.42-2.29 3.08-3 4.2s-1.7 3.2-3.08 4.04c-1.37 0.84-8.2 1.66-13.19 2.52-4.98 0.84-11.35 2.04-16.2 3.07-4.83 1.03-8.7 1.9-12.85 2.97-4.15 1.08-8.4 2.09-12.3 3.23-3.88 1.13-7.93 2.45-11.04 3.54-3.1 1.09-5.17 1.89-7.18 2.82-2 0.94-3.27 1.78-4.38 2.47s-2.04 1.47-2.88 2.38c-0.83 0.92-1.32 2.23-1.32 2.23l103.99 0.32s0.98-1.39 1.57-2.02c0.59-0.62 1.12-1.14 2.48-1.88 1.35-0.74 3.04-1.32 4.78-1.74 1.74-0.41 3.42-0.49 5.13-0.52 1.71 0 3.48-0.1 5.51 0.42 2.04 0.49 4.15 1.33 5.81 2.23 1.65 0.9 3.09 2.01 4.25 2.92 1.15 0.93 2.13 2.14 3.28 3.08s2.19 1.83 3.54 2.77c1.36 0.94 2.98 2.13 4.59 2.85 1.61 0.73 3.05 1.16 4.72 1.48 1.67 0.31 3.37 0.42 5.28 0.4 1.91 0 4.3-0.34 6.25-0.93 1.94-0.59 3.73-1.57 5.31-2.51 1.58-0.93 2.93-2.01 4.17-3.02 1.25-1.01 2.17-1.99 3.33-3.01s2.26-2.22 3.64-3.13c1.38-0.92 2.96-1.63 4.45-2.16s2.8-0.89 4.41-1.07c1.61-0.17 57.12-0.1 57.12-0.1l-0.22-8.47s-48.39 0.1-56.58 0c-1.63-0.14-2.87-0.45-4.01-0.8s-1.49-0.64-2.8-1.34c-1.31-0.71-2.71-1.63-4.17-2.75s-3.11-2.75-4.54-3.99c-1.44-1.25-2.66-2.48-4.06-3.47-1.41-0.99-2.78-1.82-4.32-2.46-1.55-0.64-3.21-1.11-4.89-1.34-1.68-0.22-3.4-0.15-5.1 0-1.71 0.16-3.27 0.33-5.1 0.95-1.25 0.43-2.96 1.25-4 1.9-1.81 1.15-3.22 2.43-4.93 3.72-1.56 1.19-3.05 2.54-4.58 3.68-1.71 1.28-3.14 2.44-5.14 3.58-1.43 0.81-3.56 1.96-5.19 2.19-2.06 0.28-3.11 0.3-4.69 0.18-1.56-0.11-2.75-0.33-4.35-0.85-1.6-0.51-3.23-1.22-4.85-2.25-1.61-1.03-3.19-2.41-4.69-3.97-1.49-1.56-3.05-3.41-4.19-5.41-1.15-2-2.21-4.6-2.8-6.9s-0.46-6.81-0.46-6.81zm50.25 16.86v10.84h-5.75s0.26-2.96 0.68-4.37c0.31-1.04 0.75-2.08 1.33-3 0.54-0.87 1.22-1.65 1.98-2.33 0.53-0.47 1.76-1.17 1.76-1.17z" stroke-width=".21314"/>
<path d="m645.11 530.99 16.86 15.89c1.4 1.05 3.39 2.15 4.78 1.46 0.94-0.6 1.78-1.89 1.53-3.49-0.99-10.84-3.42-35.95-3.42-35.95l12.72 5.35 16.56-25.43 15.73 25.6 12.55-5.02s-1.99 24.15-2.77 35.42c0.1 1.38 0.31 2.26 1.61 3 1.82 0.69 2.5 0 4.48-1.08 6.78-5.5 11.3-10.4 17.07-16.57l4.24 11.45 22.03-3.44-1.49 24.1 7.54 3.18-46.69 40.49 7.35 9.6-37.8-3.08-4.02 6.36-3.68-6.02-38.82 2.51 7.86-8.87-47.35-41.5 8.21-2.34-1.51-24.76 22.25 3.51z" fill="#da291c"/>
<path d="m370.04 560.56 31.8 1.12 25.94 1.81 23.01 2.59 15.77 2.32s-0.1 2.18 0.25 3.71c0.32 1.53 0.99 3.67 1.9 5.34s2.2 3.18 3.53 4.57c1.33 1.38 2.46 2.29 4.4 3.7 1.93 1.41 4.69 3.15 7.32 4.57s5.51 2.54 8.45 3.88 6.43 2.9 9.22 4.14c2.79 1.23 4.17 1.65 7.5 3.27 3.32 1.62 8.69 4.49 12.32 6.63 3.63 2.15 6.46 4.01 9.48 6.13 3.01 2.11 5.4 3.89 8.62 6.54 3.21 2.66 6.91 6.05 10.6 9.49 3.68 3.42 7.66 6.92 11.46 11.11s7.8 9.31 11.2 14.05 6.76 10.04 9.22 14.3c2.45 4.26 4.33 8.2 5.69 11.12s2.67 6.29 2.67 6.29 3.02-4.41 4.84-7.36c1.81-2.95 4.7-6.59 6.76-10.23 2.07-3.65 5.22-7.71 7.9-11.22 2.69-3.51 6.08-7.44 8.62-10.51s4.45-5.47 6.63-7.93c2.19-2.47 5.66-6.09 5.66-6.09l-18.78-0.18s2.85-6.09 4.61-9.79c1.76-3.71 3.99-8.49 5.99-12.07 2.01-3.59 3.79-6.32 5.8-9.57s6.35-10.19 6.35-10.19l16.97 15.17-12.06 14.74s6.12-0.32 10.96-0.54c4.85-0.21 11.53-0.72 16.13-1.05 3.07-0.21 11.52-1.26 11.52-1.26s-7.7 6.7-12.07 10.77c-4.37 4.08-10.54 9.39-14.08 13.71-3.72 4.53-5.97 6.4-10.05 11.11s-9.85 11.54-14.3 17.24c-4.45 5.69-8.34 11.11-12.41 16.89-4.07 5.77-8 11.59-11.98 17.75s-7.67 12.03-11.89 19.22c-4.23 7.19-13.36 23.95-13.36 23.95s-4.4-11.49-6.63-17.4c-2.24-5.91-4.18-12.08-6.79-18.08s-5.88-12.01-8.9-17.86-6.21-11.88-9.22-17.23c-3.01-5.36-5.11-9.05-8.79-14.91-3.68-5.87-9.03-14.14-13.44-20.17-4.41-6.02-9.1-11.68-12.84-16.03-3.74-4.34-5.96-6.82-9.39-10.16-3.43-3.35-7.45-6.85-11.2-9.83-3.76-2.98-7.53-5.78-11.3-8.1-3.76-2.32-7.76-4.4-11.2-5.86s-6.28-2.16-8.94-2.98-4.66-1.21-7.25-1.77c-2.58-0.57-6.34-1.37-10.34-2.17-3.99-0.81-7.17-1.57-13.28-3.16-6.11-1.6-15.65-4.12-21.63-5.95s-10.13-3.27-14.31-4.83c-4.17-1.55-7.98-3.16-10.77-4.39s-6.03-2.84-6.03-2.84-3.55-2.19-4.48-3.19c-0.93-1.01-1.38-2.33-1.38-2.33z" fill="#041e42"/>
</g>
</svg>
