<?xml version="1.0" encoding="UTF-8" standalone="no"?>
<!-- Created with Inkscape (http://www.inkscape.org/) -->

<svg
   xmlns:dc="http://purl.org/dc/elements/1.1/"
   xmlns:cc="http://creativecommons.org/ns#"
   xmlns:rdf="http://www.w3.org/1999/02/22-rdf-syntax-ns#"
   xmlns:svg="http://www.w3.org/2000/svg"
   xmlns="http://www.w3.org/2000/svg"
   xmlns:sodipodi="http://sodipodi.sourceforge.net/DTD/sodipodi-0.dtd"
   xmlns:inkscape="http://www.inkscape.org/namespaces/inkscape"
   width="800"
   height="600"
   id="svg2"
   version="1.1"
   inkscape:version="0.48.5 r10040"
   sodipodi:docname="2-lala.svg">
  <defs
     id="defs4" />
  <sodipodi:namedview
     id="base"
     pagecolor="#ffffff"
     bordercolor="#666666"
     borderopacity="1.0"
     inkscape:pageopacity="0.0"
     inkscape:pageshadow="2"
     inkscape:zoom="0.98994949"
     inkscape:cx="292.30627"
     inkscape:cy="212.6482"
     inkscape:document-units="px"
     inkscape:current-layer="layer1"
     showgrid="false"
     inkscape:window-width="1463"
     inkscape:window-height="944"
     inkscape:window-x="135"
     inkscape:window-y="24"
     inkscape:window-maximized="0" />
  <metadata
     id="metadata7">
    <rdf:RDF>
      <cc:Work
         rdf:about="">
        <dc:format>image/svg+xml</dc:format>
        <dc:type
           rdf:resource="http://purl.org/dc/dcmitype/StillImage" />
        <dc:title />
      </cc:Work>
    </rdf:RDF>
  </metadata>
  <g
     inkscape:label="Layer 1"
     inkscape:groupmode="layer"
     id="layer1"
     transform="translate(0,-452.36218)">
    <path
       style="fill:none;stroke:#000000;stroke-width:3;stroke-linecap:butt;stroke-linejoin:miter;stroke-miterlimit:4;stroke-opacity:1;stroke-dasharray:none"
       d="m 410.33152,872.99042 c -1.35202,20.83318 -8.65295,23.26823 -12.97943,36.79627 -4.32647,13.52804 -8.11214,21.64487 -7.57132,44.9131"
       id="path3033"
       inkscape:connector-curvature="0"
       sodipodi:nodetypes="csc" />
    <path
       style="fill:none;stroke:#000000;stroke-width:3;stroke-linecap:butt;stroke-linejoin:miter;stroke-miterlimit:4;stroke-opacity:1;stroke-dasharray:none"
       d="m 420.6069,871.63762 c -0.5408,15.69252 0,26.51496 5.94891,41.3958 5.94891,14.88084 9.19377,26.24439 9.19377,45.99534"
       id="path3803"
       inkscape:connector-curvature="0" />
    <path
       style="fill:none;stroke:#000000;stroke-width:3;stroke-linecap:butt;stroke-linejoin:miter;stroke-miterlimit:4;stroke-opacity:1;stroke-dasharray:none"
       d="M 407.62748,838.35864 C 397.35209,826.72453 388.42874,810.22031 378.96457,805.62078"
       id="path3805"
       inkscape:connector-curvature="0" />
    <path
       style="fill:none;stroke:#000000;stroke-width:3;stroke-linecap:butt;stroke-linejoin:miter;stroke-miterlimit:4;stroke-opacity:1;stroke-dasharray:none"
       d="m 435.20876,824.8306 c 13.24984,-12.98692 35.69344,-10.28131 45.1576,-9.46962"
       id="path3807"
       inkscape:connector-curvature="0" />
    <path
       style="fill:none;stroke:#000000;stroke-width:3;stroke-linecap:butt;stroke-linejoin:miter;stroke-miterlimit:4;stroke-opacity:1;stroke-dasharray:none"
       d="m 420.87731,797.50396 c -15.95388,21.64486 -22.17318,38.96075 -26.22926,50.59487 -4.05607,11.63411 -7.57133,22.45655 -7.57133,22.45655 0,0 2.16323,1.89392 7.57133,2.16448 5.4081,0.27056 30.82614,-1.89393 38.93828,-0.54111 8.11215,1.3528 14.60186,2.97615 14.60186,2.97615 0,0 -2.43364,-7.03458 -6.2193,-20.56261 -3.78567,-13.52804 -6.48972,-32.19673 -11.89781,-38.41964 -5.4081,-6.2229 -8.38255,-7.30514 -8.38255,-7.30514"
       id="path3809"
       inkscape:connector-curvature="0" />
    <path
       style="fill:none;stroke:#000000;stroke-width:3;stroke-linecap:butt;stroke-linejoin:miter;stroke-miterlimit:4;stroke-opacity:1;stroke-dasharray:none"
       d="m 451.70346,766.11891 c 1.35202,-11.36356 -9.46416,-25.70328 -20.28036,-24.89159 -10.8162,0.81167 -21.36197,1.62336 -26.77008,14.88083 -5.40809,13.25748 -7.30093,31.1145 -2.16323,38.14908 5.13769,7.03458 10.54579,6.2229 21.09157,-0.54112 10.54579,-6.76402 26.77008,-17.58645 28.1221,-27.5972 z"
       id="path3811"
       inkscape:connector-curvature="0" />
    <path
       style="fill:none;stroke:#000000;stroke-width:3;stroke-linecap:butt;stroke-linejoin:miter;stroke-miterlimit:4;stroke-opacity:1;stroke-dasharray:none"
       d="m 391.13279,809.13807 c -0.27041,-8.9285 2.97445,-18.12757 6.2193,-27.86776 3.24486,-9.74019 1.89284,-23.26823 5.40811,-29.22057 3.51525,-5.95234 14.60186,-19.20982 28.39249,-14.06916 13.79065,5.14065 21.36198,22.99767 24.87725,37.06683 3.51526,14.06917 5.67849,19.75094 5.67849,19.75094"
       id="path3813"
       inkscape:connector-curvature="0" />
    <path
       sodipodi:type="arc"
       style="color:#000000;fill:#000000;fill-opacity:1;fill-rule:nonzero;stroke:none;stroke-width:3;marker:none;visibility:visible;display:inline;overflow:visible;enable-background:accumulate"
       id="path3815"
       sodipodi:cx="393.07562"
       sodipodi:cy="428.08792"
       sodipodi:rx="1.6414979"
       sodipodi:ry="2.5253813"
       d="m 394.71712,428.08792 a 1.6414979,2.5253813 0 1 1 -3.283,0 1.6414979,2.5253813 0 1 1 3.283,0 z"
       transform="matrix(1.0707483,0,0,1.0713661,-1.2245522,298.55151)" />
    <path
       sodipodi:type="arc"
       style="color:#000000;fill:#000000;fill-opacity:1;fill-rule:nonzero;stroke:none;stroke-width:3;marker:none;visibility:visible;display:inline;overflow:visible;enable-background:accumulate"
       id="path3817"
       sodipodi:cx="400.9043"
       sodipodi:cy="426.0676"
       sodipodi:rx="1.6414979"
       sodipodi:ry="2.7779195"
       d="m 402.54579,426.0676 a 1.6414979,2.7779195 0 1 1 -3.28299,0 1.6414979,2.7779195 0 1 1 3.28299,0 z"
       transform="matrix(0.99132643,-0.40492328,0.4046898,0.99189837,-142.4784,494.7456)" />
    <path
       style="fill:#000000;fill-opacity:1;stroke:#000000;stroke-width:3;stroke-linecap:butt;stroke-linejoin:round;stroke-miterlimit:4;stroke-opacity:1;stroke-dasharray:none"
       d="m 428.41321,775.54442 -18.7381,0.86091 c 0,0 6.69218,11.86156 11.95032,7.84394 5.25814,-4.01763 6.78778,-8.70485 6.78778,-8.70485 z"
       id="path3819"
       inkscape:connector-curvature="0" />
    <path
       style="fill:none;stroke:#000000;stroke-width:3;stroke-linecap:butt;stroke-linejoin:miter;stroke-miterlimit:4;stroke-opacity:1;stroke-dasharray:none"
       d="M 2.0203051,973.63904 C 113.42708,986.62596 179.40585,948.74745 220.50737,951.99418 c 41.10153,3.24672 83.28467,21.64486 141.69211,22.7271 58.40742,1.08224 104.91705,14.06916 166.56934,12.98692 61.65229,-1.08224 114.65163,-25.97383 175.2223,-22.7271 60.57067,3.24672 93.01924,17.31589 93.01924,17.31589"
       id="path3821"
       inkscape:connector-curvature="0" />
  </g>
</svg>
