<?xml version="1.0" encoding="UTF-8" standalone="no"?>
<!-- Created with Inkscape (http://www.inkscape.org/) -->

<svg
   xmlns:dc="http://purl.org/dc/elements/1.1/"
   xmlns:cc="http://creativecommons.org/ns#"
   xmlns:rdf="http://www.w3.org/1999/02/22-rdf-syntax-ns#"
   xmlns:svg="http://www.w3.org/2000/svg"
   xmlns="http://www.w3.org/2000/svg"
   xmlns:sodipodi="http://sodipodi.sourceforge.net/DTD/sodipodi-0.dtd"
   xmlns:inkscape="http://www.inkscape.org/namespaces/inkscape"
   width="744.09448819"
   height="1052.3622047"
   id="svg2"
   version="1.1"
   inkscape:version="0.48.5 r10040"
   sodipodi:docname="3-andsing.svg">
  <defs
     id="defs4" />
  <sodipodi:namedview
     id="base"
     pagecolor="#ffffff"
     bordercolor="#666666"
     borderopacity="1.0"
     inkscape:pageopacity="0.0"
     inkscape:pageshadow="2"
     inkscape:zoom="0.98994949"
     inkscape:cx="442.92286"
     inkscape:cy="385.84364"
     inkscape:document-units="px"
     inkscape:current-layer="layer1"
     showgrid="false"
     inkscape:window-width="1463"
     inkscape:window-height="944"
     inkscape:window-x="129"
     inkscape:window-y="24"
     inkscape:window-maximized="0" />
  <metadata
     id="metadata7">
    <rdf:RDF>
      <cc:Work
         rdf:about="">
        <dc:format>image/svg+xml</dc:format>
        <dc:type
           rdf:resource="http://purl.org/dc/dcmitype/StillImage" />
        <dc:title></dc:title>
      </cc:Work>
    </rdf:RDF>
  </metadata>
  <g
     inkscape:label="Layer 1"
     inkscape:groupmode="layer"
     id="layer1">
    <path
       style="fill:none;stroke:#000000;stroke-width:3;stroke-linecap:butt;stroke-linejoin:miter;stroke-miterlimit:4;stroke-opacity:1;stroke-dasharray:none"
       d="m 783.3733,859.42305 c -1.26269,19.44543 -8.08122,21.71828 -12.12183,34.34519 -4.04061,12.6269 -7.57614,20.20305 -7.07106,41.92133"
       id="path3033"
       inkscape:connector-curvature="0"
       sodipodi:nodetypes="csc" />
    <path
       style="fill:none;stroke:#000000;stroke-width:3;stroke-linecap:butt;stroke-linejoin:miter;stroke-miterlimit:4;stroke-opacity:1;stroke-dasharray:none"
       d="m 792.96975,858.16036 c -0.50507,14.64721 0,24.74874 5.55584,38.63833 5.55584,13.8896 8.5863,24.4962 8.5863,42.93149"
       id="path3803"
       inkscape:connector-curvature="0" />
    <path
       style="fill:none;stroke:#000000;stroke-width:3;stroke-linecap:butt;stroke-linejoin:miter;stroke-miterlimit:4;stroke-opacity:1;stroke-dasharray:none"
       d="m 780.84792,827.09817 c -9.59645,-10.85914 -17.9302,-26.26397 -26.76904,-30.55712"
       id="path3805"
       inkscape:connector-curvature="0" />
    <path
       style="fill:none;stroke:#000000;stroke-width:3;stroke-linecap:butt;stroke-linejoin:miter;stroke-miterlimit:4;stroke-opacity:1;stroke-dasharray:none"
       d="m 806.60681,814.47126 c 12.37437,-12.12183 33.33504,-9.59645 42.17387,-8.83883"
       id="path3807"
       inkscape:connector-curvature="0" />
    <path
       style="fill:none;stroke:#000000;stroke-width:3;stroke-linecap:butt;stroke-linejoin:miter;stroke-miterlimit:4;stroke-opacity:1;stroke-dasharray:none"
       d="m 793.22229,788.96491 c -14.89975,20.20305 -20.70812,36.36549 -24.4962,47.22463 -3.78807,10.85914 -7.07106,20.96067 -7.07106,20.96067 0,0 2.0203,1.76776 7.07106,2.0203 5.05077,0.25254 28.78935,-1.76777 36.36549,-0.50507 7.57615,1.26269 13.63706,2.77791 13.63706,2.77791 0,0 -2.27284,-6.56599 -5.80837,-19.19289 -3.53554,-12.62691 -6.06092,-30.05204 -11.11168,-35.86042 -5.05076,-5.80838 -7.82868,-6.81853 -7.82868,-6.81853"
       id="path3809"
       inkscape:connector-curvature="0" />
    <path
       style="fill:none;stroke:#000000;stroke-width:3;stroke-linecap:butt;stroke-linejoin:miter;stroke-miterlimit:4;stroke-opacity:1;stroke-dasharray:none"
       d="m 822.01164,759.67049 c 1.26269,-10.60661 -8.83883,-23.99113 -18.94036,-23.23351 -10.10153,0.75761 -19.95051,1.51523 -25.00128,13.88959 -5.05076,12.37437 -6.81853,29.04189 -2.0203,35.60788 4.79822,6.56599 9.84899,5.80838 19.69797,-0.50507 9.84899,-6.31346 25.00128,-16.41498 26.26397,-25.75889 z"
       id="path3811"
       inkscape:connector-curvature="0" />
    <path
       style="fill:none;stroke:#000000;stroke-width:3;stroke-linecap:butt;stroke-linejoin:miter;stroke-miterlimit:4;stroke-opacity:1;stroke-dasharray:none"
       d="m 765.4431,799.82405 c -0.25254,-8.33376 2.77792,-16.92006 5.80837,-26.01143 3.03046,-9.09137 1.76777,-21.71828 5.05077,-27.27412 3.28299,-5.55584 13.63706,-17.93021 26.5165,-13.13198 12.87945,4.79822 19.95051,21.46574 23.23351,34.59772 3.283,13.13199 5.3033,18.43529 5.3033,18.43529"
       id="path3813"
       inkscape:connector-curvature="0" />
    <path
       sodipodi:type="arc"
       style="color:#000000;fill:#000000;fill-opacity:1;fill-rule:nonzero;stroke:none;stroke-width:3;marker:none;visibility:visible;display:inline;overflow:visible;enable-background:accumulate"
       id="path3815"
       sodipodi:cx="393.07562"
       sodipodi:cy="428.08792"
       sodipodi:rx="1.6414979"
       sodipodi:ry="2.5253813"
       d="m 394.71712,428.08792 a 1.6414979,2.5253813 0 1 1 -3.283,0 1.6414979,2.5253813 0 1 1 3.283,0 z"
       transform="translate(399.01026,323.24882)" />
    <path
       sodipodi:type="arc"
       style="color:#000000;fill:#000000;fill-opacity:1;fill-rule:nonzero;stroke:none;stroke-width:3;marker:none;visibility:visible;display:inline;overflow:visible;enable-background:accumulate"
       id="path3817"
       sodipodi:cx="400.9043"
       sodipodi:cy="426.0676"
       sodipodi:rx="1.6414979"
       sodipodi:ry="2.7779195"
       d="m 402.54579,426.0676 a 1.6414979,2.7779195 0 1 1 -3.28299,0 1.6414979,2.7779195 0 1 1 3.28299,0 z"
       transform="matrix(0.92582583,-0.37795045,0.37795045,0.92582583,267.08957,506.37399)" />
    <path
       style="fill:#000000;fill-opacity:1;stroke:#000000;stroke-width:3;stroke-linecap:butt;stroke-linejoin:round;stroke-miterlimit:4;stroke-opacity:1;stroke-dasharray:none"
       d="m 800.26026,768.46814 -17.5,0.80357 c 0,0 6.25,11.07143 11.16072,7.32143 4.91071,-3.75 6.33928,-8.125 6.33928,-8.125 z"
       id="path3819"
       inkscape:connector-curvature="0" />
    <path
       style="fill:none;stroke:#000000;stroke-width:3;stroke-linecap:butt;stroke-linejoin:miter;stroke-opacity:1;stroke-miterlimit:4;stroke-dasharray:none"
       d="M 3.0304576,630.11842 C 107.07617,642.24025 168.69548,606.88491 207.08127,609.91537 c 38.3858,3.03045 77.78175,20.20305 132.32999,21.2132 54.54823,1.01015 97.98479,13.13198 155.56349,12.12183 57.57869,-1.01015 107.07617,-24.24366 163.64471,-21.2132 56.56854,3.03045 86.87312,16.16244 86.87312,16.16244"
       id="path3821"
       inkscape:connector-curvature="0" />
    <path
       style="fill:none;stroke:#000000;stroke-width:3;stroke-linecap:round;stroke-linejoin:round;stroke-opacity:1;stroke-miterlimit:4;stroke-dasharray:none"
       d="m 380.32243,492.73767 c -4.54568,14.89975 -12.12183,37.37564 -15.65736,45.20433 -3.53553,7.82868 -7.32361,11.61675 -7.32361,11.61675 0,0 13.8896,-3.53553 21.97082,-3.53553 8.08122,0 20.70813,2.0203 20.70813,2.0203 0,0 -3.53553,-4.29315 -5.05076,-9.59645 -1.51523,-5.3033 -5.55584,-23.23351 -10.10153,-31.31473 -4.54569,-8.08122 -8.08122,-8.83883 -8.08122,-8.83883"
       id="path3834"
       inkscape:connector-curvature="0" />
    <path
       style="fill:none;stroke:#000000;stroke-width:3;stroke-linecap:butt;stroke-linejoin:miter;stroke-opacity:1;stroke-miterlimit:4;stroke-dasharray:none"
       d="m 371.73614,519.00164 c -5.3033,-8.83884 -5.3033,-10.10153 -9.34391,-11.8693 -4.04061,-1.76776 -5.80838,-4.29314 -5.80838,-4.29314"
       id="path3836"
       inkscape:connector-curvature="0" />
    <path
       style="fill:none;stroke:#000000;stroke-width:3;stroke-linecap:butt;stroke-linejoin:miter;stroke-opacity:1;stroke-miterlimit:4;stroke-dasharray:none"
       d="m 387.14096,508.90011 c 13.13199,-1.26269 19.95052,-5.55584 19.95052,-5.55584"
       id="path3838"
       inkscape:connector-curvature="0" />
    <path
       style="fill:none;stroke:#000000;stroke-width:3;stroke-linecap:butt;stroke-linejoin:miter;stroke-opacity:1;stroke-miterlimit:4;stroke-dasharray:none"
       d="m 372.99883,547.03337 c 0.25254,10.6066 1.26269,38.63833 -1.01015,47.72971"
       id="path3840"
       inkscape:connector-curvature="0" />
    <path
       style="fill:none;stroke:#000000;stroke-width:3;stroke-linecap:butt;stroke-linejoin:miter;stroke-opacity:1;stroke-miterlimit:4;stroke-dasharray:none"
       d="m 383.35289,546.78083 c 5.55584,20.70813 8.83884,34.85026 9.34391,45.45687"
       id="path3842"
       inkscape:connector-curvature="0" />
    <path
       style="fill:none;stroke:#000000;stroke-width:3;stroke-linecap:butt;stroke-linejoin:miter;stroke-opacity:1;stroke-miterlimit:4;stroke-dasharray:none"
       d="m 380.17857,491.73718 c -12.67857,2.32143 -19.28571,-3.48214 -18.39285,-12.32143 0.89285,-8.83928 6.78571,-32.58929 13.39285,-32.85714 6.60715,-0.26786 15.89286,9.64286 17.58929,24.55357 1.69643,14.91071 -12.58929,20.625 -12.58929,20.625 z"
       id="path3844"
       inkscape:connector-curvature="0" />
    <path
       sodipodi:type="arc"
       style="color:#000000;fill:#000000;fill-opacity:1;fill-rule:nonzero;stroke:none;stroke-width:1;marker:none;visibility:visible;display:inline;overflow:visible;enable-background:accumulate"
       id="path3846"
       sodipodi:cx="371.91965"
       sodipodi:cy="465.84433"
       sodipodi:rx="1.0267857"
       sodipodi:ry="7.1428571"
       d="m 372.94643,465.84433 a 1.0267857,7.1428571 0 1 1 -2.05357,0 1.0267857,7.1428571 0 1 1 2.05357,0 z"
       transform="translate(-0.71428572,-0.44642857)" />
    <path
       sodipodi:type="arc"
       style="color:#000000;fill:#000000;fill-opacity:1;fill-rule:nonzero;stroke:none;stroke-width:1;marker:none;visibility:visible;display:inline;overflow:visible;enable-background:accumulate"
       id="path3848"
       sodipodi:cx="381.74106"
       sodipodi:cy="464.72824"
       sodipodi:rx="1.3839285"
       sodipodi:ry="4.0625"
       d="m 383.12499,464.72824 a 1.3839285,4.0625 0 1 1 -2.76786,0 1.3839285,4.0625 0 1 1 2.76786,0 z" />
    <path
       style="fill:#000000;stroke:#000000;stroke-width:3;stroke-linecap:round;stroke-linejoin:round;stroke-opacity:1;fill-opacity:1;stroke-miterlimit:4;stroke-dasharray:none"
       d="m 367.32143,479.14789 14.10714,0 c 0,0 -1.33928,8.48215 -6.33928,8.21429 -5,-0.26786 -7.76786,-8.21429 -7.76786,-8.21429 z"
       id="path3850"
       inkscape:connector-curvature="0" />
    <path
       style="fill:none;stroke:#000000;stroke-width:3;stroke-linecap:butt;stroke-linejoin:miter;stroke-opacity:1;stroke-miterlimit:4;stroke-dasharray:none"
       d="m 402.79833,491.47498 c -5.05076,-9.21764 -11.11168,-31.69354 -13.8896,-36.11295 -2.77792,-4.41942 -5.55584,-12.62691 -14.52094,-9.21765 -8.96511,3.40927 -9.97526,15.5311 -10.85914,20.32932 -0.88388,4.79823 -4.04061,28.78935 -4.41942,33.33504"
       id="path3852"
       inkscape:connector-curvature="0" />
    <path
       style="fill:none;stroke:#000000;stroke-width:3;stroke-linecap:butt;stroke-linejoin:miter;stroke-opacity:1;stroke-miterlimit:4;stroke-dasharray:none"
       d="m 67.321429,589.86218 c -16.428572,-16.60714 -20.178572,-25.35714 -20,-29.64286"
       id="path3854"
       inkscape:connector-curvature="0" />
    <path
       style="fill:none;stroke:#000000;stroke-width:3;stroke-linecap:butt;stroke-linejoin:miter;stroke-opacity:1;stroke-miterlimit:4;stroke-dasharray:none"
       d="M 29.285714,579.86218 C 38.214286,572.18361 47.5,560.04075 47.5,560.04075"
       id="path3856"
       inkscape:connector-curvature="0" />
    <path
       style="fill:none;stroke:#000000;stroke-width:3;stroke-linecap:butt;stroke-linejoin:miter;stroke-opacity:1;stroke-miterlimit:4;stroke-dasharray:none"
       d="m 41.964286,510.57647 c -2.321429,13.92857 -3.214286,21.42857 -8.75,28.03571 -5.535714,6.60714 -6.964286,11.07143 -6.964286,11.07143 0,0 7.321429,6.25 14.285714,8.21428 6.964286,1.96429 15.178572,3.57143 15.178572,3.57143 0,0 -2.142857,-11.78571 -5.178571,-20.35714 -3.035715,-8.57143 -3.75,-7.67857 -5.892858,-15.89286 C 42.5,517.00504 41.964286,510.57647 41.964286,510.57647 z"
       id="path3858"
       inkscape:connector-curvature="0" />
    <path
       style="fill:none;stroke:#000000;stroke-width:3;stroke-linecap:butt;stroke-linejoin:miter;stroke-opacity:1;stroke-miterlimit:4;stroke-dasharray:none"
       d="m 43.571429,517.54075 c 7.321429,6.60714 17.321429,13.21428 17.321429,13.21428"
       id="path3860"
       inkscape:connector-curvature="0" />
    <path
       style="fill:none;stroke:#000000;stroke-width:3;stroke-linecap:butt;stroke-linejoin:miter;stroke-opacity:1;stroke-miterlimit:4;stroke-dasharray:none"
       d="m 40.215703,517.715 c -7.791452,8.77954 -18.467121,18.75864 -18.467121,18.75864"
       id="path3862"
       inkscape:connector-curvature="0" />
    <path
       style="fill:none;stroke:#000000;stroke-width:3;stroke-linecap:butt;stroke-linejoin:miter;stroke-opacity:1;stroke-miterlimit:4;stroke-dasharray:none"
       d="m 42.053572,509.32647 c 8.571428,-0.53572 13.482143,-8.75 14.285714,-13.39286 0.803571,-4.64286 3.214286,-13.21429 -0.535714,-16.07143 -3.75,-2.85714 -8.75,-6.33929 -12.5,-5.98214 -3.75,0.35714 -10.625,8.39285 -11.339286,16.51785 -0.714286,8.125 -1.25,14.19643 2.5,16.96429 3.75,2.76786 7.589286,1.96429 7.589286,1.96429 z"
       id="path3864"
       inkscape:connector-curvature="0" />
    <path
       style="fill:none;stroke:#000000;stroke-width:3;stroke-linecap:butt;stroke-linejoin:miter;stroke-opacity:1;stroke-miterlimit:4;stroke-dasharray:none"
       d="m 22.857143,503.25504 c 4.017857,-9.01786 8.125,-19.19643 12.857143,-24.19643 4.732143,-5 6.964286,-9.64286 16.160714,-3.30357 9.196429,6.33928 7.232143,10.625 12.053572,14.28571 4.821428,3.66072 5.357143,5.98214 5.357143,5.98214"
       id="path3866"
       inkscape:connector-curvature="0" />
    <path
       style="fill:none;stroke:#000000;stroke-width:3;stroke-linecap:butt;stroke-linejoin:miter;stroke-opacity:1;stroke-miterlimit:4;stroke-dasharray:none"
       d="m 39.332815,502.71293 c 0.631345,-7.89182 2.272843,-7.51301 4.356283,-7.95496 2.083439,-0.44194 5.303301,1.83091 5.997781,6.62913"
       id="path3868"
       inkscape:connector-curvature="0" />
    <path
       sodipodi:type="arc"
       style="color:#000000;fill:#000000;fill-opacity:1;fill-rule:nonzero;stroke:none;stroke-width:3;marker:none;visibility:visible;display:inline;overflow:visible;enable-background:accumulate"
       id="path3870"
       sodipodi:cx="41.195282"
       sodipodi:cy="486.77145"
       sodipodi:rx="1.5467961"
       sodipodi:ry="3.1251595"
       d="m 42.742078,486.77145 a 1.5467961,3.1251595 0 1 1 -3.093592,0 1.5467961,3.1251595 0 1 1 3.093592,0 z" />
    <path
       sodipodi:type="arc"
       style="color:#000000;fill:#000000;fill-opacity:1;fill-rule:nonzero;stroke:none;stroke-width:3;marker:none;visibility:visible;display:inline;overflow:visible;enable-background:accumulate"
       id="path3872"
       sodipodi:cx="51.17054"
       sodipodi:cy="485.72974"
       sodipodi:rx="1.5467961"
       sodipodi:ry="2.6516504"
       d="m 52.717336,485.72974 a 1.5467961,2.6516504 0 1 1 -3.093592,0 1.5467961,2.6516504 0 1 1 3.093592,0 z" />
  </g>
</svg>
