<?xml version="1.0" encoding="UTF-8" standalone="no"?>
<!-- Created with Inkscape (http://www.inkscape.org/) -->

<svg
   xmlns:dc="http://purl.org/dc/elements/1.1/"
   xmlns:cc="http://creativecommons.org/ns#"
   xmlns:rdf="http://www.w3.org/1999/02/22-rdf-syntax-ns#"
   xmlns:svg="http://www.w3.org/2000/svg"
   xmlns="http://www.w3.org/2000/svg"
   xmlns:sodipodi="http://sodipodi.sourceforge.net/DTD/sodipodi-0.dtd"
   xmlns:inkscape="http://www.inkscape.org/namespaces/inkscape"
   width="744.09448819"
   height="1052.3622047"
   id="svg2"
   version="1.1"
   inkscape:version="0.48.5 r10040"
   sodipodi:docname="3-andsing.svg">
  <defs
     id="defs4" />
  <sodipodi:namedview
     id="base"
     pagecolor="#ffffff"
     bordercolor="#666666"
     borderopacity="1.0"
     inkscape:pageopacity="0.0"
     inkscape:pageshadow="2"
     inkscape:zoom="0.7"
     inkscape:cx="113.96777"
     inkscape:cy="366.49724"
     inkscape:document-units="px"
     inkscape:current-layer="layer1"
     showgrid="false"
     inkscape:window-width="1463"
     inkscape:window-height="944"
     inkscape:window-x="129"
     inkscape:window-y="24"
     inkscape:window-maximized="0"
     showguides="true"
     inkscape:guide-bbox="true" />
  <metadata
     id="metadata7">
    <rdf:RDF>
      <cc:Work
         rdf:about="">
        <dc:format>image/svg+xml</dc:format>
        <dc:type
           rdf:resource="http://purl.org/dc/dcmitype/StillImage" />
        <dc:title></dc:title>
      </cc:Work>
    </rdf:RDF>
  </metadata>
  <g
     inkscape:label="Layer 1"
     inkscape:groupmode="layer"
     id="layer1">
    <path
       style="fill:none;stroke:#000000;stroke-width:3;stroke-linecap:butt;stroke-linejoin:miter;stroke-miterlimit:4;stroke-opacity:1;stroke-dasharray:none"
       d="m 783.3733,859.42305 c -1.26269,19.44543 -8.08122,21.71828 -12.12183,34.34519 -4.04061,12.6269 -7.57614,20.20305 -7.07106,41.92133"
       id="path3033"
       inkscape:connector-curvature="0"
       sodipodi:nodetypes="csc" />
    <path
       style="fill:none;stroke:#000000;stroke-width:3;stroke-linecap:butt;stroke-linejoin:miter;stroke-miterlimit:4;stroke-opacity:1;stroke-dasharray:none"
       d="m 792.96975,858.16036 c -0.50507,14.64721 0,24.74874 5.55584,38.63833 5.55584,13.8896 8.5863,24.4962 8.5863,42.93149"
       id="path3803"
       inkscape:connector-curvature="0" />
    <path
       style="fill:none;stroke:#000000;stroke-width:3;stroke-linecap:butt;stroke-linejoin:miter;stroke-miterlimit:4;stroke-opacity:1;stroke-dasharray:none"
       d="m 780.84792,827.09817 c -9.59645,-10.85914 -17.9302,-26.26397 -26.76904,-30.55712"
       id="path3805"
       inkscape:connector-curvature="0" />
    <path
       style="fill:none;stroke:#000000;stroke-width:3;stroke-linecap:butt;stroke-linejoin:miter;stroke-miterlimit:4;stroke-opacity:1;stroke-dasharray:none"
       d="m 806.60681,814.47126 c 12.37437,-12.12183 33.33504,-9.59645 42.17387,-8.83883"
       id="path3807"
       inkscape:connector-curvature="0" />
    <path
       style="fill:none;stroke:#000000;stroke-width:3;stroke-linecap:butt;stroke-linejoin:miter;stroke-miterlimit:4;stroke-opacity:1;stroke-dasharray:none"
       d="m 793.22229,788.96491 c -14.89975,20.20305 -20.70812,36.36549 -24.4962,47.22463 -3.78807,10.85914 -7.07106,20.96067 -7.07106,20.96067 0,0 2.0203,1.76776 7.07106,2.0203 5.05077,0.25254 28.78935,-1.76777 36.36549,-0.50507 7.57615,1.26269 13.63706,2.77791 13.63706,2.77791 0,0 -2.27284,-6.56599 -5.80837,-19.19289 -3.53554,-12.62691 -6.06092,-30.05204 -11.11168,-35.86042 -5.05076,-5.80838 -7.82868,-6.81853 -7.82868,-6.81853"
       id="path3809"
       inkscape:connector-curvature="0" />
    <path
       style="fill:none;stroke:#000000;stroke-width:3;stroke-linecap:butt;stroke-linejoin:miter;stroke-miterlimit:4;stroke-opacity:1;stroke-dasharray:none"
       d="m 822.01164,759.67049 c 1.26269,-10.60661 -8.83883,-23.99113 -18.94036,-23.23351 -10.10153,0.75761 -19.95051,1.51523 -25.00128,13.88959 -5.05076,12.37437 -6.81853,29.04189 -2.0203,35.60788 4.79822,6.56599 9.84899,5.80838 19.69797,-0.50507 9.84899,-6.31346 25.00128,-16.41498 26.26397,-25.75889 z"
       id="path3811"
       inkscape:connector-curvature="0" />
    <path
       style="fill:none;stroke:#000000;stroke-width:3;stroke-linecap:butt;stroke-linejoin:miter;stroke-miterlimit:4;stroke-opacity:1;stroke-dasharray:none"
       d="m 765.4431,799.82405 c -0.25254,-8.33376 2.77792,-16.92006 5.80837,-26.01143 3.03046,-9.09137 1.76777,-21.71828 5.05077,-27.27412 3.28299,-5.55584 13.63706,-17.93021 26.5165,-13.13198 12.87945,4.79822 19.95051,21.46574 23.23351,34.59772 3.283,13.13199 5.3033,18.43529 5.3033,18.43529"
       id="path3813"
       inkscape:connector-curvature="0" />
    <path
       sodipodi:type="arc"
       style="color:#000000;fill:#000000;fill-opacity:1;fill-rule:nonzero;stroke:none;stroke-width:3;marker:none;visibility:visible;display:inline;overflow:visible;enable-background:accumulate"
       id="path3815"
       sodipodi:cx="393.07562"
       sodipodi:cy="428.08792"
       sodipodi:rx="1.6414979"
       sodipodi:ry="2.5253813"
       d="m 394.71712,428.08792 a 1.6414979,2.5253813 0 1 1 -3.283,0 1.6414979,2.5253813 0 1 1 3.283,0 z"
       transform="translate(399.01026,323.24882)" />
    <path
       sodipodi:type="arc"
       style="color:#000000;fill:#000000;fill-opacity:1;fill-rule:nonzero;stroke:none;stroke-width:3;marker:none;visibility:visible;display:inline;overflow:visible;enable-background:accumulate"
       id="path3817"
       sodipodi:cx="400.9043"
       sodipodi:cy="426.0676"
       sodipodi:rx="1.6414979"
       sodipodi:ry="2.7779195"
       d="m 402.54579,426.0676 a 1.6414979,2.7779195 0 1 1 -3.28299,0 1.6414979,2.7779195 0 1 1 3.28299,0 z"
       transform="matrix(0.92582583,-0.37795045,0.37795045,0.92582583,267.08957,506.37399)" />
    <path
       style="fill:#000000;fill-opacity:1;stroke:#000000;stroke-width:3;stroke-linecap:butt;stroke-linejoin:round;stroke-miterlimit:4;stroke-opacity:1;stroke-dasharray:none"
       d="m 800.26026,768.46814 -17.5,0.80357 c 0,0 6.25,11.07143 11.16072,7.32143 4.91071,-3.75 6.33928,-8.125 6.33928,-8.125 z"
       id="path3819"
       inkscape:connector-curvature="0" />
    <path
       style="fill:none;stroke:#000000;stroke-width:3;stroke-linecap:butt;stroke-linejoin:miter;stroke-opacity:1;stroke-miterlimit:4;stroke-dasharray:none"
       d="M 3.0304576,630.11842 C 107.07617,642.24025 168.69548,606.88491 207.08127,609.91537 c 38.3858,3.03045 77.78175,20.20305 132.32999,21.2132 54.54823,1.01015 97.98479,13.13198 155.56349,12.12183 57.57869,-1.01015 107.07617,-24.24366 163.64471,-21.2132 56.56854,3.03045 86.87312,16.16244 86.87312,16.16244"
       id="path3821"
       inkscape:connector-curvature="0" />
    <path
       style="fill:none;stroke:#000000;stroke-width:3;stroke-linecap:round;stroke-linejoin:round;stroke-miterlimit:4;stroke-opacity:1;stroke-dasharray:none"
       d="m 913.68298,815.98649 c -4.54568,14.89975 -12.12183,37.37564 -15.65736,45.20433 -3.53553,7.82868 -7.32361,11.61675 -7.32361,11.61675 0,0 13.8896,-3.53553 21.97082,-3.53553 8.08122,0 20.70813,2.0203 20.70813,2.0203 0,0 -3.53553,-4.29315 -5.05076,-9.59645 -1.51523,-5.3033 -5.55584,-23.23351 -10.10153,-31.31473 -4.54569,-8.08122 -8.08122,-8.83883 -8.08122,-8.83883"
       id="path3834"
       inkscape:connector-curvature="0" />
    <path
       style="fill:none;stroke:#000000;stroke-width:3;stroke-linecap:butt;stroke-linejoin:miter;stroke-miterlimit:4;stroke-opacity:1;stroke-dasharray:none"
       d="m 905.09669,842.25046 c -5.3033,-8.83884 -5.3033,-10.10153 -9.34391,-11.8693 -4.04061,-1.76776 -5.80838,-4.29314 -5.80838,-4.29314"
       id="path3836"
       inkscape:connector-curvature="0" />
    <path
       style="fill:none;stroke:#000000;stroke-width:3;stroke-linecap:butt;stroke-linejoin:miter;stroke-miterlimit:4;stroke-opacity:1;stroke-dasharray:none"
       d="m 920.50151,832.14893 c 13.13199,-1.26269 19.95052,-5.55584 19.95052,-5.55584"
       id="path3838"
       inkscape:connector-curvature="0" />
    <path
       style="fill:none;stroke:#000000;stroke-width:3;stroke-linecap:butt;stroke-linejoin:miter;stroke-miterlimit:4;stroke-opacity:1;stroke-dasharray:none"
       d="m 906.35938,870.28219 c 0.25254,10.6066 1.26269,38.63833 -1.01015,47.72971"
       id="path3840"
       inkscape:connector-curvature="0" />
    <path
       style="fill:none;stroke:#000000;stroke-width:3;stroke-linecap:butt;stroke-linejoin:miter;stroke-miterlimit:4;stroke-opacity:1;stroke-dasharray:none"
       d="m 916.71344,870.02965 c 5.55584,20.70813 8.83884,34.85026 9.34391,45.45687"
       id="path3842"
       inkscape:connector-curvature="0" />
    <path
       style="fill:none;stroke:#000000;stroke-width:3;stroke-linecap:butt;stroke-linejoin:miter;stroke-miterlimit:4;stroke-opacity:1;stroke-dasharray:none"
       d="m 913.53912,814.986 c -12.67857,2.32143 -19.28571,-3.48214 -18.39285,-12.32143 0.89285,-8.83928 6.78571,-32.58929 13.39285,-32.85714 6.60715,-0.26786 15.89286,9.64286 17.58929,24.55357 1.69643,14.91071 -12.58929,20.625 -12.58929,20.625 z"
       id="path3844"
       inkscape:connector-curvature="0" />
    <path
       sodipodi:type="arc"
       style="color:#000000;fill:#000000;fill-opacity:1;fill-rule:nonzero;stroke:none;stroke-width:1;marker:none;visibility:visible;display:inline;overflow:visible;enable-background:accumulate"
       id="path3846"
       sodipodi:cx="371.91965"
       sodipodi:cy="465.84433"
       sodipodi:rx="1.0267857"
       sodipodi:ry="7.1428571"
       d="m 372.94643,465.84433 a 1.0267857,7.1428571 0 1 1 -2.05357,0 1.0267857,7.1428571 0 1 1 2.05357,0 z"
       transform="translate(532.64626,322.80239)" />
    <path
       sodipodi:type="arc"
       style="color:#000000;fill:#000000;fill-opacity:1;fill-rule:nonzero;stroke:none;stroke-width:1;marker:none;visibility:visible;display:inline;overflow:visible;enable-background:accumulate"
       id="path3848"
       sodipodi:cx="381.74106"
       sodipodi:cy="464.72824"
       sodipodi:rx="1.3839285"
       sodipodi:ry="4.0625"
       d="m 383.12499,464.72824 a 1.3839285,4.0625 0 1 1 -2.76786,0 1.3839285,4.0625 0 1 1 2.76786,0 z"
       transform="translate(533.36055,323.24882)" />
    <path
       style="fill:#000000;fill-opacity:1;stroke:#000000;stroke-width:3;stroke-linecap:round;stroke-linejoin:round;stroke-miterlimit:4;stroke-opacity:1;stroke-dasharray:none"
       d="m 900.68198,802.39671 14.10714,0 c 0,0 -1.33928,8.48215 -6.33928,8.21429 -5,-0.26786 -7.76786,-8.21429 -7.76786,-8.21429 z"
       id="path3850"
       inkscape:connector-curvature="0" />
    <path
       style="fill:none;stroke:#000000;stroke-width:3;stroke-linecap:butt;stroke-linejoin:miter;stroke-miterlimit:4;stroke-opacity:1;stroke-dasharray:none"
       d="m 936.15888,814.7238 c -5.05076,-9.21764 -11.11168,-31.69354 -13.8896,-36.11295 -2.77792,-4.41942 -5.55584,-12.62691 -14.52094,-9.21765 -8.96511,3.40927 -9.97526,15.5311 -10.85914,20.32932 -0.88388,4.79823 -4.04061,28.78935 -4.41942,33.33504"
       id="path3852"
       inkscape:connector-curvature="0" />
    <path
       style="fill:none;stroke:#000000;stroke-width:3;stroke-linecap:butt;stroke-linejoin:miter;stroke-miterlimit:4;stroke-opacity:1;stroke-dasharray:none"
       d="m -45.815656,975.74045 c -16.428572,-16.60714 -20.178572,-25.35714 -20,-29.64286"
       id="path3854"
       inkscape:connector-curvature="0" />
    <path
       style="fill:none;stroke:#000000;stroke-width:3;stroke-linecap:butt;stroke-linejoin:miter;stroke-miterlimit:4;stroke-opacity:1;stroke-dasharray:none"
       d="m -83.851371,965.74045 c 8.928572,-7.67857 18.214286,-19.82143 18.214286,-19.82143"
       id="path3856"
       inkscape:connector-curvature="0" />
    <path
       style="fill:none;stroke:#000000;stroke-width:3;stroke-linecap:butt;stroke-linejoin:miter;stroke-miterlimit:4;stroke-opacity:1;stroke-dasharray:none"
       d="m -71.172799,896.45474 c -2.321429,13.92857 -3.214286,21.42857 -8.75,28.03571 -5.535714,6.60714 -6.964286,11.07143 -6.964286,11.07143 0,0 7.321429,6.25 14.285714,8.21428 6.964286,1.96429 15.178572,3.57143 15.178572,3.57143 0,0 -2.142857,-11.78571 -5.178571,-20.35714 -3.035715,-8.57143 -3.75,-7.67857 -5.892858,-15.89286 -2.142857,-8.21428 -2.678571,-14.64285 -2.678571,-14.64285 z"
       id="path3858"
       inkscape:connector-curvature="0" />
    <path
       style="fill:none;stroke:#000000;stroke-width:3;stroke-linecap:butt;stroke-linejoin:miter;stroke-miterlimit:4;stroke-opacity:1;stroke-dasharray:none"
       d="m -69.565656,903.41902 c 7.321429,6.60714 17.321429,13.21428 17.321429,13.21428"
       id="path3860"
       inkscape:connector-curvature="0" />
    <path
       style="fill:none;stroke:#000000;stroke-width:3;stroke-linecap:butt;stroke-linejoin:miter;stroke-miterlimit:4;stroke-opacity:1;stroke-dasharray:none"
       d="m -72.921382,903.59327 c -7.791452,8.77954 -18.467121,18.75864 -18.467121,18.75864"
       id="path3862"
       inkscape:connector-curvature="0" />
    <path
       style="fill:none;stroke:#000000;stroke-width:3;stroke-linecap:butt;stroke-linejoin:miter;stroke-miterlimit:4;stroke-opacity:1;stroke-dasharray:none"
       d="m -71.083513,895.20474 c 8.571428,-0.53572 13.482143,-8.75 14.285714,-13.39286 0.803571,-4.64286 3.214286,-13.21429 -0.535714,-16.07143 -3.75,-2.85714 -8.75,-6.33929 -12.5,-5.98214 -3.75,0.35714 -10.625,8.39285 -11.339286,16.51785 -0.714286,8.125 -1.25,14.19643 2.5,16.96429 3.75,2.76786 7.589286,1.96429 7.589286,1.96429 z"
       id="path3864"
       inkscape:connector-curvature="0" />
    <path
       style="fill:none;stroke:#000000;stroke-width:3;stroke-linecap:butt;stroke-linejoin:miter;stroke-miterlimit:4;stroke-opacity:1;stroke-dasharray:none"
       d="m -90.279942,889.13331 c 4.017857,-9.01786 8.125,-19.19643 12.857143,-24.19643 4.732143,-5 6.964286,-9.64286 16.160714,-3.30357 9.196429,6.33928 7.232143,10.625 12.053572,14.28571 4.821428,3.66072 5.357143,5.98214 5.357143,5.98214"
       id="path3866"
       inkscape:connector-curvature="0" />
    <path
       style="fill:none;stroke:#000000;stroke-width:3;stroke-linecap:butt;stroke-linejoin:miter;stroke-miterlimit:4;stroke-opacity:1;stroke-dasharray:none"
       d="m -73.80427,888.5912 c 0.631345,-7.89182 2.272843,-7.51301 4.356283,-7.95496 2.083439,-0.44194 5.303301,1.83091 5.997781,6.62913"
       id="path3868"
       inkscape:connector-curvature="0" />
    <path
       sodipodi:type="arc"
       style="color:#000000;fill:#000000;fill-opacity:1;fill-rule:nonzero;stroke:none;stroke-width:3;marker:none;visibility:visible;display:inline;overflow:visible;enable-background:accumulate"
       id="path3870"
       sodipodi:cx="41.195282"
       sodipodi:cy="486.77145"
       sodipodi:rx="1.5467961"
       sodipodi:ry="3.1251595"
       d="m 42.742078,486.77145 a 1.5467961,3.1251595 0 1 1 -3.093592,0 1.5467961,3.1251595 0 1 1 3.093592,0 z"
       transform="translate(-113.13709,385.87827)" />
    <path
       sodipodi:type="arc"
       style="color:#000000;fill:#000000;fill-opacity:1;fill-rule:nonzero;stroke:none;stroke-width:3;marker:none;visibility:visible;display:inline;overflow:visible;enable-background:accumulate"
       id="path3872"
       sodipodi:cx="51.17054"
       sodipodi:cy="485.72974"
       sodipodi:rx="1.5467961"
       sodipodi:ry="2.6516504"
       d="m 52.717336,485.72974 a 1.5467961,2.6516504 0 1 1 -3.093592,0 1.5467961,2.6516504 0 1 1 3.093592,0 z"
       transform="translate(-113.13709,385.87827)" />
    <path
       style="fill:none;stroke:#000000;stroke-width:3;stroke-linecap:butt;stroke-linejoin:miter;stroke-opacity:1;stroke-miterlimit:4;stroke-dasharray:none"
       d="m 320.72343,617.99659 c -1.26269,-8.83884 2.27285,-25.00128 3.03046,-31.06219 0.75762,-6.06092 0.50508,-12.37437 -1.76776,-16.66752"
       id="path3885"
       inkscape:connector-curvature="0" />
    <path
       style="fill:none;stroke:#000000;stroke-width:3;stroke-linecap:butt;stroke-linejoin:miter;stroke-opacity:1;stroke-miterlimit:4;stroke-dasharray:none"
       d="m 332.08765,565.72119 c 4.29315,11.61676 5.3033,30.05204 7.57614,37.88072"
       id="path3887"
       inkscape:connector-curvature="0" />
    <path
       style="fill:none;stroke:#000000;stroke-width:3;stroke-linecap:butt;stroke-linejoin:miter;stroke-opacity:1;stroke-miterlimit:4;stroke-dasharray:none"
       d="m 321.48105,504.60696 c -6.56599,15.90991 -8.5863,44.19418 -10.6066,52.52794 -2.02031,8.33375 -1.01016,17.42513 -1.01016,17.42513 0,0 7.82869,-5.80838 17.93021,-6.56599 10.10153,-0.75762 20.70813,-4.04061 20.70813,-4.04061 0,0 1.51523,-10.35407 -2.27284,-21.46575 -3.78808,-11.11167 -13.8896,-40.15356 -13.8896,-40.15356"
       id="path3889"
       inkscape:connector-curvature="0" />
    <path
       style="fill:none;stroke:#000000;stroke-width:3;stroke-linecap:butt;stroke-linejoin:miter;stroke-opacity:1;stroke-miterlimit:4;stroke-dasharray:none"
       d="m 292.6917,520.01179 c 10.6066,3.78807 18.18275,5.55584 22.72843,2.27284"
       id="path3891"
       inkscape:connector-curvature="0" />
    <path
       style="fill:none;stroke:#000000;stroke-width:3;stroke-linecap:butt;stroke-linejoin:miter;stroke-opacity:1;stroke-miterlimit:4;stroke-dasharray:none"
       d="m 361.12954,524.81001 c -13.63706,3.283 -13.38452,1.26269 -20.45559,0.25254"
       id="path3893"
       inkscape:connector-curvature="0" />
    <path
       style="fill:none;stroke:#000000;stroke-width:3;stroke-linecap:butt;stroke-linejoin:miter;stroke-opacity:1;stroke-miterlimit:4;stroke-dasharray:none"
       d="m 329.05719,472.53462 c 14.39468,1.76777 12.12183,14.39467 8.33376,21.46574 -3.78807,7.07107 -12.12183,13.13198 -18.43528,11.11168 -6.31346,-2.02031 -9.59645,-5.80838 -7.32361,-15.15229 2.27284,-9.34391 7.32361,-17.42513 17.42513,-17.42513 z"
       id="path3895"
       inkscape:connector-curvature="0" />
    <path
       style="fill:none;stroke:#000000;stroke-width:3;stroke-linecap:butt;stroke-linejoin:miter;stroke-opacity:1;stroke-miterlimit:4;stroke-dasharray:none"
       d="m 302.79323,517.23387 c -0.25254,-11.61675 5.3033,-16.66752 8.83883,-24.74874 3.53554,-8.08122 2.52538,-20.20305 13.13198,-20.70813 10.60661,-0.50507 12.62691,2.27285 14.14214,9.34392 1.51523,7.07106 1.01015,13.88959 3.78807,18.68782 2.77792,4.79822 5.3033,8.83883 5.3033,8.83883"
       id="path3897"
       inkscape:connector-curvature="0" />
    <path
       style="fill:none;stroke:#000000;stroke-width:3;stroke-linecap:butt;stroke-linejoin:miter;stroke-opacity:1;stroke-miterlimit:4;stroke-dasharray:none"
       d="m 281.07495,632.6438 c -4.04061,-11.36422 -2.52538,-23.99112 -2.77792,-30.05204 -0.25254,-6.06092 -0.75762,-10.10153 -0.75762,-10.10153"
       id="path3899"
       inkscape:connector-curvature="0" />
    <path
       style="fill:none;stroke:#000000;stroke-width:3;stroke-linecap:butt;stroke-linejoin:miter;stroke-opacity:1;stroke-miterlimit:4;stroke-dasharray:none"
       d="m 249.25514,624.31004 c -0.75761,-15.40483 9.59645,-35.1028 9.59645,-35.1028"
       id="path3901"
       inkscape:connector-curvature="0" />
    <path
       style="fill:none;stroke:#000000;stroke-width:3;stroke-linecap:butt;stroke-linejoin:miter;stroke-opacity:1;stroke-miterlimit:4;stroke-dasharray:none"
       d="m 296.22724,597.28846 c 0,0 -12.37437,1.26269 -22.98098,-1.76777 -10.6066,-3.03046 -32.32488,-12.12183 -32.32488,-12.12183 0,0 8.83884,-36.36549 13.13199,-44.95179 4.29314,-8.58629 7.3236,-21.71828 7.3236,-21.71828 0,0 12.62691,14.64722 18.43529,38.3858 5.80837,23.73859 16.41498,42.17387 16.41498,42.17387 z"
       id="path3903"
       inkscape:connector-curvature="0" />
    <path
       style="fill:none;stroke:#000000;stroke-width:3;stroke-linecap:butt;stroke-linejoin:miter;stroke-opacity:1;stroke-miterlimit:4;stroke-dasharray:none"
       d="m 253.80083,539.9623 c -7.57615,6.56599 -18.94036,23.48605 -18.94036,23.48605"
       id="path3905"
       inkscape:connector-curvature="0" />
    <path
       style="fill:none;stroke:#000000;stroke-width:3;stroke-linecap:butt;stroke-linejoin:miter;stroke-opacity:1;stroke-miterlimit:4;stroke-dasharray:none"
       d="m 275.26657,547.28591 c 18.43528,0.25254 37.88072,-7.07107 37.88072,-7.07107"
       id="path3907"
       inkscape:connector-curvature="0" />
    <path
       style="fill:none;stroke:#000000;stroke-width:3;stroke-linecap:butt;stroke-linejoin:miter;stroke-opacity:1;stroke-miterlimit:4;stroke-dasharray:none"
       d="m 264.15489,473.54477 c 11.11168,3.78807 15.40483,14.64721 12.37437,25.00128 -3.03046,10.35406 -14.89975,20.20305 -21.2132,17.17259 -6.31346,-3.03046 -7.82869,-15.40483 -4.54569,-25.25381 3.283,-9.84899 7.57614,-17.1726 13.38452,-16.92006 z"
       id="path3909"
       inkscape:connector-curvature="0" />
    <path
       style="fill:none;stroke:#000000;stroke-width:3;stroke-linecap:butt;stroke-linejoin:miter;stroke-opacity:1;stroke-miterlimit:4;stroke-dasharray:none"
       d="m 234.35539,518.49656 c 5.05076,-17.17259 12.12183,-31.56727 16.66752,-35.60788 4.54568,-4.04061 9.84899,-11.36421 17.93021,-2.52538 8.08122,8.83884 10.6066,20.70813 13.13198,23.48605 2.52538,2.77792 6.06091,8.83883 6.06091,8.83883"
       id="path3911"
       inkscape:connector-curvature="0" />
    <path
       sodipodi:type="arc"
       style="color:#000000;fill:#000000;fill-opacity:1;fill-rule:nonzero;stroke:none;stroke-width:3;marker:none;visibility:visible;display:inline;overflow:visible;enable-background:accumulate"
       id="path3913"
       sodipodi:cx="320.71429"
       sodipodi:cy="481.64789"
       sodipodi:rx="1.6071428"
       sodipodi:ry="3.0357144"
       d="m 322.32144,481.64789 a 1.6071428,3.0357144 0 1 1 -3.21429,0 1.6071428,3.0357144 0 1 1 3.21429,0 z" />
    <path
       sodipodi:type="arc"
       style="color:#000000;fill:#000000;fill-opacity:1;fill-rule:nonzero;stroke:none;stroke-width:3;marker:none;visibility:visible;display:inline;overflow:visible;enable-background:accumulate"
       id="path3915"
       sodipodi:cx="331.69644"
       sodipodi:cy="481.73718"
       sodipodi:rx="1.5178572"
       sodipodi:ry="3.4821429"
       d="m 333.2143,481.73718 a 1.5178572,3.4821429 0 1 1 -3.03572,0 1.5178572,3.4821429 0 1 1 3.03572,0 z" />
    <path
       sodipodi:type="arc"
       style="color:#000000;fill:#000000;fill-opacity:1;fill-rule:nonzero;stroke:none;stroke-width:3;marker:none;visibility:visible;display:inline;overflow:visible;enable-background:accumulate"
       id="path3917"
       sodipodi:cx="259.10715"
       sodipodi:cy="491.29074"
       sodipodi:rx="1.6071428"
       sodipodi:ry="5"
       d="m 260.71429,491.29074 a 1.6071428,5 0 1 1 -3.21429,0 1.6071428,5 0 1 1 3.21429,0 z" />
    <path
       sodipodi:type="arc"
       style="color:#000000;fill:#000000;fill-opacity:1;fill-rule:nonzero;stroke:none;stroke-width:3;marker:none;visibility:visible;display:inline;overflow:visible;enable-background:accumulate"
       id="path3919"
       sodipodi:cx="268.83929"
       sodipodi:cy="490.66574"
       sodipodi:rx="1.5178572"
       sodipodi:ry="3.8392859"
       d="m 270.35715,490.66574 a 1.5178572,3.8392859 0 1 1 -3.03571,0 1.5178572,3.8392859 0 1 1 3.03571,0 z"
       transform="matrix(0.97335389,-0.22930809,0.22930809,0.97335389,-106.0644,74.899931)" />
    <path
       style="fill:#000000;stroke:#000000;stroke-width:3;stroke-linecap:butt;stroke-linejoin:miter;stroke-opacity:1;stroke-miterlimit:4;stroke-dasharray:none;fill-opacity:1"
       d="m 255.89286,508.43361 c 1.42857,0.35714 13.92857,-0.35714 13.92857,-0.35714 0,0 -0.89286,-7.5 -6.25,-7.67858 -5.35714,-0.17857 -7.67857,8.03572 -7.67857,8.03572 z"
       id="path3921"
       inkscape:connector-curvature="0" />
    <path
       style="fill:none;stroke:#000000;stroke-width:3;stroke-linecap:butt;stroke-linejoin:miter;stroke-opacity:1;stroke-miterlimit:4;stroke-dasharray:none"
       d="m 318.75,498.96932 c 1.42857,-6.78571 0.53572,-9.46428 5.35714,-9.82143 4.82143,-0.35714 6.42858,8.75 6.42858,8.75"
       id="path3923"
       inkscape:connector-curvature="0" />
  </g>
</svg>
