<?xml version="1.0" encoding="UTF-8" standalone="no"?>
<svg height="307.67" width="542" xml:space="preserve" xmlns:dc="http://purl.org/dc/elements/1.1/" viewBox="0 0 542 307.67002" version="1.1" xmlns:rdf="http://www.w3.org/1999/02/22-rdf-syntax-ns#" xmlns="http://www.w3.org/2000/svg" xmlns:cc="http://creativecommons.org/ns#"><metadata><rdf:RDF><cc:Work rdf:about=""><dc:format>image/svg+xml</dc:format><dc:type rdf:resource="http://purl.org/dc/dcmitype/StillImage"/><dc:title/></cc:Work></rdf:RDF></metadata><g transform="matrix(1.3333 0 0 -1.3333 0 307.67)"><g transform="scale(.1)"><path d="m2016.2 1037.3h-174.01l-206.22 698.57c-2.04 7.05-6.06 20.2-6.06 26.26 0 8.09 6.06 13.15 14.14 13.15 6.05 0 11.13-3.04 13.14-9.09l221.41-676.32c236.67 191.06 363.05 427.62 340.81 719.78 32.34 7.08 73.79 22.26 98.02 36.4 55.61-311.37-48.49-596.45-301.23-808.75" fill="#b09247"/><path d="m2374 1827.9v-40.44h-9.09v40.44h-12.13v8.08h33.34v-8.08h-12.12" fill="#b09247"/><path d="m2427.6 1787.5v38.41h-1.02l-10.09-38.41h-6.08l-10.12 38.41v-38.41h-8.08v48.52h12.13l9.1-34.35 9.1 34.35h12.13v-48.52h-7.07" fill="#b09247"/><path d="m2318.4 2048.3c-93.01-72.78-237.56-102.09-411.59-36.39-67.71 25.28-127.36 36.39-176.91 36.39-130.41 0-197.13-73.79-197.13-151.64 0-63.67 43.47-107.16 100.09-107.16 13.15 0.01 26.3 3.04 37.41 8.1l233.54-642.95c18.18 12.13 97.15 90.98 121.43 126.35-13.15 2.03-25.3 12.15-32.39 28.3 0 0-247.77 543.93-261.98 576.73-15.33 35.42-28.06 60.26-48.43 71.22 24.39 8.63 64.61 7.06 98.36-6.61 32.17-13.02 86.03-47.6 153.61-77.51 71.67-31.65 122.99-45.93 179.83-48.77 95.78-4.79 201.56 35.56 256.74 87.47l-52.58 136.47zm-688.56-202.18c-20.23 0-37.42 17.19-37.42 37.39 0 20.24 17.19 37.41 37.42 37.41 20.19 0.02 37.38-17.17 37.38-37.41 0-20.2-17.19-37.39-37.38-37.39" fill="#b09247"/><path d="m2016.2 1037.3h-174.01l-206.22 698.57c-2.04 7.05-6.06 20.2-6.06 26.26 0 8.09 6.06 13.15 14.14 13.15 6.05 0 11.13-3.04 13.14-9.09l221.41-676.32c236.67 191.06 363.05 427.62 340.81 719.78 32.34 7.08 73.79 22.26 98.02 36.4 55.61-311.37-48.49-596.45-301.23-808.75" fill="#b09247"/><path d="m2060.7 1600.5c60.58 135.54 121.6 223.8 124.66 227.88-1.05-4.99-27.26-109.05-89.35-243.88-60.59-135.56-121.68-223.8-124.75-227.89 1.04 5 27.33 109.04 89.44 243.89" fill="#b09247"/><path d="m2006.6 1638.2c49.61 111.12 100.71 183.04 103.28 186.35-0.8-4.12-21.27-89.92-72.22-200.42-49.63-111.13-100.81-183.04-103.39-186.37 0.81 4.12 21.31 89.94 72.33 200.44" fill="#b09247"/><path d="m1959.7 1679.4c41.3 92.27 83.93 151.79 86.08 154.54-0.64-3.43-17.32-74.71-59.7-166.47-41.26-92.28-83.88-151.77-86.05-154.51 0.67 3.42 17.35 74.67 59.67 166.44" fill="#b09247"/><path d="m1918.4 1721.4c34.43 77.13 70.24 126.87 72.05 129.17-0.55-2.88-14.45-62.54-49.88-139.23-34.4-77.12-70.16-126.85-71.96-129.15 0.53 2.87 14.42 62.52 49.79 139.21" fill="#b09247"/><path d="m1880.5 1762.8c28.67 64.28 58.71 105.6 60.21 107.52-0.43-2.4-11.76-52.22-41.25-116.15-28.67-64.29-58.71-105.61-60.21-107.52 0.42 2.39 11.75 52.22 41.25 116.15" fill="#b09247"/><path d="m1846.1 1802.3c23.61 52.96 48.28 87.06 49.51 88.65-0.35-1.98-9.78-43-34.08-95.64-23.61-52.98-48.26-87.09-49.53-88.66 0.37 1.97 9.8 43 34.1 95.65" fill="#b09247"/><path d="m1813.9 1840.8c19.22 43.09 39.59 70.71 40.61 71.98-0.27-1.61-7.64-35.14-27.4-77.96-19.22-43.08-39.59-70.7-40.61-71.97 0.27 1.61 7.64 35.14 27.4 77.95" fill="#b09247"/><path d="m1815.8 1933.6c-0.2-1.29-5.65-27.73-21.19-61.33-15.06-33.83-31.37-55.34-32.19-56.33 0.19 1.27 5.64 27.72 21.19 61.31 15.04 33.83 31.37 55.35 32.19 56.35" fill="#b09247"/><path d="m3715.7 856.79c-19.52 0-35.36-15.86-35.36-35.12 0-19.69 15.84-35.41 35.36-35.41 19.47 0 35.21 15.72 35.21 35.41 0 19.26-15.74 35.12-35.21 35.12zm0-63.66c-15.98 0-28.66 12.56-28.66 28.54 0 15.64 12.68 28.22 28.66 28.22 15.74 0 28.49-12.58 28.49-28.22 0-15.98-12.75-28.54-28.49-28.54" fill="#fff"/><path d="m3731.9 830.26c0 3.01-1.31 6.21-3.97 7.76-2.73 1.46-5.74 1.68-8.69 1.68h-15.51v-35.63h5.24v16.35h6.25l10.19-16.35h6.02l-10.75 16.35c6.27 0.21 11.22 2.85 11.22 9.84zm-17.13-5.35h-5.8v10.72h9.23c4.42 0 8.36-0.62 8.36-5.25 0-6.39-6.81-5.47-11.79-5.47" fill="#fff"/></g></g></svg>
