<?xml version="1.0" encoding="UTF-8" standalone="no"?>
<svg xmlns:cc="http://creativecommons.org/ns#" height="307.67" viewBox="0 0 542 307.67002" xml:space="preserve" xmlns="http://www.w3.org/2000/svg" version="1.1" xmlns:rdf="http://www.w3.org/1999/02/22-rdf-syntax-ns#" xmlns:dc="http://purl.org/dc/elements/1.1/" width="542"><metadata><rdf:RDF><cc:Work rdf:about=""><dc:format>image/svg+xml</dc:format><dc:type rdf:resource="http://purl.org/dc/dcmitype/StillImage"/><dc:title/></cc:Work></rdf:RDF></metadata><g transform="matrix(1.3333 0 0 -1.3333 0 307.67)"><g transform="scale(.1)"><path fill="#fff" d="m2230.5 1085.9c1 5.06 1 10.12 1 14.17v52.82c0 5.05-2.09 10-6.82 13.08l22.87 7.89v-73.79c0-4.05 0-9.11 1.02-14.17h-18.07"/><path fill="#fff" d="m2295.6 1085.9 36.34 75.78h-26.23c-4.02 0-6.83-0.41-9.1-1.29v11.45h56.27l-39.39-85.94h-17.89"/><path fill="#fff" d="m2405.9 1083.9c-6.33 0-13.03 0.91-18.85 3.61l0.31 7.26c5.18-1.93 11.27-3.39 18.29-2.52 10.13 1.23 18.12 9.48 18.12 20.44 0 12.29-7.79 18.99-19.82 18.99-5.06 0-9.83-0.88-14.3-2.66l3.03 42.84h44.22v-11.31c-2.23 0.59-5.08 1.18-9.16 1.18h-21.37l-1.25-21.79c3.36 0.49 6.29 0.86 10.55 0.63 15.35-0.82 24.9-11.27 24.9-25.86 0-17.18-13.17-30.81-34.67-30.81"/><path fill="#fff" d="m2541.1 1138.2c-0.88 22.99-12.7 36.93-34.24 35.03-16.27-1.43-27.01-15.4-25.61-32.06 1.31-15.54 11.92-24.18 29.1-22.43 6.45 0.67 12.44 4.11 14.51 7.58-0.41-22.32-13.3-35.83-36.21-34.98l-0.11-6.99c29.12-3.73 54.02 13.71 52.56 53.85zm-31.24-11.15c-9.08 0-12.09 8.08-12.05 19.18 0.02 6.06 1.08 20.21 12.19 20.21 10.12 0 12.09-13.14 12.07-19.2 0-5.05-0.06-20.19-12.21-20.19"/><path fill="#b09247" d="m2016.2 1037.3h-174.01l-206.22 698.57c-2.04 7.05-6.06 20.2-6.06 26.26 0 8.09 6.06 13.15 14.14 13.15 6.05 0 11.13-3.04 13.14-9.09l221.41-676.32c236.67 191.06 363.05 427.62 340.81 719.78 32.34 7.08 73.79 22.26 98.02 36.4 55.61-311.37-48.49-596.45-301.23-808.75"/><path fill="#fff" d="m1400.4 1085.9c1 5.06 1 10.12 1 14.15v59.65c0 5.06 0 7.09-1 12.12h47.5v-11.13c-2.61 0.58-6.44 1.03-10.48 1.03l-18.83-0.01v-26.28h14.14c2.03 0 5.72 0.1 9.1 0.77v-11.61c-3.22 0.68-7.07 0.76-9.1 0.76h-14.14v-29.33h22.25c4.04 0 6.25 0.66 9.1 1.41v-11.53h-49.54"/><path fill="#fff" d="m1505.5 1083.8c-9.18 0-17.52 2.92-22.25 6.73v8.46c6.29-4.24 13.1-6.98 22.28-6.38 7.78 0.51 14.32 5.19 14.71 12.86 0.39 7.71-4.43 11.69-14.74 16.75-16.12 7.4-22.45 13.37-22.25 26.29 0.21 13.61 10.68 24.88 27.3 25.27 7.45 0.18 14.79-1.29 19.89-4.25l-0.07-9.08c-4.31 2.83-9.95 5.06-16.81 5.06-8.93 0-15.31-4.6-15.97-11.38-0.34-3.24 0.74-6.56 3.57-9.38 2.44-2.44 6.34-4.36 12.42-7.37 15.92-6.91 22.25-14.14 22.25-27.29 0-13.12-9.1-26.29-30.33-26.29"/><path fill="#fff" d="m1616.7 1160.7h-14.17v-60.65c0-4.03 0.03-9.09 1.02-14.15h-19.2c1 5.06 1 10.12 1 14.15v60.68l-14.15-0.03c-3.02 0-6.07 0-9.09-1v12.12h63.67v-12.12c-3.03 1-6.06 1-9.08 1"/><path fill="#fff" d="m1688.5 1085.9h-10.11c-2.02 0-4.46 0-6.06-0.69v10.51c1.6-0.55 4.04-0.7 6.06-0.7h10.11c2.02 0 4.09 0.27 6.06 0.7l0.02-10.59c-1.54 0.67-4.06 0.77-6.08 0.77"/><path fill="#fff" d="m1685.5 1112.1h-25.3c1.02 2.02 1.02 4.04 1.02 5.06v49.54c0 1 0 3.03-1 5.03h22.23c20.21 0 32.34-7.06 32.34-28.29 0-18.18-12.11-31.34-29.29-31.34zm-2.04 51.91h-8.08v-43.97l6.07 0.02c11.12 0 18.19 6.43 18.19 23.56 0 13.94-7.07 20.39-16.18 20.39"/><path fill="#b09247" d="m2374 1827.9v-40.44h-9.09v40.44h-12.13v8.08h33.34v-8.08h-12.12"/><path fill="#b09247" d="m2427.6 1787.5v38.41h-1.02l-10.09-38.41h-6.08l-10.12 38.41v-38.41h-8.08v48.52h12.13l9.1-34.35 9.1 34.35h12.13v-48.52h-7.07"/><path fill="#b09247" d="m2318.4 2048.3c-93.01-72.78-237.56-102.09-411.59-36.39-67.71 25.28-127.36 36.39-176.91 36.39-130.41 0-197.13-73.79-197.13-151.64 0-63.67 43.47-107.16 100.09-107.16 13.15 0.01 26.3 3.04 37.41 8.1l233.54-642.95c18.18 12.13 97.15 90.98 121.43 126.35-13.15 2.03-25.3 12.15-32.39 28.3 0 0-247.77 543.93-261.98 576.73-15.33 35.42-28.06 60.26-48.43 71.22 24.39 8.63 64.61 7.06 98.36-6.61 32.17-13.02 86.03-47.6 153.61-77.51 71.67-31.65 122.99-45.93 179.83-48.77 95.78-4.79 201.56 35.56 256.74 87.47l-52.58 136.47zm-688.56-202.18c-20.23 0-37.42 17.19-37.42 37.39 0 20.24 17.19 37.41 37.42 37.41 20.19 0.02 37.38-17.17 37.38-37.41 0-20.2-17.19-37.39-37.38-37.39"/><path fill="#b09247" d="m2016.2 1037.3h-174.01l-206.22 698.57c-2.04 7.05-6.06 20.2-6.06 26.26 0 8.09 6.06 13.15 14.14 13.15 6.05 0 11.13-3.04 13.14-9.09l221.41-676.32c236.67 191.06 363.05 427.62 340.81 719.78 32.34 7.08 73.79 22.26 98.02 36.4 55.61-311.37-48.49-596.45-301.23-808.75"/><path fill="#b09247" d="m2060.7 1600.5c60.58 135.54 121.6 223.8 124.66 227.88-1.05-4.99-27.26-109.05-89.35-243.88-60.59-135.56-121.68-223.8-124.75-227.89 1.04 5 27.33 109.04 89.44 243.89"/><path fill="#b09247" d="m2006.6 1638.2c49.61 111.12 100.71 183.04 103.28 186.35-0.8-4.12-21.27-89.92-72.22-200.42-49.63-111.13-100.81-183.04-103.39-186.37 0.81 4.12 21.31 89.94 72.33 200.44"/><path fill="#b09247" d="m1959.7 1679.4c41.3 92.27 83.93 151.79 86.08 154.54-0.64-3.43-17.32-74.71-59.7-166.47-41.26-92.28-83.88-151.77-86.05-154.51 0.67 3.42 17.35 74.67 59.67 166.44"/><path fill="#b09247" d="m1918.4 1721.4c34.43 77.13 70.24 126.87 72.05 129.17-0.55-2.88-14.45-62.54-49.88-139.23-34.4-77.12-70.16-126.85-71.96-129.15 0.53 2.87 14.42 62.52 49.79 139.21"/><path fill="#b09247" d="m1880.5 1762.8c28.67 64.28 58.71 105.6 60.21 107.52-0.43-2.4-11.76-52.22-41.25-116.15-28.67-64.29-58.71-105.61-60.21-107.52 0.42 2.39 11.75 52.22 41.25 116.15"/><path fill="#b09247" d="m1846.1 1802.3c23.61 52.96 48.28 87.06 49.51 88.65-0.35-1.98-9.78-43-34.08-95.64-23.61-52.98-48.26-87.09-49.53-88.66 0.37 1.97 9.8 43 34.1 95.65"/><path fill="#b09247" d="m1813.9 1840.8c19.22 43.09 39.59 70.71 40.61 71.98-0.27-1.61-7.64-35.14-27.4-77.96-19.22-43.08-39.59-70.7-40.61-71.97 0.27 1.61 7.64 35.14 27.4 77.95"/><path fill="#b09247" d="m1815.8 1933.6c-0.2-1.29-5.65-27.73-21.19-61.33-15.06-33.83-31.37-55.34-32.19-56.33 0.19 1.27 5.64 27.72 21.19 61.31 15.04 33.83 31.37 55.35 32.19 56.35"/><path fill="#fff" d="m3715.7 856.79c-19.52 0-35.36-15.86-35.36-35.12 0-19.69 15.84-35.41 35.36-35.41 19.47 0 35.21 15.72 35.21 35.41 0 19.26-15.74 35.12-35.21 35.12zm0-63.66c-15.98 0-28.66 12.56-28.66 28.54 0 15.64 12.68 28.22 28.66 28.22 15.74 0 28.49-12.58 28.49-28.22 0-15.98-12.75-28.54-28.49-28.54"/><path fill="#fff" d="m3731.9 830.26c0 3.01-1.31 6.21-3.97 7.76-2.73 1.46-5.74 1.68-8.69 1.68h-15.51v-35.63h5.24v16.35h6.25l10.19-16.35h6.02l-10.75 16.35c6.27 0.21 11.22 2.85 11.22 9.84zm-17.13-5.35h-5.8v10.72h9.23c4.42 0 8.36-0.62 8.36-5.25 0-6.39-6.81-5.47-11.79-5.47"/><path fill="#fff" d="m3481.6 240.54c-81.15 0-128.34 25.469-153.85 25.469v132.14h13.23c11.33-57.575 70.78-97.224 134.02-97.224 53.83 0 96.31 28.321 96.31 84.984 0 38.67-18.89 72.67-67.97 106.64l-68.91 47.2c-59.47 40.59-109.49 86.84-109.49 169.91 0 98.18 66.06 161.42 175.55 161.42 65.16 0 92.5-15.13 130.27-18.9v-114.2h-13.22c-8.52 43.4-53.79 78.34-114.2 78.34-56.66 0-82.13-31.16-82.13-72.68 0-35.88 21.7-64.18 74.57-100.06l59.47-39.65c91.57-61.36 119.87-105.7 119.87-182.16 0-112.33-78.36-181.23-193.52-181.23zm-387.93 0c-81.19 0-128.38 25.469-153.86 25.469v132.14h13.22c11.33-57.575 70.8-97.224 134-97.224 53.85 0 96.31 28.321 96.31 84.984 0 38.67-18.89 72.67-67.95 106.64l-68.92 47.2c-59.48 40.59-109.5 86.84-109.5 169.91 0 98.18 66.08 161.42 175.59 161.42 65.12 0 92.48-15.13 130.25-18.9v-114.2h-13.22c-8.5 43.4-53.81 78.34-114.2 78.34-56.66 0-82.13-31.16-82.13-72.68 0-35.88 21.68-64.18 74.55-100.06l59.5-39.65c91.54-61.36 119.86-105.7 119.86-182.16 0-112.33-78.34-181.23-193.5-181.23zm-528.61 9.433v12.266c4.73 4.727 5.68 29.277 5.68 42.461v481.42c0 39.63-13.22 60.39-27.38 63.22v12.27h331.31v-83.05h-12.27c-2.83 14.14-31.13 23.6-49.08 23.6h-125.53v-209.53h105.69c14.18 0 47.22 3.77 50.99 13.18h12.29v-79.28h-12.29c-4.74 4.73-31.15 6.6-47.2 6.6h-109.48v-223.69h124.57c34.01 0 54.77 13.223 58.56 28.32h12.24v-87.793h-318.1zm-173.67 0-312.4 552.19c-10.43 18.9-30.24 44.35-48.15 47.18v12.27h151l218.02-390.76v315.27c0 39.63-10.37 60.39-23.59 63.22v12.27h89.69v-611.64h-74.57zm-324.69 0v12.266c4.71 4.727 5.64 40.586 5.64 47.207v421.94l66.08-121.78v-297.34c0-23.594 4.73-47.168 9.43-50.02v-12.266h-81.15zm-171.92 0-312.44 552.19c-10.39 18.9-30.21 44.35-48.14 47.18v12.27h151.03l218.05-390.76v315.27c0 39.63-10.39 60.39-23.62 63.22v12.27h89.73v-611.64h-74.61zm-324.72 0v12.266c4.72 4.727 5.66 40.586 5.66 47.207v421.94l66.07-121.78v-297.34c0-23.594 4.73-47.168 9.46-50.02v-12.266h-81.19zm-219.93 0v12.266c3.77 2.852 6.61 29.277 6.61 45.313v478.57c0 39.63-13.22 60.39-27.38 63.22v12.27h143.47v-543.69c0-34.922 6.6-54.727 10.39-55.684v-12.266h-133.09zm-105.72 105.72c-22.65-76.465-84.02-115.16-183.12-115.16-143.48 0-203.9 80.234-203.9 202.94v342.64c0 39.63-13.21 60.39-27.36 63.22v12.27h145.37v-420.98c0-40.56 4.71-62.28 13.2-79.274 18.88-36.816 52.87-48.144 89.68-48.144 38.7 0 75.51 11.328 94.38 48.144 8.5 16.994 13.23 38.714 13.23 84.024v340.74c0 39.63-13.23 60.39-27.39 63.22v12.27h97.24v-407.75c0-48.13-3.78-74.57-11.33-98.168zm-481.4 193.5v-280.33c-6.61-2.851-89.68-30.215-199.18-30.215-170.83 0-315.26 123.63-315.26 382.27 0 223.73 126.48 371.93 309.6 371.93 89.68 0 132.15-22.68 158.59-22.68 3.76 0 5.66 0.98 6.61 1.9h9.42v-151.97h-15.09c-17.93 77.4-77.41 111.38-143.48 111.38-107.6 0-195.39-89.66-195.39-305.82 0-231.27 97.231-322.83 199.17-322.83 29.27 0 50.02 3.769 63.25 9.434v220.88c0 32.09-8.51 72.68-43.43 80.24v13.22h171.8v-12.27c-4.73-2.83-6.61-46.25-6.61-65.13"/></g></g></svg>
