<?xml version="1.0" encoding="UTF-8" standalone="no"?>
<!-- Created with Inkscape (http://www.inkscape.org/) -->

<svg
   xmlns:dc="http://purl.org/dc/elements/1.1/"
   xmlns:cc="http://creativecommons.org/ns#"
   xmlns:rdf="http://www.w3.org/1999/02/22-rdf-syntax-ns#"
   xmlns:svg="http://www.w3.org/2000/svg"
   xmlns="http://www.w3.org/2000/svg"
   xmlns:xlink="http://www.w3.org/1999/xlink"
   xmlns:sodipodi="http://sodipodi.sourceforge.net/DTD/sodipodi-0.dtd"
   xmlns:inkscape="http://www.inkscape.org/namespaces/inkscape"
   width="610"
   height="660"
   id="svg3012"
   version="1.1"
   inkscape:version="0.48.5 r10040"
   sodipodi:docname="farm.svg">
  <defs
     id="defs3014">
    <linearGradient
       id="linearGradient3775">
      <stop
         style="stop-color:#4d7e99;stop-opacity:1;"
         offset="0"
         id="stop3777" />
      <stop
         style="stop-color:#c27a36;stop-opacity:1;"
         offset="1"
         id="stop3779" />
    </linearGradient>
    <linearGradient
       inkscape:collect="always"
       xlink:href="#linearGradient3775"
       id="linearGradient3781"
       x1="226.59575"
       y1="0"
       x2="467.44681"
       y2="514.04254"
       gradientUnits="userSpaceOnUse" />
  </defs>
  <sodipodi:namedview
     id="base"
     pagecolor="#ffffff"
     bordercolor="#666666"
     borderopacity="1.0"
     inkscape:pageopacity="0.0"
     inkscape:pageshadow="2"
     inkscape:zoom="0.94"
     inkscape:cx="339.6837"
     inkscape:cy="365.06349"
     inkscape:document-units="px"
     inkscape:current-layer="layer1"
     showgrid="true"
     inkscape:snap-grids="false"
     inkscape:window-width="1351"
     inkscape:window-height="898"
     inkscape:window-x="96"
     inkscape:window-y="46"
     inkscape:window-maximized="0"
     inkscape:snap-page="true"
     inkscape:snap-to-guides="true">
    <inkscape:grid
       type="xygrid"
       id="grid3020"
       empspacing="5"
       visible="true"
       enabled="true"
       snapvisiblegridlinesonly="true"
       spacingx="40px"
       spacingy="40px"
       originx="5px"
       originy="30px" />
  </sodipodi:namedview>
  <metadata
     id="metadata3017">
    <rdf:RDF>
      <cc:Work
         rdf:about="">
        <dc:format>image/svg+xml</dc:format>
        <dc:type
           rdf:resource="http://purl.org/dc/dcmitype/StillImage" />
        <dc:title />
      </cc:Work>
    </rdf:RDF>
  </metadata>
  <g
     inkscape:label="Layer 1"
     inkscape:groupmode="layer"
     id="layer1"
     transform="translate(0,-392.3622)">
    <rect
       style="fill:url(#linearGradient3781);fill-opacity:1;stroke:none"
       id="rect3800"
       width="610"
       height="660"
       x="0"
       y="0"
       transform="translate(0,392.3622)" />
    <path
       sodipodi:type="arc"
       style="fill:#effc08;fill-opacity:1;stroke:#724b13;stroke-width:0.50000000000000000;stroke-linecap:round;stroke-linejoin:round;stroke-miterlimit:4;stroke-opacity:1;stroke-dasharray:none"
       id="path3826"
       sodipodi:cx="531.91492"
       sodipodi:cy="499.89362"
       sodipodi:rx="46.80851"
       sodipodi:ry="43.085106"
       d="m 578.72343,499.89362 a 46.80851,43.085106 0 1 1 -93.61702,0 46.80851,43.085106 0 1 1 93.61702,0 z"
       transform="translate(0,392.3622)" />
    <path
       style="fill:#172d17;fill-opacity:1;stroke:none"
       d="m 222.34043,924.70262 c 0,0 138.7442,-92.10435 186.17021,-82.97873 53.94746,10.38047 143.61703,80.85107 143.61703,80.85107 l 1.06383,129.78724 -288.29788,0 z"
       id="rect3803"
       inkscape:connector-curvature="0"
       sodipodi:nodetypes="cscccc" />
    <path
       style="fill:#1e3c1e;fill-opacity:1;stroke:none"
       d="m 0,903.87734 c 0,0 67.769023,31.76175 104.25532,34.04255 52.26631,3.26724 110.37654,-32.9762 154.25532,-29.78723 53.39119,3.88031 111.18033,24.35418 159.57447,18.08511 38.74296,-5.01885 68.46122,-44.29249 107.4468,-46.80852 C 554.78458,877.52137 610,903.87734 610,903.87734 l 0,148.48486 -610,0 z"
       id="rect3798"
       inkscape:connector-curvature="0"
       sodipodi:nodetypes="csssscccc" />
    <path
       style="fill:#751515;fill-opacity:1;stroke:#000000;stroke-opacity:1"
       d="m 48.93617,536.59574 c 1.41844,-46.4539 -6.737589,15.97 -5.319149,-134.04255 l 153.191489,-15.95744 4.25532,143.61702 -74.46809,25.53191 z"
       id="path3815"
       inkscape:connector-curvature="0"
       transform="translate(0,392.3622)"
       sodipodi:nodetypes="cccccc" />
    <path
       style="fill:#bdbdbd;stroke:none;stroke-width:1px;stroke-linecap:butt;stroke-linejoin:miter;stroke-opacity:1;fill-opacity:1"
       d="m 135.10638,313.19149 c -1.06383,-1.41844 -4.60993,-3.19149 -3.19149,-4.25532 1.41844,-1.06383 4.96454,4.25532 3.19149,4.25532 -1.77305,-1.41844 -3.5461,-2.83688 -5.31915,-4.25532 0,-0.35461 0.25075,-0.81308 0,-1.06383 -0.25074,-0.25075 -0.81308,0.25075 -1.06383,0 -0.25074,-0.25075 0.25075,-0.81308 0,-1.06383 -0.25074,-0.25075 -0.81308,0.25075 -1.06383,0 -0.25074,-0.25075 0.15859,-0.74666 0,-1.06383 -0.22427,-0.44855 -0.83955,-0.61528 -1.06383,-1.06383 -0.15858,-0.31717 0.25075,-0.81308 0,-1.06383 -0.25074,-0.25075 -0.81308,0.25075 -1.06383,0 -0.25074,-0.25075 0.15859,-0.74666 0,-1.06383 -2.2137,-4.4274 0.0735,1.13727 -2.12765,-1.06383 -0.25075,-0.25075 0,-0.70922 0,-1.06383 0,-1.2778 -0.55931,-4.20053 0,-5.31915 0.65728,-1.31457 1.0271,-1.06383 2.12765,-1.06383 2.83688,0 -0.35461,0.35461 1.06383,-1.06383 0.11411,-0.1141 10.57149,0 11.70213,0 0.43805,0 2.90989,-0.2816 3.19149,0 0.25075,0.25075 -0.25075,0.81309 0,1.06383 0.5015,0.5015 1.62617,-0.50149 2.12766,0 0.25075,0.25075 -0.25075,0.81309 0,1.06383 0.25075,0.25075 0.70922,0 1.06383,0 0,0.35461 -0.25075,0.81309 0,1.06383 0.35018,0.35019 1.77748,-0.35018 2.12766,0 0.25075,0.25075 0,0.70922 0,1.06383 0.35461,0 0.81308,-0.25074 1.06383,0 0.70922,0.70922 -0.70922,3.5461 0,4.25532 0.25075,0.25075 0.70922,0 1.06383,0 2.83688,0 -0.35461,0.35461 1.06383,-1.06383 0.25075,-0.25075 0.81308,0.25075 1.06383,0 0.25075,-0.25075 -0.25075,-0.81308 0,-1.06383 0.25075,-0.25074 0.81308,0.25075 1.06383,0 0.50149,-0.50149 -0.50149,-1.62616 0,-2.12766 0.53191,-0.53191 2.65957,0.53192 3.19149,0 0.25075,-0.25074 -0.25075,-0.81308 0,-1.06383 0.25075,-0.25074 0.81308,0.25075 1.06383,0 0.25075,-0.25074 -0.25075,-0.81308 0,-1.06383 0.25075,-0.25074 0.81308,0.25075 1.06383,0 0.25075,-0.25074 -0.25075,-0.81308 0,-1.06383 0.35018,-0.35018 1.77747,0.35019 2.12766,0 0.25075,-0.25074 -0.25075,-0.81308 0,-1.06383 0.10003,-0.10003 9.61329,0 10.6383,0 3.90071,0 7.80141,0 11.70212,0 1.2778,0 4.20054,-0.5593 5.31915,0 0.44855,0.22428 0.61528,0.83956 1.06383,1.06383 1.05917,0.52959 6.89638,-0.55043 7.44681,0 0.25075,0.25075 -0.25075,0.81309 0,1.06383 0.41269,0.41269 5.97029,-0.41269 6.38298,0 0.25075,0.25075 -0.25075,0.81309 0,1.06383 0.32941,0.32941 4.98974,-0.32941 5.31915,0 0.25075,0.25075 -0.25075,0.81309 0,1.06383 0.35018,0.35019 1.77747,-0.35018 2.12766,0 0.25075,0.25075 -0.25075,0.81309 0,1.06383 0.25075,0.25075 0.81308,-0.25074 1.06383,0 0.25074,0.25075 -0.25075,0.81309 0,1.06383 0.25074,0.25075 0.70922,0 1.06383,0 0,0.35461 -0.25075,0.81308 0,1.06383 0.25074,0.25075 0.81308,-0.25075 1.06383,0 1.52654,1.52654 -0.93046,0.93046 -1.06383,1.06383 -0.25075,0.25075 0.25074,0.81308 0,1.06383 -0.25075,0.25075 -0.74666,-0.15858 -1.06383,0 -0.44855,0.22428 -0.61528,0.83956 -1.06383,1.06383 -0.85107,0.42553 -2.34043,-0.42553 -3.19149,0 -0.44855,0.22428 -0.61528,0.83956 -1.06383,1.06383 -0.62784,0.31392 -2.47646,0 -3.19149,0 -0.37111,0 -8.91898,0 -5.31915,0 8.15603,0 16.31206,0 24.46809,0 0.64919,0 3.84081,-0.41451 4.25531,0 0.25075,0.25075 -0.25074,0.81308 0,1.06383 0.25075,0.25075 0.81309,-0.25075 1.06383,0 0.25075,0.25075 -0.25074,0.81308 0,1.06383 0.35019,0.35018 1.77748,-0.35018 2.12766,0 0.25075,0.25075 -0.25074,0.81308 0,1.06383 0.5015,0.50149 1.62617,-0.50149 2.12766,0 0.1658,0.16579 0.1658,4.08953 0,4.25532 -0.25074,0.25075 -0.81308,-0.25075 -1.06383,0 -0.25074,0.25075 0.25075,0.81308 0,1.06383 -0.25074,0.25075 -0.74665,-0.15859 -1.06383,0 -4.4274,2.2137 1.13728,-0.0734 -1.06383,2.12766 -0.20911,0.20911 -4.97537,-0.72006 -3.19148,1.06383 0.49177,0.49177 2.54917,-0.32116 3.19148,0 0.44855,0.22427 0.61528,0.83955 1.06383,1.06383 0.63435,0.31717 1.62617,-0.5015 2.12766,0 0.25075,0.25075 -0.25074,0.81308 0,1.06383 0.70922,0.70922 3.5461,-0.70922 4.25532,0 0.25075,0.25075 -0.25074,0.81308 0,1.06383 0.25075,0.25075 0.81309,-0.25075 1.06383,0 0.16579,0.16579 0.16579,4.08953 0,4.25532 -0.25074,0.25074 -0.81308,-0.25075 -1.06383,0 -0.25074,0.25074 0.25075,0.81308 0,1.06383 -0.25074,0.25074 -1.06383,0.35461 -1.06383,0 0,-0.70922 1.41844,0 2.12766,0 1.41844,0 2.83688,0 4.25532,0 1.51603,0 3.85692,-0.48741 5.31915,0 0.75224,0.25074 1.37542,0.81308 2.12766,1.06383 1.97032,0.65677 11.40048,-0.68274 12.76596,0 0.44855,0.22427 0.61528,0.83955 1.06383,1.06383 1.34483,0.67241 11.42112,-0.67242 12.76596,0 0.44855,0.22427 0.61527,0.83955 1.06382,1.06383 1.54022,0.7701 9.82798,-0.81033 10.6383,0 0.25075,0.25074 -0.25074,0.81308 0,1.06383 0.5015,0.50149 1.41844,0 2.12766,0 4.60993,0 9.21986,0 13.82979,0 12.05674,0 24.11347,0 36.17021,0 0.60695,0 6.32826,0.0547 6.38298,0 0.25075,-0.25075 -0.25075,-0.81309 0,-1.06383 0.53192,-0.53192 2.65958,0.53191 3.19149,0 0.50149,-0.5015 -0.50149,-1.62617 0,-2.12766 0.25075,-0.25075 0.70922,0 1.06383,0 0.35461,0 0.81308,-0.25075 1.06383,0 0.25075,0.25074 -0.25075,0.81308 0,1.06383 0.25075,0.25074 0.81308,-0.25075 1.06383,0 0.25075,0.25074 0,0.70922 0,1.06383 0,0.50159 0.0482,5.27093 0,5.31915 -0.50149,0.50149 -1.62617,-0.5015 -2.12766,0 -0.25075,0.25074 0.25075,0.81308 0,1.06383 -0.53191,0.53191 -2.65957,-0.53192 -3.19149,0 -0.25075,0.25074 0.25075,0.81308 0,1.06382 -0.50149,0.5015 -1.62616,-0.50149 -2.12766,0 -0.25075,0.25075 0.25075,0.81309 0,1.06383 -0.53191,0.53192 -2.65957,-0.53191 -3.19149,0 -0.25075,0.25075 0.25075,0.81309 0,1.06383 -0.0865,0.0865 -8.65467,0 -9.57447,0 -2.83688,0 -5.67376,0 -8.51063,0 -2.83688,0 0.35461,-0.35461 -1.06383,1.06383 -0.25075,0.25075 -1.41844,0 -1.06383,0 6.02836,0 12.05673,0 18.0851,0 1.37491,0 6.47158,-0.48761 7.44681,0 0.44855,0.22428 0.61528,0.83956 1.06383,1.06383 0.64231,0.32116 2.69972,-0.49177 3.19149,0 0.25075,0.25075 -0.25075,0.81309 0,1.06383 0.25075,0.25075 0.81308,-0.25074 1.06383,0 0.25075,0.25075 0,0.70922 0,1.06383 0,1.00855 0.44175,3.37183 0,4.25532 -0.44855,0.8971 -1.67911,1.23056 -2.12766,2.12766 -0.31717,0.63435 0.50149,1.62617 0,2.12766 -0.35597,0.35598 -1.77169,-0.35597 -2.12766,0 -0.25075,0.25075 0.25075,0.81308 0,1.06383 -0.25075,0.25075 -0.81308,-0.25075 -1.06383,0 -0.25075,0.25075 0.25075,0.81308 0,1.06383 -0.25075,0.25075 -0.81308,-0.25075 -1.06383,0 -0.25075,0.25075 0.25075,0.81308 0,1.06383 -0.53191,0.53192 -2.65957,-0.53191 -3.19149,0 -0.25075,0.25075 0.25075,0.81308 0,1.06383 -0.25075,0.25075 -0.74666,-0.15859 -1.06383,0 -0.44855,0.22428 -0.61528,0.83956 -1.06383,1.06383 -0.64231,0.32116 -2.69972,-0.49177 -3.19149,0 -0.25074,0.25075 0.25075,0.81308 0,1.06383 -0.53191,0.53192 -2.65957,-0.53191 -3.19149,0 -0.25074,0.25075 0.25075,0.81308 0,1.06383 -0.50149,0.50149 -1.41844,0 -2.12766,0 -4.96454,0 -9.92907,0 -14.89361,0 -1.23651,0 -12.63765,-0.12831 -12.76596,0 -0.10638,0.10638 -0.10638,3.08511 0,3.19149 0.25075,0.25075 0.74666,-0.15859 1.06383,0 0.44855,0.22427 0.61528,0.83955 1.06383,1.06383 0.31717,0.15859 0.81308,-0.25075 1.06383,0 0.25075,0.25075 -0.25075,0.81308 0,1.06383 0.25075,0.25075 0.81308,-0.25075 1.06383,0 0.25075,0.25075 -0.25075,0.81308 0,1.06383 0.25075,0.25075 0.81308,-0.25075 1.06383,0 0.25075,0.25075 0,0.70922 0,1.06383 0,0.35461 0.25075,0.81308 0,1.06383 -0.53192,0.53191 -2.65958,-0.53192 -3.19149,0 -0.25075,0.25075 0.25075,0.81308 0,1.06383 -0.5015,0.50149 -1.49332,-0.31717 -2.12766,0 -0.44855,0.22427 -0.61528,0.83955 -1.06383,1.06383 -0.88573,0.44286 -3.58052,-0.6748 -4.25532,0 -0.25075,0.25075 0.25075,0.81308 0,1.06383 -0.50149,0.50149 -1.41844,0 -2.12766,0 -5.31915,0 -10.6383,0 -15.95745,0 -0.60695,0 -6.32825,0.0547 -6.38297,0 -0.25075,-0.25075 0.25074,-0.81308 0,-1.06383 -0.70922,-0.70922 -3.5461,0.70922 -4.25532,0 -1.41844,-1.41844 1.77305,-1.06383 -1.06383,-1.06383 -0.71101,0 -7.38345,0.0634 -7.44681,0 -0.25075,-0.25075 0.25074,-0.81308 0,-1.06383 -0.70922,-0.70922 -3.5461,0.70922 -4.25532,0 -0.25075,-0.25075 0.25075,-0.81308 0,-1.06383 -0.5015,-0.5015 -1.62617,0.50149 -2.12766,0 -0.25075,-0.25075 0.25075,-0.81308 0,-1.06383 -0.35018,-0.35018 -1.77748,0.35018 -2.12766,0 -0.25075,-0.25075 0.25075,-0.81308 0,-1.06383 -0.32941,-0.32941 -4.98974,0.32941 -5.31915,0 -0.25075,-0.25075 0.25075,-0.81308 0,-1.06383 -0.50149,-0.50149 -1.62616,0.50149 -2.12766,0 -0.25075,-0.25075 0.25075,-0.81308 0,-1.06383 -0.34984,-0.34984 -1.77782,0.34984 -2.12766,0 -0.25075,-0.25075 0.25075,-0.81308 0,-1.06383 -0.35018,-0.35018 -1.77747,0.35018 -2.12766,0 -1.42539,-1.42539 2.94813,-1.30719 3.19149,-1.06383 0.25075,0.25075 -0.25075,0.81308 0,1.06383 0.5015,0.50149 1.62617,-0.50149 2.12766,0 0.25075,0.25075 -0.25075,0.81308 0,1.06383 0.5015,0.50149 1.62617,-0.50149 2.12766,0 0.50149,0.50149 0,1.41844 0,2.12766 0,0.43805 0.2816,2.90989 0,3.19149 -0.35018,0.35018 -1.77748,-0.35019 -2.12766,0 -0.25075,0.25075 0.25075,0.81308 0,1.06383 -0.25075,0.25075 -0.81308,-0.25075 -1.06383,0 -0.25075,0.25075 0.25075,0.81308 0,1.06383 -0.49177,0.49177 -2.54918,-0.32116 -3.19149,0 -0.44855,0.22427 -0.61528,0.83955 -1.06383,1.06383 -1.05917,0.52958 -6.89637,-0.55044 -7.44681,0 -0.25074,0.25075 0.25075,0.81308 0,1.06383 -0.50149,0.50149 -1.41844,0 -2.12766,0 -1.56012,0 -9.80273,0.41778 -10.63829,0 -0.44855,-0.22428 -0.61528,-0.83956 -1.06383,-1.06383 -0.31718,-0.15859 -0.81309,0.25075 -1.06383,0 -0.25075,-0.25075 0.25074,-0.81308 0,-1.06383 -0.53192,-0.53192 -2.65958,0.53191 -3.19149,0 -0.25075,-0.25075 0.25074,-0.81308 0,-1.06383 -0.53192,-0.53192 -2.65958,0.53191 -3.19149,0 -0.25075,-0.25075 0.25074,-0.81308 0,-1.06383 -0.25075,-0.25075 -0.81309,0.25075 -1.06383,0 -0.25075,-0.25075 0.25074,-0.81308 0,-1.06383 -0.35019,-0.35018 -1.77748,0.35018 -2.12766,0 -0.25075,-0.25075 0.25075,-0.81308 0,-1.06383 -0.25075,-0.25075 -0.74666,0.15859 -1.06383,0 -0.44855,-0.22428 -0.61528,-0.83956 -1.06383,-1.06383 -0.64231,-0.32116 -2.69972,0.49177 -3.19149,0 -0.25075,-0.25075 0.25075,-0.81308 0,-1.06383 -0.35018,-0.35018 -1.77748,0.35018 -2.12766,0 -0.25075,-0.25075 0.25075,-0.81308 0,-1.06383 -0.35018,-0.35018 -1.77748,0.35018 -2.12766,0 -0.25075,-0.25075 0.25075,-0.81308 0,-1.06383 -0.25075,-0.25075 -0.74666,0.15859 -1.06383,0 -0.44855,-0.22428 -0.61528,-0.83955 -1.06383,-1.06383 -0.88573,-0.44287 -3.58052,0.6748 -4.25532,0 -0.25075,-0.25075 0.25075,-0.81308 0,-1.06383 -0.50149,-0.50149 -1.62616,0.50149 -2.12766,0 -0.25075,-0.25075 0.25075,-0.81308 0,-1.06383 -0.50149,-0.50149 -1.62616,0.50149 -2.12766,0 -0.25074,-0.25075 0.25075,-0.81308 0,-1.06383 -0.50149,-0.50149 -1.62616,0.5015 -2.12766,0 -0.25074,-0.25075 0.25075,-0.81308 0,-1.06383 -0.70922,-0.70922 -3.5461,0.70922 -4.25532,0 -0.10638,-0.10638 -0.10638,-3.08511 0,-3.19149 0.35019,-0.35018 1.77748,0.35019 2.12766,0 0.25075,-0.25075 -0.25074,-0.81308 0,-1.06383 0.25075,-0.25075 0.81309,0.25075 1.06383,0 0.25075,-0.25075 -0.25074,-0.81308 0,-1.06383 2.2011,-2.2011 -0.086,3.36358 2.12766,-1.06383 0.15859,-0.31717 -0.25074,-0.81308 0,-1.06383 0.5015,-0.50149 1.62617,0.5015 2.12766,0 0.25075,-0.25074 -0.25074,-0.81308 0,-1.06383 0.25075,-0.25074 0.81308,0.25075 1.06383,0 0.10638,-0.10638 0.10638,-3.0851 0,-3.19149 -0.50149,-0.50149 -1.62616,0.5015 -2.12766,0 -0.25074,-0.25074 0.25075,-0.81308 0,-1.06383 -0.50149,-0.50149 -1.62616,0.5015 -2.12766,0 -0.25074,-0.25074 0.25075,-0.81308 0,-1.06383 -0.49177,-0.49177 -2.54917,0.32116 -3.19149,0 -0.44855,-0.22427 -0.61528,-0.83955 -1.06383,-1.06383 -0.31717,-0.15858 -0.81308,0.25075 -1.06383,0 -0.25074,-0.25074 0.31718,-0.90524 0,-1.06383 -0.86537,-0.43268 -6.99813,0.44868 -7.4468,0 -0.25075,-0.25074 0.25074,-0.81308 0,-1.06383 -0.41269,-0.41269 -5.97029,0.41269 -6.38298,0 -0.25075,-0.25074 0.25074,-0.81308 0,-1.06383 -0.35019,-0.35018 -1.77748,0.35019 -2.12766,0 0,-2.83687 0.35461,0.35461 -1.06383,-1.06383 -0.41269,-0.41268 0.41269,-5.97028 0,-6.38297 -0.35019,-0.35019 -1.77748,0.35018 -2.12766,0 -0.25075,-0.25075 0.25074,-0.81309 0,-1.06383 -0.5015,-0.5015 -1.49332,0.31717 -2.12766,0 -0.44855,-0.22428 -0.61528,-0.83956 -1.06383,-1.06383 -0.63435,-0.31718 -1.62617,0.50149 -2.12766,0 -0.25075,-0.25075 0.25075,-0.81309 0,-1.06383 -0.5015,-0.5015 -1.41844,0 -2.12766,0 -4.60993,0 -9.21986,0 -13.82979,0 -0.50159,0 -5.27093,0.0482 -5.31915,0 -0.25074,-0.25075 0.25075,-0.81309 0,-1.06383 -0.49943,-0.49944 -6.94737,0.49943 -7.44681,0 -0.25074,-0.25075 0.25075,-0.81309 0,-1.06383 -0.4145,-0.41451 -3.60612,0 -4.25531,0 -1.02501,0 -10.53827,0.10003 -10.6383,0 -0.10639,-0.10639 -0.10639,-3.08511 0,-3.19149 0.25074,-0.25075 0.81308,0.25074 1.06383,0 0.50149,-0.5015 -0.5015,-1.62617 0,-2.12766 0.35018,-0.35019 1.77747,0.35018 2.12766,0 1.41844,-1.41844 -1.77305,-1.06383 1.06383,-1.06383 0.70922,0 1.62616,0.50149 2.12766,0 0.25074,-0.25075 -0.25075,-0.81308 0,-1.06383 0.53191,-0.53192 2.65957,0.53191 3.19149,0 0.25074,-0.25075 -0.25075,-0.81308 0,-1.06383 0.42937,-0.42938 6.37442,0.35746 7.4468,0 1.81164,-0.60388 3.5461,-1.41844 5.31915,-2.12766 z"
       id="path3822"
       inkscape:connector-curvature="0"
       transform="translate(0,392.3622)" />
    <path
       style="fill:#8a1919;fill-opacity:1;stroke:#000000;stroke-width:1px;stroke-linecap:butt;stroke-linejoin:miter;stroke-opacity:1"
       d="m 200,531.2766 -5.31915,-143.61702 16.85409,-42.21232 19.80941,-20.21738 22.13836,29.3215 14.6024,53.32096 -6.38298,115.95745 z"
       id="path3817"
       inkscape:connector-curvature="0"
       transform="translate(0,392.3622)"
       sodipodi:nodetypes="cccccccc" />
    <path
       style="fill:#5c4c4c;stroke:#000000;stroke-width:1px;stroke-linecap:butt;stroke-linejoin:miter;stroke-opacity:1;fill-opacity:1"
       d="M 191.48936,392.97872 211.70213,346.17021 62.765957,364.25532 40.425532,408.93617 z"
       id="path3819"
       inkscape:connector-curvature="0"
       transform="translate(0,392.3622)" />
    <path
       style="fill:#7a6565;fill-opacity:1;stroke:#000000;stroke-width:1px;stroke-linecap:butt;stroke-linejoin:miter;stroke-opacity:1"
       d="m 210.6383,346.17021 21.27659,-22.34042 -148.936167,20.21276 -21.276596,21.2766 z"
       id="path3821"
       inkscape:connector-curvature="0"
       transform="translate(0,392.3622)"
       sodipodi:nodetypes="ccccc" />
    <path
       style="fill:#272020;fill-opacity:1;stroke:#000000;stroke-width:1px;stroke-linecap:butt;stroke-linejoin:miter;stroke-opacity:1"
       d="m 215.95745,528.08511 -2.69927,-58.48426 5.89076,-11.19659 29.25532,3.19149 5.67111,11.14913 -0.88388,52.14874 z"
       id="path3823"
       inkscape:connector-curvature="0"
       transform="translate(0,392.3622)"
       sodipodi:nodetypes="ccccccc" />
    <path
       style="fill:#4c0e0e;stroke:#7b7b7b;stroke-width:2;stroke-linecap:butt;stroke-linejoin:miter;stroke-opacity:1;stroke-miterlimit:4;stroke-dasharray:none;fill-opacity:1"
       d="m 63.829787,484.46809 2.12766,28.7234 26.595744,-5.31915 -4.255319,-27.65957 z"
       id="path3825"
       inkscape:connector-curvature="0"
       transform="translate(0,392.3622)" />
    <path
       style="fill:#4c0e0e;stroke:#858585;stroke-width:2;stroke-linecap:butt;stroke-linejoin:miter;stroke-opacity:1;stroke-miterlimit:4;stroke-dasharray:none;fill-opacity:1"
       d="m 134.04255,481.2766 2.12766,29.78723 24.46809,0 1.06383,-29.78723 z"
       id="path3827"
       inkscape:connector-curvature="0"
       transform="translate(0,392.3622)" />
    <path
       style="fill:#4c0e0e;fill-opacity:1;stroke:#858585;stroke-width:2;stroke-linecap:butt;stroke-linejoin:miter;stroke-miterlimit:4;stroke-opacity:1;stroke-dasharray:none"
       d="m 224.40355,775.14328 1.43995,31.97942 11.39054,2.68631 1.06383,-30.85106 z"
       id="path3827-1"
       inkscape:connector-curvature="0"
       sodipodi:nodetypes="ccccc" />
    <path
       style="fill:#84775d;stroke:none;stroke-width:1px;stroke-linecap:butt;stroke-linejoin:miter;stroke-opacity:1;fill-opacity:1"
       d="m 557.44681,565.31915 c 0,4.25532 2.12766,43.61702 2.12766,43.61702 l 5.31915,-1.06383 1.06383,-42.55319 z"
       id="path3847"
       inkscape:connector-curvature="0"
       transform="translate(0,392.3622)" />
    <path
       style="fill:#84775d;stroke:none;stroke-width:1px;stroke-linecap:butt;stroke-linejoin:miter;stroke-opacity:1;fill-opacity:1"
       d="m 519.14894,607.87234 4.25532,-40.42553 -8.51064,-1.06383 -1.06383,42.55319 z"
       id="path3849"
       inkscape:connector-curvature="0"
       transform="translate(0,392.3622)" />
    <path
       style="fill:#84775d;stroke:none;stroke-width:1px;stroke-linecap:butt;stroke-linejoin:miter;stroke-opacity:1;fill-opacity:1"
       d="m 474.46809,606.80851 6.38297,2.12766 -1.06383,-42.55319 -8.51063,0 z"
       id="path3851"
       inkscape:connector-curvature="0"
       transform="translate(0,392.3622)" />
    <path
       style="fill:#84775d;stroke:none;stroke-width:1px;stroke-linecap:butt;stroke-linejoin:miter;stroke-opacity:1;fill-opacity:1"
       d="m 431.91489,605.74468 7.44681,-1.06383 0,-37.23404 -8.51064,0 z"
       id="path3853"
       inkscape:connector-curvature="0"
       transform="translate(0,392.3622)" />
    <path
       style="fill:#84775d;stroke:none;stroke-width:1px;stroke-linecap:butt;stroke-linejoin:miter;stroke-opacity:1;fill-opacity:1"
       d="m 395.74468,604.68085 -3.19149,-34.04255 6.38298,-3.19149 5.31915,38.29787 z"
       id="path3855"
       inkscape:connector-curvature="0"
       transform="translate(0,392.3622)" />
    <path
       style="fill:#84775d;stroke:none;stroke-width:1px;stroke-linecap:butt;stroke-linejoin:miter;stroke-opacity:1;fill-opacity:1"
       d="m 353.19149,999.17071 6.38298,0 4.25532,-43.61702 -11.70213,6.38298 z"
       id="path3857"
       inkscape:connector-curvature="0" />
    <path
       style="fill:#675d49;stroke:none;stroke-width:1px;stroke-linecap:butt;stroke-linejoin:miter;stroke-opacity:1;fill-opacity:1"
       d="m 308.51064,595.10638 0,8.51064 51.06383,-24.46808 -5.31915,-6.38298 z"
       id="path3859"
       inkscape:connector-curvature="0"
       transform="translate(0,392.3622)" />
    <path
       style="fill:#675d49;stroke:none;stroke-width:1px;stroke-linecap:butt;stroke-linejoin:miter;stroke-opacity:1;fill-opacity:1"
       d="m 358.51064,575.95745 -1.06383,5.31915 39.3617,0 0,-7.44681 z"
       id="path3861"
       inkscape:connector-curvature="0"
       transform="translate(0,392.3622)" />
    <path
       style="fill:#675d49;stroke:none;stroke-width:1px;stroke-linecap:butt;stroke-linejoin:miter;stroke-opacity:1;fill-opacity:1"
       d="m 357.44681,595.10638 0,6.38298 41.48936,-5.31915 -2.12766,-7.44681 z"
       id="path3863"
       inkscape:connector-curvature="0"
       transform="translate(0,392.3622)" />
    <path
       style="fill:#675d49;stroke:none;stroke-width:1px;stroke-linecap:butt;stroke-linejoin:miter;stroke-opacity:1;fill-opacity:1"
       d="m 398.93617,599.3617 -1.06383,-6.38298 37.23404,0 -1.06383,7.44681 z"
       id="path3865"
       inkscape:connector-curvature="0"
       transform="translate(0,392.3622)" />
    <path
       style="fill:#675d49;stroke:none;stroke-width:1px;stroke-linecap:butt;stroke-linejoin:miter;stroke-opacity:1;fill-opacity:1"
       d="m 435.10638,577.02128 0,-6.38298 -36.17021,3.19149 1.06383,8.51064 z"
       id="path3867"
       inkscape:connector-curvature="0"
       transform="translate(0,392.3622)" />
    <path
       style="fill:#675d49;stroke:none;stroke-width:1px;stroke-linecap:butt;stroke-linejoin:miter;stroke-opacity:1;fill-opacity:1"
       d="m 435.10638,580.21277 -1.06383,-5.31915 42.55319,-3.19149 0,7.44681 z"
       id="path3869"
       inkscape:connector-curvature="0"
       transform="translate(0,392.3622)" />
    <path
       style="fill:#675d49;stroke:none;stroke-width:1px;stroke-linecap:butt;stroke-linejoin:miter;stroke-opacity:1;fill-opacity:1"
       d="m 477.65957,601.48936 -1.06383,-8.51064 -40.42553,-3.19149 -2.12766,6.38298 z"
       id="path3871"
       inkscape:connector-curvature="0"
       transform="translate(0,392.3622)" />
    <path
       style="fill:#675d49;stroke:none;stroke-width:1px;stroke-linecap:butt;stroke-linejoin:miter;stroke-opacity:1;fill-opacity:1"
       d="m 477.65957,603.61702 0,-8.51064 39.36171,-4.25532 -1.06383,8.51064 z"
       id="path3873"
       inkscape:connector-curvature="0"
       transform="translate(0,392.3622)" />
    <path
       style="fill:#675d49;stroke:none;stroke-width:1px;stroke-linecap:butt;stroke-linejoin:miter;stroke-opacity:1;fill-opacity:1"
       d="m 517.02128,600.42553 1.06383,-6.38298 43.61702,-4.25532 0,8.51064 z"
       id="path3875"
       inkscape:connector-curvature="0"
       transform="translate(0,392.3622)" />
    <path
       style="fill:#675d49;stroke:none;stroke-width:1px;stroke-linecap:butt;stroke-linejoin:miter;stroke-opacity:1;fill-opacity:1"
       d="m 476.59574,581.2766 1.06383,-7.44681 40.42554,3.19149 -2.12766,5.31915 z"
       id="path3877"
       inkscape:connector-curvature="0"
       transform="translate(0,392.3622)" />
    <path
       style="fill:#675d49;stroke:none;stroke-width:1px;stroke-linecap:butt;stroke-linejoin:miter;stroke-opacity:1;fill-opacity:1"
       d="m 521.2766,580.21277 -2.12766,-8.51064 42.55319,2.12766 -1.06383,6.38298 z"
       id="path3879"
       inkscape:connector-curvature="0"
       transform="translate(0,392.3622)" />
    <path
       style="fill:#675d49;stroke:none;stroke-width:1px;stroke-linecap:butt;stroke-linejoin:miter;stroke-opacity:1;fill-opacity:1"
       d="m 562.76596,598.29787 1.06383,-7.44681 48.93617,4.25532 3.19149,7.44681 z"
       id="path3881"
       inkscape:connector-curvature="0"
       transform="translate(0,392.3622)" />
    <path
       style="fill:#675d49;stroke:none;stroke-width:1px;stroke-linecap:butt;stroke-linejoin:miter;stroke-opacity:1;fill-opacity:1"
       d="m 563.82979,578.08511 -2.12766,-7.44681 56.38298,0 -2.12766,10.6383 z"
       id="path3883"
       inkscape:connector-curvature="0"
       transform="translate(0,392.3622)" />
    <path
       sodipodi:type="arc"
       style="fill:#797979;fill-opacity:1;stroke:none"
       id="path3885"
       sodipodi:cx="336.17023"
       sodipodi:cy="505.74469"
       sodipodi:rx="7.4468083"
       sodipodi:ry="5.319149"
       d="m 343.61704,505.74469 c 0,2.93768 -3.33405,5.31915 -7.44681,5.31915 -4.11276,0 -7.44681,-2.38147 -7.44681,-5.31915 0,-2.93768 3.33405,-5.31915 7.44681,-5.31915 4.11276,0 7.44681,2.38147 7.44681,5.31915 z"
       transform="translate(0,392.3622)" />
    <path
       sodipodi:type="arc"
       style="fill:#797979;fill-opacity:1;stroke:none"
       id="path3887"
       sodipodi:cx="343.61703"
       sodipodi:cy="499.62766"
       sodipodi:rx="3.7234042"
       sodipodi:ry="3.1914895"
       d="m 347.34044,499.62766 c 0,1.76261 -1.66703,3.19148 -3.72341,3.19148 -2.05637,0 -3.7234,-1.42887 -3.7234,-3.19148 0,-1.76262 1.66703,-3.19149 3.7234,-3.19149 2.05638,0 3.72341,1.42887 3.72341,3.19149 z"
       transform="translate(-0.26595745,394.48986)" />
    <path
       transform="translate(73.271265,368.82496)"
       sodipodi:type="arc"
       style="fill:#797979;fill-opacity:1;stroke:none"
       id="path3885-7"
       sodipodi:cx="336.17023"
       sodipodi:cy="505.74469"
       sodipodi:rx="7.4468083"
       sodipodi:ry="5.319149"
       d="m 343.61704,505.74469 c 0,2.93768 -3.33405,5.31915 -7.44681,5.31915 -4.11276,0 -7.44681,-2.38147 -7.44681,-5.31915 0,-2.93768 3.33405,-5.31915 7.44681,-5.31915 4.11276,0 7.44681,2.38147 7.44681,5.31915 z" />
    <path
       sodipodi:type="arc"
       style="fill:#797979;fill-opacity:1;stroke:none"
       id="path3887-4"
       sodipodi:cx="343.61703"
       sodipodi:cy="499.62766"
       sodipodi:rx="3.7234042"
       sodipodi:ry="3.1914895"
       d="m 347.34044,499.62766 c 0,1.76261 -1.66703,3.19148 -3.72341,3.19148 -2.05637,0 -3.7234,-1.42887 -3.7234,-3.19148 0,-1.76262 1.66703,-3.19149 3.7234,-3.19149 2.05638,0 3.72341,1.42887 3.72341,3.19149 z"
       transform="translate(73.005305,370.95262)" />
    <path
       transform="matrix(-1,0,0,1,712.89895,355.52709)"
       sodipodi:type="arc"
       style="fill:#000000;fill-opacity:1;stroke:none"
       id="path3885-7-0"
       sodipodi:cx="336.17023"
       sodipodi:cy="505.74469"
       sodipodi:rx="7.4468083"
       sodipodi:ry="5.319149"
       d="m 343.61704,505.74469 c 0,2.93768 -3.33405,5.31915 -7.44681,5.31915 -4.11276,0 -7.44681,-2.38147 -7.44681,-5.31915 0,-2.93768 3.33405,-5.31915 7.44681,-5.31915 4.11276,0 7.44681,2.38147 7.44681,5.31915 z" />
    <path
       sodipodi:type="arc"
       style="fill:#000000;fill-opacity:1;stroke:none"
       id="path3887-4-9"
       sodipodi:cx="343.61703"
       sodipodi:cy="499.62766"
       sodipodi:rx="3.7234042"
       sodipodi:ry="3.1914895"
       d="m 347.34044,499.62766 c 0,1.76261 -1.66703,3.19148 -3.72341,3.19148 -2.05637,0 -3.7234,-1.42887 -3.7234,-3.19148 0,-1.76262 1.66703,-3.19149 3.7234,-3.19149 2.05638,0 3.72341,1.42887 3.72341,3.19149 z"
       transform="matrix(-1,0,0,1,713.16491,357.65475)" />
    <path
       style="fill:#bdbdbd;stroke:none;stroke-width:1px;stroke-linecap:butt;stroke-linejoin:miter;stroke-opacity:1;fill-opacity:1"
       d="m 61.702128,90.851064 c -1.41844,-0.70922 -4.964539,-0.70922 -4.255319,-2.12766 0.709219,-1.418439 5.376694,3.249035 4.255319,2.12766 -1.462095,-1.462094 -3.46973,-2.26678 -5.319149,-3.19149 -0.317173,-0.158586 -0.813083,0.250748 -1.06383,0 -0.250747,-0.250747 0.250747,-0.813082 0,-1.063829 -0.501494,-0.501494 -1.626165,0.501494 -2.12766,0 -0.250747,-0.250747 0.250747,-0.813083 0,-1.06383 -0.250747,-0.250747 -0.746657,0.158586 -1.063829,0 -0.44855,-0.224275 -0.61528,-0.839555 -1.06383,-1.06383 -0.317173,-0.158586 -0.813083,0.250747 -1.06383,0 -0.250747,-0.250747 0.250747,-0.813083 0,-1.06383 -0.250747,-0.250747 -0.813083,0.250747 -1.06383,0 -0.250747,-0.250747 0.250747,-0.813082 0,-1.063829 -0.501494,-0.501495 -1.626165,0.501494 -2.127659,0 -0.250747,-0.250748 0.250747,-0.813083 0,-1.06383 -0.250747,-0.250747 -0.813083,0.250747 -1.06383,0 -0.250747,-0.250747 0.250747,-0.813083 0,-1.06383 -0.250747,-0.250747 -0.813083,0.250747 -1.06383,0 -0.106383,-0.106383 -0.106383,-3.085106 0,-3.191489 0.250747,-0.250747 0.813083,0.250747 1.06383,0 0.250747,-0.250747 -0.250747,-0.813083 0,-1.06383 0.501494,-0.501494 1.626165,0.501494 2.127659,0 0.250748,-0.250747 -0.250747,-0.813083 0,-1.06383 0.414509,-0.414509 3.606126,0 4.25532,0 0.649194,0 3.84081,0.414509 4.255319,0 0.250747,-0.250747 -0.250747,-0.813083 0,-1.06383 0.329412,-0.329412 4.989737,0.329412 5.319149,0 0.250747,-0.250747 -0.250747,-0.813082 0,-1.06383 0.06336,-0.06336 6.735802,0 7.446808,0 3.546099,0 7.092199,0 10.638298,0 0.35461,0 0.813083,-0.250747 1.06383,0 0.250747,0.250748 -0.250747,0.813083 0,1.06383 0.250747,0.250747 1.06383,0.35461 1.06383,0 0,-2.213702 -1.491882,-0.428052 -2.12766,-1.06383 -0.250747,-0.250747 0.250747,-0.813082 0,-1.063829 -2.836879,0 0.35461,0.35461 -1.06383,-1.06383 -0.250747,-0.250747 -0.813082,0.250747 -1.06383,0 -0.49177,-0.491771 0.321157,-2.549177 0,-3.191489 -2.213702,-4.427405 0.07344,1.137271 -2.127659,-1.06383 -0.531915,-0.531915 0.531915,-2.659575 0,-3.19149 -0.250747,-0.250747 -0.813083,0.250747 -1.06383,0 C 73.93617,62.659574 75,60.531915 74.468085,60 c -0.250747,-0.250747 -1.06383,0.35461 -1.06383,0 0,-0.70922 1.41844,0 2.12766,0 2.836879,0 -0.35461,0.35461 1.06383,-1.06383 0.12831,-0.12831 11.529452,0 12.765957,0 12.056738,0 24.113478,0 36.170208,0 4.25532,0 8.51064,0 12.76596,0 0.70922,0 1.62617,-0.501494 2.12766,0 0.25075,0.250747 -0.25075,0.813083 0,1.06383 0.35019,0.350184 1.77748,-0.350184 2.12766,0 0.25075,0.250747 -0.25075,0.813083 0,1.06383 1.2375,1.237495 1.06383,-1.753433 1.06383,2.127659 0,0.70922 0.70922,2.12766 0,2.12766 -0.70922,0 0,-1.41844 0,-2.12766 0,-0.438047 -0.2816,-2.909887 0,-3.191489 0.25075,-0.250747 0.81308,0.250747 1.06383,0 0.25075,-0.250747 -0.25075,-0.813083 0,-1.06383 0.25075,-0.250747 0.81308,0.250747 1.06383,0 0.25075,-0.250747 -0.25075,-0.813082 0,-1.06383 0.35018,-0.350183 1.77748,0.350184 2.12766,0 0.25075,-0.250747 -0.25075,-0.813082 0,-1.063829 0.25075,-0.250747 0.81308,0.250747 1.06383,0 0.25075,-0.250747 -0.25075,-0.813083 0,-1.06383 0.25075,-0.250747 0.81308,0.250747 1.06383,0 0.25075,-0.250747 -0.25075,-0.813083 0,-1.06383 0.25075,-0.250747 0.81308,0.250747 1.06383,0 0.25075,-0.250747 -0.25075,-0.813083 0,-1.06383 0.53191,-0.531915 2.65957,0.531915 3.19149,0 0.25075,-0.250747 -0.25075,-0.813082 0,-1.06383 0.25075,-0.250747 0.81308,0.250748 1.06383,0 0.25075,-0.250747 -0.25075,-0.813082 0,-1.063829 0.34984,-0.349839 1.77782,0.349839 2.12766,0 0.25075,-0.250747 -0.25075,-0.813083 0,-1.06383 0.35018,-0.350184 1.77747,0.350184 2.12766,0 0.25075,-0.250747 -0.25075,-0.813083 0,-1.06383 0.2816,-0.281602 2.75344,0 3.19149,0 2.83688,0 -0.35461,0.35461 1.06383,-1.06383 0.49177,-0.49177 2.54917,0.321157 3.19149,0 0.44855,-0.224275 0.61528,-0.839554 1.06383,-1.063829 0.88349,-0.441746 3.24677,0 4.25532,0 0.35461,0 0.81308,-0.250748 1.06383,0 0.25074,0.250747 -0.25075,0.813082 0,1.063829 0.53191,0.531915 2.65957,-0.531915 3.19148,0 0.5015,0.501495 -0.50149,1.626166 0,2.12766 0.1658,0.165792 4.08953,0.165792 4.25532,0 0.25075,-0.250747 -0.25074,-0.813083 0,-1.06383 0.25075,-0.250747 0.72742,0.112138 1.06383,0 0.75224,-0.250747 1.37542,-0.813083 2.12766,-1.06383 0.33642,-0.112137 0.81309,0.250747 1.06383,0 0.25075,-0.250747 -0.25074,-0.813082 0,-1.063829 0.25075,-0.250748 0.74666,0.158586 1.06383,0 0.8971,-0.44855 1.23056,-1.67911 2.12766,-2.12766 0.85107,-0.425532 2.34043,0.425532 3.19149,0 0.44855,-0.224275 0.61528,-0.839555 1.06383,-1.06383 0.31717,-0.158586 0.81308,0.250747 1.06383,0 0.25075,-0.250747 -0.25075,-0.813083 0,-1.06383 0.25075,-0.250747 0.81308,0.250747 1.06383,0 0.25075,-0.250747 -0.25075,-0.813082 0,-1.063829 0.35018,-0.350184 1.77748,0.350183 2.12766,0 0.25075,-0.250747 -0.25075,-0.813083 0,-1.06383 0.70922,-0.70922 3.5461,0.70922 4.25532,0 0.25075,-0.250747 -0.25075,-0.813083 0,-1.06383 0.41269,-0.41269 5.97029,0.41269 6.38298,0 0.25075,-0.250747 -0.25075,-0.813083 0,-1.06383 0.41451,-0.414509 3.60612,0 4.25532,0 6.73759,0 13.47517,0 20.21276,0 0.43805,0 2.90989,-0.281602 3.19149,0 0.25075,0.250747 -0.25074,0.813083 0,1.06383 0.66953,0.669526 8.90495,-0.669525 9.57447,0 0.25075,0.250747 -0.25075,0.813083 0,1.06383 0.32941,0.329412 4.98974,-0.329412 5.31915,0 0.25075,0.250747 -0.25075,0.813083 0,1.06383 0.6748,0.6748 3.36959,-0.442866 4.25532,0 0.44855,0.224275 0.61528,0.839554 1.06383,1.063829 0.88573,0.442866 3.58052,-0.6748 4.25532,0 0.25075,0.250747 -0.25075,0.813083 0,1.06383 0.58564,0.585647 7.92499,-0.585647 8.51064,0 1.23749,1.237495 -1.75344,1.06383 2.12766,1.06383 3.88109,0 0.89016,-0.173665 2.12766,1.06383 0.49177,0.49177 2.54917,-0.321156 3.19148,0 0.44855,0.224275 0.61528,0.839555 1.06383,1.06383 0.63435,0.317172 1.62617,-0.501495 2.12766,0 0.25075,0.250747 -0.25074,0.813082 0,1.063829 0.25075,0.250747 1.06383,-0.35461 1.06383,0 0,2.213703 -1.49188,0.428052 -2.12766,1.06383 -0.25074,0.250747 0.25075,0.813083 0,1.06383 -0.50149,0.501494 -1.49331,-0.317173 -2.12766,0 -0.44855,0.224275 -0.61527,0.839555 -1.06382,1.06383 -0.31718,0.158586 -0.81309,-0.250747 -1.06383,0 -0.25075,0.250747 0.25074,0.813082 0,1.063829 -0.49944,0.499437 -6.94738,-0.499436 -7.44681,0 -1.41844,1.41844 1.77305,1.06383 -1.06383,1.06383 -3.8811,0 -0.89017,-0.173665 -2.12766,1.06383 -0.53192,0.531915 -2.65958,-0.531915 -3.19149,0 -0.25075,0.250747 0.25075,0.813083 0,1.06383 -0.25075,0.250747 -1.41844,0 -1.06383,0 0.37312,0 4.91216,-0.406992 5.31915,0 0.25074,0.250747 -0.25075,0.813083 0,1.06383 0.63877,0.638777 7.28945,-0.610593 8.51064,0 0.44855,0.224275 0.61528,0.839554 1.06383,1.063829 0.64231,0.321157 2.69971,-0.49177 3.19148,0 0.25075,0.250748 -0.25074,0.813083 0,1.06383 0.49178,0.491771 2.54918,-0.321156 3.19149,0 0.44855,0.224275 0.61528,0.839555 1.06383,1.06383 0.31718,0.158586 0.81309,-0.250747 1.06383,0 0.25075,0.250747 -0.25074,0.813083 0,1.06383 0.5015,0.501494 1.62617,-0.501494 2.12766,0 0.10639,0.106383 0.10639,3.085106 0,3.191489 -0.25074,0.250747 -0.81308,-0.250747 -1.06383,0 -0.25074,0.250747 0.25075,0.813083 0,1.06383 -0.50149,0.501494 -1.62616,-0.501494 -2.12766,0 -0.25074,0.250747 0.25075,0.813083 0,1.06383 -0.25074,0.250747 -0.74665,-0.158587 -1.06383,0 -0.44855,0.224275 -0.61528,0.839554 -1.06383,1.06383 -0.31717,0.158586 -0.81308,-0.250748 -1.06383,0 -0.25074,0.250747 0.25075,0.813082 0,1.063829 -0.53191,0.531915 -2.65957,-0.531915 -3.19148,0 -1.2375,1.237495 1.75343,1.06383 -2.12766,1.06383 -0.6492,0 -3.84081,-0.414509 -4.25532,0 -0.25075,0.250747 0.25074,0.813083 0,1.06383 -0.32942,0.329412 -4.98974,-0.329412 -5.31915,0 -0.25075,0.250747 0.25074,0.813083 0,1.06383 -0.11411,0.114102 -10.57149,0 -11.70213,0 -7.80142,0 -15.60284,0 -23.40426,0 -7.80141,0 -15.60283,0 -23.40425,0 -1.56013,0 -9.80274,-0.41778 -10.6383,0 -0.44855,0.224275 -0.61528,0.839554 -1.06383,1.063829 -0.85106,0.425532 -2.34042,-0.425531 -3.19149,0 -2.19355,1.096778 0.0743,1.06383 -3.19149,1.06383 -2.83688,0 0.35461,-0.35461 -1.06383,1.06383 -0.25074,0.250747 -0.81308,-0.250747 -1.06383,0 -0.25074,0.250747 0.15859,0.746657 0,1.06383 -0.22427,0.44855 -0.83955,0.61528 -1.06383,1.06383 -0.15858,0.317172 0.25075,0.813082 0,1.063829 -0.25074,0.250747 -0.81308,-0.250747 -1.06383,0 -0.41451,0.414509 0,3.606126 0,4.25532 0,0.709219 -0.50149,1.626165 0,2.127659 0.25075,0.250747 0.81309,-0.250747 1.06383,0 0.25075,0.250747 -0.25074,0.813083 0,1.06383 0.53192,0.531915 2.65958,-0.531915 3.19149,0 0.25075,0.250747 -0.25074,0.813083 0,1.06383 0.53192,0.531915 2.65958,-0.531915 3.19149,0 0.25075,0.250747 -0.25074,0.813082 0,1.063829 0.53192,0.531915 2.65958,-0.531914 3.19149,0 0.25075,0.250748 0,0.70922 0,1.06383 0.35461,0 0.81308,-0.250747 1.06383,0 0.25075,0.250747 0,0.70922 0,1.06383 0,0.649194 0.41451,3.84081 0,4.255319 -0.35018,0.350184 -1.77747,-0.350184 -2.12766,0 -0.25075,0.250747 0.25075,0.813083 0,1.06383 -0.50149,0.501494 -1.49331,-0.317173 -2.12766,0 -0.44855,0.224275 -0.61528,0.839555 -1.06383,1.06383 -0.89638,0.44819 -5.92177,-0.461203 -6.38298,0 -0.25074,0.250747 0.25075,0.813082 0,1.06383 -0.2816,0.281602 -2.75344,0 -3.19149,0 -1.41844,0 -2.83688,0 -4.25531,0 -0.35461,0 -1.06383,0.354609 -1.06383,0 0,-0.35461 0.70922,0 1.06383,0 0.35461,0 0.74665,-0.158587 1.06382,0 0.44855,0.224275 0.61528,0.839554 1.06383,1.063829 0.63435,0.317173 1.41844,0 2.12766,0 3.8811,0 0.89017,-0.173665 2.12766,1.06383 0.25075,0.250747 0.74666,-0.158586 1.06383,0 0.44855,0.224275 0.61528,0.839558 1.06383,1.063828 0.63435,0.31717 1.62617,-0.501492 2.12766,0 0.25075,0.25075 -0.25074,0.81308 0,1.06383 0.25075,0.25075 0.74666,-0.15858 1.06383,0 0.44855,0.22428 0.61528,0.83956 1.06383,1.06383 0.64231,0.32116 2.69972,-0.49177 3.19149,0 0.25075,0.25075 -0.25075,0.81308 0,1.06383 0.5015,0.5015 1.62617,-0.50149 2.12766,0 0.25075,0.25075 0,0.70922 0,1.06383 0.35461,0 0.81308,-0.25075 1.06383,0 0.5015,0.5015 0,1.41844 0,2.12766 0,0.64919 0.41451,3.84081 0,4.25532 -0.25075,0.25075 -0.81308,-0.25075 -1.06383,0 -0.25075,0.25075 0.25075,0.81308 0,1.06383 -0.50149,0.50149 -1.62616,-0.50149 -2.12766,0 -0.25075,0.25075 0.25075,0.81308 0,1.06383 -0.25075,0.25075 -0.81308,-0.25075 -1.06383,0 -0.25074,0.25075 0.25075,0.81308 0,1.06383 -0.50149,0.50149 -1.49331,-0.31717 -2.12766,0 -0.44855,0.22427 -0.61528,0.83955 -1.06383,1.06383 -0.73482,0.36741 -4.94572,-0.37343 -5.31915,0 -0.25074,0.25075 0.25075,0.81308 0,1.06383 -0.12831,0.12831 -11.52945,0 -12.76595,0 -6.73759,0 -13.47518,0 -20.21277,0 -0.43805,0 -2.90989,0.2816 -3.19149,0 -0.25075,-0.25075 0.25075,-0.81308 0,-1.06383 -0.70922,-0.70922 -3.5461,0.70922 -4.25532,0 -0.25075,-0.25075 0.25075,-0.81308 0,-1.06383 -0.53191,-0.53192 -2.65957,0.53191 -3.19149,0 -0.25074,-0.25075 0.25075,-0.81308 0,-1.06383 -0.70922,-0.70922 -3.5461,0.70922 -4.25532,0 -0.25074,-0.25075 0.25075,-0.81308 0,-1.06383 -0.41451,-0.41451 -3.60612,0 -4.25532,0 -0.50159,0 -5.27093,0.0482 -5.31914,0 -0.25075,-0.25075 0.25074,-0.81308 0,-1.06383 -0.58565,-0.58565 -7.925,0.58565 -8.51064,0 -0.25075,-0.25075 0.25074,-0.81308 0,-1.06383 -0.25075,-0.25075 -0.70922,0 -1.06383,0 -0.5016,0 -5.27094,-0.0482 -5.31915,0 -0.25075,0.25075 0.25075,0.81308 0,1.06383 -0.25075,0.25075 -0.81308,-0.25075 -1.06383,0 -0.35597,0.35597 0.35597,1.77169 0,2.12766 -0.25075,0.25075 -0.81308,-0.25075 -1.06383,0 -0.35563,0.35563 0.35563,1.77203 0,2.12766 -0.5015,0.50149 -1.62617,-0.5015 -2.12766,0 -0.25075,0.25075 0.25075,0.81308 0,1.06383 -0.25075,0.25075 -0.81308,-0.25075 -1.06383,0 -0.35563,0.35563 0.35563,1.77203 0,2.12766 -0.25075,0.25075 -0.81308,-0.25075 -1.06383,0 -0.25075,0.25075 0.25075,0.81308 0,1.06383 -0.35018,0.35018 -1.77748,-0.35019 -2.12766,0 -0.250747,0.25075 0.25075,0.81308 0,1.06383 -0.250747,0.25074 -0.813083,-0.25075 -1.06383,0 -0.250747,0.25074 0.250747,0.81308 0,1.06383 -0.250747,0.25074 -0.813082,-0.25075 -1.06383,0 -0.250747,0.25074 0.250748,0.81308 0,1.06383 -0.501494,0.50149 -1.493314,-0.31718 -2.127659,0 -0.44855,0.22427 -0.61528,0.83955 -1.06383,1.06383 -0.661206,0.3306 -7.270972,0 -8.510638,0 -0.35461,0 -0.813083,0.25074 -1.06383,0 -0.250747,-0.25075 0.250747,-0.81309 0,-1.06383 -0.501494,-0.5015 -1.626165,0.50149 -2.12766,0 -0.250747,-0.25075 0.250747,-0.81309 0,-1.06383 -2.836879,0 0.35461,0.35461 -1.063829,-1.06383 -0.501495,-0.5015 -1.626166,0.50149 -2.12766,0 -0.250747,-0.25075 0.250747,-0.81308 0,-1.06383 -0.501494,-0.5015 -1.626165,0.50149 -2.12766,0 -0.355973,-0.35598 0.355974,-1.77169 0,-2.12766 -0.250747,-0.25075 -0.813082,0.25075 -1.063829,0 -0.250747,-0.25075 0.250747,-0.81308 0,-1.06383 -0.501494,-0.5015 -1.626166,0.50149 -2.12766,0 -0.250747,-0.25075 0.250747,-0.81308 0,-1.06383 -0.250747,-0.25075 -0.813083,0.25075 -1.06383,0 -0.250747,-0.25075 0.250747,-0.81308 0,-1.06383 -0.250747,-0.25075 -0.813082,0.25075 -1.063829,0 -0.250748,-0.25075 0.250747,-0.81308 0,-1.06383 -2.83688,0 0.354609,0.35461 -1.06383,-1.06383 -0.501494,-0.50149 -1.626166,0.50149 -2.12766,0 -0.355973,-0.35597 0.355973,-1.77169 0,-2.12766 -0.501494,-0.50149 -1.626165,0.50149 -2.127659,0 -0.250747,-0.25075 0.250747,-0.81308 0,-1.06383 -0.501495,-0.50149 -1.626166,0.50149 -2.12766,0 -0.250747,-0.25075 0.250747,-0.81308 0,-1.06383 -0.499436,-0.49944 -6.947372,0.49944 -7.446808,0 -0.250748,-0.25075 0.250747,-0.81308 0,-1.06383 -0.70922,-0.70922 -3.5461,0.70922 -4.25532,0 -0.250747,-0.25075 0.250747,-0.81308 0,-1.06383 -0.250747,-0.25075 -0.813082,0.25075 -1.063829,0 -0.250748,-0.25075 0.250747,-0.81308 0,-1.06383 -0.501495,-0.50149 -1.626166,0.5015 -2.12766,0 -0.165792,-0.16579 -0.165792,-4.08953 0,-4.25532 0.250747,-0.25075 0.746657,0.15859 1.06383,0 0.44855,-0.22427 0.61528,-0.839553 1.06383,-1.063828 0.634345,-0.317173 1.626165,0.501494 2.127659,0 0.250747,-0.250747 -0.250747,-0.813083 0,-1.06383 0.501494,-0.501494 1.626166,0.501495 2.12766,0 0.250747,-0.250747 -0.250747,-0.813082 0,-1.063829 0.250747,-0.250748 0.813082,0.250747 1.06383,0 0.250747,-0.250748 -0.250748,-0.813083 0,-1.06383 0.501494,-0.501494 1.762768,0.608151 2.127659,0 0.982498,-1.637497 1.41844,-3.5461 2.12766,-5.319149 z"
       id="path3816"
       inkscape:connector-curvature="0"
       transform="translate(0,392.3622)" />
    <path
       style="fill:#bdbdbd;fill-opacity:1;stroke:none"
       d="m 246.80851,610.87284 c 0.30421,-5.01494 -4.06541,1.25373 -5.31915,0 -1.41844,-1.41844 1.77305,-1.06383 -1.06383,-1.06383 -0.43805,0 -2.90989,0.2816 -3.19149,0 -0.25074,-0.25075 0.25075,-0.81309 0,-1.06383 -0.70922,-0.70922 -3.5461,0.70922 -4.25532,0 -0.25074,-0.25075 0.25075,-0.81309 0,-1.06383 -0.50149,-0.5015 -1.62616,0.50149 -2.12766,0 -0.35277,-0.35278 0.35278,-1.77488 0,-2.12766 -0.25074,-0.25075 -0.74665,0.15858 -1.06383,0 -0.44855,-0.22428 -0.61528,-0.83956 -1.06383,-1.06383 -0.31717,-0.15859 -0.81308,0.25075 -1.06383,0 -0.25074,-0.25075 0.25075,-0.81308 0,-1.06383 -0.25074,-0.25075 -0.81308,0.25075 -1.06382,0 -0.1658,-0.16579 -0.1658,-4.08953 0,-4.25532 0.25074,-0.25075 0.81308,0.25075 1.06382,0 0.25075,-0.25075 -0.25074,-0.81308 0,-1.06383 0.25075,-0.25075 0.74666,0.15859 1.06383,0 0.44855,-0.22428 0.61528,-0.83955 1.06383,-1.06383 0.31718,-0.15859 0.81309,0.25075 1.06383,0 0.25075,-0.25075 -0.25074,-0.81308 0,-1.06383 0.0741,-0.0741 7.6955,0 8.51064,0 0.60695,0 6.32826,0.0547 6.38298,0 0.25075,-0.25075 -0.25075,-0.81308 0,-1.06383 0.41451,-0.41451 3.60613,0 4.25532,0 7.44681,0 14.89362,0 22.34043,0 1.23966,0 7.84943,0.3306 8.51063,0 0.44855,-0.22427 0.61528,-0.83955 1.06383,-1.06383 0.88574,-0.44287 3.58052,0.6748 4.25532,0 0.25075,-0.25075 -0.25074,-0.81308 0,-1.06383 0.53192,-0.53191 2.65958,0.53192 3.19149,0 0.25075,-0.25075 -0.25074,-0.81308 0,-1.06383 0.2816,-0.2816 2.75344,0 3.19149,0 0.35461,0 1.06383,-0.35461 1.06383,0 0,0.35461 -1.06383,0.35461 -1.06383,0 0,-2.2137 1.49188,-0.42805 2.12766,-1.06383 0.25075,-0.25075 -0.25075,-0.81308 0,-1.06383 0.25075,-0.25075 0.81308,0.25075 1.06383,0 0.25075,-0.25075 0.25075,-0.81308 0,-1.06383 -0.41451,-0.41451 -3.60612,0 -4.25532,0 -4.2807,0 -0.38877,-1.06383 -3.19149,-1.06383 -0.70922,0 -1.62616,0.5015 -2.12766,0 -0.25074,-0.25075 0.25075,-0.81308 0,-1.06383 -0.25074,-0.25074 -0.81308,0.25075 -1.06383,0 -2.2011,-2.2011 3.36358,0.086 -1.06383,-2.12766 -0.31717,-0.15858 -0.81308,0.25075 -1.06383,0 -0.25074,-0.25074 0.25075,-0.81308 0,-1.06383 -0.25074,-0.25074 -0.81308,0.25075 -1.06383,0 -0.4145,-0.41451 0,-3.60612 0,-4.25532 0,-0.70922 -0.50149,-1.62616 0,-2.12766 0.25075,-0.25074 0.74666,0.15859 1.06383,0 0.44855,-0.22427 0.61528,-0.83955 1.06383,-1.06383 0.63435,-0.31717 1.62617,0.5015 2.12766,0 0.25075,-0.25074 -0.25074,-0.81308 0,-1.06383 0.25075,-0.25074 0.81309,0.25075 1.06383,0 0.25075,-0.25074 -0.25074,-0.81308 0,-1.06383 0.25075,-0.25074 0.81309,0.25075 1.06383,0 0.25075,-0.25074 -0.25074,-0.81308 0,-1.06383 0.5015,-0.50149 1.62617,0.5015 2.12766,0 0.25075,-0.25074 -0.25074,-0.81308 0,-1.06382 0.58565,-0.58565 7.92499,0.58564 8.51064,0 0.25075,-0.25075 -0.25075,-0.81309 0,-1.06383 0.5015,-0.5015 1.41844,0 2.12766,0 5.31915,0 10.6383,0 15.95745,0 0.70922,0 1.62616,-0.5015 2.12766,0 0.25074,0.25074 -0.25075,0.81308 0,1.06383 0.50149,0.50149 1.62616,-0.5015 2.12766,0 0.25074,0.25074 -0.25075,0.81308 0,1.06382 0.25074,0.25075 0.74665,-0.15858 1.06383,0 0.44855,0.22428 0.61528,0.83956 1.06383,1.06383 0.63434,0.31718 1.62616,-0.50149 2.12766,0 0.25074,0.25075 -0.25075,0.81309 0,1.06383 0.0741,0.0741 7.69549,0 8.51063,0 7.0922,0 14.1844,0 21.2766,0 0.43805,0 2.90989,-0.2816 3.19149,0 0.25075,0.25075 -0.25075,0.81309 0,1.06383 0.70922,0.70922 3.5461,-0.70922 4.25532,0 0.25075,0.25075 -0.25075,0.81309 0,1.06383 2.83688,0 -0.35461,-0.35461 1.06383,1.06383 0.25075,0.25075 0.81308,-0.25074 1.06383,0 0.25074,0.25075 0,0.70922 0,1.06383 0,0.35461 0.25074,0.81309 0,1.06383 -0.25075,0.25075 -0.81308,-0.25074 -1.06383,0 -0.25075,0.25075 0.25075,0.81309 0,1.06383 -0.70922,0.70922 -3.5461,-0.70922 -4.25532,0 -0.25075,0.25075 0.25075,0.81309 0,1.06383 -0.53192,0.53192 -2.65958,-0.53191 -3.19149,0 -0.25075,0.25075 0.25075,0.81309 0,1.06383 -0.66953,0.66953 -8.90494,-0.66952 -9.57447,0 -0.25075,0.25075 0.25075,0.81309 0,1.06383 -0.10003,0.10003 -9.61329,0 -10.6383,0 -2.83688,0 0.35461,-0.35461 -1.06383,1.06383 -0.35169,0.35169 -12.41426,-0.35169 -12.76595,0 -0.25075,0.25075 0.25074,0.81309 0,1.06383 -0.41451,0.41451 -3.60613,0 -4.25532,0 -3.8811,0 -0.89017,-0.17366 -2.12766,1.06383 -0.70922,0.70922 -3.5461,-0.70922 -4.25532,0 -0.25075,0.25075 0.25075,0.81308 0,1.06383 -0.25075,0.25075 -0.81308,-0.25075 -1.06383,0 -0.25075,0.25075 0.25075,0.81308 0,1.06383 -0.25075,0.25075 -0.70922,0 -1.06383,0 0,0.35461 0.25075,0.81308 0,1.06383 -0.25075,0.25075 -0.81308,-0.25075 -1.06383,0 -0.35113,0.35113 0.35113,1.77653 0,2.12766 -0.25075,0.25075 -0.81308,-0.25075 -1.06383,0 0,2.83688 0.35461,-0.35461 -1.06383,1.06383 -0.25075,0.25075 -0.25075,0.81308 0,1.06383 0.25075,0.25075 0.81308,-0.25075 1.06383,0 0.25075,0.25075 -0.25075,0.81308 0,1.06383 0.25075,0.25075 0.81308,-0.25075 1.06383,0 0.53191,0.53192 -0.53192,2.65957 0,3.19149 1.41844,1.41844 1.06383,-1.77305 1.06383,1.06383 0,2.83688 -0.35461,-0.35461 1.06383,1.06383 0.25075,0.25075 -0.25075,0.81308 0,1.06383 0.35018,0.35018 1.77747,-0.35018 2.12766,0 0.25075,0.25075 0,0.70922 0,1.06383 0,0.35461 0.25075,0.81308 0,1.06383 -0.53192,0.53191 -2.65958,-0.53192 -3.19149,0 -0.25075,0.25075 0.25075,0.81308 0,1.06383 -0.53192,0.53191 -2.65958,-0.53192 -3.19149,0 -0.25075,0.25075 0.25075,0.81308 0,1.06383 -0.32941,0.32941 -4.98974,-0.32941 -5.31915,0 -1.23749,1.23749 1.75343,1.06383 -2.12766,1.06383 -0.60695,0 -6.32826,-0.0547 -6.38298,0 -0.25074,0.25074 0.25075,0.81308 0,1.06383 -0.41269,0.41269 -5.97029,-0.41269 -6.38298,0 -1.41844,1.41844 1.77305,1.06383 -1.06383,1.06383 -0.64919,0 -3.84081,-0.41451 -4.25532,0 -0.25074,0.25074 0.25075,0.81308 0,1.06383 -0.70922,0.70922 -3.54609,-0.70922 -4.25531,0 -0.25075,0.25074 0.25074,0.81308 0,1.06383 -0.41451,0.41451 -3.60613,0 -4.25532,0 -0.6492,0 -3.84081,-0.41451 -4.25532,0 -0.25075,0.25074 0.25074,0.81308 0,1.06383 -0.53192,0.53191 -2.65958,-0.53192 -3.19149,0 -0.25075,0.25074 0.25074,0.81308 0,1.06383 -0.0547,0.0547 -5.77603,0 -6.38298,0 -1.41844,0 -2.83688,0 -4.25532,0 -0.70922,0 -2.12766,0.70922 -2.12766,0 0,-0.35461 0.70922,0 1.06383,0 -2.12766,-1.06383 -4.25532,-2.12766 -6.38298,-3.19149 z"
       id="path3820"
       inkscape:connector-curvature="0" />
    <path
       style="fill:#bdbdbd;stroke:none;stroke-width:1px;stroke-linecap:butt;stroke-linejoin:miter;stroke-opacity:1;fill-opacity:1"
       d="m 476.59574,181.2766 c -0.6126,-0.89372 -6.75766,0.68914 -7.4468,0 -0.25075,-0.25075 0.25074,-0.81309 0,-1.06383 -0.53192,-0.53192 -2.65958,0.53191 -3.19149,0 -0.25075,-0.25075 0.25074,-0.81309 0,-1.06383 -0.70922,-0.70922 -3.5461,0.70922 -4.25532,0 -0.25075,-0.25075 0.25074,-0.81309 0,-1.06383 -0.25075,-0.25075 -0.81309,0.25074 -1.06383,0 -0.25075,-0.25075 0.15858,-0.74666 0,-1.06383 -2.2137,-4.42741 0.0734,1.13727 -2.12766,-1.06383 -0.25075,-0.25075 0.25075,-0.81309 0,-1.06383 -0.25075,-0.25075 -0.81308,0.25074 -1.06383,0 -0.25075,-0.25075 0.25075,-0.81309 0,-1.06383 -0.25075,-0.25075 -0.81308,0.25074 -1.06383,0 -0.53192,-0.53192 0.53191,-2.65958 0,-3.19149 -0.25075,-0.25075 -0.81308,0.25074 -1.06383,0 -0.41451,-0.41451 0,-3.60613 0,-4.25532 0,-0.35461 -0.25075,-0.81308 0,-1.06383 0.50149,-0.5015 1.41844,0 2.12766,0 0.60695,0 6.32825,-0.0547 6.38298,0 0.25074,0.25075 -0.25075,0.81308 0,1.06383 0.25074,0.25075 0.81308,0.25075 1.06383,0 0.25074,-0.25075 -0.35461,-1.06383 0,-1.06383 0.35461,0 0,1.41844 0,1.06383 0,-0.70922 0,-1.41844 0,-2.12766 0,-0.35461 0.25074,-0.81308 0,-1.06383 -0.25075,-0.25075 -0.81309,0.25075 -1.06383,0 -0.25075,-0.25075 0.25074,-0.81308 0,-1.06383 -0.25075,-0.25075 -0.81309,0.25075 -1.06383,0 -0.25075,-0.25075 0.25074,-0.81308 0,-1.06383 -0.25075,-0.25075 -0.81309,0.25075 -1.06383,0 -0.25075,-0.25075 0.25074,-0.81308 0,-1.06383 -0.25075,-0.25075 -0.81309,0.25075 -1.06383,0 -0.25075,-0.25075 0.25074,-0.81308 0,-1.06383 -0.25075,-0.25075 -0.81308,0.25075 -1.06383,0 -0.5015,-0.50149 0.50149,-1.62617 0,-2.12766 -0.25075,-0.25075 -0.81308,0.25075 -1.06383,0 -0.25075,-0.25075 0.25075,-0.81308 0,-1.06383 -0.25075,-0.25075 -0.81308,0.25075 -1.06383,0 -0.25075,-0.25075 0.25075,-0.81308 0,-1.06383 -0.25075,-0.25075 -0.81308,0.25075 -1.06383,0 -0.41451,-0.41451 0,-3.60612 0,-4.25532 0,-0.70922 -0.5015,-1.62616 0,-2.12766 0.50149,-0.50149 1.62616,0.5015 2.12766,0 0.25075,-0.25074 0,-0.70922 0,-1.06383 0.35461,0 0.81308,0.25075 1.06383,0 0.25075,-0.25074 -0.25075,-0.81308 0,-1.06383 0.53191,-0.53191 2.65957,0.53192 3.19149,0 0.25074,-0.25074 -0.25075,-0.81308 0,-1.06383 0.50149,-0.50149 1.62616,0.5015 2.12766,0 0.25074,-0.25074 -0.25075,-0.81308 0,-1.06383 0.50149,-0.50149 1.62616,0.5015 2.12766,0 0.25074,-0.25074 -0.25075,-0.81308 0,-1.06383 0.35243,-0.35243 1.77523,0.35243 2.12766,0 0.25074,-0.25074 -0.25075,-0.81308 0,-1.06383 0.66952,-0.66952 8.90494,0.66953 9.57446,0 0.25075,-0.25074 -0.25074,-0.81308 0,-1.06383 0.41269,-0.41269 5.97029,0.41269 6.38298,0 0.25075,-0.25074 -0.25074,-0.81308 0,-1.06383 0.5015,-0.50149 1.41844,0 2.12766,0 4.25532,0 8.51064,0 12.76596,0 0.43805,0 2.90989,-0.2816 3.19149,0 0.25075,0.25075 -0.25075,0.81309 0,1.06383 0.50149,0.5015 1.62616,-0.50149 2.12766,0 0.49944,0.49944 -0.49944,6.94738 0,7.44681 0.10003,0.10003 9.61329,0 10.6383,0 0.70922,0 1.62616,0.5015 2.12766,0 0.25074,-0.25074 -0.25075,-0.81308 0,-1.06383 0.35597,-0.35597 1.77168,0.35598 2.12766,0 0.25074,-0.25074 -0.25075,-0.81308 0,-1.06383 0.70922,-0.70922 3.5461,0.70922 4.25532,0 0.25074,-0.25074 -0.25075,-0.81308 0,-1.06383 0.50149,-0.50149 1.62616,0.5015 2.12765,0 0.25075,-0.25074 -0.25074,-0.81308 0,-1.06383 0.5015,-0.50149 1.62617,0.5015 2.12766,0 0.25075,-0.25074 -0.25074,-0.81308 0,-1.06383 0.35598,-0.35597 1.77169,0.35598 2.12766,0 0.25075,-0.25074 -0.25074,-0.81308 0,-1.06383 0.70922,-0.70922 3.5461,0.70922 4.25532,0 0.25075,-0.25074 -0.25074,-0.81308 0,-1.06383 0.25075,-0.25074 0.81309,0.25075 1.06383,0 0.25075,-0.25074 -0.25074,-0.81308 0,-1.06383 0.35421,-0.3542 1.77346,0.35421 2.12766,0 0.5015,-0.50149 -0.50149,-1.62616 0,-2.12766 0.2816,-0.2816 2.75344,0 3.19149,0 2.83688,0 -0.35461,0.35461 1.06383,-1.06383 0.0865,-0.0865 8.65467,0 9.57447,0 0.70922,0 1.62616,-0.50149 2.12766,0 0.25075,0.25075 -0.25075,0.81309 0,1.06383 0.25075,0.25075 0.81308,-0.25074 1.06383,0 0.3542,0.35421 -0.35421,1.77346 0,2.12766 0.25075,0.25075 0.81308,-0.25074 1.06383,0 0.25075,0.25075 -0.25075,0.81309 0,1.06383 0.25075,0.25075 0.81308,-0.25074 1.06383,0 0.50149,0.5015 -0.5015,1.62617 0,2.12766 1.41844,1.41844 1.06383,-1.77305 1.06383,1.06383 0,0.6492 0.41451,3.84081 0,4.25532 -0.25075,0.25075 -0.81308,-0.25074 -1.06383,0 -0.25075,0.25075 0.25075,0.81309 0,1.06383 -0.25075,0.25075 -1.06383,0.35461 -1.06383,0 0,-0.35461 0.70922,0 1.06383,0 1.06383,0 2.12766,0 3.19149,0 4.25532,0 8.51064,0 12.76596,0 0.70922,0 1.62616,-0.50149 2.12765,0 0.5015,0.5015 -0.50149,1.62617 0,2.12766 0.25075,0.25075 0.81309,-0.25075 1.06383,0 0.0634,0.0634 0,6.7358 0,7.44681 0,0.70922 0,1.41844 0,2.12766 0,0.35461 0.35461,1.06383 0,1.06383 -0.35461,0 -0.35461,-1.06383 0,-1.06383 0.5015,0 0.61528,0.83955 1.06383,1.06383 1.13476,0.56738 3.12057,-0.56738 4.25532,0 0.44855,0.22427 0.61528,0.83955 1.06383,1.06383 0.69765,0.34882 13.06159,0 14.89362,0 0.50159,0 5.27093,-0.0482 5.31915,0 0.25075,0.25075 0.35461,1.06383 0,1.06383 -0.35461,0 -0.35461,-1.06383 0,-1.06383 0.50149,0 0.83955,0.61528 1.06383,1.06383 0.15859,0.31717 -0.25075,0.81308 0,1.06383 0.25075,0.25075 0.81308,-0.25075 1.06383,0 0.25075,0.25075 -0.25075,0.81308 0,1.06383 0.0482,0.0482 4.81755,0 5.31915,0 1.13064,0 11.58802,-0.1141 11.70213,0 0.25074,0.25075 -0.25075,0.81308 0,1.06383 0.25074,0.25075 0.81308,-0.25075 1.06383,0 0.25074,0.25075 -0.25075,0.81308 0,1.06383 0.25074,0.25075 0.81308,-0.25075 1.06383,0 0.25074,0.25075 0,0.70922 0,1.06383 0,0.64919 0.4145,3.84081 0,4.25532 -0.25075,0.25074 -0.81309,-0.25075 -1.06383,0 -0.70922,0.70922 0.70922,3.5461 0,4.25532 -0.25075,0.25074 -0.81309,-0.25075 -1.06383,0 -0.53192,0.53191 0.53191,2.65957 0,3.19149 -0.25075,0.25074 -0.81309,-0.25075 -1.06383,0 -0.10003,0.10002 0,9.61329 0,10.63829 0,0.43805 0.2816,2.90989 0,3.19149 -0.75079,0.75079 -9.88752,-0.75078 -10.6383,0 -0.25075,0.25075 0.25074,0.81309 0,1.06383 -0.70922,0.70922 -3.5461,-0.70922 -4.25532,0 -1.2375,1.2375 1.75343,1.06383 -2.12766,1.06383 -2.83688,0 0.35461,-0.35461 -1.06383,1.06383 -0.53192,0.53192 -2.65958,-0.53191 -3.19149,0 -0.25075,0.25075 0.25075,0.81309 0,1.06383 -0.41269,0.41269 -5.97029,-0.41269 -6.38298,0 -0.25075,0.25075 0.25075,0.81308 0,1.06383 -0.49177,0.49177 -2.54918,-0.32115 -3.19149,0 -0.44855,0.22428 -0.61528,0.83956 -1.06383,1.06383 -0.64231,0.32116 -2.69972,-0.49177 -3.19149,0 -0.25074,0.25075 0.25075,0.81308 0,1.06383 -0.50149,0.5015 -1.62616,-0.50149 -2.12766,0 -0.25074,0.25075 0.25075,0.81308 0,1.06383 -0.41269,0.41269 -5.97029,-0.41269 -6.38298,0 -0.25074,0.25075 0.25075,0.81308 0,1.06383 -0.50149,0.5015 -1.62616,-0.50149 -2.12766,0 -0.25074,0.25075 0.25075,0.81308 0,1.06383 -0.50149,0.5015 -1.62616,-0.50149 -2.12765,0 -0.25075,0.25075 0.25074,0.81308 0,1.06383 -0.70922,0.70922 -3.5461,-0.70922 -4.25532,0 -0.25075,0.25075 0.25074,0.81308 0,1.06383 -0.70922,0.70922 -3.5461,-0.70922 -4.25532,0 -0.25075,0.25075 0.25074,0.81308 0,1.06383 -0.70922,0.70922 -3.5461,-0.70922 -4.25532,0 -0.25075,0.25075 0.25074,0.81308 0,1.06383 -0.49177,0.49177 -2.54918,-0.32116 -3.19149,0 -0.44855,0.22428 -0.61528,0.83955 -1.06383,1.06383 -0.88573,0.44287 -3.58052,-0.6748 -4.25532,0 -1.2375,1.23749 1.75343,1.06383 -2.12766,1.06383 -0.60695,0 -6.32826,-0.0547 -6.38298,0 -0.25075,0.25075 0.25075,0.81308 0,1.06383 -0.32941,0.32941 -4.98974,-0.32941 -5.31915,0 -0.25074,0.25075 0.25075,0.81308 0,1.06383 -0.0482,0.0482 -4.81755,0 -5.31915,0 -1.13064,0 -11.58802,-0.1141 -11.70212,0 -0.25075,0.25075 0.25074,0.81308 0,1.06383 -0.10003,0.10003 -9.6133,0 -10.6383,0 -0.70922,0 -1.62617,0.50149 -2.12766,0 -0.25075,-0.25075 0.25075,-0.81308 0,-1.06383 -0.25075,-0.25075 -0.81308,0.25075 -1.06383,0 -0.25075,-0.25075 0.25075,-0.81308 0,-1.06383 -0.25075,-0.25075 -0.81308,0.25075 -1.06383,0 -0.25075,-0.25075 0.25075,-0.81308 0,-1.06383 -0.25075,-0.25075 -0.81308,0.25075 -1.06383,0 -0.25075,-0.25075 0.25075,-0.81308 0,-1.06383 -0.25075,-0.25075 -0.81308,0.25075 -1.06383,0 -0.25075,-0.25075 0,-0.70922 0,-1.06383 0,-0.64919 -0.41451,-3.84081 0,-4.25532 0.25075,-0.25075 0.81308,0.25075 1.06383,0 0.25075,-0.25075 -0.25075,-0.81308 0,-1.06383 0.70922,-0.70922 3.5461,0.70922 4.25532,0 0.25075,-0.25075 -0.25075,-0.81308 0,-1.06383 0.70922,-0.70922 3.5461,0.70922 4.25532,0 0.25074,-0.25075 -0.25075,-0.81308 0,-1.06383 0.70922,-0.70922 3.5461,0.70922 4.25532,0 0.25074,-0.25075 -0.25075,-0.81308 0,-1.06383 0.25074,-0.25075 0.81308,0.25075 1.06383,0 0.25074,-0.25075 -0.25075,-0.81308 0,-1.06383 0.70922,-0.70922 3.5461,0.70922 4.25532,0 0.25074,-0.25075 -0.25075,-0.81308 0,-1.06383 0.53191,-0.53191 2.65957,0.53192 3.19148,0 1.78389,-1.78389 -2.98237,-0.85472 -3.19148,-1.06383 -0.25075,-0.25074 0.25074,-0.81308 0,-1.06383 -0.5015,-0.50149 -1.41844,0 -2.12766,0 -2.49487,0 0.50149,0.25075 -2.12766,-1.06383 -0.31718,-0.15858 -0.81309,0.25075 -1.06383,0 -0.28161,-0.2816 0,-2.75344 0,-3.19149 0,-3.88109 -0.17367,-0.89016 1.06383,-2.12766 0.25074,-0.25074 -0.25075,-0.81308 0,-1.06383 0.50149,-0.50149 1.62616,0.5015 2.12766,0 0.25074,-0.25074 -0.25075,-0.81308 0,-1.06383 0.25074,-0.25074 0.81308,0.25075 1.06383,0 0.25074,-0.25074 -0.25075,-0.81308 0,-1.06383 0.70922,-0.70922 3.54609,0.70922 4.25531,0 0.25075,-0.25074 -0.25074,-0.81308 0,-1.06383 0.25075,-0.25074 0.81309,0.25075 1.06383,0 1.2375,-1.23749 -1.75343,-1.06383 2.12766,-1.06383 2.83688,0 -0.35461,0.35461 1.06383,-1.06382 0.10639,-0.10639 3.68795,0.49645 2.12766,-1.06383 -0.50149,-0.5015 -1.41844,0 -2.12766,0 -0.71503,0 -2.56365,0.31391 -3.19149,0 -0.44855,-0.22428 -0.61528,-0.83956 -1.06383,-1.06383 -0.64231,-0.32116 -2.69971,0.49177 -3.19148,0 -0.25075,-0.25075 0.25074,-0.81309 0,-1.06383 -0.12832,-0.12831 -11.52946,0 -12.76596,0 -3.88109,0 -0.89017,0.17366 -2.12766,-1.06383 -0.2816,-0.28161 -2.75344,0 -3.19149,0 -6.02837,0 -12.05674,0 -18.08511,0 -2.83688,0 0.35461,-0.35461 -1.06383,1.06383 -0.25074,0.25074 -0.81308,-0.25075 -1.06383,0 -0.25074,0.25074 0.25075,0.81308 0,1.06383 -0.50149,0.50149 -1.41844,0 -2.12766,0 -2.87199,0 -0.7161,0.0695 -6.38298,-1.06383 z"
       id="path3818"
       inkscape:connector-curvature="0"
       transform="translate(0,392.3622)" />
    <path
       style="fill:#bdbdbd;stroke:none;stroke-width:1px;stroke-linecap:butt;stroke-linejoin:miter;stroke-opacity:1;fill-opacity:1"
       d="m 508.51064,390.85106 c -1.41844,-0.70922 -4.96454,-0.70922 -4.25532,-2.12766 0.70922,-1.41844 5.37669,3.24904 4.25532,2.12766 -1.4621,-1.46209 -3.46973,-2.26678 -5.31915,-3.19149 -0.64231,-0.32115 -2.69972,0.49177 -3.19149,0 -0.25075,-0.25074 0.25075,-0.81308 0,-1.06383 -0.55043,-0.55043 -6.38764,0.52959 -7.44681,0 -0.44855,-0.22427 -0.61528,-0.83955 -1.06383,-1.06383 -0.64231,-0.32115 -2.69972,0.49178 -3.19149,0 -0.25074,-0.25074 0.25075,-0.81308 0,-1.06382 -0.53191,-0.53192 -2.65957,0.53191 -3.19149,0 -0.25074,-0.25075 0.25075,-0.81309 0,-1.06383 -0.53191,-0.53192 -2.65957,0.53191 -3.19149,0 -0.25074,-0.25075 0.25075,-0.81309 0,-1.06383 -0.70922,-0.70922 -3.5461,0.70922 -4.25532,0 -0.25074,-0.25075 0.25075,-0.81309 0,-1.06383 -0.25074,-0.25075 -0.81308,0.25074 -1.06383,0 -0.23011,-0.23012 -0.16789,-3.91953 0,-4.25532 0.22428,-0.44855 0.61528,-0.83956 1.06383,-1.06383 0.31718,-0.15859 0.81309,0.25074 1.06383,0 0.25075,-0.25075 -0.25074,-0.81309 0,-1.06383 0.5015,-0.5015 1.62617,0.50149 2.12766,0 0.25075,-0.25075 -0.25074,-0.81309 0,-1.06383 0.53192,-0.53192 2.65958,0.53191 3.19149,0 0.25075,-0.25075 -0.25074,-0.81309 0,-1.06383 0.12831,-0.12831 11.52946,0 12.76596,0 0.35461,0 0.81308,0.25074 1.06383,0 0.70922,-0.70922 -0.70922,-3.5461 0,-4.25532 0.25075,-0.25075 0.81308,0.25075 1.06383,0 0.25075,-0.25075 -0.25075,-0.81308 0,-1.06383 0.25075,-0.25075 0.81308,0.25075 1.06383,0 0.25075,-0.25075 -0.25075,-0.81308 0,-1.06383 0.0741,-0.0741 7.69549,0 8.51064,0 3.5461,0 7.0922,0 10.6383,0 0.70922,0 1.41844,0 2.12766,0 0.35461,0 1.06383,-0.35461 1.06383,0 0,0.31295 -4.98771,-0.33144 -5.31915,0 -0.10639,0.10638 -0.10639,3.08511 0,3.19149 0.50149,0.50149 1.62616,-0.5015 2.12766,0 0.25074,0.25075 -0.25075,0.81308 0,1.06383 0.2816,0.2816 2.75344,0 3.19149,0 2.49487,0 -0.5015,-0.25075 2.12766,1.06383 1.57259,0.7863 5.8742,-0.7863 7.4468,0 2.62916,1.31457 -0.36721,1.06383 2.12766,1.06383 5.31915,0 10.6383,0 15.95745,0 1.37491,0 6.47158,-0.48762 7.44681,0 0.44855,0.22427 0.61528,0.83955 1.06383,1.06383 0.88573,0.44286 3.58052,-0.6748 4.25532,0 0.50149,0.50149 0,1.41844 0,2.12766 0,0.35461 0.25074,0.81308 0,1.06383 -0.53192,0.53191 -2.65958,-0.53192 -3.19149,0 -0.25075,0.25074 0.25075,0.81308 0,1.06383 -0.2816,0.2816 -2.75344,0 -3.19149,0 -6.02837,0 -12.05674,0 -18.08511,0 -0.50159,0 -5.27093,-0.0482 -5.31915,0 -0.25074,0.25074 0,0.70922 0,1.06383 0,0.35461 -0.25074,0.81308 0,1.06383 0.25075,0.25074 0.81309,-0.25075 1.06383,0 0.25075,0.25074 -0.25074,0.81308 0,1.06383 0.5015,0.50149 1.62617,-0.5015 2.12766,0 0.25075,0.25074 -0.25074,0.81308 0,1.06383 0.25075,0.25074 0.81309,-0.25075 1.06383,0 0.25075,0.25074 -0.25074,0.81308 0,1.06383 0.13338,0.13337 2.59037,-0.46272 1.06383,1.06383 -0.0482,0.0482 -4.81755,0 -5.31915,0 -4.96454,0 -9.92907,0 -14.89361,0 -0.70922,0 -1.62617,0.50149 -2.12766,0 -1.2375,-1.2375 1.75343,-1.06383 -2.12766,-1.06383 -0.6492,0 -3.84081,-0.41451 -4.25532,0 -0.25075,0.25074 0.25075,0.81308 0,1.06383 -0.25075,0.25074 -0.81308,-0.25075 -1.06383,0 -1.41844,1.41843 1.77305,1.06382 -1.06383,1.06382"
       id="path3824"
       inkscape:connector-curvature="0"
       transform="translate(0,392.3622)" />
    <rect
       style="fill:#000000;fill-opacity:0.52127659;stroke:none;stroke-width:0.69999999000000002;stroke-linecap:round;stroke-miterlimit:4;stroke-opacity:0.29787233000000002;stroke-dasharray:none"
       id="rect3006"
       width="610"
       height="660"
       x="0"
       y="392.36221" />
  </g>
</svg>
