<?xml version="1.0" encoding="UTF-8" standalone="no"?>
<svg viewBox="0 0 450 450" width="450pt" xmlns="http://www.w3.org/2000/svg" xmlns:xlink="http://www.w3.org/1999/xlink" xmlns:rdf="http://www.w3.org/1999/02/22-rdf-syntax-ns#" xmlns:dc="http://purl.org/dc/elements/1.1/" xmlns:cc="http://creativecommons.org/ns#" version="1.1" height="450pt">
<metadata>
<rdf:RDF>
<cc:Work rdf:about="">
<dc:format>image/svg+xml</dc:format>
<dc:type rdf:resource="http://purl.org/dc/dcmitype/StillImage"/>
<dc:title/>
</cc:Work>
</rdf:RDF>
</metadata>
<defs>
<radialGradient id="b" cy="345.8" r="398.83" cx="109.74" gradientUnits="userSpaceOnUse" gradientTransform="matrix(0 -1 1 0 -225.01 225.01)">
<stop offset="0" stop-color="#365fa4"/>
<stop offset="1" stop-color="#15224e"/>
</radialGradient>
<radialGradient id="a" cy="0" r="155.43" cx="0" gradientUnits="userSpaceOnUse" gradientTransform="matrix(-.70711 -.70711 .70715 -.70712 55.805 60.271)">
<stop offset="0" stop-color="#98b5dd"/>
<stop offset="1" stop-color="#1c3f79"/>
</radialGradient>
<linearGradient id="d" gradientTransform="matrix(.96309 0 0 -1 100.33 85.045)" y2="-291.03" gradientUnits="userSpaceOnUse" x2="176.05">
<stop offset="0"/>
<stop offset="1" stop-color="#fff"/>
</linearGradient>
<linearGradient id="c" gradientTransform="matrix(1 0 0 -1 181.9 197.44)" y2="-183.17" y1="22.076" gradientUnits="userSpaceOnUse" x1="35.183" x2="67.277">
<stop offset="0" stop-color="#fff"/>
<stop offset="1" stop-color="#9e9f9c"/>
</linearGradient>
<filter id="g" color-interpolation-filters="sRGB">
<feGaussianBlur stdDeviation="3.5822399"/>
</filter>
<filter id="f" color-interpolation-filters="sRGB">
<feGaussianBlur stdDeviation="2.9569722"/>
</filter>
<filter id="e" width="1.2057" x="-.10286" y="-.055385" height="1.1108" color-interpolation-filters="sRGB">
<feGaussianBlur stdDeviation="2.5899841"/>
</filter>
</defs>
<ellipse cy="0" cx="0" rx="213.71" ry="213.72" transform="matrix(0 -1 -1 0 225.01 224.99)" fill="url(#b)"/>
<ellipse cy="0" cx="0" rx="173.51" ry="173.51" transform="matrix(0 -1 -1 0 225.01 224.99)" fill="url(#a)"/>
<path stroke-miterlimit="79.84" d="m162.71 106.57c19.573 42.875 33.902 74.309 53.475 117.18 13.82 0 57.614 58.233 70.329 58.228 3.4617-0.001-25.525-58.247-21.762-58.247 19.521-42.781 38.648-76.498 58.169-119.28 0.82609 1.7308-10.275-8.5871-36.515-19.248-13.486 28.388-30.896 61.016-44.308 89.44-10.762-22.762-36.83-55.452-36.83-82.564 0-6.7316 55.546-5.2214 54.568-3.931-2.2664 2.9904-35.604-24.656-36.925-27.448-23.577 3.1815-56.044 31.836-60.2 45.865z" stroke="#000" fill="#172654" stroke-width=".5" filter="url(#f)" transform="matrix(1 0 0 1.0381 0 -2.9681)"/>
<path d="m284.9 347.9 9.0444 18.089-40.296 80.347 67.931 0.65086 11.929 16.432-99.998-7.8086z" filter="url(#e)" transform="scale(.8)" fill="#182756" style="color:#000000"/>
<path d="m51.66 233.26c0-98.583 80.01-178.59 178.59-178.59 98.584 0 178.6 80.01 178.6 178.59 0 98.583-80.011 178.59-178.6 178.59-98.577 0-178.59-80.003-178.59-178.59zm221.62 142.46-9.064-20.464-33.671-69.295-33.528 69.014-9.261 20.906c13.462 4.011 27.729 6.161 42.486 6.161 14.968 0 29.407-2.206 43.038-6.322zm-106.64-7.95-79.021-176.97c-4.002 13.456-6.156 27.702-6.156 42.452 0 59.369 34.842 110.66 85.178 134.52zm212.4-134.51c0-14.313-2.03-28.161-5.806-41.272l-78.257 175.26c49.733-24.077 84.063-75.052 84.063-133.99zm-94.45 72.87 66.29-159.95c-11.45-15.82-25.92-29.3-42.58-39.6l-54.5 119.42h-46.5l-54.63-119.71c-16.588 10.169-31.038 23.487-42.509 39.137l66.5 160.42 30.27-67.753 0.371-0.007h0.166l46.481-0.282-0.285 0.57h0.644l30.279 67.752zm-54.05-128.56 41.28-87.208c-13.19-3.833-27.142-5.891-41.569-5.891-14.233 0-28.001 2.004-41.039 5.741l41.337 87.362z" fill-opacity=".50196"/>
<path stroke-miterlimit="79.84" d="m53 220.21c0-98.59 77.06-178.6 171.99-178.6 94.95 0.003 172.01 80.01 172.01 178.6 0 98.58-77.06 178.58-172.01 178.58-94.93 0-171.99-80-171.99-178.58zm213.45 142.46-8.7295-20.464-32.428-69.295-32.292 69.014-8.9182 20.904c12.966 4.011 26.706 6.163 40.916 6.163 14.416 0 28.324-2.208 41.452-6.322zm-102.71-7.95-76.108-176.97c-3.8543 13.456-5.9288 27.704-5.9288 42.454 0 59.367 33.556 110.65 82.035 134.52zm204.55-134.51c0-14.315-1.9541-28.163-5.5908-41.274l-75.369 175.26c47.897-24.076 80.96-75.05 80.96-133.98zm-88.413 70.669 60.341-144.4c-11.02-15.822-25.915-35.5-41.961-45.795l-50.582 112.27h-44.779l-52.614-119.71c-15.977 10.169-29.893 23.487-40.94 39.137l64.045 160.42 28.786-60.802c3.6894 1.654 6.2766-1.2007 6.2822-1.1937 0 0 26.633-0.0349 42.533-0.30004zm-54.6-126.36 39.75-87.206c-12.703-3.834-26.14-5.892-40.037-5.892-13.708 0-26.967 2.004-39.524 5.739z" stroke-width="0.4" stroke="#000" fill="url(#d)"/>
<path d="m156.53 102c-2.0304 4.8601-64.507 17.904-68.933 31.627 26.967 59.262 52.438 119.22 80.313 178.12 6.3804 2.0028 26.71 2.2921 33.321 3.6853l-22.77-58.681c-22.776-54.879-28.938-59.476-51.762-114.33-10.18-0.551 36.058-29.771 29.83-40.425z" filter="url(#g)" fill="#1c3f79"/>
<path stroke-miterlimit="79.84" d="m164.24 80.781c-11.615 5.0892-9.753 5.1105-15.936 25.793 19.573 42.875 33.902 74.309 53.475 117.18 17.583 0 34.704-0.9154 52.287-0.9154 19.521-42.781 33.066-72.913 52.587-115.69 0.82609 1.7308-6.9631-17.787-7.1565-19.145-13.486 28.388-58.394 58.225-71.806 86.649-13.458-28.464-34.567-67.403-48.033-95.862-3.2917 1.4583-12.126 0.53319-15.418 1.9915z" stroke-width=".5" stroke="#000" fill="#b3b3b3"/>
<path d="m3.75 225c0-122.12 99.12-221.25 221.25-221.25s221.25 99.126 221.25 221.25c0 122.13-99.122 221.24-221.25 221.24-122.13 0.01-221.25-99.11-221.25-221.24zm431.65 0c0-116.14-94.261-210.4-210.39-210.4-116.14 0-210.4 94.259-210.4 210.4 0 116.13 94.26 210.39 210.4 210.39 116.13 0 210.39-94.258 210.39-210.39z" fill="#b2b2b2"/>
<path d="m4.936 225c0-121.47 98.587-220.07 220.06-220.07s220.07 98.595 220.07 220.07c0 121.47-98.591 220.06-220.07 220.06s-220.06-98.587-220.06-220.06zm431.65 0c-0.01-116.79-94.8-211.58-211.59-211.58s-211.58 94.79-211.58 211.58 94.791 211.58 211.58 211.58 211.58-94.788 211.58-211.58z" stroke-width="3.2" stroke="#000" fill="#d9d9d9"/>
<path stroke-miterlimit="79.84" d="m94.097 140.14c-5.7514 13.232-6.8329 8.6019-11.258 22.325 26.967 59.262 52.438 119.22 80.313 178.12 6.3804 2.0028 11.827 6.0131 18.438 7.4062 14.707-31.382 31.253-56.853 46.461-87.936 15.18 30.995 28.77 56.347 43.82 87.405 10.588-1.6679 22.476-7.2936 24.564-18.851 24.733-55.298 40.41-125.72 65.26-180.96l-21.661-0.88028c-22.389 54.535-39.545 84.948-61.931 139.48 0.78532 51.687 6.6385 66.234-4.7622 42.232-1.511 0.49479-58.87-97.869-59.393-97.862h-13.168s-16.474 30.835-27.076 54.969c-22.776-54.879-40.1-90.173-62.925-145.03-10.18-0.551-16.035-1.8643-16.681-0.42462z" stroke-width=".5" stroke="#000" fill="#f9f9f9"/>
<path d="m250.05 470.38c8.1478 5.9644 69.388 1.1838 85.691-8.127" stroke-width="3" stroke="#000" transform="scale(.8)" fill="none" stroke-linejoin="round" stroke-linecap="round" style="color:#000000"/>
<path d="m266.52 288.23-48.91 107.82" stroke-width="2" stroke="#000" transform="scale(.8)" fill="none" stroke-linejoin="round" stroke-linecap="round" style="color:#000000"/>
<path d="m98.514 140.06 74.256 177.19" stroke-width="1.6" stroke="#1a1a1a" fill="none" stroke-linejoin="round" stroke-linecap="round" style="color:#000000"/>
<path stroke-miterlimit="79.84" d="m42.05 225c0-100.99 81.967-182.95 182.95-182.95 100.99 0 182.95 81.961 182.95 182.95s-81.96 182.95-182.95 182.95c-100.98 0-182.95-81.961-182.95-182.95zm227.04 145.94-9.285-20.959-34.492-70.99-34.35 70.702-9.479 21.412c13.789 4.108 28.401 6.316 43.518 6.316 15.327 0 30.125-2.265 44.088-6.481zm-109.25-8.13-80.947-181.29c-4.099 13.782-6.302 28.376-6.302 43.486 0 60.822 35.687 113.36 87.249 137.81zm217.58-137.81c0-14.666-2.079-28.853-5.949-42.275l-80.166 179.54c50.95-24.675 86.115-76.884 86.115-137.26zm-98.011 88.345 74.893-166.1c-11.729-16.212-37.002-48.205-54.065-58.75l-59.197 134.47h-27.409l-59.336-136.78c-16.993 10.408-45.955 37.549-57.7 53.572l77.555 176.47c13.035-27.853 26.801-57.617 39.836-85.47 0.0384-0.39907 25.711 0.43258 23.813-0.12195zm-54.1-145.37 42.28-89.344c-13.515-3.936-27.805-6.042-42.586-6.042-14.58 0-28.682 2.053-42.036 5.878z" stroke-width=".2" stroke="#1a1a1a" fill="url(#c)"/>
<path d="m376.52 110.98c33.767 26.88 45.731 48.95 66.159 72.866v0" stroke-width="2" stroke="#000" transform="scale(.8)" fill="none" stroke-linejoin="round" stroke-linecap="round" style="color:#000000"/>
<path d="m464.63 230.49c27.167 108.85-29.44 187.04-99.238 221.19" stroke-width="3" stroke="#000" transform="scale(.8)" fill="none" stroke-linejoin="round" stroke-linecap="round" style="color:#000000"/>
<path d="m442.07 183.84-93.29 209.15-50.61-103.36" stroke-width="2" stroke="#000" transform="scale(.8)" fill="none" stroke-linejoin="round" stroke-linecap="round" style="color:#000000"/>
<path d="m121.39 174.81 96.781 219.54" stroke-width="1.5" stroke="#000" transform="scale(.8)" fill="none" stroke-linejoin="round" stroke-linecap="round" style="color:#000000"/>
</svg>
