<?xml version="1.0" encoding="UTF-8" standalone="no"?>
<svg xmlns:rdf="http://www.w3.org/1999/02/22-rdf-syntax-ns#" xmlns:cc="http://creativecommons.org/ns#" xmlns="http://www.w3.org/2000/svg" y="0px" x="0px" xmlns:dc="http://purl.org/dc/elements/1.1/" viewBox="0 0 92.985 53.006" version="1.1" xml:space="preserve" enable-background="new 0 0 92.985 53.006"><metadata><rdf:RDF><cc:Work rdf:about=""><dc:format>image/svg+xml</dc:format><dc:type rdf:resource="http://purl.org/dc/dcmitype/StillImage"/><dc:title/></cc:Work></rdf:RDF></metadata>
<linearGradient id="a" gradientUnits="userSpaceOnUse" x2="46.493" x1="46.493" y2="53.006">
	<stop stop-color="#F79810" offset="0"/>
	<stop stop-color="#F8310E" offset="1"/>
</linearGradient>
<path d="m1.053 24.152c-0.194 0-0.348 0.15-0.373 0.364l-0.68 5.165 0.68 5.076c0.025 0.214 0.179 0.363 0.373 0.363 0.188 0 0.341-0.148 0.371-0.361v-0.001 0.001l0.806-5.078-0.806-5.166c-0.029-0.213-0.184-0.363-0.371-0.363zm3.824-2.822c-0.032-0.222-0.191-0.375-0.387-0.375-0.197 0-0.36 0.158-0.387 0.375 0 0.002-0.914 8.351-0.914 8.351l0.914 8.166c0.026 0.219 0.189 0.377 0.387 0.377 0.195 0 0.354-0.154 0.386-0.375l1.04-8.168zm14.404-7.703c-0.375 0-0.685 0.307-0.703 0.697l-0.728 15.364 0.728 9.929c0.019 0.388 0.328 0.694 0.703 0.694 0.373 0 0.682-0.307 0.704-0.696v0.003l0.823-9.93-0.823-15.364c-0.022-0.39-0.331-0.697-0.704-0.697zm-7.455 5.34c-0.288 0-0.523 0.23-0.546 0.537l-0.82 10.18 0.82 9.849c0.022 0.305 0.258 0.535 0.546 0.535 0.285 0 0.52-0.23 0.545-0.535l0.932-9.849-0.932-10.182c-0.025-0.305-0.26-0.535-0.545-0.535zm15.031 21.343c0.465 0 0.843-0.375 0.862-0.855l0.714-9.762-0.713-20.455c-0.019-0.48-0.397-0.855-0.862-0.855-0.469 0-0.848 0.376-0.863 0.856 0 0.001-0.633 20.453-0.633 20.453l0.633 9.766c0.015 0.476 0.394 0.852 0.862 0.852zm15.51 0.046c0.64 0 1.168-0.527 1.18-1.175v0.007-0.007l0.498-9.482-0.498-23.624c-0.011-0.647-0.54-1.175-1.18-1.175-0.641 0-1.17 0.527-1.18 1.176l-0.445 23.615c0 0.015 0.445 9.496 0.445 9.496 0.01 0.642 0.54 1.169 1.18 1.169zm-7.814-0.037c0.557 0 1.006-0.447 1.021-1.017v0.007l0.606-9.614-0.607-20.603c-0.015-0.57-0.464-1.016-1.021-1.016-0.561 0-1.01 0.446-1.022 1.016l-0.539 20.604 0.54 9.612c0.012 0.564 0.461 1.011 1.022 1.011zm-19.014-0.09c0.331 0 0.599-0.265 0.624-0.614l0.878-9.931-0.878-9.447c-0.024-0.349-0.292-0.612-0.624-0.612-0.336 0-0.604 0.265-0.625 0.616l-0.773 9.443 0.773 9.93c0.022 0.35 0.289 0.615 0.625 0.615zm-7.396-0.544c0.242 0 0.438-0.191 0.466-0.455l0.986-9.548-0.985-9.908c-0.029-0.265-0.225-0.456-0.467-0.456-0.245 0-0.441 0.192-0.466 0.456 0 0.001-0.868 9.908-0.868 9.908l0.868 9.546c0.024 0.265 0.22 0.457 0.466 0.457zm30.302-30.936c-0.605 0-1.09 0.481-1.102 1.097l-0.492 19.851 0.492 9.552c0.012 0.608 0.496 1.089 1.102 1.089 0.604 0 1.086-0.48 1.1-1.096v0.008l0.552-9.552-0.552-19.854c-0.014-0.614-0.496-1.095-1.1-1.095zm-15.39 31.581c0.418 0 0.763-0.341 0.783-0.776l0.768-9.863-0.768-18.878c-0.021-0.436-0.365-0.776-0.783-0.776-0.422 0-0.766 0.341-0.784 0.776 0 0.001-0.68 18.878-0.68 18.878l0.681 9.867c0.017 0.431 0.361 0.772 0.783 0.772zm8.576-0.931v-0.005l0.66-9.7-0.66-21.144c-0.016-0.525-0.43-0.937-0.941-0.937-0.514 0-0.928 0.411-0.942 0.937l-0.586 21.143 0.587 9.705c0.014 0.52 0.428 0.931 0.941 0.931 0.512 0 0.924-0.411 0.941-0.934zm49.918-21.893c-1.567 0-3.062 0.317-4.424 0.888-0.91-10.308-9.554-18.394-20.098-18.394-2.58 0-5.095 0.508-7.316 1.367-0.863 0.334-1.093 0.678-1.101 1.345v36.3c0.009 0.7 0.552 1.283 1.235 1.352 0.029 0.003 31.499 0.019 31.703 0.019 6.316 0 11.437-5.121 11.437-11.438s-5.12-11.439-11.436-11.439zm-35.277-14.826c-0.687 0-1.251 0.564-1.261 1.257l-0.516 25.765 0.517 9.351c0.009 0.683 0.573 1.246 1.26 1.246 0.685 0 1.249-0.563 1.259-1.256v0.011l0.561-9.352-0.561-25.767c-0.01-0.691-0.574-1.255-1.259-1.255z" fill="url(#a)"/>
</svg>
