<?xml version="1.0" encoding="UTF-8" standalone="no"?>
<svg viewBox="0 0 240 237.03" xml:space="preserve" xmlns="http://www.w3.org/2000/svg" xmlns:rdf="http://www.w3.org/1999/02/22-rdf-syntax-ns#" version="1.1" xmlns:cc="http://creativecommons.org/ns#" xmlns:dc="http://purl.org/dc/elements/1.1/"><metadata><rdf:RDF><cc:Work rdf:about=""><dc:format>image/svg+xml</dc:format><dc:type rdf:resource="http://purl.org/dc/dcmitype/StillImage"/><dc:title/></cc:Work></rdf:RDF></metadata><defs><clipPath id="a" clipPathUnits="userSpaceOnUse"><path d="m0 792h612v-792h-612v792z"/></clipPath></defs><g transform="matrix(1.25 0 0 -1.25 -262.75 613.47)"><g transform="matrix(.61608 0 0 .61608 117.56 152.02)"><g clip-path="url(#a)"><path fill="#f47e40" d="m298.49 266.5c73.557 0 133.15 59.625 133.15 133.15 0 73.547-59.596 133.16-133.15 133.16-73.547 0-133.18-59.612-133.18-133.16 0-73.527 59.63-133.15 133.18-133.15"/><path fill="#fff215" d="m215.57 399.65c0 45.802 37.111 82.899 82.917 82.899 45.778 0 82.885-37.097 82.885-82.899 0-45.787-37.107-82.908-82.885-82.908-45.806 0-82.917 37.121-82.917 82.908"/><path fill="#fff215" d="m298.49 254.15c80.354 0 145.51 65.138 145.51 145.5 0 80.363-65.156 145.49-145.51 145.49-80.358 0-145.51-65.128-145.51-145.49s65.156-145.5 145.51-145.5m-117.38 145.5c0 64.828 52.547 117.37 117.38 117.37 64.823 0 117.36-52.538 117.36-117.37 0-64.823-52.542-117.38-117.36-117.38-64.838 0-117.38 52.561-117.38 117.38"/></g></g></g></svg>
