<?xml version="1.0" encoding="UTF-8" standalone="no"?>
<svg xmlns:rdf="http://www.w3.org/1999/02/22-rdf-syntax-ns#" xml:space="preserve" xmlns:cc="http://creativecommons.org/ns#" xmlns="http://www.w3.org/2000/svg" viewBox="0 0 240 237.03" version="1.1" xmlns:dc="http://purl.org/dc/elements/1.1/"><metadata><rdf:RDF><cc:Work rdf:about=""><dc:format>image/svg+xml</dc:format><dc:type rdf:resource="http://purl.org/dc/dcmitype/StillImage"/><dc:title/></cc:Work></rdf:RDF></metadata><defs><clipPath id="a" clipPathUnits="userSpaceOnUse"><path d="m0 792h612v-792h-612v792z"/></clipPath></defs><g transform="matrix(1.25 0 0 -1.25 -262.75 613.47)"><g transform="matrix(.61608 0 0 .61608 117.56 152.02)"><g clip-path="url(#a)"><path fill="#f47e40" d="m298.49 266.5c73.557 0 133.15 59.625 133.15 133.15 0 73.547-59.596 133.16-133.15 133.16-73.547 0-133.18-59.612-133.18-133.16 0-73.527 59.63-133.15 133.18-133.15"/><path fill="#fff215" d="m215.57 399.65c0 45.802 37.111 82.899 82.917 82.899 45.778 0 82.885-37.097 82.885-82.899 0-45.787-37.107-82.908-82.885-82.908-45.806 0-82.917 37.121-82.917 82.908"/><path fill="#fff215" d="m298.49 254.15c80.354 0 145.51 65.138 145.51 145.5 0 80.363-65.156 145.49-145.51 145.49-80.358 0-145.51-65.128-145.51-145.49s65.156-145.5 145.51-145.5m-117.38 145.5c0 64.828 52.547 117.37 117.38 117.37 64.823 0 117.36-52.538 117.36-117.37 0-64.823-52.542-117.38-117.36-117.38-64.838 0-117.38 52.561-117.38 117.38"/><path fill="#fff" d="m176.1 421.29s12.337 42.609 15.145 44.958c2.728 2.269 5.794 2.728 10.865 3.464l123.11 19.763c-0.19629-6.3789-17.523-43.13-14.948-45.508 0.19244-0.0863-20.164-2.8703-20.164-2.8703 7.9109-4.5488 7.135-17.97 2.9334-24.864-0.97862-1.6058 20.888 3.241 22.822 4.0104 2.1193 0.84346 13.732 39.845 14.742 39.264l38.396 5.958-12.863-40.87c0.019-0.08 6.642 3.333 12.295 4.739 10.252 3.281 21.937 4.387 30.586 3.75 6.404-0.385 12.009-3.525 14.765-8.457 2.94-4.879 1.145-13.734-0.496-20.667-3.646-14.99-8.869-33.722-14.775-44.155-7.847-13.922-21.057-14.772-33.506-17.157-8.752-1.013-17.916-2.109-24.357 0.689l-2.549 1.055c-3.02 2.094-3.784 2.479-5.991 5.484l-3.839-12.656-33.099-5.724c-7.945-1.547-19.022-3.402-25.191 1.617-2.146 1.533-3.59 3.09-5.32 5.598l-4.111-12.572-31.912-5.457-5.747-18.885-45.792-7.567 41.606 134.33z"/><path fill="#0068ac" d="m368.53 394.52 11.151 1.822c0.736 3.596 5.189 11.105-1.688 10.374-8.123-0.68-8.127-8.939-9.463-12.196m6.328-18.835 25.237 4.344-5.578-14.568c-3.112-6.44-8.681-13.57-21.047-15.244-2.306-0.548-16.444-2.446-19.439-2.807-6.594-0.272-18.577-0.16-16.495 15.375 3.956 20.728 10.135 34.926 13.744 43.889 4.805 11.658 10.387 14.175 18.121 16.809 11.926 3.126 16.135 3.113 23.916 3.773 13.566 0.61 16.912-4.959 15.262-16.064l-6.58-24.94-36.37-6.1c-1.36-4.393-3.422-9.802-2.855-11.592 0.394-2.973 6.483-2.049 9.282 0.313 1.617 2.165 2.675 6.188 2.798 6.821"/><path fill="#0068ac" d="m294.7 358.75c-0.296-2.531 0.511-2.484 1.589-3.281 0.933-0.273 6.891 0.515 8.48 1.424l12.112 38.489-6.201-0.866c-3.891-0.422-4.594-1.979-5.841-4.313m18.102 24.525 12.057 38.981 24.858 4.031-36.323-115.47-35.47-5.709c-8.926-1.547-18.957 0-18.784 12.107 0.891 11.312 10.561 41.232 15.788 50.593 3.436 7.762 12.849 11.479 18.206 12.234l19.668 3.235z"/><path fill="#0068ac" d="m306.41 453.88c-2.278-6.023-4.022-4.917-11.972-6.407l-35.166-5.87-41.221-134.21-31.904-5.245 41.635 134.33-42.235-7.232 7.632 25.078c2.714 8.901 2.522 8.118 14.939 10.106l107.76 17.147-9.469-27.699z"/><path fill="#0068ac" d="m264.19 415.26c4.5775-4.6875 12.719-4.3831 18.173 0.72538 5.4762 5.0918 6.2227 13.031 1.6491 17.734-4.5728 4.7142-12.715 4.3864-18.183-0.70958-5.4762-5.0926-6.197-13.047-1.639-17.749"/><path fill="#0068ac" d="m280.17 407.74-24.192-76.65-23.934-3.881 24.141 76.566 23.985 3.965z"/></g></g></g></svg>
