<?xml version="1.0" encoding="UTF-8" standalone="no"?>
<svg viewBox="0 0 350 276" xmlns:dc="http://purl.org/dc/elements/1.1/" xmlns:rdf="http://www.w3.org/1999/02/22-rdf-syntax-ns#" xmlns="http://www.w3.org/2000/svg" xml:space="preserve" xmlns:xlink="http://www.w3.org/1999/xlink" xmlns:cc="http://creativecommons.org/ns#" version="1.1"><metadata><rdf:RDF><cc:Work rdf:about=""><dc:format>image/svg+xml</dc:format><dc:type rdf:resource="http://purl.org/dc/dcmitype/StillImage"/><dc:title/></cc:Work></rdf:RDF></metadata>
<g transform="matrix(2.1945 0 0 2.1884 -517.05 -803.13)">
	<g transform="translate(5.0975 78.807)">
		<path d="m294.73 405.48c0.857 3.354 0.042 6.543 7.194 6.302 1.908-0.065 4.537-1.78 4.936-2.067 0.162-0.162 2.828-2.734 2.995-2.9 2.722-2.757 5.742-5.717 7.52-7.066 1.055-0.802 2.085-0.896 4.806 0.02 0.172 0.056 1.821 0.666 2.938 1.041 0.091 0.031 2.716 1.795 5.086 1.492 1.212-0.15 2.354-0.843 3.291-1.452 0.893-0.577 3.739-0.275 4.126-0.148 1.578 0.521 2.654-0.36 2.654-2.89 0-1.733-0.542-7.478-0.399-10.809 0.044-1.05-3.189 0.456-2.119 0.141 5.12-1.513 18.354-7.591 26.018-18.053 5.147-7.013 9.013-16.554 6.742-28.255-2.506-12.959-12.188-22.778-24.357-27.983 3.702-1.741 4.431-6.375 3.875-7.738-0.138-0.342-0.274-0.387-0.612-0.229-0.713 0.334-1.876 0.76-3.227 0.819-5.35 0.234-6.784-5.184-13.891-7.174-3.437-0.961-8.221-0.506-12.214 2.213 0.894-2.147 2.84-3.377 4.776-4.055 2.306-0.811 3.644-0.719 4.292-0.885 1.119-0.281 0.046-1.468-1.673-1.961-1.917-0.547-4.96-0.82-8.407 0.402-4.15 1.473-8.517 4.567-10.011 11.85-7.665-5.191-14.623-8.023-20.737-8.396-8.985-0.542-13.475 4.324-14.565 7.345-0.924 0.286-1.799 0.596-2.625 0.938-9.735 4.029-8.551 12.542-8.273 13.824-2.843 2.563-3.76 6.23-3.284 10.151-9.803 9.482-16.212 22.08-16.222 34.129-0.017 23.226 20.44 36.622 49.03 36.089 0 0 0.415 3.534-0.035 4.434 0.686 0.078 2.149-0.011 2.372 0.871"/>
		<path fill="#fff" d="m291.75 385.67c0.358-0.431 0.854-0.726 1.482-0.906 0.534-0.208 1.186-0.318 1.97-0.318 2.056 0 5.016 0.664 10.21 2.294 2.635 0.825 9.368 2.954 9.484 2.988 1.589 0.359 2.017 0.408 3.078-0.28 2.695-1.747 11.682-7.956 14.724-10.078 1.91-1.33 3.365-2.179 4.574-2.207 1.041-0.023 1.656 0.246 2.049 0.778 0.575 0.647 0.627 1.671 0.618 2.533-0.001 0.35-0.065 2.458-0.068 3.05 0-0.042 6.515-3.183 11.711-7.351 10.167-8.16 18.164-19.683 15.372-35.156-3.625-20.096-24.772-32.647-54.445-30.653-1.662 0.112-3.344 0.264-5.058 0.473-14.138 1.681-26.043 6.48-35.386 12.968 0.48 1.122 2.253 4.199 3.122 5.399 0.734 1.024 0.402 1.469-0.298 1.449-3.484-0.088-6.332-2.093-7.449-3.324-13.95 11.613-20.74 27.172-18.881 40.275 2.228 15.715 14.276 25.487 32.393 28.563 3.672 0.622 8.277 1.045 11.16 1.068-0.334-3.918-0.672-7.052-0.914-8.454-0.234-1.37-0.053-2.387 0.552-3.111"/>
		<path fill="#e51b23" d="m334.92 382.27c-3.31 2.164-10.287 6.665-13.756 8.512-3.448 1.832-2.813 2.041-8.087 0.762-2.234-0.541-12.512-2.813-13.845-2.993-2.339-0.313-3.033-0.133-2.913 0.884 0.103 0.892 0.271 2.282 0.438 3.95 0.149 1.469 0.406 4.771 0.547 7.864 0.053 1.216 0.077 2.496 0.089 3.476 0.014 1.649-0.089 3.17 0.567 3.916 0.225 0.252 0.528 0.418 0.891 0.49 1.642 0.33 4.189-2.056 5.979-3.609 2.757-2.394 6.481-5.682 8.622-7.444 2.931-2.408 4.402-3.213 5.479-3.417 0.077-0.015 0.828-0.214 3.203 0.359 1.345 0.327 3.047 0.801 4.811 1.289 4.344 1.203 7.537 2.207 8.831 1.883 1.513-0.377 1.058-2.385 0.88-4.048-0.132-1.23-0.307-3.04-0.376-4.935-0.107-3.031 0.057-6.275 0.057-6.554-0.009-1.08-0.557-0.948-1.417-0.385"/>
	</g>
	<g transform="translate(5.0975 78.807)">
		<defs>
			<path id="aa" d="m276.24 308.24 0.3 1.62s-0.062-4.627 4.865-6.216c2.141-0.685 4.981-0.435 8.056-0.05 1.155 0.147 5.082 1.117 8.158 2.542 2.653 1.227 4.728 2.427 5.299 2.762 0.424-0.093 2.621-0.435 4.394-0.646-6.663-5.336-14.404-7.875-20.496-7.876-6.3 0-10.831 2.716-10.576 7.864"/>
		</defs>
		<clipPath id="t">
			<use height="792" x="0" y="0" xlink:href="#aa" width="612"/>
		</clipPath>
			<radialGradient id="s" r="1.0028" gradientTransform="matrix(46.275 .3404 11.937 28.792 -9392.6 -22767)" cx="2.9453" cy="801.83" gradientUnits="userSpaceOnUse">
			<stop offset="0" stop-color="#d6812c"/>
			<stop offset=".35950" stop-color="#d6812c"/>
			<stop offset=".89890" stop-color="#744304"/>
			<stop offset="1" stop-color="#744304"/>
		</radialGradient>
		<polygon points="307.32 300.38 271.95 300.12 275.99 309.86 311.36 310.12" fill="url(#s)" clip-path="url(#t)"/>
	</g>
	<g transform="translate(5.0975 78.807)">
		<defs>
			<path id="o" d="m272.54 308.25c-10.978 5.378-7.576 14.457-3.739 18.222 1.349 1.322 3.011 2.349 4.861 2.932-1.13-1.223-2.243-2.648-3.146-4.149-3.792-6.333-1.393-11.765 2.145-13.365-3.106 2.752-3.26 7.097-2.041 9.43 5.905-4.061 15.071-8.117 21.509-9.88 0.392-0.105 0.726-0.19 0.996-0.242 0.046-0.01-2.782-1.188-4.14-1.629-2.395-0.786-5.688-1.235-5.53-1.253 1.165-0.107 4.063 0.124 6.621 0.585 1.834 0.333 3.537 0.862 4.077 1.094 0.517 0.218 1.304 0.502 1.343 0.491 0.477-0.126 0.918-0.24 1.313-0.341 3.335-0.766 4.017-0.856 4.017-0.856-4.765-2.569-10.09-3.989-15.448-3.989-4.354 0-8.726 0.937-12.838 2.95"/>
		</defs>
		<clipPath id="e">
			<use height="792" x="0" y="0" xlink:href="#o" width="612"/>
		</clipPath>
			<radialGradient id="d" r=".99830" gradientTransform="matrix(34.1 3.6543 -3.7322 32.281 3023.7 -25533)" cx="7.9067" cy="800.01" gradientUnits="userSpaceOnUse">
			<stop offset="0" stop-color="#d6812c"/>
			<stop offset=".35950" stop-color="#d6812c"/>
			<stop offset=".89890" stop-color="#744304"/>
			<stop offset="1" stop-color="#744304"/>
		</radialGradient>
		<polygon points="303.58 305.6 262.05 301.14 258.81 329.11 300.35 333.56" fill="url(#d)" clip-path="url(#e)"/>
	</g>
	<g transform="translate(5.0975 78.807)">
		<defs>
			<path id="c" d="m312.08 307.78h0.006c0.68-0.051 3.202-0.175 3.202-0.175 0.002-0.111 0.043-0.45 0.05-0.562 0.114-2.511 0.978-4.913 2.044-6.607 3.255-5.185 8.693-5.439 9.371-5.509 0.21-0.023 0.535-0.08 0.025-0.123-0.361-0.03-0.725-0.045-1.092-0.045-6.271 0-12.89 4.475-13.606 13.021"/>
		</defs>
		<clipPath id="b">
			<use height="792" x="0" y="0" xlink:href="#c" width="612"/>
		</clipPath>
			<radialGradient id="a" r="1" gradientTransform="matrix(32.806 2.4742 -2.6051 31.064 2132 -24571)" cx="7.9854" cy="800.58" gradientUnits="userSpaceOnUse">
			<stop offset="0" stop-color="#d6812c"/>
			<stop offset=".35950" stop-color="#d6812c"/>
			<stop offset=".89890" stop-color="#744304"/>
			<stop offset="1" stop-color="#744304"/>
		</radialGradient>
		<polygon points="328.37 294.84 312.17 293.62 310.99 307.7 327.19 308.92" fill="url(#a)" clip-path="url(#b)"/>
	</g>
	<g transform="translate(5.0975 78.807)">
		<defs>
			<path id="aj" d="m325.84 300.47c-2.613 0.367-5.437 1.463-7.325 3.834-1.207 1.51-1.643 3.106-1.679 3.259 0 0 2.522 0.034 2.553 0 4.473-5.159 12.597-4.099 14.736-2.502-6.942-1.515-10.489 1.071-12.102 2.563 1.278 0.099 3.137 0.192 5.035 0.397 2.465 0.264 5.163 0.696 8.412 1.411 0.536 0.119 1.715 0.38 2.789 0.68 2.626 0.789 5.685 1.801 5.685 1.801s0.575-0.144 1.273-0.577c1.17-0.719 2.764-2.135 3.181-4.389-0.126 0.036-1.004 0.807-3.366 0.628-2.962-0.218-4.152-1.22-5.368-2.384-1.745-1.67-6.031-4.862-11.69-4.871-0.692 0.001-1.404 0.049-2.134 0.15"/>
		</defs>
		<clipPath id="ai">
			<use height="792" x="0" y="0" xlink:href="#aj" width="612"/>
		</clipPath>
			<radialGradient id="ah" r="1.0007" gradientTransform="matrix(36.009 2.7157 -2.8593 34.097 2331.1 -26962)" cx="7.3188" cy="799.86" gradientUnits="userSpaceOnUse">
			<stop offset="0" stop-color="#d6812c"/>
			<stop offset=".35950" stop-color="#d6812c"/>
			<stop offset=".89890" stop-color="#744304"/>
			<stop offset="1" stop-color="#744304"/>
		</radialGradient>
		<polygon points="349.36 300.39 317.03 297.96 315.86 311.84 348.2 314.28" fill="url(#ah)" clip-path="url(#ai)"/>
	</g>
	<g transform="translate(5.0975 78.807)">
		<defs>
			<path id="ag" d="m261.7 328.01c0.012 0.141 2.229-1.839 3.851-3.185-0.605-0.61-1.258-1.769-1.549-2.564-1.77 1.453-2.402 3.66-2.302 5.749"/>
		</defs>
		<clipPath id="af">
			<use height="792" x="0" y="0" xlink:href="#ag" width="612"/>
		</clipPath>
			<radialGradient id="ae" r="1.0004" gradientTransform="matrix(7.152 .6971 -.6486 6.1561 543.97 -4827.9)" cx="35.503" cy="832.3" gradientUnits="userSpaceOnUse">
			<stop offset="0" stop-color="#d6812c"/>
			<stop offset=".35950" stop-color="#d6812c"/>
			<stop offset=".89890" stop-color="#744304"/>
			<stop offset="1" stop-color="#744304"/>
		</radialGradient>
		<polygon points="266.16 322.32 261.64 321.88 260.98 328.09 265.51 328.54" fill="url(#ae)" clip-path="url(#af)"/>
	</g>
	<g transform="translate(5.0975 78.807)">
		<path fill="#b76e23" d="m274.41 308.58c4.297-2.262 10.277-3.113 12.021-3.271-4.397-0.151-8.689 0.727-12.209 2.189-1.797 0.743-3.551 1.689-4.938 2.756-7.477 5.764-3.248 14.01 0.052 16.738-4.483-5.787-4.904-13.152 5.074-18.412"/>
		<path fill="#b76e23" d="m327.16 301.61c3.493-0.557 6.235 0.111 7.866 0.393-2.033-0.985-4.844-1.875-8.115-1.648-3.386 0.232-6.898 1.591-8.809 4.499-0.421 0.635-0.79 1.371-1.116 2.216-0.028 0.061-0.13 0.427-0.153 0.489 0.819 0.013 1.346 0 1.346 0 0.426-0.9 2.594-4.94 8.981-5.949"/>
		<path fill="#b76e23" d="m341.12 310.97c1.36 0.434 2.799 0.944 2.825 0.939 1.79-0.481 4.155-2.705 4.454-4.967 0 0-2.827 4.072-10.805 2.993-0.01-0.003 0.44 0.105 0.949 0.242 0.132 0.033 1.316 0.39 2.577 0.793"/>
		<path d="m298.42 326.21c0.445 3.271-1.042 6.005-3.325 6.092-2.293 0.092-4.624-2.584-5.059-5.896-0.439-3.308 1.183-5.967 3.471-6.022 2.286-0.051 4.473 2.555 4.913 5.826"/>
		<path d="m333.33 322.12c0.236 2.889-1.177 5.094-3.175 4.926-2.008-0.17-3.921-2.744-4.146-5.664-0.235-2.918 1.3-5.049 3.3-4.846 1.997 0.205 3.797 2.699 4.021 5.584"/>
		<path fill="#fff" d="m296.14 324.97c0.214 0.979-0.185 1.805-0.872 1.827-0.703 0.028-1.441-0.754-1.65-1.752-0.211-0.998 0.188-1.811 0.892-1.834 0.692-0.017 1.427 0.768 1.63 1.759"/>
		<path fill="#fff" d="m331.27 320.09c0.125 0.866-0.268 1.562-0.875 1.544-0.609-0.014-1.21-0.739-1.328-1.623-0.126-0.879 0.268-1.566 0.885-1.547 0.604 0.026 1.195 0.754 1.318 1.626"/>
	</g>
	<g transform="translate(5.0975 78.807)">
		<defs>
			<path id="ad" d="m312.51 310.36c-1.664 0.113-3.345 0.264-5.059 0.473-14.138 1.682-26.045 6.481-35.386 12.968 0.481 1.122 2.252 4.199 3.121 5.399 0.736 1.023 0.404 1.469-0.297 1.451-3.484-0.09-6.333-2.095-7.449-3.326-13.951 11.615-20.74 27.172-18.883 40.275 2.23 15.715 14.279 25.488 32.395 28.562 3.673 0.624 8.277 1.047 11.159 1.072-0.334-3.92-0.671-7.055-0.913-8.456-0.233-1.37-0.055-2.388 0.552-3.112 0.358-0.429 0.854-0.725 1.482-0.907 0.532-0.208 1.187-0.316 1.972-0.316 2.054 0 5.014 0.663 10.209 2.293 2.635 0.824 9.366 2.956 9.482 2.989 1.59 0.358 2.018 0.407 3.078-0.281 2.697-1.747 11.683-7.956 14.724-10.078 1.91-1.33 3.366-2.178 4.574-2.207 1.042-0.024 1.656 0.247 2.05 0.779 0.576 0.646 0.626 1.67 0.618 2.532-0.002 0.35-0.064 2.459-0.067 3.051 0-0.044 6.515-3.184 11.71-7.352 10.168-8.16 18.165-19.683 15.373-35.156-3.372-18.693-21.911-30.859-48.367-30.86-1.984 0-4.008 0.069-6.078 0.207"/>
		</defs>
		<clipPath id="ac">
			<use height="792" x="0" y="0" xlink:href="#ad" width="612"/>
		</clipPath>
		<g clip-path="url(#ac)">
			<defs>
				<rect id="ab" x="221.59" height="123.12" width="175.2" y="297.11"/>
			</defs>
			<clipPath>
				<use height="792" x="0" y="0" xlink:href="#ab" width="612"/>
			</clipPath>
		</g>
	</g>
	<g transform="translate(5.0975 78.807)">
		<defs>
			<path id="z" d="m303.23 335.94c-7.479 1.029-12.92 4.565-17.692 8.776-6.982 6.157-12.08 6.674-16.694 6.204-5.195-0.53-4.944-6.673-4.819-8.644-3.946 2.475-5.438 11.353-4.491 17.018 1.532 9.25 9.129 24.809 36.615 18.419 18.52-4.305 26.343-17.187 25.143-27.626-1.224-10.64-9.013-14.311-15.652-14.311-0.826 0-1.634 0.057-2.41 0.164"/>
		</defs>
		<clipPath id="y">
			<use height="792" x="0" y="0" xlink:href="#z" width="612"/>
		</clipPath>
			<radialGradient id="x" r="1" gradientTransform="matrix(37.261 3.1714 -8.6522 29.684 6907.1 -23447)" cx="8.4365" cy="800.73" gradientUnits="userSpaceOnUse">
			<stop offset="0" stop-color="#d6812c"/>
			<stop offset=".35950" stop-color="#d6812c"/>
			<stop offset=".89890" stop-color="#744304"/>
			<stop offset="1" stop-color="#744304"/>
		</radialGradient>
		<polygon points="336.24 336.95 260.13 330.47 244.84 382.93 320.94 389.41" fill="url(#x)" clip-path="url(#y)"/>
	</g>
	<g transform="translate(5.0975 78.807)">
		<defs>
			<path id="w" d="m339.48 333.3c-9.163-0.747-15.716 0.856-15.656 13.02 0.057 12.966 15.592 20.052 28.031 11.236 7.973-7.14 7.802-17.308 5.464-23.418-1.48-3.858-3.605-6.063-4.675-6.314 2.132 7.406-3.246 6.281-13.164 5.476"/>
		</defs>
		<clipPath id="v">
			<use height="792" x="0" y="0" xlink:href="#w" width="612"/>
		</clipPath>
			<radialGradient id="u" r=".99960" gradientTransform="matrix(20.468 3.4285 -3.0136 18.301 2493.4 -14431)" cx="13.285" cy="804.83" gradientUnits="userSpaceOnUse">
			<stop offset="0" stop-color="#d6812c"/>
			<stop offset=".35950" stop-color="#d6812c"/>
			<stop offset=".89890" stop-color="#744304"/>
			<stop offset="1" stop-color="#744304"/>
		</radialGradient>
		<polygon points="366.01 328.86 324.74 321.94 317.59 365.34 358.86 372.25" fill="url(#u)" clip-path="url(#v)"/>
	</g>
	<g transform="translate(5.0975 78.807)">
		<path d="m358.51 336.52c-1.281-4.893-3.646-9.032-7.117-9.6-0.581-0.096-0.403 0.066-0.244 0.23 0.039 0.045 0.074 0.092 0.125 0.139 1.316 1.231 1.707 3.519 0.61 4.616-1.089 1.095-4.792 0.84-8.429 0.546-1.143-0.096-2.327-0.238-3.487-0.371-6.595-0.746-11.382-0.43-14.625 3.401-2.774 3.279-3.126 7.043-3.082 10.374-1.842-6.602-8.058-12.869-20.175-11.357-7.647 0.955-12.617 5.5-17.112 8.997-4.96 3.86-8.789 6.366-13.553 6.408-10.185 0.097-5.856-9.864-5.856-9.864-7.103 4.193-7.675 14.507-7.553 17.035 0.749 15.599 11.281 21.957 21.441 23.553 14.399 2.256 33.856-2.656 41.281-17.426 0.289-0.539 0.563-1.086 0.814-1.65 1.544-3.435 2.065-6.678 2.24-8.223 4.733 9.168 12.691 11.082 20.754 9.497 3.03-0.597 7.978-3.132 10.758-6.671 0.762-0.965 1.406-2.014 1.945-3.125 2.42-4.59 2.875-10.39 1.265-16.509m-96.908 10.68c0.288-1.137 0.962-2.338 1.983-3.399-0.679 3.318 0.214 6.207 2.942 7.681 4.495 2.429 11.552 1.709 19.143-4.373 5.021-4.016 9.744-8.07 16.867-8.974 11.368-1.44 16.062 3.873 17.25 10.586-3.97-4.396-8.731-6.774-13.591-6.205-5.761 0.672-9.727 4.664-16.015 9.552-5.626 4.376-11.422 7.289-19.932 6.621-6.283-0.498-10.315-4.875-8.647-11.489m-1.198 7.078c-0.04-1.522-0.032-2.612-0.023-2.233 0.068 3.377 2.312 7.226 7.458 8.662 6.623 1.847 16.461 0.877 28.021-8.695 3.371-2.785 8.186-5.807 11.452-6.086 5.558-0.485 10.567 2.529 12.421 6.072-4.685-1.787-6.91-1.375-9.729-0.205-3.758 1.564-7.078 5.096-11.377 8.648-13.233 10.933-26.744 9.924-32.897 5.707-5.124-3.509-5.207-7.6-5.326-11.87m41.823 19.874c-13.854 5.07-24.778 3.761-31.229 0.375-5.885-3.087-7.615-7.605-7.615-7.605 3.902 4.162 18.931 9.941 37.904-4.283 2.583-1.936 7.564-6.56 9.369-7.492 3.601-1.856 5.641-1.738 9.146-1.385-0.668 5.814-6.931 16.505-17.575 20.39m27.643-38.627c4.648-2.439 10.072-0.398 17.313-0.546 8.586-0.178 6.362-5.673 6.223-6.137 1.266 1.681 2.564 5.66 0.264 8.568-0.852 1.067-2.137 1.822-3.757 2.252-4.667 1.238-12.654-1.475-17.291-0.245-5.196 1.378-7.345 6.608-7.688 7.56 0.451-5.405 0.677-9.219 4.936-11.452m-1.763 9.662c7.239-7.1 22.193 2.331 27.025-7.664 0.888-1.836 0.677-4.757 0.325-5.812 3.142 3.403 1.448 19.467-14.732 18.074-4.469-0.379-10.3-4.717-15.271-0.758 0.891-1.76 1.727-2.937 2.653-3.84m19.278 13.104c-7.783 2.605-17.631 1.516-21.305-7.662 2.813-1.591 5.324-0.033 9.16 1.094 11.855 3.491 19.134-1.745 21.124-7.865 0.984-3.008 1.387-5.917 1.132-7.233 0.868 4.493 0.654 18.066-10.111 21.666"/>
	</g>
	<g transform="translate(5.0975 78.807)">
		<defs>
			<path id="r" d="m303.9 401.78c-1.926 2.337-1.128 2.867 0.212 1.446 1.984-2.109 9.606-7.851 13.572-8.642 0.001 0.001-8.287 0.533-13.784 7.196"/>
		</defs>
		<clipPath id="q">
			<use height="792" x="0" y="0" xlink:href="#r" width="612"/>
		</clipPath>
			<linearGradient id="p" y2="811.79" y1="811.79" gradientTransform="matrix(16.051 -6.485 6.485 16.051 -5069.6 -12584)" x1="6.6948" x2="7.6948" gradientUnits="userSpaceOnUse">
			<stop offset="0" stop-color="#e51b23"/>
			<stop offset=".1218" stop-color="#d41920"/>
			<stop offset=".28310" stop-color="#c5161c"/>
			<stop offset=".46340" stop-color="#ba1319"/>
			<stop offset=".67570" stop-color="#b31217"/>
			<stop offset="1" stop-color="#b11116"/>
		</linearGradient>
		<polygon points="315.48 389.13 298.48 396 304.18 410.11 321.18 403.24" fill="url(#p)" clip-path="url(#q)"/>
	</g>
	<g transform="translate(5.0975 78.807)">
		<defs>
			<path id="n" d="m311.05 393.47c-1.829 0.156-2.423 1.202-0.271 0.848 3-0.492 6.568-0.005 6.568-0.005-1.829-0.7-3.736-0.888-5.14-0.888-0.441 0-0.832 0.018-1.157 0.045"/>
		</defs>
		<clipPath id="m">
			<use height="792" x="0" y="0" xlink:href="#n" width="612"/>
		</clipPath>
			<linearGradient id="l" y2="830.22" y1="830.22" gradientTransform="matrix(7.79 -1.0218 1.0218 7.79 -728.76 -6048)" x1="24.374" x2="25.374" gradientUnits="userSpaceOnUse">
			<stop offset="0" stop-color="#e51b23"/>
			<stop offset=".1218" stop-color="#d41920"/>
			<stop offset=".28310" stop-color="#c5161c"/>
			<stop offset=".46340" stop-color="#ba1319"/>
			<stop offset=".67570" stop-color="#b31217"/>
			<stop offset="1" stop-color="#b11116"/>
		</linearGradient>
		<polygon points="317.2 392.3 308.47 393.44 308.78 395.79 317.51 394.65" fill="url(#l)" clip-path="url(#m)"/>
	</g>
	<g transform="translate(5.0975 78.807)">
		<defs>
			<path id="k" d="m320.72 394.33s0.001 0 0.003-0.001c-0.001 0-0.002 0.001-0.003 0.001m0.003-0.001c0.078-0.014 2.235-0.393 9.005 1.734 2.882 0.91 6.025 1.948 5.964-1.069 0 0-1.409 0.926-5.866-0.26-2.204-0.586-4.024-0.775-5.515-0.775-1.525 0-2.704 0.198-3.588 0.37"/>
		</defs>
		<clipPath id="j">
			<use height="792" x="0" y="0" xlink:href="#k" width="612"/>
		</clipPath>
			<linearGradient id="i" y2="810.5" y1="810.5" gradientTransform="matrix(14.973 0 0 14.973 88.716 -11739)" x1="15.495" x2="16.495" gradientUnits="userSpaceOnUse">
			<stop offset="0" stop-color="#e51b23"/>
			<stop offset=".1218" stop-color="#d41920"/>
			<stop offset=".28310" stop-color="#c5161c"/>
			<stop offset=".46340" stop-color="#ba1319"/>
			<stop offset=".67570" stop-color="#b31217"/>
			<stop offset="1" stop-color="#b11116"/>
		</linearGradient>
		<rect fill="url(#i)" height="4.075" clip-path="url(#j)" x="320.72" y="393.94" width="15.033"/>
	</g>
	<g transform="translate(5.0975 78.807)">
		<defs>
			<path id="h" d="m296.92 390.51s0.603 2.113 1.002 9.241c0.28 4.983-0.519 7.813 1.045 8.506 1.407 0.623 2.903-1.217 4.338-2.214-2.474 0.654-3.596-1.746-4.037-7.42-0.424-5.485-2.348-8.113-2.348-8.113z"/>
		</defs>
		<clipPath id="g">
			<use height="792" x="0" y="0" xlink:href="#h" width="612"/>
		</clipPath>
			<linearGradient id="f" y2="834.7" y1="834.7" gradientTransform="matrix(6.3848 0 0 6.3848 69.204 -4929.7)" x1="35.665" x2="36.665" gradientUnits="userSpaceOnUse">
			<stop offset="0" stop-color="#e96246"/>
			<stop offset=".60510" stop-color="#e63b2c"/>
			<stop offset="1" stop-color="#e51b23"/>
		</linearGradient>
		<rect fill="url(#f)" height="18.37" clip-path="url(#g)" x="296.92" y="390.51" width="6.385"/>
	</g>
</g>
</svg>
