<?xml version="1.0" encoding="UTF-8" standalone="no"?>
<!-- Created with Inkscape (http://www.inkscape.org/) -->

<svg
   xmlns:dc="http://purl.org/dc/elements/1.1/"
   xmlns:cc="http://creativecommons.org/ns#"
   xmlns:rdf="http://www.w3.org/1999/02/22-rdf-syntax-ns#"
   xmlns:svg="http://www.w3.org/2000/svg"
   xmlns="http://www.w3.org/2000/svg"
   xmlns:sodipodi="http://sodipodi.sourceforge.net/DTD/sodipodi-0.dtd"
   xmlns:inkscape="http://www.inkscape.org/namespaces/inkscape"
   width="800"
   height="600"
   id="svg2"
   version="1.1"
   inkscape:version="0.48.5 r10040"
   sodipodi:docname="crazy4.svg">
  <defs
     id="defs4" />
  <sodipodi:namedview
     id="base"
     pagecolor="#ffffff"
     bordercolor="#666666"
     borderopacity="1.0"
     inkscape:pageopacity="0.0"
     inkscape:pageshadow="2"
     inkscape:zoom="0.98994949"
     inkscape:cx="473.57193"
     inkscape:cy="303.91029"
     inkscape:document-units="px"
     inkscape:current-layer="layer1"
     showgrid="false"
     inkscape:window-width="1463"
     inkscape:window-height="944"
     inkscape:window-x="135"
     inkscape:window-y="24"
     inkscape:window-maximized="0" />
  <metadata
     id="metadata7">
    <rdf:RDF>
      <cc:Work
         rdf:about="">
        <dc:format>image/svg+xml</dc:format>
        <dc:type
           rdf:resource="http://purl.org/dc/dcmitype/StillImage" />
        <dc:title></dc:title>
      </cc:Work>
    </rdf:RDF>
  </metadata>
  <g
     inkscape:label="Layer 1"
     inkscape:groupmode="layer"
     id="layer1"
     transform="translate(0,-452.36218)">
    <path
       style="fill:none;stroke:#000000;stroke-width:3;stroke-linecap:butt;stroke-linejoin:miter;stroke-miterlimit:4;stroke-opacity:1;stroke-dasharray:none"
       d="m 156.25525,577.09095 c -5,-11.42857 -15,-7.14286 -30.71428,-2.14286 -15.71429,5 -62.142856,31.42857 -58.571428,62.14286 3.571429,30.71428 24.285715,95.71428 65.714288,109.28571 41.42857,13.57143 125,-0.71428 130.71428,-12.14286"
       id="path3242"
       inkscape:connector-curvature="0" />
    <path
       style="fill:none;stroke:#000000;stroke-width:3;stroke-linecap:butt;stroke-linejoin:miter;stroke-miterlimit:4;stroke-opacity:1;stroke-dasharray:none"
       d="m 286.25526,557.80523 c -10,42.14286 17.85714,148.57143 17.85714,148.57143 0,0 -28.36234,-99.60888 2.85714,-147.85714 7.85715,-12.14286 16.42857,-17.85714 16.42857,-17.85714 0,0 47.14286,16.42857 45,25.71428"
       id="path3244"
       inkscape:connector-curvature="0"
       sodipodi:nodetypes="ccscc" />
    <path
       style="fill:none;stroke:#000000;stroke-width:3;stroke-linecap:butt;stroke-linejoin:miter;stroke-miterlimit:4;stroke-opacity:1;stroke-dasharray:none"
       d="m 439.1124,549.94809 c -0.71429,35.71429 15,54.28571 15.71428,84.28571 0.71429,30 0.71429,25 0.71429,25 0,0 6.18932,-88.06122 -24.28571,-105 -5.69867,-3.16746 -13.66608,20.01647 -12.26773,45.59238 1.42548,26.07185 12.54593,54.07111 25.12487,55.8362 11.36294,1.59446 20,-15 20,-15"
       id="path3246"
       inkscape:connector-curvature="0"
       sodipodi:nodetypes="cscsssc" />
    <path
       style="fill:none;stroke:#000000;stroke-width:3;stroke-linecap:butt;stroke-linejoin:miter;stroke-miterlimit:4;stroke-opacity:1;stroke-dasharray:none"
       d="m 474.26662,557.38743 c 21.97082,-1.76776 73.74114,2.27285 73.74114,2.27285 0,0 16.66751,-0.25254 16.16244,3.28299 -0.50508,3.53554 -62.882,25.00128 -68.43784,35.1028 -5.55584,10.10153 -6.56599,10.85914 -1.26269,12.62691 5.3033,1.76777 19.95051,-6.81853 37.37564,-1.51523 17.42514,5.3033 64.39723,17.17259 76.26652,23.73859 11.86929,6.56599 22.4759,11.61675 22.4759,11.61675"
       id="path3248"
       inkscape:connector-curvature="0" />
    <path
       style="fill:none;stroke:#000000;stroke-width:3;stroke-linecap:butt;stroke-linejoin:miter;stroke-miterlimit:4;stroke-opacity:1;stroke-dasharray:none"
       d="m 625.28443,550.82144 c 22.22335,32.57742 46.97209,87.3782 59.599,97.9848 12.6269,10.6066 27.27411,25.25381 33.08249,16.92005"
       id="path3250"
       inkscape:connector-curvature="0" />
    <path
       style="fill:none;stroke:#000000;stroke-width:3;stroke-linecap:butt;stroke-linejoin:miter;stroke-miterlimit:4;stroke-opacity:1;stroke-dasharray:none"
       d="m 737.41136,576.07525 c -1.51523,26.51651 -31.06219,57.32616 -38.89087,78.53937 -7.82869,21.2132 -21.97082,79.80205 -28.78935,96.97464 -6.81853,17.17259 -11.36422,27.52666 -11.36422,27.52666"
       id="path3252"
       inkscape:connector-curvature="0" />
    <path
       style="fill:none;stroke:#000000;stroke-width:3;stroke-linecap:butt;stroke-linejoin:miter;stroke-miterlimit:4;stroke-opacity:1;stroke-dasharray:none"
       d="m 157.5838,755.88241 c -7.07107,33.84011 2.0203,58.58885 1.01015,78.28682 -1.01015,19.69798 -2.52538,32.82996 -2.52538,32.82996"
       id="path3254"
       inkscape:connector-curvature="0" />
    <path
       style="fill:none;stroke:#000000;stroke-width:3;stroke-linecap:butt;stroke-linejoin:miter;stroke-miterlimit:4;stroke-opacity:1;stroke-dasharray:none"
       d="m 162.63456,898.31392 c 0.50507,2.02031 -2.02031,12.62691 -2.02031,12.62691"
       id="path3256"
       inkscape:connector-curvature="0" />
    <path
       style="fill:none;stroke:#000000;stroke-width:3;stroke-linecap:butt;stroke-linejoin:miter;stroke-miterlimit:4;stroke-opacity:1;stroke-dasharray:none"
       d="m 250.51783,778.61084 c 9.59645,24.24366 -0.50508,47.98225 -0.50508,47.98225"
       id="path3258"
       inkscape:connector-curvature="0" />
    <path
       style="fill:none;stroke:#000000;stroke-width:3;stroke-linecap:butt;stroke-linejoin:miter;stroke-miterlimit:4;stroke-opacity:1;stroke-dasharray:none"
       d="m 249.0026,871.54488 c 0,4.54569 -1.51523,16.16244 -1.51523,16.16244"
       id="path3260"
       inkscape:connector-curvature="0" />
    <path
       style="fill:none;stroke:#000000;stroke-width:3;stroke-linecap:butt;stroke-linejoin:miter;stroke-miterlimit:4;stroke-opacity:1;stroke-dasharray:none"
       d="m 319.71328,761.94332 c 4.04061,39.90103 6.56599,78.28683 6.56599,78.28683"
       id="path3262"
       inkscape:connector-curvature="0" />
    <path
       style="fill:none;stroke:#000000;stroke-width:3;stroke-linecap:butt;stroke-linejoin:miter;stroke-miterlimit:4;stroke-opacity:1;stroke-dasharray:none"
       d="m 333.35034,876.59564 c 2.0203,2.52538 1.51523,19.69798 1.51523,19.69798"
       id="path3264"
       inkscape:connector-curvature="0" />
    <path
       style="fill:none;stroke:#000000;stroke-width:3;stroke-linecap:butt;stroke-linejoin:miter;stroke-miterlimit:4;stroke-opacity:1;stroke-dasharray:none"
       d="m 385.87827,683.15142 c 6.56599,30.30458 -1.01015,42.93149 -0.50507,63.63962 0.50507,20.70812 8.08122,74.24621 8.08122,74.24621"
       id="path3266"
       inkscape:connector-curvature="0" />
    <path
       style="fill:none;stroke:#000000;stroke-width:3;stroke-linecap:butt;stroke-linejoin:miter;stroke-miterlimit:4;stroke-opacity:1;stroke-dasharray:none"
       d="m 394.46457,877.10072 c -0.50508,3.53553 -1.51523,21.71828 -1.51523,21.71828"
       id="path3268"
       inkscape:connector-curvature="0" />
    <path
       style="fill:none;stroke:#000000;stroke-width:3;stroke-linecap:butt;stroke-linejoin:miter;stroke-miterlimit:4;stroke-opacity:1;stroke-dasharray:none"
       d="m 447.49758,716.48646 c -2.52538,38.89087 5.55584,79.29697 5.55584,79.29697"
       id="path3270"
       inkscape:connector-curvature="0" />
    <path
       style="fill:none;stroke:#000000;stroke-width:3;stroke-linecap:butt;stroke-linejoin:miter;stroke-miterlimit:4;stroke-opacity:1;stroke-dasharray:none"
       d="m 454.56864,866.99919 c -0.50507,9.09138 2.02031,14.64721 2.02031,14.64721"
       id="path3272"
       inkscape:connector-curvature="0" />
    <path
       style="fill:none;stroke:#000000;stroke-width:3;stroke-linecap:butt;stroke-linejoin:miter;stroke-miterlimit:4;stroke-opacity:1;stroke-dasharray:none"
       d="m 539.92653,733.15398 c -3.53553,40.91117 -16.16244,40.4061 -14.64721,66.16499 1.51523,25.75889 0,54.04316 0,54.04316"
       id="path3274"
       inkscape:connector-curvature="0" />
    <path
       style="fill:none;stroke:#000000;stroke-width:3;stroke-linecap:butt;stroke-linejoin:miter;stroke-miterlimit:4;stroke-opacity:1;stroke-dasharray:none"
       d="m 522.24886,865.98904 c 0,3.53553 -0.50507,13.63706 -0.50507,13.63706"
       id="path3276"
       inkscape:connector-curvature="0" />
    <path
       style="fill:none;stroke:#000000;stroke-width:3;stroke-linecap:butt;stroke-linejoin:miter;stroke-miterlimit:4;stroke-opacity:1;stroke-dasharray:none"
       d="m 605.58645,742.75043 c -14.64721,41.92133 -4.04061,61.11422 -4.04061,78.79189 0,17.67767 3.03046,31.81981 3.03046,31.81981"
       id="path3278"
       inkscape:connector-curvature="0" />
    <path
       style="fill:none;stroke:#000000;stroke-width:3;stroke-linecap:butt;stroke-linejoin:miter;stroke-miterlimit:4;stroke-opacity:1;stroke-dasharray:none"
       d="m 596.49508,886.69717 c 0,4.04061 0,17.17259 0,17.17259"
       id="path3280"
       inkscape:connector-curvature="0" />
    <path
       style="fill:none;stroke:#000000;stroke-width:3;stroke-linecap:butt;stroke-linejoin:miter;stroke-miterlimit:4;stroke-opacity:1;stroke-dasharray:none"
       d="m 691.95449,755.88241 c -11.61675,41.92133 -18.18274,90.91373 -18.18274,90.91373"
       id="path3282"
       inkscape:connector-curvature="0" />
    <path
       style="fill:none;stroke:#000000;stroke-width:3;stroke-linecap:butt;stroke-linejoin:miter;stroke-miterlimit:4;stroke-opacity:1;stroke-dasharray:none"
       d="m 671.24636,866.49412 c -6.56599,13.13198 -6.56599,23.73858 -4.04061,24.24366"
       id="path3284"
       inkscape:connector-curvature="0" />
  </g>
</svg>
