<?xml version="1.0" encoding="UTF-8" standalone="no"?>
<!-- Created with Inkscape (http://www.inkscape.org/) -->

<svg
   xmlns:dc="http://purl.org/dc/elements/1.1/"
   xmlns:cc="http://creativecommons.org/ns#"
   xmlns:rdf="http://www.w3.org/1999/02/22-rdf-syntax-ns#"
   xmlns:svg="http://www.w3.org/2000/svg"
   xmlns="http://www.w3.org/2000/svg"
   xmlns:sodipodi="http://sodipodi.sourceforge.net/DTD/sodipodi-0.dtd"
   xmlns:inkscape="http://www.inkscape.org/namespaces/inkscape"
   width="800"
   height="600"
   id="svg2"
   version="1.1"
   inkscape:version="0.48.5 r10040"
   sodipodi:docname="ground.svg">
  <defs
     id="defs4" />
  <sodipodi:namedview
     id="base"
     pagecolor="#ffffff"
     bordercolor="#666666"
     borderopacity="1.0"
     inkscape:pageopacity="0.0"
     inkscape:pageshadow="2"
     inkscape:zoom="0.49497475"
     inkscape:cx="294.77315"
     inkscape:cy="350.22478"
     inkscape:document-units="px"
     inkscape:current-layer="layer1"
     showgrid="false"
     inkscape:window-width="1463"
     inkscape:window-height="944"
     inkscape:window-x="135"
     inkscape:window-y="24"
     inkscape:window-maximized="0" />
  <metadata
     id="metadata7">
    <rdf:RDF>
      <cc:Work
         rdf:about="">
        <dc:format>image/svg+xml</dc:format>
        <dc:type
           rdf:resource="http://purl.org/dc/dcmitype/StillImage" />
        <dc:title></dc:title>
      </cc:Work>
    </rdf:RDF>
  </metadata>
  <g
     inkscape:label="Layer 1"
     inkscape:groupmode="layer"
     id="layer1"
     transform="translate(0,-452.36218)">
    <path
       style="fill:none;stroke:#000000;stroke-width:3;stroke-linecap:round;stroke-linejoin:round;stroke-opacity:1;stroke-miterlimit:4;stroke-dasharray:none"
       d="M 2.0203051,179.77654 C 71.720831,172.70547 69.700526,176.74608 82.832509,174.72578 95.964492,172.70547 187.88837,163.6141 209.10158,163.6141 c 21.2132,0 25.25381,1.01015 41.41625,0 16.16244,-1.01015 51.51778,-7.07107 76.7716,-6.06092 25.25381,1.01016 57.57869,3.03046 75.76144,5.05077 18.18274,2.0203 141.42135,17.17259 185.86807,26.26396 44.44671,9.09138 87.88327,11.11168 117.17769,19.1929 29.29443,8.08122 91.92388,29.29443 91.92388,29.29443"
       id="path2994"
       inkscape:connector-curvature="0"
       transform="translate(0,452.36218)" />
    <path
       style="fill:none;stroke:#000000;stroke-width:3;stroke-linecap:round;stroke-linejoin:round;stroke-opacity:1;stroke-miterlimit:4;stroke-dasharray:none"
       d="m 5.0507627,248.46691 c 43.4365593,3.03046 33.3350343,13.13199 58.5888483,13.13199 25.253813,0 59.598999,-9.09138 102.025409,-15.15229 42.4264,-6.06092 132.32998,-3.03046 187.88837,1.01015 55.55839,4.04061 174.75639,13.13198 223.24372,21.2132 48.48732,8.08122 220.21325,41.41626 220.21325,41.41626"
       id="path2996"
       inkscape:connector-curvature="0"
       transform="translate(0,452.36218)" />
    <path
       style="fill:none;stroke:#000000;stroke-width:3;stroke-linecap:round;stroke-linejoin:round;stroke-opacity:1;stroke-miterlimit:4;stroke-dasharray:none"
       d="m 6.0609153,310.08622 c 54.5482377,15.15229 69.7005257,14.14213 130.3096747,8.08122 60.60916,-6.06092 182.83762,-7.07107 237.38585,-5.05076 54.54824,2.0203 214.15234,15.15228 254.55845,26.26396 40.4061,11.11168 165.66501,41.41626 165.66501,41.41626"
       id="path2998"
       inkscape:connector-curvature="0"
       transform="translate(0,452.36218)" />
    <path
       style="fill:none;stroke:#000000;stroke-width:3;stroke-linecap:round;stroke-linejoin:round;stroke-opacity:1;stroke-miterlimit:4;stroke-dasharray:none"
       d="m 7.0710678,400.99995 c 51.5177802,9.09137 87.8832722,0 143.4416622,-8.08122 55.55839,-8.08122 193.94929,-10.10153 239.40615,-10.10153 45.45687,0 196.97975,3.03046 258.59906,15.15229 61.6193,12.12183 148.49242,34.34519 148.49242,34.34519"
       id="path3000"
       inkscape:connector-curvature="0"
       transform="translate(0,452.36218)" />
    <path
       style="fill:none;stroke:#000000;stroke-width:3;stroke-linecap:round;stroke-linejoin:round;stroke-opacity:1;stroke-miterlimit:4;stroke-dasharray:none"
       d="M 797.01036,482.8223 C 708.11694,455.54819 649.52809,442.4162 603.06107,441.40605 556.59405,440.3959 479.82246,424.23346 391.93919,426.25376 c -87.88327,2.02031 -182.83761,15.15229 -221.22341,20.20305 -38.3858,5.05077 -137.380746,17.1726 -162.6345596,13.13199"
       id="path3002"
       inkscape:connector-curvature="0"
       transform="translate(0,452.36218)" />
    <path
       style="fill:none;stroke:#000000;stroke-width:3;stroke-linecap:round;stroke-linejoin:round;stroke-opacity:1;stroke-miterlimit:4;stroke-dasharray:none"
       d="M 130.30968,4.0099965 C 116.16754,80.78159 111.11678,171.69532 113.13709,227.25371 c 2.0203,55.55839 8.08122,182.83761 6.06091,216.17265 -2.0203,33.33503 9.09137,71.72083 9.09137,71.72083"
       id="path3004"
       inkscape:connector-curvature="0"
       transform="translate(0,452.36218)" />
    <path
       style="fill:none;stroke:#000000;stroke-width:3;stroke-linecap:round;stroke-linejoin:round;stroke-opacity:1;stroke-miterlimit:4;stroke-dasharray:none"
       d="m 251.52798,4.0099965 c 13.13199,70.7106785 -2.0203,62.6294585 1.01016,106.0660135 3.03045,43.43656 -3.03046,191.92899 -4.04061,235.36555 -1.01016,43.43656 14.14213,175.76654 14.14213,175.76654"
       id="path3006"
       inkscape:connector-curvature="0"
       transform="translate(0,452.36218)" />
    <path
       style="fill:none;stroke:#000000;stroke-width:3;stroke-linecap:round;stroke-linejoin:round;stroke-opacity:1;stroke-miterlimit:4;stroke-dasharray:none"
       d="M 390.92904,5.0201491 C 375.77675,80.78159 373.75644,118.15723 370.72599,161.59379 c -3.03046,43.43656 2.0203,190.91884 6.06091,231.32494 4.04061,40.4061 -13.13198,72.73098 -6.06091,135.36044"
       id="path3008"
       inkscape:connector-curvature="0"
       transform="translate(0,452.36218)" />
    <path
       style="fill:none;stroke:#000000;stroke-width:3;stroke-linecap:round;stroke-linejoin:round;stroke-opacity:1;stroke-miterlimit:4;stroke-dasharray:none"
       d="M 489.92399,1.9896914 C 465.68032,76.74098 478.81231,78.761285 478.81231,122.19784 c 0,43.43656 -9.09138,137.38075 0,190.91884 9.09137,53.53808 5.05076,177.78684 8.08122,202.03051"
       id="path3010"
       inkscape:connector-curvature="0"
       transform="translate(0,452.36218)" />
    <path
       style="fill:none;stroke:#000000;stroke-width:3;stroke-linecap:round;stroke-linejoin:round;stroke-opacity:1;stroke-miterlimit:4;stroke-dasharray:none"
       d="M 677.81236,-0.03061368 C 645.48748,107.04556 633.36565,191.89837 630.33519,255.53798 c -3.03046,63.63961 2.02031,215.16249 3.03046,240.41631 1.01015,25.25381 8.08122,21.2132 8.08122,21.2132"
       id="path3012"
       inkscape:connector-curvature="0"
       transform="translate(0,452.36218)" />
  </g>
</svg>
