<?xml version="1.0" encoding="UTF-8" standalone="no"?>
<!-- Created with Inkscape (http://www.inkscape.org/) -->

<svg
   xmlns:dc="http://purl.org/dc/elements/1.1/"
   xmlns:cc="http://creativecommons.org/ns#"
   xmlns:rdf="http://www.w3.org/1999/02/22-rdf-syntax-ns#"
   xmlns:svg="http://www.w3.org/2000/svg"
   xmlns="http://www.w3.org/2000/svg"
   xmlns:sodipodi="http://sodipodi.sourceforge.net/DTD/sodipodi-0.dtd"
   xmlns:inkscape="http://www.inkscape.org/namespaces/inkscape"
   width="114"
   height="100"
   id="svg2"
   version="1.1"
   inkscape:version="0.48.5 r10040"
   sodipodi:docname="jail.svg">
  <defs
     id="defs4" />
  <sodipodi:namedview
     id="base"
     pagecolor="#ffffff"
     bordercolor="#666666"
     borderopacity="1.0"
     inkscape:pageopacity="0.0"
     inkscape:pageshadow="2"
     inkscape:zoom="0.98994949"
     inkscape:cx="35.701713"
     inkscape:cy="217.40965"
     inkscape:document-units="px"
     inkscape:current-layer="layer1"
     showgrid="false"
     inkscape:window-width="1463"
     inkscape:window-height="944"
     inkscape:window-x="135"
     inkscape:window-y="24"
     inkscape:window-maximized="0" />
  <metadata
     id="metadata7">
    <rdf:RDF>
      <cc:Work
         rdf:about="">
        <dc:format>image/svg+xml</dc:format>
        <dc:type
           rdf:resource="http://purl.org/dc/dcmitype/StillImage" />
        <dc:title></dc:title>
      </cc:Work>
    </rdf:RDF>
  </metadata>
  <g
     inkscape:label="Layer 1"
     inkscape:groupmode="layer"
     id="layer1"
     transform="translate(0,-952.36218)">
    <path
       style="fill:#ffffff;fill-opacity:1;stroke:#000000;stroke-width:3;stroke-linecap:round;stroke-linejoin:round;stroke-miterlimit:4;stroke-opacity:1;stroke-dasharray:none"
       d="m 77.4451,966.63122 c -32.14285,-3.92857 -24.64285,30 -3.92857,30.71429 20.71429,0.71428 21.42857,-3.21429 22.5,-12.14286 1.07143,-8.92857 -7.85714,-17.5 -18.57143,-18.57143 z"
       id="path3014"
       inkscape:connector-curvature="0" />
    <path
       style="fill:none;stroke:#000000;stroke-width:3;stroke-linecap:round;stroke-linejoin:round;stroke-miterlimit:4;stroke-opacity:1;stroke-dasharray:none"
       d="m 51.01653,999.84551 c 8.21429,-23.92858 7.5,-31.78572 19.64286,-32.85715 12.14286,-1.07143 23.57143,2.85715 26.78571,9.64286 3.21429,6.78571 8.21429,17.85714 8.21429,17.85714"
       id="path3016"
       inkscape:connector-curvature="0" />
    <path
       style="fill:none;stroke:#000000;stroke-width:3;stroke-linecap:round;stroke-linejoin:round;stroke-miterlimit:4;stroke-opacity:1;stroke-dasharray:none"
       d="m 73.15939,989.48836 c 7.5,-7.85714 11.78571,1.07143 12.5,2.5"
       id="path3018"
       inkscape:connector-curvature="0" />
    <path
       sodipodi:type="arc"
       style="color:#000000;fill:#ffffff;fill-opacity:1;fill-rule:nonzero;stroke:#000000;stroke-width:3;stroke-linecap:round;stroke-linejoin:round;stroke-miterlimit:4;stroke-opacity:1;stroke-dasharray:none;stroke-dashoffset:0;marker:none;visibility:visible;display:inline;overflow:visible;enable-background:accumulate"
       id="path3020"
       sodipodi:cx="190.35715"
       sodipodi:cy="463.57144"
       sodipodi:rx="0.71428573"
       sodipodi:ry="2.1428571"
       d="m 191.07143,463.57144 a 0.71428573,2.1428571 0 1 1 -1.42857,0 0.71428573,2.1428571 0 1 1 1.42857,0 z"
       transform="translate(-118.98347,514.13122)" />
    <path
       sodipodi:type="arc"
       style="color:#000000;fill:#ffffff;fill-opacity:1;fill-rule:nonzero;stroke:#000000;stroke-width:3;stroke-linecap:round;stroke-linejoin:round;stroke-miterlimit:4;stroke-opacity:1;stroke-dasharray:none;stroke-dashoffset:0;marker:none;visibility:visible;display:inline;overflow:visible;enable-background:accumulate"
       id="path3022"
       sodipodi:cx="203.75"
       sodipodi:cy="463.03571"
       sodipodi:rx="0.89285713"
       sodipodi:ry="1.6071428"
       d="m 204.64286,463.03571 a 0.89285713,1.6071428 0 1 1 -1.78572,0 0.89285713,1.6071428 0 1 1 1.78572,0 z"
       transform="translate(-118.98347,514.13122)" />
    <path
       style="fill:#ffffff;fill-opacity:1;stroke:#000000;stroke-width:3;stroke-linecap:round;stroke-linejoin:round;stroke-miterlimit:4;stroke-opacity:1;stroke-dasharray:none"
       d="m 66.73082,996.63122 c -15.71429,-6.78571 -38.92858,-25.71429 -38.92858,-25.71429 0,0 -1.07142,6.07143 -3.928569,10.71429 -2.85714,4.64286 -10.71428,8.57143 -10.71428,8.57143 0,0 9.64285,5 20.714279,6.42857 11.07143,1.42857 32.85715,0 32.85715,0 z"
       id="path3024"
       inkscape:connector-curvature="0" />
    <path
       style="fill:none;stroke:#000000;stroke-width:3;stroke-linecap:round;stroke-linejoin:round;stroke-miterlimit:4;stroke-opacity:1;stroke-dasharray:none"
       d="M 21.373671,979.13122 C 14.230821,971.27408 3.8736705,968.41693 3.8736705,968.41693"
       id="path3026"
       inkscape:connector-curvature="0" />
    <path
       style="fill:none;stroke:#000000;stroke-width:3;stroke-linecap:round;stroke-linejoin:round;stroke-miterlimit:4;stroke-opacity:1;stroke-dasharray:none"
       d="m 27.08796,973.77408 c -3.571429,-7.5 -10.714289,-13.21429 -10.714289,-13.21429"
       id="path3028"
       inkscape:connector-curvature="0" />
    <path
       style="fill:none;stroke:#000000;stroke-width:3;stroke-linecap:round;stroke-linejoin:round;stroke-miterlimit:4;stroke-opacity:1;stroke-dasharray:none"
       d="m 53.15939,998.05979 c 1.78571,11.78571 17.5,47.14281 23.21428,50.71421"
       id="path3030"
       inkscape:connector-curvature="0" />
    <path
       style="fill:none;stroke:#000000;stroke-width:3;stroke-linecap:round;stroke-linejoin:round;stroke-miterlimit:4;stroke-opacity:1;stroke-dasharray:none"
       d="m 67.08796,997.70265 c 8.57143,11.42855 36.42857,38.57135 40.35714,41.07135"
       id="path3032"
       inkscape:connector-curvature="0" />
  </g>
</svg>
