<?xml version="1.0" encoding="UTF-8" standalone="no"?>
<!-- Created with Inkscape (http://www.inkscape.org/) -->

<svg
   xmlns:dc="http://purl.org/dc/elements/1.1/"
   xmlns:cc="http://creativecommons.org/ns#"
   xmlns:rdf="http://www.w3.org/1999/02/22-rdf-syntax-ns#"
   xmlns:svg="http://www.w3.org/2000/svg"
   xmlns="http://www.w3.org/2000/svg"
   xmlns:sodipodi="http://sodipodi.sourceforge.net/DTD/sodipodi-0.dtd"
   xmlns:inkscape="http://www.inkscape.org/namespaces/inkscape"
   width="150"
   height="230"
   id="svg2"
   version="1.1"
   inkscape:version="0.48.5 r10040"
   sodipodi:docname="sing1.svg">
  <defs
     id="defs4" />
  <sodipodi:namedview
     id="base"
     pagecolor="#ffffff"
     bordercolor="#666666"
     borderopacity="1.0"
     inkscape:pageopacity="0.0"
     inkscape:pageshadow="2"
     inkscape:zoom="3.959798"
     inkscape:cx="78.380921"
     inkscape:cy="173.88337"
     inkscape:document-units="px"
     inkscape:current-layer="layer1"
     showgrid="false"
     inkscape:window-width="1463"
     inkscape:window-height="944"
     inkscape:window-x="129"
     inkscape:window-y="24"
     inkscape:window-maximized="0" />
  <metadata
     id="metadata7">
    <rdf:RDF>
      <cc:Work
         rdf:about="">
        <dc:format>image/svg+xml</dc:format>
        <dc:type
           rdf:resource="http://purl.org/dc/dcmitype/StillImage" />
        <dc:title></dc:title>
      </cc:Work>
    </rdf:RDF>
  </metadata>
  <g
     inkscape:label="Layer 1"
     inkscape:groupmode="layer"
     id="layer1"
     transform="translate(0,-822.36218)">
    <path
       style="fill:none;stroke:#000000;stroke-width:3;stroke-linecap:butt;stroke-linejoin:miter;stroke-miterlimit:4;stroke-opacity:1;stroke-dasharray:none"
       d="m 77.517398,1034.8119 c 2.167545,-29.5935 -1.375553,-35.97503 -1.050499,-43.67716"
       id="path3854"
       inkscape:connector-curvature="0"
       sodipodi:nodetypes="cc" />
    <path
       style="fill:none;stroke:#000000;stroke-width:3;stroke-linecap:butt;stroke-linejoin:miter;stroke-miterlimit:4;stroke-opacity:1;stroke-dasharray:none"
       d="m 61.802334,1032.2375 c -1.961679,-22.7284 2.798172,-43.83699 2.798172,-43.83699"
       id="path3856"
       inkscape:connector-curvature="0"
       sodipodi:nodetypes="cc" />
    <path
       style="fill:none;stroke:#000000;stroke-width:3;stroke-linecap:butt;stroke-linejoin:miter;stroke-miterlimit:4;stroke-opacity:1;stroke-dasharray:none"
       d="m 68.988178,903.43265 c -4.225679,25.03222 -5.850939,38.51111 -15.927553,50.38537 -10.076615,11.87429 -12.677034,19.89728 -12.677034,19.89728 0,0 13.327138,11.23248 26.004169,14.7626 12.677032,3.53029 27.629431,6.41863 27.629431,6.41863 0,0 -3.900625,-21.18123 -9.426511,-36.58555 -5.525888,-15.40445 -6.826095,-13.79982 -10.726722,-28.56242 -3.900625,-14.76258 -4.87578,-26.31591 -4.87578,-26.31591 z"
       id="path3858"
       inkscape:connector-curvature="0" />
    <path
       style="fill:none;stroke:#000000;stroke-width:3;stroke-linecap:butt;stroke-linejoin:miter;stroke-miterlimit:4;stroke-opacity:1;stroke-dasharray:none"
       d="m 71.913647,915.94875 c 13.327137,11.87424 31.530053,23.7485 31.530053,23.7485"
       id="path3860"
       inkscape:connector-curvature="0" />
    <path
       style="fill:none;stroke:#000000;stroke-width:3;stroke-linecap:butt;stroke-linejoin:miter;stroke-miterlimit:4;stroke-opacity:1;stroke-dasharray:none"
       d="m 65.805246,916.2619 c -14.182716,15.77846 -33.61555,33.71276 -33.61555,33.71276"
       id="path3862"
       inkscape:connector-curvature="0" />
    <path
       style="fill:none;stroke:#000000;stroke-width:3;stroke-linecap:round;stroke-linejoin:round;stroke-miterlimit:4;stroke-opacity:1;stroke-dasharray:none"
       d="m 69.150705,901.18615 c 15.602499,-0.96279 24.541434,-15.72537 26.004168,-24.06944 1.462733,-8.34408 5.850937,-23.74853 -0.975156,-28.88335 -6.826094,-5.13481 -15.927553,-11.39287 -22.753648,-10.75101 -6.826094,0.64184 -19.3406,15.0835 -20.640809,29.68564 -1.30021,14.60212 -2.275365,25.51361 4.55073,30.48797 6.826094,4.97436 13.814715,3.53019 13.814715,3.53019 z"
       id="path3864"
       inkscape:connector-curvature="0" />
    <path
       style="fill:none;stroke:#000000;stroke-width:3;stroke-linecap:round;stroke-linejoin:round;stroke-opacity:1;stroke-miterlimit:4;stroke-dasharray:none"
       d="m 94.954339,28.727107 c 1.010152,9.343911 5.050761,65.407377 0.757614,69.700525"
       id="path5234"
       inkscape:connector-curvature="0"
       transform="translate(0,822.36218)" />
    <path
       style="fill:none;stroke:#000000;stroke-width:3;stroke-linecap:round;stroke-linejoin:round;stroke-opacity:1;stroke-miterlimit:4;stroke-dasharray:none"
       d="m 91.923881,23.423806 c -1.767767,11.616754 1.262691,71.468292 1.262691,71.468292"
       id="path5236"
       inkscape:connector-curvature="0"
       transform="translate(0,822.36218)" />
    <path
       style="fill:none;stroke:#000000;stroke-width:3;stroke-linecap:round;stroke-linejoin:round;stroke-opacity:1;stroke-miterlimit:4;stroke-dasharray:none"
       d="m 86.62058,19.383196 c 0,24.243661 5.808377,75.003826 3.282996,77.276669"
       id="path5238"
       inkscape:connector-curvature="0"
       transform="translate(0,822.36218)" />
    <path
       style="fill:none;stroke:#000000;stroke-width:3;stroke-linecap:round;stroke-linejoin:round;stroke-opacity:1;stroke-miterlimit:4;stroke-dasharray:none"
       d="m 82.074894,18.120505 c -2.525382,9.848987 2.020305,69.447987 4.04061,75.508902"
       id="path5240"
       inkscape:connector-curvature="0"
       transform="translate(0,822.36218)" />
    <path
       style="fill:none;stroke:#000000;stroke-width:3;stroke-linecap:round;stroke-linejoin:round;stroke-opacity:1;stroke-miterlimit:4;stroke-dasharray:none"
       d="m 78.034284,17.110353 c 0.252538,11.364216 4.293148,74.751287 2.272843,76.013978"
       id="path5242"
       inkscape:connector-curvature="0"
       transform="translate(0,822.36218)" />
    <path
       style="fill:none;stroke:#000000;stroke-width:3;stroke-linecap:round;stroke-linejoin:round;stroke-opacity:1;stroke-miterlimit:4;stroke-dasharray:none"
       d="m 74.49875,15.595124 c -4.04061,4.545686 3.030457,76.013978 3.030457,76.013978"
       id="path5244"
       inkscape:connector-curvature="0"
       transform="translate(0,822.36218)" />
    <path
       style="fill:none;stroke:#000000;stroke-width:3;stroke-linecap:round;stroke-linejoin:round;stroke-opacity:1;stroke-miterlimit:4;stroke-dasharray:none"
       d="m 69.195449,16.1002 c 0.757614,7.323606 2.777919,77.024131 2.777919,77.024131"
       id="path5246"
       inkscape:connector-curvature="0"
       transform="translate(0,822.36218)"
       sodipodi:nodetypes="cc" />
    <path
       style="fill:none;stroke:#000000;stroke-width:3;stroke-linecap:round;stroke-linejoin:round;stroke-opacity:1;stroke-miterlimit:4;stroke-dasharray:none"
       d="M 64.144686,20.393348 C 64.397224,29.232183 64.9023,89.083721 64.9023,89.083721"
       id="path5248"
       inkscape:connector-curvature="0"
       transform="translate(0,822.36218)"
       sodipodi:nodetypes="cc" />
    <path
       style="fill:none;stroke:#000000;stroke-width:3;stroke-linecap:round;stroke-linejoin:round;stroke-opacity:1;stroke-miterlimit:4;stroke-dasharray:none"
       d="m 58.841385,24.18142 c 3.282996,7.071068 3.030458,67.68022 2.020305,69.700525"
       id="path5250"
       inkscape:connector-curvature="0"
       transform="translate(0,822.36218)"
       sodipodi:nodetypes="cc" />
    <path
       style="fill:none;stroke:#000000;stroke-width:3;stroke-linecap:round;stroke-linejoin:round;stroke-opacity:1;stroke-miterlimit:4;stroke-dasharray:none"
       d="m 55.810928,29.484721 c 0.252538,9.343911 -0.505077,64.144687 1.010152,66.164992"
       id="path5252"
       inkscape:connector-curvature="0"
       transform="translate(0,822.36218)"
       sodipodi:nodetypes="cc" />
    <path
       style="fill:none;stroke:#000000;stroke-width:3;stroke-linecap:round;stroke-linejoin:round;stroke-opacity:1;stroke-miterlimit:4;stroke-dasharray:none"
       d="m 52.022856,40.091323 c 0.757614,9.343911 2.020305,48.73986 0.757614,53.285546"
       id="path5254"
       inkscape:connector-curvature="0"
       transform="translate(0,822.36218)" />
  </g>
</svg>
