<?xml version="1.0" encoding="UTF-8" standalone="no"?>
<!-- Created with Inkscape (http://www.inkscape.org/) -->

<svg
   xmlns:dc="http://purl.org/dc/elements/1.1/"
   xmlns:cc="http://creativecommons.org/ns#"
   xmlns:rdf="http://www.w3.org/1999/02/22-rdf-syntax-ns#"
   xmlns:svg="http://www.w3.org/2000/svg"
   xmlns="http://www.w3.org/2000/svg"
   xmlns:sodipodi="http://sodipodi.sourceforge.net/DTD/sodipodi-0.dtd"
   xmlns:inkscape="http://www.inkscape.org/namespaces/inkscape"
   width="100"
   height="100"
   id="svg2"
   version="1.1"
   inkscape:version="0.48.5 r10040"
   sodipodi:docname="title-notes1.svg">
  <defs
     id="defs4" />
  <sodipodi:namedview
     id="base"
     pagecolor="#ffffff"
     bordercolor="#666666"
     borderopacity="1.0"
     inkscape:pageopacity="0.0"
     inkscape:pageshadow="2"
     inkscape:zoom="0.7"
     inkscape:cx="387.22654"
     inkscape:cy="67.353216"
     inkscape:document-units="px"
     inkscape:current-layer="layer1"
     showgrid="false"
     inkscape:window-width="1463"
     inkscape:window-height="944"
     inkscape:window-x="135"
     inkscape:window-y="24"
     inkscape:window-maximized="0" />
  <metadata
     id="metadata7">
    <rdf:RDF>
      <cc:Work
         rdf:about="">
        <dc:format>image/svg+xml</dc:format>
        <dc:type
           rdf:resource="http://purl.org/dc/dcmitype/StillImage" />
        <dc:title></dc:title>
      </cc:Work>
    </rdf:RDF>
  </metadata>
  <g
     inkscape:label="Layer 1"
     inkscape:groupmode="layer"
     id="layer1"
     transform="translate(0,-952.36218)">
    <path
       style="fill:#000000;fill-opacity:1;stroke:none"
       d="m 53.734267,1014.3622 c 0,0 -9.84899,1.5153 -10.35407,8.8389 -0.50507,7.3237 2.02031,9.0914 3.53554,9.0914 1.51523,0 7.3236,-1.5152 8.33376,-3.0304 1.01015,-1.5152 3.78807,-9.5966 3.28299,-11.1118 -0.50508,-1.5152 -1.51523,-2.7779 -1.51523,-2.7779 0,0 2.52538,-15.9099 2.52538,-22.7284 0,-6.8186 -1.51523,-13.3846 -1.51523,-13.3846 0,0 0.50508,-1.5152 -1.26269,-1.0101 -1.76776,0.5051 -1.01015,2.5254 -1.01015,2.5254 0,0 1.51523,9.8489 0.75762,17.4251 -0.75762,7.5761 -2.77792,16.1624 -2.77792,16.1624 z"
       id="path3784"
       inkscape:connector-curvature="0" />
  </g>
</svg>
