<?xml version="1.0" encoding="UTF-8" standalone="no"?>
<!-- Created with Inkscape (http://www.inkscape.org/) -->

<svg
   xmlns:dc="http://purl.org/dc/elements/1.1/"
   xmlns:cc="http://creativecommons.org/ns#"
   xmlns:rdf="http://www.w3.org/1999/02/22-rdf-syntax-ns#"
   xmlns:svg="http://www.w3.org/2000/svg"
   xmlns="http://www.w3.org/2000/svg"
   xmlns:sodipodi="http://sodipodi.sourceforge.net/DTD/sodipodi-0.dtd"
   xmlns:inkscape="http://www.inkscape.org/namespaces/inkscape"
   width="100"
   height="100"
   id="svg2"
   version="1.1"
   inkscape:version="0.48.5 r10040"
   sodipodi:docname="title-notes1.svg">
  <defs
     id="defs4" />
  <sodipodi:namedview
     id="base"
     pagecolor="#ffffff"
     bordercolor="#666666"
     borderopacity="1.0"
     inkscape:pageopacity="0.0"
     inkscape:pageshadow="2"
     inkscape:zoom="0.7"
     inkscape:cx="387.22654"
     inkscape:cy="67.353216"
     inkscape:document-units="px"
     inkscape:current-layer="layer1"
     showgrid="false"
     inkscape:window-width="1463"
     inkscape:window-height="944"
     inkscape:window-x="135"
     inkscape:window-y="24"
     inkscape:window-maximized="0" />
  <metadata
     id="metadata7">
    <rdf:RDF>
      <cc:Work
         rdf:about="">
        <dc:format>image/svg+xml</dc:format>
        <dc:type
           rdf:resource="http://purl.org/dc/dcmitype/StillImage" />
        <dc:title></dc:title>
      </cc:Work>
    </rdf:RDF>
  </metadata>
  <g
     inkscape:label="Layer 1"
     inkscape:groupmode="layer"
     id="layer1"
     transform="translate(0,-952.36218)">
    <path
       style="fill:#000000;fill-opacity:1;stroke:none"
       d="m 33.825023,1023.3358 c 0,7.7024 -1.38896,9.7227 -2.39911,10.3541 -1.01016,0.6313 -6.43973,-2.6517 -7.32361,-8.7126 -0.88388,-6.0609 1.01015,-10.7328 3.03046,-11.6167 2.0203,-0.8839 3.15672,-0.1263 3.15672,-0.1263 0,0 -0.50507,-13.63706 -1.13642,-20.07678 -0.63134,-6.43972 -2.14657,-8.46003 -2.14657,-8.46003 l -2.77792,1.6415 c 0,0 -1.13642,-0.12627 -1.13642,-0.63135 0,-0.50507 0.3788,-1.64149 0.3788,-1.64149 l 3.283,-0.50508 -1.6415,-2.39911 c 0,0 -0.12627,-0.88389 0.37881,-1.13643 0.50508,-0.25253 1.38896,0.25254 1.38896,0.25254 l 1.13642,2.90419 c 0,0 6.9448,-0.75761 10.2278,-0.88388 3.28299,-0.12627 12.37436,-0.63135 15.65736,-1.13642 3.283,-0.50508 12.75318,-0.50508 12.75318,-0.50508 l -1.6415,-3.283 c 0,0 0,-0.88388 0.50507,-0.88388 0.50508,0 1.26269,1.38896 1.26269,1.38896 l 1.13643,1.89404 3.03045,0.88388 c 0,0 1.01016,0.50508 1.01016,1.38896 0,0.88388 -1.26269,0.37881 -1.26269,0.37881 l -2.02031,-0.25254 c 0,0 2.02031,11.36422 2.39911,12.50064 0.37881,1.13642 4.16688,13.38455 4.16688,13.38455 0,0 3.03046,1.0101 2.65165,7.3236 -0.3788,6.3134 -2.14657,8.9651 -2.90419,8.9651 -0.75761,0 -4.92449,-2.1466 -6.56599,-4.5457 -1.6415,-2.3991 -2.90419,-7.8287 -1.76776,-9.849 1.13642,-2.0203 3.91434,-3.9143 5.55583,-3.0304 1.6415,0.8838 2.02031,1.6414 2.02031,1.6414 0,0 -4.16688,-12.37432 -4.29315,-13.88955 -0.12627,-1.51523 -2.65165,-12.37437 -2.65165,-12.37437 0,0 -16.92005,0.37881 -19.69797,1.26269 -2.77792,0.88388 -10.48034,0.50508 -12.50064,0.63134 -2.02031,0.12627 -6.56599,0.37881 -6.56599,0.37881 0,0 2.39911,8.5863 2.52538,14.64721 0.12627,6.06097 1.01015,17.17257 1.01015,17.17257 z"
       id="path2996"
       inkscape:connector-curvature="0" />
  </g>
</svg>
