<?xml version="1.0" encoding="UTF-8" standalone="no"?>
<!-- Created with Inkscape (http://www.inkscape.org/) -->

<svg
   xmlns:dc="http://purl.org/dc/elements/1.1/"
   xmlns:cc="http://creativecommons.org/ns#"
   xmlns:rdf="http://www.w3.org/1999/02/22-rdf-syntax-ns#"
   xmlns:svg="http://www.w3.org/2000/svg"
   xmlns="http://www.w3.org/2000/svg"
   xmlns:sodipodi="http://sodipodi.sourceforge.net/DTD/sodipodi-0.dtd"
   xmlns:inkscape="http://www.inkscape.org/namespaces/inkscape"
   width="800"
   height="600"
   id="svg2"
   version="1.1"
   inkscape:version="0.48.5 r10040"
   sodipodi:docname="words19.svg">
  <defs
     id="defs4" />
  <sodipodi:namedview
     id="base"
     pagecolor="#ffffff"
     bordercolor="#666666"
     borderopacity="1.0"
     inkscape:pageopacity="0.0"
     inkscape:pageshadow="2"
     inkscape:zoom="0.98994949"
     inkscape:cx="312.05105"
     inkscape:cy="296.99797"
     inkscape:document-units="px"
     inkscape:current-layer="layer1"
     showgrid="false"
     inkscape:window-width="1463"
     inkscape:window-height="944"
     inkscape:window-x="129"
     inkscape:window-y="24"
     inkscape:window-maximized="0"
     showguides="true"
     inkscape:guide-bbox="true" />
  <metadata
     id="metadata7">
    <rdf:RDF>
      <cc:Work
         rdf:about="">
        <dc:format>image/svg+xml</dc:format>
        <dc:type
           rdf:resource="http://purl.org/dc/dcmitype/StillImage" />
        <dc:title></dc:title>
      </cc:Work>
    </rdf:RDF>
  </metadata>
  <g
     inkscape:label="Layer 1"
     inkscape:groupmode="layer"
     id="layer1"
     transform="translate(0,-452.36218)">
    <path
       style="fill:none;stroke:#000000;stroke-width:3;stroke-linecap:round;stroke-linejoin:round;stroke-miterlimit:4;stroke-opacity:1;stroke-dasharray:none"
       d="m 444.65318,604.42632 c -10.26953,-8.39806 -8.09115,-5.28766 -6.84636,1.86624 1.2448,7.15391 6.53515,22.70589 10.58073,23.63901 4.04557,0.93312 1.86719,-1.86624 1.86719,-1.86624 l -5.60156,-29.23772"
       id="path4113"
       inkscape:connector-curvature="0" />
    <path
       style="fill:none;stroke:#000000;stroke-width:3;stroke-linecap:round;stroke-linejoin:round;stroke-miterlimit:4;stroke-opacity:1;stroke-dasharray:none"
       d="m 454.9227,601.93801 c 3.11198,5.59871 13.69271,20.83964 13.69271,20.83964 0,0 -1.556,-10.57533 0,-15.55197 1.55598,-4.97663 3.42317,-4.97663 3.42317,-4.97663 0,0 1.86719,8.39807 3.42317,12.44158 1.55599,4.04352 4.66797,8.08702 4.66797,8.08702 0,0 0,-9.02014 2.17838,-12.44157 2.17839,-3.42143 2.48959,-10.88638 2.48959,-10.88638"
       id="path4115"
       inkscape:connector-curvature="0" />
    <path
       style="fill:none;stroke:#000000;stroke-width:3;stroke-linecap:round;stroke-linejoin:round;stroke-miterlimit:4;stroke-opacity:1;stroke-dasharray:none"
       d="m 499.11279,592.60683 c -7.46875,3.11039 -9.33594,22.70588 -4.66797,27.99355 4.66797,5.28767 9.64713,3.11039 9.64713,3.11039 0,0 -2.48958,-9.64222 -2.17839,-15.863 0.31121,-6.2208 0.31121,-15.86302 0.31121,-15.86302"
       id="path4117"
       inkscape:connector-curvature="0" />
    <path
       style="fill:none;stroke:#000000;stroke-width:3;stroke-linecap:round;stroke-linejoin:round;stroke-miterlimit:4;stroke-opacity:1;stroke-dasharray:none"
       d="m 511.2495,591.36266 c -1.24479,7.776 7.77994,23.32797 7.77994,23.32797"
       id="path4119"
       inkscape:connector-curvature="0" />
    <path
       style="fill:none;stroke:#000000;stroke-width:3;stroke-linecap:round;stroke-linejoin:round;stroke-miterlimit:4;stroke-opacity:1;stroke-dasharray:none"
       d="m 529.61017,592.60683 c -5.29036,8.39806 -13.3815,29.2377 -14.6263,37.32474"
       id="path4121"
       inkscape:connector-curvature="0" />
  </g>
</svg>
