<?xml version="1.0" encoding="UTF-8" standalone="no"?>
<!-- Created with Inkscape (http://www.inkscape.org/) -->

<svg
   xmlns:dc="http://purl.org/dc/elements/1.1/"
   xmlns:cc="http://creativecommons.org/ns#"
   xmlns:rdf="http://www.w3.org/1999/02/22-rdf-syntax-ns#"
   xmlns:svg="http://www.w3.org/2000/svg"
   xmlns="http://www.w3.org/2000/svg"
   xmlns:sodipodi="http://sodipodi.sourceforge.net/DTD/sodipodi-0.dtd"
   xmlns:inkscape="http://www.inkscape.org/namespaces/inkscape"
   width="800"
   height="600"
   id="svg2"
   version="1.1"
   inkscape:version="0.48.5 r10040"
   sodipodi:docname="words13.svg">
  <defs
     id="defs4" />
  <sodipodi:namedview
     id="base"
     pagecolor="#ffffff"
     bordercolor="#666666"
     borderopacity="1.0"
     inkscape:pageopacity="0.0"
     inkscape:pageshadow="2"
     inkscape:zoom="0.98994949"
     inkscape:cx="312.05105"
     inkscape:cy="296.99797"
     inkscape:document-units="px"
     inkscape:current-layer="layer1"
     showgrid="false"
     inkscape:window-width="1463"
     inkscape:window-height="944"
     inkscape:window-x="129"
     inkscape:window-y="24"
     inkscape:window-maximized="0"
     showguides="true"
     inkscape:guide-bbox="true" />
  <metadata
     id="metadata7">
    <rdf:RDF>
      <cc:Work
         rdf:about="">
        <dc:format>image/svg+xml</dc:format>
        <dc:type
           rdf:resource="http://purl.org/dc/dcmitype/StillImage" />
        <dc:title></dc:title>
      </cc:Work>
    </rdf:RDF>
  </metadata>
  <g
     inkscape:label="Layer 1"
     inkscape:groupmode="layer"
     id="layer1"
     transform="translate(0,-452.36218)">
    <path
       style="fill:none;stroke:#000000;stroke-width:3;stroke-linecap:round;stroke-linejoin:round;stroke-miterlimit:4;stroke-opacity:1;stroke-dasharray:none"
       d="m 387.70398,536.61972 c 2.17838,14.9299 4.04557,27.99355 4.04557,27.99355 0,0 4.66796,-26.43836 12.44792,-27.06043 7.77994,-0.62209 4.04556,27.06043 4.04556,27.06043 0,0 1.24479,-29.85979 10.26953,-32.03707 9.02474,-2.17727 9.33593,32.65915 9.33593,32.65915"
       id="path4043"
       inkscape:connector-curvature="0" />
    <path
       style="fill:none;stroke:#000000;stroke-width:3;stroke-linecap:round;stroke-linejoin:round;stroke-miterlimit:4;stroke-opacity:1;stroke-dasharray:none"
       d="m 446.83156,530.39893 c -7.15755,3.42143 -11.82552,26.43836 -4.04557,32.3481 7.77994,5.90976 15.55988,-1.24415 13.3815,-13.37469 -2.17838,-12.13054 -4.97916,-18.04029 -9.33593,-18.97341 z"
       id="path4045"
       inkscape:connector-curvature="0" />
    <path
       style="fill:none;stroke:#000000;stroke-width:3;stroke-linecap:round;stroke-linejoin:round;stroke-miterlimit:4;stroke-opacity:1;stroke-dasharray:none"
       d="m 477.32894,533.50932 c 2.48958,9.64223 3.42318,27.99356 3.42318,27.99356 0,0 -4.97917,-21.46173 10.26952,-24.57213 15.24869,-3.11039 10.26953,5.28768 10.26953,5.28768"
       id="path4047"
       inkscape:connector-curvature="0" />
    <path
       style="fill:none;stroke:#000000;stroke-width:3;stroke-linecap:round;stroke-linejoin:round;stroke-miterlimit:4;stroke-opacity:1;stroke-dasharray:none"
       d="m 509.07112,541.59635 c 4.97916,4.04351 12.4479,6.53183 12.13671,-3.73248 -0.3112,-10.26429 -7.15755,-13.06365 -10.58073,-5.28767 -3.42317,7.77599 -4.35677,24.26109 3.73438,25.81628 8.09114,1.5552 9.95833,-0.93312 9.95833,-0.93312"
       id="path4049"
       inkscape:connector-curvature="0" />
    <path
       style="fill:none;stroke:#000000;stroke-width:3;stroke-linecap:round;stroke-linejoin:round;stroke-miterlimit:4;stroke-opacity:1;stroke-dasharray:none"
       d="m 537.07892,515.46904 c 0.31119,3.42143 0.93359,18.35132 0.93359,18.35132"
       id="path4051"
       inkscape:connector-curvature="0" />
    <path
       style="fill:none;stroke:#000000;stroke-width:3;stroke-linecap:round;stroke-linejoin:round;stroke-miterlimit:4;stroke-opacity:1;stroke-dasharray:none"
       d="m 539.5685,551.54962 c 0,1.55519 0,6.53182 0,6.53182"
       id="path4053"
       inkscape:connector-curvature="0" />
  </g>
</svg>
