<?xml version="1.0" encoding="UTF-8" standalone="no"?>
<!-- Created with Inkscape (http://www.inkscape.org/) -->

<svg
   xmlns:dc="http://purl.org/dc/elements/1.1/"
   xmlns:cc="http://creativecommons.org/ns#"
   xmlns:rdf="http://www.w3.org/1999/02/22-rdf-syntax-ns#"
   xmlns:svg="http://www.w3.org/2000/svg"
   xmlns="http://www.w3.org/2000/svg"
   xmlns:sodipodi="http://sodipodi.sourceforge.net/DTD/sodipodi-0.dtd"
   xmlns:inkscape="http://www.inkscape.org/namespaces/inkscape"
   width="800"
   height="600"
   id="svg2"
   version="1.1"
   inkscape:version="0.48.5 r10040"
   sodipodi:docname="words9.svg">
  <defs
     id="defs4" />
  <sodipodi:namedview
     id="base"
     pagecolor="#ffffff"
     bordercolor="#666666"
     borderopacity="1.0"
     inkscape:pageopacity="0.0"
     inkscape:pageshadow="2"
     inkscape:zoom="0.98994949"
     inkscape:cx="312.05105"
     inkscape:cy="296.99797"
     inkscape:document-units="px"
     inkscape:current-layer="layer1"
     showgrid="false"
     inkscape:window-width="1463"
     inkscape:window-height="944"
     inkscape:window-x="129"
     inkscape:window-y="24"
     inkscape:window-maximized="0"
     showguides="true"
     inkscape:guide-bbox="true" />
  <metadata
     id="metadata7">
    <rdf:RDF>
      <cc:Work
         rdf:about="">
        <dc:format>image/svg+xml</dc:format>
        <dc:type
           rdf:resource="http://purl.org/dc/dcmitype/StillImage" />
        <dc:title></dc:title>
      </cc:Work>
    </rdf:RDF>
  </metadata>
  <g
     inkscape:label="Layer 1"
     inkscape:groupmode="layer"
     id="layer1"
     transform="translate(0,-452.36218)">
    <path
       style="fill:none;stroke:#000000;stroke-width:3;stroke-linecap:round;stroke-linejoin:round;stroke-miterlimit:4;stroke-opacity:1;stroke-dasharray:none"
       d="m 183.86943,540.97427 c 2.48958,12.75262 1.86719,27.99356 4.04558,32.03707 2.17838,4.04351 3.73437,8.39806 3.73437,8.39806 0,0 -6.84635,-22.39484 1.55599,-22.70588 8.40233,-0.31104 11.51431,8.08703 10.26952,12.75262 -1.24479,4.66559 -6.53515,13.3747 -15.87108,10.57535"
       id="path4025"
       inkscape:connector-curvature="0" />
    <path
       style="fill:none;stroke:#000000;stroke-width:3;stroke-linecap:round;stroke-linejoin:round;stroke-miterlimit:4;stroke-opacity:1;stroke-dasharray:none"
       d="m 218.10119,558.08144 c -7.46874,-3.11039 -10.89192,10.2643 -9.33593,15.55198 1.55599,5.28767 10.89192,7.77598 13.0703,7.77598 2.17839,0 -2.17838,-26.12731 -2.17838,-26.12731 0,0 4.04557,27.06043 5.29036,28.30459"
       id="path4027"
       inkscape:connector-curvature="0" />
    <path
       style="fill:none;stroke:#000000;stroke-width:3;stroke-linecap:round;stroke-linejoin:round;stroke-miterlimit:4;stroke-opacity:1;stroke-dasharray:none"
       d="m 240.19623,552.17169 c -5.91275,6.22079 -6.84634,21.77276 -2.80078,23.639 4.04557,1.86624 13.69271,1.86624 13.69271,1.86624"
       id="path4029"
       inkscape:connector-curvature="0" />
    <path
       style="fill:none;stroke:#000000;stroke-width:3;stroke-linecap:round;stroke-linejoin:round;stroke-miterlimit:4;stroke-opacity:1;stroke-dasharray:none"
       d="m 254.20014,536.61972 c 3.11197,9.64222 7.77994,39.50201 7.77994,39.50201"
       id="path4031"
       inkscape:connector-curvature="0" />
    <path
       style="fill:none;stroke:#000000;stroke-width:3;stroke-linecap:round;stroke-linejoin:round;stroke-miterlimit:4;stroke-opacity:1;stroke-dasharray:none"
       d="m 271.62721,547.5061 c -6.22396,4.35455 -15.55989,13.99678 -15.55989,13.99678 0,0 6.22395,0.62207 11.82551,4.66559 5.60157,4.04351 9.33594,13.3747 9.33594,13.3747"
       id="path4033"
       inkscape:connector-curvature="0" />
  </g>
</svg>
