<?xml version="1.0" encoding="UTF-8" standalone="no"?>
<svg xmlns="http://www.w3.org/2000/svg" viewBox="0 0 510 92" version="1.0">
<path d="m129.7 0l-20.2 91.4h17.5l20.1-91.4h-17.4zm22.3 0l-20.2 91.4h72.3l38.9-91.4h-91z" fill="#ED1B2F"/>
<path d="m20.2 0l-20.2 91.4h6.5l20.2-91.4h-6.5zm22.1 0l-20.2 91.4h8.1l20.2-91.4h-8.1zm21.7 0l-20.2 91.4h9.7l20.2-91.4h-9.7zm22 0l-20.2 91.4h13.8l20.4-91.4h-14zm21.4 0l-20.15 91.4h16.7l20.05-91.4h-16.6z" fill="#FFCB05"/>
<path d="m242.8 0l-39 91.4h121.2l20.2-91.4h-102.4z" fill="#C5168D"/>
<path d="m345 0l-20.2 91.4h164.5l20.2-91.4h-164.5z" fill="#0066B3"/>
<path d="m330.9 14.3l-15.5 63.9 7.9 11.5h28.6l13-10.8 6.5-25.3h-15.9l-4.7 19.8h-17.9l12-53.8h18.4l-3 14.3h15.6l4.6-18.4-9.9-13.8h-25.7l-14 12.6zm-11.1-12.6h-28.6l-13.8 12.5-6.75 27.9 8 12.1h23.9l-4.6 18.4h-18.8l1.2-7.4h-15.5l-2.3 12.3 8.7 12.2h27.7l13.3-11.5 7.3-29.8-9.8-11.1h-22l4.6-18.1h17.8l-1.3 7.2h15.7l3.2-12.7-7.95-12zm-109.5 0l-11.6 50.2-3.6-50.2h-20l-20.3 87.9h14.2l12.3-51 3.8 51h35.1l7-15.4h14.5v-15.9h-7.3l12-28.4-1.2 28.4h-5.7v16h5.3l-0.9 15.4h16l4.7-87.9h-23.3l-33.6 78.6 18.4-78.7h-15.8zm240.1 17.2h17l-5.4 22.9h-9.4v17.6h6l-6.7 30.3h15.6l7.6-33.1-4.4-7.8 7.5-7 6.8-27.5-9.1-12.6h-38.2l-18 75.6 3-75.6h-23l-37 88h15.9l7.4-16.3h13.2v-15.1h-6.8l12-28.4-1.3 28.4h-5.6v15.1h5.2l-0.8 16.3h31.3l6.6-30.4h15.2v-17.6h-10.2l5.6-22.9" fill="#fff"/>
</svg>
