<?xml version="1.0" encoding="UTF-8" standalone="no"?>
<svg fill="#ffffff" version="1.0" xmlns="http://www.w3.org/2000/svg" viewBox="0 0 561.76 373.94">
<polygon points="159.44 205.29 182.24 243.3 159.44 243.3 70.85 243.3 58.35 222.44 140.18 173.29"/>
<polygon points="305.37 197.86 332.56 243.3 305.37 243.3 221.25 243.3 159.44 140.44 156.74 135.96 159.44 134.36 238.57 86.72"/>
<polygon points="413.63 127.77 482.97 243.3 413.63 243.3 371.58 243.3 305.37 132.92 255.21 49.4 305.37 19.25 336.95 0.25"/>
<path d="m554.84 247.1c0-2.2-0.51-4.22-1.609-6.17-1.101-1.939-2.62-3.46-4.561-4.56-1.939-1.011-3.97-1.601-6-1.601h-0.08c-2.03 0-4.05 0.59-5.99 1.601-1.949 1.1-3.47 2.62-4.569 4.56-1.09 1.95-1.681 3.97-1.681 6.17 0 2.11 0.591 4.13 1.681 6.08 1.02 1.851 2.54 3.38 4.479 4.47 1.94 1.101 3.971 1.61 6.08 1.61h0.08c2.12 0 4.14-0.51 6.09-1.61 1.94-1.09 3.46-2.619 4.471-4.47 1.099-1.951 1.609-3.97 1.609-6.08zm2.45 0c0 2.45-0.6 4.9-1.95 7.26-1.26 2.36-3.04 4.141-5.399 5.4-2.37 1.36-4.73 1.95-7.271 1.95h-0.08c-2.53 0-4.899-0.59-7.26-1.95-2.37-1.26-4.14-3.04-5.41-5.4-1.35-2.359-1.939-4.81-1.939-7.26 0-2.62 0.59-5.069 1.939-7.439 1.35-2.36 3.13-4.13 5.49-5.4 2.37-1.27 4.729-1.86 7.18-1.939h0.08c2.45 0 4.82 0.67 7.18 1.939 2.37 1.271 4.23 3.04 5.49 5.4 1.35 2.369 1.95 4.818 1.95 7.439z"/>
<path d="m545.63 243.89c0-0.51-0.08-0.93-0.34-1.27-0.25-0.42-0.59-0.681-1.09-0.84-0.34-0.091-0.851-0.171-1.61-0.261h-3.88v4.73h3.12 0.76c1.101-0.08 1.86-0.25 2.28-0.67 0.51-0.43 0.76-1.019 0.76-1.689zm2.03-2.54c0.51 0.681 0.76 1.44 0.76 2.28 0 1.18-0.42 2.2-1.27 3.04-0.841 0.85-1.94 1.36-3.29 1.439 0.59 0.25 1.01 0.511 1.35 0.841l2.36 3.13 1.859 3.12h-3.04l-1.439-2.53c-0.92-1.6-1.681-2.79-2.36-3.38-0.08-0.08-0.17-0.17-0.34-0.25l-2.02-0.59h-1.521v6.75h-2.54v-15.87h5.49c0.34 0 0.68 0.08 0.93 0.08 1.351 0 2.36 0.17 3.04 0.42 0.841 0.26 1.521 0.76 2.031 1.52z"/>
</svg>
