<?xml version="1.0" encoding="UTF-8" standalone="no"?>
<!DOCTYPE svg  PUBLIC '-//W3C//DTD SVG 1.0//EN'  'http://www.w3.org/TR/2001/REC-SVG-20010904/DTD/svg10.dtd' [
	<!ENTITY ns_svg "http://www.w3.org/2000/svg">
	<!ENTITY ns_xlink "http://www.w3.org/1999/xlink">
]>
<svg enable-background="new 0 0 561.76 373.939" width="561.76" overflow="visible" version="1.0" xmlns="http://www.w3.org/2000/svg" height="373.94" viewBox="0 0 561.76 373.939" xml:space="preserve" fill="#ffffff">
			<path d="m558.72 303.68h-24.489c-0.761-4.06-1.94-6.92-3.551-8.53-2.62-2.619-7.09-3.97-13.26-3.97-6.08 0-10.3 1.01-12.66 3.04-1.779 1.521-2.71 3.63-2.71 6.25 0 3.71 5.16 6.67 15.37 8.95 11.66 2.53 20.021 4.729 25.17 6.5 1.351 0.51 2.53 0.93 3.38 1.35 10.391 4.9 15.54 12.34 15.54 22.301 0 12.159-5.069 21.029-15.12 26.6-1.27 0.68-2.449 1.27-3.8 1.86-6.5 2.79-14.1 4.22-22.63 4.22-12.75 0-23.06-2.28-30.91-6.76-4.939-2.87-8.63-6.48-11.09-10.83-2.46-4.351-3.69-9.431-3.69-15.261h25.671c0 4.391 1.609 7.86 4.729 10.221 3.13 2.45 8.45 3.72 15.96 3.72 5.66 0 9.88-1.19 12.67-3.55 2.2-1.86 3.21-3.891 3.21-6.25 0-3.97-5.06-7.09-15.12-9.29-15.029-3.21-24.489-5.83-28.37-7.69-10.3-4.81-15.369-12.239-15.369-22.55 0-8.27 2.619-15.28 8.02-21.02 6.76-7.181 16.89-10.73 30.32-10.73 11.06 0 19.93 1.61 26.6 4.73 0.59 0.25 1.101 0.51 1.61 0.85 4.81 2.61 8.439 6.08 10.87 10.39 2.43 4.3 3.65 9.46 3.65 15.45z"/>
			<path d="m545.63 243.89c0-0.51-0.08-0.93-0.34-1.27-0.25-0.42-0.59-0.681-1.09-0.84-0.34-0.091-0.851-0.171-1.61-0.261h-3.88v4.73h3.12 0.76c1.101-0.08 1.86-0.25 2.28-0.67 0.51-0.43 0.76-1.02 0.76-1.69zm2.03-2.54c0.51 0.681 0.76 1.44 0.76 2.28 0 1.18-0.42 2.2-1.27 3.04-0.841 0.85-1.94 1.36-3.29 1.439 0.59 0.25 1.01 0.511 1.35 0.841l2.36 3.13 1.859 3.12h-3.04l-1.439-2.53c-0.92-1.6-1.681-2.79-2.36-3.38-0.08-0.08-0.17-0.17-0.34-0.25l-2.02-0.59h-1.521v6.75h-2.54v-15.87h5.49c0.34 0 0.68 0.08 0.93 0.08 1.351 0 2.36 0.17 3.04 0.42 0.84 0.26 1.52 0.76 2.03 1.52z"/>
			<path d="m554.84 247.1c0-2.2-0.51-4.22-1.609-6.17-1.101-1.939-2.62-3.46-4.561-4.56-1.939-1.011-3.97-1.601-6-1.601h-0.08c-2.03 0-4.05 0.59-5.99 1.601-1.949 1.1-3.47 2.62-4.569 4.56-1.09 1.95-1.681 3.97-1.681 6.17 0 2.11 0.591 4.13 1.681 6.08 1.02 1.851 2.54 3.38 4.479 4.47 1.94 1.101 3.971 1.61 6.08 1.61h0.08c2.12 0 4.14-0.51 6.09-1.61 1.94-1.09 3.46-2.619 4.471-4.47 1.1-1.95 1.61-3.97 1.61-6.08zm2.45 0c0 2.45-0.6 4.9-1.95 7.26-1.26 2.36-3.04 4.141-5.399 5.4-2.37 1.36-4.73 1.95-7.271 1.95h-0.08c-2.53 0-4.899-0.59-7.26-1.95-2.37-1.26-4.14-3.04-5.41-5.4-1.35-2.359-1.939-4.81-1.939-7.26 0-2.62 0.59-5.069 1.939-7.439 1.35-2.36 3.13-4.13 5.49-5.4 2.37-1.27 4.729-1.86 7.18-1.939h0.08c2.45 0 4.82 0.67 7.18 1.939 2.37 1.271 4.23 3.04 5.49 5.4 1.35 2.37 1.95 4.82 1.95 7.44z"/>
			<polygon points="413.63 127.77 482.97 243.3 413.63 243.3 371.58 243.3 305.37 132.92 255.21 49.4 305.37 19.25 336.95 0.25"/>
			<path d="m463.97 323.52v47.38h-23.06v-5.239c-7.771 5.069-17.061 8.029-27.021 8.029h-0.26c-27.53-0.17-49.91-22.64-49.91-50.17 0-27.529 22.38-49.989 49.91-50.16h0.26c9.96 0 19.25 2.961 27.021 8.021v-5.49h23.06v47.63zm-23.06 5.24v-10.47c-2.45-12.67-13.68-22.3-27.021-22.3h-0.26c-15.11 0.09-27.36 12.42-27.36 27.529 0 15.12 12.25 27.45 27.36 27.62h0.26c13.34 0 24.57-9.71 27.02-22.38z"/>
			<path d="m355.7 323.52v47.38h-23.05v-5.239c-7.86 5.069-17.061 8.029-27.03 8.029h-0.25c-27.53-0.17-49.91-22.64-49.91-50.17 0-27.529 22.38-49.989 49.91-50.16h0.25c9.97 0 19.17 2.961 27.03 8.021v-38.08h23.05v80.22zm-23.05 5.24v-10.47c-2.45-12.67-13.69-22.3-27.03-22.3h-0.25c-15.12 0.09-27.36 12.42-27.36 27.529 0 15.12 12.24 27.45 27.36 27.62h0.25c13.34 0 24.58-9.71 27.03-22.38z"/>
			<polygon points="305.37 197.86 332.56 243.3 305.37 243.3 221.25 243.3 159.44 140.44 156.74 135.96 159.44 134.36 238.57 86.72"/>
			<rect width="25.08" height="97.54" x="221.34" y="273.36"/>
			<rect width="25.08" height="22.04" x="221.34" y="243.8"/>
			<path d="m209.85 323.52v47.38h-23.05v-5.239c-7.85 5.069-17.14 8.029-27.11 8.029h-0.25c-27.53-0.17-49.91-22.64-49.91-50.17 0-27.529 22.38-49.989 49.91-50.16h0.25c9.97 0 19.26 2.961 27.11 8.021v-38.08h23.05v80.22zm-23.05 5.24v-10.47c-2.45-12.67-13.68-22.3-27.11-22.3h-0.25c-15.12 0.09-27.36 12.42-27.36 27.529 0 15.12 12.24 27.45 27.36 27.62h0.25c13.43 0 24.66-9.71 27.11-22.38z"/>
			<polygon points="159.44 205.29 182.24 243.3 159.44 243.3 70.85 243.3 58.35 222.44 140.18 173.29"/>
			<path d="m100.49 323.52v47.38h-23.05v-5.239c-7.86 5.069-17.15 8.029-27.11 8.029h-0.26c-27.44-0.17-49.82-22.64-49.82-50.17 0-27.529 22.38-49.989 49.82-50.16h0.26c9.96 0 19.25 2.961 27.11 8.021v-5.49h23.05v47.63zm-23.05 5.24v-10.47c-2.45-12.67-13.68-22.3-27.11-22.3h-0.26c-15.03 0.09-27.27 12.42-27.27 27.529 0 15.12 12.24 27.45 27.27 27.62h0.26c13.43 0 24.66-9.71 27.11-22.38z"/>
</svg>
