<?xml version="1.0" encoding="UTF-8" standalone="no"?>
<svg xmlns:rdf="http://www.w3.org/1999/02/22-rdf-syntax-ns#" width="100%" version="1.1" x="0px" xmlns:cc="http://creativecommons.org/ns#" xmlns="http://www.w3.org/2000/svg" viewBox="0 0 480 178.9" enable-background="new 0 0 480 178.9" xmlns:dc="http://purl.org/dc/elements/1.1/" xml:space="preserve" height="100%" y="0px"><metadata><rdf:RDF><cc:Work rdf:about=""><dc:format>image/svg+xml</dc:format><dc:type rdf:resource="http://purl.org/dc/dcmitype/StillImage"/></cc:Work></rdf:RDF></metadata>
<path d="m467.3 119.7c1.5 0 2.7-0.7 2.7-2.3 0-0.7-0.3-1.5-1-1.8-0.6-0.4-1.4-0.4-2.1-0.4h-3.7v8.5h1v-3.9h1.9l0.6 1 1.8 2.9h1.2l-1.9-2.9-0.5-1.1m-1.4-0.8h-1.6v-3h2.4c1.1 0 2.2 0.2 2.2 1.5 0 1.7-1.8 1.5-3 1.5z" fill-rule="evenodd" fill="#E11383" clip-rule="evenodd"/>
<path d="m473.6 120.7c0.1-0.4 0.1-0.9 0.1-1.3 0-4.2-3.4-7.6-7.6-7.6s-7.7 3.4-7.7 7.6c0 0.5 0 0.9 0.1 1.3 0.6 3.6 3.8 6.3 7.5 6.3 3.8 0 6.9-2.7 7.6-6.3h-0.9c-0.6 3.1-3.3 5.4-6.6 5.4s-6-2.3-6.6-5.4c-0.1-0.4-0.1-0.9-0.1-1.3 0-3.7 3-6.7 6.7-6.7s6.7 3 6.7 6.7c0 0.5 0 0.9-0.1 1.3h0.9" fill-rule="evenodd" fill="#E11383" clip-rule="evenodd"/>
<path d="m17 59.4c-4.1-0.1-7.9-1.8-10.7-4.4-0.3 1.1-0.5 2.4-0.5 3.6v11.6c1.6-3.4 5.3-7 11.2-10.8" fill="#F5821F"/>
<path d="m27.4 114.8c-4.7-0.6-7.8-2.6-9.1-5.7l-11.9-30.2-0.5-1v79.6c0 7.9 6.4 14.3 14.3 14.3h37.5c-1.3-1.3-2.4-2.8-3.3-4.6 0 0-23-44.5-27-52.4" fill="#F5821F"/>
<path d="m105.4 44.3h-21.2l0.1 0.1c0.4 0.5 0.7 1.1 0.9 1.7 0.2 0.4 0.3 0.9 0.4 1.4 10.3 26 11.7 29.7 11.9 30.2v0.1-0.1c0.4 0.9 0.5 1.9 0.5 2.9 0 2.4-1 4.9-3.2 7.5 2.6 8 7.3 23.9 15.7 55l0.5 1.7v-0.1c3.3 10.7-1.6 20.7-12.9 27.3h7.3c7.9 0 14.3-6.4 14.3-14.3v-99.1c0-7.9-6.4-14.3-14.3-14.3" fill="#E11383"/>
<path d="m61.3 45.6c-6.1 1.3-13.3 3.5-19.9 6.1s-13.4 5.9-18.7 9.2c-9.3 5.5-14.1 10.5-13.2 13.8v0.3c0 0.4 0.1 0.7 0.2 1l0.4 0.7 0.2 0.4 12 30.4c0.7 1.8 3 2.9 6.8 3.2 0.6 0.1 1.2 0.4 1.5 1l27.7 53.6c5.3 10.5 20.5 10.2 32.3 5.4 13.3-5.4 19.4-14.6 16.3-24.8l-0.5-1.7c-8.9-32.9-13.7-48.7-16.1-56.2-0.2-0.6-0.1-1.3 0.4-1.8 2.6-2.8 3.5-5.1 2.8-7l-12-30.4-0.1-0.4-0.2-0.8-0.5-0.9-0.2-0.2c-1.7-3-8.6-3.3-19.2-0.9" fill="#683817"/>
<path d="m37.7 7.9c-3.4 2.5-5.5 6.2-6.2 10.6-0.9 6.1 2.6 10.2 5.7 13.8 3.3 3.9 6.2 7.3 4.4 13.2-0.2 0.6-0.1 1.1 0.2 1.6s0.7 0.9 1.3 1c1.1 0.4 2.3-0.3 2.7-1.4 2.5-8.1-1.8-13.2-5.3-17.2-3.3-3.8-5.3-6.4-4.7-10.4 0.5-3.3 2-5.9 4.5-7.7 3.6-2.7 8.3-3 9.5-2.8 5.1 0.8 6.6 4.7 7 6.3 0.3 1.1 0.3 2.2 0.2 3.3-0.3 2.3-1.4 4.3-3.2 5.7h-0.1c-2.1 1.1-3.9 1.1-5 0-1.1-1-1.2-2.6-0.8-3.5 0.4-0.8 1.5-1.1 3.1-0.9 0.6 0.1 1.1 0 1.6-0.4 0.5-0.3 0.8-0.8 0.9-1.4 0.2-1.2-0.6-2.3-1.8-2.5-3.5-0.6-6.3 0.6-7.6 3.1-1.4 2.7-0.7 6.3 1.6 8.5 2.6 2.5 6.4 2.7 10.3 0.6l0.3-0.2c4.2-3.1 6-8.5 4.8-13.6-1.2-5-5.2-8.6-10.5-9.5-2.3-0.1-8.2 0.3-12.9 3.8" fill="#683817"/>
<path d="m12.4 31.3c-4.4 3.1-6.4 6.8-6.8 10.4-0.4 3.1 0.4 6 2 8.3 3.3 4.8 10.1 7.2 17 2.7l0.1-0.1c3.6-2.7 3.5-8.1 1.1-11.4-2.3-3.2-6-3.7-9.5-1.4-1 0.7-1.2 2-0.6 3 0.3 0.5 0.8 0.8 1.4 0.9s1.1 0 1.6-0.3c2-1.4 3-0.5 3.6 0.3 0.7 0.9 1 2.3 0.8 3.5-0.1 0.9-0.4 1.5-1 1.9-4.7 3.1-8.9 1.4-11-1.6-2.3-3.4-2.1-8.6 3.7-12.7 5.7-3.9 9.9-1.5 11.8 0.3 3.7 3.4 5.2 9.3 3.1 12.9-0.6 1-0.2 2.4 0.8 2.9 0.5 0.3 1.1 0.4 1.6 0.2 0.6-0.2 1-0.5 1.3-1 3-5.4 1.3-13.4-4-18.2-4.6-4.4-11.1-4.7-17-0.6" fill="#683817"/>
<path d="m72.9 54c-7 0.8-17.4 3.6-27.4 7.5-10 4-19.6 9.4-25.2 13.7-3.9 0.3-6.3 0-7.2-0.5 0.6-2.4 10.2-11.2 30-19.1s32.5-8.3 34.6-6.9c-0.2 1-1.7 2.9-4.8 5.3" fill="#fff"/>
<path d="m102.9 146.8c2.6 8.6-3.9 15.7-13.9 19.7-10.4 4.2-23.1 4.4-27-3.4-1.3-2.7-18.7-34.6-27.2-52.5 8.7-0.9 19.3-4 27-7.1 7.8-3.1 17.6-8.1 24.5-13.4 6.3 18.9 15.7 53.8 16.6 56.7" fill="#fff"/>
<path d="m60.4 99.4c-18.3 7.2-32.1 7.8-34.2 6l-10.1-25.1c9.4 0.7 24-3.8 33.6-7.6s23.3-10.6 29.7-17.5l10.1 25.1c-0.4 2.7-10.8 11.8-29.1 19.1" fill="#fff"/>
</svg>
