<?xml version="1.0" encoding="UTF-8" standalone="no"?>
<!-- Created with Inkscape (http://www.inkscape.org/) -->

<svg
   xmlns:dc="http://purl.org/dc/elements/1.1/"
   xmlns:cc="http://creativecommons.org/ns#"
   xmlns:rdf="http://www.w3.org/1999/02/22-rdf-syntax-ns#"
   xmlns:svg="http://www.w3.org/2000/svg"
   xmlns="http://www.w3.org/2000/svg"
   xmlns:xlink="http://www.w3.org/1999/xlink"
   xmlns:sodipodi="http://sodipodi.sourceforge.net/DTD/sodipodi-0.dtd"
   xmlns:inkscape="http://www.inkscape.org/namespaces/inkscape"
   width="40"
   height="40"
   id="svg2"
   version="1.1"
   inkscape:version="0.48.5 r10040"
   sodipodi:docname="apple-core.svg">
  <defs
     id="defs4">
    <linearGradient
       id="linearGradient3771">
      <stop
         id="stop3773"
         offset="0"
         style="stop-color:#f1f3a6;stop-opacity:1;" />
      <stop
         id="stop3775"
         offset="1"
         style="stop-color:#dcec71;stop-opacity:1;" />
    </linearGradient>
    <linearGradient
       id="linearGradient3997">
      <stop
         style="stop-color:#e64f3f;stop-opacity:1;"
         offset="0"
         id="stop3999" />
      <stop
         style="stop-color:#af2517;stop-opacity:1;"
         offset="1"
         id="stop4001" />
    </linearGradient>
    <linearGradient
       inkscape:collect="always"
       xlink:href="#linearGradient3997"
       id="linearGradient4003"
       x1="9.2037506"
       y1="9.8930349"
       x2="25.590252"
       y2="28.464464"
       gradientUnits="userSpaceOnUse"
       gradientTransform="translate(0.72162018,1016.1015)" />
    <linearGradient
       inkscape:collect="always"
       xlink:href="#linearGradient3997"
       id="linearGradient2998"
       gradientUnits="userSpaceOnUse"
       gradientTransform="translate(0.72162018,1016.1015)"
       x1="9.2037506"
       y1="9.8930349"
       x2="25.590252"
       y2="28.464464" />
    <linearGradient
       inkscape:collect="always"
       xlink:href="#linearGradient3771"
       id="linearGradient3777"
       gradientUnits="userSpaceOnUse"
       gradientTransform="translate(0.72162018,1016.1015)"
       x1="15.275179"
       y1="16.589464"
       x2="21.572395"
       y2="21.857321" />
    <linearGradient
       inkscape:collect="always"
       xlink:href="#linearGradient3997"
       id="linearGradient3792"
       gradientUnits="userSpaceOnUse"
       gradientTransform="matrix(0.20633359,-0.97848171,0.97848171,0.20633359,-0.42433337,1053.317)"
       x1="9.2037506"
       y1="9.8930349"
       x2="25.590252"
       y2="28.464464" />
    <linearGradient
       inkscape:collect="always"
       xlink:href="#linearGradient3771"
       id="linearGradient3794"
       gradientUnits="userSpaceOnUse"
       gradientTransform="matrix(0.20633359,-0.97848171,0.97848171,0.20633359,-0.42433337,1053.317)"
       x1="15.275179"
       y1="16.589464"
       x2="21.572395"
       y2="21.857321" />
    <linearGradient
       inkscape:collect="always"
       xlink:href="#linearGradient3997"
       id="linearGradient3796"
       gradientUnits="userSpaceOnUse"
       gradientTransform="matrix(0.20633359,-0.97848171,0.97848171,0.20633359,-0.42433337,1053.317)"
       x1="9.2037506"
       y1="9.8930349"
       x2="25.590252"
       y2="28.464464" />
  </defs>
  <sodipodi:namedview
     id="base"
     pagecolor="#ffffff"
     bordercolor="#666666"
     borderopacity="1.0"
     inkscape:pageopacity="0.0"
     inkscape:pageshadow="2"
     inkscape:zoom="11.2"
     inkscape:cx="26.797178"
     inkscape:cy="20.279743"
     inkscape:document-units="px"
     inkscape:current-layer="layer1"
     showgrid="true"
     inkscape:window-width="1069"
     inkscape:window-height="674"
     inkscape:window-x="384"
     inkscape:window-y="221"
     inkscape:window-maximized="0"
     inkscape:snap-grids="false">
    <inkscape:grid
       type="xygrid"
       id="grid2985"
       empspacing="5"
       visible="true"
       enabled="true"
       snapvisiblegridlinesonly="true"
       dotted="false" />
  </sodipodi:namedview>
  <metadata
     id="metadata7">
    <rdf:RDF>
      <cc:Work
         rdf:about="">
        <dc:format>image/svg+xml</dc:format>
        <dc:type
           rdf:resource="http://purl.org/dc/dcmitype/StillImage" />
        <dc:title></dc:title>
      </cc:Work>
    </rdf:RDF>
  </metadata>
  <g
     inkscape:label="Layer 1"
     inkscape:groupmode="layer"
     id="layer1"
     transform="translate(0,-1012.3622)">
    <path
       style="fill:url(#linearGradient3796);fill-opacity:1;stroke:#511111;stroke-width:1px;stroke-linecap:butt;stroke-linejoin:miter;stroke-opacity:1"
       d="m 30.047543,1034.1065 c 0.555808,0.9546 1.165867,2.0163 1.391257,2.9442 0.134287,0.553 0.127057,0.9319 0.0672,1.1959 -0.05584,0.2648 -0.189443,0.4185 -0.367131,0.5293 -0.354788,0.2218 -0.869712,0.2729 -1.233074,0.6981 -0.36346,0.4253 -0.63996,0.8278 -0.645903,1.3968 -0.0059,0.5691 0.256208,1.295 1.04216,2.3276 0.393024,0.5164 0.560787,0.947 0.549995,1.3296 -0.01118,0.3826 -0.196536,0.7091 -0.446119,1.0557 -0.0015,0.01 -0.005,0.024 -0.0064,0.031 1.09635,0.7015 2.157136,1.4844 2.193224,1.2609 0.299788,-1.853 -0.299678,-3.2524 0.285111,-5.5928 0.372553,-3.0491 2.719075,-4.9093 2.424528,-6.8023 -0.09165,-0.4416 -2.113114,0.6012 -2.98058,-0.405 -0.694782,-0.8058 -1.444807,-0.518 -2.274222,0.031 z"
       id="path3001"
       inkscape:connector-curvature="0" />
    <path
       style="fill:url(#linearGradient3794);fill-opacity:1;stroke:#511111;stroke-width:1px;stroke-linecap:butt;stroke-linejoin:miter;stroke-opacity:1"
       d="m 15.585221,1033.3244 c 0.294695,0.8193 0.533973,1.6557 0.655885,2.342 0.131015,0.7376 0.132473,1.3191 -0.163012,1.5305 -0.295583,0.2114 -0.455507,0.4372 -0.528129,0.6871 -0.07311,0.2498 -0.0741,0.5113 -0.0019,0.7661 0.143498,0.5093 0.489401,1.0111 0.739909,1.3377 0.125302,0.1633 0.142322,0.4301 0.02871,0.7725 -0.114097,0.3424 -0.333211,0.7636 -0.637744,1.2069 -0.233294,0.3396 -0.695442,0.6731 -1.015859,1.0313 0.34115,-0.1488 0.623782,-0.2086 1.046285,-0.4181 1.391789,-0.6898 3.318298,-1.4951 6.256255,-1.0441 6.154089,0.9448 3.845723,5.2078 6.163169,3.184 0.316929,-0.2768 1.308791,0.2785 2.270698,0.894 0.0015,-0.01 0.005,-0.024 0.0064,-0.031 0.249778,-0.3465 0.435327,-0.673 0.446119,-1.0557 0.01118,-0.3826 -0.156971,-0.8132 -0.549995,-1.3296 -0.785952,-1.0326 -1.048103,-1.7585 -1.04216,-2.3276 0.0059,-0.569 0.28254,-0.9715 0.645903,-1.3968 0.363362,-0.4252 0.878286,-0.4763 1.233074,-0.6981 0.177296,-0.1108 0.307178,-0.2654 0.367131,-0.5293 0.05584,-0.2649 0.06708,-0.6429 -0.0672,-1.1959 -0.22539,-0.9279 -0.835449,-1.9896 -1.391257,-2.9442 -1.715589,1.1364 -3.877969,3.793 -7.34334,3.0186 -5.116071,-1.1434 -3.681425,-5.9501 -5.179652,-3.4556 -0.217626,0.3622 -1.019648,0.062 -1.93933,-0.3451 z"
       id="path2996"
       inkscape:connector-curvature="0" />
    <path
       style="fill:url(#linearGradient3792);fill-opacity:1;stroke:#511111;stroke-width:1px;stroke-linecap:butt;stroke-linejoin:miter;stroke-opacity:1"
       d="m 9.2814255,1041.8637 c -0.1759322,0.7471 2.4638135,-0.2258 2.9000825,0.4838 0.743016,1.2086 1.526134,1.0677 2.481567,0.651 0.320417,-0.3582 0.782565,-0.6917 1.015859,-1.0313 0.304533,-0.4433 0.524137,-0.8644 0.637744,-1.2069 0.114096,-0.3423 0.09678,-0.6092 -0.02871,-0.7725 -0.250508,-0.3266 -0.596411,-0.8284 -0.739909,-1.3377 -0.0718,-0.2547 -0.07081,-0.5163 0.0019,-0.7661 0.07311,-0.2498 0.232546,-0.4757 0.528129,-0.6871 0.295485,-0.2114 0.294027,-0.7929 0.163012,-1.5305 -0.121912,-0.6863 -0.36119,-1.5227 -0.655885,-2.342 -1.700467,-0.7528 -3.855801,-2.0776 -3.979619,-1.5737 -0.639762,2.6025 0.388661,4.1927 0.08031,5.2227 -0.308157,1.03 -1.543648,1.2394 -2.4044855,4.8903 z"
       id="path3987"
       inkscape:connector-curvature="0" />
    <path
       style="fill:#664a14;fill-opacity:1;stroke:none"
       d="m 13.826585,1038.5286 c -6.202889,-1.3081 -8.7668368,-7.3237 -8.7668368,-7.3237 l 1.8304349,-0.8915 c 0,0 1.6124505,4.9025 7.2727449,6.1873"
       id="path4005"
       inkscape:connector-curvature="0"
       sodipodi:nodetypes="cccc" />
    <path
       style="fill:none;stroke:#511111;stroke-width:1px;stroke-linecap:butt;stroke-linejoin:miter;stroke-opacity:1"
       d="m 12.690247,1040.0227 c 1.104228,-1.7747 1.491103,-3.6093 1.068514,-5.0672"
       id="path4007"
       inkscape:connector-curvature="0" />
  </g>
</svg>
