<?xml version="1.0" encoding="UTF-8" standalone="no"?>
<!-- Created with Inkscape (http://www.inkscape.org/) -->

<svg
   xmlns:dc="http://purl.org/dc/elements/1.1/"
   xmlns:cc="http://creativecommons.org/ns#"
   xmlns:rdf="http://www.w3.org/1999/02/22-rdf-syntax-ns#"
   xmlns:svg="http://www.w3.org/2000/svg"
   xmlns="http://www.w3.org/2000/svg"
   xmlns:sodipodi="http://sodipodi.sourceforge.net/DTD/sodipodi-0.dtd"
   xmlns:inkscape="http://www.inkscape.org/namespaces/inkscape"
   width="40"
   height="40"
   id="svg2"
   version="1.1"
   inkscape:version="0.48.5 r10040"
   sodipodi:docname="cocoa.svg">
  <defs
     id="defs4" />
  <sodipodi:namedview
     id="base"
     pagecolor="#ffffff"
     bordercolor="#666666"
     borderopacity="1.0"
     inkscape:pageopacity="0.0"
     inkscape:pageshadow="2"
     inkscape:zoom="11.2"
     inkscape:cx="17.410319"
     inkscape:cy="20.279743"
     inkscape:document-units="px"
     inkscape:current-layer="layer1"
     showgrid="true"
     inkscape:window-width="1069"
     inkscape:window-height="674"
     inkscape:window-x="384"
     inkscape:window-y="221"
     inkscape:window-maximized="0"
     inkscape:snap-grids="false">
    <inkscape:grid
       type="xygrid"
       id="grid2985"
       empspacing="5"
       visible="true"
       enabled="true"
       snapvisiblegridlinesonly="true"
       dotted="false" />
  </sodipodi:namedview>
  <metadata
     id="metadata7">
    <rdf:RDF>
      <cc:Work
         rdf:about="">
        <dc:format>image/svg+xml</dc:format>
        <dc:type
           rdf:resource="http://purl.org/dc/dcmitype/StillImage" />
        <dc:title />
      </cc:Work>
    </rdf:RDF>
  </metadata>
  <g
     inkscape:label="Layer 1"
     inkscape:groupmode="layer"
     id="layer1"
     transform="translate(0,-1012.3622)">
    <path
       style="fill:#bfb791;fill-opacity:1;stroke:#000000;stroke-width:1px;stroke-linecap:butt;stroke-linejoin:bevel;stroke-opacity:1"
       d="m 24.910715,1031.0229 c 0,0 5.089285,-2.5 6.517857,-2.5 1.428571,0 1.696428,0.3572 1.696428,0.9822 0,0.625 0,9.2857 -0.178571,9.7321 -0.178571,0.4464 -0.535714,0.7143 -1.517857,1.1607 -0.982143,0.4465 -6.964286,2.5 -6.964286,2.5 l 0.267857,-3.125 5.625001,-1.875 -0.178573,-5.9821 -5.446427,2.4107 z"
       id="path3776"
       inkscape:connector-curvature="0"
       sodipodi:nodetypes="csssscccccc" />
    <path
       style="fill:#bfb791;fill-opacity:1;stroke:#000000;stroke-width:1px;stroke-linecap:butt;stroke-linejoin:miter;stroke-opacity:1"
       d="m 10.892857,1028.255 c 0,0 -0.803572,-3.4821 7.946429,-3.4821 8.75,0 8.928571,3.2143 8.928571,3.2143 L 27.5,1038.88 10.982143,1038.6122 z"
       id="path2992"
       inkscape:connector-curvature="0"
       sodipodi:nodetypes="cscccc" />
    <path
       style="fill:#754d18;fill-opacity:1;stroke:none"
       d="m 10.982143,1030.0408 c 0,0 -0.714286,-2.9464 7.946429,-2.9464 8.660714,0 8.928571,3.2142 8.928571,3.2142 l -0.178576,5.4465 -16.517857,-0.1786 z"
       id="path3762"
       inkscape:connector-curvature="0"
       sodipodi:nodetypes="cscccc" />
    <path
       style="fill:#cfc9ad;fill-opacity:1;stroke:#000000;stroke-width:1px;stroke-linecap:butt;stroke-linejoin:miter;stroke-opacity:1"
       d="m 10.892857,1043.7015 c 0,0 -0.08929,3.6607 8.392857,3.75 8.482143,0.089 8.482143,-3.75 8.482143,-3.75 l 0,-15.9822 c 0,0 -0.178572,3.5714 -8.482143,3.4822 -8.303571,-0.089 -8.482143,-3.3036 -8.482143,-3.3036 z"
       id="path2990"
       inkscape:connector-curvature="0"
       sodipodi:nodetypes="csccscc" />
    <path
       style="fill:none;stroke:#000000;stroke-width:1px;stroke-linecap:round;stroke-linejoin:round;stroke-opacity:1"
       d="m 13.303571,1036.1122 c 0.196285,-0.2667 0.64276,-0.051 0.864139,-0.3417 0.473798,-0.2115 0.94899,-0.4239 1.458015,-0.5298 0.459519,-0.1471 1.037992,-0.5485 1.474893,-0.142 0.343606,0.448 0.315261,1.0661 0.471659,1.5959 0.171255,0.4099 0.01626,0.9075 0.181242,1.277 0.483989,-0.1318 0.889803,-0.554 1.400429,-0.6952 0.442397,-0.2609 0.992126,-0.2173 1.440574,-0.4744 0.546139,-0.2435 1.097316,0.016 1.485734,0.4085 0.42423,0.2945 0.808796,0.6441 1.328428,0.7567 0.523209,0.1744 1.01784,-0.1595 1.481053,-0.3587 0.187891,-0.1074 0.524464,-0.1851 0.556856,-0.3363"
       id="path3764"
       inkscape:connector-curvature="0" />
    <path
       style="fill:none;stroke:#000000;stroke-width:1px;stroke-linecap:round;stroke-linejoin:round;stroke-opacity:1"
       d="m 14.017858,1040.8443 c 0.455076,-0.03 0.907129,0.012 1.346967,0.1234 0.572795,0.1207 1.141173,0.2446 1.722946,0.3122 0.455774,0.2299 0.957076,10e-5 1.421381,0.1325 0.301452,0.3843 0.211313,0.966 0.347216,1.4279 0.290145,0.396 0.831414,-0.038 0.983017,-0.2624 0.247238,-0.3014 0.696363,-0.4345 0.934473,-0.7742 0.292793,-0.1192 0.484079,-0.6839 0.97077,-0.5233 0.467711,0.037 0.938786,-0.015 1.409114,0.011 0.342452,-0.034 0.739687,0.105 1.025308,-0.1308 0.0682,-0.04 0.134529,-0.084 0.196046,-0.1342"
       id="path3770"
       inkscape:connector-curvature="0" />
    <path
       style="fill:none;stroke:#000000;stroke-width:1px;stroke-linecap:butt;stroke-linejoin:miter;stroke-opacity:1"
       d="m 29.732143,1032.0943 1.339286,-0.625"
       id="path3778"
       inkscape:connector-curvature="0" />
    <path
       style="fill:none;stroke:#000000;stroke-width:1px;stroke-linecap:butt;stroke-linejoin:miter;stroke-opacity:1"
       d="m 29.732143,1038.0765 1.339286,-0.4464"
       id="path3780"
       inkscape:connector-curvature="0"
       sodipodi:nodetypes="cc" />
    <path
       style="fill:none;stroke:#000000;stroke-width:1px;stroke-linecap:butt;stroke-linejoin:miter;stroke-opacity:1"
       d="m 16.875,1022.8979 c -0.08929,-1.6964 -1.071429,-2.9464 -0.446429,-4.1071 0.625,-1.1608 2.678572,-2.2322 2.589286,-3.0358"
       id="path3782"
       inkscape:connector-curvature="0" />
    <path
       style="fill:none;stroke:#000000;stroke-width:1px;stroke-linecap:butt;stroke-linejoin:miter;stroke-opacity:1"
       d="m 19.878799,1023.5229 c -0.08929,-1.6965 -1.071429,-2.3215 -0.446429,-3.4822 0.625,-1.1607 2.232143,-1.6071 2.142857,-2.4107"
       id="path3782-1"
       inkscape:connector-curvature="0"
       sodipodi:nodetypes="csc" />
  </g>
</svg>
