<?xml version="1.0" encoding="UTF-8" standalone="no"?>
<!-- Created with Inkscape (http://www.inkscape.org/) -->

<svg
   xmlns:dc="http://purl.org/dc/elements/1.1/"
   xmlns:cc="http://creativecommons.org/ns#"
   xmlns:rdf="http://www.w3.org/1999/02/22-rdf-syntax-ns#"
   xmlns:svg="http://www.w3.org/2000/svg"
   xmlns="http://www.w3.org/2000/svg"
   xmlns:sodipodi="http://sodipodi.sourceforge.net/DTD/sodipodi-0.dtd"
   xmlns:inkscape="http://www.inkscape.org/namespaces/inkscape"
   width="40"
   height="40"
   id="svg2"
   version="1.1"
   inkscape:version="0.48.5 r10040"
   sodipodi:docname="rock.svg">
  <defs
     id="defs4">
    <linearGradient
       id="linearGradient4265">
      <stop
         style="stop-color:#7b7b7b;stop-opacity:1;"
         offset="0"
         id="stop4267" />
      <stop
         style="stop-color:#afafaf;stop-opacity:1;"
         offset="1"
         id="stop4269" />
    </linearGradient>
  </defs>
  <sodipodi:namedview
     id="base"
     pagecolor="#ffffff"
     bordercolor="#666666"
     borderopacity="1.0"
     inkscape:pageopacity="0.0"
     inkscape:pageshadow="2"
     inkscape:zoom="11.2"
     inkscape:cx="23.428329"
     inkscape:cy="20.279743"
     inkscape:document-units="px"
     inkscape:current-layer="layer1"
     showgrid="true"
     inkscape:window-width="1069"
     inkscape:window-height="674"
     inkscape:window-x="384"
     inkscape:window-y="221"
     inkscape:window-maximized="0"
     inkscape:snap-grids="false">
    <inkscape:grid
       type="xygrid"
       id="grid2985"
       empspacing="5"
       visible="true"
       enabled="true"
       snapvisiblegridlinesonly="true"
       dotted="false" />
  </sodipodi:namedview>
  <metadata
     id="metadata7">
    <rdf:RDF>
      <cc:Work
         rdf:about="">
        <dc:format>image/svg+xml</dc:format>
        <dc:type
           rdf:resource="http://purl.org/dc/dcmitype/StillImage" />
        <dc:title></dc:title>
      </cc:Work>
    </rdf:RDF>
  </metadata>
  <g
     inkscape:label="Layer 1"
     inkscape:groupmode="layer"
     id="layer1"
     transform="translate(0,-1012.3622)">
    <rect
       style="fill:#976419;fill-opacity:1;stroke:#56390e;stroke-width:0.69999999000000002;stroke-linecap:round;stroke-miterlimit:4;stroke-opacity:1;stroke-dasharray:none"
       id="rect4021"
       width="32"
       height="32"
       x="4"
       y="4"
       transform="translate(0,1012.3622)" />
    <rect
       style="fill:#cf8822;fill-opacity:1;stroke:#56390e;stroke-width:0.5;stroke-linecap:round;stroke-miterlimit:4;stroke-opacity:1;stroke-dasharray:none"
       id="rect3009-1"
       width="32"
       height="5.0000172"
       x="4"
       y="1016.3622" />
    <rect
       style="fill:#cf8822;fill-opacity:1;stroke:#56390e;stroke-width:0.5;stroke-linecap:round;stroke-miterlimit:4;stroke-opacity:1;stroke-dasharray:none"
       id="rect3009-1-7"
       width="32"
       height="5.0000172"
       x="4"
       y="1043.3622" />
    <rect
       style="fill:#bd7c1f;fill-opacity:1;stroke:#56390e;stroke-width:0.50000000000000000;stroke-linecap:round;stroke-miterlimit:4;stroke-opacity:1;stroke-dasharray:none"
       id="rect3009-1-4"
       width="5"
       height="22.000017"
       x="4"
       y="1021.3622" />
    <rect
       style="fill:#bd7c1f;fill-opacity:1;stroke:#56390e;stroke-width:0.50000000000000000;stroke-linecap:round;stroke-miterlimit:4;stroke-opacity:1;stroke-dasharray:none"
       id="rect3009-1-4-0"
       width="5"
       height="22.000017"
       x="31"
       y="1021.3622" />
    <path
       style="fill:none;stroke:#ebc084;stroke-width:0.7;stroke-linecap:butt;stroke-linejoin:miter;stroke-opacity:1;stroke-miterlimit:4;stroke-dasharray:none"
       d="M 5,8 5,5 35,5"
       id="path3879"
       inkscape:connector-curvature="0"
       transform="translate(0,1012.3622)" />
    <path
       style="fill:none;stroke:#ebc084;stroke-width:0.7;stroke-linecap:butt;stroke-linejoin:miter;stroke-opacity:1;stroke-miterlimit:4;stroke-dasharray:none"
       d="M 5,30 5,10 8,10"
       id="path3881"
       inkscape:connector-curvature="0"
       transform="translate(0,1012.3622)" />
    <path
       style="fill:none;stroke:#ebc084;stroke-width:0.7;stroke-linecap:butt;stroke-linejoin:miter;stroke-miterlimit:4;stroke-opacity:1;stroke-dasharray:none"
       d="m 5,1047.3622 0,-3 30,0"
       id="path3879-4"
       inkscape:connector-curvature="0" />
    <path
       style="fill:none;stroke:#ebc084;stroke-width:0.69999999;stroke-linecap:butt;stroke-linejoin:miter;stroke-miterlimit:4;stroke-opacity:1;stroke-dasharray:none"
       d="m 32,1042.3622 0,-20 3,0"
       id="path3881-7"
       inkscape:connector-curvature="0" />
    <rect
       style="fill:#cf8822;fill-opacity:1;stroke:#56390e;stroke-width:0.5;stroke-linecap:round;stroke-miterlimit:4;stroke-opacity:1;stroke-dasharray:none"
       id="rect3009-1-2"
       width="32"
       height="5.0000172"
       x="-731.84814"
       y="741.63245"
       transform="matrix(0.70710678,-0.70710678,0.70710678,0.70710678,0,0)" />
    <path
       style="fill:none;stroke:#ebc084;stroke-width:0.69999999;stroke-linecap:butt;stroke-linejoin:miter;stroke-miterlimit:4;stroke-opacity:1;stroke-dasharray:none"
       d="m 8.589828,1041.8188 21.2132,-21.2132"
       id="path3879-6-1"
       inkscape:connector-curvature="0"
       sodipodi:nodetypes="cc" />
    <rect
       style="fill:#cf8822;fill-opacity:1;stroke:#56390e;stroke-width:0.5;stroke-linecap:round;stroke-miterlimit:4;stroke-opacity:1;stroke-dasharray:none"
       id="rect3009-1-2-7"
       width="32"
       height="5.0000172"
       x="728.13245"
       y="713.34821"
       transform="matrix(0.70710678,0.70710678,-0.70710678,0.70710678,0,0)" />
    <path
       style="fill:none;stroke:#ebc084;stroke-width:0.69999999;stroke-linecap:butt;stroke-linejoin:miter;stroke-miterlimit:4;stroke-opacity:1;stroke-dasharray:none"
       d="m 8.4322515,1023.0372 2.1213195,-2.1214"
       id="path3879-6"
       inkscape:connector-curvature="0"
       sodipodi:nodetypes="cc" />
    <path
       sodipodi:type="arc"
       style="fill:#4c4c4c;fill-opacity:1;stroke:none"
       id="path4023"
       sodipodi:cx="30"
       sodipodi:cy="10"
       sodipodi:rx="1"
       sodipodi:ry="1"
       d="m 31,10 a 1,1 0 1 1 -2,0 1,1 0 1 1 2,0 z"
       transform="matrix(0.6,0,0,0.6,11.6,1016.7622)" />
    <path
       sodipodi:type="arc"
       style="fill:#4c4c4c;fill-opacity:1;stroke:none"
       id="path4023-4"
       sodipodi:cx="30"
       sodipodi:cy="10"
       sodipodi:rx="1"
       sodipodi:ry="1"
       d="m 31,10 a 1,1 0 1 1 -2,0 1,1 0 1 1 2,0 z"
       transform="matrix(0.6,0,0,0.6,15.571429,1012.9693)" />
    <path
       sodipodi:type="arc"
       style="fill:#4c4c4c;fill-opacity:1;stroke:none"
       id="path4023-2"
       sodipodi:cx="30"
       sodipodi:cy="10"
       sodipodi:rx="1"
       sodipodi:ry="1"
       d="m 31,10 a 1,1 0 1 1 -2,0 1,1 0 1 1 2,0 z"
       transform="matrix(0.6,0,0,0.6,-11.482143,1012.9693)" />
    <path
       sodipodi:type="arc"
       style="fill:#4c4c4c;fill-opacity:1;stroke:none"
       id="path4023-3"
       sodipodi:cx="30"
       sodipodi:cy="10"
       sodipodi:rx="1"
       sodipodi:ry="1"
       d="m 31,10 a 1,1 0 1 1 -2,0 1,1 0 1 1 2,0 z"
       transform="matrix(0.6,0,0,0.6,15.482143,1040.0229)" />
    <path
       sodipodi:type="arc"
       style="fill:#4c4c4c;fill-opacity:1;stroke:none"
       id="path4023-22"
       sodipodi:cx="30"
       sodipodi:cy="10"
       sodipodi:rx="1"
       sodipodi:ry="1"
       d="m 31,10 a 1,1 0 1 1 -2,0 1,1 0 1 1 2,0 z"
       transform="matrix(0.6,0,0,0.6,-11.482143,1039.9336)" />
    <path
       sodipodi:type="arc"
       style="fill:#4c4c4c;fill-opacity:1;stroke:none"
       id="path4023-1"
       sodipodi:cx="30"
       sodipodi:cy="10"
       sodipodi:rx="1"
       sodipodi:ry="1"
       d="m 31,10 a 1,1 0 1 1 -2,0 1,1 0 1 1 2,0 z"
       transform="matrix(0.6,0,0,0.6,-7.4642853,1035.9157)" />
    <path
       sodipodi:type="arc"
       style="fill:#4c4c4c;fill-opacity:1;stroke:none"
       id="path4023-6"
       sodipodi:cx="30"
       sodipodi:cy="10"
       sodipodi:rx="1"
       sodipodi:ry="1"
       d="m 31,10 a 1,1 0 1 1 -2,0 1,1 0 1 1 2,0 z"
       transform="matrix(0.6,0,0,0.6,-7.5535714,1016.9872)" />
    <path
       sodipodi:type="arc"
       style="fill:#4c4c4c;fill-opacity:1;stroke:none"
       id="path4023-8"
       sodipodi:cx="30"
       sodipodi:cy="10"
       sodipodi:rx="1"
       sodipodi:ry="1"
       d="m 31,10 a 1,1 0 1 1 -2,0 1,1 0 1 1 2,0 z"
       transform="matrix(0.6,0,0,0.6,11.464286,1036.0051)" />
    <path
       sodipodi:type="arc"
       style="fill:#4c4c4c;fill-opacity:1;stroke:none"
       id="path4023-5"
       sodipodi:cx="30"
       sodipodi:cy="10"
       sodipodi:rx="1"
       sodipodi:ry="1"
       d="m 31,10 a 1,1 0 1 1 -2,0 1,1 0 1 1 2,0 z"
       transform="matrix(0.6,0,0,0.6,15.571428,1017.9693)" />
    <path
       sodipodi:type="arc"
       style="fill:#4c4c4c;fill-opacity:1;stroke:none"
       id="path4023-7"
       sodipodi:cx="30"
       sodipodi:cy="10"
       sodipodi:rx="1"
       sodipodi:ry="1"
       d="m 31,10 a 1,1 0 1 1 -2,0 1,1 0 1 1 2,0 z"
       transform="matrix(0.6,0,0,0.6,15.482142,1035.0229)" />
    <path
       sodipodi:type="arc"
       style="fill:#4c4c4c;fill-opacity:1;stroke:none"
       id="path4023-61"
       sodipodi:cx="30"
       sodipodi:cy="10"
       sodipodi:rx="1"
       sodipodi:ry="1"
       d="m 31,10 a 1,1 0 1 1 -2,0 1,1 0 1 1 2,0 z"
       transform="matrix(0.6,0,0,0.6,-11.482143,1017.9693)" />
    <path
       sodipodi:type="arc"
       style="fill:#4c4c4c;fill-opacity:1;stroke:none"
       id="path4023-89"
       sodipodi:cx="30"
       sodipodi:cy="10"
       sodipodi:rx="1"
       sodipodi:ry="1"
       d="m 31,10 a 1,1 0 1 1 -2,0 1,1 0 1 1 2,0 z"
       transform="matrix(0.6,0,0,0.6,-11.392857,1034.9336)" />
  </g>
</svg>
