<?xml version="1.0" encoding="UTF-8" standalone="no"?>
<!-- Created with Inkscape (http://www.inkscape.org/) -->

<svg
   xmlns:dc="http://purl.org/dc/elements/1.1/"
   xmlns:cc="http://creativecommons.org/ns#"
   xmlns:rdf="http://www.w3.org/1999/02/22-rdf-syntax-ns#"
   xmlns:svg="http://www.w3.org/2000/svg"
   xmlns="http://www.w3.org/2000/svg"
   xmlns:xlink="http://www.w3.org/1999/xlink"
   xmlns:sodipodi="http://sodipodi.sourceforge.net/DTD/sodipodi-0.dtd"
   xmlns:inkscape="http://www.inkscape.org/namespaces/inkscape"
   width="40"
   height="40"
   id="svg2"
   version="1.1"
   inkscape:version="0.48.5 r10040"
   sodipodi:docname="milk.svg">
  <defs
     id="defs4">
    <linearGradient
       id="linearGradient5103">
      <stop
         style="stop-color:#afafaf;stop-opacity:1;"
         offset="0"
         id="stop5105" />
      <stop
         style="stop-color:#e6e6e6;stop-opacity:1;"
         offset="1"
         id="stop5107" />
    </linearGradient>
    <linearGradient
       id="linearGradient5089">
      <stop
         style="stop-color:#ffffff;stop-opacity:1;"
         offset="0"
         id="stop5091" />
      <stop
         style="stop-color:#d6d6d6;stop-opacity:1;"
         offset="1"
         id="stop5093" />
    </linearGradient>
    <linearGradient
       id="linearGradient4787">
      <stop
         style="stop-color:#935400;stop-opacity:1;"
         offset="0"
         id="stop4789" />
      <stop
         style="stop-color:#e68400;stop-opacity:1;"
         offset="1"
         id="stop4791" />
    </linearGradient>
    <linearGradient
       id="linearGradient4740">
      <stop
         style="stop-color:#e18100;stop-opacity:1;"
         offset="0"
         id="stop4742" />
      <stop
         style="stop-color:#f8ae00;stop-opacity:1;"
         offset="1"
         id="stop4744" />
    </linearGradient>
    <linearGradient
       id="linearGradient4787-2">
      <stop
         style="stop-color:#935400;stop-opacity:1;"
         offset="0"
         id="stop4789-6" />
      <stop
         style="stop-color:#e68400;stop-opacity:1;"
         offset="1"
         id="stop4791-0" />
    </linearGradient>
    <linearGradient
       inkscape:collect="always"
       xlink:href="#linearGradient5089"
       id="linearGradient5095"
       x1="13"
       y1="11"
       x2="20"
       y2="16"
       gradientUnits="userSpaceOnUse"
       gradientTransform="matrix(0.05581359,0.99844121,-0.99844121,0.05581359,40.604095,1011.6368)" />
    <linearGradient
       inkscape:collect="always"
       xlink:href="#linearGradient5103"
       id="linearGradient5109"
       x1="23"
       y1="13"
       x2="24"
       y2="16"
       gradientUnits="userSpaceOnUse"
       gradientTransform="matrix(0.05581359,0.99844121,-0.99844121,0.05581359,40.604066,1011.6368)" />
    <linearGradient
       inkscape:collect="always"
       xlink:href="#linearGradient5089"
       id="linearGradient5117"
       x1="11"
       y1="18"
       x2="19"
       y2="30"
       gradientUnits="userSpaceOnUse"
       gradientTransform="matrix(0.05581359,0.99844121,-0.99844121,0.05581359,40.604095,1011.6368)" />
    <linearGradient
       inkscape:collect="always"
       xlink:href="#linearGradient5089-2"
       id="linearGradient5117-6"
       x1="11"
       y1="18"
       x2="19"
       y2="30"
       gradientUnits="userSpaceOnUse" />
    <linearGradient
       id="linearGradient5089-2">
      <stop
         style="stop-color:#ffffff;stop-opacity:1;"
         offset="0"
         id="stop5091-7" />
      <stop
         style="stop-color:#d6d6d6;stop-opacity:1;"
         offset="1"
         id="stop5093-5" />
    </linearGradient>
    <linearGradient
       id="linearGradient5134">
      <stop
         style="stop-color:#ffffff;stop-opacity:1;"
         offset="0"
         id="stop5136" />
      <stop
         style="stop-color:#d6d6d6;stop-opacity:1;"
         offset="1"
         id="stop5138" />
    </linearGradient>
  </defs>
  <sodipodi:namedview
     id="base"
     pagecolor="#ffffff"
     bordercolor="#666666"
     borderopacity="1.0"
     inkscape:pageopacity="0.0"
     inkscape:pageshadow="2"
     inkscape:zoom="11.2"
     inkscape:cx="17.193847"
     inkscape:cy="20"
     inkscape:document-units="px"
     inkscape:current-layer="layer1"
     showgrid="true"
     inkscape:window-width="963"
     inkscape:window-height="674"
     inkscape:window-x="534"
     inkscape:window-y="152"
     inkscape:window-maximized="0"
     inkscape:snap-grids="false">
    <inkscape:grid
       type="xygrid"
       id="grid2985"
       empspacing="5"
       visible="true"
       enabled="true"
       snapvisiblegridlinesonly="true"
       dotted="false" />
  </sodipodi:namedview>
  <metadata
     id="metadata7">
    <rdf:RDF>
      <cc:Work
         rdf:about="">
        <dc:format>image/svg+xml</dc:format>
        <dc:type
           rdf:resource="http://purl.org/dc/dcmitype/StillImage" />
        <dc:title></dc:title>
      </cc:Work>
    </rdf:RDF>
  </metadata>
  <g
     inkscape:label="Layer 1"
     inkscape:groupmode="layer"
     id="layer1"
     transform="translate(0,-1012.3622)">
    <path
       style="fill:url(#linearGradient5109);fill-opacity:1;stroke:none"
       d="m 26.663101,1039.9591 -1.916263,-7.4046 6.213901,3.6589 z"
       id="path5101"
       inkscape:connector-curvature="0"
       sodipodi:nodetypes="cccc" />
    <path
       style="fill:#6b6b6b;fill-opacity:1;stroke:none"
       d="m 28.908043,1035.3265 2.052696,0.8869 -4.297638,3.7457 z"
       id="path5097"
       inkscape:connector-curvature="0"
       sodipodi:nodetypes="cccc" />
    <path
       style="fill:url(#linearGradient5117);fill-opacity:1;stroke:#474747;stroke-width:1px;stroke-linecap:butt;stroke-linejoin:round;stroke-opacity:1"
       d="m 12.790348,1024.7096 5.04802,0.7194 4.936392,-1.2776 3.410824,-1.693 -1.438746,10.0961 -3.355011,2.6914 -2.995323,0.1675 -2.93951,1.1659 -8.682098,-3.0202 z"
       id="path5079"
       inkscape:connector-curvature="0"
       sodipodi:nodetypes="cccccccccc" />
    <path
       style="fill:#c6c6c6;fill-opacity:1;stroke:#474747;stroke-width:1px;stroke-linecap:butt;stroke-linejoin:round;stroke-opacity:1"
       d="m 24.746838,1032.5545 1.916263,7.4046 -5.103833,-1.7178 -5.934833,1.3333 -3.355011,2.6914 -0.750382,-4.4651 -4.744146,-4.2418 8.682098,3.0202 2.93951,-1.1659 2.995323,-0.1675 z"
       id="path5081"
       inkscape:connector-curvature="0"
       sodipodi:nodetypes="ccccccccccc" />
    <path
       style="fill:none;stroke:#474747;stroke-width:1px;stroke-linecap:butt;stroke-linejoin:round;stroke-opacity:1"
       d="m 24.746838,1032.5545 6.213901,3.6589 -4.297638,3.7457 z"
       id="path5083"
       inkscape:connector-curvature="0"
       sodipodi:nodetypes="cccc" />
    <path
       style="fill:url(#linearGradient5095);fill-opacity:1;stroke:#474747;stroke-width:1px;stroke-linecap:butt;stroke-linejoin:round;stroke-opacity:1"
       d="m 26.185584,1022.4584 -1.438746,10.0961 3.689891,3.2992 2.52401,0.3597 -1.029449,-9.4573 -2.052696,-0.8868 z"
       id="path5085"
       inkscape:connector-curvature="0"
       sodipodi:nodetypes="ccccccc" />
    <path
       style="fill:#bdbdbd;fill-opacity:1;stroke:#474747;stroke-width:1px;stroke-linecap:butt;stroke-linejoin:round;stroke-opacity:1"
       d="m 30.960739,1036.2134 2.264365,-0.1266 -1.241118,-8.4439 -2.052696,-0.8868 z"
       id="path5087"
       inkscape:connector-curvature="0"
       sodipodi:nodetypes="ccccc" />
    <path
       style="fill:#262626;fill-opacity:1;stroke:none"
       d="m 11.903298,1026.1184 c 1.352163,0.1927 3.289024,1.247 2.383105,2.639 -0.905819,1.392 -2.867596,-0.108 -2.614524,1.2192 0.252972,1.3273 0.921947,2.0947 1.521596,3.2237 0.599649,1.129 -0.127948,2.5111 -0.127948,2.5111 l -6.1123094,-2.1622 z"
       id="path5177"
       inkscape:connector-curvature="0"
       sodipodi:nodetypes="cccsccc" />
    <path
       style="fill:none;stroke:#474747;stroke-width:1px;stroke-linecap:butt;stroke-linejoin:round;stroke-opacity:1"
       d="m 12.790348,1024.7096 5.04802,0.7194 4.936392,-1.2776 3.410824,-1.693 -1.438746,10.0961 -3.355011,2.6914 -2.995323,0.1675 -2.93951,1.1659 -8.682098,-3.0202 z"
       id="path5079-8"
       inkscape:connector-curvature="0"
       sodipodi:nodetypes="cccccccccc" />
    <path
       style="fill:#262626;fill-opacity:1;stroke:none"
       d="m 20.563902,1035.4711 c 0.966159,1.2873 1.303167,1.7439 2.332868,0.7817 1.033319,-0.9656 0.762244,-1.4019 1.351926,-0.4512 0.589682,0.9507 0.277821,1.4511 1.248523,1.218 0.970603,-0.2332 -0.61561,-4.2938 -0.61561,-4.2938 z"
       id="path5181"
       inkscape:connector-curvature="0"
       sodipodi:nodetypes="cssccc" />
    <path
       style="fill:#262626;fill-opacity:1;stroke:none"
       d="m 16.13754,1039.4744 c 0.801708,-1.6545 0.925213,-2.6451 2.623952,-2.6506 1.698739,-0.01 2.481153,-0.407 1.545334,0.4501 -0.935719,0.8572 -0.375837,1.273 -0.375837,1.273 z"
       id="path5185"
       inkscape:connector-curvature="0"
       sodipodi:nodetypes="csccc" />
    <path
       style="fill:none;stroke:#474747;stroke-width:1px;stroke-linecap:butt;stroke-linejoin:round;stroke-opacity:1"
       d="m 24.746838,1032.5545 1.916263,7.4046 -5.103833,-1.7178 -5.934833,1.3333 -3.355011,2.6914 -0.750382,-4.4651 -4.744146,-4.2418 8.682098,3.0202 2.899408,-1.2562 3.035425,-0.077 z"
       id="path5081-2"
       inkscape:connector-curvature="0"
       sodipodi:nodetypes="ccccccccccc" />
    <path
       style="fill:none;stroke:#474747;stroke-width:1px;stroke-linecap:butt;stroke-linejoin:round;stroke-opacity:1"
       d="m 24.746838,1032.5545 3.689891,3.2992 2.52401,0.3597 -4.297638,3.7457 z"
       id="path5083-7"
       inkscape:connector-curvature="0"
       sodipodi:nodetypes="ccccc" />
    <path
       style="fill:none;stroke:#474747;stroke-width:1px;stroke-linecap:butt;stroke-linejoin:round;stroke-opacity:1"
       d="m 26.185584,1022.4584 -1.438746,10.0961 3.689891,3.2992 2.52401,0.3597 -1.029449,-9.4573 -2.052696,-0.8868 z"
       id="path5085-8"
       inkscape:connector-curvature="0"
       sodipodi:nodetypes="ccccccc" />
    <path
       style="fill:#262626;fill-opacity:1;stroke:none"
       d="m 20.219411,1027.7103 c 1.678806,-0.3621 2.292325,-2.1849 2.382026,-0.5802 0.0897,1.6046 0.480927,2.2087 -1.049257,2.026 -1.530484,-0.1828 -2.530987,-0.4845 -1.931338,0.6445 0.599648,1.129 1.608056,1.2515 0.548293,1.4895 -1.059863,0.2381 -4.010015,-1.0277 -3.559867,-2.5731 0.450148,-1.5454 3.610143,-1.0067 3.610143,-1.0067 z"
       id="path5179"
       inkscape:connector-curvature="0"
       sodipodi:nodetypes="csssssc" />
    <path
       style="fill:#262626;fill-opacity:1;stroke:none"
       d="m 12.124725,1036.4794 c 0.980668,-0.055 1.634594,0.4451 2.28852,0.9451 -0.250551,1.0578 0.459833,1.955 -1.683789,0.273 -1.169022,-0.9173 -0.604731,-1.2181 -0.604731,-1.2181 z"
       id="path5183"
       inkscape:connector-curvature="0"
       sodipodi:nodetypes="ccsc" />
    <path
       style="fill:none;stroke:#474747;stroke-width:1px;stroke-linecap:butt;stroke-linejoin:miter;stroke-opacity:1"
       d="m 15.358877,1036.4238 0.721477,-4.6905"
       id="path3792"
       inkscape:connector-curvature="0" />
    <path
       style="fill:none;stroke:#474747;stroke-width:1px;stroke-linecap:butt;stroke-linejoin:miter;stroke-opacity:1"
       d="m 18.513336,1035.2638 0.771864,-2.1894"
       id="path3794"
       inkscape:connector-curvature="0" />
    <path
       style="fill:none;stroke:#474747;stroke-width:1px;stroke-linecap:butt;stroke-linejoin:miter;stroke-opacity:1"
       d="m 27.878594,1025.8693 -0.288923,3.7899"
       id="path3796"
       inkscape:connector-curvature="0" />
  </g>
</svg>
