<?xml version="1.0" encoding="UTF-8" standalone="no"?>
<!-- Created with Inkscape (http://www.inkscape.org/) -->

<svg
   xmlns:dc="http://purl.org/dc/elements/1.1/"
   xmlns:cc="http://creativecommons.org/ns#"
   xmlns:rdf="http://www.w3.org/1999/02/22-rdf-syntax-ns#"
   xmlns:svg="http://www.w3.org/2000/svg"
   xmlns="http://www.w3.org/2000/svg"
   xmlns:xlink="http://www.w3.org/1999/xlink"
   xmlns:sodipodi="http://sodipodi.sourceforge.net/DTD/sodipodi-0.dtd"
   xmlns:inkscape="http://www.inkscape.org/namespaces/inkscape"
   width="40"
   height="40"
   id="svg2"
   version="1.1"
   inkscape:version="0.48.5 r10040"
   sodipodi:docname="pencil.svg">
  <defs
     id="defs4">
    <linearGradient
       id="linearGradient3883">
      <stop
         style="stop-color:#b5b5b5;stop-opacity:1;"
         offset="0"
         id="stop3885" />
      <stop
         style="stop-color:#838383;stop-opacity:1;"
         offset="1"
         id="stop3887" />
    </linearGradient>
    <linearGradient
       id="linearGradient3855">
      <stop
         style="stop-color:#f5b112;stop-opacity:1;"
         offset="0"
         id="stop3857" />
      <stop
         id="stop3869"
         offset="0.24107143"
         style="stop-color:#cb9109;stop-opacity:1;" />
      <stop
         id="stop3867"
         offset="0.28125"
         style="stop-color:#f7c141;stop-opacity:1;" />
      <stop
         id="stop3865"
         offset="0.71875"
         style="stop-color:#dc9d09;stop-opacity:1;" />
      <stop
         id="stop3863"
         offset="0.71875"
         style="stop-color:#f8cc65;stop-opacity:1;" />
      <stop
         style="stop-color:#f5b112;stop-opacity:1;"
         offset="1"
         id="stop3859" />
    </linearGradient>
    <linearGradient
       id="linearGradient3826">
      <stop
         style="stop-color:#d87d78;stop-opacity:1;"
         offset="0"
         id="stop3828" />
      <stop
         style="stop-color:#c94d46;stop-opacity:1;"
         offset="1"
         id="stop3830" />
    </linearGradient>
    <linearGradient
       inkscape:collect="always"
       xlink:href="#linearGradient3826"
       id="linearGradient3847"
       gradientUnits="userSpaceOnUse"
       x1="17"
       y1="29"
       x2="17"
       y2="32" />
    <linearGradient
       inkscape:collect="always"
       xlink:href="#linearGradient3826"
       id="linearGradient3849"
       gradientUnits="userSpaceOnUse"
       x1="16"
       y1="29"
       x2="16"
       y2="32" />
    <linearGradient
       inkscape:collect="always"
       xlink:href="#linearGradient3855"
       id="linearGradient3861"
       x1="16"
       y1="16"
       x2="16"
       y2="20"
       gradientUnits="userSpaceOnUse"
       gradientTransform="matrix(0.64574214,-0.48653203,0.93573889,1.2369544,-9.9407704,7.6132763)" />
    <linearGradient
       inkscape:collect="always"
       xlink:href="#linearGradient3855"
       id="linearGradient3877"
       x1="29.999998"
       y1="16"
       x2="29.999998"
       y2="20"
       gradientUnits="userSpaceOnUse" />
    <linearGradient
       inkscape:collect="always"
       xlink:href="#linearGradient3883"
       id="linearGradient3889"
       x1="11"
       y1="16"
       x2="11"
       y2="20"
       gradientUnits="userSpaceOnUse" />
    <linearGradient
       inkscape:collect="always"
       xlink:href="#linearGradient3883"
       id="linearGradient3897"
       x1="10"
       y1="16"
       x2="10"
       y2="20"
       gradientUnits="userSpaceOnUse"
       gradientTransform="matrix(1.5510212,0,0,1.5510212,-629.65752,801.77339)" />
    <linearGradient
       inkscape:collect="always"
       xlink:href="#linearGradient3855"
       id="linearGradient3997"
       gradientUnits="userSpaceOnUse"
       gradientTransform="matrix(0.7886324,0.1782001,-0.33892144,1.5135375,8.9592399,1004.9104)"
       x1="16"
       y1="16"
       x2="16"
       y2="20" />
    <linearGradient
       inkscape:collect="always"
       xlink:href="#linearGradient3855"
       id="linearGradient4001"
       gradientUnits="userSpaceOnUse"
       gradientTransform="matrix(0.64574214,-0.48653203,0.93573889,1.2369544,-11.116289,1013.23)"
       x1="16"
       y1="16"
       x2="16"
       y2="20" />
  </defs>
  <sodipodi:namedview
     id="base"
     pagecolor="#ffffff"
     bordercolor="#666666"
     borderopacity="1.0"
     inkscape:pageopacity="0.0"
     inkscape:pageshadow="2"
     inkscape:zoom="11.2"
     inkscape:cx="21.718269"
     inkscape:cy="20.279743"
     inkscape:document-units="px"
     inkscape:current-layer="layer1"
     showgrid="true"
     inkscape:window-width="1069"
     inkscape:window-height="674"
     inkscape:window-x="384"
     inkscape:window-y="221"
     inkscape:window-maximized="0"
     inkscape:snap-grids="false"
     showguides="true"
     inkscape:guide-bbox="true">
    <inkscape:grid
       type="xygrid"
       id="grid2985"
       empspacing="5"
       visible="true"
       enabled="true"
       snapvisiblegridlinesonly="true"
       dotted="false" />
    <sodipodi:guide
       orientation="1,0"
       position="47.857143,-4.1071429"
       id="guide3999" />
  </sodipodi:namedview>
  <metadata
     id="metadata7">
    <rdf:RDF>
      <cc:Work
         rdf:about="">
        <dc:format>image/svg+xml</dc:format>
        <dc:type
           rdf:resource="http://purl.org/dc/dcmitype/StillImage" />
        <dc:title></dc:title>
      </cc:Work>
    </rdf:RDF>
  </metadata>
  <g
     inkscape:label="Layer 1"
     inkscape:groupmode="layer"
     id="layer1"
     transform="translate(0,-1012.3622)">
    <path
       style="fill:url(#linearGradient4001);fill-opacity:1;stroke:none"
       d="m 20.418232,1028.3042 -1.875,-0.094 1.53125,-2.1563 -4.28125,2.4063 0.875,-2.4063 -1.78125,0.9063 2.34375,-2.7813 -2,0.25 -6.2187501,4.6875 3.7500001,4.9688 7.65625,-5.7813 z"
       id="path3995"
       inkscape:connector-curvature="0" />
    <path
       style="fill:url(#linearGradient3997);fill-opacity:1;stroke:none"
       d="m 27.194381,1034.4779 -9.749217,-2.2256 1.483564,1.3644 -3.637092,0.01 1.842882,0.7734 -2.401569,0.8877 4.603377,1.7111 -2.635001,0.2256 1.140472,1.4912 8.009319,1.8155 1.343265,-6.0528 z"
       id="rect3851"
       inkscape:connector-curvature="0" />
    <path
       sodipodi:type="arc"
       style="fill:url(#linearGradient3877);fill-opacity:1;stroke:none"
       id="path3853"
       sodipodi:cx="30"
       sodipodi:cy="18"
       sodipodi:rx="1"
       sodipodi:ry="2"
       d="m 31,18 a 1,2 0 1 1 -2,0 1,2 0 1 1 2,0 z"
       transform="matrix(1.5133133,0.33992576,-0.33992576,1.5133133,-12.765112,1000.0622)" />
    <path
       sodipodi:type="arc"
       style="fill:url(#linearGradient3889);fill-opacity:1;stroke:none"
       id="path3879"
       sodipodi:cx="11"
       sodipodi:cy="18"
       sodipodi:rx="1"
       sodipodi:ry="2"
       d="m 12,18 a 1,2 0 1 1 -2,0 1,2 0 1 1 2,0 z"
       transform="matrix(1.2375758,-0.93491866,0.93491866,1.2375758,-19.120223,1019.2859)" />
    <rect
       style="fill:url(#linearGradient3897);fill-opacity:1;stroke:none"
       id="rect3881"
       width="3.1020424"
       height="6.2040849"
       x="-615.6983"
       y="826.58978"
       transform="matrix(0.79791031,-0.6027762,0.6027762,0.79791031,0,0)" />
    <g
       id="g3842"
       transform="matrix(1.2375758,-0.93491866,1.2465582,1.650101,-1312.1808,-671.78649)">
      <path
         transform="translate(0,1012.3622)"
         d="m 18,30.5 c 0,0.828427 -0.447715,1.5 -1,1.5 -0.552285,0 -1,-0.671573 -1,-1.5 0,-0.828427 0.447715,-1.5 1,-1.5 0.552285,0 1,0.671573 1,1.5 z"
         sodipodi:ry="1.5"
         sodipodi:rx="1"
         sodipodi:cy="30.5"
         sodipodi:cx="17"
         id="path3822"
         style="fill:url(#linearGradient3847);fill-opacity:1;stroke:none"
         sodipodi:type="arc" />
      <rect
         transform="translate(0,1012.3622)"
         y="29"
         x="14"
         height="3"
         width="3"
         id="rect3824"
         style="fill:url(#linearGradient3849);fill-opacity:1;stroke:none" />
      <path
         transform="translate(0,1012.3622)"
         d="m 15,30.5 c 0,0.828427 -0.447715,1.5 -1,1.5 -0.552285,0 -1,-0.671573 -1,-1.5 0,-0.828427 0.447715,-1.5 1,-1.5 0.552285,0 1,0.671573 1,1.5 z"
         sodipodi:ry="1.5"
         sodipodi:rx="1"
         sodipodi:cy="30.5"
         sodipodi:cx="14"
         id="path3820"
         style="fill:#b93d36;fill-opacity:1;stroke:none"
         sodipodi:type="arc" />
    </g>
    <path
       style="fill:#f6dfa1;fill-opacity:1;stroke:none"
       d="m 37.108824,1039.8792 -11.273053,0.6471 c 0,0 0.222477,-1.3694 1.019435,-1.7581 0.796997,-0.3888 1.56653,-1.9189 0.786237,-2.2364 -0.780419,-0.317 -0.44596,-2.0587 -0.44596,-2.0587 z"
       id="path3899"
       inkscape:connector-curvature="0"
       sodipodi:nodetypes="ccsscc" />
    <path
       style="fill:#363636;fill-opacity:1;stroke:none"
       d="m 32.855751,1037.5823 c 0,0 0.497089,0.9222 0.396253,1.3953 -0.104999,0.4925 -0.969914,1.1586 -0.969914,1.1586 l 4.826736,-0.257 z"
       id="path3901"
       inkscape:connector-curvature="0"
       sodipodi:nodetypes="csccc" />
  </g>
</svg>
