<?xml version="1.0" encoding="UTF-8" standalone="no"?>
<!-- Created with Inkscape (http://www.inkscape.org/) -->

<svg
   xmlns:dc="http://purl.org/dc/elements/1.1/"
   xmlns:cc="http://creativecommons.org/ns#"
   xmlns:rdf="http://www.w3.org/1999/02/22-rdf-syntax-ns#"
   xmlns:svg="http://www.w3.org/2000/svg"
   xmlns="http://www.w3.org/2000/svg"
   xmlns:xlink="http://www.w3.org/1999/xlink"
   xmlns:sodipodi="http://sodipodi.sourceforge.net/DTD/sodipodi-0.dtd"
   xmlns:inkscape="http://www.inkscape.org/namespaces/inkscape"
   width="40"
   height="40"
   id="svg2"
   version="1.1"
   inkscape:version="0.48.5 r10040"
   sodipodi:docname="tractor.svg">
  <defs
     id="defs4">
    <linearGradient
       id="linearGradient3838">
      <stop
         style="stop-color:#da1818;stop-opacity:1;"
         offset="0"
         id="stop3840" />
      <stop
         style="stop-color:#991111;stop-opacity:1;"
         offset="1"
         id="stop3842" />
    </linearGradient>
    <linearGradient
       inkscape:collect="always"
       xlink:href="#linearGradient3838"
       id="linearGradient3844"
       x1="21.696428"
       y1="1030.0945"
       x2="34.232143"
       y2="1038.3979"
       gradientUnits="userSpaceOnUse" />
  </defs>
  <sodipodi:namedview
     id="base"
     pagecolor="#ffffff"
     bordercolor="#666666"
     borderopacity="1.0"
     inkscape:pageopacity="0.0"
     inkscape:pageshadow="2"
     inkscape:zoom="11.2"
     inkscape:cx="21.100046"
     inkscape:cy="17.482317"
     inkscape:document-units="px"
     inkscape:current-layer="layer1"
     showgrid="true"
     inkscape:window-width="963"
     inkscape:window-height="729"
     inkscape:window-x="225"
     inkscape:window-y="167"
     inkscape:window-maximized="0"
     inkscape:snap-grids="false">
    <inkscape:grid
       type="xygrid"
       id="grid2985"
       empspacing="5"
       visible="true"
       enabled="true"
       snapvisiblegridlinesonly="true"
       dotted="false" />
  </sodipodi:namedview>
  <metadata
     id="metadata7">
    <rdf:RDF>
      <cc:Work
         rdf:about="">
        <dc:format>image/svg+xml</dc:format>
        <dc:type
           rdf:resource="http://purl.org/dc/dcmitype/StillImage" />
        <dc:title />
      </cc:Work>
    </rdf:RDF>
  </metadata>
  <g
     inkscape:label="Layer 1"
     inkscape:groupmode="layer"
     id="layer1"
     transform="translate(0,-1012.3622)">
    <rect
       style="fill:#3c3c3c;fill-opacity:1;stroke:none"
       id="rect3836"
       width="2"
       height="6"
       x="26.5"
       y="1024.3622" />
    <path
       sodipodi:type="arc"
       style="fill:#7a7a7a;fill-opacity:1;stroke:#313131;stroke-width:1;stroke-linecap:round;stroke-linejoin:round;stroke-miterlimit:4;stroke-opacity:1;stroke-dasharray:none"
       id="path3023"
       sodipodi:cx="12.5"
       sodipodi:cy="27.5"
       sodipodi:rx="7.5"
       sodipodi:ry="7.5"
       d="m 20,27.5 a 7.5,7.5 0 1 1 -15,0 7.5,7.5 0 1 1 15,0 z"
       transform="translate(-1.5,1012.3622)" />
    <path
       style="fill:url(#linearGradient3844);fill-opacity:1;stroke:#420707;stroke-width:1px;stroke-linecap:butt;stroke-linejoin:round;stroke-opacity:1"
       d="m 7.5,1017.3622 -2,12 9,0 8,9 14,0 -1,-6 -4,-2 -10,0 -2.821429,-12.375 z m 2.1785714,2.4643 6.8214286,0.5357 1,6 -9,0 z"
       id="path3831"
       inkscape:connector-curvature="0"
       sodipodi:nodetypes="ccccccccccccccc" />
    <path
       sodipodi:type="arc"
       style="fill:#7a7a7a;fill-opacity:1;stroke:#313131;stroke-width:1;stroke-linecap:round;stroke-linejoin:round;stroke-miterlimit:4;stroke-opacity:1;stroke-dasharray:none"
       id="path3025"
       sodipodi:cx="30"
       sodipodi:cy="30"
       sodipodi:rx="5"
       sodipodi:ry="5"
       d="m 35,30 a 5,5 0 1 1 -10,0 5,5 0 1 1 10,0 z"
       transform="translate(1.5,1012.3622)" />
    <path
       sodipodi:type="arc"
       style="fill:#1f1f1f;fill-opacity:1;stroke:none"
       id="path3795"
       sodipodi:cx="12.5"
       sodipodi:cy="27.5"
       sodipodi:rx="4.5"
       sodipodi:ry="4.5"
       d="m 17,27.5 a 4.5,4.5 0 1 1 -9,0 4.5,4.5 0 1 1 9,0 z"
       transform="translate(-1.5,1012.3622)" />
    <path
       transform="matrix(1,0,0,1.3333333,19,1005.6952)"
       sodipodi:type="arc"
       style="fill:#1f1f1f;fill-opacity:1;stroke:none"
       id="path3795-1"
       sodipodi:cx="12.5"
       sodipodi:cy="27.5"
       sodipodi:rx="2"
       sodipodi:ry="1.5"
       d="m 14.5,27.5 a 2,1.5 0 1 1 -4,0 2,1.5 0 1 1 4,0 z" />
    <path
       style="fill:#e82a2a;fill-opacity:1;stroke:#420707;stroke-linejoin:round;stroke-opacity:1"
       d="m 11,1027.3622 c -2.8369154,0 -5.3396968,1.095 -7.4375,2.6875 0.016153,0.5892 0.01372,1.2149 0.1875,1.5625 0.125,0.25 0.3125,0.4375 0.59375,0.5625 0.2738434,0.1217 0.6445564,0.1843 1.125,0.1875 1.5775892,-1.1662 3.418849,-2 5.53125,-2 4.445587,0 7.995102,3.1259 9.03125,7.25 0.316362,0.1838 0.638461,0.4475 0.9375,0.4375 0.46875,-0.016 0.90625,-0.25 1.28125,-0.5625 0.409222,-0.341 0.467744,-0.7341 0.6875,-1.1562 -1.528544,-5.1765 -6.265678,-8.9688 -11.9375,-8.9688 z"
       id="path3817"
       inkscape:connector-curvature="0" />
  </g>
</svg>
