<?xml version="1.0" encoding="UTF-8" standalone="no"?>
<svg version="1.1" xmlns:cc="http://creativecommons.org/ns#" viewBox="0 0 1050 1930" xml:space="preserve" xmlns:rdf="http://www.w3.org/1999/02/22-rdf-syntax-ns#" xmlns="http://www.w3.org/2000/svg" xmlns:dc="http://purl.org/dc/elements/1.1/"><metadata><rdf:RDF><cc:Work rdf:about=""><dc:format>image/svg+xml</dc:format><dc:type rdf:resource="http://purl.org/dc/dcmitype/StillImage"/><dc:title/></cc:Work></rdf:RDF></metadata><defs><clipPath id="a" clipPathUnits="userSpaceOnUse"><path d="m309.38 232.07h160.01v265.5h-160.01v-265.5z"/></clipPath></defs><g transform="matrix(1.25 0 0 -1.25 42.677 2139.4)"><g transform="matrix(6.6744 0 0 6.6744 -2213.3 -1494.9)"><g clip-path="url(#a)"><path transform="matrix(.11949 0 0 -.12157 326.93 481.63)" style="color:#000000" d="m1049.6 528.12a526.61 517.62 0 1 1 -1053.2 0 526.61 517.62 0 1 1 1053.2 0z" fill="#fff"/><g transform="translate(389.45 363.69)"><path d="m0 0c-29.672 0-53.815 24.144-53.815 53.814 0 29.673 24.143 53.814 53.815 53.814 29.674 0 53.816-24.141 53.816-53.814 0-29.672-24.142-53.816-53.816-53.816" fill="#fcd006"/></g><g transform="translate(389.45 363.69)"><path d="m0 0c-29.672 0-53.815 24.144-53.815 53.814 0 29.673 24.143 53.814 53.815 53.814 29.674 0 53.816-24.141 53.816-53.814 0-29.672-24.142-53.816-53.816-53.816m0 113.68c-33.067 0-59.871-26.805-59.871-59.871 0-33.065 26.804-59.871 59.871-59.871 33.066 0 59.87 26.806 59.87 59.871 0 33.066-26.804 59.871-59.87 59.871" fill="#231f20"/></g><g transform="translate(427.43 409.15)"><path d="m0 0c2.575 3.933 2.873 11.562 2.289 14.104-0.111 0.023-7.579 4.103-24.682 9.823 1.798 0.816 3.341 2.432 3.385 2.507-0.227 0.54-5.322 3.936-7.788 4.644 3.758 2.417 10.292 9.448 11.581 10.886-3.994 1.812-9.176 2.324-10.588 2.37 3.012 2.37 8.752 6.189 11.11 6.835-0.073 0.077-3.386 1.717-8.683 1.842-8.031 0.191-12.298-1.59-18.192-4.606-0.035-0.012 2.249 5.93 2.605 7.018-2.025-1.018-4.311-2.324-6.097-3.723-3.709-2.863-7.156-5.245-9.952-8.891-1.99-2.524-1.521-5.563-1.167-6.413 0.518-1.447 1.193-2.929 1.495-4.427 0.575-2.839 0.24-2.926 0.044-2.963-2.133-0.393-3.914-1.869-5.428-3.729-1.768-2.286-2.753-4.838-3.522-7.605-0.618 0.226-3.127 1.228-7.351 1.228-7.706 0-10.544-5.263-11.056-6.666-2.173-6.062 1.091-14.117 1.091-14.117 0.002 0.003 0.331-5.864 1.597-9.368 0.442-1.33 2.734-1.578 4.208-1.675 3.823-0.169 3.509-5.398 2.494-8.195-0.012-0.034 5.156 0.885 5.616 6.001 0.004 0.036 2.307-1.454 3.056-2.784 0.022 0 2.369 2.618 1.383 6.075 3.779-4.54 4.539-12.84 4.615-12.821 0.96 0.726 2.541 2.677 2.541 2.677s-0.625-4.464-1.658-4.634c-1.033-0.172-2.215-0.369-2.215-0.369l-3.454-4.345h10.059c0.099 2.422 1.558 7.689 2.208 9.306 0.805-0.995 2.651-2.41 2.699-2.466 0.088 0.127-0.115 2.866 2.632 9.227 1.219-1.931 2.119-3.136 2.176-3.126 7.401 1.521 23.932 11.875 24.106 12.026 0.39-0.509 4.629-6.92 10.566-9.031-1.358-4.234-8.58-11.075-9.313-11.237-0.156-0.033-2.089-0.385-2.089-0.385l-3.451-4.314h10.613c0.783 5.093 9.389 11.189 11.652 15.702 0.513 0.794-0.019 1.571-0.087 1.735-1.399 1.903-1.751 2.945-1.591 5.429-0.09 3.175 1.259 5.847 2.543 8.455" fill="#231f20"/></g><g transform="translate(352.97 410.55)"><path d="m0 0c-1.351-0.05-2.622-0.751-3.207-1.979v-0.76l3.646 1.264 0.616 1.264c-0.292 0.187-0.681 0.212-1.055 0.211" fill="#fff"/></g><g transform="translate(384.03 397.59)"><path d="m0 0c1.107-1.753 1.926-2.848 1.975-2.837 6.719 1.379 18.788 8.942 18.945 9.081l-20.92-6.244z" fill="#9e9c9d"/></g><g transform="translate(392.43 439.52)"><path d="m0 0-4.375-2.89s6.433 0.271 14.022-1.577c0 0-3.69 3.4-9.647 4.467" fill="#9e9c9d"/></g><g transform="translate(405.06 449.35)"><path d="m0 0c-10.813-0.515-15.367-3.441-15.367-3.441l3.255 3.931c2.048 2.689 5.434 6.112 10.688 9.473-19.737-7.92-23.799-13.639-23.799-13.639l1.06 4.823c0.12 0.866 1.311 5.06 1.509 6.084-6.49-5.294-8.267-8.685-7.502-11.271 0.514-1.744 2.392-5.65 2.459-8.33 0.073-3.084-1.008-5.82-1.902-9.35 0 0 11.406-3.701 17.533-2.226 0 0-2.685 2.126-2.74 3.328 7.799 2.194 11.746 6.374 11.821 6.319 0.002 0 0.003-0.001 0.006-0.001-7.589 1.848-14.023 1.577-14.023 1.577l4.375 2.89-0.002-0.002c-0.002 0.001-0.004 0.001-0.005 0.002 4.275 3.254 9.212 5.482 12.634 9.833" fill="#fff"/></g><g transform="translate(380.9 450.5)"><path d="m0 0c7.379 4.59 13.649 6.806 17.725 7.866 3.172 0.826 5.014 0.951 5.014 0.951-19.736-7.922-23.799-13.64-23.799-13.64l1.06 4.823z" fill="#9e9c9d"/></g><g transform="translate(392.96 449.86)"><path d="m0 0s6.528 0.706 12.101-0.502c-10.813-0.514-15.367-3.44-15.367-3.44l3.266 3.942" fill="#9e9c9d"/></g><g transform="translate(354.97 415.04)"><path d="m0 0c2.092 0.867 3.917 4.097 4.522 7.167-0.034 2.12-0.376 3.755-0.376 3.755 0.03-0.345-1.021-8.437-7.046-8.671-1.406-0.053-1.953-0.318-2.152-1.969-0.024-0.204-0.019-0.413 0.012-0.617v-0.004 0.004c1.453-0.321 3.087-0.474 5.04 0.335" fill="#fff"/></g><g transform="translate(351.45 412.79)"><path d="m0 0s5.054-0.697 6.728 2.537c1.442 2.622 1.319 6.558 1.315 6.883v0.003c-0.605-3.07-2.428-6.3-4.521-7.167-1.954-0.808-3.588-0.655-5.04-0.334v-0.004-0.001-0.003c0.013-0.113 0.202-1.559 1.518-1.914" fill="#9e9c9d"/></g></g></g></g></svg>
