<?xml version="1.0" encoding="UTF-8" standalone="no"?>
<svg version="1.1" xmlns:rdf="http://www.w3.org/1999/02/22-rdf-syntax-ns#" viewBox="0 0 1050 1930" xmlns:dc="http://purl.org/dc/elements/1.1/" xmlns:cc="http://creativecommons.org/ns#" xml:space="preserve" xmlns="http://www.w3.org/2000/svg"><metadata><rdf:RDF><cc:Work rdf:about=""><dc:format>image/svg+xml</dc:format><dc:type rdf:resource="http://purl.org/dc/dcmitype/StillImage"/><dc:title/></cc:Work></rdf:RDF></metadata><defs><clipPath id="a" clipPathUnits="userSpaceOnUse"><path d="m309.38 232.07h160.01v265.5h-160.01v-265.5z"/></clipPath></defs><g transform="matrix(1.25 0 0 -1.25 42.677 2139.4)"><g transform="matrix(6.6744 0 0 6.6744 -2213.3 -1494.9)"><g clip-path="url(#a)"><path fill="#fff" transform="matrix(.11949 0 0 -.12157 326.93 481.63)" style="color:#000000" d="m1049.6 528.12a526.61 517.62 0 1 1 -1053.2 0 526.61 517.62 0 1 1 1053.2 0z"/><g fill="#f9f9f9" transform="translate(337.95 328.87)"><path fill="#f9f9f9" d="m0 0v14.741l-2.316 3.966h10.043c1.461 0 3.099 0.021 4.365-0.765 1.398-0.849 1.855-2.421 1.855-3.971 0-2.139-0.85-3.602-2.946-4.191v-0.045c2.402-0.304 3.229-2.226 3.229-4.409 0-1.528-0.349-3.231-1.57-4.213-1.332-1.09-3.035-1.113-4.671-1.113h-7.989zm5.829 11.38h0.392c1.286 0 1.942 0.283 1.942 1.679 0 1.376-0.721 1.682-1.942 1.682h-0.392v-3.361zm0-7.406h0.5c1.419 0 1.922 0.566 1.922 2.051 0 1.441-0.503 2.008-1.922 2.008h-0.5v-4.059z"/></g><g fill="#f9f9f9" transform="translate(422.37 337.95)"><path fill="#f9f9f9" d="m0 0v-3.035c0-1.178 0.021-2.073-1.462-2.073h-0.568v14.733h-6.986l1.158-3.965v-14.741h12.988v9.081h-5.13z"/></g><g fill="#f9f9f9" transform="translate(443 334.28)"><path fill="#f9f9f9" d="m0 0c0-4.627-2.837-5.783-6.964-5.783-4.124 0-6.963 1.156-6.963 5.783v7.882c0 4.626 2.839 5.784 6.963 5.784 4.127 0 6.964-1.158 6.964-5.784v-7.882zm-8.098 0.023c0-0.132-0.065-1.462 1.134-1.462 1.201 0 1.137 1.33 1.137 1.462v8.164c0 0.131 0.064 1.134-1.137 1.134-1.199 0-1.134-1.309-1.134-1.439v-7.859z"/></g><g fill="#f9f9f9" transform="translate(397.67 341.13)"><path fill="#f9f9f9" d="m0 0v6.44l-14.023-0.007 1.162-3.964 0.003-14.736h0.008v-0.005l0.013 0.005h5.808v7.069h3.71v4.107h-3.71v3.558c1.113 0.088 1.594-0.109 1.812-0.524 0.24-0.415 0.174-1.069 0.174-1.943h5.043z"/></g><g fill="#f9f9f9" transform="translate(382.53 341.13)"><path fill="#f9f9f9" d="m0 0v6.44l-14.023-0.007 1.162-3.964 0.006-14.736h0.007v-0.005l0.013 0.005h5.808v7.069h3.71v4.107h-3.71v3.558c1.112 0.088 1.592-0.109 1.81-0.524 0.241-0.415 0.176-1.069 0.176-1.943h5.041z"/></g><g fill="#f9f9f9" transform="translate(361.66 347.57)"><path fill="#f9f9f9" d="m0 0v-13.402c0-0.371-0.088-1.331-1.158-1.331-1.067 0-1.156 0.96-1.156 1.331v13.402h-6.984l1.158-3.966v-8.761c0.043-1.986 0.196-3.557 1.789-4.953 1.375-1.201 3.515-1.398 5.193-1.398 1.683 0 3.821 0.197 5.196 1.398 1.592 1.396 1.746 2.967 1.79 4.953v12.727h-5.828z"/></g><g fill="#f9f9f9" transform="translate(409.78 347.57)"><path fill="#f9f9f9" d="m0 0h-11.017l1.166-3.966-2.553-14.741h5.343l0.657 3.974h3.586l0.715-3.974h5.341l-3.238 18.707zm-5.585-10.173 0.961 6.197h0.084l0.961-6.197h-2.006z"/></g><g fill="#f9f9f9" transform="translate(407.25 309.94)"><path fill="#f9f9f9" d="m0 0v-5.25c0-2.041 0.037-3.588-2.532-3.588h-0.982v25.496h-12.09l2.004-6.863v-25.507h22.476v15.712h-8.876z"/></g><g fill="#f9f9f9" transform="translate(380.11 319.74)"><path fill="#f9f9f9" d="m0 0-2.003 6.863h12.09v-32.371h-10.087v25.508z"/></g><g fill="#f9f9f9" transform="translate(431.81 326.6)"><path fill="#f9f9f9" d="m0 0c2.76 0 5.932-0.039 8.237-1.814 2.643-2.08 2.907-5.024 2.907-8.121v-12.124c0-3.174-0.151-5.629-2.606-7.935-2.303-2.189-5.174-2.377-8.235-2.377h-12.994v25.507l-2.004 6.864h14.695zm-2.605-25.535h0.795c2.191 0 2.869 0.794 2.869 3.135v12.201c0 2.341-0.678 3.324-2.869 3.324h-0.795v-18.66z"/></g><g fill="#f9f9f9" transform="translate(366.25 326.6)"><path fill="#f9f9f9" d="m0 0-2.177-16.66h-0.076l-2.197 16.66h-7.086l-2.198-16.66h-0.075l-2.178 16.66h-14.636l5.266-6.864 4.674-25.509h9.518l3.135 11.229h0.072l3.136-11.229h9.517l5.933 32.373h-10.628z"/></g><g transform="translate(389.45 363.69)"><path fill="#fcd006" d="m0 0c-29.672 0-53.815 24.144-53.815 53.814 0 29.673 24.143 53.814 53.815 53.814 29.674 0 53.816-24.141 53.816-53.814 0-29.672-24.142-53.816-53.816-53.816"/></g><g transform="translate(389.45 363.69)"><path fill="#231f20" d="m0 0c-29.672 0-53.815 24.144-53.815 53.814 0 29.673 24.143 53.814 53.815 53.814 29.674 0 53.816-24.141 53.816-53.814 0-29.672-24.142-53.816-53.816-53.816m0 113.68c-33.067 0-59.871-26.805-59.871-59.871 0-33.065 26.804-59.871 59.871-59.871 33.066 0 59.87 26.806 59.87 59.871 0 33.066-26.804 59.871-59.87 59.871"/></g><g transform="translate(427.43 409.15)"><path fill="#231f20" d="m0 0c2.575 3.933 2.873 11.562 2.289 14.104-0.111 0.023-7.579 4.103-24.682 9.823 1.798 0.816 3.341 2.432 3.385 2.507-0.227 0.54-5.322 3.936-7.788 4.644 3.758 2.417 10.292 9.448 11.581 10.886-3.994 1.812-9.176 2.324-10.588 2.37 3.012 2.37 8.752 6.189 11.11 6.835-0.073 0.077-3.386 1.717-8.683 1.842-8.031 0.191-12.298-1.59-18.192-4.606-0.035-0.012 2.249 5.93 2.605 7.018-2.025-1.018-4.311-2.324-6.097-3.723-3.709-2.863-7.156-5.245-9.952-8.891-1.99-2.524-1.521-5.563-1.167-6.413 0.518-1.447 1.193-2.929 1.495-4.427 0.575-2.839 0.24-2.926 0.044-2.963-2.133-0.393-3.914-1.869-5.428-3.729-1.768-2.286-2.753-4.838-3.522-7.605-0.618 0.226-3.127 1.228-7.351 1.228-7.706 0-10.544-5.263-11.056-6.666-2.173-6.062 1.091-14.117 1.091-14.117 0.002 0.003 0.331-5.864 1.597-9.368 0.442-1.33 2.734-1.578 4.208-1.675 3.823-0.169 3.509-5.398 2.494-8.195-0.012-0.034 5.156 0.885 5.616 6.001 0.004 0.036 2.307-1.454 3.056-2.784 0.022 0 2.369 2.618 1.383 6.075 3.779-4.54 4.539-12.84 4.615-12.821 0.96 0.726 2.541 2.677 2.541 2.677s-0.625-4.464-1.658-4.634c-1.033-0.172-2.215-0.369-2.215-0.369l-3.454-4.345h10.059c0.099 2.422 1.558 7.689 2.208 9.306 0.805-0.995 2.651-2.41 2.699-2.466 0.088 0.127-0.115 2.866 2.632 9.227 1.219-1.931 2.119-3.136 2.176-3.126 7.401 1.521 23.932 11.875 24.106 12.026 0.39-0.509 4.629-6.92 10.566-9.031-1.358-4.234-8.58-11.075-9.313-11.237-0.156-0.033-2.089-0.385-2.089-0.385l-3.451-4.314h10.613c0.783 5.093 9.389 11.189 11.652 15.702 0.513 0.794-0.019 1.571-0.087 1.735-1.399 1.903-1.751 2.945-1.591 5.429-0.09 3.175 1.259 5.847 2.543 8.455"/></g><g transform="translate(352.97 410.55)"><path fill="#fff" d="m0 0c-1.351-0.05-2.622-0.751-3.207-1.979v-0.76l3.646 1.264 0.616 1.264c-0.292 0.187-0.681 0.212-1.055 0.211"/></g><g transform="translate(384.03 397.59)"><path fill="#9e9c9d" d="m0 0c1.107-1.753 1.926-2.848 1.975-2.837 6.719 1.379 18.788 8.942 18.945 9.081l-20.92-6.244z"/></g><g transform="translate(392.43 439.52)"><path fill="#9e9c9d" d="m0 0-4.375-2.89s6.433 0.271 14.022-1.577c0 0-3.69 3.4-9.647 4.467"/></g><g transform="translate(405.06 449.35)"><path fill="#fff" d="m0 0c-10.813-0.515-15.367-3.441-15.367-3.441l3.255 3.931c2.048 2.689 5.434 6.112 10.688 9.473-19.737-7.92-23.799-13.639-23.799-13.639l1.06 4.823c0.12 0.866 1.311 5.06 1.509 6.084-6.49-5.294-8.267-8.685-7.502-11.271 0.514-1.744 2.392-5.65 2.459-8.33 0.073-3.084-1.008-5.82-1.902-9.35 0 0 11.406-3.701 17.533-2.226 0 0-2.685 2.126-2.74 3.328 7.799 2.194 11.746 6.374 11.821 6.319 0.002 0 0.003-0.001 0.006-0.001-7.589 1.848-14.023 1.577-14.023 1.577l4.375 2.89-0.002-0.002c-0.002 0.001-0.004 0.001-0.005 0.002 4.275 3.254 9.212 5.482 12.634 9.833"/></g><g transform="translate(380.9 450.5)"><path fill="#9e9c9d" d="m0 0c7.379 4.59 13.649 6.806 17.725 7.866 3.172 0.826 5.014 0.951 5.014 0.951-19.736-7.922-23.799-13.64-23.799-13.64l1.06 4.823z"/></g><g transform="translate(392.96 449.86)"><path fill="#9e9c9d" d="m0 0s6.528 0.706 12.101-0.502c-10.813-0.514-15.367-3.44-15.367-3.44l3.266 3.942"/></g><g transform="translate(354.97 415.04)"><path fill="#fff" d="m0 0c2.092 0.867 3.917 4.097 4.522 7.167-0.034 2.12-0.376 3.755-0.376 3.755 0.03-0.345-1.021-8.437-7.046-8.671-1.406-0.053-1.953-0.318-2.152-1.969-0.024-0.204-0.019-0.413 0.012-0.617v-0.004 0.004c1.453-0.321 3.087-0.474 5.04 0.335"/></g><g transform="translate(351.45 412.79)"><path fill="#9e9c9d" d="m0 0s5.054-0.697 6.728 2.537c1.442 2.622 1.319 6.558 1.315 6.883v0.003c-0.605-3.07-2.428-6.3-4.521-7.167-1.954-0.808-3.588-0.655-5.04-0.334v-0.004-0.001-0.003c0.013-0.113 0.202-1.559 1.518-1.914"/></g><g fill="#999" transform="translate(346.62 260.9)"><path fill="#999" d="m0 0h1.22l1.004-5.5h0.023l0.827 5.5h1.386l-1.518-8.633h-1.244l-1.076 5.703h-0.023l-1.004-5.703h-1.244l-1.638 8.633h1.387l0.908-5.5h0.024l0.968 5.5z"/></g><path fill="#999" d="m352.24 260.9h1.483v-8.633h-1.483v8.633z"/><g fill="#999" transform="translate(355.36 252.27)"><path fill="#999" d="m0 0v8.633h1.374l1.806-4.939h0.024v4.939h1.339v-8.633h-1.29l-1.89 5.393h-0.024v-5.393h-1.339z"/></g><g fill="#999" transform="translate(363.39 256.65)"><path fill="#999" d="m0 0h2.428v-4.377h-0.718l-0.274 0.645c-0.442-0.526-0.801-0.764-1.496-0.764-1.172 0-1.984 0.836-1.984 2.211v4.449c0 1.221 0.717 2.212 2.176 2.212 1.483 0 2.224-1.075 2.224-2.367v-0.55h-1.41c0 1.291-0.263 1.624-0.85 1.624-0.359 0-0.658-0.214-0.658-0.944v-4.435c0-0.551 0.179-0.908 0.694-0.908 0.598 0 0.814 0.334 0.814 1.196v0.834h-0.946v1.174z"/></g><g fill="#999" transform="translate(370.03 258.78)"><path fill="#999" d="m0 0c-0.061 0.741-0.455 0.956-0.789 0.956-0.479 0-0.742-0.31-0.742-0.846 0-1.473 3.014-2.179 3.014-4.523 0-1.421-0.956-2.211-2.344-2.211-1.376 0-2.164 1.099-2.225 2.391l1.41 0.203c0.062-0.872 0.408-1.302 0.887-1.302 0.512 0 0.86 0.274 0.86 0.789 0 1.708-3.013 2.164-3.013 4.639 0 1.376 0.837 2.153 2.295 2.153 1.209 0 1.927-0.875 2.058-2.094l-1.411-0.155z"/></g><path fill="#999" d="m372.54 253.68h1.41v-1.411h-1.41v1.411z"/><g fill="#999" transform="translate(379.43 253.49)"><path fill="#999" d="m0 0h0.622c0.789 0 1.075 0.454 1.075 1.326 0 0.886-0.334 1.328-1.219 1.328h-0.478v-2.654zm0 3.873h0.538c0.561 0 0.993 0.383 0.993 1.102 0 0.8-0.311 1.219-0.97 1.219h-0.561v-2.321zm-1.482 3.541h2.199c1.591 0 2.296-0.814 2.296-2.284 0-0.741-0.311-1.518-1.028-1.806 0.752-0.336 1.196-0.932 1.196-2.044 0-1.425-0.635-2.5-2.321-2.5h-2.342v8.634z"/></g><g fill="#999" transform="translate(383.93 252.27)"><path fill="#999" d="m0 0v8.633h3.97v-1.291h-2.486v-2.225h1.913v-1.292h-1.913v-2.535h2.654v-1.29h-4.138z"/></g><g fill="#999" transform="translate(389.24 252.27)"><path fill="#999" d="m0 0v8.633h3.97v-1.291h-2.487v-2.225h1.911v-1.292h-1.911v-2.535h2.654v-1.29h-4.137z"/></g><g fill="#999" transform="translate(396.04 257.03)"><path fill="#999" d="m0 0h0.525c0.801 0 1.099 0.3 1.099 1.326 0 1.03-0.298 1.329-1.099 1.329h-0.525v-2.655zm0-4.758h-1.484v8.633h2.082c1.662 0 2.51-0.705 2.51-2.549 0-1.384-0.537-1.947-1.041-2.175l1.256-3.909h-1.507l-1.052 3.575c-0.191-0.023-0.502-0.036-0.764-0.036v-3.539z"/></g><path fill="#999" d="m400.44 253.68h1.411v-1.411h-1.411v1.411z"/><g fill="#999" transform="translate(408.55 258.78)"><path fill="#999" d="m0 0c-0.059 0.741-0.454 0.956-0.789 0.956-0.479 0-0.741-0.31-0.741-0.846 0-1.473 3.014-2.179 3.014-4.523 0-1.421-0.959-2.211-2.345-2.211-1.374 0-2.164 1.099-2.224 2.391l1.41 0.203c0.061-0.872 0.407-1.302 0.886-1.302 0.514 0 0.861 0.274 0.861 0.789 0 1.708-3.013 2.164-3.013 4.639 0 1.376 0.836 2.153 2.296 2.153 1.207 0 1.926-0.875 2.055-2.094l-1.41-0.155z"/></g><g fill="#999" transform="translate(412.64 257.03)"><path fill="#999" d="m0 0h0.575c0.968 0 1.268 0.3 1.268 1.326 0 1.03-0.3 1.329-1.268 1.329h-0.575v-2.655zm-1.481-4.758v8.633h2.127c1.831 0 2.679-0.705 2.679-2.549 0-1.839-0.848-2.545-2.679-2.545h-0.646v-3.539h-1.481z"/></g><g fill="#999" transform="translate(418.62 254.4)"><path fill="#999" d="m0 0c0-0.645 0.192-0.955 0.79-0.955 0.597 0 0.789 0.31 0.789 0.955v4.377c0 0.646-0.192 0.956-0.789 0.956-0.598 0-0.79-0.31-0.79-0.956v-4.377zm-1.482 4.414c0 1.22 0.717 2.212 2.272 2.212s2.271-0.992 2.271-2.212v-4.45c0-1.219-0.716-2.211-2.271-2.211s-2.272 0.992-2.272 2.211v4.45z"/></g><g fill="#999" transform="translate(424.61 257.03)"><path fill="#999" d="m0 0h0.527c0.801 0 1.1 0.3 1.1 1.326 0 1.03-0.299 1.329-1.1 1.329h-0.527v-2.655zm0-4.758h-1.482v8.633h2.082c1.661 0 2.51-0.705 2.51-2.549 0-1.384-0.537-1.947-1.041-2.175l1.257-3.909h-1.507l-1.053 3.575c-0.192-0.023-0.501-0.036-0.766-0.036v-3.539z"/></g><g fill="#999" transform="translate(429.97 259.61)"><path fill="#999" d="m0 0h-1.435v1.291h4.353v-1.291h-1.433v-7.342h-1.485v7.342z"/></g><g fill="#999" transform="translate(436.46 258.78)"><path fill="#999" d="m0 0c-0.06 0.741-0.456 0.956-0.791 0.956-0.476 0-0.739-0.31-0.739-0.846 0-1.473 3.012-2.179 3.012-4.523 0-1.421-0.956-2.211-2.345-2.211-1.374 0-2.162 1.099-2.222 2.391l1.41 0.203c0.06-0.872 0.408-1.302 0.884-1.302 0.516 0 0.862 0.274 0.862 0.789 0 1.708-3.012 2.164-3.012 4.639 0 1.376 0.836 2.153 2.295 2.153 1.206 0 1.926-0.875 2.055-2.094l-1.409-0.155z"/></g><path fill="#999" d="m438.98 253.68h1.41v-1.411h-1.41v1.411z"/><g fill="#999" transform="translate(441.88 259.65)"><path fill="#999" d="m0 0 0.483 1.273h0.637v-1.936h-0.433v1.419h-0.01l-0.518-1.419h-0.322l-0.518 1.419h-0.009v-1.419h-0.433v1.936h0.639l0.484-1.273zm-1.371 0.92h-0.564v-1.583h-0.453v1.583h-0.564v0.353h1.581v-0.353z"/></g><g fill="#f9f9f9" transform="translate(360.03 291.96)"><path fill="#f9f9f9" d="m0 0-1.736-13.275h-0.061l-1.751 13.275h-5.645l-1.751-13.275h-0.06l-1.735 13.275h-11.661l4.195-5.469 3.724-20.326h7.584l2.498 8.945h0.058l2.5-8.945h7.581l4.727 25.795h-8.467z"/></g><g fill="#f9f9f9" transform="translate(370.95 286.5)"><path fill="#f9f9f9" d="m0 0-1.596 5.466h9.627v-25.777h-8.031v20.311z"/></g><g fill="#f9f9f9" transform="translate(393.93 280.32)"><path fill="#f9f9f9" d="m0 0h0.06v11.641h6.498v-25.777h-7.791l-4.784 11.58h-0.058v-11.58h-6.257v20.311l-1.596 5.466h9.447l4.481-11.641z"/></g><g fill="#f9f9f9" transform="translate(421.51 283)"><path fill="#f9f9f9" d="m0 0h-7.731v0.572c0 1.141 0.241 2.917-1.533 2.917-1.505 0-1.625-1.413-1.625-2.526v-10.62c0-0.27 0.12-1.681 1.625-1.681 1.774 0 1.533 1.774 1.533 2.947v1.513l-1.594 5.464h9.325v-13.114c-2.526-2.285-6.346-2.8-9.625-2.8-2.315 0-4.963 0.181-6.798 1.718-2.377 2.015-2.498 4.362-2.498 7.187v9.806c0 2.287 0.271 4.512 2.137 6.078 1.863 1.594 4.421 2.015 6.798 2.015 3.518 0 7.158-0.813 9.986-2.978v-6.498z"/></g><g fill="#f9f9f9" transform="translate(434.72 283.75)"><path fill="#f9f9f9" d="m0 0c0 1.148-0.029 2.74-1.593 2.74-1.024 0-1.564-0.331-1.564-1.294 0-0.512 0.061-1.022 0.48-1.446 0.452-0.479 1.595-0.838 2.257-1.019 1.927-0.512 4.512-1.206 6.136-2.287 0.933-0.632 1.623-1.385 1.986-2.466 0.42-1.111 0.6-2.348 0.6-3.549v-0.12c0-4.964-2.195-8.636-9.865-8.636-3.28 0-6.739 0.634-9.355 2.71v6.916h7.851c0-1.534-0.029-2.255 0.24-2.797 0.272-0.511 0.841-0.84 1.445-0.84 1.081 0 1.563 0.629 1.563 1.563 0 2.645-1.654 2.86-3.881 3.4-4.868 1.201-7.607 2.376-7.607 7.939v0.573c0.117 2.768 0.569 4.152 2.673 5.743 1.713 1.294 4.214 1.597 6.62 1.597 3.49 0 6.587-0.695 9.505-2.707v-6.078h-7.491v0.058z"/></g><g fill="#f9f9f9" transform="translate(443.16 267.36)"><path fill="#f9f9f9" d="m0 0h0.212c0.179 0 0.242 0.057 0.242 0.174 0 0.116-0.074 0.155-0.254 0.155h-0.2v-0.329zm0-0.721h-0.245v1.241h0.469c0.311 0 0.482-0.098 0.482-0.368 0-0.227-0.139-0.316-0.3-0.331l0.3-0.542h-0.272l-0.279 0.53h-0.155v-0.53zm0.197 1.494c-0.472 0-0.843-0.364-0.843-0.875 0-0.51 0.371-0.875 0.843-0.875 0.466 0 0.843 0.365 0.843 0.875 0 0.511-0.377 0.875-0.843 0.875m-1.135-0.875c0 0.673 0.535 1.109 1.135 1.109 0.601 0 1.136-0.436 1.136-1.109 0-0.675-0.535-1.108-1.136-1.108-0.6 0-1.135 0.433-1.135 1.108"/></g></g></g></g></svg>
