<?xml version="1.0" encoding="UTF-8" standalone="no"?>
<svg xmlns:dc="http://purl.org/dc/elements/1.1/" xml:space="preserve" width="176.13px" version="1.1" xmlns:rdf="http://www.w3.org/1999/02/22-rdf-syntax-ns#" xmlns="http://www.w3.org/2000/svg" x="0px" y="0px" xmlns:cc="http://creativecommons.org/ns#" enable-background="new 0 0 176.132 77.239" height="77.239px" viewBox="0 0 176.132 77.239"><metadata><rdf:RDF><cc:Work rdf:about=""><dc:format>image/svg+xml</dc:format><dc:type rdf:resource="http://purl.org/dc/dcmitype/StillImage"/><dc:title/></cc:Work></rdf:RDF></metadata>
	<path d="m38.65 77.239c21.328 0 38.65-17.271 38.65-38.611 0-21.341-17.322-38.628-38.65-38.628-21.361 0-38.65 17.287-38.65 38.628 0 21.34 17.289 38.611 38.65 38.611" fill="#A50034"/>
	<polygon points="37.095 21.676 37.095 55.563 47.868 55.563 47.868 52.516 40.2 52.516 40.2 21.676" fill="#fff"/>
	<path d="m26.308 30.922c2.563 0 4.629-2.084 4.629-4.629 0-2.547-2.066-4.639-4.629-4.639s-4.629 2.092-4.629 4.639 2.066 4.629 4.629 4.629" fill="#fff"/>
	<path d="m40.199 6.304c-0.404-0.02-1.172-0.045-1.539-0.045-17.84 0-32.359 14.524-32.359 32.353 0 8.66 3.365 16.777 9.46 22.881 6.12 6.09 14.241 9.455 22.899 9.455 8.625 0 16.744-3.365 22.853-9.455 6.11-6.104 9.491-14.221 9.491-22.881v-1.439h-23.106v2.978h20.024c0 0.065 0 0.381-0.014 0.463-1.018 15.242-13.748 27.314-29.248 27.314-7.846 0-15.203-3.051-20.74-8.592-5.555-5.518-8.616-12.869-8.616-20.725 0-7.811 3.061-15.2 8.616-20.735 5.537-5.53 12.894-8.581 20.74-8.581 0.338 0 1.16 0 1.539 0.02v-3.011z" fill="#fff"/>
</svg>
