<?xml version="1.0" encoding="UTF-8" standalone="no"?>
<svg xmlns:rdf="http://www.w3.org/1999/02/22-rdf-syntax-ns#" enable-background="new 0 0 176.132 77.239" height="77.239px" xmlns="http://www.w3.org/2000/svg" width="176.13px" xml:space="preserve" xmlns:cc="http://creativecommons.org/ns#" xmlns:dc="http://purl.org/dc/elements/1.1/" version="1.1" viewBox="0 0 176.132 77.239" y="0px" x="0px"><metadata><rdf:RDF><cc:Work rdf:about=""><dc:format>image/svg+xml</dc:format><dc:type rdf:resource="http://purl.org/dc/dcmitype/StillImage"/></cc:Work></rdf:RDF></metadata>
	<path d="m38.65 77.239c21.328 0 38.65-17.271 38.65-38.611 0-21.341-17.322-38.628-38.65-38.628-21.361 0-38.65 17.287-38.65 38.628 0 21.34 17.289 38.611 38.65 38.611" fill="#A50034"/>
	<polygon points="37.095 21.676 37.095 55.563 47.868 55.563 47.868 52.516 40.2 52.516 40.2 21.676" fill="#fff"/>
	<path d="m26.308 30.922c2.563 0 4.629-2.084 4.629-4.629 0-2.547-2.066-4.639-4.629-4.639s-4.629 2.092-4.629 4.639 2.066 4.629 4.629 4.629" fill="#fff"/>
	<path d="m40.199 6.304c-0.404-0.02-1.172-0.045-1.539-0.045-17.84 0-32.359 14.524-32.359 32.353 0 8.66 3.365 16.777 9.46 22.881 6.12 6.09 14.241 9.455 22.899 9.455 8.625 0 16.744-3.365 22.853-9.455 6.11-6.104 9.491-14.221 9.491-22.881v-1.439h-23.106v2.978h20.024c0 0.065 0 0.381-0.014 0.463-1.018 15.242-13.748 27.314-29.248 27.314-7.846 0-15.203-3.051-20.74-8.592-5.555-5.518-8.616-12.869-8.616-20.725 0-7.811 3.061-15.2 8.616-20.735 5.537-5.53 12.894-8.581 20.74-8.581 0.338 0 1.16 0 1.539 0.02v-3.011z" fill="#fff"/>
	<path d="m106.37 13.002h-11.617v50.278h35.672v-9.787h-24.058v-40.491zm49.6 31.118h9.459v8.791c-1.744 0.664-5.145 1.326-8.381 1.326-10.453 0-13.935-5.309-13.935-16.092 0-10.283 3.316-16.346 13.769-16.346 5.809 0 9.127 1.826 11.861 5.311l7.221-6.639c-4.398-6.3-12.115-8.208-19.33-8.208-16.264 0-24.807 8.876-24.807 25.798 0 16.84 7.715 25.965 24.725 25.965 7.797 0 15.43-1.99 19.576-4.893v-24.39h-20.158v9.377z" fill="#fff"/>
</svg>
