<?xml version="1.0" encoding="UTF-8" standalone="no"?>
<!-- Created with Inkscape (http://www.inkscape.org/) -->

<svg
   xmlns:dc="http://purl.org/dc/elements/1.1/"
   xmlns:cc="http://creativecommons.org/ns#"
   xmlns:rdf="http://www.w3.org/1999/02/22-rdf-syntax-ns#"
   xmlns:svg="http://www.w3.org/2000/svg"
   xmlns="http://www.w3.org/2000/svg"
   xmlns:xlink="http://www.w3.org/1999/xlink"
   xmlns:sodipodi="http://sodipodi.sourceforge.net/DTD/sodipodi-0.dtd"
   xmlns:inkscape="http://www.inkscape.org/namespaces/inkscape"
   width="40"
   height="40"
   id="svg2"
   version="1.1"
   inkscape:version="0.48.5 r10040"
   sodipodi:docname="dog-frown.svg">
  <defs
     id="defs4">
    <linearGradient
       id="linearGradient4787">
      <stop
         style="stop-color:#935400;stop-opacity:1;"
         offset="0"
         id="stop4789" />
      <stop
         style="stop-color:#e68400;stop-opacity:1;"
         offset="1"
         id="stop4791" />
    </linearGradient>
    <linearGradient
       id="linearGradient4740">
      <stop
         style="stop-color:#e18100;stop-opacity:1;"
         offset="0"
         id="stop4742" />
      <stop
         style="stop-color:#f8ae00;stop-opacity:1;"
         offset="1"
         id="stop4744" />
    </linearGradient>
    <linearGradient
       inkscape:collect="always"
       xlink:href="#linearGradient4740"
       id="linearGradient4746"
       x1="15"
       y1="13"
       x2="25"
       y2="37"
       gradientUnits="userSpaceOnUse" />
    <linearGradient
       inkscape:collect="always"
       xlink:href="#linearGradient4740"
       id="linearGradient4754"
       x1="15"
       y1="11"
       x2="25"
       y2="35"
       gradientUnits="userSpaceOnUse"
       gradientTransform="matrix(1.0539161,0,0,1.0539161,-1.2790825,1010.4836)" />
    <linearGradient
       inkscape:collect="always"
       xlink:href="#linearGradient4787"
       id="linearGradient4793"
       x1="9.2321434"
       y1="9.1964283"
       x2="12.910714"
       y2="12.946428"
       gradientUnits="userSpaceOnUse"
       gradientTransform="matrix(1.0539161,0,0,1.0539161,-1.3731822,1010.1789)" />
    <linearGradient
       id="linearGradient4787-2">
      <stop
         style="stop-color:#935400;stop-opacity:1;"
         offset="0"
         id="stop4789-6" />
      <stop
         style="stop-color:#e68400;stop-opacity:1;"
         offset="1"
         id="stop4791-0" />
    </linearGradient>
    <linearGradient
       gradientTransform="matrix(-1.0539161,0,0,1.0539161,40.748525,1009.9799)"
       y2="12.946428"
       x2="12.910714"
       y1="9.1964283"
       x1="9.2321434"
       gradientUnits="userSpaceOnUse"
       id="linearGradient4811"
       xlink:href="#linearGradient4787-2"
       inkscape:collect="always" />
  </defs>
  <sodipodi:namedview
     id="base"
     pagecolor="#ffffff"
     bordercolor="#666666"
     borderopacity="1.0"
     inkscape:pageopacity="0.0"
     inkscape:pageshadow="2"
     inkscape:zoom="11.2"
     inkscape:cx="21.100046"
     inkscape:cy="20"
     inkscape:document-units="px"
     inkscape:current-layer="layer1"
     showgrid="true"
     inkscape:window-width="963"
     inkscape:window-height="674"
     inkscape:window-x="534"
     inkscape:window-y="152"
     inkscape:window-maximized="0"
     inkscape:snap-grids="false">
    <inkscape:grid
       type="xygrid"
       id="grid2985"
       empspacing="5"
       visible="true"
       enabled="true"
       snapvisiblegridlinesonly="true"
       dotted="false" />
  </sodipodi:namedview>
  <metadata
     id="metadata7">
    <rdf:RDF>
      <cc:Work
         rdf:about="">
        <dc:format>image/svg+xml</dc:format>
        <dc:type
           rdf:resource="http://purl.org/dc/dcmitype/StillImage" />
        <dc:title />
      </cc:Work>
    </rdf:RDF>
  </metadata>
  <g
     inkscape:label="Layer 1"
     inkscape:groupmode="layer"
     id="layer1"
     transform="translate(0,-1012.3622)">
    <path
       sodipodi:type="arc"
       style="fill:url(#linearGradient4746);fill-opacity:1;stroke:#b06500;stroke-opacity:1"
       id="path4630"
       sodipodi:cx="20"
       sodipodi:cy="20.5"
       sodipodi:rx="9.9285717"
       sodipodi:ry="9.0714283"
       d="m 29.928572,20.5 c 0,5.010012 -4.445173,9.071428 -9.928572,9.071428 -5.483399,0 -9.928572,-4.061416 -9.928572,-9.071428 0,-5.010012 4.445173,-9.071428 9.928572,-9.071428 5.483399,0 9.928572,4.061416 9.928572,9.071428 z"
       transform="matrix(1.0539161,0,0,1.0539161,-1.3731822,1007.7547)" />
    <path
       sodipodi:type="arc"
       style="fill:#ffeace;fill-opacity:1;stroke:none"
       id="path4660"
       sodipodi:cx="15.5"
       sodipodi:cy="19.5"
       sodipodi:rx="2.2321608"
       sodipodi:ry="2.2142732"
       d="m 17.732161,19.5 c 0,1.222909 -0.999373,2.214273 -2.232161,2.214273 -1.232788,0 -2.232161,-0.991364 -2.232161,-2.214273 0,-1.222909 0.999373,-2.214273 2.232161,-2.214273 1.232788,0 2.232161,0.991364 2.232161,2.214273 z"
       transform="matrix(0.91217647,-0.00548599,0.00579444,0.86362002,1.9453741,1013.4924)" />
    <path
       transform="matrix(0.91142019,-0.03183911,0.03207146,0.90481767,8.3294013,1013.0601)"
       sodipodi:type="arc"
       style="fill:#ffeace;fill-opacity:1;stroke:none"
       id="path4660-7"
       sodipodi:cx="15.5"
       sodipodi:cy="19.5"
       sodipodi:rx="2.2264154"
       sodipodi:ry="2.1277535"
       d="m 17.726415,19.5 c 0,1.175126 -0.9968,2.127753 -2.226415,2.127753 -1.229615,0 -2.226415,-0.952627 -2.226415,-2.127753 0,-1.175126 0.9968,-2.127753 2.226415,-2.127753 1.229615,0 2.226415,0.952627 2.226415,2.127753 z" />
    <path
       sodipodi:type="arc"
       style="fill:#130b00;fill-opacity:1;stroke:none"
       id="path4662"
       sodipodi:cx="16.651785"
       sodipodi:cy="19.419643"
       sodipodi:rx="1.2946428"
       sodipodi:ry="0.9375"
       d="m 17.946428,19.419643 c 0,0.517767 -0.579632,0.9375 -1.294643,0.9375 -0.715012,0 -1.294643,-0.419733 -1.294643,-0.9375 0,-0.517767 0.579631,-0.9375 1.294643,-0.9375 0.715011,0 1.294643,0.419733 1.294643,0.9375 z"
       transform="matrix(0.73265341,0,0,1.0117594,3.7486932,1010.7101)" />
    <path
       sodipodi:type="arc"
       style="fill:#130b00;fill-opacity:1;stroke:none"
       id="path4662-4"
       sodipodi:cx="16.651785"
       sodipodi:cy="19.419643"
       sodipodi:rx="1.2946428"
       sodipodi:ry="0.9375"
       d="m 17.946428,19.419643 c 0,0.517767 -0.579632,0.9375 -1.294643,0.9375 -0.715012,0 -1.294643,-0.419733 -1.294643,-0.9375 0,-0.517767 0.579631,-0.9375 1.294643,-0.9375 0.715011,0 1.294643,0.419733 1.294643,0.9375 z"
       transform="matrix(0.73265341,0,0,1.0117594,10.655756,1010.649)" />
    <path
       style="fill:url(#linearGradient4754);fill-opacity:1;stroke:#b06500;stroke-width:1.0539161px;stroke-linecap:round;stroke-linejoin:miter;stroke-opacity:1"
       d="m 12.553566,1031.7501 c 0,0 -1.895022,3.7707 -1.26233,6.9772 0.732666,3.7131 5.794198,6.253 8.508002,6.1968 2.602572,-0.054 7.05674,-2.4918 8.149607,-5.8154 1.198952,-3.6463 -1.280331,-7.3586 -1.280331,-7.3586"
       id="path4652"
       inkscape:connector-curvature="0"
       sodipodi:nodetypes="csssc" />
    <path
       style="fill:#442700;fill-opacity:1;stroke:none"
       d="m 22.05763,1036.8019 c -0.188199,2.3937 -1.31031,0.7748 -2.258392,0.8186 -0.803372,-0.056 -2.164291,1.2928 -2.258391,-0.8186 -0.04373,-0.9813 1.011116,-1.7785 2.258391,-1.7785 1.247275,0 2.335379,0.7993 2.258392,1.7785 z"
       id="path4654"
       inkscape:connector-curvature="0"
       sodipodi:nodetypes="scsss" />
    <path
       style="fill:none;stroke:#754300;stroke-width:1.0539161px;stroke-linecap:butt;stroke-linejoin:miter;stroke-opacity:1"
       d="m 14.529658,1041.3543 c 0.940996,-1.5997 1.129196,-1.5997 2.258392,-1.5997 1.129197,0 2.72889,0.8468 2.72889,0.8468 0,0 1.976092,-1.0351 3.199387,-0.941 1.223295,0.094 1.787894,-0.1882 2.164293,1.5056"
       id="path4765"
       inkscape:connector-curvature="0"
       sodipodi:nodetypes="csccc" />
    <path
       style="fill:url(#linearGradient4793);fill-opacity:1;stroke:#b06500;stroke-width:1.0539161px;stroke-linecap:butt;stroke-linejoin:round;stroke-opacity:1"
       d="m 14.435559,1021.7532 c -1.035096,-1.3175 -3.105288,-1.1292 -3.105288,-1.1292 l -4.3285844,0.941 c 0,0 2.1642926,2.1643 3.0111884,5.3637"
       id="path4783"
       inkscape:connector-curvature="0"
       sodipodi:nodetypes="cccc" />
    <path
       style="fill:#e18100;fill-opacity:1;stroke:#b06500;stroke-width:1.0539161px;stroke-linecap:butt;stroke-linejoin:miter;stroke-opacity:1"
       d="m 7.0016866,1021.6255 c -1.6937936,1.5996 -2.1642919,7.8101 -0.6586975,8.3748 1.5055944,0.5646 2.7288901,-3.1052 3.1052891,-4.0463 0.376398,-0.941 0.8468968,-5.1754 1.9760918,-5.4578 z"
       id="path4785"
       inkscape:connector-curvature="0"
       sodipodi:nodetypes="csscc" />
    <path
       style="fill:url(#linearGradient4811);fill-opacity:1;stroke:#b06500;stroke-width:1.0539161px;stroke-linecap:butt;stroke-linejoin:round;stroke-opacity:1"
       d="m 24.939782,1021.554 c 0.846898,-1.5996 3.199388,-1.035 3.199388,-1.035 l 4.799083,1.3174 c 0,0 -2.72889,1.6937 -3.575787,4.8931"
       id="path4783-4"
       inkscape:connector-curvature="0"
       sodipodi:nodetypes="cccc" />
    <path
       style="fill:#e18100;fill-opacity:1;stroke:#b06500;stroke-width:1.0539161px;stroke-linecap:butt;stroke-linejoin:miter;stroke-opacity:1"
       d="m 32.938253,1021.8136 c 1.693793,1.5998 2.25839,7.8103 0.752796,8.3749 -1.505595,0.5645 -3.105287,-3.6699 -3.481686,-4.6108 -0.376399,-0.9411 -0.564599,-4.611 -1.693794,-4.8933 z"
       id="path4785-9"
       inkscape:connector-curvature="0"
       sodipodi:nodetypes="csscc" />
    <path
       style="fill:none;stroke:#b06500;stroke-width:0.94852442;stroke-linecap:round;stroke-linejoin:miter;stroke-miterlimit:4;stroke-opacity:1;stroke-dasharray:none"
       d="m 13.87096,1026.3075 c 1.223296,-0.5646 3.575787,-0.7528 4.328584,-0.1882"
       id="path4834"
       inkscape:connector-curvature="0" />
    <path
       style="fill:none;stroke:#b06500;stroke-width:0.94852442;stroke-linecap:round;stroke-linejoin:miter;stroke-miterlimit:4;stroke-opacity:1;stroke-dasharray:none"
       d="m 25.445217,1026.3838 c -1.223295,-0.5646 -3.575786,-0.7528 -4.328584,-0.1881"
       id="path4834-4"
       inkscape:connector-curvature="0" />
    <path
       style="fill:none;stroke:#b06500;stroke-width:1px;stroke-linecap:round;stroke-linejoin:miter;stroke-opacity:1"
       d="m 16.764,1034.3265 c 1.071428,-0.8929 5,-0.8929 6.071428,0"
       id="path4854"
       inkscape:connector-curvature="0"
       sodipodi:nodetypes="cc" />
  </g>
</svg>
