<?xml version="1.0" encoding="UTF-8" standalone="no"?>
<!-- Created with Inkscape (http://www.inkscape.org/) -->

<svg
   xmlns:dc="http://purl.org/dc/elements/1.1/"
   xmlns:cc="http://creativecommons.org/ns#"
   xmlns:rdf="http://www.w3.org/1999/02/22-rdf-syntax-ns#"
   xmlns:svg="http://www.w3.org/2000/svg"
   xmlns="http://www.w3.org/2000/svg"
   xmlns:xlink="http://www.w3.org/1999/xlink"
   xmlns:sodipodi="http://sodipodi.sourceforge.net/DTD/sodipodi-0.dtd"
   xmlns:inkscape="http://www.inkscape.org/namespaces/inkscape"
   width="40"
   height="40"
   id="svg2"
   version="1.1"
   inkscape:version="0.48.5 r10040"
   sodipodi:docname="fox-frozen.svg">
  <defs
     id="defs4">
    <linearGradient
       id="linearGradient3773">
      <stop
         style="stop-color:#d9e3fb;stop-opacity:0.56756759;"
         offset="0"
         id="stop3775" />
      <stop
         id="stop3781"
         offset="0.22222222"
         style="stop-color:#4c79e7;stop-opacity:0.5529412;" />
      <stop
         style="stop-color:#ebf0fc;stop-opacity:0.54509807;"
         offset="0.66666669"
         id="stop3783" />
      <stop
         style="stop-color:#1650de;stop-opacity:0.54054052;"
         offset="1"
         id="stop3777" />
    </linearGradient>
    <linearGradient
       id="linearGradient4740">
      <stop
         style="stop-color:#e18100;stop-opacity:1;"
         offset="0"
         id="stop4742" />
      <stop
         style="stop-color:#f8ae00;stop-opacity:1;"
         offset="1"
         id="stop4744" />
    </linearGradient>
    <linearGradient
       inkscape:collect="always"
       xlink:href="#linearGradient4740"
       id="linearGradient4746"
       x1="15"
       y1="13"
       x2="25"
       y2="37"
       gradientUnits="userSpaceOnUse" />
    <linearGradient
       inkscape:collect="always"
       xlink:href="#linearGradient4740"
       id="linearGradient4754"
       x1="15"
       y1="11"
       x2="25"
       y2="35"
       gradientUnits="userSpaceOnUse" />
    <linearGradient
       inkscape:collect="always"
       xlink:href="#linearGradient3773"
       id="linearGradient3779"
       x1="9"
       y1="8"
       x2="32"
       y2="35"
       gradientUnits="userSpaceOnUse" />
    <filter
       inkscape:collect="always"
       id="filter3921">
      <feGaussianBlur
         inkscape:collect="always"
         stdDeviation="0.35192868"
         id="feGaussianBlur3923" />
    </filter>
  </defs>
  <sodipodi:namedview
     id="base"
     pagecolor="#ffffff"
     bordercolor="#666666"
     borderopacity="1.0"
     inkscape:pageopacity="0.0"
     inkscape:pageshadow="2"
     inkscape:zoom="11.2"
     inkscape:cx="19.174966"
     inkscape:cy="20"
     inkscape:document-units="px"
     inkscape:current-layer="layer1"
     showgrid="true"
     inkscape:window-width="963"
     inkscape:window-height="674"
     inkscape:window-x="879"
     inkscape:window-y="165"
     inkscape:window-maximized="0"
     inkscape:snap-grids="true">
    <inkscape:grid
       type="xygrid"
       id="grid2985"
       empspacing="5"
       visible="true"
       enabled="true"
       snapvisiblegridlinesonly="true"
       dotted="false" />
  </sodipodi:namedview>
  <metadata
     id="metadata7">
    <rdf:RDF>
      <cc:Work
         rdf:about="">
        <dc:format>image/svg+xml</dc:format>
        <dc:type
           rdf:resource="http://purl.org/dc/dcmitype/StillImage" />
        <dc:title />
      </cc:Work>
    </rdf:RDF>
  </metadata>
  <g
     inkscape:label="Layer 1"
     inkscape:groupmode="layer"
     id="layer1"
     transform="translate(0,-1012.3622)">
    <path
       sodipodi:type="arc"
       style="fill:url(#linearGradient4746);fill-opacity:1;stroke:#b06500;stroke-opacity:1"
       id="path4630"
       sodipodi:cx="20"
       sodipodi:cy="20.5"
       sodipodi:rx="9.9285717"
       sodipodi:ry="9.1607141"
       d="m 29.928572,20.5 c 0,5.059323 -4.445173,9.160714 -9.928572,9.160714 -5.483399,0 -9.928572,-4.101391 -9.928572,-9.160714 0,-5.059323 4.445173,-9.160714 9.928572,-9.160714 5.483399,0 9.928572,4.101391 9.928572,9.160714 z"
       transform="translate(0,1010.3622)" />
    <path
       style="fill:#e18100;fill-opacity:1;stroke:#b06500;stroke-width:1px;stroke-linecap:butt;stroke-linejoin:miter;stroke-opacity:1"
       d="m 10.535715,1028.7015 c -2.7678578,-2.4107 -3.4821436,-10 -3.4821436,-10 0,0 6.0714296,2.1429 8.0357156,4.6429"
       id="path4632"
       inkscape:connector-curvature="0"
       sodipodi:nodetypes="ccc" />
    <path
       style="fill:#e18100;fill-opacity:1;stroke:#b06500;stroke-width:1px;stroke-linecap:butt;stroke-linejoin:miter;stroke-opacity:1"
       d="m 29.464286,1028.7908 c 2.767857,-2.4107 3.482143,-10 3.482143,-10 0,0 -6.517858,1.9643 -8.482144,4.4643"
       id="path4632-1"
       inkscape:connector-curvature="0"
       sodipodi:nodetypes="ccc" />
    <path
       style="fill:url(#linearGradient4754);fill-opacity:1;stroke:#b06500;stroke-width:1px;stroke-linecap:butt;stroke-linejoin:miter;stroke-opacity:1"
       d="m 12.321429,24.285714 c 0,0 5.625,9.821429 7.5,9.821429 1.964285,0 7.857143,-10 7.857143,-10"
       id="path4652"
       inkscape:connector-curvature="0"
       transform="translate(0,1012.3622)"
       sodipodi:nodetypes="csc" />
    <path
       sodipodi:type="arc"
       style="fill:#ffd090;fill-opacity:1;stroke:none"
       id="path4656"
       sodipodi:cx="19.866072"
       sodipodi:cy="29.508928"
       sodipodi:rx="2.5446429"
       sodipodi:ry="3.0803571"
       d="m 22.410715,29.508928 c 0,1.701235 -1.139276,3.080357 -2.544643,3.080357 -1.405368,0 -2.544643,-1.379122 -2.544643,-3.080357 0,-1.701234 1.139275,-3.080357 2.544643,-3.080357 1.405367,0 2.544643,1.379123 2.544643,3.080357 z"
       transform="translate(0.1339283,1011.9336)" />
    <path
       sodipodi:type="arc"
       style="fill:#442700;fill-opacity:1;stroke:none"
       id="path4654"
       sodipodi:cx="19.910715"
       sodipodi:cy="29.6875"
       sodipodi:rx="2.1428571"
       sodipodi:ry="1.1160715"
       d="m 22.053572,29.6875 c 0,0.616389 -0.95939,1.116071 -2.142857,1.116071 -1.183467,0 -2.142857,-0.499682 -2.142857,-1.116071 0,-0.616389 0.95939,-1.116071 2.142857,-1.116071 1.183467,0 2.142857,0.499682 2.142857,1.116071 z"
       transform="translate(0.0892849,1012.3622)" />
    <path
       style="fill:none;stroke:#442700;stroke-width:1px;stroke-linecap:butt;stroke-linejoin:miter;stroke-opacity:1"
       d="m 20,30 0,3"
       id="path4658"
       inkscape:connector-curvature="0"
       transform="translate(0,1012.3622)" />
    <path
       sodipodi:type="arc"
       style="fill:#ffeace;fill-opacity:1;stroke:none"
       id="path4660"
       sodipodi:cx="15.5"
       sodipodi:cy="19.5"
       sodipodi:rx="3.125"
       sodipodi:ry="1.5892859"
       d="m 18.625,19.5 c 0,0.877738 -1.39911,1.589286 -3.125,1.589286 -1.72589,0 -3.125,-0.711548 -3.125,-1.589286 0,-0.877738 1.39911,-1.589286 3.125,-1.589286 1.72589,0 3.125,0.711548 3.125,1.589286 z"
       transform="matrix(0.98898157,0.14803871,-0.14803871,0.98898157,3.3253977,1009.9254)" />
    <path
       sodipodi:type="arc"
       style="fill:#130b00;fill-opacity:1;stroke:none"
       id="path4662"
       sodipodi:cx="16.651785"
       sodipodi:cy="19.419643"
       sodipodi:rx="1.2946428"
       sodipodi:ry="0.9375"
       d="m 17.946428,19.419643 c 0,0.517767 -0.579632,0.9375 -1.294643,0.9375 -0.715012,0 -1.294643,-0.419733 -1.294643,-0.9375 0,-0.517767 0.579631,-0.9375 1.294643,-0.9375 0.715011,0 1.294643,0.419733 1.294643,0.9375 z"
       transform="matrix(0.77241382,0,0,1.0666667,3.9415017,1010.9269)" />
    <path
       transform="matrix(0.98820948,-0.15310786,0.15310786,0.98820948,5.8042926,1014.5724)"
       sodipodi:type="arc"
       style="fill:#ffeace;fill-opacity:1;stroke:none"
       id="path4660-7"
       sodipodi:cx="15.5"
       sodipodi:cy="19.5"
       sodipodi:rx="3.125"
       sodipodi:ry="1.5000001"
       d="m 18.625,19.5 c 0,0.828427 -1.39911,1.5 -3.125,1.5 -1.72589,0 -3.125,-0.671573 -3.125,-1.5 0,-0.828427 1.39911,-1.5 3.125,-1.5 1.72589,0 3.125,0.671573 3.125,1.5 z" />
    <path
       sodipodi:type="arc"
       style="fill:#130b00;fill-opacity:1;stroke:none"
       id="path4662-4"
       sodipodi:cx="16.651785"
       sodipodi:cy="19.419643"
       sodipodi:rx="1.2946428"
       sodipodi:ry="0.9375"
       d="m 17.946428,19.419643 c 0,0.517767 -0.579632,0.9375 -1.294643,0.9375 -0.715012,0 -1.294643,-0.419733 -1.294643,-0.9375 0,-0.517767 0.579631,-0.9375 1.294643,-0.9375 0.715011,0 1.294643,0.419733 1.294643,0.9375 z"
       transform="matrix(0.77241382,0,0,1.0666667,12.280931,1010.6909)" />
    <path
       style="fill:none;stroke:#854c00;stroke-width:1px;stroke-linecap:round;stroke-linejoin:miter;stroke-opacity:1"
       d="m 14,1024.3622 c -1.696428,-1.4285 -4.803571,-3.0714 -4.803571,-3.0714"
       id="path4691-8"
       inkscape:connector-curvature="0"
       sodipodi:nodetypes="cc" />
    <path
       style="fill:none;stroke:#854c00;stroke-width:1px;stroke-linecap:round;stroke-linejoin:miter;stroke-opacity:1"
       d="M 11.875,1026.6479 14,1024.3622"
       id="path4693-8"
       inkscape:connector-curvature="0"
       sodipodi:nodetypes="cc" />
    <path
       style="fill:none;stroke:#854c00;stroke-width:1px;stroke-linecap:round;stroke-linejoin:miter;stroke-opacity:1"
       d="m 26,12 c 1.696428,-1.428571 4.803571,-3.0714286 4.803571,-3.0714286"
       id="path4691"
       inkscape:connector-curvature="0"
       sodipodi:nodetypes="cc"
       transform="translate(0,1012.3622)" />
    <path
       style="fill:none;stroke:#854c00;stroke-width:1px;stroke-linecap:round;stroke-linejoin:miter;stroke-opacity:1"
       d="M 28.125,14.285714 26,12"
       id="path4693"
       inkscape:connector-curvature="0"
       sodipodi:nodetypes="cc"
       transform="translate(0,1012.3622)" />
    <path
       style="fill:url(#linearGradient3779);stroke:#3a6feb;stroke-width:1px;stroke-linecap:butt;stroke-linejoin:miter;stroke-opacity:0.72340422999999998;fill-opacity:1;opacity:0.9"
       d="m 4,4 c 2.8678111,-3.24860543 8,0 13,0 5,0 14.820902,-0.4984711 17,-1 4.562639,-1.0501113 1,20 0,24 -1,4 1.785063,8.823702 1,10 -0.889215,1.332355 -8.214701,-1.75703 -12,0 C 18.417175,39.12722 5.8270654,38.518804 5,37 4.3236663,35.757996 6,32 4,25 3.1758366,22.115428 6,15 5,12 4.0513167,9.1539501 2.2214591,6.0146996 4,4 z"
       id="path3003"
       inkscape:connector-curvature="0"
       sodipodi:nodetypes="assssssssa"
       transform="translate(0,1012.3622)" />
    <path
       style="fill:#ffffff;fill-opacity:0.66489366000000005;stroke:none;opacity:0.59999999999999998"
       d="m 12.511731,1044.8464 c -1.070542,-0.5358 -0.596869,-2.0683 -1.217607,-2.9656 -0.360153,-1.4439 -0.214298,-2.9424 -0.288461,-4.4094 -0.38364,-1.4859 -1.5237141,-2.5957 -2.3703905,-3.8136 -0.7048513,-1.2767 0.2682242,-2.4543 0.8218927,-3.546 0.8589958,-1.7962 0.5779158,-3.8287 0.5428348,-5.7496 -0.114181,-1.0851 -0.478654,-2.6219 0.732317,-3.2297 1.223184,-0.7831 2.729598,-0.6923 4.113051,-0.9017 0.991055,-0.3087 2.604193,-0.1741 1.915847,1.2784 -0.549146,1.7711 1.888047,1.0987 2.83911,0.9056 1.303818,-0.1319 3.052183,-0.5369 3.882324,0.7979 0.975314,1.3464 -0.861186,2.3391 -2.045824,2.1238 -0.909532,-0.021 -1.818971,0 -2.728694,-0.01 -1.34097,0.7505 -2.939557,1.7625 -2.977095,3.4841 -0.254585,2.2092 2.323914,3.4737 2.206156,5.6531 -0.09302,1.4567 -1.91338,1.5704 -2.959171,1.0914 -1.299231,0.067 -0.771118,2.0721 -1.101038,2.9879 0.0083,2.1628 0.817867,4.2153 1.301094,6.2942 0.157894,1.3257 -1.658844,1.1258 -2.200895,0.3288 -0.147083,-0.1177 -0.29949,-0.2333 -0.465451,-0.3211 z"
       id="path3969"
       inkscape:connector-curvature="0" />
    <path
       style="fill:#ffffff;fill-opacity:0.66489366000000005;stroke:none;opacity:0.59999999999999998"
       d="m 25.511731,1045.8464 c -0.793475,-0.2335 -1.110806,-1.1569 -1.561749,-1.9282 -0.651682,-0.9963 -0.108396,-2.2093 0.979833,-2.5902 0.714968,-0.5268 1.417315,-1.1049 2.025652,-1.757 0.817048,-1.0385 0.616752,-2.4245 0.567516,-3.6479 -0.278341,-1.3569 -0.275326,-2.8123 0.381103,-4.0669 0.388608,-1.043 0.807299,-2.076 1.199132,-3.1193 0.378913,-1.2422 0.323169,-2.5546 0.355983,-3.8294 -0.259284,-0.7502 -0.277841,-2.4943 0.914642,-1.6286 1.210892,0.4625 1.133009,1.8745 0.96782,2.9274 -0.282294,1.6086 -0.403977,3.2406 -0.692619,4.8451 -0.417655,1.7967 -0.648277,3.6709 -0.446284,5.5112 0.165589,1.0749 0.36679,2.1398 0.718793,3.171 0.392998,1.7795 0.40324,3.6036 0.376036,5.4162 0.804865,1.1457 -0.908165,1.7032 -1.785718,1.4379 -1.077418,-0.073 -1.932483,-0.8376 -2.952441,-1.0858 -0.378252,-0.071 -0.695021,0.4483 -1.047699,0.3445 z"
       id="path3974"
       inkscape:connector-curvature="0"
       sodipodi:nodetypes="accccccccccccccca" />
  </g>
</svg>
