<?xml version="1.0" encoding="UTF-8" standalone="no"?>
<!-- Created with Inkscape (http://www.inkscape.org/) -->

<svg
   xmlns:dc="http://purl.org/dc/elements/1.1/"
   xmlns:cc="http://creativecommons.org/ns#"
   xmlns:rdf="http://www.w3.org/1999/02/22-rdf-syntax-ns#"
   xmlns:svg="http://www.w3.org/2000/svg"
   xmlns="http://www.w3.org/2000/svg"
   xmlns:xlink="http://www.w3.org/1999/xlink"
   xmlns:sodipodi="http://sodipodi.sourceforge.net/DTD/sodipodi-0.dtd"
   xmlns:inkscape="http://www.inkscape.org/namespaces/inkscape"
   width="40"
   height="40"
   id="svg2"
   version="1.1"
   inkscape:version="0.48.5 r10040"
   sodipodi:docname="frog.svg">
  <defs
     id="defs4">
    <linearGradient
       id="linearGradient3889">
      <stop
         style="stop-color:#7ebf0d;stop-opacity:1;"
         offset="0"
         id="stop3891" />
      <stop
         style="stop-color:#9eef12;stop-opacity:1;"
         offset="1"
         id="stop3893" />
    </linearGradient>
    <linearGradient
       inkscape:collect="always"
       xlink:href="#linearGradient3889"
       id="linearGradient3895"
       x1="18.516699"
       y1="24.508928"
       x2="21.667467"
       y2="31.116072"
       gradientUnits="userSpaceOnUse"
       gradientTransform="translate(0.30017267,1009.7065)" />
  </defs>
  <sodipodi:namedview
     id="base"
     pagecolor="#ffffff"
     bordercolor="#666666"
     borderopacity="1.0"
     inkscape:pageopacity="0.0"
     inkscape:pageshadow="2"
     inkscape:zoom="11.2"
     inkscape:cx="14.847503"
     inkscape:cy="20.279743"
     inkscape:document-units="px"
     inkscape:current-layer="layer1"
     showgrid="true"
     inkscape:window-width="1069"
     inkscape:window-height="674"
     inkscape:window-x="384"
     inkscape:window-y="221"
     inkscape:window-maximized="0"
     inkscape:snap-grids="false">
    <inkscape:grid
       type="xygrid"
       id="grid2985"
       empspacing="5"
       visible="true"
       enabled="true"
       snapvisiblegridlinesonly="true"
       dotted="false" />
  </sodipodi:namedview>
  <metadata
     id="metadata7">
    <rdf:RDF>
      <cc:Work
         rdf:about="">
        <dc:format>image/svg+xml</dc:format>
        <dc:type
           rdf:resource="http://purl.org/dc/dcmitype/StillImage" />
        <dc:title />
      </cc:Work>
    </rdf:RDF>
  </metadata>
  <g
     inkscape:label="Layer 1"
     inkscape:groupmode="layer"
     id="layer1"
     transform="translate(0,-1012.3622)">
    <path
       style="fill:#8bd30e;fill-opacity:1;stroke:#588609;stroke-width:1px;stroke-linecap:butt;stroke-linejoin:miter;stroke-opacity:1"
       d="m 27.724971,1034.4633 c 4.553571,-2.4107 5.535714,-2.5893 6.160714,-1.9643 0.625,0.625 0.625,4.4643 -3.482143,8.0357 -4.107142,3.5714 -2.678571,-6.0714 -2.678571,-6.0714 z"
       id="path3869-9"
       inkscape:connector-curvature="0" />
    <path
       style="fill:#8bd30e;fill-opacity:1;stroke:#588609;stroke-width:1px;stroke-linecap:butt;stroke-linejoin:miter;stroke-opacity:1"
       d="m 12.44303,1034.7065 c -4.5535716,-2.4107 -5.5357144,-2.5893 -6.1607144,-1.9643 -0.625,0.625 -0.625,4.4643 3.4821428,8.0357 4.1071426,3.5714 2.6785716,-6.0714 2.6785716,-6.0714 z"
       id="path3869"
       inkscape:connector-curvature="0" />
    <path
       style="fill:#7ebf0d;fill-opacity:1;stroke:#588609;stroke-width:1px;stroke-linecap:butt;stroke-linejoin:round;stroke-opacity:1"
       d="m 29.485036,1038.0932 c 1.696428,2.5893 4.553571,2.5 3.839285,3.6607 -0.714285,1.1607 -3.482142,0.089 -3.482142,0.089 0,0 2.589285,1.875 1.696428,3.125 -0.892857,1.25 -3.125,-2.1429 -3.125,-2.1429 0,0 0.892857,3.3929 -0.625,3.6608 -1.517858,0.2678 -1.160715,-3.8393 -1.696429,-6.0715"
       id="path3849-0"
       inkscape:connector-curvature="0"
       sodipodi:nodetypes="cscscsc" />
    <path
       style="fill:#7ebf0d;fill-opacity:1;stroke:#588609;stroke-width:1px;stroke-linecap:butt;stroke-linejoin:round;stroke-opacity:1"
       d="m 9.7644584,1038.4565 c -1.6964285,2.5893 -4.5535714,2.5 -3.8392857,3.6607 0.7142857,1.1607 3.4821429,0.089 3.4821429,0.089 0,0 -2.5892858,1.875 -1.6964286,3.125 0.8928571,1.25 3.125,-2.1429 3.125,-2.1429 0,0 -0.8928571,3.3929 0.625,3.6608 1.517858,0.2678 1.160715,-3.8393 1.696429,-6.0715"
       id="path3849"
       inkscape:connector-curvature="0"
       sodipodi:nodetypes="cscscsc" />
    <path
       style="fill:url(#linearGradient3895);fill-opacity:1;stroke:#588609;stroke-width:1px;stroke-linecap:butt;stroke-linejoin:miter;stroke-opacity:1"
       d="m 11.19303,1031.7601 c -0.892857,1.6964 -1.5178573,2.6785 -1.607143,5.1785 -0.089286,2.5 5.000001,5.4465 10.714286,5.4465 5.714286,0 10.089285,-2.7679 10.178571,-5.1786 0.08928,-2.4107 -0.714286,-3.75 -1.964285,-5.3571"
       id="path3847"
       inkscape:connector-curvature="0"
       sodipodi:nodetypes="csssc" />
    <path
       style="fill:#8bd30e;fill-opacity:1;stroke:#588609;stroke-width:1;stroke-linecap:round;stroke-linejoin:round;stroke-miterlimit:4;stroke-opacity:1"
       d="m 25.831423,1017.8628 c -2.219001,0 -4,1.7612 -4,3.9062 0,0.1714 0.009,0.3345 0.03125,0.5 -1.052909,-0.1478 -2.441462,-0.1716 -3.65625,-0.062 0.0044,-0.074 0.03125,-0.1433 0.03125,-0.2187 0,-2.1451 -1.780999,-3.875 -4,-3.875 -2.219001,0 -4.03125,1.7299 -4.03125,3.875 0,1.0034 0.41636,1.9045 1.0625,2.5937 -1.7858891,0.9473 -5.3437503,1.9688 -5.3437503,3.5313 0,1.7857 3.116071,4.8035 14.1875003,4.625 11.071428,-0.1786 14.022322,-3.2099 13.84375,-4.9063 -0.149523,-1.4205 -3.347522,-2.486 -5.28125,-3.3125 0.727089,-0.7029 1.1875,-1.6775 1.1875,-2.75 0,-2.145 -1.812249,-3.9062 -4.03125,-3.9062 z"
       id="path3824-4"
       inkscape:connector-curvature="0" />
    <path
       sodipodi:type="arc"
       style="fill:#ffffff;fill-opacity:1;stroke:none"
       id="path3012"
       sodipodi:cx="13.839286"
       sodipodi:cy="12.142858"
       sodipodi:rx="2.8571427"
       sodipodi:ry="2.5892856"
       d="m 16.696429,12.142858 a 2.8571427,2.5892856 0 1 1 -5.714286,0 2.8571427,2.5892856 0 1 1 5.714286,0 z"
       transform="translate(0.30017267,1009.7065)" />
    <path
       transform="translate(12.085887,1009.5279)"
       sodipodi:type="arc"
       style="fill:#ffffff;fill-opacity:1;stroke:none"
       id="path3012-1"
       sodipodi:cx="13.839286"
       sodipodi:cy="12.142858"
       sodipodi:rx="2.9464285"
       sodipodi:ry="2.5892856"
       d="m 16.785714,12.142858 a 2.9464285,2.5892856 0 1 1 -5.892857,0 2.9464285,2.5892856 0 1 1 5.892857,0 z" />
    <path
       sodipodi:type="arc"
       style="fill:#000000;fill-opacity:1;stroke:none"
       id="path3800"
       sodipodi:cx="14.553572"
       sodipodi:cy="12.723214"
       sodipodi:rx="1.1607143"
       sodipodi:ry="1.2053572"
       d="m 15.714286,12.723214 a 1.1607143,1.2053572 0 1 1 -2.321429,0 1.1607143,1.2053572 0 1 1 2.321429,0 z"
       transform="translate(0.30017267,1009.7065)" />
    <path
       transform="translate(11.907316,1009.7511)"
       sodipodi:type="arc"
       style="fill:#000000;fill-opacity:1;stroke:none"
       id="path3800-7"
       sodipodi:cx="14.553572"
       sodipodi:cy="12.723214"
       sodipodi:rx="1.1607143"
       sodipodi:ry="1.2053572"
       d="m 15.714286,12.723214 a 1.1607143,1.2053572 0 1 1 -2.321429,0 1.1607143,1.2053572 0 1 1 2.321429,0 z" />
    <path
       style="fill:none;stroke:#588609;stroke-width:1px;stroke-linecap:butt;stroke-linejoin:miter;stroke-opacity:1"
       d="m 8.7823156,1028.2779 c 4.4642864,0.8036 5.8928574,1.3393 11.3392864,1.3393 5.446428,0 10.178571,-0.8036 10.803571,-1.25"
       id="path3822"
       inkscape:connector-curvature="0"
       sodipodi:nodetypes="csc" />
  </g>
</svg>
