<?xml version="1.0" encoding="UTF-8" standalone="no"?>
<!-- Created with Inkscape (http://www.inkscape.org/) -->

<svg
   xmlns:dc="http://purl.org/dc/elements/1.1/"
   xmlns:cc="http://creativecommons.org/ns#"
   xmlns:rdf="http://www.w3.org/1999/02/22-rdf-syntax-ns#"
   xmlns:svg="http://www.w3.org/2000/svg"
   xmlns="http://www.w3.org/2000/svg"
   xmlns:xlink="http://www.w3.org/1999/xlink"
   xmlns:sodipodi="http://sodipodi.sourceforge.net/DTD/sodipodi-0.dtd"
   xmlns:inkscape="http://www.inkscape.org/namespaces/inkscape"
   width="40"
   height="40"
   id="svg2"
   version="1.1"
   inkscape:version="0.48.5 r10040"
   sodipodi:docname="pig-glasses.svg">
  <defs
     id="defs4">
    <linearGradient
       id="linearGradient3764">
      <stop
         style="stop-color:#ff7296;stop-opacity:1;"
         offset="0"
         id="stop3766" />
      <stop
         style="stop-color:#ffa8be;stop-opacity:1;"
         offset="1"
         id="stop3768" />
    </linearGradient>
    <linearGradient
       inkscape:collect="always"
       xlink:href="#linearGradient3764"
       id="linearGradient3770"
       x1="9.5"
       y1="13"
       x2="22.5"
       y2="33"
       gradientUnits="userSpaceOnUse" />
  </defs>
  <sodipodi:namedview
     id="base"
     pagecolor="#ffffff"
     bordercolor="#666666"
     borderopacity="1.0"
     inkscape:pageopacity="0.0"
     inkscape:pageshadow="2"
     inkscape:zoom="11.2"
     inkscape:cx="19.225934"
     inkscape:cy="20.839228"
     inkscape:document-units="px"
     inkscape:current-layer="layer1"
     showgrid="true"
     inkscape:window-width="963"
     inkscape:window-height="674"
     inkscape:window-x="534"
     inkscape:window-y="152"
     inkscape:window-maximized="0">
    <inkscape:grid
       type="xygrid"
       id="grid2985"
       empspacing="5"
       visible="true"
       enabled="true"
       snapvisiblegridlinesonly="true"
       dotted="false" />
  </sodipodi:namedview>
  <metadata
     id="metadata7">
    <rdf:RDF>
      <cc:Work
         rdf:about="">
        <dc:format>image/svg+xml</dc:format>
        <dc:type
           rdf:resource="http://purl.org/dc/dcmitype/StillImage" />
        <dc:title></dc:title>
      </cc:Work>
    </rdf:RDF>
  </metadata>
  <g
     inkscape:label="Layer 1"
     inkscape:groupmode="layer"
     id="layer1"
     transform="translate(0,-1012.3622)">
    <path
       sodipodi:type="arc"
       style="fill:url(#linearGradient3770);fill-opacity:1;fill-rule:evenodd;stroke:#412b06;stroke-width:1px;stroke-linecap:butt;stroke-linejoin:miter;stroke-opacity:1"
       id="path2987"
       sodipodi:cx="17.5"
       sodipodi:cy="21.5"
       sodipodi:rx="12.5"
       sodipodi:ry="12.5"
       d="M 30,21.5 C 30,28.403559 24.403559,34 17.5,34 10.596441,34 5,28.403559 5,21.5 5,14.596441 10.596441,9 17.5,9 24.403559,9 30,14.596441 30,21.5 z"
       transform="translate(2.5,1012.3622)" />
    <path
       style="fill:#ff7296;fill-opacity:1;stroke:#412b06;stroke-width:1px;stroke-linecap:butt;stroke-linejoin:miter;stroke-opacity:1"
       d="m 11.5,1026.3622 c 0,0 -2,0 -4,-1 -2,-1 -2,-7 -2,-7 0,0 4,0 6,2 2,2 2,4 2,4"
       id="path3759"
       inkscape:connector-curvature="0" />
    <path
       style="fill:#ff85a4;fill-opacity:1;stroke:#412b06;stroke-width:1px;stroke-linecap:butt;stroke-linejoin:miter;stroke-opacity:1"
       d="m 28.5,1026.3622 c 0,0 2,0 4,-1 2,-1 2,-7 2,-7 0,0 -4,0 -6,2 -2,2 -2,4 -2,4"
       id="path3759-1"
       inkscape:connector-curvature="0" />
    <path
       sodipodi:type="arc"
       style="fill:#ff7296;fill-opacity:1;stroke:#412b06;stroke-opacity:1"
       id="path3779"
       sodipodi:cx="17.5"
       sodipodi:cy="21"
       sodipodi:rx="4.5"
       sodipodi:ry="3"
       d="m 22,21 c 0,1.656854 -2.014719,3 -4.5,3 -2.485281,0 -4.5,-1.343146 -4.5,-3 0,-1.656854 2.014719,-3 4.5,-3 2.485281,0 4.5,1.343146 4.5,3 z"
       transform="translate(2.5,1015.3622)" />
    <path
       sodipodi:type="arc"
       style="fill:#412b06;fill-opacity:1;stroke:none"
       id="path3781"
       sodipodi:cx="16"
       sodipodi:cy="24"
       sodipodi:rx="1"
       sodipodi:ry="1"
       d="m 17,24 c 0,0.552285 -0.447715,1 -1,1 -0.552285,0 -1,-0.447715 -1,-1 0,-0.552285 0.447715,-1 1,-1 0.552285,0 1,0.447715 1,1 z"
       transform="translate(2.5,1012.3622)" />
    <path
       transform="translate(5.5,1012.3622)"
       sodipodi:type="arc"
       style="fill:#412b06;fill-opacity:1;stroke:none"
       id="path3781-7"
       sodipodi:cx="16"
       sodipodi:cy="24"
       sodipodi:rx="1"
       sodipodi:ry="1"
       d="m 17,24 c 0,0.552285 -0.447715,1 -1,1 -0.552285,0 -1,-0.447715 -1,-1 0,-0.552285 0.447715,-1 1,-1 0.552285,0 1,0.447715 1,1 z" />
    <path
       sodipodi:type="arc"
       style="fill:#ffffff;fill-opacity:1;stroke:#ffffff;stroke-opacity:1"
       id="path3801"
       sodipodi:cx="13"
       sodipodi:cy="17"
       sodipodi:rx="2"
       sodipodi:ry="2"
       d="m 15,17 c 0,1.104569 -0.895431,2 -2,2 -1.104569,0 -2,-0.895431 -2,-2 0,-1.104569 0.895431,-2 2,-2 1.104569,0 2,0.895431 2,2 z"
       transform="translate(2.5,1012.8622)" />
    <path
       transform="translate(11.5,1012.8622)"
       sodipodi:type="arc"
       style="fill:#ffffff;fill-opacity:1;stroke:#ffffff;stroke-opacity:1"
       id="path3801-0"
       sodipodi:cx="13"
       sodipodi:cy="17"
       sodipodi:rx="2"
       sodipodi:ry="2"
       d="m 15,17 c 0,1.104569 -0.895431,2 -2,2 -1.104569,0 -2,-0.895431 -2,-2 0,-1.104569 0.895431,-2 2,-2 1.104569,0 2,0.895431 2,2 z" />
    <path
       sodipodi:type="arc"
       style="fill:#000000;fill-opacity:1;stroke:none"
       id="path3839"
       sodipodi:cx="23"
       sodipodi:cy="18"
       sodipodi:rx="2"
       sodipodi:ry="2"
       d="m 25,18 c 0,1.104569 -0.895431,2 -2,2 -1.104569,0 -2,-0.895431 -2,-2 0,-1.104569 0.895431,-2 2,-2 1.104569,0 2,0.895431 2,2 z"
       transform="matrix(0.75,0,0,0.75,6.75,1016.3622)" />
    <path
       sodipodi:type="arc"
       style="fill:#000000;fill-opacity:1;stroke:none"
       id="path3839-9"
       sodipodi:cx="23"
       sodipodi:cy="18"
       sodipodi:rx="2"
       sodipodi:ry="2"
       d="m 25,18 c 0,1.104569 -0.895431,2 -2,2 -1.104569,0 -2,-0.895431 -2,-2 0,-1.104569 0.895431,-2 2,-2 1.104569,0 2,0.895431 2,2 z"
       transform="matrix(0.75,0,0,0.75,-2.25,1016.3622)" />
    <path
       style="fill:none;stroke:#412b06;stroke-width:1px;stroke-linecap:butt;stroke-linejoin:miter;stroke-opacity:1"
       d="m 13.5,1026.8622 4,-1"
       id="path3859"
       inkscape:connector-curvature="0" />
    <path
       style="fill:none;stroke:#412b06;stroke-width:1px;stroke-linecap:butt;stroke-linejoin:miter;stroke-opacity:1"
       d="m 26.5,1026.8622 -4,-1"
       id="path3861"
       inkscape:connector-curvature="0" />
    <path
       style="fill:none;stroke:#412b06;stroke-width:1px;stroke-linecap:butt;stroke-linejoin:miter;stroke-opacity:1"
       d="m 14.5,1040.8622 c 2,1 5,1 5,1 l 1,0 c 0,0 3,0 5,-1"
       id="path3863"
       inkscape:connector-curvature="0" />
    <path
       sodipodi:type="arc"
       style="fill:#effc08;fill-opacity:0.70588235;stroke:#08280c;stroke-width:1;stroke-linecap:round;stroke-linejoin:round;stroke-miterlimit:4;stroke-opacity:1;stroke-dasharray:none"
       id="path3000"
       sodipodi:cx="16"
       sodipodi:cy="17"
       sodipodi:rx="4"
       sodipodi:ry="4"
       d="m 20,17 a 4,4 0 1 1 -8,0 4,4 0 1 1 8,0 z"
       transform="translate(-1,1012.3622)" />
    <path
       sodipodi:type="arc"
       style="fill:#effc08;fill-opacity:0.70588235;stroke:#08280c;stroke-width:1;stroke-linecap:round;stroke-linejoin:round;stroke-miterlimit:4;stroke-opacity:1;stroke-dasharray:none"
       id="path3000-1"
       sodipodi:cx="16"
       sodipodi:cy="17"
       sodipodi:rx="4"
       sodipodi:ry="4"
       d="m 20,17 a 4,4 0 1 1 -8,0 4,4 0 1 1 8,0 z"
       transform="translate(9,1012.3622)" />
    <path
       style="fill:none;stroke:#000000;stroke-width:1px;stroke-linecap:butt;stroke-linejoin:miter;stroke-opacity:1"
       d="m 19,16 2,0"
       id="path3020"
       inkscape:connector-curvature="0"
       transform="translate(0,1012.3622)" />
  </g>
</svg>
