<?xml version="1.0" encoding="UTF-8" standalone="no"?>
<!-- Created with Inkscape (http://www.inkscape.org/) -->

<svg
   xmlns:dc="http://purl.org/dc/elements/1.1/"
   xmlns:cc="http://creativecommons.org/ns#"
   xmlns:rdf="http://www.w3.org/1999/02/22-rdf-syntax-ns#"
   xmlns:svg="http://www.w3.org/2000/svg"
   xmlns="http://www.w3.org/2000/svg"
   xmlns:xlink="http://www.w3.org/1999/xlink"
   xmlns:sodipodi="http://sodipodi.sourceforge.net/DTD/sodipodi-0.dtd"
   xmlns:inkscape="http://www.inkscape.org/namespaces/inkscape"
   width="40"
   height="40"
   id="svg2"
   version="1.1"
   inkscape:version="0.48.5 r10040"
   sodipodi:docname="pig.svg">
  <defs
     id="defs4">
    <linearGradient
       id="linearGradient3764">
      <stop
         style="stop-color:#ff7296;stop-opacity:1;"
         offset="0"
         id="stop3766" />
      <stop
         style="stop-color:#ffa8be;stop-opacity:1;"
         offset="1"
         id="stop3768" />
    </linearGradient>
    <linearGradient
       inkscape:collect="always"
       xlink:href="#linearGradient3764"
       id="linearGradient3770"
       x1="9.5"
       y1="13"
       x2="22.5"
       y2="33"
       gradientUnits="userSpaceOnUse" />
  </defs>
  <sodipodi:namedview
     id="base"
     pagecolor="#ffffff"
     bordercolor="#666666"
     borderopacity="1.0"
     inkscape:pageopacity="0.0"
     inkscape:pageshadow="2"
     inkscape:zoom="11.2"
     inkscape:cx="18.899954"
     inkscape:cy="20.839228"
     inkscape:document-units="px"
     inkscape:current-layer="layer1"
     showgrid="true"
     inkscape:window-width="963"
     inkscape:window-height="674"
     inkscape:window-x="534"
     inkscape:window-y="152"
     inkscape:window-maximized="0"
     inkscape:snap-grids="false">
    <inkscape:grid
       type="xygrid"
       id="grid2985"
       empspacing="5"
       visible="true"
       enabled="true"
       snapvisiblegridlinesonly="true"
       dotted="false" />
  </sodipodi:namedview>
  <metadata
     id="metadata7">
    <rdf:RDF>
      <cc:Work
         rdf:about="">
        <dc:format>image/svg+xml</dc:format>
        <dc:type
           rdf:resource="http://purl.org/dc/dcmitype/StillImage" />
        <dc:title></dc:title>
      </cc:Work>
    </rdf:RDF>
  </metadata>
  <g
     inkscape:label="Layer 1"
     inkscape:groupmode="layer"
     id="layer1"
     transform="translate(0,-1012.3622)">
    <path
       sodipodi:type="arc"
       style="fill:url(#linearGradient3770);fill-opacity:1;fill-rule:evenodd;stroke:#412b06;stroke-width:1px;stroke-linecap:butt;stroke-linejoin:miter;stroke-opacity:1"
       id="path2987"
       sodipodi:cx="17.5"
       sodipodi:cy="21.5"
       sodipodi:rx="12.5"
       sodipodi:ry="12.5"
       d="M 30,21.5 C 30,28.403559 24.403559,34 17.5,34 10.596441,34 5,28.403559 5,21.5 5,14.596441 10.596441,9 17.5,9 24.403559,9 30,14.596441 30,21.5 z"
       transform="translate(2.5,1012.3622)" />
    <path
       style="fill:#ff7296;fill-opacity:1;stroke:#412b06;stroke-width:1px;stroke-linecap:butt;stroke-linejoin:miter;stroke-opacity:1"
       d="m 11.5,1026.3622 c 0,0 -2,0 -4,-1 -2,-1 -2,-7 -2,-7 0,0 4,0 6,2 2,2 2,4 2,4"
       id="path3759"
       inkscape:connector-curvature="0" />
    <path
       style="fill:#ff85a4;fill-opacity:1;stroke:#412b06;stroke-width:1px;stroke-linecap:butt;stroke-linejoin:miter;stroke-opacity:1"
       d="m 28.5,1026.3622 c 0,0 2,0 4,-1 2,-1 2,-7 2,-7 0,0 -4,0 -6,2 -2,2 -2,4 -2,4"
       id="path3759-1"
       inkscape:connector-curvature="0" />
    <path
       style="fill:#965f15;stroke:#965f15;stroke-width:1px;stroke-linecap:butt;stroke-linejoin:miter;stroke-opacity:0.77647060000000001;fill-opacity:0.7764706"
       d="m 33.392857,12.232143 c 0.625,-1.160714 1.160714,-6.2500001 1.160714,-6.2500001 0,0 -4.821428,0.5357142 -5.714285,1.6071428 -0.892857,1.0714286 -2.321429,3.4821433 -2.321429,3.4821433 0,0 -3.035714,-1.696429 -4.821428,-1.9642861 -1.785715,-0.2678572 -4.375,0.2678571 -4.375,0.2678571 0,0 -1.607143,1.964286 -0.803572,2.857143 0.803572,0.892857 4.285714,0.446428 4.464286,2.142857 0.178571,1.696429 -3.035714,3.482143 -2.053572,4.732143 0.982143,1.25 8.75,-1.607143 9.553572,-2.589286 0.803571,-0.982143 1.339286,-2.857143 1.339286,-2.857143 0,0 1.696428,-0.267857 2.5,-0.535714 0.803571,-0.267857 1.071428,-0.892857 1.071428,-0.892857 z"
       id="path3770"
       inkscape:connector-curvature="0"
       transform="translate(0,1012.3622)" />
    <path
       style="fill:#965f15;stroke:#965f15;stroke-width:1px;stroke-linecap:butt;stroke-linejoin:miter;stroke-opacity:0.77647060000000001;fill-opacity:0.7764706"
       d="m 7.9464286,19.107143 c 0,0 3.7500004,-0.714286 3.4821424,1.517857 -0.267857,2.232143 -1.339285,5.535714 0.357143,6.25 1.696429,0.714286 3.928572,-1.339286 5.357143,-1.696429 1.428572,-0.357142 4.196429,-1.160714 4.821429,0.625 0.625,1.785715 3.392857,2.857143 3.928571,1.607143 0.535714,-1.25 -1.25,-5.178571 -0.535714,-5.982143 0.714286,-0.803571 4.196428,-1.696428 4.732143,-0.08929 0.535714,1.607143 -1.160715,6.071428 -0.803572,6.696428 0.357143,0.625 0.535715,1.339286 0.535715,1.339286 0,0 -2.142858,2.5 -3.928572,3.214286 -1.785714,0.714285 -4.285714,1.785714 -6.875,1.428571 C 16.428571,33.660714 13.035714,32.232143 11.964286,31.160714 10.892857,30.089286 8.2142857,26.875 7.8571429,25.267857 7.5,23.660714 7.9464286,19.107143 7.9464286,19.107143 z"
       id="path3000"
       inkscape:connector-curvature="0"
       transform="translate(0,1012.3622)" />
    <path
       sodipodi:type="arc"
       style="fill:#ff7296;fill-opacity:1;stroke:#412b06;stroke-opacity:1"
       id="path3779"
       sodipodi:cx="17.5"
       sodipodi:cy="21"
       sodipodi:rx="4.5"
       sodipodi:ry="3"
       d="m 22,21 c 0,1.656854 -2.014719,3 -4.5,3 -2.485281,0 -4.5,-1.343146 -4.5,-3 0,-1.656854 2.014719,-3 4.5,-3 2.485281,0 4.5,1.343146 4.5,3 z"
       transform="translate(2.5,1015.3622)" />
    <path
       sodipodi:type="arc"
       style="fill:#412b06;fill-opacity:1;stroke:none"
       id="path3781"
       sodipodi:cx="16"
       sodipodi:cy="24"
       sodipodi:rx="1"
       sodipodi:ry="1"
       d="m 17,24 c 0,0.552285 -0.447715,1 -1,1 -0.552285,0 -1,-0.447715 -1,-1 0,-0.552285 0.447715,-1 1,-1 0.552285,0 1,0.447715 1,1 z"
       transform="translate(2.5,1012.3622)" />
    <path
       transform="translate(5.5,1012.3622)"
       sodipodi:type="arc"
       style="fill:#412b06;fill-opacity:1;stroke:none"
       id="path3781-7"
       sodipodi:cx="16"
       sodipodi:cy="24"
       sodipodi:rx="1"
       sodipodi:ry="1"
       d="m 17,24 c 0,0.552285 -0.447715,1 -1,1 -0.552285,0 -1,-0.447715 -1,-1 0,-0.552285 0.447715,-1 1,-1 0.552285,0 1,0.447715 1,1 z" />
    <path
       sodipodi:type="arc"
       style="fill:#ffffff;fill-opacity:1;stroke:#ffffff;stroke-opacity:1"
       id="path3801"
       sodipodi:cx="13"
       sodipodi:cy="17"
       sodipodi:rx="2"
       sodipodi:ry="2"
       d="m 15,17 c 0,1.104569 -0.895431,2 -2,2 -1.104569,0 -2,-0.895431 -2,-2 0,-1.104569 0.895431,-2 2,-2 1.104569,0 2,0.895431 2,2 z"
       transform="translate(2.5,1012.8622)" />
    <path
       transform="translate(11.5,1012.8622)"
       sodipodi:type="arc"
       style="fill:#ffffff;fill-opacity:1;stroke:#ffffff;stroke-opacity:1"
       id="path3801-0"
       sodipodi:cx="13"
       sodipodi:cy="17"
       sodipodi:rx="2"
       sodipodi:ry="2"
       d="m 15,17 c 0,1.104569 -0.895431,2 -2,2 -1.104569,0 -2,-0.895431 -2,-2 0,-1.104569 0.895431,-2 2,-2 1.104569,0 2,0.895431 2,2 z" />
    <path
       sodipodi:type="arc"
       style="fill:#000000;fill-opacity:1;stroke:none"
       id="path3839"
       sodipodi:cx="23"
       sodipodi:cy="18"
       sodipodi:rx="2"
       sodipodi:ry="2"
       d="m 25,18 c 0,1.104569 -0.895431,2 -2,2 -1.104569,0 -2,-0.895431 -2,-2 0,-1.104569 0.895431,-2 2,-2 1.104569,0 2,0.895431 2,2 z"
       transform="matrix(0.75,0,0,0.75,6.75,1016.3622)" />
    <path
       sodipodi:type="arc"
       style="fill:#000000;fill-opacity:1;stroke:none"
       id="path3839-9"
       sodipodi:cx="23"
       sodipodi:cy="18"
       sodipodi:rx="2"
       sodipodi:ry="2"
       d="m 25,18 c 0,1.104569 -0.895431,2 -2,2 -1.104569,0 -2,-0.895431 -2,-2 0,-1.104569 0.895431,-2 2,-2 1.104569,0 2,0.895431 2,2 z"
       transform="matrix(0.75,0,0,0.75,-2.25,1016.3622)" />
    <path
       style="fill:none;stroke:#412b06;stroke-width:1px;stroke-linecap:butt;stroke-linejoin:miter;stroke-opacity:1"
       d="m 13.5,1026.8622 4,-1"
       id="path3859"
       inkscape:connector-curvature="0" />
    <path
       style="fill:none;stroke:#412b06;stroke-width:1px;stroke-linecap:butt;stroke-linejoin:miter;stroke-opacity:1"
       d="m 26.5,1026.8622 -4,-1"
       id="path3861"
       inkscape:connector-curvature="0" />
    <path
       style="fill:none;stroke:#412b06;stroke-width:1px;stroke-linecap:butt;stroke-linejoin:miter;stroke-opacity:1"
       d="m 14.5,1040.8622 c 2,1 5,1 5,1 l 1,0 c 0,0 3,0 5,-1"
       id="path3863"
       inkscape:connector-curvature="0" />
  </g>
</svg>
