<?xml version="1.0" encoding="UTF-8" standalone="no"?>
<!-- Created with Inkscape (http://www.inkscape.org/) -->

<svg
   xmlns:dc="http://purl.org/dc/elements/1.1/"
   xmlns:cc="http://creativecommons.org/ns#"
   xmlns:rdf="http://www.w3.org/1999/02/22-rdf-syntax-ns#"
   xmlns:svg="http://www.w3.org/2000/svg"
   xmlns="http://www.w3.org/2000/svg"
   xmlns:xlink="http://www.w3.org/1999/xlink"
   xmlns:sodipodi="http://sodipodi.sourceforge.net/DTD/sodipodi-0.dtd"
   xmlns:inkscape="http://www.inkscape.org/namespaces/inkscape"
   width="40"
   height="40"
   id="svg2"
   version="1.1"
   inkscape:version="0.48.5 r10040"
   sodipodi:docname="pig-rabbit.svg">
  <defs
     id="defs4">
    <linearGradient
       id="linearGradient3764">
      <stop
         style="stop-color:#ff7296;stop-opacity:1;"
         offset="0"
         id="stop3766" />
      <stop
         style="stop-color:#ffa8be;stop-opacity:1;"
         offset="1"
         id="stop3768" />
    </linearGradient>
    <linearGradient
       inkscape:collect="always"
       xlink:href="#linearGradient3764"
       id="linearGradient3770"
       x1="9.5"
       y1="13"
       x2="22.5"
       y2="33"
       gradientUnits="userSpaceOnUse" />
    <linearGradient
       inkscape:collect="always"
       xlink:href="#linearGradient3949"
       id="linearGradient3955"
       x1="13.928572"
       y1="1019.7729"
       x2="16.785715"
       y2="1025.6658"
       gradientUnits="userSpaceOnUse"
       gradientTransform="translate(0.08928571,0.98214286)" />
    <linearGradient
       id="linearGradient3949">
      <stop
         style="stop-color:#ead5b0;stop-opacity:1;"
         offset="0"
         id="stop3951" />
      <stop
         style="stop-color:#ddbb80;stop-opacity:1;"
         offset="1"
         id="stop3953" />
    </linearGradient>
    <linearGradient
       y2="1025.6658"
       x2="16.785715"
       y1="1019.7729"
       x1="13.928572"
       gradientTransform="translate(-4.8035723,1.0894003)"
       gradientUnits="userSpaceOnUse"
       id="linearGradient3080"
       xlink:href="#linearGradient3949"
       inkscape:collect="always" />
    <linearGradient
       inkscape:collect="always"
       xlink:href="#linearGradient3949-9"
       id="linearGradient3963"
       x1="25.854334"
       y1="1019.8067"
       x2="22.509823"
       y2="1025.7888"
       gradientUnits="userSpaceOnUse"
       gradientTransform="translate(0.08928571,0.98214286)" />
    <linearGradient
       id="linearGradient3949-9">
      <stop
         style="stop-color:#ead5b0;stop-opacity:1;"
         offset="0"
         id="stop3951-4" />
      <stop
         style="stop-color:#ddbb80;stop-opacity:1;"
         offset="1"
         id="stop3953-8" />
    </linearGradient>
    <linearGradient
       y2="1025.7888"
       x2="22.509823"
       y1="1019.8067"
       x1="25.854334"
       gradientTransform="translate(6.040292,1.2135995)"
       gradientUnits="userSpaceOnUse"
       id="linearGradient3097"
       xlink:href="#linearGradient3949-9"
       inkscape:collect="always" />
  </defs>
  <sodipodi:namedview
     id="base"
     pagecolor="#ffffff"
     bordercolor="#666666"
     borderopacity="1.0"
     inkscape:pageopacity="0.0"
     inkscape:pageshadow="2"
     inkscape:zoom="11.2"
     inkscape:cx="18.349931"
     inkscape:cy="20.839228"
     inkscape:document-units="px"
     inkscape:current-layer="layer1"
     showgrid="true"
     inkscape:window-width="963"
     inkscape:window-height="674"
     inkscape:window-x="153"
     inkscape:window-y="116"
     inkscape:window-maximized="0"
     inkscape:snap-to-guides="false"
     inkscape:snap-grids="false">
    <inkscape:grid
       type="xygrid"
       id="grid2985"
       empspacing="5"
       visible="true"
       enabled="true"
       snapvisiblegridlinesonly="true"
       dotted="false" />
  </sodipodi:namedview>
  <metadata
     id="metadata7">
    <rdf:RDF>
      <cc:Work
         rdf:about="">
        <dc:format>image/svg+xml</dc:format>
        <dc:type
           rdf:resource="http://purl.org/dc/dcmitype/StillImage" />
        <dc:title />
      </cc:Work>
    </rdf:RDF>
  </metadata>
  <g
     inkscape:label="Layer 1"
     inkscape:groupmode="layer"
     id="layer1"
     transform="translate(0,-1012.3622)">
    <path
       sodipodi:type="arc"
       style="fill:url(#linearGradient3770);fill-opacity:1;fill-rule:evenodd;stroke:#412b06;stroke-width:1px;stroke-linecap:butt;stroke-linejoin:miter;stroke-opacity:1"
       id="path2987"
       sodipodi:cx="17.5"
       sodipodi:cy="21.5"
       sodipodi:rx="12.5"
       sodipodi:ry="12.5"
       d="m 30,21.5 a 12.5,12.5 0 1 1 -25,0 12.5,12.5 0 1 1 25,0 z"
       transform="translate(2.5,1014.3622)" />
    <path
       sodipodi:type="arc"
       style="fill:#ff7296;fill-opacity:1;stroke:#412b06;stroke-opacity:1"
       id="path3779"
       sodipodi:cx="17.5"
       sodipodi:cy="21"
       sodipodi:rx="4.5"
       sodipodi:ry="3"
       d="m 22,21 a 4.5,3 0 1 1 -9,0 4.5,3 0 1 1 9,0 z"
       transform="translate(2.5,1017.3622)" />
    <path
       sodipodi:type="arc"
       style="fill:#412b06;fill-opacity:1;stroke:none"
       id="path3781"
       sodipodi:cx="16"
       sodipodi:cy="24"
       sodipodi:rx="1"
       sodipodi:ry="1"
       d="m 17,24 a 1,1 0 1 1 -2,0 1,1 0 1 1 2,0 z"
       transform="translate(2.5,1014.3622)" />
    <path
       transform="translate(5.5,1014.3622)"
       sodipodi:type="arc"
       style="fill:#412b06;fill-opacity:1;stroke:none"
       id="path3781-7"
       sodipodi:cx="16"
       sodipodi:cy="24"
       sodipodi:rx="1"
       sodipodi:ry="1"
       d="m 17,24 a 1,1 0 1 1 -2,0 1,1 0 1 1 2,0 z" />
    <path
       sodipodi:type="arc"
       style="fill:#ffffff;fill-opacity:1;stroke:#ffffff;stroke-opacity:1"
       id="path3801"
       sodipodi:cx="13"
       sodipodi:cy="17"
       sodipodi:rx="2"
       sodipodi:ry="2"
       d="m 15,17 a 2,2 0 1 1 -4,0 2,2 0 1 1 4,0 z"
       transform="translate(2.5,1014.8622)" />
    <path
       transform="translate(11.5,1014.8622)"
       sodipodi:type="arc"
       style="fill:#ffffff;fill-opacity:1;stroke:#ffffff;stroke-opacity:1"
       id="path3801-0"
       sodipodi:cx="13"
       sodipodi:cy="17"
       sodipodi:rx="2"
       sodipodi:ry="2"
       d="m 15,17 a 2,2 0 1 1 -4,0 2,2 0 1 1 4,0 z" />
    <path
       sodipodi:type="arc"
       style="fill:#000000;fill-opacity:1;stroke:none"
       id="path3839"
       sodipodi:cx="23"
       sodipodi:cy="18"
       sodipodi:rx="2"
       sodipodi:ry="2"
       d="m 25,18 a 2,2 0 1 1 -4,0 2,2 0 1 1 4,0 z"
       transform="matrix(0.75,0,0,0.75,6.75,1018.3622)" />
    <path
       sodipodi:type="arc"
       style="fill:#000000;fill-opacity:1;stroke:none"
       id="path3839-9"
       sodipodi:cx="23"
       sodipodi:cy="18"
       sodipodi:rx="2"
       sodipodi:ry="2"
       d="m 25,18 a 2,2 0 1 1 -4,0 2,2 0 1 1 4,0 z"
       transform="matrix(0.75,0,0,0.75,-2.25,1018.3622)" />
    <path
       style="fill:none;stroke:#412b06;stroke-width:1px;stroke-linecap:butt;stroke-linejoin:miter;stroke-opacity:1"
       d="m 13.5,1028.8622 4,-1"
       id="path3859"
       inkscape:connector-curvature="0" />
    <path
       style="fill:none;stroke:#412b06;stroke-width:1px;stroke-linecap:butt;stroke-linejoin:miter;stroke-opacity:1"
       d="m 26.5,1028.8622 -4,-1"
       id="path3861"
       inkscape:connector-curvature="0" />
    <path
       style="fill:#ffffff;fill-opacity:1;stroke:#484848;stroke-width:0.69999999;stroke-linecap:butt;stroke-linejoin:miter;stroke-miterlimit:4;stroke-opacity:1;stroke-dasharray:none"
       d="m 22.430556,1043.4567 c 0,0 0.08929,2.4107 -0.267858,2.7679 -0.357142,0.3571 -1.396262,0.3745 -2.053571,-0.3572 -0.65731,-0.7316 0.08929,-1.9643 0.08929,-1.9643"
       id="path3817-0"
       inkscape:connector-curvature="0"
       sodipodi:nodetypes="cczc" />
    <path
       style="fill:#ffffff;fill-opacity:1;stroke:#484848;stroke-width:0.69999999;stroke-linecap:butt;stroke-linejoin:miter;stroke-miterlimit:4;stroke-opacity:1;stroke-dasharray:none"
       d="m 17.569444,1043.7859 c 0,0 -0.08929,2.4107 0.267858,2.7678 0.357142,0.3572 1.348569,0.3479 2.053571,-0.3571 0.705002,-0.705 0.08929,-2.2321 0.08929,-2.2321"
       id="path3817"
       inkscape:connector-curvature="0"
       sodipodi:nodetypes="cszc" />
    <path
       style="fill:none;stroke:#412b06;stroke-width:1px;stroke-linecap:butt;stroke-linejoin:miter;stroke-opacity:1"
       d="m 14.5,1042.8622 c 2,1 5,1 5,1 l 1,0 c 0,0 3,0 5,-1"
       id="path3863"
       inkscape:connector-curvature="0" />
    <path
       style="fill:url(#linearGradient3080);fill-opacity:1;stroke:#b47430;stroke-width:1px;stroke-linecap:butt;stroke-linejoin:miter;stroke-opacity:1"
       d="m 13.946428,1027.7372 c -2.232143,-9.4643 -5.267857,-12.2321 -7.857143,-12.8571 -2.589286,-0.625 -4.2857133,0.2321 -4.3749993,1.5714 0.535715,2.0535 2.0535703,1.6429 4.0178563,3.3393 1.964286,1.6964 4.285715,5.8036 5.267858,8.5714"
       id="path3866"
       inkscape:connector-curvature="0"
       sodipodi:nodetypes="cscsc" />
    <path
       style="fill:url(#linearGradient3097);fill-opacity:1;stroke:#b47430;stroke-width:1px;stroke-linecap:butt;stroke-linejoin:miter;stroke-opacity:1"
       d="m 26.144626,1027.4036 c 3.302208,-9.146 6.649038,-11.4496 9.279013,-11.8718 2.018857,-0.3241 3.641172,1.0542 3.409323,2.4972 -1.213979,1.9785 -1.471609,0.962 -3.617387,2.4221 -2.145778,1.4601 -4.922666,5.2741 -6.215575,7.9111"
       id="path3866-8"
       inkscape:connector-curvature="0"
       sodipodi:nodetypes="cscsc" />
    <path
       style="fill:none;stroke:#b47430;stroke-width:1px;stroke-linecap:butt;stroke-linejoin:miter;stroke-opacity:1"
       d="m 9.6428571,1029.2729 6.3392859,-4.9107"
       id="path3080"
       inkscape:connector-curvature="0" />
    <path
       style="fill:none;stroke:#b47430;stroke-width:1px;stroke-linecap:butt;stroke-linejoin:miter;stroke-opacity:1"
       d="M 30.535714,1029.6301 24.375,1024.2729"
       id="path3082"
       inkscape:connector-curvature="0" />
  </g>
</svg>
