<?xml version="1.0" encoding="UTF-8" standalone="no"?>
<!-- Created with Inkscape (http://www.inkscape.org/) -->

<svg
   xmlns:dc="http://purl.org/dc/elements/1.1/"
   xmlns:cc="http://creativecommons.org/ns#"
   xmlns:rdf="http://www.w3.org/1999/02/22-rdf-syntax-ns#"
   xmlns:svg="http://www.w3.org/2000/svg"
   xmlns="http://www.w3.org/2000/svg"
   xmlns:xlink="http://www.w3.org/1999/xlink"
   xmlns:sodipodi="http://sodipodi.sourceforge.net/DTD/sodipodi-0.dtd"
   xmlns:inkscape="http://www.inkscape.org/namespaces/inkscape"
   width="40"
   height="40"
   id="svg2"
   version="1.1"
   inkscape:version="0.48.5 r10040"
   sodipodi:docname="puppy-frown.svg">
  <defs
     id="defs4">
    <linearGradient
       id="linearGradient4787">
      <stop
         style="stop-color:#935400;stop-opacity:1;"
         offset="0"
         id="stop4789" />
      <stop
         style="stop-color:#f48c00;stop-opacity:1;"
         offset="1"
         id="stop4791" />
    </linearGradient>
    <linearGradient
       id="linearGradient4769">
      <stop
         style="stop-color:#df421e;stop-opacity:1;"
         offset="0"
         id="stop4771" />
      <stop
         style="stop-color:#af3417;stop-opacity:1;"
         offset="1"
         id="stop4773" />
    </linearGradient>
    <linearGradient
       id="linearGradient4740">
      <stop
         style="stop-color:#f48c00;stop-opacity:1;"
         offset="0"
         id="stop4742" />
      <stop
         style="stop-color:#ffc40b;stop-opacity:1;"
         offset="1"
         id="stop4744" />
    </linearGradient>
    <linearGradient
       inkscape:collect="always"
       xlink:href="#linearGradient4740"
       id="linearGradient4746"
       x1="15"
       y1="13"
       x2="25"
       y2="37"
       gradientUnits="userSpaceOnUse" />
    <linearGradient
       inkscape:collect="always"
       xlink:href="#linearGradient4740"
       id="linearGradient4754"
       x1="15"
       y1="11"
       x2="25"
       y2="35"
       gradientUnits="userSpaceOnUse"
       gradientTransform="matrix(0.99224117,-0.124328,0.124328,0.99224117,-2.2953176,1014.4403)" />
    <linearGradient
       inkscape:collect="always"
       xlink:href="#linearGradient4769"
       id="linearGradient4775"
       x1="22.142857"
       y1="27.373213"
       x2="23.360058"
       y2="29.605356"
       gradientUnits="userSpaceOnUse"
       gradientTransform="matrix(0.99224117,-0.124328,0.124328,0.99224117,-2.2953176,1014.4403)" />
    <linearGradient
       inkscape:collect="always"
       xlink:href="#linearGradient4787"
       id="linearGradient4793"
       x1="9.2321434"
       y1="9.1964283"
       x2="12.910714"
       y2="12.946428"
       gradientUnits="userSpaceOnUse"
       gradientTransform="matrix(0.99224117,-0.124328,0.124328,0.99224117,-2.1463074,1016.3477)" />
    <linearGradient
       id="linearGradient4787-2">
      <stop
         style="stop-color:#935400;stop-opacity:1;"
         offset="0"
         id="stop4789-6" />
      <stop
         style="stop-color:#ff9910;stop-opacity:1;"
         offset="1"
         id="stop4791-0" />
    </linearGradient>
    <linearGradient
       gradientTransform="matrix(-0.99224117,0.124328,0.124328,0.99224117,37.499345,1011.29)"
       y2="12.946428"
       x2="12.910714"
       y1="9.1964283"
       x1="9.2321434"
       gradientUnits="userSpaceOnUse"
       id="linearGradient4811"
       xlink:href="#linearGradient4787-2"
       inkscape:collect="always" />
  </defs>
  <sodipodi:namedview
     id="base"
     pagecolor="#ffffff"
     bordercolor="#666666"
     borderopacity="1.0"
     inkscape:pageopacity="0.0"
     inkscape:pageshadow="2"
     inkscape:zoom="11.2"
     inkscape:cx="18.899954"
     inkscape:cy="20"
     inkscape:document-units="px"
     inkscape:current-layer="layer1"
     showgrid="true"
     inkscape:window-width="963"
     inkscape:window-height="674"
     inkscape:window-x="534"
     inkscape:window-y="152"
     inkscape:window-maximized="0"
     inkscape:snap-grids="false">
    <inkscape:grid
       type="xygrid"
       id="grid2985"
       empspacing="5"
       visible="true"
       enabled="true"
       snapvisiblegridlinesonly="true"
       dotted="false" />
  </sodipodi:namedview>
  <metadata
     id="metadata7">
    <rdf:RDF>
      <cc:Work
         rdf:about="">
        <dc:format>image/svg+xml</dc:format>
        <dc:type
           rdf:resource="http://purl.org/dc/dcmitype/StillImage" />
        <dc:title />
      </cc:Work>
    </rdf:RDF>
  </metadata>
  <g
     inkscape:label="Layer 1"
     inkscape:groupmode="layer"
     id="layer1"
     transform="translate(0,-1012.3622)">
    <path
       sodipodi:type="arc"
       style="fill:url(#linearGradient4746);fill-opacity:1;stroke:#b06500;stroke-opacity:1"
       id="path4630"
       sodipodi:cx="20"
       sodipodi:cy="20.5"
       sodipodi:rx="9.9285717"
       sodipodi:ry="7.5535712"
       d="m 29.928572,20.5 c 0,4.171722 -4.445173,7.553571 -9.928572,7.553571 -5.483399,0 -9.928572,-3.381849 -9.928572,-7.553571 0,-4.171722 4.445173,-7.553571 9.928572,-7.553571 5.483399,0 9.928572,3.381849 9.928572,7.553571 z"
       transform="matrix(0.99224117,-0.124328,0.124328,0.99224117,-2.5615256,1013.0339)" />
    <path
       sodipodi:type="arc"
       style="fill:#ffeace;fill-opacity:1;stroke:none"
       id="path4660"
       sodipodi:cx="15.5"
       sodipodi:cy="19.5"
       sodipodi:rx="2.2321608"
       sodipodi:ry="2.2142732"
       d="m 17.732161,19.5 c 0,1.222909 -0.999373,2.214273 -2.232161,2.214273 -1.232788,0 -2.232161,-0.991364 -2.232161,-2.214273 0,-1.222909 0.999373,-2.214273 2.232161,-2.214273 1.232788,0 2.232161,0.991364 2.232161,2.214273 z"
       transform="matrix(0.9914314,-0.13062842,0.13062842,0.9914314,-1.4865958,1013.9887)" />
    <path
       transform="matrix(0.98725523,-0.15914491,0.15914491,0.98725523,4.6975226,1013.6397)"
       sodipodi:type="arc"
       style="fill:#ffeace;fill-opacity:1;stroke:none"
       id="path4660-7"
       sodipodi:cx="15.5"
       sodipodi:cy="19.5"
       sodipodi:rx="2.2264154"
       sodipodi:ry="2.1277535"
       d="m 17.726415,19.5 c 0,1.175126 -0.9968,2.127753 -2.226415,2.127753 -1.229615,0 -2.226415,-0.952627 -2.226415,-2.127753 0,-1.175126 0.9968,-2.127753 2.226415,-2.127753 1.229615,0 2.226415,0.952627 2.226415,2.127753 z" />
    <path
       sodipodi:type="arc"
       style="fill:#130b00;fill-opacity:1;stroke:none"
       id="path4662"
       sodipodi:cx="16.651785"
       sodipodi:cy="19.419643"
       sodipodi:rx="1.2946428"
       sodipodi:ry="0.9375"
       d="m 17.946428,19.419643 c 0,0.517767 -0.579632,0.9375 -1.294643,0.9375 -0.715012,0 -1.294643,-0.419733 -1.294643,-0.9375 0,-0.517767 0.579631,-0.9375 1.294643,-0.9375 0.715011,0 1.294643,0.419733 1.294643,0.9375 z"
       transform="matrix(0.7664208,-0.09603267,0.13261654,1.0583906,1.092555,1012.6485)" />
    <path
       sodipodi:type="arc"
       style="fill:#130b00;fill-opacity:1;stroke:none"
       id="path4662-4"
       sodipodi:cx="16.651785"
       sodipodi:cy="19.419643"
       sodipodi:rx="1.2946428"
       sodipodi:ry="0.9375"
       d="m 17.946428,19.419643 c 0,0.517767 -0.579632,0.9375 -1.294643,0.9375 -0.715012,0 -1.294643,-0.419733 -1.294643,-0.9375 0,-0.517767 0.579631,-0.9375 1.294643,-0.9375 0.715011,0 1.294643,0.419733 1.294643,0.9375 z"
       transform="matrix(0.7664208,-0.09603267,0.13261654,1.0583906,7.7989986,1011.8509)" />
    <path
       style="fill:url(#linearGradient4754);fill-opacity:1;stroke:#b06500;stroke-width:1px;stroke-linecap:round;stroke-linejoin:miter;stroke-opacity:1"
       d="m 13.236613,1032.8305 c 0,0 -1.339305,3.7736 -0.365382,6.7178 1.127822,3.4094 6.103751,3.7749 8.652118,3.4019 2.443929,-0.3577 6.438854,-1.7499 7.075685,-5.0079 0.698641,-3.5744 -2.073476,-6.7769 -2.073476,-6.7769"
       id="path4652"
       inkscape:connector-curvature="0"
       sodipodi:nodetypes="csssc" />
    <path
       style="fill:#442700;fill-opacity:1;stroke:none"
       d="m 22.620756,1035.191 c 0.105201,2.2759 -1.142225,0.8841 -2.029653,1.0372 -0.762949,0.042 -1.885137,1.4724 -2.222809,-0.5044 -0.15693,-0.9187 0.742143,-1.7936 1.916428,-1.9408 1.174284,-0.1471 2.293003,0.477 2.336034,1.408 z"
       id="path4654"
       inkscape:connector-curvature="0"
       sodipodi:nodetypes="scsss" />
    <path
       style="fill:url(#linearGradient4775);fill-opacity:1;stroke:none"
       d="m 21.931732,1038.3098 c 0.244217,1.949 1.141677,3.3664 2.182588,3.0559 1.04091,-0.3104 1.549847,-1.9938 1.117556,-3.2894"
       id="path4767"
       inkscape:connector-curvature="0"
       sodipodi:nodetypes="csc" />
    <path
       style="fill:none;stroke:#754300;stroke-width:1px;stroke-linecap:butt;stroke-linejoin:miter;stroke-opacity:1"
       d="m 27.253127,1038.9415 c -1.074647,-1.3952 -1.971666,-1.3727 -3.034782,-1.2394 -1.063116,0.1332 -3.28884,1.0418 -3.28884,1.0418 0,0 -2.580501,-0.4864 -3.721106,-0.2535 -1.140643,0.2326 -1.915751,0.5099 -2.070315,2.149"
       id="path4765"
       inkscape:connector-curvature="0"
       sodipodi:nodetypes="csccc" />
    <path
       style="fill:url(#linearGradient4793);fill-opacity:1;stroke:#b06500;stroke-width:1px;stroke-linecap:butt;stroke-linejoin:round;stroke-opacity:1"
       d="m 14.102706,1025.3797 c -1.883301,-2.1037 -4.2644227,-2.4352 -4.2644227,-2.4352 l -3.9309572,1.6624 c 0,0 3.4672887,3.2549 4.6420479,6.1672"
       id="path4783"
       inkscape:connector-curvature="0"
       sodipodi:nodetypes="cccc" />
    <path
       style="fill:#f78e00;fill-opacity:1;stroke:#b06500;stroke-width:1px;stroke-linecap:butt;stroke-linejoin:miter;stroke-opacity:1"
       d="m 5.9073261,1024.6069 c -1.4059682,1.7059 -1.9364658,5.3717 -0.4523635,5.7257 1.48409,0.3539 3.1334176,-2.2823 3.3767769,-3.2126 0.2433595,-0.9304 0.076431,-3.6989 1.1062385,-4.098 z"
       id="path4785"
       inkscape:connector-curvature="0"
       sodipodi:nodetypes="csscc" />
    <path
       style="fill:url(#linearGradient4811);fill-opacity:1;stroke:#b06500;stroke-width:1px;stroke-linecap:butt;stroke-linejoin:round;stroke-opacity:1"
       d="m 23.98111,1024.0519 c 1.306058,-2.5032 3.53177,-3.412 3.53177,-3.412 l 4.219584,0.641 c 0,0 -2.557033,4.0098 -2.976947,7.1218"
       id="path4783-4"
       inkscape:connector-curvature="0"
       sodipodi:nodetypes="cccc" />
    <path
       style="fill:#ff970b;fill-opacity:1;stroke:#b06500;stroke-width:1px;stroke-linecap:butt;stroke-linejoin:miter;stroke-opacity:1"
       d="m 31.732464,1021.2809 c 1.78339,1.3064 3.201938,4.7279 1.851054,5.4371 -1.350886,0.7092 -3.599648,-1.4386 -4.06502,-2.2801 -0.465384,-0.8416 -0.986698,-3.5658 -2.083108,-3.6983 z"
       id="path4785-9"
       inkscape:connector-curvature="0"
       sodipodi:nodetypes="csscc" />
    <path
       style="fill:none;stroke:#b06500;stroke-width:0.89999998;stroke-linecap:round;stroke-linejoin:miter;stroke-miterlimit:4;stroke-opacity:1;stroke-dasharray:none"
       d="m 13.921876,1028.2454 c 1.085106,-0.6758 3.277725,-1.1305 4.053072,-0.6878"
       id="path4834"
       inkscape:connector-curvature="0" />
    <path
       style="fill:none;stroke:#b06500;stroke-width:0.89999998;stroke-linecap:round;stroke-linejoin:miter;stroke-miterlimit:4;stroke-opacity:1;stroke-dasharray:none"
       d="m 24.827812,1026.9519 c -1.21831,-0.3872 -3.45534,-0.2869 -4.097469,0.3335"
       id="path4834-4"
       inkscape:connector-curvature="0" />
  </g>
</svg>
