<?xml version="1.0" encoding="UTF-8" standalone="no"?>
<svg xml:space="preserve" xmlns="http://www.w3.org/2000/svg" xmlns:rdf="http://www.w3.org/1999/02/22-rdf-syntax-ns#" xmlns:cc="http://creativecommons.org/ns#" enable-background="new 0 0 216 206.049" version="1.1" width="216px" x="0px" y="0px" xmlns:dc="http://purl.org/dc/elements/1.1/" viewBox="0 0 216 206.049" height="206.05px"><metadata><rdf:RDF><cc:Work rdf:about=""><dc:format>image/svg+xml</dc:format><dc:type rdf:resource="http://purl.org/dc/dcmitype/StillImage"/></cc:Work></rdf:RDF></metadata>
	<path d="m17.586 161.13c0.506 0.542 1.124 0.846 1.74 1.069 1.375 0.499 3.358 0.478 5.012-0.081 2.562-0.86 5.9241-1.704 8.3601-2.534l13.664-4.3225c22.309-7.72 37.396-14.02 46.263-17.92 4.146-1.821 24.98-9.395 31.951-11.907 5.264-1.895 11.611-4.091 18.858-6.53 4.797 7.303 17.08 25.883 24.443 35.824l4.578 5.41c3.3981 3.0801 7.9473 6.077 11.684 3.1752 3.0056-2.3343 1.1206-2.2814 3.5281-3.5361 2.3414-1.2203 3.8746-3.222 4.3392-3.8231 0.962-1.583 1.585-3.573 1.741-5.682 0.625-0.452 1.205-1.165 1.674-2.104 1.583-3.159 1.653-8.413-2.892-13.69-1.843-2.14-14.789-13.354-26.179-23.11l-0.043-0.038c4.006-1.291 10.132-3.267 10.079-3.252 0.859-0.229 2.244-0.87 3.514 0.28 1.122 1.089 3.323 1.488 5.225 0.147 3.299-2.32 1.471-7.424 0.794-9.326-1.186-3.342-2.861-4.602-4.06-5.07-1.163-0.454-2.393-0.48-3.454 0.086-1.65 0.879-2.052 2.291-2.242 3.446-0.211 1.256-2.212 1.548-5.771 2.444 0 0-12.199 3.328-13.067 3.575l-0.063-0.053-2.956-2.513c-0.573-0.95-1.707-2.65-3.043-3.736-0.23-3.815-3.192-8.356-5.622-10.213-0.126-2.655-2.257-6.501-4.528-7.901-10.21-17.974-19.31-29.515-27.83-35.254l-0.28-0.186c-1.527-1.024-1.654-1.169-1.714-1.966-0.524-7.086-2.422-13.878-4.828-17.522 0.95-1.529 2.388-4.25 3.384-8.025 0 0 1.074-4.074 1.074-4.072l-1.232 0.815c0.313-1.027 0.626-2.253 0.929-3.739l0.027-0.197c0.091-1.222-0.735-1.681-0.991-1.792-0.107-0.047-0.208-0.071-0.31-0.095 0.091-1.351-0.045-2.977-0.745-4.773l-0.95-2.434-1.74 1.94c-3.567 3.972-8.992 6.043-13.782 7.869-1.096 0.418-2.134 0.817-3.117 1.222-7.811 3.228-12.641 6.685-17.195 16.455-0.107 0.09-0.225 0.19-0.356 0.3-2.069 1.74-6.378 5.363-8.818 12.537l-0.405 1.191 1.058 0.678c2.516 1.607 5.231 2.738 8.665 3.941-12.882 28.795 11.639 45.879 32.159 56.344-1.189 2.187-2.142 4.231-2.393 6.642l-9.194 9.689c-0.885 0.232-2.555 0.779-3.525 1.816-0.332 0.349-0.64 0.827-0.925 1.411-0.255 0.055-0.479 0.103-0.673 0.141-5.748 1.153-14.932 3.254-39.302 10.022-7.2648 1.7739-27.384 6.8868-31.624 8.3539-0.93573 0.3238-3.9468 2.8413-4.3966 6.866-0.4135 3.6996 1.5064 8.7067 5.483 13.712zm98.649-53.301 0.928 0.403-6.856 6.602c-2.742 0-3.678 2.736-3.678 2.736l-4.908 1.369c-0.222-0.224-1.413-0.325-1.413-0.325l6.146-5.337c5.037-1.554 9.781-5.448 9.781-5.448zm5.929 2.263 5.929 1.999-8.227 2.075s-0.667-0.444-1.558-0.519z" fill="#fff"/>
	<path d="m180.04 162.55c3.277 0.3 5.807-1.777 6.421-4.906 2.722 0.675 5.738-3.328 5.738-8.42 1.434 0.098 5.526-6.254-0.882-13.697-1.952-2.268-17.529-15.689-28.191-24.808l-0.038-0.033 12.887-4.156c0.798-0.214 2.261-0.556 2.981-0.494 0.463 0.038 1.459 0.716 1.944 1.251 0.471 0.458 1.765 1.031 3.285-0.076 2.055-1.493 1.112-4.992 0.226-7.493-0.984-2.77-2.206-3.965-3.093-4.313-0.723-0.28-1.56-0.366-2.362 0.053-1.848 0.955-0.994 2.957-2.007 3.723 0 0-0.291 0.892-6.035 2.291l-13.199 3.752-0.772 0.219-0.063-0.055c-2.35-2-3.809-3.235-3.809-3.235-0.926-1.584-2.235-3.314-3.403-3.961 0.266-3.879-3.674-9.275-5.687-10.207 0.552-1.707-1.757-6.54-4.031-7.546-7.257-12.855-17.096-28.086-27.541-35.12-1.668-1.122-2.567-1.626-2.697-3.366-0.585-7.938-2.833-14.784-5.177-17.596 0.862-1.214 2.635-4.126 3.781-8.477 0 0-1.334 0.887-2.354 1.21 0.549-0.63 1.896-2.166 3.103-8.113 0.055-0.723-0.556 0.627-2.003 1.459 0.235-1.041 1.467-3.813 0.063-7.421-4.674 5.201-12.159 7.298-17.481 9.499-8.08 3.337-12.31 6.822-16.505 15.965-1.486 1.338-6.369 4.75-8.96 12.359 2.584 1.652 5.392 2.783 9.377 4.143 0 0 0.032 1.279 0.056 1.421-12.114 26.468 7.856 42.96 32.736 55.394-1.604 2.881-2.919 5.172-3.062 8.029l-9.896 10.429s-2.257 0.466-3.195 1.467c-0.414 0.44-0.746 1.17-0.953 1.707-0.58 0.128-1.089 0.24-1.497 0.323-6.026 1.208-15.728 3.469-40.085 10.241-0.082-0.089-31.158 8.3316-31.241 8.2456-4.0478 4.7148-1.8607 3.8518-2.3092 10.522 1.38 2.9466 0.54197 2.9012 2.8568 5.4606 1.641 2.116 3.724 3.252 5.61 2.753 0.253-0.066 0.487-0.157 0.712-0.257 0.185-0.026 0.367-0.062 0.541-0.124 33.792-11.384 56.724-19.704 68.153-24.723 4.188-1.837 25.07-9.432 32.055-11.947 6.19-2.229 13.206-4.638 20.064-6.941 4.126 6.3 20.389 30.998 27.456 39.927 2.3956 2.5515 4.7277 4.2377 8.482 5.642zm-68.66-46.655c-1.183 0.233-1.757 0.399-2.558 1.142-0.563 0.521-0.948 1.25-1.152 1.792-2.23 0.58-4.528 1.17-6.757 1.735-0.509-0.3-1.485-0.694-2.995-0.585-0.138-0.014-0.539-0.085-0.506-0.504 0.027-0.363 8.33-7.88 8.33-7.88 2.319-0.474 10.821-5.415 10.821-5.415l2.602 1.063-0.192 0.428-0.371 0.656-6.731 7.15c-0.146 0.162-0.285 0.378-0.491 0.418zm7.791-0.087c-0.587-0.433-1.206-0.687-1.781-0.673-2.157 0.033-1.423-0.751-0.932-1.31l5.771-5.389s4.55 1.892 10.014 3.808c-7.915 2.171-12.209 3.333-13.072 3.564z" fill="#003263"/>
	<path d="m102.21 130.58c5.933-2.211 12.662-4.664 16.35-6l0.743-0.271c0.849-1.551 0.805-4.634-0.764-5.91-0.349-0.285-0.846-0.489-1.324-0.637-0.524 0.128-0.968 0.214-1.226 0.209-0.832 0.216-11.399 2.96-13.748 3.57 2.45 2.14 2.86 6.53-0.03 9.04z" fill="#FFF100"/>
	<path d="m120.5 123.87c1.265-0.456 2.927-1.058 2.927-1.058 5.545-1.997 12.233-4.313 19.879-6.88 0 0 0.032-0.012 0.081-0.025-0.165-0.255-0.261-0.402-0.261-0.402-2.693-0.599-5.784-1.538-8.755-2.534l-13.812 3.777c-0.099 0.033-0.209 0.069-0.328 0.107 1.55 1.91 2.35 4.98 0.26 7.01z" fill="#FFF100"/>
	<path d="m74.478 43.296s3.849 1.514 4.964-3.364c0.604-2.648-1.394-6.48-3.963-5.406-0.025 0.009 0.461-2.793-1.697-3.747-5.321 3.266-7.713 9.318-7.713 9.318 4.683-0.998 5.415-2.344 8.979-2.035 1.272 0.109 1.876 0.694 2.889 1.438-1.55-0.349-2.746-0.43-4.049-0.458-1.813-0.043-5.398 1.229-7.217 1.41 0 0.001 5.972 2.57 7.807 2.844z" fill="#FFF200"/>
	<path d="m116.41 77.886c-1.612 0.262-3.619 0.323-6.689-0.825-0.119 0.868-2.389 2.147-3.414 2.332 7.409 6.295 33.502 16.013 40.958 17.76 1.199 0.278-0.546-5.087-3.824-7.285-2.41-1.618-17.49-5.102-27.04-11.982z" fill="#CD1141"/>
	<path d="m118.43 77.387c10.305 6.123 21.304 9.461 23.713 10.16 0.499-0.354-0.761-5.062-4.21-6.285-5.151-1.831-9.441-3.646-12.486-5.558-1.073 0.592-2.668 0.937-5.558-0.224-0.1 0.713-0.32 1.398-1.45 1.907z" fill="#CD1141"/>
	<path d="m86.642 35.23c-0.527 0.856-1.507 1.396-2.579 1.322-1.536-0.107-2.693-1.438-2.587-2.977 0.108-1.536 1.441-2.693 2.977-2.586 1.018 0.071 1.871 0.68 2.299 1.531-1.921-0.207-2.341 1.65-2.341 1.65-1.244-1.526 0.363-2.403 0.363-2.403-1.067-0.141-2.085 0.672-2.171 1.899-0.085 1.227 0.84 2.292 2.066 2.377 0.827 0.057 1.542-0.214 1.973-0.813z" fill="#fff"/>
	<path d="m210.42 170.92h-1.226v3.328h-0.827v-3.328h-1.223v-0.728h3.275v0.73zm5.54 3.33h-0.827v-3.226h-0.02l-1.174 3.226h-0.799l-1.137-3.226h-0.018v3.229h-0.828v-4.056h1.435l0.942 2.652h0.019l0.982-2.652h1.424v4.06z" fill="#003263"/>
	<path d="m72.638 56.063c1.182-2.349 7.641-11.068 14.076-11.068-0.512-1.217 0.12-8.424 5.593-13.911-1.243 0.295-2.922-0.133-4.121-0.642-0.451-0.304-0.989-0.875-1.981-1.45-1.359-0.785-3.062-0.409-4.316 0.337-0.739 0.438-5.655 0.314-6.442-1.032 2.098-5.087 6.302-10.354 14.408-13.769 5.527-2.325 11.995-3.72 16.073-7.997 0.184 6.623-9.649 11.102-9.645 11.111 5.916-1.336 9.957-5.363 9.957-5.306-2.544 6.606-8.88 10.307-8.88 10.307 2.021-0.349 5.913-2.078 7.53-3.328 0 0-0.713 3.454-6.269 8.382-0.012-0.017 2.771-0.623 4.309-1.826 2.772 3.639 4.851 9.965 4.999 17.553 0.029 1.469 0.711 4.721 1.492 5.092 1.123 0.542 0.182-1.692 0.483-2.672 11.293 6.884 19.958 20.701 27.795 33.841-2.557-0.794-8.053-2.98-11.283-4.678 0.331-0.361 0.389-0.654 0.421-1.089 0.182-2.479-2.004-4.051-3.118-4.583-0.288-0.139-0.503-0.071-0.593 0.05-0.093 0.123-0.05 0.316 0.033 0.368 0.565 0.385 2.714 1.683 2.563 3.809-0.041 0.561-0.821 1.359-1.94 1.431-2.766 0.295-7.338-2.077-13.034-7.921-0.178-0.164-0.471-0.559-0.855-0.328-0.373 0.229-0.291 0.523-0.19 0.678 2.926 4.838 8.891 7.586 8.891 7.586-0.412 1.669-2.467 1.735-4.332 1.678-7.051-0.214-11.815-8.063-13.109-10.069-0.25-0.388-0.521-0.485-0.753-0.364-0.249 0.134-0.396 0.24-0.267 0.638 0.201 0.606 3.021 6.471 8.037 9.383 0.67 0.387-1.881 2.001-3.498 1.963-2.924-0.071-9.839-2.776-12.203-12.927-0.029-0.154-0.173-0.409-0.522-0.333-0.378 0.086-0.394 0.347-0.34 0.651 1.343 11.183 9.597 13.695 12.689 14.062 5.15 5.089 23.766 13.562 43.102 19.243 3.638 1.029 7.355 11.042 4.48 10.193-1.035-0.295-2.373-0.799-3.826-1.286-9.531-3.197-24.002-9.031-39.631-16.604-10.795-5.235-29.1-17.021-20.253-33.466 1.156-2.453 2.396-3.646 2.57-3.822 0.116-0.062 0.2-0.366 0.174-0.48-0.393-1.075-1.438-0.984-4.188 3.62-9.411 18.078 9.468 29.884 20.872 35.546 7.359 3.653 20.325 9.214 29.546 12.896l5.074 8.218c-4.681-0.928-19.803-6.877-24.23-8.874 0 0 1.61-1.429 1.049-2.765-0.394-0.928-0.618-1.507-1.865-2.561-1.314-0.804-1.644-0.24-1.072 0.402 0.531 0.594 1.654 2.42 0.569 3.675-1.786 2.072-6.854 4.393-9.725 6.014-1.255 0.252-1.864 0.224-1.999-0.855-0.169-1.346 1.75-4.25 4.02-7.878-3.92-1.827-43.227-18.919-36.342-44.857z" fill="#CD1141"/>
	<path d="m185.94 155.25c2.956 1.308 5.07-4.525 3.932-6.199-0.381-0.566-2.551-2.929-5.593-6.167l-1.828 8.487c1.9 2.29 3.19 3.75 3.49 3.88z" fill="#CD1141"/>
	<path d="m172.96 146.84l0.179-1.502 1.734-0.676-22.588-28.973h2.012s12.864 16.641 22.209 28.338l6.475-2.531c-9.47-10.022-25.242-26.299-25.242-26.299l2.059 0.055c-0.01-0.166 30.538 31.555 30.538 31.555 1.674 1.883 4.525-4.493-0.063-9.595-2.533-4.053-36.104-31.982-36.104-31.982 0.306 0.666 0.468 1.531 0.614 2.335 1.307 6.219-3.388 2.771-15.386-1.268 9.619 15.19 24.267 37.624 32.563 48.121 0.47-3.11 0.79-5.83 1-7.59z" fill="#CD1141"/>
	<path d="m180.45 160.67c2.461-0.085 4.951-2.227 3.725-4.064l-2.23-2.862-1.5 6.92z" fill="#CD1141"/>
	<path d="m158.04 106.38l4.018 3.373 13.544-4.367s5.015-1.25 5.015-3.608c0-3.635 1.886 3.28 1.118 4.649 0 0 0.636 0.613 1.739-0.185 1.104-0.804 0.903-3.01-0.2-6.119s-2.283-3.785-3.28-3.6c-1.243 0.229-1.282 1.643-1.282 1.643s0.2 1.253-1.204 2.309c-0.714 0.537-2.844 1.474-6.268 2.154l-13.21 3.76z" fill="#FFF100"/>
	<path d="m100.03 123.39c-0.505-0.358-1.263-0.597-1.894-0.744h-0.283c-1.06 0.27-1.92 0.485-1.92 0.485-3.918 0.975-6.651 1.616-8.122 1.911-7.99 1.604-20.119 4.7-39.275 10.022l-11.606 3.257-18.559 5.291c-0.093 0.029-0.188 0.053-0.28 0.076-2.381 0.865-3.456 5.111-2.389 9.147 1.098 4.16 3.898 7.341 6.437 6.673s3.525-4.843 2.428-9.002c-0.421-1.593-0.767-2.672-1.581-3.837 0 0 1.737 1.454 2.558 4.994 0.701 3.036 0.595 5.475-0.257 7.122 32.642-11.023 54.854-19.096 66.013-23.993 1.313-0.577 4.285-1.735 8.834-3.439 0 0 0.455-0.169 0.804-0.302 1.041-1.804 1.245-6.14-0.908-7.661z" fill="#fff100"/>
</svg>
