<?xml version="1.0" encoding="UTF-8" standalone="no"?>
<!DOCTYPE svg  PUBLIC '-//W3C//DTD SVG 1.1//EN'  'http://www.w3.org/Graphics/SVG/1.1/DTD/svg11.dtd'>
<svg x="0px" y="0px" xmlns="http://www.w3.org/2000/svg" enable-background="new 0 0 216 206.049" version="1.1" viewBox="0 0 216 206.049" height="206.05px" xml:space="preserve" width="216px">
	<path fill="#fff" d="m210.87 177.74c-1.587-0.794-3.284-1.244-5.063-1.349-0.163-2.286-0.908-4.512-1.544-6.378-0.275-0.808-0.534-1.571-0.703-2.208-0.799-3.015-1.015-4.246-0.298-6.204 1.524-4.172-3.788-6.571-5.89-7.521 0 0-0.651-0.295-0.647-0.295-0.619-0.28-0.974-0.143-1.917 0.221-0.764 0.298-1.644 0.887-2.8 1.952 0.962-1.583 1.585-3.573 1.741-5.682 0.625-0.452 1.205-1.165 1.674-2.104 1.583-3.159 1.653-8.413-2.892-13.69-1.843-2.14-14.789-13.354-26.179-23.11l-0.043-0.038c4.006-1.291 10.132-3.267 10.079-3.252 0.859-0.229 2.244-0.87 3.514 0.28 1.122 1.089 3.323 1.488 5.225 0.147 3.299-2.32 1.471-7.424 0.794-9.326-1.186-3.342-2.861-4.602-4.06-5.07-1.163-0.454-2.393-0.48-3.454 0.086-1.65 0.879-2.052 2.291-2.242 3.446-0.211 1.256-2.212 1.548-5.771 2.444 0 0-12.199 3.328-13.067 3.575l-0.063-0.053-2.956-2.513c-0.573-0.95-1.707-2.65-3.043-3.736-0.23-3.815-3.192-8.356-5.622-10.213-0.126-2.655-2.257-6.501-4.528-7.901-10.188-17.981-19.291-29.522-27.811-35.261l-0.279-0.186c-1.527-1.024-1.654-1.169-1.714-1.966-0.524-7.086-2.422-13.878-4.828-17.522 0.95-1.529 2.388-4.25 3.384-8.025 0 0 1.074-4.074 1.074-4.072l-1.232 0.815c0.313-1.027 0.626-2.253 0.929-3.739l0.027-0.197c0.091-1.222-0.735-1.681-0.991-1.792-0.107-0.047-0.208-0.071-0.31-0.095 0.091-1.351-0.045-2.977-0.745-4.773l-0.95-2.437-1.743 1.94c-3.567 3.972-8.992 6.043-13.782 7.869-1.096 0.418-2.134 0.817-3.117 1.222-7.811 3.228-12.641 6.685-17.195 16.455-0.107 0.09-0.225 0.19-0.356 0.3-2.069 1.74-6.378 5.363-8.818 12.537l-0.405 1.191 1.058 0.678c2.516 1.607 5.231 2.738 8.665 3.941-12.882 28.795 11.639 45.879 32.159 56.344-1.189 2.187-2.142 4.231-2.393 6.642l-9.194 9.689c-0.885 0.232-2.555 0.779-3.525 1.816-0.332 0.349-0.64 0.827-0.925 1.411-0.255 0.055-0.479 0.103-0.673 0.141-5.748 1.153-14.932 3.254-39.302 10.022-3.523-3.233-9.39-5.304-15.162-5.304-9.143 0-15.046 4.911-21.1 12.287-8.737 10.647-18.608 39.789-5.528 55.215 2.235 2.639 10.646 11.149 25.057 10.049 3.858-0.295 6.745-0.935 9.293-1.496 5.032-1.107 7.328-1.616 12.34 1.752l2.004 1.349 1.895-1.498c2.854-2.256 7.702-1.497 11.605-0.589l7.563 1.764-3.966-6.678c-5.292-8.907-12.79-10.184-20.353-9.525 4.258-1.188 7.084-4.969 9.146-9.451-0.274 2.952 0.234 6.09 3.022 8.072 4.495 3.192 10.127 1.793 14.294-0.787 1.974 1.681 4.618 2.665 7.056 2.559 2.115-0.041 3.932-0.457 5.633-1.286 1.128 0.796 2.392 1.271 3.77 1.407 2.285 0.224 4.729-0.519 7.284-2.188 1.329 1.332 3.07 2.059 5.052 2.068 0.923 0.005 1.887-0.119 2.863-0.366l-0.098 0.366h13.758l1.85-6.766c0.164 1.336 0.564 2.615 1.339 3.737 0.858 1.236 2.522 2.763 5.583 3.017 3.278 0.271 7.209-0.963 10.38-3.188 3.446 3.392 7.793 3.945 12.959 1.631 1.023 0.879 2.785 1.913 5.431 1.55 1.815-0.122 3.643-0.895 5.544-2.33 1.567 1.55 3.586 2.382 5.845 2.349 3.721-0.057 6.85-2.279 9.304-4.568 2.703 2.767 6.807 5.586 13.103 4.521 1.086-0.183 1.979-0.42 2.768-0.632 2.081-0.559 2.349-0.628 4.01 0.777l4.915 4.162 0.514-6.29c0.094-0.313 0.779-2.225 4.116-4.421l4.791-3.162-5.13-2.56zm-167.27 12.99c-6.964 1.253-14.163 2.546-20.32-0.502-4.395-2.17-7.924-8.148-8.036-13.606-0.103-4.942 0.557-10.079 2.342-15.494 0.506 0.542 1.124 0.846 1.74 1.069 1.375 0.499 3.358 0.478 5.012-0.081 2.562-0.86 5.051-1.704 7.487-2.534-0.138 0.146-0.277 0.276-0.414 0.429-5.192 5.833-7.354 12.731-6.044 19.103-0.747 0.452-1.788 1.027-2.899 1.555 0 0-2.866 1.364-3.004 1.436l-0.777 0.466v0.908c-0.003 0.908-0.003 0.908 3.464 2.995 0.013 0.01 1.443 0.944 2.229 2.582l0.925 1.935 2.143-0.055c1.958-0.047 3.514-1.109 4.477-1.956 3.313 1.447 6.815 1.107 9.887-0.963 2.597 1.548 5.294 1.852 6.688 1.893-1.654 0.22-3.295 0.51-4.9 0.8zm122.11-36.03h-8.769l-0.072 0.28c-1.15-0.183-2.403-0.159-3.706 0.086-4.861 0.913-8.579 3.854-11.146 8.75 0.285-2.553-0.009-4.538-1.215-6.081-1.399-1.785-3.371-2.783-5.704-2.883-0.849-0.036-1.737 0.055-2.643 0.262l0.064-0.278h-13.051l0.007-0.024h-1.739c2.361-1.157 3.996-3.577 3.996-6.38 0-3.918-3.188-7.107-7.107-7.107-2.989 0-5.548 1.858-6.595 4.479l1.968-7.712-15.29 6.026-2.498 10.949c-5.309-0.766-8.893 2.019-11.151 4.809 0.401-0.736 1.034-1.896 0.981-1.812l1.55-2.488-15.071-0.008 0.424-1.602h-12.154s-2.272 9.126-3.313 12.366c0.531-2.345 2.673-11.511 2.673-11.511h-10.454c22.309-7.726 38.051-13.588 46.918-17.481 4.146-1.821 24.98-9.395 31.951-11.907 5.264-1.895 11.611-4.091 18.858-6.53 4.797 7.303 17.08 25.883 24.443 35.824-0.46-0.03-1.13-0.04-2.17-0.04zm-49.47-46.87l0.928 0.403-6.856 6.602c-2.742 0-3.678 2.736-3.678 2.736l-4.908 1.369c-0.222-0.224-1.413-0.325-1.413-0.325l6.146-5.337c5.03-1.56 9.78-5.45 9.78-5.45zm5.92 2.26l5.929 1.999-8.227 2.075s-0.667-0.444-1.558-0.519l3.86-3.55z"/>
	<path fill="#003263" d="m210.15 179.17c-2.16-1.079-4.269-1.281-5.937-1.181 0.199-2.532-0.701-5.192-1.473-7.458-0.284-0.836-0.554-1.626-0.736-2.317-0.793-2.995-1.164-4.674-0.252-7.167 1.013-2.771-3.161-4.654-4.942-5.463l-0.755-0.34c-0.005-0.002-0.673 0.254-0.673 0.254-2.323 0.901-7.068 6.547-15.575 17.347-0.998 1.267-2.012 2.556-2.824 3.565 0.527-2.394 2.233-10.144 3.052-13.861 3.277 0.3 5.807-1.777 6.421-4.906 2.722 0.675 5.738-3.328 5.738-8.42 1.434 0.098 5.526-6.254-0.882-13.697-1.952-2.268-17.529-15.689-28.191-24.808l-0.038-0.033 12.887-4.156c0.798-0.214 2.261-0.556 2.981-0.494 0.463 0.038 1.459 0.716 1.944 1.251 0.471 0.458 1.765 1.031 3.285-0.076 2.055-1.493 1.112-4.992 0.226-7.493-0.984-2.77-2.206-3.965-3.093-4.313-0.723-0.28-1.56-0.366-2.362 0.053-1.848 0.955-0.994 2.957-2.007 3.723 0 0-0.291 0.892-6.035 2.291l-13.199 3.752-0.772 0.219-0.063-0.055c-2.35-2-3.809-3.235-3.809-3.235-0.926-1.584-2.235-3.314-3.403-3.961 0.266-3.879-3.674-9.275-5.687-10.207 0.552-1.707-1.757-6.54-4.031-7.546-7.257-12.855-17.096-28.086-27.541-35.12-1.668-1.122-2.567-1.626-2.697-3.366-0.585-7.938-2.833-14.784-5.177-17.596 0.862-1.214 2.635-4.126 3.781-8.477 0 0-1.334 0.887-2.354 1.21 0.549-0.63 1.896-2.166 3.103-8.113 0.055-0.723-0.556 0.627-2.003 1.459 0.235-1.041 1.467-3.813 0.063-7.421-4.674 5.201-12.159 7.298-17.481 9.499-8.08 3.337-12.31 6.822-16.505 15.965-1.486 1.338-6.369 4.75-8.96 12.359 2.584 1.652 5.392 2.783 9.377 4.143 0 0 0.032 1.279 0.056 1.421-12.114 26.468 7.856 42.96 32.736 55.394-1.604 2.881-2.919 5.172-3.062 8.029l-9.896 10.429s-2.257 0.466-3.195 1.467c-0.414 0.44-0.746 1.17-0.953 1.707-0.58 0.128-1.089 0.24-1.497 0.323-6.026 1.208-15.728 3.469-40.085 10.241-0.082-0.089-0.163-0.181-0.246-0.267-3.179-3.174-8.849-5.228-14.449-5.228-8.513 0-14.095 4.679-19.858 11.7-8.451 10.296-18.066 38.395-5.545 53.161 2.109 2.491 10.058 10.53 23.709 9.484 3.745-0.285 6.574-0.91 9.07-1.459 5.158-1.142 8-1.764 13.581 1.984l1.032 0.692 0.977-0.771c3.391-2.677 8.709-1.883 12.964-0.894l3.897 0.91-2.044-3.439c-6.646-11.188-16.923-9.34-26.859-7.555-7.22 1.298-14.685 2.639-21.315-0.642-4.965-2.454-8.804-8.91-8.93-15.013-0.124-6.012 1.237-12.688 3.323-18.435 1.641 2.116 3.724 3.252 5.61 2.753 0.253-0.066 0.487-0.157 0.712-0.257 0.185-0.026 0.367-0.062 0.541-0.124 33.792-11.384 56.724-19.704 68.153-24.723 4.188-1.837 25.07-9.432 32.055-11.947 6.19-2.229 13.206-4.638 20.064-6.941 4.126 6.3 20.389 30.998 27.456 39.927-1.393 8.206-3.817 17.981-7.924 20.511-0.175 0.109-0.387 0.247-0.569 0.358 0.892-4.79 3.842-17.455 4.305-19.361l0.512-2.108-9.692-0.003-0.164 0.637c-1.257-0.504-2.815-0.627-4.563-0.299-7.505 1.412-12.056 8.324-13.531 20.548-0.027 0.219-0.055 0.447-0.079 0.623-1.463 1.683-2.615 2.006-2.96 1.878-0.122-0.048-0.146-0.321-0.141-0.476 0.052-1.45 0.841-4.17 1.604-6.804 1.942-6.698 3.074-11.274 1.188-13.688-1.103-1.405-2.661-2.191-4.509-2.271-1.623-0.068-3.293 0.412-4.807 1.168l0.274-1.18h-10.056l-0.28 1.36c-1.145 5.541-4.478 17.279-6.765 19.958-0.451 0.528-1.343 0.856-1.961 0.941 0.631-3.033 3.481-13.538 5.32-20.122l0.605-2.163-10.197-0.003-0.299 1.334c-0.034 0.149-3.357 14.902-5.952 19.429-0.745 1.298-1.442 1.656-1.706 1.573-0.173-0.053-0.343-0.328-0.315-0.685 0.255-3.456 5.825-25.787 7.949-34.099l0.825-3.232-11.582 4.564-2.666 11.681c-0.345-0.113-0.729-0.214-1.165-0.29-7.451-1.252-11.08 5.544-12.445 8.102-1.749 3.276-3.514 8.663-3.676 12.941-1.081 1.274-2.399 2.244-2.843 2.188-0.373-0.05-0.469-0.186-0.554-0.353-1.411-2.771 3.007-13.288 6.597-19.873l1.374-2.524-14.27 0.005 0.422-1.604h-8.783l-0.307 1.319c-1.792 7.692-5.003 17.781-7.823 21.744-0.337 0.476-0.633 0.725-0.832 0.849 0.175-1.826 2.422-11.991 4.531-20.96l0.493-2.097h-10.051l-0.427 1.629c-3.255-1.201-7.518-0.966-11.064 3.021-5.175 5.814-7.117 12.599-5.424 18.758-0.752 0.563-2.41 1.512-4.03 2.282l-2.865 1.362 2.718 1.638c0.01 0.007 1.81 1.136 2.818 3.245l0.477 0.995 1.104-0.025c1.839-0.046 3.276-1.314 4.211-2.292 3.368 1.904 7.061 1.548 10.141-0.979 2.784 2.066 6.058 2.247 7.108 2.247 8.612 0 11.906-11.403 14.31-19.731 0.32-1.109 0.627-2.168 0.924-3.123h3.299c-0.203 0.494-0.416 1.006-0.635 1.533-0.958 2.304-2.043 4.916-2.882 7.462-0.934 2.834-3.116 9.471 0.987 12.385 4.044 2.872 9.538 1.346 13.552-1.521 1.908 2.168 4.702 3.091 6.837 2.996 2.239-0.043 4.103-0.55 5.839-1.596 1.081 1.006 2.337 1.586 3.751 1.724 2.646 0.257 5.296-1.132 7.425-2.758 1.072 1.679 2.716 2.62 4.762 2.63 1.693 0.009 3.482-0.474 5.224-1.349l-0.367 1.349h10.438l3.379-12.366c1.956-7.878 3.914-8.791 4.287-8.896 0.167-0.045 0.302-0.003 0.396 0.048-0.008 0.518-0.438 1.83-0.824 3.014-0.352 1.067-0.786 2.396-1.231 3.989l-0.129 0.451c-0.873 3.091-2.339 8.259-0.146 11.423 0.661 0.953 1.96 2.13 4.396 2.332 3.343 0.277 7.503-1.274 10.437-3.749 4.186 5.128 9.21 3.849 13.096 1.858 1.075 1.191 2.521 2.219 4.999 1.881 2.175-0.143 4.169-1.457 5.852-2.962 1.337 1.949 3.298 3.012 5.619 2.977 3.766-0.055 6.918-2.753 9.396-5.266 3.026 3.518 6.793 6.254 12.769 5.244 1.013-0.174 1.866-0.399 2.619-0.602 2.234-0.6 3.159-0.847 5.463 1.103l2.531 2.145 0.271-3.307c-0.001 0.019 0.405-2.594 4.822-5.503l2.468-1.629-2.66-1.29zm-98.77-63.27c-1.183 0.233-1.757 0.399-2.558 1.142-0.563 0.521-0.948 1.25-1.152 1.792-2.23 0.58-4.528 1.17-6.757 1.735-0.509-0.3-1.485-0.694-2.995-0.585-0.138-0.014-0.539-0.085-0.506-0.504 0.027-0.363 8.33-7.88 8.33-7.88 2.319-0.474 10.821-5.415 10.821-5.415l2.602 1.063-0.192 0.428-0.371 0.656-6.731 7.15c-0.15 0.16-0.29 0.38-0.49 0.42zm7.79-0.09c-0.587-0.433-1.206-0.687-1.781-0.673-2.157 0.033-1.423-0.751-0.932-1.31l5.771-5.389s4.55 1.892 10.014 3.808c-7.92 2.17-12.21 3.33-13.07 3.56zm-88.687 70.5l-0.11-0.076c0.036 0.03 0.073 0.05 0.11 0.08zm6.728-7.26c-0.021 0-0.053 0-0.131-0.098-0.112-0.143-1.052-1.533 0.171-6.409 0.904-3.597 2.229-6.004 3.729-6.786 0.289-0.15 0.693-0.305 1.271-0.283-0.771 6.7-2.898 13.58-5.04 13.58zm53.18-6.51c-0.432 1.719-0.876 3.499-1.274 5.332-0.056 0.264-0.746 0.811-1.703 0.9-0.345 0.038-0.964 0.01-1.1-0.309-0.863-1.987 0.324-8.398 3.111-11.71 0.823-0.975 1.634-1.474 2.418-1.502 0.032 1.36-0.815 4.74-1.452 7.29zm60.399 6.56c-0.021 0-0.055 0-0.132-0.102-0.111-0.141-1.051-1.534 0.172-6.407 0.924-3.67 2.15-5.924 3.648-6.696 0.506-0.262 1.081-0.33 1.718-0.254-0.88 6.75-3.14 13.46-5.41 13.46zm43.98 0.33c-0.396 0.383-1.153 0.644-1.963 0.658-1.004 0.023-1.932-0.3-2.542-0.889-3.103-2.91-3.103-2.91-1.607-4.85 0.965-1.255 1.812-2.42 2.632-3.552 0.725-1.003 1.409-1.933 2.091-2.813 0.237 1.738 0.735 3.353 1.204 4.861 0.97 3.12 1.45 4.97 0.19 6.58z"/>
	<path fill="#003263" d="m120.13 148.44c0-3.033-2.469-5.503-5.502-5.503-3.031 0-5.5 2.47-5.5 5.503s2.469 5.501 5.5 5.501c3.03 0 5.5-2.47 5.5-5.5z"/>
	<path fill="#FFF100" d="m102.21 130.58c5.933-2.211 12.662-4.664 16.35-6l0.743-0.271c0.849-1.551 0.805-4.634-0.764-5.91-0.349-0.285-0.846-0.489-1.324-0.637-0.524 0.128-0.968 0.214-1.226 0.209-0.832 0.216-11.399 2.96-13.748 3.57 2.45 2.14 2.86 6.53-0.03 9.04z"/>
	<path fill="#FFF100" d="m120.5 123.87c1.265-0.456 2.927-1.058 2.927-1.058 5.545-1.997 12.233-4.313 19.879-6.88 0 0 0.032-0.012 0.081-0.025-0.165-0.255-0.261-0.402-0.261-0.402-2.693-0.599-5.784-1.538-8.755-2.534l-13.812 3.777c-0.099 0.033-0.209 0.069-0.328 0.107 1.55 1.91 2.35 4.98 0.26 7.01z"/>
	<path fill="#FFF200" d="m74.478 43.296s3.849 1.514 4.964-3.364c0.604-2.648-1.394-6.48-3.963-5.406-0.025 0.009 0.461-2.793-1.697-3.747-5.321 3.266-7.713 9.318-7.713 9.318 4.683-0.998 5.415-2.344 8.979-2.035 1.272 0.109 1.876 0.694 2.889 1.438-1.55-0.349-2.746-0.43-4.049-0.458-1.813-0.043-5.398 1.229-7.217 1.41 0 0.001 5.972 2.57 7.807 2.844z"/>
	<path fill="#CD1141" d="m116.41 77.886c-1.612 0.262-3.619 0.323-6.689-0.825-0.119 0.868-2.389 2.147-3.414 2.332 7.409 6.295 33.502 16.013 40.958 17.76 1.199 0.278-0.546-5.087-3.824-7.285-2.41-1.618-17.49-5.102-27.04-11.982z"/>
	<path fill="#CD1141" d="m118.43 77.387c10.305 6.123 21.304 9.461 23.713 10.16 0.499-0.354-0.761-5.062-4.21-6.285-5.151-1.831-9.441-3.646-12.486-5.558-1.073 0.592-2.668 0.937-5.558-0.224-0.1 0.713-0.32 1.398-1.45 1.907z"/>
	<path fill="#fff" d="m86.642 35.23c-0.527 0.856-1.507 1.396-2.579 1.322-1.536-0.107-2.693-1.438-2.587-2.977 0.108-1.536 1.441-2.693 2.977-2.586 1.018 0.071 1.871 0.68 2.299 1.531-1.921-0.207-2.341 1.65-2.341 1.65-1.244-1.526 0.363-2.403 0.363-2.403-1.067-0.141-2.085 0.672-2.171 1.899-0.085 1.227 0.84 2.292 2.066 2.377 0.827 0.057 1.542-0.214 1.973-0.813z"/>
	<path fill="#003263" d="m210.42 170.92h-1.226v3.328h-0.827v-3.328h-1.223v-0.728h3.275v0.73zm5.54 3.33h-0.827v-3.226h-0.02l-1.174 3.226h-0.799l-1.137-3.226h-0.018v3.229h-0.828v-4.056h1.435l0.942 2.652h0.019l0.982-2.652h1.424v4.06z"/>
	<path fill="#CD1141" d="m72.638 56.063c1.182-2.349 7.641-11.068 14.076-11.068-0.512-1.217 0.12-8.424 5.593-13.911-1.243 0.295-2.922-0.133-4.121-0.642-0.451-0.304-0.989-0.875-1.981-1.45-1.359-0.785-3.062-0.409-4.316 0.337-0.739 0.438-5.655 0.314-6.442-1.032 2.098-5.087 6.302-10.354 14.408-13.769 5.527-2.325 11.995-3.72 16.073-7.997 0.184 6.623-9.649 11.102-9.645 11.111 5.916-1.336 9.957-5.363 9.957-5.306-2.544 6.606-8.88 10.307-8.88 10.307 2.021-0.349 5.913-2.078 7.53-3.328 0 0-0.713 3.454-6.269 8.382-0.012-0.017 2.771-0.623 4.309-1.826 2.772 3.639 4.851 9.965 4.999 17.553 0.029 1.469 0.711 4.721 1.492 5.092 1.123 0.542 0.182-1.692 0.483-2.672 11.293 6.884 19.958 20.701 27.795 33.841-2.557-0.794-8.053-2.98-11.283-4.678 0.331-0.361 0.389-0.654 0.421-1.089 0.182-2.479-2.004-4.051-3.118-4.583-0.288-0.139-0.503-0.071-0.593 0.05-0.093 0.123-0.05 0.316 0.033 0.368 0.565 0.385 2.714 1.683 2.563 3.809-0.041 0.561-0.821 1.359-1.94 1.431-2.766 0.295-7.338-2.077-13.034-7.921-0.178-0.164-0.471-0.559-0.855-0.328-0.373 0.229-0.291 0.523-0.19 0.678 2.926 4.838 8.891 7.586 8.891 7.586-0.412 1.669-2.467 1.735-4.332 1.678-7.051-0.214-11.815-8.063-13.109-10.069-0.25-0.388-0.521-0.485-0.753-0.364-0.249 0.134-0.396 0.24-0.267 0.638 0.201 0.606 3.021 6.471 8.037 9.383 0.67 0.387-1.881 2.001-3.498 1.963-2.924-0.071-9.839-2.776-12.203-12.927-0.029-0.154-0.173-0.409-0.522-0.333-0.378 0.086-0.394 0.347-0.34 0.651 1.343 11.183 9.597 13.695 12.689 14.062 5.15 5.089 23.766 13.562 43.102 19.243 3.638 1.029 7.355 11.042 4.48 10.193-1.035-0.295-2.373-0.799-3.826-1.286-9.531-3.197-24.002-9.031-39.631-16.604-10.795-5.235-29.1-17.021-20.253-33.466 1.156-2.453 2.396-3.646 2.57-3.822 0.116-0.062 0.2-0.366 0.174-0.48-0.393-1.075-1.438-0.984-4.188 3.62-9.411 18.078 9.468 29.884 20.872 35.546 7.359 3.653 20.325 9.214 29.546 12.896l5.074 8.218c-4.681-0.928-19.803-6.877-24.23-8.874 0 0 1.61-1.429 1.049-2.765-0.394-0.928-0.618-1.507-1.865-2.561-1.314-0.804-1.644-0.24-1.072 0.402 0.531 0.594 1.654 2.42 0.569 3.675-1.786 2.072-6.854 4.393-9.725 6.014-1.255 0.252-1.864 0.224-1.999-0.855-0.169-1.346 1.75-4.25 4.02-7.878-3.92-1.827-43.227-18.919-36.342-44.857z"/>
	<path fill="#CD1141" d="m185.94 155.25c2.956 1.308 5.07-4.525 3.932-6.199-0.381-0.566-2.551-2.929-5.593-6.167l-1.828 8.487c1.9 2.29 3.19 3.75 3.49 3.88z"/>
	<path fill="#CD1141" d="m172.96 146.84l0.179-1.502 1.734-0.676-22.588-28.973h2.012s12.864 16.641 22.209 28.338l6.475-2.531c-9.47-10.022-25.242-26.299-25.242-26.299l2.059 0.055c-0.01-0.166 30.538 31.555 30.538 31.555 1.674 1.883 4.525-4.493-0.063-9.595-2.533-4.053-36.104-31.982-36.104-31.982 0.306 0.666 0.468 1.531 0.614 2.335 1.307 6.219-3.388 2.771-15.386-1.268 9.619 15.19 24.267 37.624 32.563 48.121 0.47-3.11 0.79-5.83 1-7.59z"/>
	<path fill="#CD1141" d="m180.45 160.67c2.461-0.085 4.951-2.227 3.725-4.064l-2.23-2.862-1.5 6.92z"/>
	<path fill="#CD1141" d="m201.87 180.13c1.857-3.395-0.632-8.14-1.514-11.477-0.794-2.993-1.322-5.138-0.207-8.188 0.492-1.346-3.487-3.068-4.151-3.371-3.394 1.313-17.962 21.2-19.478 22.475-0.707 0.594-2.36 1.552-1.357-2.82 0 0 7.317-33.168 7.265-33.199l-7.724 3.01c-0.867 7.336-3.161 27.996-10.184 32.317-0.636 0.39-2.77 1.971-3.405 0.734-0.351-0.68 4.537-21.375 4.592-21.597h-6.202l-0.487 1.895c-1.021-1.895-3.601-1.895-5.248-1.583-11.762 2.206-11.951 19.669-12.344 20.277-3.409 4.198-6.477 3.134-6.386 0.557 0.155-4.462 5.523-16.346 3.152-19.376-2.609-3.336-7.987-0.951-10.679 1.941l0.832-3.575h-6.517c-0.937 4.531-4.331 17.435-7.137 20.725-1.479 1.73-5.242 2.239-5.08 0.39 0.188-2.12 5.499-21.138 5.499-21.138h-6.584s-3.384 15.1-6.137 19.901c-2.354 4.11-5.38 2.306-5.203-0.081 0.324-4.364 7.999-34.397 7.999-34.397l-7.642 3.015-3.082 13.502s-0.025-1.271-2.496-1.688c-5.43-0.915-8.443 3.076-10.657 7.222-1.654 3.095-3.489 8.672-3.489 12.766 0 0-2.677 3.518-4.753 3.247-7.126-0.927 4.764-22.73 4.764-22.73l-13.61 0.002 0.423-1.604h-5.217c-1.442 6.205-4.744 17.642-8.093 22.351-1.816 2.553-3.879 1.84-3.937 0.076-0.061-1.802 4.585-21.568 4.585-21.568h-6.567l-0.622 2.37c-1.842-1.179-6.646-3.091-10.912 1.707-5.574 6.264-6.503 12.92-4.83 17.933 0.232 0.946-5.166 3.514-5.166 3.514s2.218 1.336 3.477 3.968c2.069-0.05 3.814-2.897 4.035-2.755 3.189 2.405 7.089 2.372 10.326-1.104 1.974 2.083 4.924 2.839 7.142 2.839 8.848 0 11.514-15.578 13.993-22.854l7.042-0.005c-1.029 2.824-3.057 7.155-4.4 11.237-1.409 4.283-2.27 8.593 0.355 10.457 4.031 2.862 9.725 0.247 12.931-2.594 1.344 2.599 4.148 3.854 6.397 3.756 2.48-0.045 4.349-0.689 6.188-2.146 3.431 4.74 8.666 1.127 11.549-1.557 0.501 1.984 1.748 3.694 4.121 3.703 2.812 0.015 5.784-1.55 8.101-3.766l-1.022 3.766h6.905l3.035-11.11c3.344-13.457 7.477-9.882 7.806-9.345 0.764 1.182-0.502 3.442-1.89 8.41-0.964 3.444-3.533 11.536 2.619 12.045 3.526 0.293 8.146-1.878 10.526-4.656 3.506 5.652 7.729 5.493 13.291 2.294 1.206 1.566 2.108 2.677 4.357 2.362 2.588-0.109 5.141-2.65 6.54-4.119 0.786 2.251 2.426 4.16 5.121 4.119 3.759-0.055 7.087-3.559 9.528-6.131 3.308 4.274 6.65 7.099 12.376 6.131 4.016-0.677 5.581-2.408 9.467 0.885 0 0 0.269-3.288 5.585-6.792-2.94-1.45-5.88-1.07-7.53-0.56zm-164.66 0.63c-1.717 0-3.2-2.307-1.612-8.63 1.144-4.559 3.582-9.855 8.499-7.968 0 0-1.412 16.6-6.887 16.6zm53.571-2.53c-0.479 2.23-5.001 3.295-6.034 0.913-1.727-3.984 2.228-16.916 8.029-15.504 2.016 0.49-0.446 7.44-1.995 14.59zm60.008 2.58c-1.716 0-3.201-2.307-1.613-8.627 1.146-4.56 3.45-9.941 8.887-7.812 0 0-1.66 16.44-7.28 16.44zm45.25-0.23c-1.474 1.545-4.98 1.761-6.964-0.146-4.024-3.777-3.944-4.308-1.774-7.119 3.123-4.054 5.158-7.45 7.952-9.961-1.75 7.05 4.49 12.7 0.78 17.23z"/>
	<path fill="#CD1141" d="m110.83 148.44c0-2.097 1.701-3.796 3.796-3.796 2.099 0 3.798 1.699 3.798 3.796s-1.699 3.794-3.798 3.794c-2.1 0-3.8-1.7-3.8-3.79z"/>
	<path fill="#FFF100" d="m158.04 106.38l4.018 3.373 13.544-4.367s5.015-1.25 5.015-3.608c0-3.635 1.886 3.28 1.118 4.649 0 0 0.636 0.613 1.739-0.185 1.104-0.804 0.903-3.01-0.2-6.119s-2.283-3.785-3.28-3.6c-1.243 0.229-1.282 1.643-1.282 1.643s0.2 1.253-1.204 2.309c-0.714 0.537-2.844 1.474-6.268 2.154l-13.21 3.76z"/>
	<path fill="#CD1141" d="m21.813 193.2c-5.755-2.848-9.745-9.986-9.88-16.507-0.136-6.595 1.449-13.931 3.87-20.206-0.526-0.977-0.966-2.068-1.277-3.247-1.277-4.838 0.33-9.696 3.176-10.788 0.153-0.075 0.318-0.138 0.499-0.189 2.874-0.827 5.62-1.536 8.256-2.287 0.928-0.822 1.863-1.526 2.796-2.073 3.318-1.944 9.668-2.027 13.376 0.676-1.721 2.025-3.204 4.782-0.768 7.051 1.906 1.837 5.042 1.084 6.33-1.108 1.987-3.378 0.365-7.174-1.987-9.589-2.826-2.827-8.048-4.731-13.243-4.731-7.31 0-12.479 3.694-18.54 11.078-8.713 10.616-17.111 37.354-5.562 50.976 3.87 4.564 11.684 9.697 22.277 8.886 11.58-0.884 14.726-5.238 23.732 0.812 4.238-3.35 10.7-2.08 14.408-1.215-10.593-17.83-30.855 0.67-47.463-7.54z"/>
	<path fill="#FFF100" d="m100.03 123.39c-0.505-0.358-1.263-0.597-1.894-0.744h-0.283c-1.06 0.27-1.92 0.485-1.92 0.485-3.918 0.975-6.651 1.616-8.122 1.911-7.99 1.604-20.119 4.7-39.275 10.022 2.036 2.748 3.279 6.661 1.126 10.321-0.931 1.583-2.582 2.677-4.415 2.929-1.699 0.233-3.364-0.297-4.547-1.438-1.353-1.257-3.03-3.839-0.579-7.761-0.979-0.421-2.074-0.671-3.191-0.794l-18.559 5.291c-0.093 0.029-0.188 0.053-0.28 0.076-2.381 0.865-3.456 5.111-2.389 9.147 1.098 4.16 3.898 7.341 6.437 6.673s3.525-4.843 2.428-9.002c-0.421-1.593-0.767-2.672-1.581-3.837 0 0 1.737 1.454 2.558 4.994 0.701 3.036 0.595 5.475-0.257 7.122 32.642-11.023 54.854-19.096 66.013-23.993 1.313-0.577 4.285-1.735 8.834-3.439 0 0 0.455-0.169 0.804-0.302 1.05-1.81 1.25-6.15-0.9-7.67z"/>
</svg>
