<?xml version="1.0" encoding="UTF-8" standalone="no"?>
<svg xmlns="http://www.w3.org/2000/svg" version="1.0" viewBox="0 0 971.68 195.66">
<g transform="translate(151.62 -642.8)">
<g fill-rule="evenodd" transform="translate(7.0817 7.0811)" fill="#f90">
<path d="m222.03 784.73c-34.999 25.797-85.729 39.561-129.41 39.561-61.243 0-116.38-22.651-158.09-60.325-3.2771-2.9625-0.34083-6.9999 3.5917-4.6928 45.014 26.191 100.67 41.947 158.17 41.947 38.775 0 81.429-8.0224 120.65-24.67 5.925-2.5168 10.88 3.8801 5.0861 8.1796"/>
<path d="m236.58 768.09c-4.4569-5.7153-29.573-2.7003-40.846-1.3633-3.4344 0.41947-3.9587-2.5692-0.86517-4.719 20.003-14.078 52.827-10.015 56.655-5.2958 3.8276 4.7453-0.99624 37.647-19.794 53.351-2.8838 2.412-5.6366 1.1273-4.352-2.0711 4.2209-10.539 13.685-34.161 9.2021-39.902"/>
</g>
</g>
</svg>
