<?xml version="1.0" encoding="UTF-8" standalone="no"?>
<svg viewBox="0 0 306.25 150.37" xmlns:rdf="http://www.w3.org/1999/02/22-rdf-syntax-ns#" xmlns="http://www.w3.org/2000/svg" xmlns:cc="http://creativecommons.org/ns#" version="1.0" xmlns:dc="http://purl.org/dc/elements/1.1/">
<metadata>
<rdf:RDF>
<cc:Work rdf:about="">
<dc:format>image/svg+xml</dc:format>
<dc:type rdf:resource="http://purl.org/dc/dcmitype/StillImage"/>
</cc:Work>
</rdf:RDF>
</metadata>
<g fill-rule="evenodd" transform="translate(-240 -524.54)" stroke="#e21836">
<path fill="#e21836" d="m263.1 654.96l61.88-1.31-7.83 14.37-62.69 0.43 8.64-13.49z" stroke-width=".91206px"/>
<path fill="#e21836" d="m271.01 638.85l9.94-15.65 61.87-1.74-9.57 17.83-62.24-0.44z" stroke-width=".91206px"/>
<path fill="#e21836" d="m343.26 621.44l8.27 19.59 60.46 2.71-60.02 5.12 5.66 19.16 100.1-0.88c24.99 0.11 77.61-40.77 37.87-67.46 45.69-20.88 39.19-42.73 32.65-57.89-5.13-9.05-24.81-7.55-47.45-7.68-26.68-0.14-55.23 0.98-58.32 0.28l-6.53 15.67 39.17 4.35-1.74 1.31-41.33 2.99-12.65 21.81 37.37 6.16-137.15 4.43-9.89 16.84 135.93 3.76-82.4 9.73z" stroke-width=".91206px"/>
<path fill="#e21836" d="m307.14 576.57l8.25-16.85 73.13-1.74 2.19 21.68-83.57-3.09z" stroke-width=".91206px"/>
<path fill="#e21836" d="m331.95 532.22l-5.66 13.49 58.76 0.87-1.31-13.06-51.79-1.3z" stroke-width=".91206px"/>
<path fill="#fff" d="m424.22 636.68l14.8-26.55c42.15-1.97 21.28 38.03-14.8 26.55z" stroke-width=".91206px"/>
<path fill="#fff" d="m456.54 583.12l11.98-23.46c34.15-1.74 17.24 33.6-11.98 23.46z" stroke-width=".77157px"/>
</g>
</svg>
