<?xml version="1.0" encoding="UTF-8" standalone="no"?>
<svg viewBox="0 0 800 450" version="1.1" xmlns="http://www.w3.org/2000/svg">
<defs>
<clipPath id="a">
<path d="m84.461 713.6h77.163v43.961h-77.163v-43.961z"/>
</clipPath>
</defs>
<g transform="translate(0 -602.36)">
<g transform="matrix(10.337 0 0 -10.337 -861.35 8446.2)">
<g clip-path="url(#a)">
<g transform="translate(89.154 744.23)">
<path fill="#15495d" d="m0 0c0 0.862-0.704 1.561-1.567 1.561s-1.568-0.699-1.568-1.561v-3.284c0-0.867 0.705-1.567 1.568-1.567s1.567 0.7 1.567 1.567v3.284z"/>
</g>
<g transform="translate(97.763 748.54)">
<path fill="#15495d" d="m0 0c0 0.862-0.704 1.563-1.567 1.563-0.864 0-1.568-0.701-1.568-1.563v-7.595c0-0.867 0.704-1.566 1.568-1.566 0.863 0 1.567 0.699 1.567 1.566v7.595z"/>
</g>
<g transform="translate(106.37 754.44)">
<path fill="#15495d" d="m0 0c0 0.862-0.704 1.562-1.567 1.562-0.864 0-1.568-0.7-1.568-1.562v-16.613c0-0.867 0.704-1.567 1.568-1.567 0.863 0 1.567 0.7 1.567 1.567v16.613z"/>
</g>
<g transform="translate(114.98 748.54)">
<path fill="#15495d" d="m0 0c0 0.862-0.704 1.563-1.567 1.563-0.864 0-1.568-0.701-1.568-1.563v-7.595c0-0.867 0.704-1.566 1.568-1.566 0.863 0 1.567 0.699 1.567 1.566v7.595z"/>
</g>
<g transform="translate(123.58 744.23)">
<path fill="#15495d" d="m0 0c0 0.862-0.699 1.561-1.558 1.561-0.863 0-1.567-0.699-1.567-1.561v-3.284c0-0.867 0.704-1.567 1.567-1.567 0.859 0 1.558 0.7 1.558 1.567v3.284z"/>
</g>
<g transform="translate(132.2 748.54)">
<path fill="#15495d" d="m0 0c0 0.862-0.699 1.563-1.562 1.563-0.862 0-1.563-0.701-1.563-1.563v-7.595c0-0.867 0.701-1.566 1.563-1.566 0.863 0 1.562 0.699 1.562 1.566v7.595z"/>
</g>
<g transform="translate(140.81 754.44)">
<path fill="#15495d" d="m0 0c0 0.862-0.699 1.562-1.562 1.562-0.864 0-1.563-0.7-1.563-1.562v-16.613c0-0.867 0.699-1.567 1.563-1.567 0.863 0 1.562 0.7 1.562 1.567v16.613z"/>
</g>
<g transform="translate(149.42 748.54)">
<path fill="#15495d" d="m0 0c0 0.862-0.699 1.563-1.582 1.563-0.863 0-1.562-0.701-1.562-1.563v-7.595c0-0.867 0.699-1.566 1.562-1.566 0.883 0 1.582 0.699 1.582 1.566v7.595z"/>
</g>
<g transform="translate(158.02 744.23)">
<path fill="#15495d" d="m0 0c0 0.862-0.701 1.561-1.563 1.561-0.863 0-1.564-0.699-1.564-1.561v-3.284c0-0.867 0.701-1.567 1.564-1.567 0.862 0 1.563 0.7 1.563 1.567v3.284z"/>
</g>
<g transform="translate(156.21 719.92)">
<path fill="#c4122e" d="m0 0v-0.196h-0.558v-1.451h-0.229v1.451h-0.561v0.196h1.348z"/>
</g>
<g transform="translate(156.33 719.92)">
<path fill="#c4122e" d="m0 0h0.359l0.493-1.351h0.008l0.477 1.351h0.352v-1.647h-0.235v1.35h-0.008l-0.5-1.35h-0.217l-0.488 1.35h-0.011v-1.35h-0.23v1.647z"/>
</g>
</g>
</g>
</g>
</svg>
