<?xml version="1.0" encoding="UTF-8" standalone="no"?>
<svg xmlns:dc="http://purl.org/dc/elements/1.1/" version="1.1" xmlns:rdf="http://www.w3.org/1999/02/22-rdf-syntax-ns#" xmlns="http://www.w3.org/2000/svg" viewBox="0 0 800 450" xmlns:cc="http://creativecommons.org/ns#">
<defs>
<clipPath id="a">
<path d="m84.461 713.6h77.163v43.961h-77.163v-43.961z"/>
</clipPath>
</defs>
<metadata>
<rdf:RDF>
<cc:Work rdf:about="">
<dc:format>image/svg+xml</dc:format>
<dc:type rdf:resource="http://purl.org/dc/dcmitype/StillImage"/>
<dc:title/>
</cc:Work>
</rdf:RDF>
</metadata>
<g transform="translate(0 -602.36)">
<path d="m271 1021.2h-32.635v-129.33h32.635v129.33z" fill="#c4122e"/>
<g transform="matrix(10.337 0 0 -10.337 -861.35 8446.2)">
<g clip-path="url(#a)">
<g transform="translate(135 727.2)">
<path d="m0 0c-0.129 0.066-1.146 0.668-2.656 0.668-2.041 0-3.457-1.421-3.457-3.337 0-1.859 1.355-3.34 3.457-3.34 1.484 0 2.517 0.589 2.656 0.664v-3.358c-0.396-0.111-1.475-0.445-2.877-0.445-3.551 0-6.668 2.448-6.668 6.479 0 3.736 2.82 6.476 6.668 6.476 1.48 0 2.578-0.361 2.877-0.449v-3.358z" fill="#c4122e"/>
</g>
<g transform="translate(102.04 727.2)">
<path d="m0 0c-0.127 0.066-1.142 0.668-2.652 0.668-2.045 0-3.46-1.421-3.46-3.337 0-1.859 1.356-3.34 3.46-3.34 1.484 0 2.516 0.589 2.652 0.664v-3.358c-0.392-0.111-1.469-0.445-2.879-0.445-3.549 0-6.662 2.448-6.662 6.479 0 3.736 2.82 6.476 6.662 6.476 1.486 0 2.582-0.361 2.879-0.449v-3.358z" fill="#c4122e"/>
</g>
<g transform="translate(144.93 727.82)">
<path d="m0 0c-1.873 0-3.264-1.474-3.264-3.29 0-1.82 1.391-3.293 3.264-3.293 1.871 0 3.266 1.473 3.266 3.293 0 1.816-1.395 3.29-3.266 3.29m6.611-3.29c0-3.579-2.763-6.479-6.611-6.479s-6.607 2.9-6.607 6.479c0 3.573 2.759 6.476 6.607 6.476s6.611-2.903 6.611-6.476" fill="#c4122e"/>
</g>
<g transform="translate(121.51 727.94)">
<path d="m0 0c-0.047 0.015-1.376 0.382-2.468 0.382-1.265 0-1.953-0.424-1.953-1.025 0-0.762 0.928-1.028 1.447-1.192l0.871-0.277c2.049-0.652 2.983-2.055 2.983-3.579 0-3.143-2.764-4.199-5.18-4.199-1.679 0-3.252 0.309-3.407 0.342v2.879c0.278-0.07 1.602-0.465 2.981-0.465 1.571 0 2.293 0.459 2.293 1.168 0 0.634-0.625 1-1.408 1.246-0.191 0.064-0.478 0.154-0.674 0.218-1.758 0.556-3.224 1.589-3.224 3.66 0 2.34 1.752 3.911 4.662 3.911 1.537 0 2.983-0.373 3.077-0.398v-2.671z" fill="#c4122e"/>
</g>
<g transform="translate(89.154 744.23)">
<path d="m0 0c0 0.862-0.704 1.561-1.567 1.561s-1.568-0.699-1.568-1.561v-3.284c0-0.867 0.705-1.567 1.568-1.567s1.567 0.7 1.567 1.567v3.284z" fill="#15495d"/>
</g>
<g transform="translate(97.763 748.54)">
<path d="m0 0c0 0.862-0.704 1.563-1.567 1.563-0.864 0-1.568-0.701-1.568-1.563v-7.595c0-0.867 0.704-1.566 1.568-1.566 0.863 0 1.567 0.699 1.567 1.566v7.595z" fill="#15495d"/>
</g>
<g transform="translate(106.37 754.44)">
<path d="m0 0c0 0.862-0.704 1.562-1.567 1.562-0.864 0-1.568-0.7-1.568-1.562v-16.613c0-0.867 0.704-1.567 1.568-1.567 0.863 0 1.567 0.7 1.567 1.567v16.613z" fill="#15495d"/>
</g>
<g transform="translate(114.98 748.54)">
<path d="m0 0c0 0.862-0.704 1.563-1.567 1.563-0.864 0-1.568-0.701-1.568-1.563v-7.595c0-0.867 0.704-1.566 1.568-1.566 0.863 0 1.567 0.699 1.567 1.566v7.595z" fill="#15495d"/>
</g>
<g transform="translate(123.58 744.23)">
<path d="m0 0c0 0.862-0.699 1.561-1.558 1.561-0.863 0-1.567-0.699-1.567-1.561v-3.284c0-0.867 0.704-1.567 1.567-1.567 0.859 0 1.558 0.7 1.558 1.567v3.284z" fill="#15495d"/>
</g>
<g transform="translate(132.2 748.54)">
<path d="m0 0c0 0.862-0.699 1.563-1.562 1.563-0.862 0-1.563-0.701-1.563-1.563v-7.595c0-0.867 0.701-1.566 1.563-1.566 0.863 0 1.562 0.699 1.562 1.566v7.595z" fill="#15495d"/>
</g>
<g transform="translate(140.81 754.44)">
<path d="m0 0c0 0.862-0.699 1.562-1.562 1.562-0.864 0-1.563-0.7-1.563-1.562v-16.613c0-0.867 0.699-1.567 1.563-1.567 0.863 0 1.562 0.7 1.562 1.567v16.613z" fill="#15495d"/>
</g>
<g transform="translate(149.42 748.54)">
<path d="m0 0c0 0.862-0.699 1.563-1.582 1.563-0.863 0-1.562-0.701-1.562-1.563v-7.595c0-0.867 0.699-1.566 1.562-1.566 0.883 0 1.582 0.699 1.582 1.566v7.595z" fill="#15495d"/>
</g>
<g transform="translate(158.02 744.23)">
<path d="m0 0c0 0.862-0.701 1.561-1.563 1.561-0.863 0-1.564-0.699-1.564-1.561v-3.284c0-0.867 0.701-1.567 1.564-1.567 0.862 0 1.563 0.7 1.563 1.567v3.284z" fill="#15495d"/>
</g>
<g transform="translate(156.21 719.92)">
<path d="m0 0v-0.196h-0.558v-1.451h-0.229v1.451h-0.561v0.196h1.348z" fill="#c4122e"/>
</g>
<g transform="translate(156.33 719.92)">
<path d="m0 0h0.359l0.493-1.351h0.008l0.477 1.351h0.352v-1.647h-0.235v1.35h-0.008l-0.5-1.35h-0.217l-0.488 1.35h-0.011v-1.35h-0.23v1.647z" fill="#c4122e"/>
</g>
</g>
</g>
</g>
</svg>
