<?xml version="1.0" encoding="UTF-8" standalone="no"?>
<svg xml:space="preserve" xmlns:dc="http://purl.org/dc/elements/1.1/" xmlns:cc="http://creativecommons.org/ns#" version="1.1" xmlns="http://www.w3.org/2000/svg" viewBox="0 0 1000 727.55" xmlns:rdf="http://www.w3.org/1999/02/22-rdf-syntax-ns#"><metadata><rdf:RDF><cc:Work rdf:about=""><dc:format>image/svg+xml</dc:format><dc:type rdf:resource="http://purl.org/dc/dcmitype/StillImage"/><dc:title/></cc:Work></rdf:RDF></metadata><defs><clipPath id="a" clipPathUnits="userSpaceOnUse"><path d="m37.398 188.54h21.819v24.526h-21.819v-24.526z"/></clipPath></defs><g transform="matrix(1.25 0 0 -1.25 -420.24 2468.9)"><g transform="matrix(5.4685 0 0 5.4685 -58.317 -2517.8)"><g transform="matrix(7.2576 0 0 7.2576 -204.81 -689.81)"><g clip-path="url(#a)"><path d="m53.526 205.06s0.05023-0.5198 0.24044-0.70634c0.02402 0.034 0.04671 0.0611 0.06574 0.0756 0 0 0.25696 0.29645 0.78208 0.25777-0.0174-0.0268-0.03236-0.0641-0.01547-0.10105 0.000203-0.00061 0.000509-0.001 0.000814-0.002 0.0024-0.005 0.0052-0.0102 0.0088-0.0147 0.000916-0.001 0.0016-0.002 0.0026-0.004l0.30514-0.11458 0.72994 0.29449s0.56633 0.41032 0.55758 0.43088" fill="#22547a"/><path d="m54.359 198.31c-0.11174-0.22643 0.1786-0.92638 0.44381-1.1346-0.19407 0.0581-1.2084 0.34672-1.3711-0.0285-0.17901-0.41276 0.81251-1.9267 0.92496-2.2094-0.45704 0.45338-1.7089 1.47-1.8863 1.3537-0.17748-0.11621-0.13372-0.68286-0.08762-0.97106-0.17189 0.20954-0.46691 0.54517-0.72204 0.44472-0.25483-0.10044-0.22338-1.0733-0.23987-1.4877-0.21035 0.48756-0.55372 1.4692-0.87144 1.4334-0.31802-0.0357-0.67451-0.70382-0.74229-0.95906-0.04865 0.25564-0.25645 0.8175-0.57102 0.8175-0.31477 0-1.0461-1.4871-1.2672-1.9704-0.000916 0.374 0.08874 2.1983-0.1095 2.2888-0.19845 0.0906-0.86736-0.32535-1.0112-0.51443 0.05333 0.23945 0.09861 1.0496-0.07979 1.1476-0.1785 0.098-0.68734 0.12873-1.6072-0.72184 0.15265 0.32627 0.40422 0.68143 0.46518 1.0256 0.38102 0.0197 0.75817 0.0631 1.1386 0.13729 0.82991-0.60074 1.8503-0.95519 2.9534-0.95519 2.7858 0 5.0439 2.2582 5.0439 5.0439 0 0.21819-0.01404 0.43322-0.04091 0.64378 0.18695 0.17605 0.36606 0.34621 0.53285 0.50517-0.03816-0.0912-0.05923-0.2014-0.05577-0.33726 0.01089-0.42518 1.1125-0.51596 1.6981-0.56328-0.65396-0.0886-1.7966-0.56186-1.5794-0.81597 0.21707-0.25381 0.85006-0.60277 0.93992-0.64673-0.30164 0-1.2933-0.10258-1.404-0.38367-0.11113-0.28118 1.4349-1.2233 2.0008-1.4448-0.70403 0.19804-2.3833 0.52899-2.4949 0.30245" fill="#f47216"/><path d="m53.505 205.56c-0.32973-0.0646-0.67014-0.15947-1.0219-0.29055-0.79399 0.52135-1.7441 0.82513-2.765 0.82513-2.7855 0-5.0437-2.2582-5.0437-5.0435 0-0.67075 0.13108-1.3105 0.3687-1.8955-0.28709-0.2127-0.56196-0.38132-0.84365-0.51138 0.20598 0.24526 0.38488 0.71664 0.15224 0.84243-0.15896 0.086-0.89789 0.12018-0.89789 0.12018s0.83215 0.55912 0.81261 0.96354c-0.01923 0.40412-1.3463 0.61142-1.871 0.72753 0.46294 0.0976 1.9621 0.43628 2.0264 0.73802 0.06472 0.30123-0.46844 0.51535-0.69242 0.62058 0.25096-0.003 0.88741-0.10971 0.9732 0.20089 0.09821 0.35618-1.4691 1.2842-1.8263 1.4128 0.07979-0.0188 1.5727-0.36728 2.1184-0.24913 0.40626 0.0881-0.06717 0.63482-0.14543 0.69945 0.11988-0.0584 0.80427-0.19947 1.0002 0.12527 0.1958 0.32495-0.46884 1.6189-0.84101 2.1671 0.33064-0.32942 1.8395-1.4031 2.0648-1.2204 0.22511 0.18278 0.05302 0.77283-0.06768 0.96761 0.24322-0.22765 0.48268-0.53204 0.79165-0.52553 0.15469 0.003 0.34947 0.51495 0.38153 1.6713 0.20934-0.64795 0.70932-1.5286 1.0764-1.4751 0.36748 0.0532 0.49296 0.5986 0.54384 0.83103 0.04223-0.24933 0.23518-0.89046 0.48034-0.91387 0.30062-0.0469 0.87601 1.2915 1.0856 1.8963 0.03155-0.29869-0.18746-1.8328 0.13678-1.9602 0.32403-0.12782 0.85983 0.518 1.1638 0.87998-0.1844-0.35008-0.54496-1.197-0.33034-1.3996 0.21483-0.20272 0.95722 0.0102 1.2463 0.24811-0.08101-0.17749-0.09821-0.31925-0.07633-0.45256" fill="#f47216"/><path d="m49.454 202.37-0.22442 0.58934c-0.18827-0.0606-0.3337-0.0964-0.47067-0.12069-0.31151-0.0616-0.53733-0.0455-1.1835-0.13026-1.0147-0.13362-1.4894-0.45175-1.6225-0.57458-0.0401-0.0371-0.07103-0.0692-0.11316-0.12803-0.0289-0.0403-0.04936-0.0881-0.05251-0.097l2.1155-0.066" fill="#22547a"/><path d="m53.414 199.75-0.88949-1.2398-0.33223-0.15149c-0.03745 0.0226-0.05139 0.0701-0.05251 0.11927-0.0019 0.0874 0.1902 0.53865 0.26571 1.4884l0.40574 0.90867s0.9277 0.2414 1.1782 0.46683" fill="#349099"/><path d="m58.207 204.83c-0.000306 0-0.000306-0.00021-0.000306-0.00021s-0.03145-0.0464-0.13657-0.1383c-0.10492-0.092-0.28342-0.22898-0.57743-0.40982-0.28139-0.1731-1.0656-0.70341-1.6679-1.26-0.02239-0.0207-1.6321-1.54-1.6725-1.5774-0.0043-0.0142-0.2132-0.79186-0.71196-1.8035-0.34937-0.70891-0.87113-1.1517-1.0562-1.2531-0.0117-0.006-0.11917-0.0743-0.19112-0.0284 0.2247 0.16272 0.65121 0.58648 0.97493 1.2 0.27223 0.51637 0.49459 1.1268 0.6394 1.5733-0.25055-0.22541-0.50293-0.44584-0.74789-0.64968-0.19265-0.16008-0.41053-0.3339-0.65325-0.51606 0-0.001-0.52166-0.38377-0.81648-0.57997 0 0-0.000305 0-0.000305-0.00031-0.16507-0.1095-0.9215-0.58089-1.3803-0.83124-0.38946-0.21259-1.2051-0.5992-1.2075-0.60022h-0.000305c-0.42478-0.35883-0.75756-0.52624-0.8466-0.50375-0.05455 0.0134-0.07337 0.0777-0.07459 0.0811 0.15336 0.0812 0.9216 1.4871 0.9216 1.4871l0.67645 2.1302 3.3112 2.7444 1.1666-0.10215c0.0054 0.003 0.0095 0.005 0.01089 0.005-0.56104-0.32026-1.1297-0.68937-1.5007-1.0433-0.71868-0.67177-0.96455-1.4563-1.6766-2.5282l-0.01791-0.0279c2.3989 1.8194 4.2527 3.9264 6.1692 4.5995 0.06096 0.0214 0.11886 0.0415 0.17433 0.0603 0.0023 0.00071 0.0048 0.001 0.0068 0.002 0.65233 0.22073 0.91591 0.25503 0.93514 0.1323 0.0085-0.0534-0.0344-0.13321-0.05017-0.16222" fill="#22547a"/><path d="m48.817 199.65c-0.02799-0.13342-0.12812-0.57987-0.31629-1.0471-0.66648-0.35364-1.7319-0.80701-2.6956-1.0328-1.8979-0.44503-3.1133-0.059-3.3215 0.009l-0.02961 0.009c0.04641-0.0102 0.50752-0.03 0.50752-0.03 0.09963-0.002 1.3952-0.053 2.8177 0.48096 1.1628 0.42457 2.3063 1.118 3.0378 1.6104" fill="#fff"/><path d="m49.7 200.18-0.88328-0.52688c-0.7314-0.49215-1.8748-1.1855-3.0377-1.6103-1.4226-0.53387-2.7182-0.48299-2.8176-0.48085l1.3229 0.69984 4.4476 2.6388" fill="#22547a"/><path d="m42.594 199c-0.000203-0.0601-0.0085-0.12141-0.02442-0.1841-0.029-0.10675-0.08538-0.2361-0.17636-0.36941-0.05536-0.0814-0.14634-0.1842-0.14756-0.18532-0.01496-0.00092-0.08508-0.004-0.1441 0.002-0.05943 0.006-0.12253 0.0165-0.14868 0.0215v0.00031l-0.19157 0.27542 0.7456 0.53434c0.0116 0.002 0.08365 0.0179 0.08711-0.0946" fill="#22547a"/><path d="m41.953 198.29v-0.00031c-0.4838 0.0931-1.05 0.42244-1.2258 0.52238 0.06025 0.0585 0.20862 0.16435 0.4896 0.14705 0.3861-0.0237 0.81261-0.0553 1.0122 0.005 0.17158 0.0514 0.20414 0.12619 0.27762 0.13586h0.000305c0.21178-0.25788-0.5701-0.78778-0.55392-0.80977" fill="#349099"/><g transform="matrix(1.0177 0 0 1.0177 -.67463 -3.4217)"><path d="m47.899 197.51c0-0.007 0.0003-0.0123 0.001-0.0174-1.5204-0.594-2.7603-0.566-2.7649-0.5663-2.0909-0.099-3.7361 0.7522-3.7361 0.7522s0 0.0002-0.0002 0.0002c-0.0043 0-0.0159-0.0002-0.0335-0.0002-0.1963 0-1.1672 0.015-1.8048 0.311-0.6973 0.3236-1.0985 0.8308-1.2731 1.212-0.1299 0.2839-0.1363 0.3747-0.0949 0.4121 0.0034 0.003 0.0074 0.006 0.0115 0.009 0 0 0.0003 0 0.0003 0.0004 0.0124 0.007 0.0277 0.0126 0.0445 0.0171l0.51303-0.58062c0.69568-0.35701 1.898-0.47858 1.898-0.47858s1.7557-0.79558 1.7174-1.0609c0.0007-0.0003 0.0012-0.0003 0.0021-0.0006h0.0002l0.002-0.0006 0.0269-0.008c0.2046-0.067 1.3989-0.4465 3.2638-0.009 0.947 0.2219 1.9939 0.6674 2.6488 1.0149 0-0.0003 0.25254-0.41647 0.25254-0.41647" fill="#22547a"/></g><path d="m55.595 204.87c-0.19488-0.0799-0.37389-0.12874-0.66281-0.20038-0.13301-0.0402-0.32138-0.10065-0.32138-0.10065-0.000814 0.001-0.0014 0.002-0.0022 0.004-0.32616-0.11093-0.87754-0.32983-1.0531-0.58883 0.007 0.0142 0.11897 0.24374 0.21096 0.37288 0.07602 0.11663 0.24607 0.33797 0.49897 0.44818 0.35273 0.15398 0.58252 0.12996 0.74494 0.12996s0.54313 0.0117 0.69782 0.0489c0.15479 0.0374 0.22063 0.085 0.22928 0.0642 0.009-0.0208-0.07622-0.0687-0.34245-0.1781m1.8692 0.71105c-0.38458-0.0382-1.1554-0.31568-1.1554-0.31568-1.4073 0.36545-3.0777 0.40656-5.1266-0.8404-0.38244-0.23294-0.73191-0.47372-1.0554-0.71939-0.32301-0.24546-0.61997-0.4953-0.89698-0.74626-0.11988-0.10808-0.27355-0.24679-0.40504-0.37969-0.66495-0.22176-0.96028-0.0146-1.874-0.13464-0.72306-0.0952-1.0039-0.34194-1.1632-0.53581-0.02056-0.0559-0.01842-0.10482 0.01913-0.13484 0.0863-0.0693 0.21982-0.0346 0.47291-0.0158 0.25299 0.0184 0.63625 0.0123 0.88914-0.14573 0.16303-0.10137 0.23692-0.34632 0.26409-0.48177-0.18939-0.20099-0.37552-0.39557-0.56318-0.58099-1.1543-1.1419-1.9311-1.8228-2.8006-2.1629-1.8863-0.73842-2.949 0.12884-3.3747 0.38469l-0.000203-0.00051c-0.51627 0.33135-1.2014 0.44075-1.5687 0.50975-0.36748 0.0691-0.56837 0.24679-0.64673 0.31344-0.07846 0.0669-0.13881 0.17891-0.22806 0.15367-0.0229-0.006-0.04295-0.0134-0.05719-0.0271 0.01425 0.0133 0.0343 0.0204 0.05719 0.0267 0.01384-0.15937 0.54893-1.49 2.2488-1.7316 0.48584-0.0691 0.64042-0.0474 0.7311-0.0407-0.28576 0.25126-0.52125 0.60164-0.5413 0.6221 0.06493-0.0564 0.12975-0.11011 0.19478-0.16161 0.50731-0.5416 1.0837-0.76508 1.5681-0.84579 0.03175-0.0102 0.50975-0.0305 0.50975-0.0305 0.55748 0.0118 1.3059 0.17545 2.0004 0.37715 2.0394 0.59168 4.0068 2.3592 4.0068 2.3592s-0.1093-0.47638-0.15184-0.64511c-0.02799-0.13331-0.12802-0.57977-0.3164-1.0471 0-0.00021-0.05648-0.14105-0.1384-0.31345-0.121-0.25492-0.29095-0.576-0.29095-0.71003 0-0.007 0.000204-0.0125 0.001-0.0177 0 0 0.0015-0.0147 0.0075-0.0335 0.15326 0.0813 0.36168 0.22237 0.5988 0.42234 0.37135 0.30957 0.84182 0.78066 1.3864 1.4525 1.2238 1.5095 1.4181 2.5428 2.2786 3.3467 0.36422 0.34082 1.3216 0.86706 1.812 1.0379 0.0054 0.003 0.0094 0.005 0.01089 0.005 0.000305 0 0.000305 0.00031 0.000509 0l0.000407 0.00031c0.82818 0.47281 1.6393 0.83856 1.7708 0.89179 0.48462 0.19498 2.1892 0.76101 2.3686 0.47952h0.000305c-0.07521 0.32434-0.46386 0.45317-0.84294 0.41532" fill="#349099"/></g></g></g></g></svg>
