<?xml version="1.0" encoding="UTF-8" standalone="no"?>
<svg xmlns:dc="http://purl.org/dc/elements/1.1/" viewBox="0 0 732.77 188.39" xmlns:cc="http://creativecommons.org/ns#" xmlns="http://www.w3.org/2000/svg" version="1.1" xmlns:rdf="http://www.w3.org/1999/02/22-rdf-syntax-ns#">
<metadata>
<rdf:RDF>
<cc:Work rdf:about="">
<dc:format>image/svg+xml</dc:format>
<dc:type rdf:resource="http://purl.org/dc/dcmitype/StillImage"/>
<dc:title/>
</cc:Work>
</rdf:RDF>
</metadata>
<g transform="translate(-5.9251 -858.68)">
<path fill="#0a3d91" d="m75.447 1047.1c-66.828 0-69.404-69.923-69.503-92.848h-0.0191c0-0.38086-0.00048-0.91312 0-1.3351-0.0005-0.42862 0-0.96791 0-1.3542h0.0191c0.0993-22.925 2.6748-92.848 69.503-92.848 66.502 0 69.569 71.977 69.713 92.848h0.019c0 0.36999 0.001 0.92377 0 1.3542 0.00061 0.42356 0 0.97035 0 1.3351h-0.019c-0.14379 20.871-3.2111 92.848-69.713 92.848z"/>
<path fill="none" stroke-width="13.428" stroke="#fff" d="m37.507 914.28 70.437 70.437-31.036 31.036v-124.68l30.766 30.766-69.898 70.167"/>
</g>
</svg>
