<?xml version="1.0" encoding="UTF-8" standalone="no"?>
<svg xmlns:cc="http://creativecommons.org/ns#" version="1.1" xmlns:dc="http://purl.org/dc/elements/1.1/" xmlns="http://www.w3.org/2000/svg" xmlns:rdf="http://www.w3.org/1999/02/22-rdf-syntax-ns#" viewBox="0 0 732.77 188.39">
<metadata>
<rdf:RDF>
<cc:Work rdf:about="">
<dc:format>image/svg+xml</dc:format>
<dc:type rdf:resource="http://purl.org/dc/dcmitype/StillImage"/>
<dc:title/>
</cc:Work>
</rdf:RDF>
</metadata>
<g transform="translate(-5.9251 -858.68)">
<path d="m75.447 1047.1c-66.828 0-69.404-69.923-69.503-92.848h-0.0191c0-0.38086-0.00048-0.91312 0-1.3351-0.0005-0.42862 0-0.96791 0-1.3542h0.0191c0.0993-22.925 2.6748-92.848 69.503-92.848 66.502 0 69.569 71.977 69.713 92.848h0.019c0 0.36999 0.001 0.92377 0 1.3542 0.00061 0.42356 0 0.97035 0 1.3351h-0.019c-0.14379 20.871-3.2111 92.848-69.713 92.848z" fill="#0a3d91"/>
<path d="m37.507 914.28 70.437 70.437-31.036 31.036v-124.68l30.766 30.766-69.898 70.167" stroke-width="13.428" stroke="#fff" fill="none"/>
<path d="m243.05 978.18c0.11159-4.0558-0.25095-8.2691-1.088-12.64-0.83737-4.3707-2.8206-8.3141-5.9498-11.83-1.883-2.0091-4.2289-3.5685-7.0378-4.6781 2.5619-1.0495 4.8462-2.5489 6.8526-4.4982 2.8783-2.8788 4.7613-6.1175 5.6488-9.7161 0.88734-3.5985 1.2886-7.5569 1.2038-11.875 0.0324-6.2636-0.58655-11.594-1.852-15.991-1.2657-4.3969-3.3647-8.0629-6.297-10.998-2.7396-2.6913-6.1967-4.6855-10.372-5.9826-4.1749-1.2968-9.2989-1.9416-15.372-1.9342h-32.967v128.11h32.781c6.0808 0.01 11.236-0.6409 15.465-1.9567 4.2288-1.3157 7.7169-3.3624 10.464-6.14 3.1098-3.0888 5.3169-7.0322 6.6211-11.83 1.304-4.7981 1.9369-10.811 1.8983-18.038zm-20.743-0.17993c0.05 7.3658-1.1614 12.561-3.6347 15.586s-6.5093 4.487-12.108 4.3858h-10.001v-39.944h10.001c5.5176-0.0562 9.5303 1.4957 12.038 4.6556 2.508 3.16 3.7426 8.2654 3.7041 15.316zm-0.37042-54.518c0.0324 6.0802-1.1923 10.518-3.681 13.315-2.4887 2.7965-6.4475 4.1759-11.876 4.1384h-9.8159v-34.726h9.8159c5.5098-0.09 9.4918 1.1696 11.946 3.7785 2.4539 2.609 3.6578 7.1072 3.6115 13.495z"/>
<path d="m253.76 888.03v27.542 1.2588 69.274 1.2588 27.542h17.91v-1.2589-27.37-1.2588-67.1-1.2588-27.37-1.2588h-17.91z"/>
<path d="m346.19 1016.1v-94.822h-19.89v68.193c-0.0666 3.6848-1.0125 6.4362-2.8381 8.2542s-4.1321 2.7252-6.9193 2.7214c-2.7873 0-5.0938-0.90335-6.9193-2.7214-1.8256-1.818-2.7717-4.5694-2.8381-8.2542v-68.193h-19.89v68.373c-0.009 5.3866 0.43393 9.6374 1.337 12.752 0.903 3.1151 2.3338 5.7015 4.2923 7.7594 2.2165 2.5115 4.7732 4.3708 7.6699 5.5778s6.3447 1.8068 10.344 1.7993c1.7983-0.01 3.5496-0.2587 5.254-0.7422 1.7044-0.4836 3.2681-1.1359 4.6911-1.9567 1.2431-0.6635 2.4628-1.5407 3.659-2.6315 1.1961-1.0908 2.2282-2.1929 3.0961-3.3062v7.1971z"/>
<path d="m421.15 974.23c0.14418-9.135-0.19224-17.944-1.0093-26.427-0.81706-8.4828-3.5564-15.268-8.2181-20.354-2.9837-2.9125-6.2918-4.9142-9.9242-6.0051-3.6325-1.0907-7.5653-1.608-11.799-1.5518-4.1371-0.045-8.0219 0.49489-11.654 1.6193-3.6325 1.1247-6.9886 3.1039-10.068 5.9377-4.1772 4.1796-6.8284 9.8998-7.9538 17.161-1.1254 7.2609-1.614 15.275-1.4658 24.043-0.14802 8.7678 0.34026 16.782 1.4658 24.043 1.1254 7.2609 3.7766 12.981 7.9538 17.161 3.0157 2.8413 6.2597 4.8505 9.732 6.0275 3.4722 1.1771 7.5332 1.7468 12.183 1.7094 4.4574 0.023 8.5665-0.5623 12.327-1.7544 3.7606-1.192 6.9565-3.1262 9.5878-5.8026 2.8515-3.0101 4.934-6.3912 6.2477-10.143 1.3135-3.7522 2.0504-7.6282 2.2107-11.628h-20.185c-0.01 1.4994-0.23214 3.0438-0.67285 4.6332s-1.0493 2.8639-1.8263 3.8235c-0.94519 1.1808-2.0346 2.1029-3.268 2.7664-1.2336 0.66348-2.7074 1.0009-4.4214 1.0121-1.8303-0.023-3.4082-0.3823-4.7338-1.0796-1.3256-0.69719-2.3749-1.5968-3.1479-2.6989-1.2215-1.7581-2.0465-4.5844-2.475-8.4791-0.42869-3.8946-0.62881-8.5653-0.60074-14.012zm-20.377-14.034h-21.338c-0.0145-4.8992 0.20809-9.045 0.67283-12.437 0.46474-3.3923 1.2655-5.7838 2.403-7.1746 0.84902-1.102 1.8903-2.0016 3.1238-2.6989 1.2335-0.69714 2.7554-1.057 4.5656-1.0796 1.8102 0.0225 3.3321 0.38235 4.5656 1.0796 1.2335 0.69728 2.2748 1.5969 3.1238 2.6989 1.1294 1.3908 1.8983 3.7823 2.3069 7.1746 0.40851 3.3924 0.60066 7.5383 0.57667 12.437z"/>
<path d="m472.2 1016.1v-17.093c-4.7956 0.018-8.3922-1.0083-10.79-3.0813-2.3978-2.0729-3.5967-5.3041-3.5967-9.6936v-50.38h14.003v-14.574h-14.003v-24.29h-20.333v24.29h-10.358v14.574h10.358v51.459c0.0287 5.5478 0.93112 10.196 2.7095 13.944 1.7784 3.7485 4.264 6.7773 7.4571 9.0863 3.4448 2.4441 7.2013 4.0335 11.27 4.7681 4.0682 0.7347 8.4961 1.0646 13.284 0.9896z"/>
<path d="m540.76 968.65c0.0962-8.1079-0.28199-15.552-1.1346-22.334-0.85289-6.7809-2.7592-12.291-5.7189-16.531-2.8866-3.7972-6.2824-6.4136-10.188-7.8494-3.9054-1.4356-8.2274-2.1178-12.966-2.0467-4.7388-0.0711-9.0608 0.61108-12.966 2.0467-3.9053 1.4358-7.3012 4.0522-10.188 7.8494-2.9598 4.2396-4.8662 9.7499-5.719 16.531-0.85281 6.7811-1.231 14.226-1.1345 22.334-0.0962 8.108 0.28157 15.553 1.1345 22.334 0.85285 6.781 2.7592 12.291 5.719 16.531 2.8865 3.8047 6.2823 6.4512 10.188 7.9393 3.9052 1.4881 8.2273 2.2004 12.966 2.1367 4.7388 0.064 9.0608-0.6485 12.966-2.1367 3.9052-1.4881 7.3011-4.1346 10.188-7.9393 2.9597-4.2395 4.866-9.7498 5.7189-16.531 0.85277-6.781 1.231-14.226 1.1346-22.334zm-19.634 0c0.0464 7.0397-0.0924 12.932-0.41666 17.678-0.3242 4.7456-1.1114 8.2092-2.3617 10.391-0.86058 1.2595-1.9643 2.2041-3.311 2.8338-1.3468 0.6297-2.7746 0.9446-4.2834 0.9446-1.5089 0-2.9367-0.3149-4.2834-0.9446-1.3468-0.62972-2.4505-1.5743-3.311-2.8338-1.2503-2.1816-2.0376-5.6452-2.3617-10.391-0.32421-4.7456-0.46305-10.638-0.41666-17.678-0.0464-7.0321 0.0924-12.895 0.41666-17.588 0.3242-4.693 1.1114-8.1267 2.3617-10.301 0.86053-1.2669 1.9642-2.2415 3.311-2.9238 1.3468-0.68216 2.7746-1.027 4.2835-1.0346 1.5088 0.009 2.9366 0.35267 4.2834 1.0346 1.3467 0.68229 2.4504 1.6569 3.311 2.9238 1.2503 2.1742 2.0375 5.6078 2.3617 10.301 0.32421 4.6932 0.46309 10.556 0.41666 17.588z"/>
<path d="m614.2 968.65c0.0962-8.1079-0.28155-15.552-1.1345-22.334-0.8529-6.7809-2.7592-12.291-5.7189-16.531-2.8866-3.7972-6.2824-6.4136-10.188-7.8494-3.9053-1.4356-8.2273-2.1178-12.966-2.0467-4.7388-0.0711-9.0609 0.61108-12.966 2.0467-3.9053 1.4358-7.3011 4.0522-10.188 7.8494-2.9598 4.2396-4.8662 9.7499-5.719 16.531-0.85285 6.7811-1.231 14.226-1.1345 22.334-0.0962 8.108 0.28156 15.553 1.1345 22.334 0.85281 6.781 2.7591 12.291 5.719 16.531 2.8865 3.8047 6.2824 6.4512 10.188 7.9393 3.9052 1.4881 8.2273 2.2004 12.966 2.1367 4.7388 0.064 9.0608-0.6485 12.966-2.1367 3.9052-1.4881 7.3011-4.1346 10.188-7.9393 2.9597-4.2395 4.866-9.7498 5.7189-16.531 0.85277-6.781 1.2309-14.226 1.1345-22.334zm-19.634 0c0.0464 7.0397-0.0925 12.932-0.41668 17.678-0.32421 4.7456-1.1114 8.2092-2.3617 10.391-0.86058 1.2595-1.9642 2.2041-3.311 2.8338s-2.7746 0.9446-4.2834 0.9446c-1.5089 0-2.9367-0.3149-4.2835-0.9446-1.3468-0.62972-2.4505-1.5743-3.311-2.8338-1.2503-2.1816-2.0376-5.6452-2.3617-10.391-0.32421-4.7456-0.46309-10.638-0.41665-17.678-0.0464-7.0321 0.0924-12.895 0.41665-17.588 0.3242-4.693 1.1114-8.1267 2.3617-10.301 0.86049-1.2669 1.9642-2.2415 3.311-2.9238 1.3468-0.68216 2.7746-1.027 4.2835-1.0346 1.5088 0.009 2.9366 0.35267 4.2834 1.0346 1.3468 0.68229 2.4504 1.6569 3.311 2.9238 1.2502 2.1742 2.0374 5.6078 2.3617 10.301 0.32422 4.6932 0.46307 10.556 0.41668 17.588z"/>
<path d="m666.39 1016.1v-17.093c-4.9178 0.018-8.6063-1.0083-11.065-3.0813-2.459-2.0729-3.6884-5.3041-3.6884-9.6936v-50.38h14.36v-14.574h-14.36v-24.29h-20.852v24.29h-10.623v14.574h10.623v51.459c0.0311 5.5478 0.95482 10.196 2.7785 13.944 1.8237 3.7485 4.3727 6.7773 7.6472 9.0863 3.5326 2.4441 7.385 4.0335 11.557 4.7681 4.1719 0.7347 8.7128 1.0646 13.622 0.9896z"/>
<path d="m738.7 1016.1v-68.373c0.009-5.3865-0.44408-9.6373-1.3684-12.752-0.92436-3.115-2.3888-5.7014-4.3934-7.7594-2.2688-2.5114-4.8856-4.3706-7.8505-5.5778-2.965-1.2069-6.4941-1.8067-10.587-1.7992-1.8407 0.004-3.6332 0.22131-5.3778 0.65225-1.7446 0.43137-3.345 1.0534-4.8015 1.8667-1.0763 0.55863-2.1407 1.2858-3.193 2.1816-1.0524 0.89596-1.9727 1.8481-2.7609 2.8564v-39.404h-20.359v128.11h20.359v-68.193c0.0682-3.6847 1.0363-6.4361 2.9049-8.2542 1.8686-1.8179 4.2293-2.7251 7.0823-2.7214 2.8529-0.004 5.2136 0.90347 7.0823 2.7214 1.8686 1.8181 2.8368 4.5695 2.9049 8.2542v68.193z"/>
</g>
</svg>
