<?xml version="1.0" encoding="UTF-8" standalone="no"?>
<svg xmlns="http://www.w3.org/2000/svg" width="512px" y="0px" xml:space="preserve" version="1.1" x="0px" enable-background="new -164 62.2 512 292" height="292px" viewBox="-164 62.2 512 292">
<switch>
	<g>
			<path fill-opacity=".9412" fill="#E83032" d="m-19.665 271.57c0.363-0.287 1.149-0.572 1.696-0.572h219.97c0.546 0 1.334 0.238 1.697 0.572l11.349 11.386c0.425 0.334 0.879 1.084 0.333 1.084l-247.11 0.114c-0.546 0-0.598 0.094 0.027-0.531l12.038-12.05"/>
			<g transform="matrix(3.6737 0 0 3.6737 91.512 -542.79)">
					<linearGradient id="j" x1="-30.726" y2="240.76" y1="174.8" x2="4.296" gradientUnits="userSpaceOnUse" gradientTransform="matrix(8.3474 0 0 8.3474 268.61 -1288.6)">
					<stop stop-color="#966724" offset="0"/>
					<stop stop-color="#7C511C" offset=".5216"/>
					<stop stop-color="#E2C937" offset="1"/>
				</linearGradient>
				<polygon points="28.237 218.54 28.237 218.54 28.237 218.54 22.299 212.54 22.237 170.73 28.237 164.67 15.186 170.73 15.186 212.54" fill="url(#j)"/>
					<linearGradient id="i" x1="-31.905" y2="174.46" y1="174.46" x2="10.078" gradientUnits="userSpaceOnUse" gradientTransform="matrix(8.3474 0 0 8.3474 268.61 -1288.6)">
					<stop stop-color="#F6D73B" offset="0"/>
					<stop stop-color="#F6DA52" offset=".4784"/>
					<stop stop-color="#F6ECAD" offset="1"/>
				</linearGradient>
				<polygon points="15.186 170.73 15.186 170.73 28.237 164.67 2.259 164.67" fill="url(#i)"/>
					<linearGradient id="h" x1="-34.105" y2="93.123" y1="180.58" x2="-53.592" gradientUnits="userSpaceOnUse" gradientTransform="matrix(8.3474 0 0 8.3474 268.61 -1288.6)">
					<stop stop-color="#EEB62D" offset="0"/>
					<stop stop-color="#D67C2A" offset=".5098"/>
					<stop stop-color="#F2EA83" offset="1"/>
				</linearGradient>
				<polygon points="-27.986 218.54 -27.986 218.54 -27.986 218.54 -14.935 212.54 -14.935 170.73 -27.986 164.67 -21.925 170.73 -21.925 212.54" fill="url(#h)"/>
					<linearGradient id="g" x1="-35.532" y2="174.46" y1="174.46" x2="6.5855" gradientUnits="userSpaceOnUse" gradientTransform="matrix(8.3474 0 0 8.3474 268.61 -1288.6)">
					<stop stop-color="#F6D73B" offset="0"/>
					<stop stop-color="#F6DA52" offset=".4784"/>
					<stop stop-color="#F6ECAD" offset="1"/>
				</linearGradient>
				<polygon points="-14.935 170.73 -14.935 170.73 -1.947 164.67 -27.986 164.67" fill="url(#g)"/>
					<linearGradient id="f" x1="-35.532" y2="180.19" y1="180.19" x2="6.5659" gradientUnits="userSpaceOnUse" gradientTransform="matrix(8.3474 0 0 8.3474 268.61 -1288.6)">
					<stop stop-color="#9D6B2D" offset="0"/>
					<stop stop-color="#FACB32" offset="1"/>
				</linearGradient>
				<polygon points="-27.986 218.54 -27.986 218.54 -1.947 218.54 -14.935 212.54" fill="url(#f)"/>
					<linearGradient id="e" x1="-30.103" y2="152.54" y1="176.18" x2="-53.742" gradientUnits="userSpaceOnUse" gradientTransform="matrix(8.3474 0 0 8.3474 268.61 -1288.6)">
					<stop stop-color="#EEB62D" offset="0"/>
					<stop stop-color="#D67C2A" offset=".5098"/>
					<stop stop-color="#F2EA83" offset="1"/>
				</linearGradient>
				<polygon points="15.186 187.43 15.186 170.73 2.259 164.67 8.321 170.73 8.321 182.3" fill="url(#e)"/>
					<linearGradient id="d" x1="-30.131" y2="152.65" y1="179.69" x2="-57.166" gradientUnits="userSpaceOnUse" gradientTransform="matrix(8.3474 0 0 8.3474 268.61 -1288.6)">
					<stop stop-color="#EEB62D" offset="0"/>
					<stop stop-color="#D67C2A" offset=".5098"/>
					<stop stop-color="#F2EA83" offset="1"/>
				</linearGradient>
				<polygon points="15.186 212.54 15.186 187.43 8.321 194.05 8.321 194.05 8.321 212.54 2.259 218.54" fill="url(#d)"/>
					<linearGradient id="c" x1="-31.909" y2="180.19" y1="180.19" x2="10.077" gradientUnits="userSpaceOnUse" gradientTransform="matrix(8.3474 0 0 8.3474 268.61 -1288.6)">
					<stop stop-color="#9D6B2D" offset="0"/>
					<stop stop-color="#FACB32" offset="1"/>
				</linearGradient>
				<polygon points="21.742 218.54 28.237 218.54 15.186 212.54 2.259 218.54" fill="url(#c)"/>
					<linearGradient id="b" x1="-33.925" y2="211.47" y1="174.08" x2="-14.067" gradientUnits="userSpaceOnUse" gradientTransform="matrix(8.3474 0 0 8.3474 268.61 -1288.6)">
					<stop stop-color="#966724" offset="0"/>
					<stop stop-color="#7C511C" offset=".5216"/>
					<stop stop-color="#E2C937" offset="1"/>
				</linearGradient>
				<polygon points="-14.935 187.43 -7.946 182.3 -7.946 170.73 -1.947 164.67 -14.935 170.73" fill="url(#b)"/>
					<linearGradient id="a" x1="-34.391" y2="223.17" y1="177.14" x2="-9.9481" gradientUnits="userSpaceOnUse" gradientTransform="matrix(8.3474 0 0 8.3474 268.61 -1288.6)">
					<stop stop-color="#966724" offset="0"/>
					<stop stop-color="#865625" offset=".4314"/>
					<stop stop-color="#E2C937" offset=".9216"/>
					<stop stop-color="#E2C937" offset="1"/>
				</linearGradient>
				<polygon points="-7.946 194.05 -14.935 187.43 -14.935 212.54 -14.935 212.54 -1.947 218.54 -7.946 212.54" fill="url(#a)"/>
					<radialGradient id="k" r=".8716" cx="-32.092" cy="178.01" gradientUnits="userSpaceOnUse" gradientTransform="matrix(8.3474 0 0 8.3474 268.61 -1288.6)">
					<stop stop-color="#AA722A" offset="0"/>
					<stop stop-color="#AA722A" offset=".8392"/>
					<stop stop-color="#C28D29" offset="1"/>
				</radialGradient>
				<polygon points="-7.946 194.05 8.321 194.05 15.186 187.43 -14.935 187.43" fill="url(#k)"/>
				<polygon points="15.186 187.43 8.321 182.3 -7.946 182.3 -14.935 187.43" fill="#F2E666"/>
			</g>
			<g transform="matrix(3.6737 0 0 3.6737 91.512 -542.79)">
				<polygon points="28.237 218.54 28.237 218.54 28.237 218.54 22.299 212.54 22.237 170.73 28.237 164.67 15.186 170.73 15.186 212.54" fill="url(#j)"/>
				<polygon points="15.186 170.73 15.186 170.73 28.237 164.67 2.259 164.67" fill="url(#i)"/>
				<polygon points="-27.986 218.54 -27.986 218.54 -27.986 218.54 -14.935 212.54 -14.935 170.73 -27.986 164.67 -21.925 170.73 -21.925 212.54" fill="url(#h)"/>
				<polygon points="-14.935 170.73 -14.935 170.73 -1.947 164.67 -27.986 164.67" fill="url(#g)"/>
				<polygon points="-27.986 218.54 -27.986 218.54 -1.947 218.54 -14.935 212.54" fill="url(#f)"/>
				<polygon points="15.186 187.43 15.186 170.73 2.259 164.67 8.321 170.73 8.321 182.3" fill="url(#e)"/>
				<polygon points="15.186 212.54 15.186 187.43 8.321 194.05 8.321 194.05 8.321 212.54 2.259 218.54" fill="url(#d)"/>
				<polygon points="21.742 218.54 28.237 218.54 15.186 212.54 2.259 218.54" fill="url(#c)"/>
				<polygon points="-14.935 187.43 -7.946 182.3 -7.946 170.73 -1.947 164.67 -14.935 170.73" fill="url(#b)"/>
				<polygon points="-7.946 194.05 -14.935 187.43 -14.935 212.54 -14.935 212.54 -1.947 218.54 -7.946 212.54" fill="url(#a)"/>
							<radialGradient id="l" r=".8716" cx=".7293" cy="197.31" gradientUnits="userSpaceOnUse" gradientTransform="translate(0 .000020137)">
							<stop stop-color="#AA722A" offset="0"/>
							<stop stop-color="#AA722A" offset=".8392"/>
							<stop stop-color="#C28D29" offset="1"/>
						</radialGradient>
						<polygon points="15.186 187.43 8.321 194.05 -7.946 194.05 -14.937 187.43" fill="url(#l)"/>
				<polygon points="15.186 187.43 8.321 182.3 -7.946 182.3 -14.935 187.43" fill="#F2E666"/>
			</g>
	</g>
</switch>
</svg>
