<?xml version="1.0" encoding="UTF-8" standalone="no"?>
<svg height="292px" viewBox="-164 62.2 512 292" xml:space="preserve" xmlns="http://www.w3.org/2000/svg" x="0px" y="0px" version="1.1" width="512px" enable-background="new -164 62.2 512 292">
<switch>
	<g>
			<path d="m-19.665 271.57c0.363-0.287 1.149-0.572 1.696-0.572h219.97c0.546 0 1.334 0.238 1.697 0.572l11.349 11.386c0.425 0.334 0.879 1.084 0.333 1.084l-247.11 0.114c-0.546 0-0.598 0.094 0.027-0.531l12.038-12.05" fill-opacity=".9412" fill="#E83032"/>
			<g transform="matrix(3.6737 0 0 3.6737 91.512 -542.79)">
					<linearGradient id="j" x1="-30.726" y2="240.76" y1="174.8" x2="4.296" gradientUnits="userSpaceOnUse" gradientTransform="matrix(8.3474 0 0 8.3474 268.61 -1288.6)">
					<stop stop-color="#966724" offset="0"/>
					<stop stop-color="#7C511C" offset=".5216"/>
					<stop stop-color="#E2C937" offset="1"/>
				</linearGradient>
				<polygon points="28.237 218.54 28.237 218.54 28.237 218.54 22.299 212.54 22.237 170.73 28.237 164.67 15.186 170.73 15.186 212.54" fill="url(#j)"/>
					<linearGradient id="i" x1="-31.905" y2="174.46" y1="174.46" x2="10.078" gradientUnits="userSpaceOnUse" gradientTransform="matrix(8.3474 0 0 8.3474 268.61 -1288.6)">
					<stop stop-color="#F6D73B" offset="0"/>
					<stop stop-color="#F6DA52" offset=".4784"/>
					<stop stop-color="#F6ECAD" offset="1"/>
				</linearGradient>
				<polygon points="15.186 170.73 15.186 170.73 28.237 164.67 2.259 164.67" fill="url(#i)"/>
					<linearGradient id="h" x1="-34.105" y2="93.123" y1="180.58" x2="-53.592" gradientUnits="userSpaceOnUse" gradientTransform="matrix(8.3474 0 0 8.3474 268.61 -1288.6)">
					<stop stop-color="#EEB62D" offset="0"/>
					<stop stop-color="#D67C2A" offset=".5098"/>
					<stop stop-color="#F2EA83" offset="1"/>
				</linearGradient>
				<polygon points="-27.986 218.54 -27.986 218.54 -27.986 218.54 -14.935 212.54 -14.935 170.73 -27.986 164.67 -21.925 170.73 -21.925 212.54" fill="url(#h)"/>
					<linearGradient id="g" x1="-35.532" y2="174.46" y1="174.46" x2="6.5855" gradientUnits="userSpaceOnUse" gradientTransform="matrix(8.3474 0 0 8.3474 268.61 -1288.6)">
					<stop stop-color="#F6D73B" offset="0"/>
					<stop stop-color="#F6DA52" offset=".4784"/>
					<stop stop-color="#F6ECAD" offset="1"/>
				</linearGradient>
				<polygon points="-14.935 170.73 -14.935 170.73 -1.947 164.67 -27.986 164.67" fill="url(#g)"/>
					<linearGradient id="f" x1="-35.532" y2="180.19" y1="180.19" x2="6.5659" gradientUnits="userSpaceOnUse" gradientTransform="matrix(8.3474 0 0 8.3474 268.61 -1288.6)">
					<stop stop-color="#9D6B2D" offset="0"/>
					<stop stop-color="#FACB32" offset="1"/>
				</linearGradient>
				<polygon points="-27.986 218.54 -27.986 218.54 -1.947 218.54 -14.935 212.54" fill="url(#f)"/>
					<linearGradient id="e" x1="-30.103" y2="152.54" y1="176.18" x2="-53.742" gradientUnits="userSpaceOnUse" gradientTransform="matrix(8.3474 0 0 8.3474 268.61 -1288.6)">
					<stop stop-color="#EEB62D" offset="0"/>
					<stop stop-color="#D67C2A" offset=".5098"/>
					<stop stop-color="#F2EA83" offset="1"/>
				</linearGradient>
				<polygon points="15.186 187.43 15.186 170.73 2.259 164.67 8.321 170.73 8.321 182.3" fill="url(#e)"/>
					<linearGradient id="d" x1="-30.131" y2="152.65" y1="179.69" x2="-57.166" gradientUnits="userSpaceOnUse" gradientTransform="matrix(8.3474 0 0 8.3474 268.61 -1288.6)">
					<stop stop-color="#EEB62D" offset="0"/>
					<stop stop-color="#D67C2A" offset=".5098"/>
					<stop stop-color="#F2EA83" offset="1"/>
				</linearGradient>
				<polygon points="15.186 212.54 15.186 187.43 8.321 194.05 8.321 194.05 8.321 212.54 2.259 218.54" fill="url(#d)"/>
					<linearGradient id="c" x1="-31.909" y2="180.19" y1="180.19" x2="10.077" gradientUnits="userSpaceOnUse" gradientTransform="matrix(8.3474 0 0 8.3474 268.61 -1288.6)">
					<stop stop-color="#9D6B2D" offset="0"/>
					<stop stop-color="#FACB32" offset="1"/>
				</linearGradient>
				<polygon points="21.742 218.54 28.237 218.54 15.186 212.54 2.259 218.54" fill="url(#c)"/>
					<linearGradient id="b" x1="-33.925" y2="211.47" y1="174.08" x2="-14.067" gradientUnits="userSpaceOnUse" gradientTransform="matrix(8.3474 0 0 8.3474 268.61 -1288.6)">
					<stop stop-color="#966724" offset="0"/>
					<stop stop-color="#7C511C" offset=".5216"/>
					<stop stop-color="#E2C937" offset="1"/>
				</linearGradient>
				<polygon points="-14.935 187.43 -7.946 182.3 -7.946 170.73 -1.947 164.67 -14.935 170.73" fill="url(#b)"/>
					<linearGradient id="a" x1="-34.391" y2="223.17" y1="177.14" x2="-9.9481" gradientUnits="userSpaceOnUse" gradientTransform="matrix(8.3474 0 0 8.3474 268.61 -1288.6)">
					<stop stop-color="#966724" offset="0"/>
					<stop stop-color="#865625" offset=".4314"/>
					<stop stop-color="#E2C937" offset=".9216"/>
					<stop stop-color="#E2C937" offset="1"/>
				</linearGradient>
				<polygon points="-7.946 194.05 -14.935 187.43 -14.935 212.54 -14.935 212.54 -1.947 218.54 -7.946 212.54" fill="url(#a)"/>
					<radialGradient id="k" r=".8716" cx="-32.092" cy="178.01" gradientUnits="userSpaceOnUse" gradientTransform="matrix(8.3474 0 0 8.3474 268.61 -1288.6)">
					<stop stop-color="#AA722A" offset="0"/>
					<stop stop-color="#AA722A" offset=".8392"/>
					<stop stop-color="#C28D29" offset="1"/>
				</radialGradient>
				<polygon points="-7.946 194.05 8.321 194.05 15.186 187.43 -14.935 187.43" fill="url(#k)"/>
				<polygon points="15.186 187.43 8.321 182.3 -7.946 182.3 -14.935 187.43" fill="#F2E666"/>
			</g>
			<path d="m-41.574 295.58h12.348v15.868h12.243v-15.87h12.348v41.848h-12.348v-16.674h-12.243v16.674h-12.348v-41.85z" fill="#fff"/>
			<path d="m3.805 295.53h12.347v41.847h-12.347v-41.85z" fill="#fff"/>
			<path d="m50.069 307.15c-2.396-2.636-5.262-3.711-9.013-3.711-3.074 0-5.211 1.075-5.211 2.957 0 6.778 23.758 0.754 23.758 17.805 0 6.938-5.73 13.983-18.391 13.983-7.711 0-14.536-1.775-19.12-8.121l7.45-5.594c2.656 3.227 6.459 5.108 10.888 5.108 4.846 0 6.825-1.827 6.825-3.657 0-6.347-23.393-1.506-23.393-17.318 0-8.175 7.033-13.77 17.401-13.77 6.043 0 12.243 1.775 16.047 6.563l-7.241 5.76z" fill="#fff"/>
			<path d="m72.992 303.86h-11.878v-8.283h36.156v8.283h-11.931v33.564h-12.347v-33.56z" fill="#fff"/>
			<path d="m111.75 316.5c0 11.242 3.386 13.392 7.606 13.392 4.167 0 7.606-2.149 7.606-13.392 0-10.649-2.814-13.392-7.606-13.392-5 0-7.61 3.23-7.61 13.39zm7.61 21.68c-12.868 0-20.684-8.336-20.684-21.676 0-13.339 7.815-21.676 20.684-21.676s20.631 8.337 20.631 21.676c0 13.34-7.76 21.68-20.63 21.68z" fill="#fff"/>
			<path d="m157.44 312.25h6.408c3.543 0 6.147-1.506 6.147-4.195 0-2.635-1.771-4.518-5.626-4.518h-6.93v8.71zm-12.34-16.67h20.684c14.432 0 17.245 6.616 17.245 12.05 0 5.217-3.387 8.713-8.18 10.488l8.075 19.255h-13.754l-6.147-17.157h-5.575v17.157h-12.348v-41.8h0.01z" fill="#fff"/>
			<path d="m198.34 319.62l-15.683-24.098h14.015l9.065 14.254 8.597-14.254h11.201l-14.849 23.13v18.771h-12.347v-17.8z" fill="#fff"/>
			<g transform="matrix(3.6737 0 0 3.6737 91.512 -542.79)">
				<polygon points="28.237 218.54 28.237 218.54 28.237 218.54 22.299 212.54 22.237 170.73 28.237 164.67 15.186 170.73 15.186 212.54" fill="url(#j)"/>
				<polygon points="15.186 170.73 15.186 170.73 28.237 164.67 2.259 164.67" fill="url(#i)"/>
				<polygon points="-27.986 218.54 -27.986 218.54 -27.986 218.54 -14.935 212.54 -14.935 170.73 -27.986 164.67 -21.925 170.73 -21.925 212.54" fill="url(#h)"/>
				<polygon points="-14.935 170.73 -14.935 170.73 -1.947 164.67 -27.986 164.67" fill="url(#g)"/>
				<polygon points="-27.986 218.54 -27.986 218.54 -1.947 218.54 -14.935 212.54" fill="url(#f)"/>
				<polygon points="15.186 187.43 15.186 170.73 2.259 164.67 8.321 170.73 8.321 182.3" fill="url(#e)"/>
				<polygon points="15.186 212.54 15.186 187.43 8.321 194.05 8.321 194.05 8.321 212.54 2.259 218.54" fill="url(#d)"/>
				<polygon points="21.742 218.54 28.237 218.54 15.186 212.54 2.259 218.54" fill="url(#c)"/>
				<polygon points="-14.935 187.43 -7.946 182.3 -7.946 170.73 -1.947 164.67 -14.935 170.73" fill="url(#b)"/>
				<polygon points="-7.946 194.05 -14.935 187.43 -14.935 212.54 -14.935 212.54 -1.947 218.54 -7.946 212.54" fill="url(#a)"/>
							<radialGradient id="l" r=".8716" cx=".7293" cy="197.31" gradientUnits="userSpaceOnUse" gradientTransform="translate(0 .000020137)">
							<stop stop-color="#AA722A" offset="0"/>
							<stop stop-color="#AA722A" offset=".8392"/>
							<stop stop-color="#C28D29" offset="1"/>
						</radialGradient>
						<polygon points="15.186 187.43 8.321 194.05 -7.946 194.05 -14.937 187.43" fill="url(#l)"/>
				<polygon points="15.186 187.43 8.321 182.3 -7.946 182.3 -14.935 187.43" fill="#F2E666"/>
			</g>
	</g>
</switch>
</svg>
