<?xml version="1.0" encoding="UTF-8" standalone="no"?>
<svg xmlns="http://www.w3.org/2000/svg" viewBox="-0.68 -0.847 1015 1015" width="1015" xml:space="preserve" height="1015">
		<linearGradient id="f" x1="-74.197" gradientUnits="userSpaceOnUse" x2="1001.3" y1="-54.648" y2="984.59">
			<stop offset="0" stop-color="#DFF4FF"/>
			<stop offset=".0984" stop-color="#D6EAF5"/>
			<stop offset=".2678" stop-color="#BFD0D9"/>
			<stop offset=".4879" stop-color="#98A5AC"/>
			<stop offset=".7469" stop-color="#646B6E"/>
			<stop offset="1" stop-color="#2B2B2B"/>
		</linearGradient>
		<path d="m506.86 0c-279.92 0-506.86 226.92-506.86 506.85s226.94 506.85 506.86 506.85c279.94 0 506.86-226.92 506.86-506.85s-226.9-506.85-506.84-506.85zm0 988.35c-265.94 0-481.5-215.57-481.5-481.5s215.56-481.51 481.5-481.51 481.51 215.58 481.51 481.51-215.57 481.5-481.51 481.5z" fill="url(#f)"/>
		<path d="m992 506.85c0 267.91-217.23 485.13-485.14 485.13-267.92 0-485.12-217.22-485.12-485.13 0-267.93 217.2-485.13 485.12-485.13 267.92-0.005 485.14 217.2 485.14 485.13z" fill="#333"/>
		<radialGradient id="e" gradientUnits="userSpaceOnUse" cy="33.522" cx="-6.3174" r="720.11">
			<stop offset="0" stop-color="#fff"/>
			<stop offset=".3064" stop-color="#A8A8A8"/>
			<stop offset=".6461" stop-color="#4F4F4F"/>
			<stop offset=".8853" stop-color="#161616"/>
			<stop offset="1"/>
		</radialGradient>
		<path d="m988.37 506.85c0 265.93-215.57 481.5-481.51 481.5s-481.5-215.57-481.5-481.5 215.56-481.51 481.5-481.51c265.94-0.004 481.51 215.58 481.51 481.51z" fill="url(#e)"/>
			<linearGradient id="d" x1="54.041" gradientUnits="userSpaceOnUse" gradientTransform="matrix(-1 0 0 -1 930.98 1169.3)" x2="738.99" y1="304.85" y2="966.73">
			<stop offset="0" stop-color="#DFF4FF"/>
			<stop offset=".0855" stop-color="#D6EAF5"/>
			<stop offset=".2327" stop-color="#BED0D9"/>
			<stop offset=".4239" stop-color="#96A4AC"/>
			<stop offset=".6516" stop-color="#5F686D"/>
			<stop offset=".9075" stop-color="#1A1D1E"/>
			<stop offset="1"/>
		</linearGradient>
		<path d="m829.68 506.85c0 178.28-144.53 322.8-322.82 322.8s-322.82-144.52-322.82-322.8c0-178.29 144.53-322.82 322.82-322.82s322.82 144.53 322.82 322.82z" fill="url(#d)"/>
			<radialGradient id="c" gradientUnits="userSpaceOnUse" cy="200.08" cx="174.25" r="466.72">
			<stop offset="0" stop-color="#E6E6E6"/>
			<stop offset=".1045" stop-color="#D6D6D6"/>
			<stop offset=".3074" stop-color="#ADADAD"/>
			<stop offset=".5884" stop-color="#6C6C6C"/>
			<stop offset=".9335" stop-color="#121212"/>
			<stop offset="1"/>
		</radialGradient>
		<path d="m194.79 506.85c0-172.36 139.72-312.08 312.07-312.08 172.37 0 312.07 139.72 312.07 312.08 0 172.35-139.7 312.07-312.07 312.07-172.35 0-312.07-139.72-312.07-312.07z" fill="url(#c)"/>
			<radialGradient id="b" gradientUnits="userSpaceOnUse" cy="262.85" cx="301.91" r="678.74">
			<stop offset="0" stop-color="#fff"/>
			<stop offset=".3435" stop-color="#FDFDFD"/>
			<stop offset=".4814" stop-color="#F6F6F6"/>
			<stop offset=".5824" stop-color="#EAEAEA"/>
			<stop offset=".6654" stop-color="#D8D8D8"/>
			<stop offset=".7373" stop-color="#C2C2C2"/>
			<stop offset=".8016" stop-color="#A6A6A6"/>
			<stop offset=".8602" stop-color="#848484"/>
			<stop offset=".9126" stop-color="#5F5F5F"/>
			<stop offset=".9494" stop-color="#404040"/>
			<stop offset=".9566" stop-color="#404040"/>
			<stop offset="1" stop-color="#404040"/>
			<stop offset="1"/>
		</radialGradient>
		<path d="m203.76 506.85c0-167.4 135.7-303.11 303.1-303.11s303.12 135.71 303.12 303.11c0 167.4-135.72 303.11-303.12 303.11s-303.1-135.71-303.1-303.11z" fill="url(#b)"/>
			<radialGradient id="a" gradientUnits="userSpaceOnUse" cy="5.5596" cx="102.62" r="1202.1">
			<stop offset=".1685" stop-color="#fff"/>
			<stop offset=".1957" stop-color="#E0EFF7"/>
			<stop offset=".2406" stop-color="#B2D9EC"/>
			<stop offset=".2872" stop-color="#8BC5E2"/>
			<stop offset=".335" stop-color="#6BB5DA"/>
			<stop offset=".3844" stop-color="#52A9D4"/>
			<stop offset=".4359" stop-color="#41A0CF"/>
			<stop offset=".4911" stop-color="#369BCD"/>
			<stop offset=".5562" stop-color="#39c"/>
			<stop offset=".606" stop-color="#3396C8"/>
			<stop offset=".6553" stop-color="#328EBC"/>
			<stop offset=".7045" stop-color="#3180A8"/>
			<stop offset=".7536" stop-color="#2F6D8C"/>
			<stop offset=".8027" stop-color="#2D5468"/>
			<stop offset=".8512" stop-color="#2A373D"/>
			<stop offset=".8708" stop-color="#292929"/>
		</radialGradient>
		<path d="m203.28 506.85h303.58v-303.57c-167.67 0-303.58 135.9-303.58 303.57z" fill="url(#a)"/>
			<radialGradient id="n" gradientUnits="userSpaceOnUse" cy="5.5513" cx="102.62" r="1202">
			<stop offset=".1685" stop-color="#fff"/>
			<stop offset=".1957" stop-color="#E0EFF7"/>
			<stop offset=".2406" stop-color="#B2D9EC"/>
			<stop offset=".2872" stop-color="#8BC5E2"/>
			<stop offset=".335" stop-color="#6BB5DA"/>
			<stop offset=".3844" stop-color="#52A9D4"/>
			<stop offset=".4359" stop-color="#41A0CF"/>
			<stop offset=".4911" stop-color="#369BCD"/>
			<stop offset=".5562" stop-color="#39c"/>
			<stop offset=".606" stop-color="#3396C8"/>
			<stop offset=".6553" stop-color="#328EBC"/>
			<stop offset=".7045" stop-color="#3180A8"/>
			<stop offset=".7536" stop-color="#2F6D8C"/>
			<stop offset=".8027" stop-color="#2D5468"/>
			<stop offset=".8512" stop-color="#2A373D"/>
			<stop offset=".8708" stop-color="#292929"/>
		</radialGradient>
		<path d="m506.86 506.85v303.58c167.67 0 303.58-135.93 303.58-303.58h-303.58z" fill="url(#n)"/>
			<radialGradient id="m" gradientUnits="userSpaceOnUse" cy="205.95" cx="180.63" r="457.77">
			<stop offset="0" stop-color="#E6E6E6"/>
			<stop offset=".1045" stop-color="#D6D6D6"/>
			<stop offset=".3074" stop-color="#ADADAD"/>
			<stop offset=".5884" stop-color="#6C6C6C"/>
			<stop offset=".9335" stop-color="#121212"/>
			<stop offset="1"/>
		</radialGradient>
		<polygon fill="url(#m)" points="812.95 501.46 512.24 501.46 512.24 200.75 501.48 200.75 501.48 501.46 200.77 501.46 200.77 512.22 501.48 512.22 501.48 812.94 512.24 812.94 512.24 512.22 812.95 512.22"/>
		<linearGradient id="l" x1="446.84" gradientUnits="userSpaceOnUse" x2="893.25" y1="91.655" y2="523.04">
			<stop offset="0" stop-color="#F0F4FF"/>
			<stop offset=".1086" stop-color="#EBEFF9"/>
			<stop offset=".2475" stop-color="#DCE0EA"/>
			<stop offset=".4028" stop-color="#C4C7CF"/>
			<stop offset=".5701" stop-color="#A2A4AB"/>
			<stop offset=".7469" stop-color="#76777C"/>
			<stop offset=".9291" stop-color="#414243"/>
			<stop offset="1" stop-color="#2B2B2B"/>
		</linearGradient>
		<path d="m512.24 209.27c160.14 2.848 289.37 132.06 292.23 292.19h5.36c-2.863-163.1-134.48-294.74-297.59-297.58v5.39z" fill="url(#l)"/>
		<path d="m208.73 501.42c2.845-160.35 132.26-289.75 292.6-292.6v-5.383c-163.34 2.856-295.12 134.67-297.99 297.99h5.39z" fill="#C2D7E8"/>
		<linearGradient id="k" x1="84.488" gradientUnits="userSpaceOnUse" x2="530.91" y1="455.87" y2="887.27">
			<stop offset="0" stop-color="#F0F4FF"/>
			<stop offset=".1086" stop-color="#EBEFF9"/>
			<stop offset=".2475" stop-color="#DCE0EA"/>
			<stop offset=".4028" stop-color="#C4C7CF"/>
			<stop offset=".5701" stop-color="#A2A4AB"/>
			<stop offset=".7469" stop-color="#76777C"/>
			<stop offset=".9291" stop-color="#414243"/>
			<stop offset="1" stop-color="#2B2B2B"/>
		</linearGradient>
		<path d="m501.48 804.43c-160.14-2.844-289.36-132.07-292.21-292.21h-5.381c2.866 163.11 134.48 294.75 297.59 297.59v-5.38z" fill="url(#k)"/>
		<path d="m804.48 512.22c-2.866 160.14-132.09 289.36-292.23 292.21v5.386c163.11-2.844 294.75-134.48 297.59-297.59h-5.36z" fill="#12404F"/>
		<linearGradient id="j" x1="300.46" gradientUnits="userSpaceOnUse" x2="531.95" y1="302.04" y2="525.74">
			<stop offset="0" stop-color="#C2D7E8"/>
			<stop offset=".1337" stop-color="#BACFE1"/>
			<stop offset=".3425" stop-color="#A4BACD"/>
			<stop offset=".6001" stop-color="#8098AC"/>
			<stop offset=".894" stop-color="#4E697F"/>
			<stop offset="1" stop-color="#3A566D"/>
		</linearGradient>
		<polygon fill="url(#j)" points="495.72 203.43 495.72 495.55 203.61 495.55 203.61 501.32 495.72 501.32 501.48 501.32 501.48 495.55 501.48 203.43"/>
		<linearGradient id="i" x1="184.52" gradientUnits="userSpaceOnUse" x2="626.46" y1="356.85" y2="783.91">
			<stop offset="0" stop-color="#F0F4FF"/>
			<stop offset=".0973" stop-color="#E8EBF6"/>
			<stop offset=".2568" stop-color="#D1D4DD"/>
			<stop offset=".4587" stop-color="#ABAEB5"/>
			<stop offset=".6951" stop-color="#78797D"/>
			<stop offset=".9578" stop-color="#363637"/>
			<stop offset="1" stop-color="#2B2B2B"/>
		</linearGradient>
		<polygon fill="url(#i)" points="495.23 807 495.23 518.39 206.03 518.39 206.03 512.7 495.23 512.7 500.92 512.7 500.92 518.39 500.92 807"/>
		<linearGradient id="h" x1="510.26" gradientUnits="userSpaceOnUse" x2="665.27" y1="515.27" y2="665.07">
			<stop offset="0" stop-color="#D9DEF0"/>
			<stop offset=".1229" stop-color="#D4DAEC"/>
			<stop offset=".2629" stop-color="#C7CFE2"/>
			<stop offset=".4114" stop-color="#B0BCD1"/>
			<stop offset=".5657" stop-color="#90A1B8"/>
			<stop offset=".7246" stop-color="#677F99"/>
			<stop offset=".8849" stop-color="#355674"/>
			<stop offset=".9719" stop-color="#173D5D"/>
		</linearGradient>
		<polygon fill="url(#h)" points="518.41 807 518.41 518.39 807.01 518.39 807.01 512.7 518.41 512.7 512.74 512.7 512.74 518.39 512.74 807"/>
		<linearGradient id="g" x1="351.68" gradientUnits="userSpaceOnUse" x2="793.13" y1="194.78" y2="621.37">
			<stop offset="0" stop-color="#F0F4FF"/>
			<stop offset=".1086" stop-color="#EBEFF9"/>
			<stop offset=".2475" stop-color="#DCE0EA"/>
			<stop offset=".4028" stop-color="#C4C7CF"/>
			<stop offset=".5701" stop-color="#A2A4AB"/>
			<stop offset=".7469" stop-color="#76777C"/>
			<stop offset=".9291" stop-color="#414243"/>
			<stop offset="1" stop-color="#2B2B2B"/>
		</linearGradient>
		<polygon fill="url(#g)" points="518.41 206.01 518.41 494.61 807.01 494.61 807.01 500.3 518.41 500.3 512.74 500.3 512.74 494.61 512.74 206.01"/>
</svg>
