<?xml version="1.0" encoding="UTF-8" standalone="no"?>
<svg viewBox="-101.982 -101.457 300 300" height="300px" version="1.1" xmlns="http://www.w3.org/2000/svg" width="300px">
<path style="color:#000000" d="m300 150.55a149.45 149.45 0 1 1 -298.9 0 149.45 149.45 0 1 1 298.9 0z" transform="translate(-101.98 -101.46)" fill="#fff"/>
<path fill="#faaf18" d="m117.51-52.365c0.65075-1.6026-0.6745-3.1758-0.6745-3.1758s-10.41-17.71-47.243-21.639c-19.721-2.1014-46.569 1.8886-65.388 12.036-34.096 18.372-39.202 48.637-39.202 48.637-0.1919 0.741-0.5187 2.9972 0.24795 3.9596 0.7809 0.97945 1.9171 0.9614 3.3269 0.48545 12.034-4.065 47.9-15.959 70.534-21.966 32.211-8.5396 58.671-13.736 75.655-16.63 1.2056-0.20425 2.2876-0.59945 2.7426-1.7081"/>
<path fill="#185494" d="m154.29 90.273c-19.27 43.297-56.262 73.427-104.74 74.117-35.296 0.5-66.447-11.59-88.945-32.69-8.733-10.57-4.704-5.11-13.584-15.24-14.825-20-23.421-45.294-23.421-74.027 0-73.595 56.368-131.61 134.98-131.61 12.832 0 24.429 1.9969 33.173 3.9776-13.472-4.3111-26.858-6.6472-41.759-6.6472-84.371 0-141.15 68.413-141.15 138.97 0 76.884 60.315 141.28 139.48 141.28 75.615 0 116.41-53.311 129.46-85.373l-23.49-12.757"/>
<path fill="#faaf18" d="m-6.588 127.24c-0.7809 1.7993 1.0004 3.5844 1.0004 3.5844 7.637 9.5826 41.545 21.733 78.35 12.837 56.207-13.594 68.083-53.358 69.428-58.972 0.27645-1.1448 0.49495-2.9858-0.56715-4.0907-0.8911-0.92245-2.1574-0.93195-3.915-0.52535-39.038 9.177-104 29.006-141.45 45.054-1.6122 0.69065-2.3418 0.9443-2.8434 2.1128"/>
<path fill="#fff" d="m11.785-65.49c-20.664 9.1219-34.616 30.835-35.383 40.026-0.3021 3.6537 4.542 4.1781 4.998 0.2983 4.3605-16.766 17.706-32.573 30.385-40.325"/>
<path fill="#fff" d="m80.261-49.911c11.145-2.7341 17.266-3.1464 17.376-8.1254 0.1938-8.3372-23.592-18.004-45.372-16.254 22.191 1.483 35.502 10.026 35.576 15.98 0.0418 3.7658-3.2214 7.0889-7.58 8.399"/>
<path fill="#fff" d="m87.168 134.37c16.724-6.5778 32.795-19.142 41.686-37.963 2.566-5.4388-4.8536-8.2175-6.9483-1.8306-5.2041 13.381-15.899 29.092-34.738 39.794"/>
<path fill="#ee1d23" d="m171.39 77.823h2.2828c1.2407 0 2.8072 0.2261 2.8072 1.6938 0 1.6634-1.1438 1.8886-2.6724 1.8886h-2.4187v-3.5824m-2.7056 11.541h2.7066v-5.8349h1.6967l3.326 5.8349h2.8386l-3.6537-5.9641c2.0216-0.1691 3.5853-1.1438 3.5853-3.6528 0-2.9697-1.9247-4.0498-5.3447-4.0498h-5.1556v13.667h0.00094zm-7.6618-6.8162c0 7.4328 5.9004 12.229 12.519 12.229 6.6224 0 12.525-4.7966 12.525-12.229 0-7.4024-5.9024-12.166-12.525-12.166-6.6196 0.00095-12.519 4.7633-12.519 12.166zm3.325 0c0-5.5452 4.0708-9.556 9.1932-9.556 5.0597 0 9.1979 4.0109 9.1979 9.556 0 5.5794-4.1372 9.6206-9.1979 9.6206-5.1214 0-9.1932-4.0413-9.1932-9.6206z"/>
</svg>
