<?xml version="1.0" encoding="UTF-8" standalone="no"?>
<svg height="300px" xmlns="http://www.w3.org/2000/svg" y="0px" xmlns:rdf="http://www.w3.org/1999/02/22-rdf-syntax-ns#" enable-background="new -101.982 -101.457 300 300" xmlns:dc="http://purl.org/dc/elements/1.1/" xml:space="preserve" width="300px" viewBox="-101.982 -101.457 300 300" xmlns:cc="http://creativecommons.org/ns#" x="0px" version="1.1">
<path d="m300 150.55a149.45 149.45 0 1 1 -298.9 0 149.45 149.45 0 1 1 298.9 0z" fill="#fff" style="color:#000000;enable-background:accumulate" transform="translate(-101.98 -101.46)"/>
<metadata>
<rdf:RDF><cc:Work rdf:about=""><dc:format>image/svg+xml</dc:format><dc:type rdf:resource="http://purl.org/dc/dcmitype/StillImage"/></cc:Work></rdf:RDF></metadata>
<path fill="#faaf18" d="m117.51-52.365c0.65075-1.6026-0.6745-3.1758-0.6745-3.1758s-10.41-17.71-47.243-21.639c-19.721-2.1014-46.569 1.8886-65.388 12.036-34.096 18.372-39.202 48.637-39.202 48.637-0.1919 0.741-0.5187 2.9972 0.24795 3.9596 0.7809 0.97945 1.9171 0.9614 3.3269 0.48545 12.034-4.065 47.9-15.959 70.534-21.966 32.211-8.5396 58.671-13.736 75.655-16.63 1.2056-0.20425 2.2876-0.59945 2.7426-1.7081"/>
<path fill="#185494" d="m154.29 90.273c-19.27 43.297-56.262 73.427-104.74 74.117-35.296 0.5-66.447-11.59-88.945-32.69l-13.607 5.8216 0.0228-21.067c-14.825-20-23.421-45.294-23.421-74.027 0-73.595 56.368-131.61 134.98-131.61 12.832 0 24.429 1.9969 33.173 3.9776-13.472-4.3111-26.858-6.6472-41.759-6.6472-84.371 0-141.15 68.413-141.15 138.97 0 76.884 60.315 141.28 139.48 141.28 75.615 0 116.41-53.311 129.46-85.373l-23.49-12.757"/>
<path fill="#ed1d21" d="m134.72 75.061c11.095-1.2588 18.771-5.718 22.984-9.8544 3.8399-3.7724 4.7358-8.967 4.7414-12.826 0.15485-5.6696 0-23.561 0-23.561l-29.362 6.3526s-0.003 2.2135-0.0114 6.859c0.0542 4.5372 2.241 7.0072 6.9968 6.1322 1.4906-0.24415 3.7848-0.97565 3.7848-0.97565l0.0399 5.6069c-0.0256-0.16055 0.43415 3.1264-6.9654 4.5894-9.6834 1.52-14.084-4.4384-14.199-14.967 0.19095-11.284 6.5712-17.792 14.311-19.574 8.7077-1.9969 13.636 0.0779 16.533 0.51965 9.7252 1.4564 12.483-13.124 3.6366-16.544-6.5398-2.6344-15.024-3.1103-23.113-1.4953-10.8 2.1536-32.038 11.193-32.097 40.564 0.058 23.339 17.264 30.944 32.719 29.174"/>
<path fill="#ee1c23" d="m39.279 100.08s9.0088-3.0904 9.7878-3.364c7.2409-2.4985 9.879-6.8039 9.8468-14.256-0.0912-8.0912-0.1045-23.869-0.1045-23.869l20.948 24.133c3.4029 3.514 7.6674 3.8142 11.572 2.6686 4.0365-1.1818 7.3976-4.8726 7.4993-10.078 0.03325-17.43-0.0085-59.969-0.0085-59.969s-5.4131 1.1486-9.9066 2.4225c-5.1699 1.4649-9.1476 4.7614-9.1476 13.463 0 3.0808-0.0114 20.76-0.0114 20.76s-11.79-14.786-19.499-22.498c-4.122-4.1173-10.942-1.6596-10.942-1.6596l-10.051 3.0419 0.0171 69.199"/>
<path fill="#ed1c23" d="m32.937 32.436s-6.309 1.8506-11.443 3.704c-6.6662 2.4102-10.509 6.2672-10.509 16.358 0 9.2682-0.01615 57.506-0.01615 57.506s5.8396-1.9969 11.284-4.0508c7.7406-2.9184 10.661-6.8998 10.661-15.028 0-6.9854 0.0228-58.49 0.0228-58.49"/>
<path fill="#ee1d23" d="m1.6295 46.12c-5.7903-2.631-10.761 0.303-12.872 3.545l-17.798 30.272-0.03135-24.405-20.982 8.6916-0.06555 69.014 14.78-6.1959s2.9013-0.8227 4.6522-3.5739c1.6093-2.5346 1.5494-6.7858 1.5494-6.7858l0.01805-21.884 16.519 17.528c3.6271 3.7668 10.291 5.701 16.172 0.95095 5.3172-4.294 4.4935-11.615 1.5276-14.893l-15.049-15.142s13.243-20.872 15.408-24.359c2.8737-4.632 1.4278-10.369-3.8295-12.757"/>
<path fill="#faaf18" d="m-6.588 127.24c-0.7809 1.7993 1.0004 3.5844 1.0004 3.5844 7.637 9.5826 41.545 21.733 78.35 12.837 56.207-13.594 68.083-53.358 69.428-58.972 0.27645-1.1448 0.49495-2.9858-0.56715-4.0907-0.8911-0.92245-2.1574-0.93195-3.915-0.52535-39.038 9.177-104 29.006-141.45 45.054-1.6122 0.69065-2.3418 0.9443-2.8434 2.1128"/>
<path fill="#ee1c23" d="m-39.923 36.795c-0.0513-3.8038-3.0086-5.8796-8.1187-3.3146l-0.01045 12.228s1.652-0.7315 2.8642-1.2958c2.9878-1.386 5.3352-3.8788 5.2649-7.618m-8.2194-11.053c0.9101-0.3553 1.5789-0.65455 2.3427-1.027 2.7683-1.348 4.7386-3.8484 4.7614-7.086 0.0285-3.687-3.0077-4.6398-7.0984-2.5251l-0.0057 10.638zm21.632 9.3062c0.16625 9.651-6.7858 14.786-15.842 18.538l-18.552 7.8812-0.04275-50.26s11.688-4.7652 15.501-6.1522c10.84-3.9444 17.213 0.81035 17.213 8.0512 0 4.8317-2.0682 8.9386-6.5569 12.548 4.4204 0.7372 8.1947 4.3681 8.2792 9.3936z"/>
<path fill="#ed1d1f" d="m8.707-7.373c0-4.2332-2.9117-5.359-6.4334-4.3453-2.8472 0.8151-6.1636 2.11-6.1636 2.11l-0.0228 31.246c-0.0342 3.1122-0.51585 7.0082-4.3501 7.9734-2.9431 0.74195-4.3348-1.2217-4.3377-4.3282l-0.0418-25.575c0-4.255-2.9602-5.529-6.4705-4.3643-3.9463 1.3176-6.3175 2.2667-6.3175 2.2667s0.0456 22.126-0.0085 30.975c-0.05035 10.372 7.1012 15.551 18.002 12.331 9.6156-2.843 16.037-8.224 16.158-22.038l-0.01425-26.251"/>
<path fill="#ee1c23" d="m111.81 5.5403c2.7702-0.59755 4.4982-2.5564 4.4982-5.9413 0-3.0495 0.0114-5.3684 0.0114-5.3684l-15.048 3.288 0.0275-8.853s7.3758-1.5637 9.424-2.0102c2.5736-0.5643 3.9216-1.9674 3.9216-4.9086 0-2.7436-0.0171-5.1176-0.0171-5.1176l-13.333 2.8291-0.003-7.0196s6.9312-1.4468 10.667-2.2316c2.9098-0.6118 3.8703-2.6049 3.8703-5.3476 0-1.786 0.0286-5.321 0.0286-5.321-6.651 1.1742-19.294 3.7002-27.178 5.5062l-0.10743 45.817s14.992-3.5312 23.238-5.321"/>
<path fill="#ee1d23" d="m24.852 3.6897c0.01045-0.00855 7.4442-3.8485 7.3625-9.9398-0.072-5.2089-4.87-4.0689-7.359-3.1559l-0.003 13.096m0.019 7.068s-0.0247 8.7742-0.03705 12.315c-0.0304 3.3193-2.2971 5.7162-5.1661 6.8124v0c-2.3988 0.8227-7.4964 2.5774-7.4964 2.5774l0.021-47.18s10.526-3.667 16.716-5.1053c9.6188-2.2372 16.46 2.1394 16.336 9.9094-0.05985 7.3976-4.1866 11.886-7.8935 14.96l8.1462 7.8214c2.5032 2.4254 2.678 6.8096-0.13775 9.4592-1.6692 1.5684-6.1342 3.1939-9.6302-0.36385l-10.857-11.204z"/>
<path fill="#ee1d23" d="m131.38-21.686c0.0152 0 7.3435-2.7911 7.2599-8.6668-0.076-4.9694-4.9694-4.0698-7.2789-3.554l0.019 12.221m-12.3 25.853l0.0199-45.239s13.209-2.3351 16.62-2.774c9.4696-1.216 15.823 4.0394 15.693 11.505-0.0504 6.5654-4.1752 10.516-7.6808 12.887 0 0 6.441 7.257 8.1672 9.177 2.319 2.5878 2.2154 7.012-1.215 9.1789-3.3716 2.1261-6.7118 1.0136-8.6507-1.1276l-10.63-12.471s0.0342 7.6703 0.0257 11.019c-0.0314 3.3335-1.9598 5.7636-5.4178 6.479l-6.93 1.3656z"/>
<path fill="#ee1d23" d="m85.609-14.821-18.738 4.255s-0.0228 1.9798-0.02565 5.2117c0.02565 2.4234 1.7252 3.9966 4.1705 3.4932 1.5418-0.32015 2.7759-0.6061 2.7759-0.6061l0.0285 5.2041c0.01995 2.0586-3.0694 3.4067-6.2776 3.3326-4.4954-0.11685-6.9882-3.61-7.0528-10.257 0.13965-8.74 4.2512-13.871 9.8515-15.304 2.7968-0.7201 5.3418-0.36955 7.3188-0.11305 4.8279 0.77995 7.6076-1.5476 7.7064-5.5376 0.1007-4.2731-3.6898-6.916-11.826-6.6338-17.641 0.60895-26.662 13.284-26.662 28.411 0 15.492 10.12 22.334 22.473 20.102 6.9806-1.4079 10.453-3.6746 12.859-5.7846 2.4054-2.11 3.3972-5.2658 3.3972-7.961v-17.812"/>
<path fill="#fff" d="m11.785-65.49c-20.664 9.1219-34.616 30.835-35.383 40.026-0.3021 3.6537 4.542 4.1781 4.998 0.2983 4.3605-16.766 17.706-32.573 30.385-40.325"/>
<path fill="#fff" d="m80.261-49.911c11.145-2.7341 17.266-3.1464 17.376-8.1254 0.1938-8.3372-23.592-18.004-45.372-16.254 22.191 1.483 35.502 10.026 35.576 15.98 0.0418 3.7658-3.2214 7.0889-7.58 8.399"/>
<path fill="#fff" d="m87.168 134.37c16.724-6.5778 32.795-19.142 41.686-37.963 2.566-5.4388-4.8536-8.2175-6.9483-1.8306-5.2041 13.381-15.899 29.092-34.738 39.794"/>
<path fill="#ee1d23" d="m171.39 77.823h2.2828c1.2407 0 2.8072 0.2261 2.8072 1.6938 0 1.6634-1.1438 1.8886-2.6724 1.8886h-2.4187v-3.5824m-2.7056 11.541h2.7066v-5.8349h1.6967l3.326 5.8349h2.8386l-3.6537-5.9641c2.0216-0.1691 3.5853-1.1438 3.5853-3.6528 0-2.9697-1.9247-4.0498-5.3447-4.0498h-5.1556v13.667h0.00094zm-7.6618-6.8162c0 7.4328 5.9004 12.229 12.519 12.229 6.6224 0 12.525-4.7966 12.525-12.229 0-7.4024-5.9024-12.166-12.525-12.166-6.6196 0.00095-12.519 4.7633-12.519 12.166zm3.325 0c0-5.5452 4.0708-9.556 9.1932-9.556 5.0597 0 9.1979 4.0109 9.1979 9.556 0 5.5794-4.1372 9.6206-9.1979 9.6206-5.1214 0-9.1932-4.0413-9.1932-9.6206z"/>
</svg>
