<?xml version="1.0" encoding="UTF-8" standalone="no"?>
<svg xmlns:rdf="http://www.w3.org/1999/02/22-rdf-syntax-ns#" xmlns="http://www.w3.org/2000/svg" xmlns:dc="http://purl.org/dc/elements/1.1/" xml:space="preserve" overflow="visible" viewBox="0 0 299.398 143.928" height="143.93" xmlns:cc="http://web.resource.org/cc/" width="299.4" version="1.1" enable-background="new 0 0 299.398 143.928"><metadata><rdf:RDF><cc:Work rdf:about=""><dc:format>image/svg+xml</dc:format><dc:type rdf:resource="http://purl.org/dc/dcmitype/StillImage"/></cc:Work></rdf:RDF></metadata>
	<path fill-rule="evenodd" d="m193.31 52.304c-1.4-1.871-1.64-5.18-4.49-5.474-2.77-0.747-5.52-1.544-8.31-2.191-5.47 0.89-10.93 1.78-16.4 2.67l-1.92 8.838c8.84 1.153 17.67 2.305 26.51 3.458 2.31 1.537 4.61 3.074 6.92 4.612 6.02 0.64 12.04 1.28 18.06 1.921 2.82-1.025 5.64-2.05 8.45-3.074-8.76-2.828-17.73-5.081-26.25-8.602-1.04-0.482-1.77-1.364-2.57-2.158z" fill="#db0026" style="color:black"/><g fill="#004526" transform="matrix(0.987 0 0 0.987 1.9467 .93582)">
		<path fill="#004526" d="m226.53 62.559c-0.6-0.782-1.57-1.095-2.24-1.395-0.65-0.309-0.56-0.947-1.11-1.132-0.56-0.18-1.54 0.961-2.3 0.724-0.76-0.249-0.7-1.669-1.34-1.879-0.64-0.205-1.78 0.86-2.37 0.671-0.59-0.173-0.71-1.665-1.28-1.855-0.57-0.173-1.77 0.888-2.36 0.706-0.59-0.199-0.63-1.652-1.29-1.868-0.65-0.2-1.8 0.886-2.37 0.69-0.59-0.182-0.65-1.632-1.27-1.843-0.63-0.201-1.8 0.864-2.38 0.672-0.6-0.194-0.76-1.684-1.31-1.864-0.56-0.171-1.66 0.708-2.55 0.657-6.16-0.575-8.52-4.456-8.94-3.308-0.42 1.125 1.28 3.862 3.42 4.786 1.7 0.74 20.07 5.827 20.56 6.054 0.46 0.232 1.63 0.749 1.21 1.419-0.64 0.857-2.43 0.009-2.89-0.369-0.46-0.384-0.36-0.524-0.79-0.64-0.98-0.234-1.53 1.561-2.57 1.321-0.95-0.213-0.88-2.118-1.85-2.34-1.06-0.258-1.54 1.548-2.55 1.312-0.84-0.189-0.95-2.129-1.85-2.346-1.04-0.25-1.51 1.56-2.58 1.309-0.93-0.217-0.88-2.109-1.85-2.342-0.96-0.229-1.64 1.525-2.55 1.318-0.92-0.213-1.05-2.146-1.87-2.339-0.83-0.185-1.49 0.798-2.61 0.944 0 0-3.21 0.869-8.29-4.44-5.1-5.298-7.18-6.328-10.08-4.169-4.74 3.524-7.67 1.194-8.53 0.146-1.03-1.201 0.05-2.305 0.05-2.305s1.5 2.32 3.39 2.362c3.05 0.091 5.35-4.069 10.57-4.143 6.62-0.238 8.35 2.113 10.16 2.3 1.67 0.164 2.23-0.106 3.39-0.779h-0.01c0.94-0.334 1.76 1.479 2.74 1.113 1.04-0.392 0.28-2.219 1.4-2.64 1.04-0.374 1.73 1.462 2.73 1.089 1.05-0.384 0.38-2.262 1.39-2.628 1.04-0.376 1.65 1.479 2.73 1.083 1.09-0.386 0.39-2.245 1.37-2.619 1.02-0.372 1.76 1.454 2.76 1.098 0.95-0.339 0.41-2.283 1.39-2.637 1.03-0.368 1.69 1.464 2.78 1.063 0.9-0.313 0.4-2.259 1.33-2.612 0.93-0.347 1.8 1.457 2.77 1.095 0.9-0.335 0.37-2.269 1.34-2.631 1.02-0.369 1.81 1.435 2.78 1.095 0.95-0.344 0.23-1.904 1.48-2.524 0 0 1.73-0.568 1.62-1.836-0.02-0.213-0.37-2.924-3.22-3.499-2.74-0.55-24.35 5.428-24.63 5.083-1.99-3.93-4.54-2.838-4.93-2.75-0.39 0.1-2.81 1.127-5.48 0.1-5.25-2.375-9.44 3.666-12.31 2.871-2.65-0.744-4.67-0.315-5.78 0.063-1.02 0.352-2.67 1.675-6.16 0.474-26.98-9.214-48.08-1.159-48.08-1.159-11.89 3.973-13.41 0-13.41 0s-3.912-5.316 23.64-11.657c39.61-9.098 40.8-24.154 40.33-25.106-0.65-1.381-0.89 0.246-2.2 1.743-1.09 1.244-2.36 0.629-2.36 0.629-1.25-0.598-2.05 0.825-2.05 0.825s-1.6 2.488-3.02 1.073c-1.36-1.362-3.17 1.712-3.85 1.834-0.8 0.143-1.2-0.252-2.29-0.751-1.62-0.719-3.37 2.245-4.26 2.455-1.37 0.313-2.33-1.613-3.51-0.8-3.52 2.43-4.07 2.768-5.02 1.822-0.7-0.715-0.8-1.491-3.16 0.76-2 1.919-2.95 2.278-3.76 1.058-0.82-1.228-0.61-2.904-4.05 0.395-1.64 1.576-2.48 1.606-3.42 0.898-0.71-0.532-0.7-3.069-3.17-0.772-2.23 2.068-3.86 2.974-4.49 1.138-0.7-2.063-3.33 0.38-3.94 0.955-0.63 0.575-1.99 2.096-2.94 0.526-0.95-1.579-3.22 0.778-4.57 2.274-1.04 1.162-1.88 0.265-2.98-0.472-1.252-0.857-4.993 4.365-5.332 4.678-0.342 0.297-0.603 0-1.46-0.727-1.317-1.116-4.87 5.088-5.445 5.493 0 0-0.243 0.535-1.212-0.39-1.379-1.311-8.696 8.322-11.458 19.221-3.533 13.972 2.096 24.686 2.096 24.686s1.691 0.052 2.411-1.091l1.096-2.47c0.888-2.059 2.344-1.411 2.344-1.411l-3.45 10.272c-0.545 1.353-0.216 3.267 0.99 5.076 1.136 1.818 1.919 3.047 2.83 3.892 2.801 2.638 2.515-0.482 2.588-0.872 0.328-1.67 2.177-0.387 3.63 0.413 2.635 1.479 2.342-1.787 2.92-2.852 0.401-0.763 1.697-0.797 3.103 0.381 1.095 0.915 2.183-2.185 2.183-2.185 1.366-6.605-1.843-7.369-3.579-7.466l-3.514-0.161s0.231-1.005 0.597-1.946l0.157-0.667c3.832-9.549-2.572-11.392-4.488-11.24-2.114 0.189-1.966-1.158-1.966-1.158s11.575-2.279 9.417 9.996c0 0-0.426 2.138-0.682 3.253l3.181 0.371c2.733 0.342 3.223 3.58 3.223 3.58s10.07 2.661 15.78 1.597c0 0 2.55-0.608 3.26-2.196 0 0 3.7-8.713 14.49-9.081 0 0 0.38 1.128-1.34 1.715-2.07 0.697-8.96 1.244-10.39 9.16v0.031c-0.16 1.299 0.19 4.065 3.01 5.346 2.4 1.083 3.24 5.454 3.74 6.634 1.4 3.351 3.49 0.148 3.49 0.148s1.33-2.704 2.47-1.204c1.92 2.53 2.81 1.255 3.25-0.356 0.48-1.739 1.17-2.497 3.19-0.383 0.86 0.918 2.54 0.209 2.71-1.362 0.36-3.458 2.69-0.708 3.03-0.575 0.4 0.152 2.84-0.398 1.47-4.298 0 0-1.84-3.716-10.18-5.319-1.96-0.371-1.64-1.787-1.64-1.787l1.83 0.258c0.55 0.089 5.4 0.627 5.91 0.709 20.34 2.007 35.77-4.891 36.23-5.383 15.8 3.027 37.28 1.995 41.31 0.542 4.05-1.428 4.35-3.795 3.89-4.426zm-32.62-25.207c0.33-0.532 0.64-0.833 0.93-0.978 1.23-0.697 2.01 1.485 1.86 1.565-0.01 0.004-0.04 0.013-0.05 0.018v0.014c-0.19 0.093-2.56 0.764-2.79 0.61-0.47-0.325 0.05-1.229 0.05-1.229zm-8.98 0.69s0.31-0.385 0.9-0.581c0.58-0.212 1.46-0.248 2.63 0.504 1.34 0.853 1.31 1.519 1.31 1.519-0.05 0.022-0.11 0.044-0.17 0.068-0.98 0.376-4.97 0.866-4.97 0.866-0.77-1.43 0.3-2.376 0.3-2.376zm-74.45-19.315c0.67 0.517 0.03 3.494-0.45 3.055l-3.44-1.823s3.21-1.734 3.89-1.232zm-5.6 1.901c0.68 0.505 0.04 3.489-0.44 3.045l-3.44-1.827s3.2-1.735 3.88-1.218zm-1.94 5.821c0.68 0.509 0.04 3.498-0.45 3.066l-3.439-1.849s3.199-1.722 3.889-1.217zm-3.283 7.816l-3.447-1.831s3.206-1.737 3.89-1.226c0.68 0.509 0.03 3.496-0.443 3.057zm-0.649 5.895l-3.437-1.831s3.199-1.729 3.881-1.229c0.678 0.504 0.046 3.479-0.444 3.06zm-0.063-17.457c0.684 0.508 0.039 3.479-0.442 3.056l-3.449-1.837c0.001 0 3.212-1.734 3.891-1.219zm-2.99 4.538c0.675 0.507 0.036 3.479-0.44 3.056l-3.442-1.831c-0.001 0 3.201-1.74 3.882-1.225zm-6.144 7.12s3.212-1.743 3.884-1.227c0.685 0.505 0.04 3.482-0.441 3.051l-3.443-1.824zm2.639 7.457l-3.436-1.838s3.205-1.724 3.881-1.215c0.684 0.506 0.043 3.481-0.445 3.053zm-2.45-12.51c0.678 0.496 0.037 3.479-0.444 3.048l-3.431-1.837s3.187-1.724 3.875-1.211zm-3.097 6.004c0.682 0.505 0.043 3.5-0.449 3.059l-3.435-1.828c0.001 0 3.204-1.721 3.884-1.231zm-4.525 7.113s3.203-1.722 3.882-1.215c0.687 0.502 0.033 3.488-0.439 3.055l-3.443-1.84zm6.141 6.728l-3.439-1.833s3.205-1.736 3.886-1.227c0.681 0.511 0.031 3.486-0.447 3.06zm4.933 3.996l-3.44-1.825s3.207-1.736 3.887-1.232c0.675 0.5 0.024 3.498-0.447 3.057zm1.542-6.238l-3.442-1.839s3.206-1.722 3.886-1.229c0.681 0.51 0.036 3.487-0.444 3.068zm4.576 8.93l-3.434-1.83s3.187-1.732 3.874-1.224c0.68 0.511 0.05 3.474-0.44 3.054zm1.65-5.746l-3.435-1.83s3.195-1.722 3.875-1.214c0.68 0.501 0.05 3.483-0.44 3.044zm1.14-5.431l-3.437-1.834s3.197-1.722 3.887-1.216c0.68 0.512 0.03 3.478-0.45 3.05zm4.84 10.483l-3.44-1.842s3.2-1.719 3.88-1.22c0.69 0.507 0.04 3.497-0.44 3.062zm1.48-5.721l-3.43-1.827s3.2-1.741 3.89-1.226c0.66 0.492 0.02 3.48-0.46 3.053zm1.25-6.061l-3.44-1.832s3.21-1.717 3.89-1.219c0.68 0.509 0.03 3.483-0.45 3.051zm4.83 10.709l-3.45-1.831s3.21-1.734 3.9-1.229c0.67 0.521 0.02 3.501-0.45 3.06zm1.16-6.12l-3.44-1.84s3.21-1.727 3.88-1.225c0.69 0.514 0.04 3.479-0.44 3.065zm1.2-6.283l-3.44-1.834s3.2-1.725 3.88-1.223c0.68 0.52 0.04 3.489-0.44 3.057zm5.17 9.984l-3.44-1.815s3.21-1.733 3.88-1.229c0.69 0.505 0.04 3.479-0.44 3.044zm0.94-6.028l-3.44-1.822s3.2-1.73 3.87-1.231c0.7 0.511 0.05 3.501-0.43 3.053zm1.2-5.908l-3.45-1.821s3.21-1.741 3.88-1.239c0.68 0.514 0.04 3.501-0.43 3.06zm5.27 10.662l-3.44-1.834s3.19-1.733 3.88-1.226c0.69 0.512 0.04 3.483-0.44 3.06zm0.93-5.628l-3.44-1.826s3.21-1.745 3.89-1.225c0.68 0.492 0.03 3.486-0.45 3.051zm1.14-6.004l-3.45-1.828s3.21-1.749 3.89-1.228c0.68 0.51 0.05 3.481-0.44 3.056zm4.76 11.738l-3.43-1.831s3.2-1.739 3.88-1.22c0.68 0.501 0.04 3.478-0.45 3.051zm1.14-6.043l-3.45-1.827s3.21-1.743 3.89-1.226c0.68 0.511 0.03 3.483-0.44 3.053zm1.29-6.015l-3.44-1.828s3.2-1.743 3.88-1.224c0.69 0.504 0.04 3.487-0.44 3.052zm4.74 12.058l-3.44-1.84s3.2-1.729 3.88-1.21c0.68 0.5 0.05 3.477-0.44 3.05zm1.1-5.708l-3.43-1.837s3.2-1.715 3.88-1.226c0.68 0.513 0.04 3.498-0.45 3.063zm1.31-5.841l-3.43-1.829s3.2-1.727 3.88-1.228c0.67 0.507 0.03 3.488-0.45 3.057zm4.33 12.411l-3.44-1.85s3.21-1.715 3.89-1.204c0.68 0.496 0.04 3.48-0.45 3.054zm1.22-5.535l-3.44-1.825s3.21-1.73 3.88-1.224c0.69 0.516 0.03 3.488-0.44 3.049zm1.31-5.654l-3.45-1.822s3.21-1.733 3.9-1.238c0.68 0.504 0.02 3.479-0.45 3.06zm5.37 6.848l-3.44-1.812s3.2-1.737 3.89-1.239c0.67 0.512 0.03 3.489-0.45 3.051z"/>
	</g>
	<g transform="matrix(0.987 0 0 0.987 1.9467 .93582)">
		<path d="m67.926 99.146c-0.718-1.907-2.083-2.729-4.583-2.767-0.228-0.007-11.794 0.011-11.794 0.011l-17.119 46.61h8.333c0.718 0.06 1.386-0.06 1.986-0.33 1.622-0.74 2.417-2.62 2.648-3.26 0 0.02 2.329-6.49 2.489-6.92h17.223c0.36 1.09 3.499 10.49 3.499 10.49h11.278l-7.154-22.68-6.806-21.154m-3.473 23.774h-11.605c1.252-3.43 4.368-12.1 5.699-15.61 1.15 3.54 5.876 15.49 5.906 15.61z"/>
		<path d="m149.08 96.017h-0.01c-13.34 0.018-23.01 10.033-23.01 23.803 0 13.49 9.89 23.66 23.02 23.66s23.42-10.38 23.42-23.66c0-13.35-10.29-23.803-23.42-23.803m0.33 37.063c-6.8 0-12.13-5.88-12.13-13.39 0-7.44 5.22-13.05 12.13-13.05 6.85 0 11.83 5.48 11.83 13.05 0 7.64-5.09 13.39-11.83 13.39z"/>
		<path d="m202.68 115.64l-0.44-0.13c0.01 0-4.34-1.32-4.35-1.33l-0.65-0.23c-3.55-1.29-6.08-2.36-6.08-4.43v-0.15c0.36-3.44 6.73-3.47 6.79-3.47 3.52 0 6.22 0.53 9.64 1.91l0.08 0.03 0.14 0.04c0.79 0.16 1.49 0.18 2.05 0.06l0.94-0.36c1.36-0.75 2.72-4.71 3.24-6.38l0.16-0.54-0.42-0.38c-0.16-0.16-1.16-0.98-4.78-2.333-3.69-1.381-8.91-1.597-8.91-1.597l-2.58-0.011c-13.46 0-18.6 8.301-18.76 13.881-0.11 5.56 3.05 8.42 7.83 11.02 2 1.1 5.66 2.12 8.31 2.86-0.02-0.01 2.74 0.81 2.74 0.81 5.01 1.57 6.93 3.32 6.57 6.04-0.16 0.89-1.85 2.38-5.7 2.38-2.93 0-5.58-0.45-8.33-1.41-1.32-0.53-2.69-1.21-4.14-2.07l-0.07-0.04-0.15-0.07c-0.8-0.29-1.51-0.42-2.13-0.37l-1.06 0.23c-1.54 0.58-3.69 4.5-4.55 6.16l-0.34 0.66 0.59 0.46c0.1 0.07 2.49 1.97 4.52 3.16 2.39 1.32 5.08 2.28 8.25 2.93 1.28 0.23 3.31 0.52 6.49 0.52 10.43 0 18-5.28 18.87-13.15 0.38-7.13-4-11.79-13.77-14.7z"/>
		<path d="m224.97 96.447c-0.43-0.007-2.71 0.038-4.01 1.248-0.61 0.553-0.92 1.292-0.92 2.125l-0.01 7.38s12.58-0.02 14.23-0.02v35.84l11.66-0.01v-35.83h9.15c0.43 0 2.71-0.05 4.02-1.25 0.59-0.57 0.92-1.29 0.92-2.13v-7.353h-35.04z"/>
		<path d="m25.044 132.47h-13.084c0-1.72-0.037-31.77-0.037-31.77 0-1.32-0.394-2.367-1.188-3.099-1.268-1.19-3.155-1.184-3.859-1.169l-6.876-0.015 0.018 46.583h29.168l0.022-7.4c0-0.95-0.405-3.13-4.164-3.13z"/>
		<path d="m108.44 106.35c2.83-0.19 5.21 0 7.45 0.61 1.21 0.41 2.3 0.49 3.22 0.23 0-0.01 0.93-0.42 0.93-0.42 1.3-0.8 2.24-4.9 2.68-7.256l0.1-0.553-0.48-0.342c-0.12-0.087-0.49-0.346-4.71-1.486-3.85-1.037-7.27-1.164-8.96-1.152l-0.19 0.002c-9.648 0-24.185 6.377-24.602 23.917v0.1c0.417 17.55 14.955 23.92 24.612 23.92l0.18 0.01c1.69 0.01 5.11-0.13 8.96-1.17 4.23-1.13 4.59-1.39 4.72-1.48l0.47-0.33-0.1-0.56c-0.44-2.37-1.38-6.46-2.68-7.27l-0.93-0.41c-0.92-0.25-2.01-0.17-3.23 0.24-2.24 0.6-4.61 0.79-7.47 0.6-7.31-0.71-11.703-5.69-12.034-13.64 0.33-7.88 4.724-12.85 12.064-13.56z"/>
		<path d="m294.54 142.98c1.8-0.04 4.86-1.1 4.86-4.68l-0.04-5.84h-20.54s0.04-6.7 0.04-7.8h16.95l-0.03-10.78s-15.22 0.02-16.89 0.02c-0.01-1.28 0-5.42 0-6.7 1.68 0 15.56-0.02 15.56-0.02 0.43 0 2.75 0.01 4.01-1.25 0.88-0.88 0.92-2.49 0.92-3.32v-6.154h-32.31l0.01 46.564 27.46-0.04z"/>
	</g>
</svg>
