<?xml version="1.0" encoding="UTF-8" standalone="no"?>
<svg xmlns:rdf="http://www.w3.org/1999/02/22-rdf-syntax-ns#" xmlns:dc="http://purl.org/dc/elements/1.1/" xmlns="http://www.w3.org/2000/svg" viewBox="0 0 68.695 68.695" xmlns:cc="http://creativecommons.org/ns#" version="1.0">
<metadata>
<rdf:RDF>
<cc:Work rdf:about="">
<dc:format>image/svg+xml</dc:format>
<dc:type rdf:resource="http://purl.org/dc/dcmitype/StillImage"/>
</cc:Work>
</rdf:RDF>
</metadata>
<g stroke-width="0" transform="translate(-402.09 -343.01)">
<path fill="#a81612" d="m466.12 377.36c0 16.39-13.3 29.69-29.69 29.69s-29.69-13.3-29.69-29.69 13.3-29.69 29.69-29.69 29.69 13.3 29.69 29.69z"/>
<path fill="#fff" d="m454.43 377.36c0 9.93-8.06 18-18 18-9.93 0-17.99-8.07-17.99-18s8.06-18 17.99-18c9.94 0 18 8.07 18 18z"/>
<path fill="#451400" d="m453.1 377.36c0 9.2-7.47 16.66-16.67 16.66s-16.66-7.46-16.66-16.66 7.46-16.66 16.66-16.66 16.67 7.46 16.67 16.66z"/>
<path d="m60.655 398.74c0 8.4997-6.8904 15.39-15.39 15.39-8.4997 0-15.39-6.8904-15.39-15.39 0-8.4997 6.8904-15.39 15.39-15.39 8.4997 0 15.39 6.8904 15.39 15.39z" fill="#fff" transform="matrix(.045199 0 0 .045199 410.75 359.69)"/>
<path d="m60.655 398.74c0 8.4997-6.8904 15.39-15.39 15.39-8.4997 0-15.39-6.8904-15.39-15.39 0-8.4997 6.8904-15.39 15.39-15.39 8.4997 0 15.39 6.8904 15.39 15.39z" fill="#fff" transform="matrix(.045199 0 0 .045199 458.31 359.69)"/>
<path fill="#fff" fill-rule="evenodd" d="m432.94 384.31c0.01-0.17-0.2-0.6-0.35-0.75-0.12-0.11-0.26-0.35-0.35-0.54-0.16-0.31-0.39-0.55-0.51-0.86-0.15-0.58-0.42-1.23-0.71-1.88-0.02-0.36-0.19-0.74-0.23-1.09-0.03-0.25-0.04-0.49-0.04-0.75 0-0.24 0.04-0.52 0.04-0.78v-1.05c0-0.33 0.16-0.61 0.16-0.94 0-0.23 0.38-0.54 0.46-0.7 0.95-0.19 1.68-0.49 2.66-0.59 1.3 0.04 1.37 0.17 2.03 0.23 0.61 0.12 0.89 0.49 1.37 0.79 0.24 0.11-0.1 0.49-0.15 0.7-0.03 0.19-0.17 0.36-0.24 0.53-0.26 0.55-0.63 1.01-0.78 1.62-0.24 0.51-0.35 0.64-0.59 1.29-0.08 0.17-0.18 0.47-0.27 0.65-0.1 0.2-0.05 0.98 0 1.19 0.07 0.27 0.05 0.55 0.16 0.82 0.03 0.07 0.05 0.15 0.07 0.23 0.05 0.2 0.11 0.39 0.16 0.58 0.21 0.7 0.46 1.33 0.7 1.88 0.18 0.41 0.42 0.55-0.08 0.43-0.22-0.06-0.2-0.12-0.31-0.23-0.12-0.12-0.28-0.2-0.43-0.31-0.15-0.12-0.23-0.28-0.35-0.4-0.23-0.22-0.28-0.47-0.54-0.74-0.15-0.77-0.75-1.55-1.14-2.34-0.15-0.31-0.36-0.57-0.51-0.86-0.11-0.22-0.25-0.37-0.31-0.59-0.08-0.32-0.04-0.8-0.04-1.17-0.07-0.62-0.12-1.04 0.08-1.6 0.04-0.8 0.64-0.63 1.17-0.59 0.35 0 0.51-0.02 0.75 0.16 0.53 0.4 0.27 0.34 0.27 0.93 0 0.28-0.06 0.55-0.2 0.79-0.16 0.26-0.28 0.59-0.43 0.9-0.02 0.04-0.04-0.44-0.04-0.55 0-0.3-0.24-0.48-0.46-0.43-0.35 0.07-0.37 0.23-0.51 0.58-0.09 0.22 0.07 0.61 0.11 0.83 0.12 0.54 0.54 0.96 1.06 0.74 0.16-0.16 0.31-0.38 0.31-0.59 0-0.27 0.17-0.56 0.28-0.82 0.12-0.31 0.26-0.67 0.43-0.94 0.17-0.5 0.49-0.99 0.19-1.6-0.2-0.47-0.41-0.84-0.9-0.98-0.18-0.03-0.83-0.03-1.01 0-0.62 0.02-1.12 0.22-1.72 0.35-0.2 0.05-0.19 0.31-0.24 0.51-0.07 0.28-0.08 0.58-0.15 0.86-0.09 0.35 0.05 0.81-0.08 1.14-0.1 0.24-0.09 0.83 0.04 1.09 0.15 0.31 0.21 0.68 0.43 0.98 0.38 0.51 0.47 1.08 0.86 1.56 0.26 0.34 0.32 0.62 0.5 0.98 0.03 0.05 0.06 0.1 0.08 0.15 0.21 0.42 0.66 0.92 0.86 1.33 0.15 0.29 0.45 0.62 0.67 0.78 0.24 0.19 0.43 0.43 0.62 0.67 1.24 0.8 2.11 0.92 2.54 0.55 0.21-0.21-0.23-0.54-0.31-0.59-0.36-0.34-0.63-0.86-0.82-1.45-0.11-0.41-0.32-0.83-0.51-1.21-0.2-0.61-0.4-1.22-0.43-1.87 0-0.35-0.03-0.61 0.04-0.94 0.08-0.78 0.81-1.48 0.94-2.07 0.19-0.25 0.31-0.45 0.39-0.75 0.56-0.48 1.01-1.33 1.26-2.11 0.05-0.21-0.28-0.47-0.36-0.62-0.08-0.16-0.38-0.38-0.55-0.55-0.16-0.16-0.2-0.36-0.35-0.51-0.16-0.15-0.44-0.36-0.63-0.27-0.22 0.11-0.27 0.35-0.54 0.35h-0.67c-0.37 0-0.77-0.12-1.13-0.19-0.26-0.06-0.79-0.2-1.02-0.32-0.2-0.1-0.52-0.01-0.78 0.04-1.3 0.29-2.66-0.21-2.73 1.37-0.12 0.66-0.31 1.25-0.35 1.91-0.05 0.89 0.02 1.85-0.01 2.74 0 0.36 0.07 0.66 0.2 0.98 0.17 0.43 0.45 0.81 0.62 1.25 0.7 1.03 1.33 1.82 1.92 2.46 0.21 0.16 0.04-0.2 0.43 0.2z"/>
<path fill="#fff" fill-rule="evenodd" d="m434.72 371.69l-1.86-1.53c-0.07 0.01-0.14 0.02-0.21 0.04-0.66 0.17-1.93 0.05-2.48 0.41-0.9 0.52-1.49 1.43-2.15 2.07-0.21 0.1-0.11 0.6-0.2 0.82-0.16 0.39-0.13 0.84-0.29 1.24-0.17 0.44-0.17 1.09-0.17 1.58 0 0.71 0.04 1.43 0.04 2.14 0 0.51 0.13 1.46 0.25 1.95-0.01 1.35 3.06 4.51 4.8 7.52 0.25 0.49 0.42 0.5 0.86 0.58 0.1 0.01 0.2 0.02 0.29 0.04 0.63 0.09 0.98 0.45 1.62 0.45 0.33 0 0.67 0.17 0.99 0.25s0.82 0.04 1.15 0.04c0.56 0 1.14-0.04 1.7-0.04 0.3 0 0.61 0.06 0.87 0 0.26-0.07 0.64 0 0.91 0s0.64-0.12 0.95-0.12c0.2 0 0.55-0.51 0.74-0.58 0.45-0.18 0.68-0.68 0.91-1.08 0.17-0.28 0.33-0.58 0.41-0.91 0.08-0.32 0.01-0.61-0.33-0.7-0.29-0.07-0.34-0.22-0.62-0.29s-0.45-0.09-0.66-0.25c-0.37-0.27-0.82-0.56-1.2-0.86-0.37-0.3-0.78-0.56-1.24-0.79-0.28-0.14-0.3-0.3-0.58-0.25-0.26 0.06-0.4-0.62-0.28-1.15 0.08-0.39-0.1-0.46-0.21-0.75-0.27-0.66-0.59-0.31 0.08-0.91 0.44-0.33 0.8-1.24 1.08-1.69 0.44-0.67 1.05-1.43 1.07-2.11 0.22-0.37 0.47-1.21 0.37-1.61-0.03-0.48-0.55-1.39-0.99-2.19-0.7-0.43-0.79-1.67-1.49-1.98-0.18-0.04-0.46 0.01-0.58 0.04-0.18 0.04-0.43 0.66-0.62 0.66 0.65 0.68 1.13 1.42 1.62 2.11 0.37 0.75 0.79 1.2 0.74 2.06-0.11 1.14-0.91 2.24-1.2 2.73-0.04 0.08-0.45 0.62-0.49 0.7-0.17 0.33-0.21 0.3-0.34 0.54-0.11 0.23-0.3 0.49-0.41 0.7-0.11 0.22-0.01 0.95 0.04 1.2 0.08 0.37 0.37 0.29 0.46 0.66 0.07 0.3 0 0.73 0 1.03 0 0.27 0.04 0.76 0.04 1.04 0 0.27 0.4 0.07 0.62 0.12 0.37 0.09 0.46 0.54 0.91 0.7 0.4 0.15 1.19 0.87 1.53 1.12 0.33 0.25 0.02-0.14-0.09 0.29-1.16 0.84-2.67 0.93-4.09 0.83-2.81-0.24-3 0.03-4.09-1.24-1.37-1.93-2.8-3.77-4.17-5.95-0.05-1.39-0.01-3.06 0.08-4.47 0-0.8 0.21-0.94 0.21-1.73 0.19-1.12 1.16-1.82 2.02-2.11 1.21-0.33 2.44-0.37 3.68-0.37z"/>
<path fill="#fff" fill-rule="evenodd" d="m432.13 369.63c-0.46-0.22-1.01-0.14-1.48-0.06-0.15-0.03 0.41-0.3 0.5-0.42 0.19-0.23 0.51-0.3 0.79-0.44 0.42 0.05 1.05 0.25 1.46 0.41 0.38 0.1 0.9 0.26 1.3 0.26 1.43-1.32 3.11-2.66 4.75-3.9 0.25-0.1 2.46-0.42 3.07-0.41 0.41 0.21 0.87 0.02 1.1 0.41 0.42 0.59 1.38 1.43 1.24 1.9-0.01 0.59-0.19 1.19-0.35 1.81-0.01 0.01-0.9 0.06-0.95 0.06h-0.6c-0.25 0-0.33-0.04-0.38-0.1 0.39-0.27 0.62-0.48 0.98-0.91 0.11-0.12-0.03-0.43-0.06-0.54-0.17-0.49-0.5-0.86-0.64-1.36-0.7 0.04-1.64 0.01-2.34 0.19-0.25 0.1-0.5 0.19-0.73 0.38-0.4 0.43-0.52 0.45-1.17 1.1 0.07 0.63-0.3 1.22-0.22 1.87 0.34 0.72 0.19 0.53 1.33 0.63 0.21 0.03 0.53-0.02 0.65 0.04 0.04 0.02 0.05 0.06 0.02 0.12-0.05 0.08-0.03 0.44-0.35 0.6-0.3 0.15-1 0.25-1.33 0.32-0.06 0.01-0.11 0.02-0.16 0.03-0.22 0.05-0.32 0.09-0.54 0.13-0.65 0.08-0.85 0.53-1.25 0.78-0.26 0.17-0.81 0.14-1.25 0.11-0.25 0-0.31-0.05-0.47-0.13-0.12-0.06-0.16-0.32-0.19-0.44s-0.33-0.36-0.42-0.45c-0.13-0.13-0.28-0.15-0.44-0.31-0.21-0.21-0.36-0.36-0.6-0.54-0.14-0.11-0.2-0.24-0.35-0.38-0.31-0.35-0.46-0.61-0.92-0.76z"/>
</g>
</svg>
