<?xml version="1.0" encoding="UTF-8" standalone="no"?>
<svg xmlns:cc="http://creativecommons.org/ns#" xmlns:rdf="http://www.w3.org/1999/02/22-rdf-syntax-ns#" viewBox="0 0 68.695 68.695" xmlns:dc="http://purl.org/dc/elements/1.1/" version="1.0" xmlns="http://www.w3.org/2000/svg">
<metadata>
<rdf:RDF>
<cc:Work rdf:about="">
<dc:format>image/svg+xml</dc:format>
<dc:type rdf:resource="http://purl.org/dc/dcmitype/StillImage"/>
</cc:Work>
</rdf:RDF>
</metadata>
<g transform="translate(-402.09 -343.01)">
<path stroke-width="0" d="m466.12 377.36c0 16.39-13.3 29.69-29.69 29.69s-29.69-13.3-29.69-29.69 13.3-29.69 29.69-29.69 29.69 13.3 29.69 29.69z" fill="#a81612"/>
<path stroke-width="0" d="m454.43 377.36c0 9.93-8.06 18-18 18-9.93 0-17.99-8.07-17.99-18s8.06-18 17.99-18c9.94 0 18 8.07 18 18z" fill="#fff"/>
<path stroke-width="0" d="m453.1 377.36c0 9.2-7.47 16.66-16.67 16.66s-16.66-7.46-16.66-16.66 7.46-16.66 16.66-16.66 16.67 7.46 16.67 16.66z" fill="#451400"/>
<path d="m418.04 369.83c-0.22 0.45-0.5 0.83-0.85 1.13-0.35 0.31-0.74 0.54-1.16 0.69s-0.87 0.21-1.33 0.19c-0.47-0.03-0.93-0.14-1.37-0.35h-0.02c-0.45-0.21-0.83-0.48-1.14-0.82-0.31-0.33-0.55-0.71-0.71-1.13-0.16-0.41-0.23-0.85-0.22-1.32 0.02-0.47 0.14-0.94 0.37-1.42 0.13-0.28 0.28-0.53 0.44-0.75 0.16-0.21 0.33-0.4 0.5-0.55 0.18-0.15 0.37-0.29 0.56-0.39 0.2-0.11 0.4-0.2 0.61-0.28l0.6 1.32c-0.33 0.14-0.62 0.31-0.87 0.5-0.24 0.19-0.43 0.44-0.58 0.75-0.12 0.25-0.19 0.51-0.19 0.78 0 0.26 0.05 0.52 0.15 0.76s0.25 0.45 0.44 0.65c0.2 0.2 0.43 0.35 0.69 0.48l0.02 0.01c0.27 0.12 0.54 0.19 0.82 0.21 0.28 0.03 0.55 0 0.8-0.07 0.25-0.08 0.48-0.2 0.69-0.37s0.38-0.39 0.5-0.65c0.17-0.35 0.24-0.68 0.23-0.98-0.02-0.3-0.08-0.62-0.19-0.97l1.29-0.45c0.1 0.24 0.17 0.47 0.23 0.7 0.06 0.24 0.09 0.48 0.09 0.72 0 0.25-0.03 0.5-0.1 0.77-0.06 0.26-0.16 0.54-0.3 0.84z" fill="#fff"/>
<path d="m415.02 360.87l1.06-1.09 2.27 2.28 2.19-2.26-2.28-2.31 0.95-0.88 4.85 4.78-0.77 0.99-1.85-1.71-2.22 2.15 1.82 1.75-1.06 1.09-4.96-4.79z" fill="#fff"/>
<path d="m423.24 353.84l1.14-0.62 3.25 6.08-1.14 0.62-3.25-6.08z" fill="#fff"/>
<path d="m431.89 354.4c0.38-0.08 0.7-0.23 0.87-0.46s0.23-0.49 0.17-0.77l-0.01-0.02c-0.07-0.33-0.23-0.56-0.49-0.68-0.26-0.13-0.62-0.16-1-0.09l-1.19 0.23 0.43 2.02 1.22-0.23zm-3.46-2.81l2.85-0.54c0.42-0.08 0.8-0.1 1.15-0.05 0.36 0.05 0.71 0.15 0.98 0.31s0.5 0.36 0.68 0.62 0.31 0.55 0.38 0.89l0.01 0.02c0.08 0.39 0.08 0.74-0.01 1.05-0.08 0.32-0.23 0.6-0.45 0.84-0.21 0.25-0.51 0.45-0.83 0.61-0.33 0.17-0.68 0.28-1.07 0.36l-1.39 0.29 0.39 2.09-1.32 0.22-1.37-6.71z" fill="#fff"/>
<path d="m441.34 352.21c-0.3-0.08-0.59-0.1-0.87-0.05-0.28 0.04-0.53 0.14-0.76 0.28-0.22 0.15-0.41 0.34-0.57 0.57s-0.27 0.49-0.33 0.78l-0.01 0.02c-0.06 0.29-0.07 0.58-0.03 0.87 0.05 0.28 0.14 0.55 0.28 0.79 0.15 0.24 0.34 0.46 0.57 0.64s0.49 0.31 0.79 0.39c0.31 0.08 0.6 0.1 0.88 0.05 0.28-0.04 0.53-0.14 0.75-0.28 0.23-0.15 0.42-0.34 0.57-0.57 0.16-0.23 0.27-0.49 0.34-0.78v-0.02c0.07-0.29 0.08-0.58 0.03-0.87-0.04-0.29-0.13-0.55-0.28-0.79-0.14-0.25-0.33-0.46-0.55-0.64-0.23-0.18-0.5-0.31-0.81-0.39zm0.33-1.38c0.53 0.14 1 0.36 1.4 0.67 0.41 0.3 0.74 0.65 0.99 1.05 0.26 0.4 0.43 0.83 0.51 1.31 0.09 0.47 0.08 0.95-0.03 1.43v0.02c-0.11 0.49-0.3 0.92-0.58 1.3s-0.62 0.68-1.01 0.92c-0.4 0.23-0.84 0.39-1.33 0.45-0.49 0.07-1 0.03-1.53-0.11s-1-0.36-1.41-0.66c-0.4-0.3-0.73-0.65-0.99-1.05-0.25-0.4-0.42-0.84-0.51-1.31-0.08-0.47-0.07-0.95 0.04-1.44v-0.02c0.11-0.48 0.3-0.91 0.58-1.29s0.61-0.68 1.01-0.92c0.39-0.24 0.84-0.39 1.33-0.45 0.49-0.07 1-0.04 1.53 0.1z" fill="#fff"/>
<path d="m449.34 354.97l-2.05-1.21 0.66-1 4.99 2.97-0.66 1.03-1.73-1.11-2.99 4.85-1.18-0.68 2.96-4.85z" fill="#fff"/>
<path d="m455.81 358.29l0.92 1.06-4.32 3.65 2.41 2.72-1.09 0.81-3.12-3.67 5.2-4.57z" fill="#fff"/>
<path d="m461 365.47l1.85 4.71-1.12 0.41-1.4-3.43-1.82 0.71 1.07 2.75-1.2 0.4-1.06-2.75-1.22 0.48 1.49 3.55-1.2 0.4-1.87-4.83 6.48-2.4z" fill="#fff"/>
<path transform="matrix(.045199 0 0 .045199 410.75 359.69)" d="m60.655 398.74a15.39 15.39 0 1 1 -30.78 0 15.39 15.39 0 1 1 30.78 0z" stroke-width="0" fill="#fff"/>
<path transform="matrix(.045199 0 0 .045199 458.31 359.69)" d="m60.655 398.74a15.39 15.39 0 1 1 -30.78 0 15.39 15.39 0 1 1 30.78 0z" stroke-width="0" fill="#fff"/>
<path d="m415.75 383.24l0.31 0.85-1.16 1.51 1.87 0.37 0.32 0.85-3.59 1.34-0.29-0.78 2.34-0.88-1.91-0.43-0.01-0.02 1.15-1.57-2.33 0.87-0.29-0.77 3.59-1.34z" fill="#fff"/>
<path d="m418.03 388.54l1.63 2.38-0.62 0.42-1.16-1.69-0.64 0.44 1.02 1.49-0.62 0.42-1.02-1.49-0.66 0.45 1.17 1.72-0.62 0.42-1.64-2.41 3.16-2.15z" fill="#fff"/>
<path d="m420.43 394.44l0.32-2.25 0.73 0.66-0.25 1.46 1.44-0.37 0.71 0.64-2.21 0.52-0.33 2.35-0.73-0.66 0.25-1.55-1.52 0.39-0.71-0.65 2.3-0.54z" fill="#fff"/>
<path d="m424.93 395.75l0.72 0.44-2.03 3.25-0.71-0.44 2.02-3.25z" fill="#fff"/>
<path d="m427.91 401.5c-0.27-0.1-0.5-0.23-0.69-0.41-0.19-0.17-0.34-0.37-0.45-0.6-0.11-0.22-0.17-0.46-0.18-0.72s0.02-0.52 0.11-0.78l0.01-0.01c0.09-0.26 0.22-0.48 0.39-0.67 0.17-0.2 0.37-0.35 0.6-0.46 0.22-0.12 0.47-0.18 0.73-0.2 0.27-0.01 0.54 0.03 0.82 0.12 0.16 0.06 0.31 0.13 0.44 0.21 0.13 0.07 0.25 0.15 0.34 0.24 0.1 0.09 0.18 0.19 0.26 0.29 0.07 0.1 0.13 0.21 0.18 0.32l-0.71 0.4c-0.09-0.17-0.2-0.32-0.32-0.45-0.12-0.12-0.27-0.21-0.46-0.28-0.15-0.05-0.3-0.07-0.45-0.06-0.15 0.02-0.29 0.06-0.42 0.13-0.12 0.07-0.24 0.16-0.34 0.28s-0.17 0.26-0.23 0.41v0.01c-0.06 0.16-0.08 0.31-0.08 0.47 0.01 0.15 0.04 0.3 0.09 0.43 0.06 0.14 0.14 0.26 0.25 0.36 0.1 0.11 0.23 0.19 0.39 0.24 0.21 0.08 0.39 0.1 0.56 0.07 0.17-0.02 0.35-0.08 0.54-0.16l0.32 0.69c-0.12 0.07-0.25 0.12-0.38 0.17-0.13 0.04-0.26 0.07-0.4 0.09-0.14 0.01-0.28 0.01-0.43-0.01s-0.32-0.06-0.49-0.12z" fill="#fff"/>
<path d="m434.35 401.21l-0.36-1.3-0.65 1.18 1.01 0.12zm-0.62-2.34l0.78 0.09 1.17 4.02-0.88-0.11-0.24-0.89-1.61-0.19-0.45 0.81-0.85-0.1 2.08-3.63z" fill="#fff"/>
<path d="m437.81 399.1l0.78-0.07 2.01 2.16-0.23-2.34 0.83-0.08 0.38 3.8-0.72 0.08-2.08-2.24 0.24 2.42-0.83 0.08-0.38-3.81z" fill="#fff"/>
<path d="m447.54 400.68c-0.27 0.12-0.54 0.19-0.8 0.2-0.27 0.01-0.52-0.03-0.75-0.12-0.23-0.08-0.44-0.22-0.63-0.4s-0.34-0.4-0.46-0.66v-0.01c-0.11-0.25-0.17-0.5-0.18-0.76 0-0.26 0.04-0.51 0.13-0.74 0.09-0.24 0.22-0.46 0.4-0.65s0.41-0.35 0.67-0.47c0.16-0.07 0.31-0.12 0.45-0.16 0.13-0.03 0.27-0.06 0.39-0.06 0.13-0.01 0.26-0.01 0.38 0.01 0.12 0.01 0.25 0.04 0.37 0.08l-0.22 0.8c-0.09-0.03-0.18-0.05-0.27-0.06-0.08-0.02-0.17-0.02-0.26-0.02-0.08 0-0.17 0.01-0.26 0.03s-0.18 0.06-0.28 0.1c-0.14 0.06-0.26 0.15-0.36 0.26-0.09 0.11-0.16 0.24-0.21 0.38s-0.07 0.29-0.06 0.44c0 0.15 0.04 0.31 0.11 0.46v0.01c0.07 0.16 0.16 0.29 0.28 0.4 0.11 0.12 0.23 0.2 0.37 0.26 0.14 0.05 0.29 0.08 0.44 0.08s0.31-0.04 0.46-0.11c0.29-0.13 0.5-0.3 0.64-0.53l-0.23-0.5-0.77 0.35-0.3-0.67 1.52-0.68 0.68 1.52c-0.11 0.24-0.27 0.46-0.47 0.68s-0.46 0.4-0.78 0.54z" fill="#fff"/>
<path d="m451.52 395.82c0.16-0.13 0.26-0.27 0.29-0.41 0.02-0.15-0.01-0.29-0.11-0.42h-0.01c-0.11-0.15-0.24-0.22-0.39-0.22s-0.3 0.06-0.47 0.19l-0.66 0.51 0.68 0.87 0.67-0.52zm-2.48-0.43l1.38-1.07c0.39-0.3 0.76-0.43 1.12-0.38 0.31 0.04 0.57 0.2 0.8 0.49v0.01c0.19 0.24 0.29 0.49 0.29 0.73 0 0.25-0.07 0.49-0.21 0.71l1.58 0.5-0.78 0.61-1.4-0.47v0.01l-0.52 0.4 0.75 0.96-0.66 0.52-2.35-3.02z" fill="#fff"/>
<path d="m452.96 392.04l0.55-0.64 2.9 2.5-0.55 0.63-2.9-2.49z" fill="#fff"/>
<path d="m454.83 389.62l0.43-0.73 2.64 1.55 0.96-1.64 0.66 0.38-1.39 2.38-3.3-1.94z" fill="#fff"/>
<path d="m456.89 385.61l0.26-0.8 2.91 0.96 0.59-1.81 0.73 0.24-0.86 2.61-3.63-1.2z" fill="#fff"/>
<path d="m432.94 384.31c0.01-0.17-0.2-0.6-0.35-0.75-0.12-0.11-0.26-0.35-0.35-0.54-0.16-0.31-0.39-0.55-0.51-0.86-0.15-0.58-0.42-1.23-0.71-1.88-0.02-0.36-0.19-0.74-0.23-1.09-0.03-0.25-0.04-0.49-0.04-0.75 0-0.24 0.04-0.52 0.04-0.78v-1.05c0-0.33 0.16-0.61 0.16-0.94 0-0.23 0.38-0.54 0.46-0.7 0.95-0.19 1.68-0.49 2.66-0.59 1.3 0.04 1.37 0.17 2.03 0.23 0.61 0.12 0.89 0.49 1.37 0.79 0.24 0.11-0.1 0.49-0.15 0.7-0.03 0.19-0.17 0.36-0.24 0.53-0.26 0.55-0.63 1.01-0.78 1.62-0.24 0.51-0.35 0.64-0.59 1.29-0.08 0.17-0.18 0.47-0.27 0.65-0.1 0.2-0.05 0.98 0 1.19 0.07 0.27 0.05 0.55 0.16 0.82 0.03 0.07 0.05 0.15 0.07 0.23 0.05 0.2 0.11 0.39 0.16 0.58 0.21 0.7 0.46 1.33 0.7 1.88 0.18 0.41 0.42 0.55-0.08 0.43-0.22-0.06-0.2-0.12-0.31-0.23-0.12-0.12-0.28-0.2-0.43-0.31-0.15-0.12-0.23-0.28-0.35-0.4-0.23-0.22-0.28-0.47-0.54-0.74-0.15-0.77-0.75-1.55-1.14-2.34-0.15-0.31-0.36-0.57-0.51-0.86-0.11-0.22-0.25-0.37-0.31-0.59-0.08-0.32-0.04-0.8-0.04-1.17-0.07-0.62-0.12-1.04 0.08-1.6 0.04-0.8 0.64-0.63 1.17-0.59 0.35 0 0.51-0.02 0.75 0.16 0.53 0.4 0.27 0.34 0.27 0.93 0 0.28-0.06 0.55-0.2 0.79-0.16 0.26-0.28 0.59-0.43 0.9-0.02 0.04-0.04-0.44-0.04-0.55 0-0.3-0.24-0.48-0.46-0.43-0.35 0.07-0.37 0.23-0.51 0.58-0.09 0.22 0.07 0.61 0.11 0.83 0.12 0.54 0.54 0.96 1.06 0.74 0.16-0.16 0.31-0.38 0.31-0.59 0-0.27 0.17-0.56 0.28-0.82 0.12-0.31 0.26-0.67 0.43-0.94 0.17-0.5 0.49-0.99 0.19-1.6-0.2-0.47-0.41-0.84-0.9-0.98-0.18-0.03-0.83-0.03-1.01 0-0.62 0.02-1.12 0.22-1.72 0.35-0.2 0.05-0.19 0.31-0.24 0.51-0.07 0.28-0.08 0.58-0.15 0.86-0.09 0.35 0.05 0.81-0.08 1.14-0.1 0.24-0.09 0.83 0.04 1.09 0.15 0.31 0.21 0.68 0.43 0.98 0.38 0.51 0.47 1.08 0.86 1.56 0.26 0.34 0.32 0.62 0.5 0.98 0.03 0.05 0.06 0.1 0.08 0.15 0.21 0.42 0.66 0.92 0.86 1.33 0.15 0.29 0.45 0.62 0.67 0.78 0.24 0.19 0.43 0.43 0.62 0.67 1.24 0.8 2.11 0.92 2.54 0.55 0.21-0.21-0.23-0.54-0.31-0.59-0.36-0.34-0.63-0.86-0.82-1.45-0.11-0.41-0.32-0.83-0.51-1.21-0.2-0.61-0.4-1.22-0.43-1.87 0-0.35-0.03-0.61 0.04-0.94 0.08-0.78 0.81-1.48 0.94-2.07 0.19-0.25 0.31-0.45 0.39-0.75 0.56-0.48 1.01-1.33 1.26-2.11 0.05-0.21-0.28-0.47-0.36-0.62-0.08-0.16-0.38-0.38-0.55-0.55-0.16-0.16-0.2-0.36-0.35-0.51-0.16-0.15-0.44-0.36-0.63-0.27-0.22 0.11-0.27 0.35-0.54 0.35h-0.67c-0.37 0-0.77-0.12-1.13-0.19-0.26-0.06-0.79-0.2-1.02-0.32-0.2-0.1-0.52-0.01-0.78 0.04-1.3 0.29-2.66-0.21-2.73 1.37-0.12 0.66-0.31 1.25-0.35 1.91-0.05 0.89 0.02 1.85-0.01 2.74 0 0.36 0.07 0.66 0.2 0.98 0.17 0.43 0.45 0.81 0.62 1.25 0.7 1.03 1.33 1.82 1.92 2.46 0.21 0.16 0.04-0.2 0.43 0.2z" stroke-width="0" fill-rule="evenodd" fill="#fff"/>
<path d="m434.72 371.69l-1.86-1.53c-0.07 0.01-0.14 0.02-0.21 0.04-0.66 0.17-1.93 0.05-2.48 0.41-0.9 0.52-1.49 1.43-2.15 2.07-0.21 0.1-0.11 0.6-0.2 0.82-0.16 0.39-0.13 0.84-0.29 1.24-0.17 0.44-0.17 1.09-0.17 1.58 0 0.71 0.04 1.43 0.04 2.14 0 0.51 0.13 1.46 0.25 1.95-0.01 1.35 3.06 4.51 4.8 7.52 0.25 0.49 0.42 0.5 0.86 0.58 0.1 0.01 0.2 0.02 0.29 0.04 0.63 0.09 0.98 0.45 1.62 0.45 0.33 0 0.67 0.17 0.99 0.25s0.82 0.04 1.15 0.04c0.56 0 1.14-0.04 1.7-0.04 0.3 0 0.61 0.06 0.87 0 0.26-0.07 0.64 0 0.91 0s0.64-0.12 0.95-0.12c0.2 0 0.55-0.51 0.74-0.58 0.45-0.18 0.68-0.68 0.91-1.08 0.17-0.28 0.33-0.58 0.41-0.91 0.08-0.32 0.01-0.61-0.33-0.7-0.29-0.07-0.34-0.22-0.62-0.29s-0.45-0.09-0.66-0.25c-0.37-0.27-0.82-0.56-1.2-0.86-0.37-0.3-0.78-0.56-1.24-0.79-0.28-0.14-0.3-0.3-0.58-0.25-0.26 0.06-0.4-0.62-0.28-1.15 0.08-0.39-0.1-0.46-0.21-0.75-0.27-0.66-0.59-0.31 0.08-0.91 0.44-0.33 0.8-1.24 1.08-1.69 0.44-0.67 1.05-1.43 1.07-2.11 0.22-0.37 0.47-1.21 0.37-1.61-0.03-0.48-0.55-1.39-0.99-2.19-0.7-0.43-0.79-1.67-1.49-1.98-0.18-0.04-0.46 0.01-0.58 0.04-0.18 0.04-0.43 0.66-0.62 0.66 0.65 0.68 1.13 1.42 1.62 2.11 0.37 0.75 0.79 1.2 0.74 2.06-0.11 1.14-0.91 2.24-1.2 2.73-0.04 0.08-0.45 0.62-0.49 0.7-0.17 0.33-0.21 0.3-0.34 0.54-0.11 0.23-0.3 0.49-0.41 0.7-0.11 0.22-0.01 0.95 0.04 1.2 0.08 0.37 0.37 0.29 0.46 0.66 0.07 0.3 0 0.73 0 1.03 0 0.27 0.04 0.76 0.04 1.04 0 0.27 0.4 0.07 0.62 0.12 0.37 0.09 0.46 0.54 0.91 0.7 0.4 0.15 1.19 0.87 1.53 1.12 0.33 0.25 0.02-0.14-0.09 0.29-1.16 0.84-2.67 0.93-4.09 0.83-2.81-0.24-3 0.03-4.09-1.24-1.37-1.93-2.8-3.77-4.17-5.95-0.05-1.39-0.01-3.06 0.08-4.47 0-0.8 0.21-0.94 0.21-1.73 0.19-1.12 1.16-1.82 2.02-2.11 1.21-0.33 2.44-0.37 3.68-0.37z" stroke-width="0" fill-rule="evenodd" fill="#fff"/>
<path d="m432.13 369.63c-0.46-0.22-1.01-0.14-1.48-0.06-0.15-0.03 0.41-0.3 0.5-0.42 0.19-0.23 0.51-0.3 0.79-0.44 0.42 0.05 1.05 0.25 1.46 0.41 0.38 0.1 0.9 0.26 1.3 0.26 1.43-1.32 3.11-2.66 4.75-3.9 0.25-0.1 2.46-0.42 3.07-0.41 0.41 0.21 0.87 0.02 1.1 0.41 0.42 0.59 1.38 1.43 1.24 1.9-0.01 0.59-0.19 1.19-0.35 1.81-0.01 0.01-0.9 0.06-0.95 0.06h-0.6c-0.25 0-0.33-0.04-0.38-0.1 0.39-0.27 0.62-0.48 0.98-0.91 0.11-0.12-0.03-0.43-0.06-0.54-0.17-0.49-0.5-0.86-0.64-1.36-0.7 0.04-1.64 0.01-2.34 0.19-0.25 0.1-0.5 0.19-0.73 0.38-0.4 0.43-0.52 0.45-1.17 1.1 0.07 0.63-0.3 1.22-0.22 1.87 0.34 0.72 0.19 0.53 1.33 0.63 0.21 0.03 0.53-0.02 0.65 0.04 0.04 0.02 0.05 0.06 0.02 0.12-0.05 0.08-0.03 0.44-0.35 0.6-0.3 0.15-1 0.25-1.33 0.32-0.06 0.01-0.11 0.02-0.16 0.03-0.22 0.05-0.32 0.09-0.54 0.13-0.65 0.08-0.85 0.53-1.25 0.78-0.26 0.17-0.81 0.14-1.25 0.11-0.25 0-0.31-0.05-0.47-0.13-0.12-0.06-0.16-0.32-0.19-0.44s-0.33-0.36-0.42-0.45c-0.13-0.13-0.28-0.15-0.44-0.31-0.21-0.21-0.36-0.36-0.6-0.54-0.14-0.11-0.2-0.24-0.35-0.38-0.31-0.35-0.46-0.61-0.92-0.76z" stroke-width="0" fill-rule="evenodd" fill="#fff"/>
</g>
</svg>
