<?xml version="1.0" encoding="UTF-8" standalone="no"?>
<svg xmlns="http://www.w3.org/2000/svg" xmlns:cc="http://creativecommons.org/ns#" viewBox="0 0 1000 470.83" xmlns:rdf="http://www.w3.org/1999/02/22-rdf-syntax-ns#" xmlns:dc="http://purl.org/dc/elements/1.1/" version="1.1">
<defs>
<clipPath id="a" clipPathUnits="userSpaceOnUse">
<path d="m451.16 88.045h125.12v68.95h-125.12v-68.95z"/>
</clipPath>
<clipPath id="b" clipPathUnits="userSpaceOnUse">
<path d="m415.44 71.4h196.56v102.24h-196.56v-102.24z"/>
</clipPath>
</defs>
<metadata>
<rdf:RDF>
<cc:Work rdf:about="">
<dc:format>image/svg+xml</dc:format>
<dc:type rdf:resource="http://purl.org/dc/dcmitype/StillImage"/>
<dc:title/>
</cc:Work>
</rdf:RDF>
</metadata>
<g transform="translate(-190.91 48.262)">
<g transform="matrix(7.9844 0 0 -7.9844 -3410.9 1205.8)">
<g clip-path="url(#b)">
<g transform="translate(504.92 126.43)">
<path fill="#4f4f57" d="m0 0c0-1.206 0.506-1.581 2.314-1.581 1.81 0 2.641 0.552 3.822 2.991h0.427l-0.427-3.824h-11.239v0.43c1.686 0.427 1.859 0.806 1.859 2.388v9.404c0 1.307-0.325 1.684-1.859 2.063v0.427h6.965v-0.427c-1.458-0.379-1.862-0.68-1.862-1.964v-9.907z"/>
</g>
<g transform="translate(514.81 139.75)">
<path fill="#4f4f57" d="m0 0c0.904 0 1.634-0.727 1.634-1.631 0-0.906-0.73-1.662-1.634-1.662s-1.661 0.756-1.661 1.662c0 0.904 0.757 1.631 1.661 1.631m1.409-13.702c0-0.954 0.477-1.482 1.533-1.608v-0.429h-5.96v0.429c1.281 0.251 1.584 0.605 1.584 1.809v5.055c0 1.158-0.326 1.484-1.711 1.76v0.43l4.125 0.349h0.429v-7.795z"/>
</g>
<g transform="translate(522.4 139.75)">
<path fill="#4f4f57" d="m0 0h-0.429l-3.847-0.274v-0.428c0.88-0.151 1.433-0.604 1.433-1.409v-13.628c1.433-0.276 2.843-0.373 4.627-0.373 4.628 0 6.386 2.41 6.386 5.328 0 2.765-1.962 4.903-4.525 4.903-1.357 0-2.515-0.552-3.645-1.736v7.617zm0-8.294c0.955 0.878 1.458 1.131 2.213 1.131 1.683 0 2.814-1.61 2.814-3.924 0-3.094-1.409-4.349-3.519-4.349-1.134 0-1.508 0.501-1.508 1.584v5.558z"/>
</g>
<g transform="translate(541.94 129.6)">
<path fill="#4f4f57" d="m0 0c-0.351 2.615-2.285 4.275-4.977 4.275-2.992 0-5.279-2.238-5.279-5.179 0-2.892 2.209-5.053 5.179-5.053 2.287 0 4.224 1.256 5.077 3.293h-0.424c-0.906-1.383-2.014-2.062-3.396-2.062-1.762 0-3.519 1.61-3.371 4.726h7.191zm-7.191 0.579c0.077 1.811 0.853 3.017 2.014 3.017 1.153 0 2.01-1.256 2.11-3.017h-4.124z"/>
</g>
<g transform="translate(551.04 130.2)">
<path fill="#4f4f57" d="m0 0c-0.831 0.804-1.486 1.233-2.139 1.233-0.854 0-1.382-0.351-2.111-1.356v-3.875c0-1.13 0.226-1.481 1.606-1.759v-0.43h-6.033v0.43c1.26 0.303 1.583 0.677 1.583 1.759v5.006c0 1.208-0.525 1.758-1.732 1.859v0.43l4.145 0.374h0.431v-3.016h0.05c0.931 2.063 1.959 3.016 3.142 3.016 0.627 0 1.232-0.277 1.684-0.804l-0.626-2.867z"/>
</g>
<g transform="translate(567.05 133.5)">
<path fill="#4f4f57" d="m0 0v-0.431c1.206-0.25 1.484-1.004 0.628-3.016l-1.307-3.041-2.012 4.149c-0.581 1.207-0.581 1.76 0.501 1.908v0.431h-5.484-0.173-2.745v3.668h-0.474c-1.337-1.709-2.894-3.219-4.076-3.947v-0.48h1.709v-6.083c0-2.161 1.434-3.015 3.219-3.015 1.411 0 2.34 0.502 3.042 1.683l-0.301 0.276c-0.452-0.527-0.881-0.753-1.382-0.753-1.334 0-1.737 0.903-1.737 2.438v5.454h2.545c1.381 0 1.786-0.502 2.389-1.782l3.468-7.316c-1.156-3.118-2.159-4.375-3.918-4.375-0.383 0-0.685 0.024-1.286 0.223l-0.577-2.866c0.353-0.05 0.554-0.05 0.803-0.05 1.965 0 3.044 0.831 4.048 3.143l4.778 10.914c0.78 1.758 1.081 2.109 2.287 2.437v0.431h-3.945z"/>
</g>
<g transform="translate(518.4 106.96)">
<path fill="#4f4f57" d="m0 0c0.173-1.28 0.805-2.013 2.238-2.285v-0.427h-7.268v0.427c1.61 0.398 1.886 1.33 1.61 3.24l-1.208 8.401h-0.049l-4.777-12.068h-0.53l-4.727 12.068h-0.05l-1.283-8.649c-0.252-1.712 0.076-2.869 1.734-2.992v-0.427h-5.328v0.427c1.582 0.07 2.261 0.98 2.613 3.24l1.46 9.605c-0.58 0.604-1.383 0.983-2.137 1.01v0.424h5.304l3.848-9.705 3.896 9.705h4.98v-0.424c-1.509-0.278-1.861-1.033-1.661-2.391l1.335-9.179z"/>
</g>
<g transform="translate(521.79 111.66)">
<path fill="#4f4f57" d="m0 0c0 1.056-0.354 1.434-1.484 1.633v0.432l3.897 0.376h0.428v-6.991c0-1.133 0.728-1.658 1.762-1.658 0.954 0 1.533 0.4 2.361 1.71v4.725c0 0.778-0.503 1.232-1.483 1.406v0.432l3.896 0.376h0.429v-7.544c0-1.257 0.254-1.56 1.511-1.885v-0.427l-4.353-0.376v2.31h-0.05c-1.054-1.608-2.238-2.31-3.772-2.31-1.962 0-3.142 1.075-3.142 2.891v4.9z"/>
</g>
<g transform="translate(535.29 112.97)">
<path fill="#4f4f57" d="m0 0h-1.71v0.477c1.18 0.73 2.74 2.239 4.071 3.948h0.481v-3.668h3.118v-0.757h-3.118v-5.457c0-1.535 0.4-2.441 1.735-2.441 0.499 0 0.928 0.23 1.383 0.757l0.297-0.278c-0.701-1.18-1.632-1.681-3.041-1.681-1.785 0-3.216 0.852-3.216 3.017v6.083z"/>
</g>
<g transform="translate(543.08 111.66)">
<path fill="#4f4f57" d="m0 0c0 1.056-0.355 1.434-1.483 1.633v0.432l3.896 0.376h0.431v-6.991c0-1.133 0.726-1.658 1.755-1.658 0.957 0 1.537 0.4 2.364 1.71v4.725c0 0.778-0.501 1.232-1.482 1.406v0.432l3.897 0.376h0.426v-7.544c0-1.257 0.254-1.56 1.508-1.885v-0.427l-4.349-0.376v2.31h-0.049c-1.057-1.608-2.236-2.31-3.772-2.31-1.962 0-3.142 1.075-3.142 2.891v4.9z"/>
</g>
<g transform="translate(563.75 110.56)">
<path fill="#4f4f57" d="m0 0c0 2.616-2.137 3.547-4.173 3.547-2.214 0-3.746-1.184-4.249-3.219h0.379c0.602 1.055 1.556 1.583 2.84 1.583 1.71 0 2.365-0.805 2.365-2.49-2.316-0.852-6.086-1.058-6.086-3.619 0-1.384 1.282-2.489 2.842-2.489 1.155 0 2.035 0.277 2.991 1.13l0.226 0.199c0.477-0.951 1.133-1.329 2.288-1.329 1.383 0 2.212 0.654 2.312 1.834h-0.402c-0.1-0.579-0.354-0.88-0.752-0.88-0.428 0-0.581 0.375-0.581 1.253v4.48zm-2.865-4.676c-0.653-0.655-1.207-0.981-1.785-0.981-0.779 0-1.308 0.679-1.308 1.708 0 1.283 0.727 1.859 3.093 2.87v-3.597z"/>
</g>
</g>
</g>
<g transform="matrix(7.9844 0 0 -7.9844 -3410.9 1205.8)">
<g clip-path="url(#a)">
<g transform="translate(567.45 117.39)">
<path fill="#4f4f57" d="m0 0c0 1.332-0.429 1.807-1.786 1.887v0.424l4.197 0.279h0.431v-13.427c0-1.257 0.276-1.559 1.679-1.884v-0.427h-6.307v0.427c1.385 0.225 1.786 0.676 1.786 1.884v10.837z"/>
</g>
<g transform="translate(495.36 132.14)">
<path fill="#173a79" d="m0 0c-0.143 0.19-0.5 0.035-0.5 0.035l-5.671-2.102c-0.44 1.071-0.946 2.083-1.526 3.02l1.838 5.013s0.229 0.5 0.019 0.622c-0.215 0.126-0.558-0.208-0.558-0.208l-3.337-2.736c-1.301 1.394-2.829 2.518-4.586 3.313-0.651 0.292-1.333 0.536-2.044 0.736l-1.035 3.966s-0.089 0.397-0.357 0.397c-0.264 0-0.336-0.374-0.336-0.374l-0.663-3.505c-0.725 0.092-1.472 0.145-2.247 0.145-2.489 0-4.699-0.473-6.636-1.341-0.828-0.372-1.609-0.818-2.337-1.328-0.121-0.086-0.235-0.178-0.355-0.267-0.688 1.774-1.231 3.219-1.332 3.655 0.383 0.348 1.186 1.611 1.382 2.465 0.273 1.191 0.19 1.757-0.099 2.661-0.206 0.66-0.625 1.278-0.597 1.695 0.023 0.314 0.187 0.535 0.326 0.677-0.075 0.436-0.359 0.632-0.698 0.674-0.314 0.041-0.557-0.049-0.833-0.062-0.072 0.127-0.211 0.103-0.106 0.557 0.159 0.685 1.473 1.008 2.546 1.424 1.361 0.527 2.121 1.507 2.169 3.081 0.032 1.143-0.605 1.991-1.404 2.372-0.16-0.461-0.823-1.083-1.284-1.335-0.455-0.253-1.085-0.345-1.54-0.242 0.1 0.841-0.29 1.56-0.904 1.849-0.195-0.357-0.935-0.854-2.046-0.818-1.111 0.033-1.182 0.295-2.744 0.291-2.221-0.004-4.061-1.341-4.287-3.311-0.148-1.279 0.346-2.35 0.716-2.908-0.277-0.207-0.926-0.833-1.043-1.017-0.159 0.184-0.601 0.435-1.132 0.088 0.115-0.279 0.136-0.619 0.047-0.943-0.092-0.324-0.903-1.897-0.995-3.17-0.158-2.151 1.084-3.608 2.126-4.025-0.228-0.347-0.275-0.717-0.114-1.018 0.107-0.201 0.323-0.397 0.764-0.397-0.253-0.275-0.351-0.695-0.186-1.108 0.186-0.462 0.717-1.134 1.18-1.134-0.023-0.393 0.164-1.317 0.255-1.687-0.161-0.303-0.325-0.53-0.301-1.086 0.023-0.575 0.395-1.043 0.855-1.134 0.116-0.281 0.204-0.585 0.366-0.77 0.162-0.188 0.304-0.412 0.653-0.642 0.348-0.231 0.741-0.419 1.205-0.419 0.462 0 0.869-0.021 1.077 0.047 0.011-0.131 0.054-1.356 0.107-2.716-1.165-3.239-1.744-6.992-1.744-11.019v-0.002c0-7.219 2.059-13.653 5.989-17.796 0 0 0.227-0.277 0.858-0.687 0 0 1.229 2.104 3.101 4.492 0.473 0.608 1.017 1.192 1.614 1.757 0.922 0.8 1.814 1.515 2.685 2.143 2.417 1.65 5.216 2.902 7.803 3.44-2.966-1.532-4.648-2.349-7.436-4.74-1.768-1.514-4.579-4.188-6.502-7.847 0.399-0.318 0.939-0.644 1.575-0.708 0.407 0.478 2.499 4.312 5.706 7.395 6.495 6.081 14.145 7.486 18.149 7.409 0.225 1.651 0.342 3.369 0.342 5.144 0 2.904-0.304 5.666-0.909 8.196l4.782 5.321s0.33 0.333 0.189 0.522"/>
</g>
</g>
</g>
<g transform="matrix(7.9844 0 0 -7.9844 260.41 131.5)">
<path fill="#fff" d="m0 0c-0.28 0.159-1.04 0.531-1.644 0.508-0.622-0.024-1.149-0.151-1.641-0.464-0.208 0.14-0.271 0.419-0.139 0.741 0.133 0.324 0.324 0.373 0.324 0.373l-0.175 3.027s0.852 0.61 1.081 0.676c0.231 0.072 0.337 0.251 0.337 0.482 0.377-0.255 0.934-0.825 1.233-1.25 0.277-0.393 0.44-0.832 0.463-1.318 0.022-0.486 0.027-1.065-0.071-1.666 0.189-0.162 0.371-0.3 0.393-0.555 0.024-0.257-0.07-0.349-0.161-0.554"/>
</g>
<g transform="matrix(7.9844 0 0 -7.9844 480.98 206.87)">
<path fill="#fff" d="m0 0c-0.034 0.59-0.72 2.188-1.136 2.536l7.198 3.19-6.062-5.726z"/>
</g>
<g transform="matrix(7.9844 0 0 -7.9844 323.35 111.67)">
<path fill="#fff" d="m0 0 6.091-5.526c-0.589-0.329-1.469-1.221-1.713-1.947l-4.378 7.473z"/>
</g>
<g transform="matrix(7.9844 0 0 -7.9844 351.82 199.09)">
<path fill="#fff" d="m0 0c-0.21-0.322-0.284-0.519-0.354-0.91-0.07-0.396-0.018-0.614 0.029-0.937l-1.867 1.288c0.021 0.438-0.094 1.155-0.123 1.527-0.004 0.038-0.017 0.108-0.026 0.162l2.341-1.13z"/>
</g>
<g transform="matrix(7.9844 0 0 -7.9844 269.64 203.37)">
<path fill="#fff" d="m0 0c-0.118 0.208-0.65 11.452-0.67 11.846l0.601 0.437v0.116c-0.44 0.024-0.948 0.185-1.11 0.443l-0.162 3.444c-0.602 0.048-1.222 0.239-1.454 0.468-0.288 0.289-0.511 0.645-0.187 1.269 0.3-0.21 1.178-0.464 1.941-0.464 0.162 0 0.5-0.364 0.695-0.442 0.222-0.085 0.593-0.29 0.768-0.369 0.156-0.067 0.255-0.437 0.299-0.576 0.047-0.141 5.618-14.598 5.71-14.761 0.095-0.16 0.419-2.591 0.44-2.774 0.024-0.186 0.857-2.128 1.018-2.314-0.74 0.021-1.953-0.402-2.946-1.378-0.974-0.948-1.833-3.034-2.028-3.994-0.07 0.507-2.799 8.841-2.915 9.049"/>
</g>
<g transform="matrix(7.9844 0 0 -7.9844 326.16 313.81)">
<path fill="#fff" d="m0 0c-0.241-2.224-0.782-4.151-1.596-5.527-0.523-0.89-1.993-2.686-2.505-3.365 0.556 1.11 0.985 3.789 0.95 5.871-0.024 1.352-0.435 4.338-0.077 6.315 0.388 2.122 0.99 3.313 2.409 4.625 0.725 0.666 2.209 1.517 4.326 0.943l1.713-3.223c-0.916 0.174-2.128 0.018-2.935-0.602-1.521-1.167-2.032-2.74-2.285-5.037"/>
</g>
<g transform="matrix(7.9844 0 0 -7.9844 327.5 348.79)">
<path fill="#fff" d="m0 0c0.417 0.937 0.964 3.61 1.117 4.504 0.198 1.147 0.382 2.82 1.747 3.95 0.672 0.553 1.776 0.627 2.216 0.495l1.936-3.947c0.174-0.415 0.744-0.562 1.125-0.539-1.817-0.589-6.394-2.766-8.141-4.463"/>
</g>
<g transform="matrix(7.9844 0 0 -7.9844 459.11 248.19)">
<path fill="#fff" d="m0 0c-0.312-0.487-0.201-0.955-0.028-1.282 0.197-0.368 1.223-2.261 1.223-2.261 0.321-0.859 0.575-1.291 0.882-1.845 0.556 0 1.157 0.013 1.792 0-0.677 1.515-2.225 4.447-2.225 4.447l-0.111 2.37c-0.45-0.273-1.222-0.946-1.533-1.429"/>
</g>
<g transform="matrix(7.9844 0 0 -7.9844 393.16 147.92)">
<path fill="#fff" d="m0 0c0.764 0.138 2.493-0.02 3.046-0.299l-1.754 9.939-1.292-9.64z"/>
</g>
<g transform="matrix(7.9844 0 0 -7.9844 275.4 74.241)">
<path fill="#fff" d="m0 0c-0.045 0.139-0.142 0.509-0.3 0.576-0.175 0.079-0.545 0.286-0.767 0.372-0.192 0.077-0.533 0.439-0.695 0.439-0.763 0-1.642 0.254-1.942 0.463-0.324-0.623-0.1-0.98 0.187-1.269 0.233-0.229 0.853-0.421 1.454-0.467l0.162-3.445c0.162-0.257 0.67-0.419 1.111-0.44v-0.117l-0.602-0.438c0.02-0.394 0.553-11.639 0.671-11.847 0.116-0.207 2.845-8.542 2.914-9.048 0.196 0.96 1.055 3.05 2.028 3.997 0.994 0.973 2.207 1.395 2.947 1.375-0.161 0.186-0.995 2.127-1.019 2.313-0.021 0.183-0.344 2.615-0.438 2.775-0.093 0.163-5.665 14.62-5.711 14.761"/>
</g>
<g transform="matrix(7.9844 0 0 -7.9844 247.01 52.226)">
<path fill="#fff" d="m0 0c1.574-0.004 2.318-0.658 2.688-1.006 0.045 0.533-0.038 1.002-0.534 1.404-0.41 0.333-1.133 0.628-2.242 0.628-0.742 0-1.485-0.218-1.949-0.612-0.423-0.36-0.494-0.764-0.401-1.369 0.138 0.439 1.14 0.96 2.438 0.955"/>
</g>
<g transform="matrix(7.9844 0 0 -7.9844 224.51 -13.68)">
<path fill="#fff" d="m0 0c-0.037-0.602 0.124-1.228 0.402-1.599 0.158-0.208 0.534-0.616 0.81-0.599 0.393 0.023 0.763 0.776 1.69 0.741 0.599-0.024 0.992-0.871 1.502-0.901 0.394-0.027 0.599 0.367 0.999 0.409 0.34 0.036 0.459-0.134 0.667-0.341 0.139 0.323 0.34 0.543 0.857 0.924 0.622 0.464 2.75 0.903 3.656 1.713 0.451 0.404 0.553 1.153 0.41 1.657-0.343-0.482-1.291-0.987-2.216-1.031-0.463-0.024-1.575 0.179-1.967 0.388 0.198 0.34 0.263 0.722 0.099 1.092-0.302-0.229-1.602-0.355-2.111-0.355-0.508 0-1.502 0.205-2.273 0.164-1.687-0.092-2.469-1.289-2.525-2.262"/>
</g>
<g transform="matrix(7.9844 0 0 -7.9844 247.77 28.255)">
<path fill="#fff" d="m0 0c3.656-0.07 5.305-1.758 5.354-3.145 0.185 0.415 0.161 0.807 0.136 1.273-0.019 0.367-0.575 1.411-0.6 1.756-0.022 0.348 0.071 0.581 0.139 0.902-0.231-0.044-1.041-0.367-1.388-0.091-0.371 0.298-0.114 1.041-0.602 1.223-0.485 0.189-1.247-0.392-1.735-0.321-0.484 0.071-0.901 0.739-1.409 0.739-0.512 0-0.766-0.623-1.39-0.763-0.482-0.109-1.065 0.183-1.35 0.163-0.316-0.023-0.503-0.269-0.643-0.571-0.14-0.299-0.251-0.423-0.62-0.517-0.294-0.073-0.718 0.184-0.926 0.138 0.161-0.161 0.242-0.818 0.096-1.203-0.183-0.485-0.58-0.995-0.628-1.601-0.039-0.535 0.137-0.781 0.278-1.173-0.094 1.966 2.097 3.251 5.288 3.191"/>
</g>
<g transform="matrix(7.9844 0 0 -7.9844 229.38 84.214)">
<path fill="#fff" d="m0 0c-0.253-0.047-0.788-0.464-1.045-0.897 0.072-0.281 0.375-0.933 0.669-1.112 0.069 0.301 0.398 0.805 0.563 0.92 0.23 0.164 0.459 0.278 0.645 0.368 0.185 0.094 0.255 0.187 0.255 0.395 0 0.21-0.027 0.308-0.121 0.516 0.184 0.021 0.527-0.007 0.645 0.158 0.114 0.159 0.171 0.369 0.171 0.575 0 0.211-0.096 0.257-0.301 0.279-0.209 0.024-0.816 0.038-1.115 0.015 0 0 0.466 0.24 0.606 0.307 0.138 0.07 0.184 0.21 0.207 0.326 0.025 0.115 0.02 0.374-0.046 0.692-0.694-0.021-1.921-0.646-2.245-0.922l0.254-0.63-0.46 0.021c-0.071-0.317-0.024-0.803 0.115-1.082 0.415 0.071 0.9 0.093 1.203 0.071"/>
</g>
<g transform="matrix(7.9844 0 0 -7.9844 441.44 196.12)">
<path fill="#fff" d="m0 0c-0.764 0.494-2.257 1.221-2.705 1.361l0.656 1.7c0.558-0.279 2.602-1.525 2.916-1.84l-0.867-1.221zm-3.609 1.635c-0.556 0.386-2.394 0.315-3.158 0.14l-0.555 1.6c0.417 0.311 1.216 0.521 1.942 0.521 0.73 0 1.526-0.176 2.083-0.454l-0.312-1.807zm-5.485-1.179c-0.311 1.048 0.523 2.085 0.905 2.465l0.587-1.352c-0.446-0.244-1.141-0.774-1.492-1.113m1.809-2.74s0.76 0.437 1.478 0.592c1.059 0.227 2.232-0.408 3.065-1.063l-0.158-0.251-1.194-0.28c-0.231 0.203-0.671 0.297-1.147 0.272-0.423-0.016-0.762-0.174-0.762-0.174l0.235-0.381-0.548-0.138c-0.243 0.312-0.626 0.693-0.969 0.798v0.625zm10.65 1.804c-0.085 0.449-1.211 1.795-3.135 3.249-1.497 1.141-3.697 2.262-5.505 2.254-3.054-0.018-4.316-2.117-4.546-3.211-0.138-0.663-0.106-1.377 0.034-1.771-0.484-0.415-0.67-0.751-0.762-1.226-0.066-0.34 0-0.833 0.311-1.133-0.033 0.451 0.272 0.973 0.521 1.317 0.279 0.382 0.74 0.532 1.159 0.787l0.07-0.836c-0.396-0.228-0.885-0.712-0.917-0.968l0.032-1.377 1.051 0.631 0.203-0.424-0.383-2.429 0.59 0.105 1.077-0.441-1.041-0.876v-0.347s0.156 0.213 0.522 0.2c0.368-0.019 1.314-0.442 1.314-0.442l-0.035-0.212h-0.415-1.422c-0.069-0.242 0.146-0.427 0.285-0.531 0.24 0.069 0.493 0.194 0.63 0.194 0.139 0 0.459-0.084 0.737-0.118l-0.333-0.447s-0.173-0.129-0.487-0.067c-0.174 0.036-0.345-0.207-0.345-0.406 0-0.211 0.133-0.731 0.133-0.731 0.17-0.779 0.97-0.624 1.073-0.615 0.506 0.045 2.157 0.638 2.157 0.638l-1.588-2.225 0.693-2.382c1.05 0.432 4.181 1.545 7.578 2.104-0.37 0.614-0.431 0.86-0.886 1.777l-1.735 3.991 0.242 0.592c0.384-0.14 0.972 0.136 1.355 0.449 0.38 0.315 0.831 0.866 1.005 1.214-0.242 0.139-0.448 0.107-0.66-0.035-0.207-0.14-0.368-0.404-0.657-0.276-0.317 0.136-0.161 0.48-0.128 0.792 0.036 0.311-0.361 0.317-0.637 0.075-0.278-0.245-0.869-0.137-1.25 0.242-0.38 0.381-2.218 1.91-2.879 2.291-0.95 0.544-2.221 0.682-3.158 0.514-0.548-0.098-0.937-0.34-1.145-0.234l-0.687 1.061 0.111 0.068c0.241-0.104 0.471-0.3 0.784-0.194 0.312 0.105 1.317 0.333 2.222 0.345 1.388 0.024 3.075-0.483 3.818-0.799 0.033-0.899 1.848-2.046 2.67-2.147 0.691-0.088 1.112 0.101 1.527 0.345l-1.769 1.555 0.936 1.186s1.492-1.42 1.702-1.7c0.067 0.161 0 0.433-0.037 0.624"/>
</g>
<g transform="matrix(7.9844 0 0 -7.9844 439.55 160.03)">
<path fill="#fff" d="m0 0c0.686-0.246 2.138-1.464 2.485-1.746l3.679 7.841-6.164-6.095z"/>
</g>
<g transform="matrix(7.9844 0 0 -7.9844 1174.8 359.33)">
<path fill="#4f4f57" d="m0 0h0.318c0.215 0 0.391 0.027 0.391 0.273 0 0.217-0.206 0.252-0.387 0.252h-0.322v-0.525zm-0.342 0.788h0.699c0.452 0 0.695-0.153 0.695-0.541 0-0.333-0.207-0.471-0.463-0.496l0.496-0.806h-0.372l-0.46 0.795h-0.253v-0.795h-0.342v1.843zm0.642-2.219c0.69 0 1.256 0.546 1.256 1.328 0 0.779-0.566 1.327-1.256 1.327-0.698 0-1.255-0.548-1.255-1.327 0-0.782 0.557-1.328 1.255-1.328m0 3.025c0.873 0 1.653-0.684 1.653-1.697 0-1.016-0.78-1.7-1.653-1.7-0.872 0-1.652 0.684-1.652 1.7 0 1.013 0.78 1.697 1.652 1.697"/>
</g>
</g>
</svg>
