<?xml version="1.0" encoding="UTF-8" standalone="no"?>
<svg viewBox="0 0 250 250" xmlns:cc="http://creativecommons.org/ns#" enable-background="new 0 0 250 250" xml:space="preserve" xmlns:dc="http://purl.org/dc/elements/1.1/" y="0px" xmlns:rdf="http://www.w3.org/1999/02/22-rdf-syntax-ns#" version="1.1" xmlns="http://www.w3.org/2000/svg" x="0px"><metadata><rdf:RDF><cc:Work rdf:about=""><dc:format>image/svg+xml</dc:format><dc:type rdf:resource="http://purl.org/dc/dcmitype/StillImage"/></cc:Work></rdf:RDF></metadata>
<g clip-rule="evenodd" fill="#E82E2C" fill-rule="evenodd">
	<polygon points="5 7.498 82.365 7.498 82.365 42.64 117.52 7.498 227.62 7.498 139.8 95.242 227.62 182.9 117.52 182.9 82.365 147.84 82.365 182.9 5 182.9"/>
	<polygon points="238.66 234.92 240.19 234.92 241.73 240.03 243.36 234.92 245 234.92 245 241.26 243.95 241.26 243.95 236.08 242.31 241.26 241.25 241.26 239.64 236.08 239.64 241.26 238.66 241.26"/>
	<path d="m237.33 236.75h-1.059c0-0.278-0.112-0.579-0.391-0.769-0.29-0.189-0.568-0.279-1.06-0.279-0.278 0-0.579 0-0.858 0.179-0.189 0.2-0.29 0.379-0.29 0.591 0 0.278 0.101 0.457 0.29 0.558 0.189 0.212 0.58 0.39 1.26 0.49 0.937 0.279 1.517 0.479 1.896 0.78 0.302 0.279 0.401 0.658 0.401 1.138 0 0.591-0.189 1.06-0.669 1.449-0.479 0.379-1.07 0.568-1.828 0.568-0.87 0-1.449-0.189-1.918-0.568-0.49-0.39-0.669-0.97-0.78-1.639h1.048c0.101 0.379 0.201 0.669 0.491 0.959 0.289 0.189 0.68 0.29 1.248 0.29 0.379 0 0.669-0.101 0.87-0.19 0.29-0.189 0.39-0.39 0.39-0.68 0-0.089 0-0.189-0.1-0.379-0.112-0.111-0.201-0.179-0.29-0.29-0.201-0.201-0.58-0.29-1.16-0.479h-0.278c-0.68-0.179-1.26-0.479-1.539-0.77-0.289-0.29-0.479-0.68-0.479-1.159 0-0.469 0.289-0.959 0.669-1.227 0.479-0.401 1.048-0.49 1.828-0.49 0.669 0 1.249 0.089 1.628 0.49 0.47 0.38 0.68 0.85 0.68 1.43"/>
</g>
</svg>
