<?xml version="1.0" encoding="UTF-8" standalone="no"?>
<!DOCTYPE svg  PUBLIC '-//W3C//DTD SVG 1.1//EN'  'http://www.w3.org/Graphics/SVG/1.1/DTD/svg11.dtd'>
<svg xml:space="preserve" enable-background="new 0 0 250 250" version="1.1" viewBox="0 0 250 250" xmlns="http://www.w3.org/2000/svg" y="0px" x="0px">
<g fill-rule="evenodd" clip-rule="evenodd" fill="#E82E2C">
	<polygon points="5 7.498 82.365 7.498 82.365 42.64 117.52 7.498 227.62 7.498 139.8 95.242 227.62 182.9 117.52 182.9 82.365 147.84 82.365 182.9 5 182.9"/>
	<polygon points="17.956 221.2 33.888 205.93 49.542 205.93 33.23 221.39 33.409 221.39 51.548 241.54 33.888 241.54 17.956 222.84 17.956 241.54 5 241.54 5 193.94 17.956 193.94"/>
	<path d="m53.199 205.93h12.465v6.434c3.936-6.522 9.22-7.671 13.925-7.671 5.363 0 9.209 3.445 11.239 7.972 3.255-5.485 9.209-7.972 14.204-7.972 7.96-0.101 14.795 4.693 14.795 15.252v21.597h-12.398v-20.158c0-5.084-3.746-7.492-6.913-7.582-3.657 0-7.782 3.646-7.782 8.162v19.578h-12.47v-20.158c0-3.835-1.929-7.582-6.433-7.582-3.167 0-7.771 2.966-7.771 10.079v17.661h-12.855v-35.61z"/>
	<path d="m170.6 205.93h12.376v7.492c2.408-7.392 9.221-8.729 17.571-8.072v11.139c-4.604-0.379-8.44-0.189-11.417 1.06-3.077 1.338-5.664 4.504-5.664 7.972v16.021h-12.866v-35.61z"/>
	<path d="m203.34 193.94h12.777v11.327h10.547v11.228h-10.547v12.298c0 4.683 3.434 5.173 10.547 3.824v8.462c-13.145 2.688-23.324 1.048-23.324-12.677v-34.46z"/>
	<polygon points="238.66 234.92 240.19 234.92 241.73 240.03 243.36 234.92 245 234.92 245 241.26 243.95 241.26 243.95 236.08 242.31 241.26 241.25 241.26 239.64 236.08 239.64 241.26 238.66 241.26"/>
	<path d="m237.33 236.75h-1.059c0-0.278-0.112-0.579-0.391-0.769-0.29-0.189-0.568-0.279-1.06-0.279-0.278 0-0.579 0-0.858 0.179-0.189 0.2-0.29 0.379-0.29 0.591 0 0.278 0.101 0.457 0.29 0.558 0.189 0.212 0.58 0.39 1.26 0.49 0.937 0.279 1.517 0.479 1.896 0.78 0.302 0.279 0.401 0.658 0.401 1.138 0 0.591-0.189 1.06-0.669 1.449-0.479 0.379-1.07 0.568-1.828 0.568-0.87 0-1.449-0.189-1.918-0.568-0.49-0.39-0.669-0.97-0.78-1.639h1.048c0.101 0.379 0.201 0.669 0.491 0.959 0.289 0.189 0.68 0.29 1.248 0.29 0.379 0 0.669-0.101 0.87-0.19 0.29-0.189 0.39-0.39 0.39-0.68 0-0.089 0-0.189-0.1-0.379-0.112-0.111-0.201-0.179-0.29-0.29-0.201-0.201-0.58-0.29-1.16-0.479h-0.278c-0.68-0.179-1.26-0.479-1.539-0.77-0.289-0.29-0.479-0.68-0.479-1.159 0-0.469 0.289-0.959 0.669-1.227 0.479-0.401 1.048-0.49 1.828-0.49 0.669 0 1.249 0.089 1.628 0.49 0.47 0.38 0.68 0.85 0.68 1.43"/>
	<path d="m165.13 241.54h-12.275v-5.464c-2.787 3.546-7.213 6.423-13.735 6.423-7.393 0-15.364-2.297-15.174-11.618 0-13.535 19.5-11.707 28.598-11.896 0-4.426-2.286-7.013-6.901-7.013-3.735 0-6.522 1.828-6.522 3.925h-12.878c0-7.27 9.232-11.205 19.59-11.205 12.866 0 19.299 4.604 19.299 13.624v23.22zm-12.59-15.65c-3.925 0.201-17.069-1.427-17.069 4.917 0 2.576 2.218 4.025 5.853 4.025 5.09-0.1 11.04-3.35 11.22-8.95"/>
</g>
</svg>
