<?xml version="1.0" encoding="UTF-8" standalone="no"?>
<svg xmlns:dc="http://purl.org/dc/elements/1.1/" xmlns="http://www.w3.org/2000/svg" xmlns:rdf="http://www.w3.org/1999/02/22-rdf-syntax-ns#" version="1.1" xmlns:cc="http://creativecommons.org/ns#" viewBox="0 0 573 262" xmlns:xlink="http://www.w3.org/1999/xlink">
<metadata>
<rdf:RDF>
<cc:Work rdf:about="">
<dc:format>image/svg+xml</dc:format>
<dc:type rdf:resource="http://purl.org/dc/dcmitype/StillImage"/>
<dc:title/>
</cc:Work>
</rdf:RDF>
</metadata>
<path d="m365.75 170.08-30.38-84.039h-17.503l-30.571 84.039h14.639l6.622-20.441h35.433l6.5031 20.441zm-26.439-33.942h-24.913l11.86-34.592z"/>
<path d="m420.37 100.67v-14.635h-64.953v14.635h25.5l0.61868 69.404h13.648l-0.61867-69.404z"/>
<path d="m500.94 169.92-19.86-21.622c1.09-4.2541 3.7292-5.3793 5.068-9.7078 1.3387-4.3284 5.648-6.9912 5.9626-12.421h-14.52c-0.78936 1.8816-2.3099 3.8445-2.9786 6.3635-0.66884 2.5191-2.1481 4.3661-3.488 6.1743l-11.947-14.544c0.70836-0.47062 1.5542-1.0602 2.5376-1.7686 0.98331-0.70835 1.7902-1.2985 2.4206-1.7704 0.63031-0.47183 0.98391-0.74738 1.0608-0.82668 2.5982-1.8898 4.6844-3.9754 6.2586-6.2568 1.574-2.2812 2.3611-6.5802 2.3611-9.8845-0.00006-2.8335-0.49234-5.4702-1.4768-7.9101-0.98461-2.4397-2.4212-4.5445-4.3098-6.3144-1.8887-1.7697-4.1508-3.1463-6.7863-4.1297-2.6355-0.98328-5.6054-1.475-8.9097-1.475-3.542 0.000085-6.6902 0.49176-9.4446 1.475-2.7544 0.98344-5.0951 2.3408-7.0222 4.0721-1.9271 1.7315-3.4022 3.7966-4.4251 6.1955-1.023 2.399-1.5345 5.0153-1.5345 7.8489-0.00001 2.046 0.27555 5.4408 0.82667 7.1722 0.5511 1.7314 1.2397 3.3248 2.0658 4.7799 0.82605 1.4553 1.7308 2.8126 2.7141 4.0721 0.98334 1.2596-1.417 2.3612-0.55254 3.3049-1.8082 1.1815-3.6177 2.5197-5.4283 4.0145-1.8106 1.4949-3.4238 3.1668-4.8394 5.0159s-2.5761 3.895-3.4814 6.1379c-0.90532 2.2429-1.358 4.7019-1.358 7.377-0.00001 7.9461 2.3017 14.182 6.9051 18.707 4.6034 4.5254 11.39 7.7379 20.676 7.7379 2.9897 0 7.8414-0.75045 10.123-1.3016 2.2812-0.55111 5.554-2.981 7.2854-3.8071 1.7313-0.82607 3.2268-2.6416 4.4864-3.5469 1.2595-0.90531 2.2028-3.3348 3.1466-4.1224l10.254 11.119zm-40.736-65.963c-0.00005 1.4961-0.30401 4.1353-1.2477 5.2759-0.94378 1.1407-2.4886 2.5187-3.8262 3.4624-0.93362 0.46544-3.5858 2.5556-5.1639 3.2584-1.4961-1.7313-3.4233-4.4638-4.5255-5.9587-1.1023-1.4948-1.4855-3.4552-1.4854-5.0306-0.00003-1.9666 1.3568-5.222 2.5383-6.52 1.1814-1.2979 3.5583-1.9468 5.8396-1.9469 2.202 0.000071 4.2612 0.64904 5.4812 1.9469 1.2155 1.8117 2.2267 3.6746 2.3895 5.5126zm2.7882 46.204c-2.9166 2.5229-5.9722 5.6814-7.9004 6.3096-1.9283 0.78646-3.6759 2.1295-6.1925 2.1295-1.8107 0.00001-1.9002 0.6544-3.4346 0.0637-1.5345-0.59072-3.8219-0.76438-4.9625-1.7874-1.1407-1.023-3.945-3.5285-4.6138-4.9837s-1.1615-5.1064-1.1615-6.8378c-0.00002-2.9897 0.78702-5.4289 2.3611-7.3176 1.5741-1.8886 5.3607-6.1128 8.194-6.657z"/>
<path d="m553.08 100.67v-14.635h-64.953v14.635h25.5l0.61868 69.404h13.648l-0.61867-69.404z"/>
<path d="m243.47 126.8c0 60.954-49.062 110.66-110.24 110.66-61.177 0-110.77-49.413-110.77-110.37 0-60.954 49.594-109.8 110.77-109.8 61.177 0 110.24 48.554 110.24 109.51z" fill-rule="evenodd" fill="#fff"/>
<path d="m149.35 236.28c15.354-2.5574 27.665-6.9647 40.227-14.401 8.7101-5.1561 18.606-13.149 24.677-19.931l3.3577-3.7515-3.762 3.1039c-16.667 13.752-37.923 22.379-63.613 25.818-7.2148 0.96589-28.211 1.372-35.684 0.69016-17.515-1.598-31.736-5.3504-44.726-11.802-7.4591-3.7044-7.0029-3.0826 2.2734 3.0985 15.314 10.204 31.273 16 51.363 17.947 3.7995 0.70267 21.836 0.46847 25.887-0.77204z" fill="#00b0ec"/>
<path d="m157.16 218.83c25.302-3.4903 47.897-13.816 64.308-29.388 5.7188-5.4264 8.3243-8.9361 11.556-15.566 2.1726-4.4577 6.877-17.049 6.877-18.407 0-0.18115-1.2543 1.5704-2.7874 3.8923-15.984 24.208-53.139 40.461-106.13 46.426-7.3808 0.83082-27.531 0.29934-35.647-0.94016-18.965-2.8963-32.569-7.7155-45.048-15.957-5.2525-3.4691-14.264-12.091-17.019-16.282-0.95566-1.4542-1.8126-2.5692-1.9044-2.4777-0.0917 0.0915 0.38755 1.3846 1.065 2.8734 4.1936 9.2159 14.282 19.465 26.172 26.591 14.235 8.5301 43.218 17.343 63.855 19.417 2.781 0.27946 5.7804 0.59036 6.6653 0.69087 3.6804 0.4182 23.054-0.18447 28.04-0.87217z" fill="#00b0ec"/>
<path d="m165.21 188.37c33.87-4.5723 58.282-17.007 71.417-36.38 0.80829-1.1921 2.3942-4.0815 3.5241-6.4209 2.8546-5.91 3.6278-11.061 3.2544-21.682-0.15083-4.2882-0.4648-8.416-0.6979-9.1727-0.31343-1.0177-0.43406-1.1282-0.46325-0.42432-0.0549 1.3166-1.9926 6.8931-3.2585 9.3766-4.0558 7.9568-13.09 17.003-23.273 23.305-15.101 9.3451-33.778 15.79-62.684 21.629-37.437 7.5633-58.451 6.9028-87.338-2.745-20.631-6.89-36.092-20.48-41.667-36.61l-1.5351-4.4428v4.357c0 6.2132 0.62924 9.3332 2.7596 13.639 5.3719 10.857 18.827 22.064 35.349 29.443 15.839 7.0736 44.128 14.124 67.34 16.782 8.0926 0.92668 28.169 0.57376 37.273-0.65523z" fill="#00b0ec"/>
<path d="m174.63 147.11c31.577-4.7224 52.438-15.826 61.324-32.641 2.8013-5.301 4.1062-10.252 3.7317-14.159-0.35583-3.7114-2.7987-11.284-5.8907-18.26l-2.3951-5.4039-0.25992 3.2105c-0.59257 7.3203-4.158 13.171-11.938 19.589-10.758 8.874-31.755 18.007-57.743 25.117-33.172 9.0749-65.133 9.1642-92.331 0.25789-17.163-5.62-30.662-15.16-35.72-25.239-1.567-3.123-2.161-5.083-2.812-9.274l-0.55409-3.5676-1.7816 5.2743c-2.424 7.1762-2.6987 11.234-1.0097 14.915 3.533 7.6997 12.077 15.863 22.525 21.522 19.531 10.579 50.498 17.413 88.311 19.492 11.884 0.65311 29.273 0.2589 36.544-0.82844z" fill="#00b0ec"/>
<path d="m162.91 102.08c31.258-2.1174 52.469-10.444 59.194-23.238 3.1722-6.0347 3.2038-11.243 0.0994-16.387-1.8878-3.1279-6.4738-8.6456-10.301-12.394l-2.7952-2.7375-0.01 1.8202c-0.0154 2.7953-1.5241 5.5124-4.9292 8.8782-3.9159 3.8705-8.3284 6.7485-15.949 10.403-31.51 15.116-77.16 20.781-106.2 13.183-9.691-2.535-16.863-6.233-22.081-11.385-4.519-4.4613-5.9625-7.4746-5.9541-12.429 0.0059-3.4248 0.1551-4.0191 1.8803-7.4827l1.8741-3.7624-3.1965 3.1256c-6.8176 6.6664-14.255 16.501-14.843 19.628-0.93171 4.9552 6.2253 11.928 17.931 17.469 12.559 5.9452 26.146 9.4221 47.312 12.107 25.213 3.1983 43.295 4.1971 57.978 3.2026z" fill="#00b0ec"/>
<path d="m149.35 60.613c21.035-2.5326 37.824-8.4236 43.774-15.36 1.8267-2.1292 2.8382-5.0127 2.4219-6.9038-1.075-4.8835-20.062-14.357-36.773-18.347-9.1412-2.1828-15.529-2.9032-25.742-2.9032-13.603 0-23.56 1.642-36.314 5.9887-11.013 3.7531-24.656 11.17-27.577 14.991-1.6368 2.1412-2.0015 5.049-0.9187 7.3258 3.6687 7.7138 22.501 14.1 47.343 16.053 5.449 0.42855 27.865-0.13204 33.786-0.84499z" fill="#00b0ec"/>
</svg>
