<?xml version="1.0" encoding="UTF-8" standalone="no"?>
<svg xmlns:rdf="http://www.w3.org/1999/02/22-rdf-syntax-ns#" xmlns="http://www.w3.org/2000/svg" xml:space="preserve" viewBox="0 0 368.18 200" xmlns:dc="http://purl.org/dc/elements/1.1/" xmlns:cc="http://creativecommons.org/ns#" version="1.1"><metadata><rdf:RDF><cc:Work rdf:about=""><dc:format>image/svg+xml</dc:format><dc:type rdf:resource="http://purl.org/dc/dcmitype/StillImage"/><dc:title/></cc:Work></rdf:RDF></metadata><defs><clipPath id="a" clipPathUnits="userSpaceOnUse"><path d="m17.75 11.847h756.5v585.71h-756.5v-585.71z"/></clipPath></defs><g transform="matrix(1.25 0 0 -1.25 -81.857 729.24)"><g clip-path="url(#a)"><g transform="matrix(2.1261 0 0 2.1261 335.25 567.07)"><path d="m0 0c0.03 0.074 0.055 0.143 0.077 0.209 0.018 0.058 0.033 0.114 0.047 0.166l-0.003 0.009c-0.2 0.574-0.6 0.616-1.441 0.55-1.227-0.234-2.362-0.382-3.316-0.478h0.001c-0.053-0.005-0.103-0.01-0.155-0.015-0.037-0.003-0.075-0.008-0.111-0.01-0.143-0.014-0.28-0.026-0.413-0.037-0.02-0.002-0.039-0.003-0.058-0.005-1.23-0.1-2.008-0.104-2.008-0.104 3.143-2.377 3.51-6.057 3.51-6.057l0.16 0.137c2.413 1.751 3.71 5.635 3.71 5.635"/></g><g transform="matrix(2.1261 0 0 2.1261 265.82 525.52)"><path fill="#d1d3d4" d="m0 0c1.559-4.592-1.066-10.743-1.066-10.743 3.444 2.952 6.15 9.02 6.15 9.02 5.658 1.148 8.775 0 8.775 0 0.737-4.428-0.904-8.035-0.904-8.035 3.281 2.623 4.757 9.594 4.757 9.594s-1.312 1.229-7.133 1.639c-5.823 0.411-10.579-1.475-10.579-1.475"/></g><g transform="matrix(2.1261 0 0 2.1261 274.84 488.17)"><path fill="#d1d3d4" d="m0 0s-1.71-4.759-3.466-6.516c0 0 2.269-1.244 6.223-0.878 3.953 0.366 4.906 1.829 5.272 3.294 0.366 1.464 0 3.515-0.66 5.052 0 0 0.294-3.88-2.416-5.858 0 0-2.919-0.61-4.823-0.025 0 0 0.749 1.562-0.13 4.931"/></g><g transform="matrix(2.1261 0 0 2.1261 255.03 566.82)"><path fill="#d1d3d4" d="m0 0c0.04-0.008 0.08-0.016 0.121-0.025-0.04 0.009-0.081 0.017-0.121 0.025-2.386 0.454-3.392-1.348-3.392-1.348-0.756-1.119-0.468-1.655-0.468-1.655 7.353 0.129 11.318-1.058 11.318-1.058s-2.739 2.994-7.157 3.999l-0.301 0.062z"/></g><g transform="matrix(2.1261 0 0 2.1261 317.5 558.79)"><path fill="#d1d3d4" d="m0 0c-0.967 0.902-3.031 2.064-5.289 1.613-2.257-0.453-2.387-2.903-2.387-2.903 2.451 2.257 7.676 1.29 7.676 1.29"/></g><g transform="matrix(2.1261 0 0 2.1261 201.14 548.53)"><path fill="#0099d8" d="m0 0s12.118 2.32 25.979-0.954c0.498 0.447 1.072 0.902 1.737 1.364 0 0-12.71 3.526-27.716-0.41"/></g><g transform="matrix(2.1261 0 0 2.1261 201.27 538.46)"><path fill="#0099d8" d="m0 0s10.622 2.648 23.572 0.862c0.247 0.491 0.581 1.008 1.018 1.544-4.673 0.536-14.16 0.955-24.59-2.406"/></g><g transform="matrix(2.1261 0 0 2.1261 201.85 528.72)"><path fill="#0099d8" d="m0 0s10.037 3.1 22.693 2.225c-0.061 0.453-0.067 0.995 0.05 1.607-5.073 0.137-13.616-0.324-22.743-3.832"/></g><g transform="matrix(2.1261 0 0 2.1261 138.91 461.52)"><path fill="#0099d8" d="m0 0h0.005l0.06-0.006c0.22-0.02 0.928-0.085 0.967-0.089 0.096-0.009 1.311-0.137 1.321-0.138 1.726-0.193 3.474-0.436 5.235-0.735v0.001c3.971 14.533 15.143 22.301 15.143 22.301-15.111-7.308-21.465-19.206-22.731-21.334"/></g><g transform="matrix(2.1261 0 0 2.1261 290.41 504.33)"><path fill="#0099d8" d="m0 0c-0.945 4.384 1.553 7.386 1.553 7.386-5.677-4.979-2.24-9.964-0.522-13.831 1.719-3.867 1.032-6.704-0.687-8.681-1.719-1.978-6.446-2.149-9.626-1.548-3.179 0.602-4.813 3.955-5.673 7.908-0.858 3.953 0.688 10.916 0.688 10.916-2.32-3.525-2.32-10.744-0.516-16.589 1.805-5.844 6.532-7.304 9.97-7.304 3.439 0 9.626 2.921 8.672 9.88-0.954 6.958-2.913 7.48-3.859 11.863"/></g><g transform="matrix(2.1261 0 0 2.1261 211.82 496.77)"><path fill="#0099d8" d="m0 0c-5.93 6.004-6.11 12.795-6.11 12.795s-2.035-7.918 2.798-13.848c4.833-5.931 16.602-6.578 16.602-6.578s-7.36 1.627-13.29 7.631"/></g><g transform="matrix(2.1261 0 0 2.1261 275.58 552.02)"><path fill="#0099d8" d="m0 0c6.97-2.707 6.888-6.889 6.888-6.889 1.066 4.018 5.987 6.15 5.987 6.15s-2.543 1.23-6.069 1.476c-3.526 0.247-6.806-0.737-6.806-0.737"/></g><g transform="matrix(2.1261 0 0 2.1261 255.03 566.82)"><path fill="#0099d8" d="m0 0c-4.199 0.835-8.229-0.848-8.432-0.934-0.002-0.001-0.003-0.001-0.004-0.002-0.002-0.001-0.003-0.001-0.004-0.001l-0.001-0.001c3.87-0.066 5.049-0.41 5.049-0.41s1.006 1.802 3.392 1.348"/></g><g transform="matrix(2.1261 0 0 2.1261 284.05 450.86)"><path fill="#0099d8" d="m0 0-0.001-0.001c-0.045-0.016-2.51-0.885-5.562-0.336 0 0 4.037-3.907 8.137-12.451 0.002-0.005 0.004-0.009 0.006-0.014l0.158 0.012c-0.396 3.894-2.058 10.418-2.441 11.622l-0.297 1.168z"/></g><g transform="matrix(2.1261 0 0 2.1261 293.36 504.77)"><path d="m0 0s1.641 3.607 0.903 8.036c0 0-3.117 1.147-8.775 0 0 0-2.705-6.068-6.15-9.02 0 0 2.625 6.15 1.067 10.742 0 0 4.755 1.886 10.578 1.476 5.822-0.41 7.134-1.64 7.134-1.64s-1.476-6.971-4.757-9.594m-3.759-12.71c2.71 1.977 2.417 5.858 2.417 5.858 0.659-1.538 1.025-3.588 0.659-5.053-0.366-1.464-1.319-2.928-5.272-3.294-3.954-0.365-6.223 0.878-6.223 0.878 1.757 1.758 3.466 6.516 3.466 6.516 0.879-3.369 0.13-4.93 0.13-4.93 1.904-0.585 4.823 0.025 4.823 0.025m6.228 0.64c0.953-6.959-5.234-9.88-8.672-9.88s-8.166 1.46-9.97 7.304c-1.805 5.845-1.805 13.063 0.516 16.589 0 0-1.547-6.963-0.688-10.916 0.86-3.953 2.493-7.306 5.672-7.908 3.181-0.601 7.907-0.43 9.627 1.548 1.718 1.977 2.405 4.814 0.687 8.681-1.719 3.867-5.156 8.852 0.522 13.831 0 0-2.499-3.002-1.553-7.386 0.946-4.383 2.905-4.905 3.859-11.863m-22.211 28.781c-12.949 1.785-23.571-0.863-23.571-0.863 10.43 3.361 19.916 2.942 24.59 2.406-0.437-0.536-0.771-1.052-1.019-1.543m-0.608-3.221c-12.656 0.876-22.693-2.224-22.693-2.224 9.127 3.508 17.67 3.969 22.742 3.832-0.116-0.612-0.111-1.154-0.049-1.608m-21.317-18.305c-4.832 5.93-2.798 13.849-2.798 13.849s0.18-6.791 6.11-12.795 13.291-7.631 13.291-7.631-11.77 0.646-16.603 6.577m26.005 25.807c-0.665-0.462-1.24-0.917-1.738-1.364-13.86 3.274-25.978 0.954-25.978 0.954 15.006 3.936 27.716 0.41 27.716 0.41m-10.809 7.256c0.001 0 0.002 0 0.004 0.001 0.001 0.001 0.002 0.001 0.004 0.002 0.208 0.088 4.427 1.853 8.733 0.873 4.418-1.006 7.158-4 7.158-4s-3.966 1.188-11.319 1.059c0 0-0.288 0.536 0.468 1.654 0 0-1.178 0.344-5.049 0.41l0.001 0.001zm32.534-1.226c2.258 0.451 4.321-0.71 5.289-1.613 0 0-5.225 0.968-7.676-1.29 0 0 0.13 2.451 2.387 2.903m7.429-11.455c-0.082 0.468-0.213 0.866-0.376 1.212-0.001 0-0.132 0.33-0.528 0.847-0.34 0.432-0.72 0.771-1.065 1.097-0.755 0.712-2.114 1.135-2.114 1.135s-0.001 0-0.002 0.001c0.946-0.719 1.671-1.751 1.744-3.236 0.22-4.571-4.498-6.416-4.498-6.416 1.106 0.739 3.096 3.245 2.58 6.491-0.516 3.244-4.721 4.785-4.721 4.785s-4.922-2.132-5.987-6.15c0 0 0.082 4.182-6.889 6.889 0 0 3.28 0.985 6.806 0.738 3.527-0.246 6.07-1.477 6.07-1.477s0.652 1.719 4.113 2.307c3.46 0.587 7.204-0.26 7.204-0.26-0.692 1.262-1.488 3.101-4.967 4.523-3.479 1.421-6.598 0.135-6.598 0.135s-0.227 1.679-2.755 3.315c-4.109 2.658-14.976 4.242-17.071 4.354s1.568-1.237 3.038-2.074c1.668-0.951 3.537-2.566 3.696-4.098 0.041-0.411-0.056-0.771-0.241-1.069-0.147 0.429-0.456 0.975-1 1.673-2.975 3.824-10.53 5.477-16.196 5.099-5.665-0.377-10.166-2.521-10.166-2.521 0.064-0.523-2.091-2.351-8.032-3.005-5.662-0.621-9.657 0.414-11.095 0.626-0.037 0.01-0.074 0.018-0.109 0.021-0.583 0.074-1.02 0.046-1.203-0.373-0.008-0.018-0.014-0.038-0.02-0.058-0.004-0.025-0.008-0.051-0.012-0.076-0.025-0.292 0.154-0.696 0.154-0.696-0.033 0.063-0.061 0.116-0.083 0.158 0.404-0.775 2.813-5.213 5.986-7.493 0 0 1.897 0.402 4.148 0.643 0 0-34.779-16.925-48.869-43.371 6.14 0.719 14.217 1.183 22.987 0.411l-0.06 0.006h-0.005c1.266 2.128 7.62 14.026 22.732 21.334 0 0-11.173-7.767-15.144-22.301 5.052-0.859 10.212-2.188 15.264-4.154 16.243-6.331 29.933-12.948 45.366-12.811l2.625 0.114c-0.002 0.005-0.004 0.009-0.006 0.014-4.099 8.544-8.136 12.451-8.136 12.451 3.052-0.549 5.517 0.321 5.562 0.337 0.232 0.083 0.43 0.166 0.595 0.242 5.046 2.721 5.891 7.326 6.304 10.627 0.476 3.815-0.202 6.257-0.202 6.257s8.736 11.469 10.956 20.495c0 0 0.513 1.632 0.22 3.302"/></g><g transform="matrix(2.1261 0 0 2.1261 359.21 525.56)"><path fill="#0099d8" d="m0 0c-5.107 2.787-10.9 3.653-15.342 3.825h-0.026 0.026c0.167 0.563 0.37 1.279 0.567 2.051 0.099 0.006 0.168 0.011 0.168 0.011 8.904 0.292 13.611-2.064 13.611-2.064l-0.448 0.345c-4.339 2.011-8.925 2.744-12.895 2.857h-0.161c0.138 0.617 0.315 1.87 0.351 1.868l0.092-0.003c6.851-0.072 10.587-1.696 10.587-1.696l-0.449 0.354c-3.398 1.45-6.873 2.106-10.126 2.323 0.019 1.267-0.193 2.311-0.673 3.213 2.512 2.18 3.44 5.501 3.573 6.812v0.002c0 0.001 0.001 0.002 0.001 0.003 0.01 0.043 0.033 0.163 0.036 0.188 0.004 0.026 0.007 0.051 0.009 0.075 0.005 0.046 0.007 0.089 0.007 0.13 0 0.023 0 0.046-0.001 0.067-0.002 0.04-0.006 0.077-0.011 0.114-0.004 0.02-0.006 0.039-0.01 0.058-0.009 0.034-0.018 0.068-0.029 0.099-0.005 0.016-0.011 0.034-0.017 0.049-0.013 0.031-0.027 0.059-0.042 0.086-0.008 0.015-0.016 0.029-0.024 0.042-0.017 0.026-0.034 0.049-0.052 0.074-0.011 0.01-0.02 0.023-0.029 0.035-0.02 0.021-0.04 0.041-0.061 0.061-0.011 0.009-0.021 0.02-0.032 0.028-0.023 0.018-0.045 0.035-0.068 0.052-0.01 0.007-0.021 0.015-0.032 0.022-0.024 0.015-0.048 0.028-0.071 0.041-0.012 0.006-0.023 0.012-0.033 0.019-0.024 0.011-0.048 0.022-0.073 0.031-0.009 0.005-0.02 0.01-0.031 0.014-0.023 0.009-0.046 0.017-0.069 0.025-0.01 0.003-0.02 0.007-0.029 0.009-0.023 0.007-0.044 0.013-0.066 0.018-0.007 0.003-0.017 0.005-0.023 0.006-0.022 0.006-0.04 0.009-0.059 0.013-0.006 0.001-0.013 0.003-0.019 0.004-0.018 0.003-0.032 0.006-0.047 0.007-0.003 0-0.009 0.001-0.012 0.002-0.034 0.005-0.054 0.006-0.054 0.006-4.337-0.048-7.902 1.426-7.902 1.426-0.097 0.036-0.195 0.069-0.292 0.105-9.649 3.53-19.662 4.541-28.58 4.379l-0.002 0.008c-3.981-0.036-6.89-0.362-6.89-0.362-12.801-1.082-21.978-4.148-21.978-4.148s-3.484-0.984-8.124-0.753c0 0-1.723 0.03-2.063-1.065-0.292-0.698-0.331-1.53 0.326-3.35 0.756-2.097 3.782-6.04 3.805-6.071-9.155-3.719-33-17.094-54.363-43.986 0 0 4.514 1.174 11.614 2.005v0.001c14.091 26.446 48.869 43.371 48.869 43.371-2.25-0.241-4.147-0.643-4.147-0.643-3.173 2.28-5.582 6.718-5.986 7.492 0.022-0.042 0.05-0.095 0.083-0.158 0 0-0.179 0.405-0.154 0.697 0.002 0.026 0.006 0.051 0.012 0.076 0.005 0.02 0.012 0.04 0.02 0.058 0.182 0.419 0.62 0.447 1.203 0.373 0.034-0.003 0.071-0.011 0.109-0.021 1.438-0.212 5.433-1.248 11.095-0.626 5.941 0.654 8.096 2.481 8.032 3.005 0 0 4.501 2.143 10.166 2.52 5.666 0.379 13.22-1.274 16.195-5.098 0.545-0.698 0.854-1.245 1.001-1.673 0.185 0.297 0.282 0.657 0.241 1.069-0.159 1.532-2.028 3.147-3.696 4.098-1.47 0.837-5.133 2.186-3.038 2.074 2.094-0.112 12.962-1.696 17.07-4.354 2.529-1.636 2.756-3.315 2.756-3.315s3.119 1.285 6.597-0.135c3.48-1.422 4.276-3.261 4.968-4.523 0 0-0.367 3.68-3.51 6.057 0 0 0.778 0.004 2.008 0.104 0.019 0.002 0.038 0.003 0.059 0.005 0.133 0.011 0.27 0.023 0.413 0.037 0.036 0.002 0.074 0.007 0.111 0.01 0.052 0.005 0.102 0.01 0.155 0.015h-0.001c0.953 0.096 2.088 0.244 3.315 0.478 0.841 0.066 1.241 0.024 1.441-0.55l0.003-0.009c-0.014-0.052-0.029-0.108-0.047-0.166-0.022-0.066-0.047-0.136-0.077-0.21 0 0-1.297-3.884-3.71-5.634l-0.16-0.137s-3.744 0.847-7.204 0.26c-3.462-0.589-4.114-2.307-4.114-2.307s4.206-1.542 4.722-4.786c0.516-3.245-1.475-5.752-2.58-6.49 0 0 4.718 1.845 4.497 6.416-0.073 1.485-0.797 2.517-1.743 3.235 0.001-0.001 0.002-0.001 0.002-0.001s1.358-0.422 2.114-1.134c0.342-0.326 0.722-0.665 1.062-1.097 0.396-0.518 0.527-0.848 0.528-0.848 0.163-0.345 0.294-0.743 0.376-1.211 0.292-1.671-0.22-3.302-0.22-3.302-2.221-9.026-10.956-20.495-10.956-20.495 0.001 0.002 0.002 0.003 0.004 0.004 6.604 5.634 11.006 15.602 12.933 20.624 10.412-0.113 16.102-3.012 16.102-3.012l-0.387 0.392z"/></g></g></g></svg>
