<?xml version="1.0" encoding="UTF-8" standalone="no"?>
<!-- Created with Inkscape (http://www.inkscape.org/) -->

<svg
   xmlns:dc="http://purl.org/dc/elements/1.1/"
   xmlns:cc="http://creativecommons.org/ns#"
   xmlns:rdf="http://www.w3.org/1999/02/22-rdf-syntax-ns#"
   xmlns:svg="http://www.w3.org/2000/svg"
   xmlns="http://www.w3.org/2000/svg"
   xmlns:xlink="http://www.w3.org/1999/xlink"
   xmlns:sodipodi="http://sodipodi.sourceforge.net/DTD/sodipodi-0.dtd"
   xmlns:inkscape="http://www.inkscape.org/namespaces/inkscape"
   width="520"
   height="45"
   id="svg2"
   version="1.1"
   inkscape:version="0.48.5 r10040"
   sodipodi:docname="hunger2.svg">
  <defs
     id="defs4">
    <linearGradient
       id="linearGradient3765">
      <stop
         style="stop-color:#296e28;stop-opacity:1;"
         offset="0"
         id="stop3767" />
      <stop
         id="stop3773"
         offset="0.5"
         style="stop-color:#296e28;stop-opacity:1;" />
      <stop
         style="stop-color:#a50000;stop-opacity:1;"
         offset="1"
         id="stop3769" />
    </linearGradient>
    <linearGradient
       inkscape:collect="always"
       xlink:href="#linearGradient3765"
       id="linearGradient3771"
       x1="30"
       y1="22.5"
       x2="570"
       y2="22.5"
       gradientUnits="userSpaceOnUse"
       gradientTransform="matrix(0.92592593,0,0,1,-17.777778,1007.3622)" />
  </defs>
  <sodipodi:namedview
     id="base"
     pagecolor="#3f98a0"
     bordercolor="#666666"
     borderopacity="1.0"
     inkscape:pageopacity="0"
     inkscape:pageshadow="2"
     inkscape:zoom="11.560784"
     inkscape:cx="487.41603"
     inkscape:cy="21.904769"
     inkscape:document-units="px"
     inkscape:current-layer="g3059"
     showgrid="true"
     inkscape:snap-global="false"
     inkscape:window-width="1634"
     inkscape:window-height="818"
     inkscape:window-x="97"
     inkscape:window-y="166"
     inkscape:window-maximized="0"
     inkscape:snap-grids="true"
     inkscape:snap-page="false">
    <inkscape:grid
       type="xygrid"
       id="grid2985"
       empspacing="5"
       visible="true"
       enabled="true"
       snapvisiblegridlinesonly="true"
       spacingx="5px"
       spacingy="5px" />
  </sodipodi:namedview>
  <metadata
     id="metadata7">
    <rdf:RDF>
      <cc:Work
         rdf:about="">
        <dc:format>image/svg+xml</dc:format>
        <dc:type
           rdf:resource="http://purl.org/dc/dcmitype/StillImage" />
        <dc:title />
      </cc:Work>
    </rdf:RDF>
  </metadata>
  <g
     inkscape:label="Layer 1"
     inkscape:groupmode="layer"
     id="layer1"
     transform="translate(0,-1007.3622)">
    <g
       id="g3882"
       transform="translate(-45,0)">
      <path
         transform="translate(0,1007.3622)"
         inkscape:connector-curvature="0"
         id="path3775"
         d="M 75,30 75,15"
         style="fill:none;stroke:#000000;stroke-width:1.5;stroke-linecap:round;stroke-linejoin:miter;stroke-miterlimit:4;stroke-opacity:1;stroke-dasharray:none" />
      <path
         inkscape:connector-curvature="0"
         id="path3775-1"
         d="m 100,1037.3622 0,-15"
         style="fill:none;stroke:#000000;stroke-width:1.5;stroke-linecap:round;stroke-linejoin:miter;stroke-miterlimit:4;stroke-opacity:1;stroke-dasharray:none" />
      <path
         inkscape:connector-curvature="0"
         id="path3775-7"
         d="m 125,1037.3622 0,-15"
         style="fill:none;stroke:#000000;stroke-width:1.5;stroke-linecap:round;stroke-linejoin:miter;stroke-miterlimit:4;stroke-opacity:1;stroke-dasharray:none" />
      <path
         inkscape:connector-curvature="0"
         id="path3775-1-4"
         d="m 150,1037.3622 0,-15"
         style="fill:none;stroke:#000000;stroke-width:1.5;stroke-linecap:round;stroke-linejoin:miter;stroke-miterlimit:4;stroke-opacity:1;stroke-dasharray:none" />
      <path
         inkscape:connector-curvature="0"
         id="path3775-0"
         d="m 175,1037.3622 0,-15"
         style="fill:none;stroke:#000000;stroke-width:1.5;stroke-linecap:round;stroke-linejoin:miter;stroke-miterlimit:4;stroke-opacity:1;stroke-dasharray:none" />
      <path
         inkscape:connector-curvature="0"
         id="path3775-1-9"
         d="m 200,1037.3622 0,-15"
         style="fill:none;stroke:#000000;stroke-width:1.5;stroke-linecap:round;stroke-linejoin:miter;stroke-miterlimit:4;stroke-opacity:1;stroke-dasharray:none" />
      <path
         inkscape:connector-curvature="0"
         id="path3775-7-4"
         d="m 225,1037.3622 0,-15"
         style="fill:none;stroke:#000000;stroke-width:1.5;stroke-linecap:round;stroke-linejoin:miter;stroke-miterlimit:4;stroke-opacity:1;stroke-dasharray:none" />
      <path
         inkscape:connector-curvature="0"
         id="path3775-1-4-8"
         d="m 250,1037.3622 0,-15"
         style="fill:none;stroke:#000000;stroke-width:1.5;stroke-linecap:round;stroke-linejoin:miter;stroke-miterlimit:4;stroke-opacity:1;stroke-dasharray:none" />
      <path
         inkscape:connector-curvature="0"
         id="path3775-8"
         d="m 275,1037.3622 0,-15"
         style="fill:none;stroke:#000000;stroke-width:1.5;stroke-linecap:round;stroke-linejoin:miter;stroke-miterlimit:4;stroke-opacity:1;stroke-dasharray:none" />
      <path
         inkscape:connector-curvature="0"
         id="path3775-1-2"
         d="m 300,1037.3622 0,-15"
         style="fill:none;stroke:#000000;stroke-width:1.5;stroke-linecap:round;stroke-linejoin:miter;stroke-miterlimit:4;stroke-opacity:1;stroke-dasharray:none" />
      <path
         inkscape:connector-curvature="0"
         id="path3775-7-45"
         d="m 325,1037.3622 0,-15"
         style="fill:none;stroke:#000000;stroke-width:1.5;stroke-linecap:round;stroke-linejoin:miter;stroke-miterlimit:4;stroke-opacity:1;stroke-dasharray:none" />
      <path
         inkscape:connector-curvature="0"
         id="path3775-1-4-5"
         d="m 350,1037.3622 0,-15"
         style="fill:none;stroke:#000000;stroke-width:1.5;stroke-linecap:round;stroke-linejoin:miter;stroke-miterlimit:4;stroke-opacity:1;stroke-dasharray:none" />
      <path
         inkscape:connector-curvature="0"
         id="path3775-17"
         d="m 375,1037.3622 0,-15"
         style="fill:none;stroke:#000000;stroke-width:1.5;stroke-linecap:round;stroke-linejoin:miter;stroke-miterlimit:4;stroke-opacity:1;stroke-dasharray:none" />
      <path
         inkscape:connector-curvature="0"
         id="path3775-1-1"
         d="m 400,1037.3622 0,-15"
         style="fill:none;stroke:#000000;stroke-width:1.5;stroke-linecap:round;stroke-linejoin:miter;stroke-miterlimit:4;stroke-opacity:1;stroke-dasharray:none" />
      <path
         inkscape:connector-curvature="0"
         id="path3775-7-1"
         d="m 425,1037.3622 0,-15"
         style="fill:none;stroke:#000000;stroke-width:1.5;stroke-linecap:round;stroke-linejoin:miter;stroke-miterlimit:4;stroke-opacity:1;stroke-dasharray:none" />
      <path
         inkscape:connector-curvature="0"
         id="path3775-1-4-52"
         d="m 450,1037.3622 0,-15"
         style="fill:none;stroke:#000000;stroke-width:1.5;stroke-linecap:round;stroke-linejoin:miter;stroke-miterlimit:4;stroke-opacity:1;stroke-dasharray:none" />
      <path
         inkscape:connector-curvature="0"
         id="path3775-1-14"
         d="m 475,1037.3622 0,-15"
         style="fill:none;stroke:#000000;stroke-width:1.5;stroke-linecap:round;stroke-linejoin:miter;stroke-miterlimit:4;stroke-opacity:1;stroke-dasharray:none" />
      <path
         inkscape:connector-curvature="0"
         id="path3775-7-2"
         d="m 500,1037.3622 0,-15"
         style="fill:none;stroke:#000000;stroke-width:1.5;stroke-linecap:round;stroke-linejoin:miter;stroke-miterlimit:4;stroke-opacity:1;stroke-dasharray:none" />
      <path
         inkscape:connector-curvature="0"
         id="path3775-1-4-3"
         d="m 525,1037.3622 0,-15"
         style="fill:none;stroke:#000000;stroke-width:1.5;stroke-linecap:round;stroke-linejoin:miter;stroke-miterlimit:4;stroke-opacity:1;stroke-dasharray:none" />
    </g>
    <rect
       style="color:#000000;fill:none;stroke:#000000;stroke-width:1.5;stroke-opacity:1;marker:none;visibility:visible;display:inline;overflow:visible;enable-background:accumulate"
       id="rect3905"
       width="500"
       height="25"
       x="5"
       y="1017.3622" />
    <g
       id="g3059"
       transform="matrix(0.59443435,0,0,0.59443435,333.02661,389.95106)">
      <path
         inkscape:connector-curvature="0"
         id="path3840"
         d="m 286.17026,1078.6453 -15.73313,-9.7227 c 0,0 -2.65165,1.9446 -3.53553,0.1768 -0.88388,-1.7678 1.94454,-3.5355 1.94454,-3.5355 0,0 -1.41421,-3.182 1.41422,-2.4749 2.82842,0.7071 1.76776,2.8284 1.76776,2.8284 l 17.67767,11.3137 16.26346,-10.6066 c 0,0 -1.23744,-4.2426 1.23744,-4.2426 2.47487,0 2.47487,3.3587 2.47487,3.3587 0,0 3.0052,-1.2374 3.0052,1.7678 0,3.0052 -4.41941,1.591 -4.41941,1.591 l -14.84925,10.0762 13.61181,7.2479 c 0,0 3.53553,-1.9446 4.24264,0.8839 0.70711,2.8284 -2.82843,2.298 -2.82843,2.298 0,0 2.2981,3.3588 -0.53033,3.3588 -2.82842,0 -2.29809,-3.5355 -2.29809,-3.5355 l -15.73313,-8.1318 -16.61701,9.1924 c 0,0 2.12132,3.5356 -0.53033,3.8891 -2.65165,0.3536 -2.65165,-3.0052 -2.65165,-3.0052 0,0 -3.35876,-0.5303 -1.76777,-3.182 1.59099,-2.6516 3.18198,-0.3535 3.18198,-0.3535 z"
         style="fill:#f1f1f1;fill-opacity:1;stroke:#000000;stroke-width:1.68227160000000000px;stroke-linecap:butt;stroke-linejoin:miter;stroke-opacity:1" />
      <path
         inkscape:connector-curvature="0"
         id="path3838"
         d="m 280,1086.5341 0,-9.1719 c 0,0 -4.76484,-1.6539 -4.76484,-7.969 0,-6.3151 2.80285,-8.5705 13.73393,-8.8713 10.93108,-0.3007 13.87407,2.4058 14.15436,7.9691 0.28028,5.5633 -5.74583,8.8712 -5.74583,8.8712 l 0.14014,9.3223 z"
         style="fill:#f1f1f1;fill-opacity:1;stroke:#000000;stroke-width:1.68227160000000000px;stroke-linecap:butt;stroke-linejoin:miter;stroke-opacity:1" />
      <path
         inkscape:connector-curvature="0"
         id="path3842"
         d="m 283.50355,1086.2334 0.70071,-4.8115"
         style="fill:none;stroke:#000000;stroke-width:1.6822716px;stroke-linecap:butt;stroke-linejoin:miter;stroke-opacity:1" />
      <path
         inkscape:connector-curvature="0"
         id="path3844"
         d="m 288.40852,1086.5341 -0.84085,-4.2101"
         style="fill:none;stroke:#000000;stroke-width:1.6822716px;stroke-linecap:butt;stroke-linejoin:miter;stroke-opacity:1" />
      <path
         inkscape:connector-curvature="0"
         id="path3846"
         d="m 293.03321,1086.6845 -0.28028,-4.5108"
         style="fill:none;stroke:#000000;stroke-width:1.6822716px;stroke-linecap:butt;stroke-linejoin:miter;stroke-opacity:1" />
      <path
         inkscape:connector-curvature="0"
         id="path3848"
         d="m 279.43943,1069.2428 c 0.98099,-2.2554 5.74583,-3.9094 7.28739,-1.9547 1.54156,1.9547 -1.54156,6.7662 -4.20427,6.6158 -2.66269,-0.1503 -3.08312,-4.6611 -3.08312,-4.6611 z"
         style="fill:#000000;fill-opacity:1;stroke:none" />
      <path
         inkscape:connector-curvature="0"
         id="path3848-4"
         d="m 298.28466,1069.2235 c -0.98099,-2.2554 -5.74583,-3.9093 -7.28739,-1.9546 -1.54156,1.9546 1.54156,6.7661 4.20427,6.6158 2.66269,-0.1504 3.08312,-4.6612 3.08312,-4.6612 z"
         style="fill:#000000;fill-opacity:1;stroke:none" />
      <path
         inkscape:connector-curvature="0"
         id="path3868"
         d="m 288.68881,1074.6557 c -1.40142,0 -3.36341,2.4058 -2.10213,3.759 1.26128,1.3532 3.36341,1.6539 4.20426,0.1504 0.84085,-1.5036 -2.10213,-3.9094 -2.10213,-3.9094 z"
         style="fill:#000000;fill-opacity:1;stroke:none" />
    </g>
  </g>
</svg>
