<?xml version="1.0" encoding="UTF-8" standalone="no"?>
<!DOCTYPE svg  PUBLIC '-//W3C//DTD SVG 1.1//EN'  'http://www.w3.org/Graphics/SVG/1.1/DTD/svg11.dtd'>
<svg xmlns="http://www.w3.org/2000/svg" viewBox="-50 -17.212 200 68.849" enable-background="new -50 -17.212 200 68.849" height="68.849px" xml:space="preserve" width="200px" version="1.1" x="0px" y="0px">
<path d="m18.78 8.715h-10.767v15.647h10.767c2.672 0 6.04-2.578 6.029-7.604-0.007-5.216-3.917-8.043-6.029-8.043" fill="#EF3E42"/>
<path d="m49.562 12.528c-4.951 0-8.174 3.09-8.174 6.921 0 3.824 3.223 6.922 8.174 6.922 4.954 0 8.173-3.098 8.173-6.922-0.001-3.829-3.219-6.921-8.173-6.921" fill="#EF3E42"/>
<path d="m49.328-17.212l-99.328 33.746 99.328 35.103 100.67-34.876-100.67-33.973m-29.972 47.622h-20.576v-1.488c1.578-0.018 2.855-0.438 2.855-0.965h0.078v-22.681c0.006-0.024 0.03-0.036 0.03-0.046 0-0.026-0.024-0.04-0.03-0.063v-0.038h-0.02c-0.153-0.488-1.365-0.878-2.887-0.878h-0.025v-1.334h20.576c5.218 0 11.285 6.486 11.285 13.96 0 8.083-6.856 13.533-11.286 13.533zm30.182 1.074c-8.764 0-14.521-4.793-14.521-12.363 0-6.803 5.702-12.354 14.521-12.354 8.769 0 14.515 5.531 14.515 12.354 0 7.57-5.746 12.363-14.515 12.363zm57-21.557c-0.613 0.126-1.02 0.425-1.262 0.755-0.016 0.018-7.844 17.532-7.844 17.532-0.025 0.711-0.012 1.063 1.633 1.063v1.531l-10.831 0.082v-1.563c1.051 0 1.34-0.297 1.34-1.141 0-0.336-3.777-9.983-3.777-9.983l-4.418 9.628c-0.105 0.117-0.127 0.24-0.127 0.379 0 0.885 0.459 1.117 1.693 1.117h0.008v1.563l-11.684-0.045v-1.576c0.953-0.023 1.762-0.186 1.762-1.117 0-0.188 0-0.355-0.066-0.52l-6.512-16.842c0-0.008 0.02-0.021 0.012-0.03-0.287-0.527-0.176-0.911-1.869-0.911v-1.609h10.693v1.608c-0.832 0-1.371 0.069-1.371 0.911h-0.055l3.646 10.754 4.487-12.563h3.801l3.623-0.021 4.85 13.102 4.277-11.224c0-0.489-0.176-0.89-1.527-0.914-0.039-0.004-0.301-0.004-0.355-0.004v-1.657l10.973-0.044v1.708c0-0.003-0.9-0.007-1.1 0.031z" fill="#EF3E42"/>
<g fill="#fff">
	<path d="m1.716 28.007h-0.078c0 0.531-1.277 0.949-2.855 0.965v1.488h20.576c4.43 0 11.285-5.449 11.285-13.533 0-7.474-6.067-13.96-11.285-13.96h-20.576v1.334h0.025c1.522 0 2.734 0.391 2.889 0.878h0.02v0.038c0.006 0.022 0.03 0.036 0.03 0.063 0 0.01-0.024 0.021-0.03 0.046v22.681zm6.298-19.237h10.767c2.111 0 6.021 2.825 6.029 8.044 0.009 5.025-3.357 7.602-6.029 7.602h-10.767v-15.646z"/>
	<path d="m64.055 19.173c0-6.821-5.75-12.354-14.515-12.354-8.818 0-14.521 5.552-14.521 12.354 0 7.018 4.954 11.643 12.66 12.279h3.723c7.707-0.636 12.653-5.261 12.653-12.279zm-22.667 0.33c0-3.832 3.223-6.922 8.174-6.922 4.956 0 8.173 3.09 8.173 6.922 0 3.824-3.217 6.922-8.173 6.922-4.95 0-8.174-3.097-8.174-6.922z"/>
	<path d="m97.441 28.265s7.826-17.514 7.844-17.531c0.238-0.33 0.646-0.626 1.258-0.754 0.203-0.038 1.104-0.034 1.104-0.034v-1.708l-10.968 0.044v1.658c0.055 0 0.316 0 0.355 0.004 1.352 0.023 1.527 0.424 1.527 0.914l-4.277 11.222-4.85-13.1-3.622 0.02h-3.801l-4.486 12.564-3.646-10.755h0.055c0-0.842 0.539-0.911 1.371-0.911v-1.608h-10.694v1.608c1.693 0 1.582 0.384 1.869 0.911 0.01 0.009-0.012 0.022-0.012 0.03l6.512 16.844c0.066 0.162 0.066 0.33 0.066 0.52 0 0.93-0.807 1.094-1.762 1.117v1.576l11.684 0.045v-1.563h-0.008c-1.23 0-1.693-0.23-1.693-1.117 0-0.141 0.025-0.266 0.127-0.379l4.418-9.629s3.777 9.648 3.777 9.984c0 0.842-0.289 1.141-1.34 1.141v1.563l10.832-0.082v-1.531c-1.646 0-1.66-0.352-1.633-1.063z"/>
</g>
</svg>
