<?xml version="1.0" encoding="UTF-8" standalone="no"?>
<!-- Created with Inkscape (http://www.inkscape.org/) -->

<svg
   xmlns:dc="http://purl.org/dc/elements/1.1/"
   xmlns:cc="http://creativecommons.org/ns#"
   xmlns:rdf="http://www.w3.org/1999/02/22-rdf-syntax-ns#"
   xmlns:svg="http://www.w3.org/2000/svg"
   xmlns="http://www.w3.org/2000/svg"
   xmlns:sodipodi="http://sodipodi.sourceforge.net/DTD/sodipodi-0.dtd"
   xmlns:inkscape="http://www.inkscape.org/namespaces/inkscape"
   width="20"
   height="20"
   id="svg2"
   version="1.1"
   inkscape:version="0.48.5 r10040"
   sodipodi:docname="ub.svg">
  <defs
     id="defs4" />
  <sodipodi:namedview
     id="base"
     pagecolor="#ffffff"
     bordercolor="#666666"
     borderopacity="1.0"
     inkscape:pageopacity="0.0"
     inkscape:pageshadow="2"
     inkscape:zoom="16"
     inkscape:cx="9.5589399"
     inkscape:cy="11.781095"
     inkscape:document-units="px"
     inkscape:current-layer="layer1"
     showgrid="false"
     inkscape:window-width="871"
     inkscape:window-height="780"
     inkscape:window-x="100"
     inkscape:window-y="143"
     inkscape:window-maximized="0" />
  <metadata
     id="metadata7">
    <rdf:RDF>
      <cc:Work
         rdf:about="">
        <dc:format>image/svg+xml</dc:format>
        <dc:type
           rdf:resource="http://purl.org/dc/dcmitype/StillImage" />
        <dc:title></dc:title>
      </cc:Work>
    </rdf:RDF>
  </metadata>
  <g
     inkscape:label="Layer 1"
     inkscape:groupmode="layer"
     id="layer1"
     transform="translate(0,-1032.3622)">
    <text
       xml:space="preserve"
       style="font-size:20px;font-style:normal;font-variant:normal;font-weight:bold;font-stretch:normal;line-height:125%;letter-spacing:0px;word-spacing:0px;fill:#6ebc4b;fill-opacity:1;stroke:none;font-family:Roboto;-inkscape-font-specification:Roboto Bold"
       x="1.4375"
       y="1052.3622"
       id="text3774"
       sodipodi:linespacing="125%"><tspan
         sodipodi:role="line"
         id="tspan3776"
         x="1.4375"
         y="1052.3622"
         style="font-size:28px;fill:#6ebc4b;fill-opacity:1">B</tspan></text>
    <path
       style="fill:#000000;fill-opacity:1;stroke:none"
       d="M 3.1875,0.125 3.125,19.875 13.3125,19.8125 c 0,0 4.892431,-1.251077 4.625,-5.4375 -0.228148,-3.571478 -2.768741,-4.608854 -3.34375,-4.65625 0.885451,0.06664 2.960449,-1.8159 2.96875,-4.28125 0.01831,-5.43782839956 -4.5,-5 -4.5,-5 z M 11.5,3.3125 c 0,0 1.993234,0.2464437 2.125,2.4375 0.142768,2.3739982 -2,2.625 -2,2.625 L 7,8.5625 7.25,2.9375 z M 7.0625,11.375 11.625,11.25 c 0,0 2.375,0.499024 2.375,2.5 0,2.9375 -2.4375,3.125 -2.4375,3.125 L 7.4375,17 z"
       transform="translate(0,1032.3622)"
       id="p1"
       inkscape:connector-curvature="0"
       sodipodi:nodetypes="cccscscccsccccccsccc"
       inkscape:label="" />
    <path
       style="fill:none;stroke:none;stroke-width:1px;stroke-linecap:butt;stroke-linejoin:miter;stroke-opacity:1"
       d="m 3.125,19.9375 0,-19.81250004 10.625,0.0625 L 17.8125,3.5 l -0.125,4.6875 -2,2.4375 1.9375,2.75 -0.125,3.9375 -4.1875,2.5625 z"
       id="bounds"
       inkscape:connector-curvature="0"
       transform="translate(0,1032.3622)"
       inkscape:label="" />
  </g>
</svg>
