<?xml version="1.0" encoding="UTF-8" standalone="no"?>
<!DOCTYPE svg  PUBLIC '-//W3C//DTD SVG 1.1//EN'  'http://www.w3.org/Graphics/SVG/1.1/DTD/svg11.dtd'>
<svg x="0px" y="0px" width="226.98px" xmlns="http://www.w3.org/2000/svg" version="1.1" viewBox="0 0 226.979 226.979" height="226.98px" enable-background="new 0 0 226.979 226.979" xml:space="preserve">
		<path fill="#fff" d="m113.49 216.64c-27.553 0-53.457-10.73-72.94-30.213-19.482-19.484-30.212-45.389-30.212-72.939 0-27.553 10.729-53.457 30.212-72.939s45.387-30.212 72.94-30.212c27.552 0 53.455 10.73 72.938 30.212 19.482 19.482 30.214 45.387 30.214 72.939 0 27.551-10.731 53.455-30.214 72.939-19.49 19.48-45.39 30.21-72.94 30.21z"/>
		<path fill="#FFC422" d="m113.49 20.675c51.258 0 92.815 41.554 92.815 92.814 0 51.257-41.557 92.814-92.815 92.814-51.26 0-92.814-41.558-92.814-92.814 0.009-51.261 41.563-92.815 92.824-92.815m0-20.675c-15.312 0-30.177 3.003-44.182 8.927-13.517 5.717-25.652 13.897-36.068 24.313s-18.596 22.551-24.313 36.068c-5.924 14.005-8.927 28.869-8.927 44.182 0 15.311 3.003 30.177 8.927 44.18 5.717 13.518 13.897 25.652 24.313 36.067 10.416 10.417 22.551 18.598 36.067 24.314 14.005 5.924 28.87 8.928 44.182 8.928 15.311 0 30.177-3.004 44.181-8.928 13.517-5.717 25.651-13.897 36.067-24.313 10.417-10.416 18.597-22.551 24.313-36.067 5.924-14.004 8.928-28.87 8.928-44.181 0-15.312-3.004-30.177-8.928-44.182-5.717-13.517-13.896-25.651-24.313-36.067-10.416-10.416-22.551-18.596-36.067-24.313-14-5.925-28.87-8.928-44.18-8.928z"/>
			<polygon fill="#FFC422" points="122.14 73.221 104.8 73.215 104.8 11.487 122.14 11.487"/>
			<path fill="#231F20" d="m124.73 8.903v66.903l-22.515-0.007v-66.896h22.51m-5.17 5.169h-12.178v56.56l12.178 0.004v-56.564z"/>
			<polygon fill="#FFC422" points="122.14 215.65 104.8 215.65 104.8 154.07 122.14 154.07"/>
			<path fill="#231F20" d="m124.73 151.48v66.756h-22.515v-66.756h22.51m-5.17 5.17h-12.178v56.418h12.178v-56.42z"/>
			<path fill="#FFC422" d="m179.52 191.89l-42.468-42.468 3.499-3.498 0.759-0.758-0.002-1.072-0.015-14.963 50.493 50.492-12.27 12.27zm-132.1 0l-12.266-12.27 52.966-52.965 3.697-3.696v24.529l-44.397 44.4zm168.13-69.65h-79.901l-2.486-2.486-0.757-0.757h-1.069l-36.936-0.011-2.585-0.001v3.255h-80.422v-17.348h80.478v3.392h40.59l0.757-0.757 2.635-2.635h79.704v17.36h0.01zm-123.68-18.01l-3.747-3.746-52.965-52.96 12.266-12.266 44.446 44.446v24.53zm49.495-6.281l-0.016-14.771-0.001-1.069-0.757-0.756-3.582-3.582 42.519-42.517 12.267 12.266-50.43 50.429z"/>
			<path fill="#231F20" d="m179.52 31.599l15.921 15.921-54.793 54.792h77.489v22.515h-77.489l54.793 54.793-15.921 15.921-46.122-46.122 5.327-5.326-0.017-15.135-7.372-7.373-36.935-0.011v26.984l-46.982 46.982-15.925-15.9 54.793-54.793h-77.488v-22.515h77.489l-54.794-54.8 15.921-15.921 47.03 47.03v27.076h36.935l7.389-7.389-0.016-15.135-5.41-5.409 46.18-46.168m0 7.309l-38.862 38.863 1.754 1.754 1.512 1.512 0.002 2.138 0.009 8.542 44.2-44.197-8.61-8.612zm-132.1 0.001l-8.611 8.611 50.472 50.472v-17.222l-41.861-41.861zm165.55 68.571h-76.05l-1.878 1.878-1.513 1.514h-44.252v-3.392h-75.309v12.178h75.262v-3.256l5.171 0.002 36.934 0.012 2.14 0.001 1.514 1.513 1.729 1.729h76.248v-12.17zm-123.74 21.72l-50.424 50.42 8.611 8.611 41.813-41.813v-17.22zm54.648 6.17l0.009 8.715 0.003 2.145-1.516 1.517-1.673 1.67 38.813 38.813 8.61-8.611-44.24-44.24z"/>
		<g fill="#231F20">
			<path d="m142.02 172.15h-76.356v-17.773l1.374-1.31 6.749-6.433v-65.984l-6.75-6.442-1.372-1.309v-17.779h76.361l1.291 1.262 16.631 16.25 1.334 1.304v31.811l-1.358 1.307-6.846 6.578 6.849 6.6 1.355 1.307v31.813l-1.335 1.304-16.631 16.239-1.27 1.25zm-43.189-25.1h30.671l4.79-4.79-0.012-11.466-4.779-4.78-30.67-0.009v21.05h0.001zm0.048-45.77h30.67l4.791-4.793-0.012-11.463-4.781-4.781-30.668-0.009v21.046h-0.003z"/>
			<path d="m140.22 59.546l16.631 16.25v28.059l-10.164 9.768 10.164 9.795v28.063l-16.631 16.239h-70.122v-11.445l8.123-7.741v-69.79l-8.123-7.751v-11.453h70.122m-45.771 46.154h36.935l7.389-7.389-0.016-15.135-7.373-7.372-36.935-0.012v29.908m-0.044 45.78h36.935l7.389-7.389-0.017-15.135-7.372-7.373-36.935-0.011v29.9m49.425-100.79h-82.592v24.105l2.743 2.618 5.379 5.133v62.197l-5.375 5.123-2.747 2.618v24.101h82.593l2.581-2.521 16.632-16.239 2.67-2.607v-35.563l-2.712-2.613-3.533-3.405 3.525-3.388 2.72-2.615v-35.578l-2.668-2.607-16.632-16.25-2.59-2.523zm-40.52 46.158v-12.184l24.403 0.007 2.186 2.187 0.009 7.795-2.193 2.194h-24.41v0.001zm-0.05 45.776v-12.183l24.402 0.007 2.187 2.188 0.009 7.794-2.193 2.193h-24.41z"/>
		</g>
			<path fill="#231F20" d="m141.05 169.75h-72.979v-14.344l0.629-0.6 7.493-7.143v-68.051l-7.494-7.151-0.628-0.6v-14.353h72.982l0.593 0.578 16.631 16.251 0.612 0.597v29.779l-0.625 0.599-8.641 8.306 8.644 8.329 0.622 0.599v29.784l-0.613 0.597-16.631 16.239-0.59 0.57zm-44.618-20.3h34.065l6.197-6.197-0.016-13.456-6.182-6.183-34.065-0.011v25.85h-0.003zm0.048-45.78h34.063l6.198-6.197-0.015-13.454-6.184-6.184-34.06-0.007v25.842z"/>
			<path fill="#FFC422" d="m140.22 59.546l16.631 16.25v28.059l-10.164 9.768 10.164 9.795v28.063l-16.631 16.239h-70.122v-11.445l8.123-7.741v-69.79l-8.123-7.751v-11.453h70.122m-45.771 46.154h36.935l7.389-7.389-0.016-15.135-7.373-7.372-36.935-0.012v29.908m-0.044 45.78h36.935l7.389-7.389-0.017-15.135-7.372-7.373-36.935-0.011v29.9m47.475-95.995h-75.838v17.252l1.257 1.2 6.865 6.551v66.307l-6.863 6.541-1.259 1.2v17.246h75.839l1.184-1.155 16.631-16.239 1.225-1.195v-31.502l-1.244-1.197-7.123-6.865 7.119-6.845 1.248-1.198v-31.492l-1.224-1.195-16.631-16.25-1.18-1.157zm-43.369 46.155v-21.781l31.191 0.01 4.995 4.996 0.013 11.771-5.008 5.008h-31.189zm-0.049 45.78v-21.784l31.191 0.01 4.996 4.996 0.013 11.771-5.009 5.008h-31.188v-0.01z"/>
		<path fill="#231F20" d="m113.49 20.675c51.258 0 92.815 41.554 92.815 92.814 0 51.257-41.557 92.814-92.815 92.814-51.26 0-92.814-41.558-92.814-92.814 0.009-51.261 41.563-92.815 92.824-92.815m0-16.244c-14.715 0-29 2.885-42.456 8.577-12.989 5.494-24.65 13.355-34.661 23.366-10.011 10.01-17.872 21.672-23.366 34.66-5.691 13.455-8.577 27.739-8.577 42.456 0 14.715 2.886 28.999 8.577 42.455 5.494 12.987 13.355 24.649 23.366 34.659 10.01 10.012 21.672 17.873 34.66 23.367 13.457 5.692 27.741 8.577 42.456 8.577 14.716 0 29-2.885 42.456-8.577 12.987-5.494 24.649-13.355 34.66-23.366s17.873-21.673 23.366-34.66c5.692-13.456 8.577-27.74 8.577-42.455 0-14.716-2.885-29-8.577-42.456-5.493-12.988-13.355-24.65-23.366-34.66-10.011-10.011-21.673-17.872-34.661-23.366-13.46-5.682-27.74-8.567-42.46-8.567z"/>
</svg>
