<?xml version="1.0" encoding="UTF-8" standalone="no"?>
<svg version="1.0" xmlns:rdf="http://www.w3.org/1999/02/22-rdf-syntax-ns#" xmlns:dc="http://purl.org/dc/elements/1.1/" xmlns="http://www.w3.org/2000/svg" viewBox="0 0 200 200" xmlns:cc="http://creativecommons.org/ns#">
<metadata>
<rdf:RDF>
<cc:Work rdf:about="">
<dc:format>image/svg+xml</dc:format>
<dc:type rdf:resource="http://purl.org/dc/dcmitype/StillImage"/>
</cc:Work>
</rdf:RDF>
</metadata>
<g transform="translate(-79.563 -401.49)">
<g fill-rule="evenodd" transform="matrix(.51811 0 0 .51913 46.809 341.12)">
<path fill="#00a330" d="m278.92 178.92c-8.445-19.963-18.828-35.198-22.92-41.362-4.115 6.165-14.479 21.399-22.921 41.362 8.275 8.895 16.422 19.373 22.921 31.259 6.481-11.886 14.663-22.364 22.92-31.259"/>
<path fill="#00a330" d="m233.08 438.93c8.441 19.948 18.806 35.193 22.921 41.351 4.092-6.157 14.475-21.387 22.92-41.351-8.258-8.919-16.439-19.395-22.92-31.279-6.5 11.884-14.646 22.36-22.921 31.279"/>
<path fill="#00a330" d="m233.08 178.92c-14.732-15.89-29.697-26.65-35.65-31.025-1.766 7.184-6.296 25.058-7.387 46.713 10.782 5.533 22.053 12.594 32.208 21.52 2.04-13.386 6.123-26.034 10.829-37.208"/>
<path fill="#00a330" d="m278.92 438.93c14.712 15.877 29.703 26.623 35.662 31.018 1.747-7.199 6.289-25.071 7.379-46.694-10.781-5.538-22.054-12.621-32.216-21.55-2.032 13.391-6.128 26.034-10.825 37.226"/>
<path fill="#00a330" d="m190.05 194.6c-19.272-9.876-37.017-14.877-44.113-16.968 0.794 7.375 2.636 25.722 9.012 46.437 12.024 1.48 25.018 4.274 37.629 9.207-2.675-13.274-3.15-26.572-2.528-38.676"/>
<path fill="#00a330" d="m321.96 423.25c19.264 9.866 37.003 14.858 44.11 16.933-0.782-7.358-2.646-25.704-9.021-46.416-12.02-1.502-25.016-4.293-37.634-9.233 2.68 13.307 3.159 26.586 2.545 38.716"/>
<path fill="#00a330" d="m170.55 259.56c-7.028-11.575-12.031-23.908-15.604-35.483-21.497-2.699-39.858-1.32-47.258-0.839 3.271 6.636 11.279 23.239 24.326 40.536 11.833-2.713 25.007-4.534 38.536-4.214"/>
<path fill="#00a330" d="m341.44 358.28c7.055 11.57 12.066 23.91 15.612 35.483 21.504 2.688 39.867 1.305 47.267 0.854-3.283-6.672-11.261-23.279-24.338-40.577-11.821 2.719-24.978 4.553-38.541 4.24"/>
<path fill="#00a330" d="m132.01 263.77c-21.101 4.822-37.889 12.398-44.668 15.382 5.353 5.109 18.545 17.989 36.733 29.763 10.163-6.57 21.915-12.822 34.745-17.146-10.571-8.479-19.474-18.341-26.81-27.999"/>
<path fill="#00a330" d="m387.91 308.91c-10.163 6.588-21.913 12.82-34.737 17.149 10.562 8.462 19.493 18.32 26.808 27.979 21.12-4.819 37.917-12.388 44.676-15.37-5.353-5.107-18.546-18.008-36.747-29.758"/>
<path fill="#00a330" d="m158.82 326.06c-12.831-4.329-24.583-10.562-34.745-17.149-18.188 11.75-31.38 24.651-36.733 29.759 6.779 2.982 23.567 10.551 44.668 15.37 7.336-9.652 16.239-19.518 26.81-27.98"/>
<path fill="#00a330" d="m353.17 291.77c12.824 4.323 24.574 10.575 34.737 17.146 18.201-11.773 31.395-24.653 36.746-29.763-6.759-2.983-23.556-10.56-44.676-15.382-7.314 9.658-16.245 19.52-26.807 27.999"/>
<path fill="#00a330" d="m132.01 354.04c-13.047 17.298-21.055 33.905-24.326 40.577 7.4 0.45 25.761 1.833 47.258-0.854 3.573-11.573 8.576-23.913 15.604-35.483-13.53 0.312-26.704-1.522-38.536-4.24"/>
<path fill="#00a330" d="m379.98 263.77c13.077-17.297 21.055-33.9 24.338-40.563-7.399-0.454-25.763-1.833-47.267 0.866-3.546 11.575-8.558 23.909-15.612 35.483 13.563-0.32 26.72 1.501 38.541 4.214"/>
<path fill="#00a330" d="m192.57 384.53c-12.612 4.94-25.605 7.725-37.629 9.233-6.375 20.712-8.218 39.058-9.012 46.416 7.096-2.074 24.841-7.066 44.113-16.933-0.622-12.129-0.147-25.408 2.528-38.716"/>
<path fill="#00a330" d="m319.42 233.28c12.618-4.939 25.614-7.727 37.634-9.207 6.375-20.715 8.239-39.062 9.021-46.437-7.107 2.069-24.847 7.071-44.11 16.949 0.614 12.123 0.135 25.389-2.545 38.695"/>
<path fill="#00a330" d="m190.05 423.25c1.091 21.623 5.621 39.495 7.387 46.694 5.953-4.395 20.917-15.141 35.65-31.018-4.706-11.191-8.788-23.835-10.829-37.227-10.155 8.93-21.426 16.013-32.208 21.551"/>
<path fill="#00a330" d="m321.96 194.58c-1.09-21.637-5.632-39.511-7.379-46.694-5.959 4.375-20.95 15.136-35.662 31.025 4.696 11.156 8.793 23.822 10.825 37.208 10.163-8.926 21.435-16.008 32.216-21.539"/>
<path fill="#3bbd00" d="m244.26 242.3c2.166-11.59 6.382-22.332 11.745-32.131-6.499-11.886-14.646-22.364-22.921-31.259-4.706 11.174-8.788 23.822-10.829 37.208 8.389 7.387 16.033 16.039 22.005 26.182"/>
<path fill="#3bbd00" d="m267.75 375.53c-2.181 11.582-6.376 22.319-11.747 32.118 6.48 11.885 14.662 22.36 22.92 31.279 4.696-11.191 8.793-23.835 10.825-37.227-8.376-7.383-16.033-16.038-21.998-26.17"/>
<path fill="#3bbd00" d="m192.57 233.28c10.394 4.053 20.528 9.573 29.618 17.047-1.908-11.614-1.633-23.15 0.062-34.203-10.155-8.926-21.426-15.987-32.208-21.52-0.622 12.104-0.147 25.402 2.528 38.676"/>
<path fill="#3bbd00" d="m319.42 384.53c-10.39-4.035-20.515-9.567-29.604-17.025 1.924 11.607 1.616 23.129-0.067 34.192 10.162 8.929 21.435 16.012 32.216 21.55 0.614-12.13 0.135-25.409-2.545-38.717"/>
<path fill="#3bbd00" d="m204.22 265.43c-5.795-10.258-9.447-21.2-11.65-32.152-12.612-4.933-25.605-7.727-37.629-9.207 3.573 11.575 8.576 23.909 15.604 35.483 11.14 0.242 22.574 1.975 33.675 5.876"/>
<path fill="#3bbd00" d="m307.79 352.39c5.771 10.253 9.449 21.198 11.633 32.143 12.618 4.94 25.614 7.731 37.634 9.233-3.546-11.573-8.558-23.913-15.612-35.483-11.147-0.256-22.555-1.976-33.655-5.893"/>
<path fill="#3bbd00" d="m158.82 291.77c10.571-3.585 21.885-5.87 33.661-5.991-8.947-7.67-16.152-16.688-21.936-26.222-13.53-0.319-26.704 1.501-38.535 4.214 7.336 9.658 16.239 19.52 26.81 27.999"/>
<path fill="#3bbd00" d="m353.17 326.06c-10.583 3.563-21.875 5.863-33.65 5.979 8.947 7.655 16.141 16.693 21.917 26.239 13.563 0.312 26.72-1.521 38.541-4.239-7.315-9.658-16.246-19.517-26.808-27.979"/>
<path fill="#3bbd00" d="m188.39 308.91c-11.007-4.134-20.847-10.178-29.565-17.146-12.831 4.323-24.583 10.575-34.745 17.146 10.163 6.588 21.915 12.82 34.745 17.149 8.718-6.992 18.557-13.018 29.565-17.149"/>
<path fill="#3bbd00" d="m323.6 308.91c11.028 4.131 20.862 10.157 29.571 17.149 12.824-4.329 24.574-10.562 34.737-17.149-10.163-6.57-21.913-12.822-34.737-17.146-8.709 6.968-18.543 13.012-29.571 17.146"/>
<path fill="#3bbd00" d="m170.55 358.28c5.784-9.546 12.989-18.584 21.936-26.239-11.775-0.116-23.09-2.404-33.661-5.979-10.571 8.462-19.475 18.327-26.81 27.979 11.832 2.718 25.006 4.552 38.535 4.239"/>
<path fill="#3bbd00" d="m341.44 259.56c-5.776 9.533-12.97 18.552-21.917 26.222 11.775 0.121 23.067 2.406 33.65 5.991 10.562-8.479 19.493-18.341 26.808-27.999-11.821-2.713-24.978-4.534-38.541-4.214"/>
<path fill="#3bbd00" d="m204.22 352.39c-11.101 3.917-22.534 5.638-33.676 5.893-7.028 11.57-12.031 23.91-15.604 35.483 12.024-1.509 25.018-4.293 37.629-9.233 2.204-10.945 5.855-21.89 11.651-32.143"/>
<path fill="#3bbd00" d="m307.79 265.43c11.101-3.9 22.509-5.634 33.654-5.875 7.055-11.575 12.066-23.908 15.612-35.483-12.02 1.48-25.016 4.267-37.634 9.207-2.183 10.951-5.861 21.892-11.632 32.151"/>
<path fill="#3bbd00" d="m244.26 375.53c-5.972 10.132-13.616 18.787-22.005 26.171 2.041 13.392 6.123 26.035 10.829 37.227 8.275-8.919 16.422-19.395 22.921-31.279-5.363-9.799-9.58-20.537-11.745-32.119"/>
<path fill="#3bbd00" d="m222.19 367.51c-9.09 7.458-19.224 12.99-29.618 17.025-2.675 13.308-3.15 26.587-2.528 38.717 10.782-5.538 22.053-12.621 32.208-21.55-1.695-11.063-1.97-22.592-0.062-34.192"/>
<path fill="#3bbd00" d="m267.75 242.3c5.965-10.143 13.621-18.808 21.998-26.182-2.032-13.386-6.129-26.052-10.825-37.208-8.258 8.895-16.439 19.373-22.92 31.259 5.372 9.799 9.567 20.54 11.747 32.131"/>
<path fill="#3bbd00" d="m289.82 250.33c9.089-7.475 19.214-12.995 29.604-17.047 2.68-13.306 3.158-26.572 2.545-38.695-10.781 5.531-22.054 12.613-32.216 21.539 1.683 11.053 1.991 22.589 0.067 34.203"/>
<path fill="#ffe400" d="m244.31 276.79c-2.294-12.166-2.056-23.691-0.048-34.488-5.972-10.143-13.616-18.795-22.005-26.182-1.695 11.053-1.97 22.589-0.062 34.203 8.505 6.989 16.082 15.667 22.115 26.467"/>
<path fill="#ffe400" d="m267.69 341.04c2.3 12.133 2.079 23.668 0.061 34.483 5.965 10.132 13.621 18.787 21.998 26.171 1.684-11.063 1.991-22.585 0.067-34.192-8.493-7.004-16.083-15.68-22.126-26.462"/>
<path fill="#ffe400" d="m222.19 250.33c-9.09-7.475-19.224-12.995-29.618-17.047 2.204 10.952 5.855 21.894 11.65 32.152 10.364 3.639 20.447 9.224 29.808 17.271-6.296-10.62-10.037-21.517-11.84-32.376"/>
<path fill="#ffe400" d="m289.82 367.51c9.089 7.458 19.214 12.99 29.604 17.025-2.184-10.944-5.861-21.89-11.633-32.143-10.358-3.653-20.454-9.233-29.838-17.274 6.32 10.625 10.078 21.526 11.867 32.392"/>
<path fill="#ffe400" d="m226.42 291.81c-9.575-7.824-16.828-16.8-22.191-26.38-11.101-3.9-22.534-5.634-33.676-5.875 5.784 9.533 12.989 18.552 21.936 26.222 10.965-0.131 22.36 1.664 33.931 6.033"/>
<path fill="#ffe400" d="m285.59 326c9.558 7.836 16.817 16.794 22.195 26.385 11.101 3.917 22.509 5.638 33.654 5.893-5.776-9.546-12.97-18.584-21.917-26.239-10.982 0.128-22.354-1.654-33.932-6.039"/>
<path fill="#ffe400" d="m222.35 302.98c-11.678-4.101-21.536-10.038-29.867-17.203-11.775 0.121-23.09 2.406-33.661 5.991 8.719 6.968 18.558 13.012 29.565 17.146 10.305-3.873 21.61-6.095 33.963-5.934"/>
<path fill="#ffe400" d="m289.66 314.82c11.659 4.113 21.525 10.066 29.866 17.22 11.775-0.116 23.067-2.416 33.65-5.979-8.709-6.992-18.543-13.019-29.571-17.149-10.292 3.865-21.592 6.084-33.945 5.908"/>
<path fill="#ffe400" d="m188.39 308.91c-11.007 4.131-20.847 10.157-29.565 17.149 10.571 3.575 21.885 5.863 33.661 5.979 8.331-7.153 18.189-13.106 29.867-17.196-12.354 0.153-23.659-2.066-33.963-5.932"/>
<path fill="#ffe400" d="m323.6 308.91c11.028-4.134 20.862-10.178 29.571-17.146-10.583-3.585-21.875-5.87-33.65-5.991-8.341 7.165-18.207 13.103-29.866 17.203 12.353-0.161 23.653 2.061 33.945 5.934"/>
<path fill="#ffe400" d="m226.42 326c-11.57 4.385-22.965 6.167-33.932 6.038-8.947 7.655-16.152 16.693-21.936 26.239 11.142-0.255 22.576-1.976 33.676-5.893 5.364-9.59 12.617-18.548 22.192-26.384"/>
<path fill="#ffe400" d="m285.58 291.81c11.587-4.368 22.958-6.163 33.941-6.033 8.947-7.67 16.141-16.688 21.917-26.222-11.146 0.241-22.554 1.975-33.654 5.875-5.378 9.58-12.638 18.555-22.204 26.38"/>
<path fill="#ffe400" d="m244.26 375.53c2.166 11.582 6.382 22.319 11.745 32.118 5.371-9.799 9.566-20.536 11.747-32.118-5.602-9.487-9.73-20.222-11.747-32.415-2.005 12.194-6.137 22.928-11.745 32.415"/>
<path fill="#ffe400" d="m244.31 341.04c-6.033 10.782-13.61 19.458-22.115 26.462-1.908 11.601-1.633 23.129 0.062 34.192 8.389-7.384 16.033-16.039 22.005-26.171-2.008-10.815-2.246-22.35 0.048-34.483"/>
<path fill="#ffe400" d="m204.22 352.39c-5.795 10.253-9.447 21.198-11.65 32.143 10.394-4.035 20.528-9.567 29.618-17.025 1.803-10.866 5.544-21.767 11.847-32.392-9.369 8.04-19.452 13.62-29.815 17.274"/>
<path fill="#ffe400" d="m267.75 242.3c-2.181-11.59-6.376-22.332-11.747-32.131-5.363 9.799-9.579 20.541-11.745 32.131 5.608 9.448 9.74 20.211 11.745 32.414 2.017-12.203 6.146-22.966 11.747-32.414"/>
<path fill="#ffe400" d="m267.69 276.79c6.043-10.8 13.633-19.478 22.126-26.467 1.924-11.614 1.616-23.15-0.067-34.203-8.377 7.374-16.033 16.039-21.998 26.182 2.018 10.797 2.239 22.322-0.061 34.488"/>
<path fill="#ffe400" d="m307.79 265.43c5.771-10.258 9.449-21.2 11.633-32.152-10.39 4.053-20.515 9.573-29.604 17.047-1.789 10.858-5.547 21.756-11.867 32.385 9.384-8.057 19.479-13.622 29.838-17.28"/>
<path fill="#fff" d="m244.31 276.79c-6.033-10.8-13.61-19.478-22.115-26.467 1.803 10.858 5.544 21.756 11.84 32.375-9.361-8.047-19.444-13.632-29.808-17.271 5.363 9.58 12.616 18.556 22.191 26.38-11.57-4.368-22.965-6.163-33.932-6.033 8.331 7.165 18.189 13.103 29.867 17.203-12.353-0.161-23.658 2.061-33.962 5.934 10.305 3.866 21.609 6.085 33.962 5.933-11.678 4.09-21.536 10.043-29.867 17.196 10.966 0.129 22.361-1.653 33.932-6.038-9.575 7.836-16.828 16.794-22.191 26.385 10.364-3.653 20.447-9.233 29.814-17.274-6.303 10.625-10.043 21.525-11.847 32.392 8.505-7.004 16.082-15.68 22.115-26.462-2.294 12.133-2.056 23.668-0.048 34.483 5.608-9.487 9.74-20.222 11.745-32.415 2.017 12.193 6.146 22.928 11.747 32.415 2.019-10.815 2.239-22.351-0.061-34.483 6.043 10.782 13.633 19.458 22.126 26.462-1.789-10.866-5.547-21.767-11.867-32.392 9.384 8.041 19.479 13.621 29.838 17.274-5.378-9.591-12.638-18.549-22.195-26.385 11.578 4.385 22.949 6.167 33.933 6.038-8.341-7.153-18.207-13.106-29.866-17.22 12.354 0.176 23.653-2.043 33.945-5.909-10.292-3.873-21.592-6.095-33.945-5.934 11.659-4.101 21.525-10.038 29.866-17.203-10.983-0.13-22.354 1.665-33.941 6.033 9.566-7.824 16.826-16.8 22.204-26.38-10.358 3.658-20.454 9.224-29.838 17.28 6.32-10.629 10.078-21.526 11.867-32.385-8.493 6.989-16.083 15.667-22.126 26.467 2.3-12.166 2.079-23.691 0.061-34.488-5.602 9.448-9.73 20.211-11.747 32.414-2.005-12.203-6.137-22.966-11.745-32.414-2.008 10.798-2.246 22.323 0.048 34.489"/>
</g>
</g>
</svg>
