<?xml version="1.0" encoding="UTF-8" standalone="no"?>
<!-- Created with Inkscape (http://www.inkscape.org/) -->

<svg
   xmlns:dc="http://purl.org/dc/elements/1.1/"
   xmlns:cc="http://creativecommons.org/ns#"
   xmlns:rdf="http://www.w3.org/1999/02/22-rdf-syntax-ns#"
   xmlns:svg="http://www.w3.org/2000/svg"
   xmlns="http://www.w3.org/2000/svg"
   xmlns:xlink="http://www.w3.org/1999/xlink"
   xmlns:sodipodi="http://sodipodi.sourceforge.net/DTD/sodipodi-0.dtd"
   xmlns:inkscape="http://www.inkscape.org/namespaces/inkscape"
   width="610"
   height="660"
   id="svg3012"
   version="1.1"
   inkscape:version="0.48.5 r10040"
   sodipodi:docname="background.svg">
  <defs
     id="defs3014">
    <linearGradient
       id="linearGradient4321">
      <stop
         style="stop-color:#ffffff;stop-opacity:0.54954952;"
         offset="0"
         id="stop4323" />
      <stop
         style="stop-color:#ffffff;stop-opacity:0;"
         offset="1"
         id="stop4325" />
    </linearGradient>
    <linearGradient
       id="linearGradient4187">
      <stop
         style="stop-color:#e5e5e5;stop-opacity:1;"
         offset="0"
         id="stop4189" />
      <stop
         style="stop-color:#d1d1d1;stop-opacity:1;"
         offset="1"
         id="stop4191" />
    </linearGradient>
    <linearGradient
       id="linearGradient4179">
      <stop
         style="stop-color:#c3e1e1;stop-opacity:1;"
         offset="0"
         id="stop4181" />
      <stop
         id="stop4291"
         offset="0.25"
         style="stop-color:#cae3e3;stop-opacity:1;" />
      <stop
         id="stop4289"
         offset="0.5"
         style="stop-color:#d1e6e6;stop-opacity:1;" />
      <stop
         style="stop-color:#e0ebeb;stop-opacity:1;"
         offset="1"
         id="stop4183" />
    </linearGradient>
    <linearGradient
       id="linearGradient3775">
      <stop
         style="stop-color:#a8b0b5;stop-opacity:1;"
         offset="0"
         id="stop3777" />
      <stop
         style="stop-color:#4d7e99;stop-opacity:1;"
         offset="1"
         id="stop3779" />
    </linearGradient>
    <linearGradient
       inkscape:collect="always"
       xlink:href="#linearGradient3775"
       id="linearGradient3781"
       x1="226.59575"
       y1="0"
       x2="467.44681"
       y2="514.04254"
       gradientUnits="userSpaceOnUse" />
    <filter
       inkscape:label="Noisy blur"
       inkscape:menu="Blurs"
       inkscape:menu-tooltip="Small-scale roughening and blurring to edges and content"
       x="-0.25"
       width="1.5"
       y="-0.25"
       height="1.5"
       color-interpolation-filters="sRGB"
       id="filter3841">
      <feGaussianBlur
         stdDeviation="5"
         result="result1"
         id="feGaussianBlur3843" />
      <feTurbulence
         numOctaves="1"
         seed="0"
         type="fractalNoise"
         baseFrequency="0.1"
         result="result2"
         id="feTurbulence3845" />
      <feDisplacementMap
         scale="5"
         yChannelSelector="G"
         xChannelSelector="R"
         result="result3"
         in="result1"
         in2="result2"
         id="feDisplacementMap3847" />
      <feComposite
         operator="atop"
         in2="result3"
         id="feComposite3849" />
    </filter>
    <linearGradient
       inkscape:collect="always"
       xlink:href="#linearGradient4179"
       id="linearGradient4185"
       x1="395.2482"
       y1="875.78357"
       x2="651.56384"
       y2="1023.6559"
       gradientUnits="userSpaceOnUse" />
    <linearGradient
       inkscape:collect="always"
       xlink:href="#linearGradient4187"
       id="linearGradient4193"
       x1="255.31915"
       y1="850.94373"
       x2="363.1915"
       y2="1042.4331"
       gradientUnits="userSpaceOnUse" />
    <linearGradient
       inkscape:collect="always"
       xlink:href="#linearGradient4321"
       id="linearGradient4327"
       x1="513.89148"
       y1="769.22742"
       x2="475.63498"
       y2="705.39764"
       gradientUnits="userSpaceOnUse"
       gradientTransform="translate(3.1914894,4.2553191)" />
  </defs>
  <sodipodi:namedview
     id="base"
     pagecolor="#ffffff"
     bordercolor="#666666"
     borderopacity="1.0"
     inkscape:pageopacity="0.0"
     inkscape:pageshadow="2"
     inkscape:zoom="0.94"
     inkscape:cx="46.252683"
     inkscape:cy="358.96549"
     inkscape:document-units="px"
     inkscape:current-layer="layer1"
     showgrid="true"
     inkscape:snap-grids="false"
     inkscape:window-width="1351"
     inkscape:window-height="898"
     inkscape:window-x="96"
     inkscape:window-y="46"
     inkscape:window-maximized="0"
     inkscape:snap-page="true"
     inkscape:snap-to-guides="false">
    <inkscape:grid
       type="xygrid"
       id="grid3020"
       empspacing="5"
       visible="true"
       enabled="true"
       snapvisiblegridlinesonly="true"
       spacingx="40px"
       spacingy="40px"
       originx="5px"
       originy="30px" />
  </sodipodi:namedview>
  <metadata
     id="metadata3017">
    <rdf:RDF>
      <cc:Work
         rdf:about="">
        <dc:format>image/svg+xml</dc:format>
        <dc:type
           rdf:resource="http://purl.org/dc/dcmitype/StillImage" />
        <dc:title />
      </cc:Work>
    </rdf:RDF>
  </metadata>
  <g
     inkscape:label="Layer 1"
     inkscape:groupmode="layer"
     id="layer1"
     transform="translate(0,-392.3622)">
    <rect
       style="fill:url(#linearGradient3781);fill-opacity:1;stroke:none"
       id="rect3800"
       width="610"
       height="660"
       x="0"
       y="0"
       transform="translate(0,392.3622)" />
    <path
       sodipodi:type="arc"
       style="fill:#e0e49b;fill-opacity:1;stroke:#724b13;stroke-width:0.50000000000000000;stroke-linecap:round;stroke-linejoin:round;stroke-miterlimit:4;stroke-opacity:1;stroke-dasharray:none;filter:url(#filter3841)"
       id="path3826"
       sodipodi:cx="531.91492"
       sodipodi:cy="499.89362"
       sodipodi:rx="46.80851"
       sodipodi:ry="43.085106"
       d="m 578.72343,499.89362 c 0,23.79524 -20.95689,43.0851 -46.80851,43.0851 -25.85163,0 -46.80851,-19.28986 -46.80851,-43.0851 0,-23.79525 20.95688,-43.08511 46.80851,-43.08511 25.85162,0 46.80851,19.28986 46.80851,43.08511 z"
       transform="translate(-48.936169,-78.914396)" />
    <path
       style="fill:#bfbfbf;fill-opacity:1;stroke:none"
       d="m 423.40426,809.809 c 0,0 -138.7442,-92.10435 -186.17021,-82.97873 -53.94746,10.38047 -143.617026,80.85107 -143.617026,80.85107 l -1.06383,129.7872 288.297876,0 z"
       id="rect3803"
       inkscape:connector-curvature="0"
       sodipodi:nodetypes="cscccc" />
    <path
       style="fill:#a4741d;stroke:#000000;stroke-width:1px;stroke-linecap:butt;stroke-linejoin:miter;stroke-opacity:1;fill-opacity:1"
       d="m 523.40426,434.46809 -2.12766,-36.17022 43.61702,-5.31915 0,30.85107"
       id="path4309"
       inkscape:connector-curvature="0"
       transform="translate(0,392.3622)" />
    <path
       style="fill:url(#linearGradient4193);fill-opacity:1;stroke:none"
       d="m 610,791.11138 c 0,0 -67.76902,31.76175 -104.25532,34.04255 -52.26631,3.26724 -110.37654,-32.9762 -154.25532,-29.78723 -53.39119,3.88031 -111.18033,24.35418 -159.57447,18.08511 C 153.17193,808.43296 123.45367,769.15932 84.46809,766.64329 55.21542,764.75541 0,791.11138 0,791.11138 l 0,261.25082 610,0 z"
       id="rect3798"
       inkscape:connector-curvature="0"
       sodipodi:nodetypes="csssscccc" />
    <path
       style="fill:url(#linearGradient4327);fill-opacity:1;stroke:none"
       d="m 526.59575,780.02178 c -4.87668,-3.58866 1.03639,-5.33744 -0.44265,-0.31118 -5.73404,-3.0687 -3.81404,-10.74113 -5.94033,-15.64627 -3.98183,-2.78008 -9.85403,-4.64753 -10.70256,-10.55857 0.55023,-6.39901 -3.68331,-10.44548 -8.72403,-12.94404 -4.97506,-2.73508 -10.77541,-5.0245 -13.02579,-11.3937 -1.14031,-4.26719 -3.74126,-5.59337 -6.46395,-7.53303 -4.22294,-1.65453 -6.55885,-6.34221 -9.38313,-8.47174 -1.05597,-5.7375 -5.80162,-8.65818 -9.33963,-11.98586 -2.08965,-3.11334 -7.7909,-4.95253 -11.49453,-7.93277 -3.96727,-2.45469 -4.71365,-7.8203 -9.58979,-8.96753 -0.82779,-3.38838 -7.15099,-5.76379 -9.39215,-8.39328 -4.08447,-2.42987 -5.85008,-7.84755 -7.62912,-10.75565 -2.97502,-2.3334 -5.86977,-5.011 -10.31281,-6.74353 -4.46299,-3.05445 -9.88982,-4.75573 -11.96594,-9.67072 5.61088,-3.10453 10.04666,2.56174 14.83194,3.64829 2.53562,4.39932 6.9674,8.67316 11.12637,10.86138 5.08498,1.68879 6.55371,7.31838 11.24787,9.92739 4.54957,3.37458 10.59222,5.14369 15.61302,8.35163 3.69389,2.54433 7.17915,4.66263 10.25702,8.67403 3.69551,3.08365 5.1066,8.70051 9.20253,11.12174 2.88507,4.37609 9.67326,6.00794 9.26144,12.47766 1.98624,5.77882 4.58412,7.35732 8.98844,10.81532 6.21477,1.68138 9.17058,7.59453 12.83793,12.94775 3.29174,3.58207 4.94966,7.65537 9.63784,9.71773 2.77783,2.96017 9.37387,4.51901 8.41881,11.01092 -0.75799,6.16405 5.01867,8.40974 7.3621,13.30734 1.59883,1.7796 0.86274,4.65399 0.94024,7.38286"
       id="path4317"
       inkscape:connector-curvature="0" />
    <path
       style="fill:#634612;stroke:#000000;stroke-width:1px;stroke-linecap:butt;stroke-linejoin:miter;stroke-opacity:1;fill-opacity:1"
       d="m 519.14894,399.3617 23.40425,-28.7234 25.53192,23.40425 z"
       id="path4311"
       inkscape:connector-curvature="0"
       transform="translate(0,392.3622)" />
    <path
       style="fill:#efeca5;stroke:#000000;stroke-width:1px;stroke-linecap:butt;stroke-linejoin:miter;stroke-opacity:1;fill-opacity:1"
       d="m 529.78723,407.87234 2.12766,9.57447 7.44681,-1.06383 -1.06383,-8.51064 z"
       id="path4313"
       inkscape:connector-curvature="0"
       transform="translate(0,392.3622)" />
    <path
       style="fill:#efeca5;stroke:#000000;stroke-width:1px;stroke-linecap:butt;stroke-linejoin:miter;stroke-opacity:1;fill-opacity:1"
       d="m 548.93617,403.61702 0,10.6383 7.44681,-3.19149 0,-7.44681 z"
       id="path4315"
       inkscape:connector-curvature="0"
       transform="translate(0,392.3622)" />
    <path
       style="color:#000000;fill:#ffffff;fill-opacity:1;fill-rule:nonzero;stroke:#bfbfbf;stroke-width:0.16521895;stroke-linecap:butt;stroke-linejoin:round;stroke-miterlimit:4;stroke-opacity:1;stroke-dasharray:none;stroke-dashoffset:0;marker:none;visibility:visible;display:inline;overflow:visible;enable-background:accumulate"
       d="m 53.439571,422.97805 0,2.09966 -3.25619,-1.87937 -0.946567,1.64187 4.202757,2.42665 0,1.69005 -5.510741,-3.18046 -0.987871,1.7107 6.498612,3.75185 0,1.62121 -7.431411,4.28881 -1.438782,-0.83642 0,-7.58631 -1.975743,0 0.0034,6.45043 -1.466318,-0.84331 0,-4.93591 -1.900018,0 0.0034,3.8379 -1.76922,-1.0223 -1.173743,2.03082 1.817409,1.04983 -3.252748,1.87936 0.950009,1.64187 4.199315,-2.42666 1.466318,0.84331 -5.510741,3.18735 0.987872,1.70726 6.498612,-3.75185 1.517949,0.87773 0.0034,8.75316 -1.442224,0.82954 -6.570895,-3.79315 -0.984429,1.7107 5.583023,3.22177 -1.462876,0.84675 -4.27504,-2.46796 -0.950009,1.64531 3.325031,1.91722 -1.765777,1.0223 1.170301,2.02737 1.817408,-1.04983 0.0034,3.76217 1.893134,-0.003 0,-4.85331 1.462876,-0.8433 0.0034,6.36093 1.975743,0 0,-7.5037 1.215048,-0.70218 7.658587,4.42305 0,1.66252 -6.570895,3.79315 0.987871,1.7107 5.583024,-3.22521 0,1.69005 -4.27504,2.46796 0.950009,1.64531 3.325031,-1.92067 0,2.04458 2.344044,-0.003 0,-2.09965 3.25619,1.87936 0.946567,-1.64186 -4.202757,-2.42665 0,-1.69006 5.514183,3.18047 0.984429,-1.70726 -6.498612,-3.75185 0,-1.7589 7.57942,-4.37486 1.438781,0.82954 0,7.58975 1.975744,-0.003 0,-6.44698 1.462876,0.84675 0,4.93591 1.900018,0 -0.0034,-3.84134 1.76922,1.02229 1.173743,-2.03081 -1.820851,-1.04983 3.25619,-1.87937 -0.950008,-1.64186 -4.202758,2.42665 -1.462876,-0.8433 5.510741,-3.18391 -0.987872,-1.7107 -6.498612,3.75184 -1.445666,-0.83297 0,-8.79447 1.442224,-0.82954 6.570895,3.79315 0.987872,-1.7107 -5.586466,-3.22177 1.462876,-0.84675 4.275041,2.46796 0.950009,-1.64531 -3.325032,-1.91722 1.76922,-1.0223 -1.173743,-2.03081 -1.817409,1.04983 0,-3.75873 -1.896576,0.003 0,4.84987 -1.462876,0.84674 -0.0034,-6.36437 -1.972301,0 0,7.5037 -1.521392,0.87772 -7.579419,-4.37486 0,-1.66251 6.570895,-3.79316 -0.987871,-1.7107 -5.583024,3.22521 0,-1.69005 4.27504,-2.46796 -0.950009,-1.6453 -3.325031,1.92067 0,-2.04115 -2.344044,0 z m 2.344044,12.24342 5.521067,3.18734 -5.521067,3.18735 0,-6.37469 z m -2.344044,0.0138 0,6.2026 -5.369616,-3.1013 5.369616,-3.1013 z m 9.16621,5.12867 0,6.41257 -5.555488,-3.20456 5.555488,-3.20801 z m -15.578771,0.0757 5.521067,3.18735 -5.521067,3.18735 0,-6.3747 z m 7.204235,2.3406 1.042945,0 0.492215,0.85363 -0.567941,0.98443 -0.712506,0 -0.657434,-1.14276 0.402721,-0.6953 z m 1.738241,2.87068 5.521067,3.18735 -5.521067,3.18735 0,-6.3747 z m -2.344044,0.062 0,6.46419 -5.600234,-3.2321 5.600234,-3.23209 z"
       id="rect3855"
       inkscape:connector-curvature="0" />
    <path
       style="color:#000000;fill:#ffffff;fill-opacity:1;fill-rule:nonzero;stroke:#bfbfbf;stroke-width:0.16521895;stroke-linecap:butt;stroke-linejoin:round;stroke-miterlimit:4;stroke-opacity:1;stroke-dasharray:none;stroke-dashoffset:0;marker:none;visibility:visible;display:inline;overflow:visible;enable-background:accumulate"
       d="m 299.72063,534.14777 0.65069,1.99629 -3.67831,-0.77775 -0.39115,1.85438 4.74787,1.00474 0.52375,1.60685 -6.22507,-1.3161 -0.40909,1.93262 7.34138,1.55322 0.50242,1.5414 -5.73645,6.38066 -1.62717,-0.34936 -2.351,-7.21283 -1.87847,0.61229 2.00184,6.13194 -1.65547,-0.34738 -1.52964,-4.69291 -1.80647,0.58881 1.19222,3.64803 -1.99894,-0.42369 -0.48661,2.29458 2.05328,0.43493 -2.5102,2.79487 1.41206,1.26663 3.24056,-3.60856 1.65547,0.34737 -4.25169,4.73822 1.46833,1.31707 5.01598,-5.58107 1.71523,0.36411 2.71546,8.3213 -1.11416,1.23565 -7.42289,-1.57009 -0.40582,1.93156 6.30659,1.33298 -1.12845,1.25841 -4.82939,-1.02163 -0.39336,1.85872 3.75548,0.79241 -1.36204,1.51918 1.74097,1.56489 1.40259,-1.56137 1.16876,3.57603 1.79899,-0.58953 -1.50404,-4.61438 1.12952,-1.25513 1.97411,6.04684 1.87847,-0.61228 -2.3254,-7.13428 0.93763,-1.04416 8.65226,1.8319 0.51521,1.58067 -5.07191,5.64274 1.46938,1.32033 4.30868,-4.79661 0.52375,1.60685 -3.29975,3.6713 1.41312,1.2699 2.56612,-2.85654 0.63361,1.94392 2.22771,-0.72927 -0.65068,-1.99628 3.6783,0.77774 0.39116,-1.85437 -4.74788,-1.00475 -0.52375,-1.60686 6.22834,1.31505 0.40689,-1.92829 -7.34138,-1.55322 -0.54508,-1.67231 5.8505,-6.50834 1.62503,0.34282 2.35206,7.2161 1.87756,-0.61514 -1.99793,-6.12959 1.65326,0.35172 1.52964,4.69291 1.80648,-0.58881 -1.19328,-3.6513 1.99893,0.42368 0.4866,-2.29458 -2.05655,-0.43386 2.51347,-2.79594 -1.41205,-1.26662 -3.24383,3.60962 -1.6522,-0.34844 4.25275,-4.73494 -1.46938,-1.32034 -5.01598,5.58105 -1.63264,-0.34395 -2.72541,-8.36151 1.11415,-1.23565 7.4229,1.57009 0.40909,-1.93262 -6.30986,-1.33191 1.12844,-1.25841 4.8294,1.02162 0.39336,-1.85871 -3.75549,-0.79241 1.36531,-1.52025 -1.7453,-1.56709 -1.4026,1.56136 -1.16483,-3.57368 -1.80228,0.5906 1.50298,4.61111 -1.12845,1.25839 -1.97517,-6.05011 -1.8752,0.61121 2.3254,7.13429 -1.1745,1.30599 -8.56205,-1.81062 -0.51521,-1.58066 5.07191,-5.64274 -1.46938,-1.32034 -4.30868,4.79661 -0.52375,-1.60685 3.29975,-3.67129 -1.41311,-1.2699 -2.56612,2.85655 -0.63256,-1.94066 -2.22864,0.72641 z m 6.02288,10.91424 6.23702,1.31944 -4.2615,4.74142 -1.97552,-6.06086 z m -2.22436,0.73954 1.92219,5.89724 -6.06637,-1.28457 4.14418,-4.61267 z m 10.30432,2.03557 1.98726,6.09687 -6.27508,-1.32514 4.28782,-4.77173 z m -14.78835,4.89984 6.23701,1.31946 -4.26149,4.74141 -1.97552,-6.06087 z m 7.57491,-0.007 0.99161,-0.32321 0.73251,0.65907 -0.2349,1.11197 -0.67743,0.2208 -0.97921,-0.88276 0.16742,-0.78587 z m 2.54229,2.19067 6.23703,1.31945 -4.26151,4.74142 -1.97552,-6.06087 z m -2.20943,0.78537 2.00326,6.14595 -6.32616,-1.33747 4.3229,-4.80848 z"
       id="rect3855-6"
       inkscape:connector-curvature="0" />
    <path
       style="color:#000000;fill:#ffffff;fill-opacity:1;fill-rule:nonzero;stroke:#bfbfbf;stroke-width:0.16521895;stroke-linecap:butt;stroke-linejoin:round;stroke-miterlimit:4;stroke-opacity:1;stroke-dasharray:none;stroke-dashoffset:0;marker:none;visibility:visible;display:inline;overflow:visible;enable-background:accumulate"
       d="m 130.04198,658.98123 1.49327,1.47605 -3.62569,0.99459 0.50226,1.82742 4.68033,-1.28304 1.20196,1.1881 -6.13596,1.68334 0.52217,1.90519 7.23679,-1.98423 1.15299,1.13971 -2.17409,8.30018 -1.60631,0.43525 -5.39533,-5.33315 -1.38894,1.40513 4.58961,4.5325 -1.63058,0.44999 -3.51038,-3.46993 -1.33571,1.35128 2.7316,2.6959 -1.97081,0.53958 0.61917,2.26242 2.02426,-0.5545 -0.95009,3.63451 1.83554,0.47859 1.22629,-4.69246 1.63057,-0.44998 -1.60722,6.1599 1.90867,0.49763 1.90022,-7.25931 1.69134,-0.46251 6.22729,6.15132 -0.42391,1.60886 -7.31698,2.00659 0.52459,1.90274 6.21614,-1.70571 -0.42619,1.63565 -4.76054,1.30541 0.50228,1.83228 3.701,-1.01693 -0.51428,1.97448 2.26457,0.59293 0.531,-2.03056 2.67773,2.64266 1.32874,-1.34849 -3.45164,-3.41186 0.42865,-1.63323 4.52596,4.46958 1.38894,-1.40513 -5.33658,-5.27508 0.35479,-1.35776 8.52961,-2.33734 1.18237,1.16874 -1.92166,7.33975 1.9111,0.50006 1.63111,-6.23793 1.20195,1.1881 -1.25014,4.77535 1.83798,0.48101 0.97152,-3.71497 1.45409,1.43734 1.64572,-1.66917 -1.49325,-1.47605 3.62568,-0.9946 -0.50224,-1.82741 -4.68035,1.28304 -1.20196,-1.18811 6.13838,-1.68578 -0.52214,-1.90032 -7.23679,1.98423 -1.25091,-1.23651 2.21694,-8.46594 1.60142,-0.44008 5.39777,5.33557 1.38681,-1.40724 -4.58504,-4.53221 1.6306,-0.44513 3.51038,3.46993 1.33571,-1.35128 -2.73404,-2.69831 1.9708,-0.53959 -0.61916,-2.26241 -2.02668,0.55695 0.95249,-3.63697 -1.83553,-0.47859 -1.22871,4.6949 -1.62814,0.44755 1.60966,-6.15748 -1.91111,-0.50005 -1.90022,7.2593 -1.60871,0.44257 -6.25456,-6.18249 0.42391,-1.60886 7.31699,-2.0066 -0.52217,-1.90518 -6.21857,1.70816 0.4262,-1.63566 4.76053,-1.3054 -0.50227,-1.83229 -3.701,1.01693 0.5167,-1.97693 -2.26943,-0.59289 -0.531,2.03055 -2.67319,-2.64237 -1.33115,1.35094 3.44919,3.40944 -0.42621,1.63565 -4.5284,-4.472 -1.38652,1.40268 5.33658,5.27508 -0.44531,1.69904 -8.43968,2.31491 -1.18236,-1.16874 1.92165,-7.33975 -1.9111,-0.50006 -1.63111,6.23793 -1.20195,-1.1881 1.25014,-4.77535 -1.83798,-0.481 -0.97152,3.71496 -1.45165,-1.43492 -1.64785,1.66706 z m 10.35529,6.94002 6.14811,-1.68585 -1.61447,6.16724 -4.53364,-4.48139 z m -1.63804,1.67677 4.41124,4.36041 -5.98044,1.63862 1.5692,-5.99903 z m 10.09129,-2.9135 4.56057,4.50802 -6.18454,1.69822 1.62397,-6.20624 z m -10.89799,11.13272 6.14811,-1.68584 -1.61448,6.16724 -4.53363,-4.4814 z m 6.72917,-3.47816 0.73319,-0.74173 0.95312,0.25003 0.30086,1.09597 -0.50089,0.50673 -1.2749,-0.3358 -0.21138,-0.7752 z m 3.26359,0.78185 6.14811,-1.68584 -1.61447,6.16724 -4.53364,-4.4814 z m -1.60376,1.71065 4.59728,4.54431 -6.2356,1.71069 1.63832,-6.255 z"
       id="rect3855-1"
       inkscape:connector-curvature="0" />
    <path
       style="color:#000000;fill:#ffffff;fill-opacity:1;fill-rule:nonzero;stroke:#bfbfbf;stroke-width:0.16521895;stroke-linecap:butt;stroke-linejoin:round;stroke-miterlimit:4;stroke-opacity:1;stroke-dasharray:none;stroke-dashoffset:0;marker:none;visibility:visible;display:inline;overflow:visible;enable-background:accumulate"
       d="m 389.93723,577.37822 1.00533,1.84334 -3.75853,-0.0909 -0.0449,1.89466 4.85158,0.1181 0.80921,1.48373 -6.36082,-0.15362 -0.0482,1.97486 7.50167,0.18226 0.77625,1.42329 -4.47069,7.32344 -1.66362,-0.0454 -3.63236,-6.66018 -1.73456,0.946 3.09114,5.66153 -1.69109,-0.0383 -2.36334,-4.33334 -1.66807,0.90974 1.84024,3.36793 -2.04271,-0.0504 -0.0581,2.34489 2.0982,0.0515 -1.9558,3.20736 1.62017,0.98656 2.52476,-4.14107 1.6911,0.0383 -3.31188,5.43681 1.68472,1.02585 3.90886,-6.4054 1.7529,0.0438 4.1937,7.68315 -0.86897,1.41881 -7.58491,-0.1839 -0.0452,1.97321 6.44406,0.15528 -0.87887,1.44381 -4.93482,-0.11976 -0.0462,1.89932 3.83709,0.0911 -1.06073,1.74296 1.99815,1.21952 1.09287,-1.79185 1.80398,3.30145 1.66059,-0.90908 -2.32379,-4.26082 0.88051,-1.44078 3.04828,5.58296 1.73456,-0.946 -3.59282,-6.58766 0.73051,-1.19822 8.84141,0.21611 0.79603,1.45956 -3.95255,6.47627 1.68637,1.02886 3.3572,-5.50466 0.80921,1.48373 -2.57148,4.21359 1.62182,0.98958 1.99949,-3.27824 0.97895,1.79498 2.05646,-1.12498 -1.00533,-1.84332 3.75853,0.0909 0.0449,-1.89465 -4.85157,-0.1181 -0.80921,-1.48374 6.36384,0.15198 0.0468,-1.97019 -7.50167,-0.18226 -0.84217,-1.54418 4.55943,-7.46984 1.66032,0.0394 3.63401,6.6632 1.73311,-0.94863 -3.08685,-5.65994 1.68973,0.043 2.36333,4.33334 1.66806,-0.90974 -1.84188,-3.37095 2.04271,0.0504 0.0581,-2.34489 -2.10123,-0.0498 1.95883,-3.20902 -1.62017,-0.98655 -2.5278,4.14271 -1.68807,-0.0399 3.31353,-5.43379 -1.68637,-1.02886 -3.90887,6.40539 -1.668,-0.0391 -4.21084,-7.72085 0.86897,-1.41881 7.5849,0.18391 0.0482,-1.97486 -6.44708,-0.15363 0.87886,-1.44382 4.93482,0.11977 0.0463,-1.89933 -3.8371,-0.0911 1.06375,-1.74461 -2.00281,-1.2209 -1.09288,1.79186 -1.7997,-3.29987 -1.6636,0.91072 2.32214,4.2578 -0.87887,1.44381 -3.04993,-5.58598 -1.73152,0.94435 3.59281,6.58766 -0.9154,1.49901 -8.74884,-0.21171 -0.79602,-1.45956 3.95254,-6.47627 -1.68637,-1.02886 -3.3572,5.50466 -0.80921,-1.48373 2.57148,-4.21359 -1.62181,-0.98957 -1.99949,3.27824 -0.97731,-1.79197 -2.05789,1.12234 z m 7.92009,9.62642 6.37318,0.15472 -3.32094,5.44176 -3.05224,-5.59648 z m -2.05127,1.13446 2.96984,5.44539 -6.19903,-0.15169 3.22919,-5.2937 z m 10.50284,0.11374 3.07037,5.62973 -6.41164,-0.15336 3.34127,-5.47637 z m -13.64068,7.52565 6.37318,0.15473 -3.32094,5.44175 -3.05224,-5.59648 z m 7.44543,-1.39456 0.91563,-0.49937 0.84084,0.51375 -0.0273,1.13618 -0.62552,0.34115 -1.12434,-0.68847 0.0206,-0.80324 z m 2.90055,1.68795 6.37317,0.15473 -3.32093,5.44175 -3.05224,-5.59648 z m -2.02821,1.17677 3.09509,5.67505 -6.46411,-0.15611 3.36902,-5.51894 z"
       id="rect3855-4"
       inkscape:connector-curvature="0" />
    <path
       style="color:#000000;fill:#ffffff;fill-opacity:1;fill-rule:nonzero;stroke:#bfbfbf;stroke-width:0.16521895;stroke-linecap:butt;stroke-linejoin:round;stroke-miterlimit:4;stroke-opacity:1;stroke-dasharray:none;stroke-dashoffset:0;marker:none;visibility:visible;display:inline;overflow:visible;enable-background:accumulate"
       d="m 527.66594,626.3023 -0.24643,2.08514 -3.01311,-2.24855 -1.13272,1.51942 3.88889,2.90315 -0.19836,1.67837 -5.09936,-3.80527 -1.18183,1.58293 6.01334,4.48866 -0.19028,1.61 -7.88342,3.38695 -1.33067,-0.99951 0.8904,-7.53387 -1.96208,-0.23189 -0.7541,6.40619 -1.35721,-1.00958 0.57932,-4.90179 -1.88688,-0.22301 -0.44748,3.81173 -1.637,-1.22289 -1.40398,1.87903 1.68163,1.25588 -3.45085,1.4846 0.75074,1.74202 4.4551,-1.91702 1.35721,1.00958 -5.84675,2.51853 0.78066,1.81141 6.89405,-2.96318 1.40443,1.04982 -1.02437,8.69301 -1.52961,0.65454 -6.08029,-4.53816 -1.17841,1.58334 5.16631,3.85478 -1.55215,0.6692 -3.95583,-2.95266 -1.13656,1.52243 3.07703,2.29423 -1.87355,0.80798 0.92426,2.15072 1.92806,-0.82927 -0.43858,3.73652 1.8804,0.21922 0.56963,-4.81977 1.55174,-0.66577 -0.7436,6.31732 1.96209,0.23189 0.8807,-7.45184 1.28907,-0.55472 7.08652,5.29137 -0.19513,1.65102 -6.97068,2.99572 0.78026,1.81482 5.92297,-2.54764 -0.19836,1.67836 -4.53515,1.94915 0.75033,1.74544 3.52748,-1.51714 -0.23997,2.03045 2.3282,0.27214 0.24643,-2.08514 3.01311,2.24855 1.13272,-1.51942 -3.88889,-2.90315 0.19837,-1.67838 5.10277,3.80569 1.17801,-1.57992 -6.01334,-4.48866 0.20644,-1.74674 8.04051,-3.45503 1.33147,0.99267 -0.8908,7.5373 1.96243,0.22891 0.75668,-6.40242 1.35339,1.01259 -0.57933,4.9018 1.88689,0.223 0.44788,-3.81514 1.637,1.22287 1.40398,-1.87901 -1.68504,-1.25628 3.45426,-1.48421 -0.75074,-1.74201 -4.45852,1.9166 -1.35379,-1.00917 5.84635,-2.51511 -0.78026,-1.81482 -6.89405,2.96317 -1.33791,-0.99689 1.0322,-8.73368 1.52962,-0.65454 6.08028,4.53816 1.18183,-1.58293 -5.16972,-3.85519 1.55215,-0.6692 3.95583,2.95266 1.13655,-1.52243 -3.07702,-2.29423 1.87698,-0.80758 -0.92729,-2.15454 -1.92806,0.82927 0.44116,-3.73275 -1.88382,-0.21962 -0.56922,4.81635 -1.55215,0.66919 0.744,-6.32073 -1.95867,-0.23149 -0.8807,7.45183 -1.6139,0.69309 -7.01356,-5.23421 0.19513,-1.65102 6.97069,-2.99572 -0.78027,-1.81482 -5.92297,2.54764 0.19836,-1.67837 4.53515,-1.94914 -0.75034,-1.74543 -3.52747,1.51714 0.23957,-2.02705 -2.32784,-0.27512 z m 0.89085,12.43391 5.1088,3.81332 -5.85699,2.51731 0.74819,-6.33063 z m -2.32947,-0.26141 -0.72799,6.15973 -4.9685,-3.71009 5.69649,-2.44964 z m 8.50091,6.16905 -0.75264,6.36825 -5.14097,-3.83445 5.89361,-2.5338 z m -15.47998,-1.75329 5.10881,3.81332 -5.857,2.51732 0.74819,-6.33064 z m 6.87973,3.16998 1.03573,0.12241 0.38863,0.9055 -0.67956,0.91097 -0.70758,-0.0836 -0.51876,-1.21202 0.48154,-0.64323 z m 1.3893,3.05485 5.1088,3.81333 -5.857,2.51731 0.7482,-6.33064 z m -2.33513,-0.21354 -0.7587,6.41951 -5.18217,-3.86706 5.94087,-2.55245 z"
       id="rect3855-2"
       inkscape:connector-curvature="0" />
    <path
       style="color:#000000;fill:#ffffff;fill-opacity:1;fill-rule:nonzero;stroke:#bfbfbf;stroke-width:0.16521895;stroke-linecap:butt;stroke-linejoin:round;stroke-miterlimit:4;stroke-opacity:1;stroke-dasharray:none;stroke-dashoffset:0;marker:none;visibility:visible;display:inline;overflow:visible;enable-background:accumulate"
       d="m 551.39518,529.90957 -0.91369,1.89044 -2.11388,-3.10907 -1.56674,1.06635 2.72798,4.01373 -0.73544,1.52163 -3.5776,-5.26161 -1.63387,1.11035 4.21838,6.20595 -0.70549,1.45965 -8.55722,0.62757 -0.93143,-1.37918 3.30128,-6.83034 -1.77886,-0.85978 -2.80429,5.80897 -0.95322,-1.39737 2.14792,-4.44405 -1.71069,-0.82682 -1.66741,3.45676 -1.14805,-1.69032 -1.94052,1.31768 1.17947,1.73609 -3.74645,0.2766 0.14086,1.89168 4.83686,-0.35747 0.95322,1.39736 -6.34862,0.47167 0.14649,1.96702 7.48371,-0.55002 0.98473,1.45082 -3.80634,7.88222 -1.6595,0.11928 -4.26548,-6.27458 -1.63076,1.11184 3.62468,5.33025 -1.68558,0.12579 -2.77507,-4.08238 -1.57131,1.06796 2.15939,3.1731 -2.03469,0.15203 0.17145,2.33462 2.09315,-0.15435 -1.63445,3.38858 1.70579,0.82112 2.11197,-4.36968 1.68408,-0.12269 -2.76533,5.72839 1.77886,0.85977 3.26533,-6.75597 1.39953,-0.10347 4.97069,7.31504 -0.72347,1.49685 -7.56676,0.55576 0.14499,1.97011 6.43019,-0.4743 -0.73545,1.52165 -4.923,0.36169 0.13936,1.89477 3.8295,-0.28235 -0.88972,1.84084 2.11177,1.01734 0.91369,-1.89042 2.11388,3.10905 1.56673,-1.06634 -2.72798,-4.01372 0.73546,-1.52165 3.58067,5.26311 1.62927,-1.10875 -4.21837,-6.20594 0.7654,-1.58363 8.72793,-0.64063 0.93442,1.37298 -3.30277,6.83344 1.78017,0.85708 2.80549,-5.80456 0.94862,1.39897 -2.14793,4.44406 1.71069,0.82681 1.66891,-3.45986 1.14806,1.69031 1.94051,-1.31767 -1.18256,-1.73758 3.74955,-0.27513 -0.14087,-1.89166 -4.83994,0.35597 -0.95014,-1.39586 6.34713,-0.46857 -0.145,-1.97012 -7.48369,0.55003 -0.93914,-1.37908 3.82702,-7.91811 1.65949,-0.11928 4.26549,6.27458 1.63386,-1.11035 -3.62778,-5.33174 1.68557,-0.12579 2.77508,4.08238 1.57132,-1.06796 -2.1594,-3.1731 2.03779,-0.15053 -0.17304,-2.33921 -2.09316,0.15435 1.63566,-3.38418 -1.7089,-0.82262 -2.11048,4.36658 -1.68557,0.12578 2.76684,-5.73147 -1.77577,-0.85828 -3.26534,6.75597 -1.75173,0.1282 -4.92038,-7.23719 0.72347,-1.49684 7.56676,-0.55577 -0.145,-1.97012 -6.43018,0.4743 0.73545,-1.52164 4.92301,-0.3617 -0.13937,-1.89475 -3.8295,0.28235 0.88822,-1.83776 -2.11046,-1.02003 z m -3.21741,12.04343 3.58389,5.27229 -6.35793,0.46718 2.77404,-5.73947 z m -2.11647,-1.00761 -2.69915,5.58452 -3.48498,-5.12893 6.18413,-0.45559 z m 6.02101,8.6064 -2.79052,5.77356 -3.60739,-5.30276 6.39791,-0.4708 z m -14.05933,-6.71116 3.58389,5.27231 -6.35792,0.46717 2.77403,-5.73948 z m 5.46781,5.24239 0.93902,0.45384 0.0717,0.98277 -0.93972,0.63919 -0.64152,-0.31006 -0.0946,-1.31498 0.66516,-0.45076 z m 0.31581,3.34104 3.58389,5.2723 -6.35792,0.46717 2.77403,-5.73947 z m -2.13743,-0.96422 -2.81298,5.82004 -3.6357,-5.34704 6.44868,-0.473 z"
       id="rect3855-3"
       inkscape:connector-curvature="0" />
    <path
       style="color:#000000;fill:#ffffff;fill-opacity:1;fill-rule:nonzero;stroke:#bfbfbf;stroke-width:0.16521895;stroke-linecap:butt;stroke-linejoin:round;stroke-miterlimit:4;stroke-opacity:1;stroke-dasharray:none;stroke-dashoffset:0;marker:none;visibility:visible;display:inline;overflow:visible;enable-background:accumulate"
       d="m 237.04048,468.00838 -0.86163,1.91473 -2.19815,-3.05007 -1.53696,1.10881 2.83676,3.93759 -0.69354,1.54119 -3.7202,-5.16175 -1.60288,1.15463 4.38658,6.0882 -0.66529,1.47842 -8.53684,0.86145 -0.96881,-1.35318 3.11317,-6.91811 -1.80172,-0.81078 -2.64431,5.88351 -0.9911,-1.37076 2.02554,-4.50116 -1.73267,-0.7797 -1.57221,3.50109 -1.19387,-1.65829 -1.90374,1.37028 1.22652,1.70317 -3.73748,0.37901 0.19256,1.8871 4.82526,-0.48966 0.9911,1.37076 -6.33334,0.64519 0.20026,1.96227 7.46586,-0.75457 1.02405,1.42333 -3.58927,7.98342 -1.65561,0.16463 -4.43554,-6.15552 -1.59974,1.15604 3.76916,5.22909 -1.68151,0.17185 -2.88572,-4.00492 -1.54152,1.11054 2.24541,3.11284 -2.02977,0.20764 0.23526,2.32905 2.08814,-0.21156 -1.54113,3.43203 1.72762,0.77415 1.99163,-4.42584 1.6801,-0.1687 -2.60758,5.80189 1.80171,0.81078 3.07927,-6.84278 1.39619,-0.14171 5.16894,7.17629 -0.68225,1.51609 -7.54871,0.76258 0.19885,1.96541 6.41479,-0.65005 -0.69354,1.54119 -4.91127,0.49625 0.19115,1.89024 3.82035,-0.38701 -0.83903,1.86449 2.13882,0.95919 0.86162,-1.91472 2.19816,3.05006 1.53696,-1.1088 -2.83676,-3.93759 0.69354,-1.5412 3.72334,5.16317 1.59832,-1.1529 -4.38658,-6.08821 0.72179,-1.60397 8.70713,-0.87919 0.97164,1.34691 -3.11458,6.92124 1.80294,0.80805 2.64563,-5.87914 0.98655,1.37249 -2.02553,4.50116 1.73267,0.7797 1.57362,-3.50422 1.19387,1.65827 1.90374,-1.37027 -1.22966,-1.70458 3.74062,-0.3776 -0.19257,-1.8871 -4.8284,0.48824 -0.98796,-1.36934 6.33193,-0.64205 -0.19884,-1.96541 -7.46586,0.75456 -0.9765,-1.35285 3.60896,-8.01986 1.6556,-0.16463 4.43556,6.15553 1.60287,-1.15463 -3.77231,-5.23051 1.68151,-0.17185 2.88573,4.00492 1.54151,-1.11054 -2.24539,-3.11283 2.0329,-0.20623 -0.23699,-2.3336 -2.08814,0.21156 1.54246,-3.42767 -1.73076,-0.77555 -1.99023,4.42269 -1.6815,0.17184 2.60899,-5.80503 -1.79858,-0.80936 -3.07927,6.84277 -1.74758,0.17609 -5.11653,-7.09987 0.68224,-1.51608 7.54873,-0.76258 -0.19885,-1.96541 -6.41479,0.65004 0.69354,-1.54119 4.91126,-0.49625 -0.19116,-1.89023 -3.82034,0.38702 0.83762,-1.86137 -2.13758,-0.96192 z m -2.8867,12.12695 3.72679,5.17226 -6.34276,0.64095 2.61597,-5.81321 z m -2.14325,-0.94934 -2.54535,5.65628 -3.62398,-5.03165 6.16933,-0.62463 z m 6.25421,8.43845 -2.6315,5.84776 -3.75111,-5.20209 6.38261,-0.64567 z m -14.23766,-6.32398 3.72679,5.17228 -6.34276,0.64094 2.61597,-5.81322 z m 5.60919,5.09082 0.95108,0.42799 0.0986,0.98044 -0.92189,0.66465 -0.64975,-0.29239 -0.13058,-1.31189 0.65258,-0.4688 z m 0.4071,3.33115 3.7268,5.17228 -6.34276,0.64094 2.61596,-5.81322 z m -2.16303,-0.90538 -2.65269,5.89483 -3.78061,-5.24557 6.4333,-0.64926 z"
       id="rect3855-22"
       inkscape:connector-curvature="0" />
    <path
       style="color:#000000;fill:#ffffff;fill-opacity:1;fill-rule:nonzero;stroke:#bfbfbf;stroke-width:0.16521895;stroke-linecap:butt;stroke-linejoin:round;stroke-miterlimit:4;stroke-opacity:1;stroke-dasharray:none;stroke-dashoffset:0;marker:none;visibility:visible;display:inline;overflow:visible;enable-background:accumulate"
       d="m 101.10732,533.33855 0.39808,2.06158 -3.553439,-1.22793 -0.61812,1.79155 4.586609,1.58582 0.32042,1.6594 -6.013779,-2.07798 -0.64561,1.86697 7.092059,2.45171 0.30737,1.5918 -6.483489,5.61997 -1.57126,-0.54846 -1.43832,-7.44872 -1.93991,0.37459 1.2259,6.33287 -1.5996,-0.55001 -0.93582,-4.84639 -1.86555,0.36023 0.73058,3.76772 -1.93095,-0.66832 -0.76743,2.21652 1.98349,0.68622 -2.83743,2.46197 1.24405,1.43198 3.66308,-3.17881 1.59961,0.55001 -4.80649,4.17434 1.29364,1.489 5.66942,-4.9159 1.65683,0.57402 1.66248,8.59383 -1.25878,1.08793 -7.17088,-2.47855 -0.64224,1.86631 6.09259,2.10484 -1.2758,1.10874 -4.66541,-1.61268 -0.62084,1.79558 3.62821,1.25205 -1.53993,1.33854 1.53345,1.76871 1.58541,-1.37535 0.71622,3.69336 1.85824,-0.36187 -0.92016,-4.76528 1.27646,-1.10536 1.20893,6.24499 1.93992,-0.37459 -1.42265,-7.3676 1.05987,-0.91981 8.358259,2.89081 0.31521,1.63237 -5.73256,4.97015 1.29429,1.49238 4.87028,-4.22522 0.32042,1.6594 -3.72959,3.23371 1.24472,1.43536 2.90058,-2.51624 0.38764,2.00749 2.30095,-0.44736 -0.39808,-2.06156 3.55345,1.22792 0.61811,-1.79155 -4.58661,-1.58582 -0.32042,-1.65941 6.01717,2.07734 0.64289,-1.86294 -7.09208,-2.45171 -0.33347,-1.72699 6.6125,-5.73252 1.56997,0.5417 1.43897,7.4521 1.93934,-0.37754 -1.22231,-6.33004 1.59689,0.55403 0.93581,4.84639 1.86555,-0.36023 -0.73124,-3.7711 1.93095,0.66832 0.76744,-2.21651 -1.98687,-0.68557 2.84082,-2.46264 -1.24407,-1.43196 -3.66645,3.17945 -1.59624,-0.55065 4.80715,-4.17096 -1.29429,-1.49238 -5.66942,4.91588 -1.57738,-0.54377 -1.66737,-8.63496 1.2588,-1.08793 7.17086,2.47855 0.64563,-1.86697 -6.09597,-2.10418 1.2758,-1.10874 4.66542,1.61268 0.62084,-1.79559 -3.62823,-1.25204 1.54331,-1.33919 -1.53748,-1.77144 -1.58541,1.37536 -0.71263,-3.69056 -1.8616,0.36252 0.9195,4.76191 -1.27581,1.10873 -1.20958,-6.24836 -1.93653,0.37393 1.42265,7.3676 -1.32739,1.15025 -8.27139,-2.8585 -0.3152,-1.63236 5.73255,-4.97016 -1.29429,-1.49238 -4.87028,4.22522 -0.32042,-1.6594 3.72959,-3.23372 -1.24471,-1.43534 -2.90058,2.51624 -0.38699,-2.00413 -2.30153,0.44442 z m 4.6228,11.57694 6.02523,2.08277 -4.81663,4.1763 -1.2086,-6.25907 z m -2.29891,0.45797 1.17597,6.0901 -5.860209,-2.02701 4.684239,-4.06309 z m 9.97232,3.29779 1.21578,6.29627 -6.06229,-2.09316 4.84651,-4.20311 z m -15.281859,3.02796 6.025229,2.08278 -4.816629,4.1763 -1.2086,-6.25908 z m 7.517329,0.93228 1.02403,-0.19774 0.64513,0.74483 -0.371,1.07425 -0.69958,0.13509 -0.86217,-0.99739 0.26359,-0.75904 z m 2.25097,2.48905 6.02524,2.08278 -4.81664,4.1763 -1.2086,-6.25908 z m -2.28977,0.50529 1.22557,6.34695 -6.11144,-2.11171 4.88587,-4.23524 z"
       id="rect3855-16"
       inkscape:connector-curvature="0" />
    <path
       style="fill:url(#linearGradient4185);stroke:#8fc7c7;stroke-width:1px;stroke-linecap:butt;stroke-linejoin:miter;stroke-opacity:1;fill-opacity:1"
       d="m 623.40426,858.74518 c -10.57347,1.26337 -19.52314,2.91906 -29.70631,3.19149 -13.85591,0.0118 -27.72622,-0.0165 -41.57029,0 -6.24721,2.55605 -14.26804,0.37803 -21.26275,1.06383 -8.37534,1.32839 -17.28743,1.14228 -26.21877,1.06383 -7.93199,0.0916 -15.87736,-0.15168 -23.79508,0 -11.1817,2.88958 -25.87481,0.49572 -36.09231,3.37955 -7.08655,-0.41188 -14.26036,-0.0967 -21.35449,-0.18806 -3.59807,2.30929 -11.23736,0.47397 -16.54953,1.06383 -7.55105,0.31558 -15.79746,-0.85794 -22.58323,1.06383 -7.27992,0.0144 -14.51387,-0.40994 -21.23717,1.28524 -9.63206,0.29376 -20.07461,-1.46964 -29.01985,1.05497 -9.72654,-1.06864 -16.20511,1.30998 -25.57093,0.85128 -9.05055,-0.72571 -14.62084,2.95041 -22.47281,2.99202 -7.15432,1.83302 -13.90548,3.23713 -20.01329,5.51861 -4.97957,1.16277 -6.06052,5.9438 -10.6383,7.44681 -3.61589,5.80045 -2.87828,16.60458 4.25532,17.02128 2.40959,4.17689 7.79921,3.95683 10.6383,7.44681 8.51311,1.56849 16.08599,4.05887 25.90888,4.25532 5.54734,0.0211 11.10801,-0.0299 16.64431,0 9.38229,1.70436 21.79403,1.01736 30.31914,4.25532 11.09773,-0.0674 17.4651,5.14991 29.07232,5.16141 4.10778,3.86523 12.33787,2.27443 14.01279,7.60454 7.72491,0.63663 7.94718,10.01749 7.44681,19.14894 -5.4394,5.85807 -0.42253,14.33648 4.25532,15.95745 2.97694,4.11526 7.79204,6.39234 12.76596,8.51063 6.67541,2.37199 14.55747,5.2491 23.40425,6.38298 11.8139,1.00283 21.81259,3.43484 34.04256,4.25532 11.99986,-0.17723 18.48393,3.91736 30.85106,4.25532 12.60608,1.29319 23.56398,1.90822 36.40312,3.36432 8.78717,-0.33105 16.0159,1.49723 25.3661,0.891 10.61592,0.0403 21.23333,-0.0692 31.8478,0 7.0251,1.72134 17.17212,2.31878 26.05691,2.12766 8.69025,0 17.3805,0 26.07075,0"
       id="path4176"
       inkscape:connector-curvature="0" />
    <path
       sodipodi:type="arc"
       style="color:#000000;fill:#f5f6f6;fill-opacity:1;fill-rule:nonzero;stroke:#bcd0d0;stroke-width:1.50000000000000000;stroke-linecap:butt;stroke-linejoin:round;stroke-miterlimit:4;stroke-opacity:1;stroke-dasharray:none;stroke-dashoffset:0;marker:none;visibility:visible;display:inline;overflow:visible;enable-background:accumulate"
       id="path4195"
       sodipodi:cx="85.638298"
       sodipodi:cy="581.80853"
       sodipodi:rx="34.574467"
       sodipodi:ry="34.574467"
       d="m 120.21276,581.80853 c 0,19.09495 -15.47951,34.57447 -34.574462,34.57447 -19.094951,0 -34.574467,-15.47952 -34.574467,-34.57447 0,-19.09495 15.479516,-34.57446 34.574467,-34.57446 19.094952,0 34.574462,15.47951 34.574462,34.57446 z"
       transform="translate(0,392.3622)" />
    <path
       sodipodi:type="arc"
       style="color:#000000;fill:#f5f6f6;fill-opacity:1;fill-rule:nonzero;stroke:#bcd0d0;stroke-width:1.50000000000000000;stroke-linecap:butt;stroke-linejoin:round;stroke-miterlimit:4;stroke-opacity:1;stroke-dasharray:none;stroke-dashoffset:0;marker:none;visibility:visible;display:inline;overflow:visible;enable-background:accumulate"
       id="path4197"
       sodipodi:cx="86.702126"
       sodipodi:cy="531.27661"
       sodipodi:rx="23.936171"
       sodipodi:ry="24.468084"
       d="m 110.6383,531.27661 c 0,13.51335 -10.716592,24.46809 -23.936174,24.46809 -13.219582,0 -23.936171,-10.95474 -23.936171,-24.46809 0,-13.51335 10.716589,-24.46808 23.936171,-24.46808 13.219582,0 23.936174,10.95473 23.936174,24.46808 z"
       transform="translate(0,392.3622)" />
    <path
       sodipodi:type="arc"
       style="color:#000000;fill:#f5f6f6;fill-opacity:1;fill-rule:nonzero;stroke:#bcd0d0;stroke-width:1.50000000000000000;stroke-linecap:butt;stroke-linejoin:round;stroke-miterlimit:4;stroke-opacity:1;stroke-dasharray:none;stroke-dashoffset:0;marker:none;visibility:visible;display:inline;overflow:visible;enable-background:accumulate"
       id="path4199"
       sodipodi:cx="87.234039"
       sodipodi:cy="494.04254"
       sodipodi:rx="17.021276"
       sodipodi:ry="19.148935"
       d="m 104.25532,494.04254 c 0,10.57567 -7.620689,19.14894 -17.021281,19.14894 -9.400591,0 -17.021276,-8.57327 -17.021276,-19.14894 0,-10.57566 7.620685,-19.14893 17.021276,-19.14893 9.400592,0 17.021281,8.57327 17.021281,19.14893 z"
       transform="translate(0,392.3622)" />
    <path
       sodipodi:type="arc"
       style="color:#000000;fill:#000000;fill-opacity:1;fill-rule:nonzero;stroke:none;stroke-width:1.5;marker:none;visibility:visible;display:inline;overflow:visible;enable-background:accumulate"
       id="path4201"
       sodipodi:cx="88.297874"
       sodipodi:cy="490.85107"
       sodipodi:rx="2.1276596"
       sodipodi:ry="2.1276596"
       d="m 90.425534,490.85107 c 0,1.17508 -0.952586,2.12766 -2.12766,2.12766 -1.175073,0 -2.127659,-0.95258 -2.127659,-2.12766 0,-1.17507 0.952586,-2.12766 2.127659,-2.12766 1.175074,0 2.12766,0.95259 2.12766,2.12766 z"
       transform="translate(1.5957447,392.3622)" />
    <path
       transform="translate(10.372339,389.96857)"
       sodipodi:type="arc"
       style="color:#000000;fill:#000000;fill-opacity:1;fill-rule:nonzero;stroke:none;stroke-width:1.5;marker:none;visibility:visible;display:inline;overflow:visible;enable-background:accumulate"
       id="path4201-8"
       sodipodi:cx="88.297874"
       sodipodi:cy="490.85107"
       sodipodi:rx="2.1276596"
       sodipodi:ry="2.1276596"
       d="m 90.425534,490.85107 c 0,1.17508 -0.952586,2.12766 -2.12766,2.12766 -1.175073,0 -2.127659,-0.95258 -2.127659,-2.12766 0,-1.17507 0.952586,-2.12766 2.127659,-2.12766 1.175074,0 2.12766,0.95259 2.12766,2.12766 z" />
    <path
       style="fill:#eccc92;stroke:#d99926;stroke-width:1px;stroke-linecap:butt;stroke-linejoin:miter;stroke-opacity:1;fill-opacity:1"
       d="m 96.542553,494.84043 c -2.393617,1.8617 -1.861702,3.45744 -1.063829,5.05319 0.797872,1.59574 12.765956,2.65957 13.297876,1.59574 0.53191,-1.06383 -9.308515,-7.18085 -12.234047,-6.64893 z"
       id="path4221"
       inkscape:connector-curvature="0"
       transform="translate(0,392.3622)" />
    <path
       sodipodi:type="arc"
       style="color:#000000;fill:#000000;fill-opacity:1;fill-rule:nonzero;stroke:none;stroke-width:1.5;marker:none;visibility:visible;display:inline;overflow:visible;enable-background:accumulate"
       id="path4201-5"
       sodipodi:cx="88.297874"
       sodipodi:cy="490.85107"
       sodipodi:rx="2.1276596"
       sodipodi:ry="2.1276596"
       d="m 90.425534,490.85107 c 0,1.17508 -0.952586,2.12766 -2.12766,2.12766 -1.175073,0 -2.127659,-0.95258 -2.127659,-2.12766 0,-1.17507 0.952586,-2.12766 2.127659,-2.12766 1.175074,0 2.12766,0.95259 2.12766,2.12766 z"
       transform="translate(9.0425509,423.21325)" />
    <path
       sodipodi:type="arc"
       style="color:#000000;fill:#000000;fill-opacity:1;fill-rule:nonzero;stroke:none;stroke-width:1.5;marker:none;visibility:visible;display:inline;overflow:visible;enable-background:accumulate"
       id="path4201-7"
       sodipodi:cx="88.297874"
       sodipodi:cy="490.85107"
       sodipodi:rx="2.1276596"
       sodipodi:ry="2.1276596"
       d="m 90.425534,490.85107 c 0,1.17508 -0.952586,2.12766 -2.12766,2.12766 -1.175073,0 -2.127659,-0.95258 -2.127659,-2.12766 0,-1.17507 0.952586,-2.12766 2.127659,-2.12766 1.175074,0 2.12766,0.95259 2.12766,2.12766 z"
       transform="translate(13.031913,433.85155)" />
    <path
       sodipodi:type="arc"
       style="color:#000000;fill:#000000;fill-opacity:1;fill-rule:nonzero;stroke:none;stroke-width:1.5;marker:none;visibility:visible;display:inline;overflow:visible;enable-background:accumulate"
       id="path4201-6"
       sodipodi:cx="88.297874"
       sodipodi:cy="490.85107"
       sodipodi:rx="2.1276596"
       sodipodi:ry="2.1276596"
       d="m 90.425534,490.85107 c 0,1.17508 -0.952586,2.12766 -2.12766,2.12766 -1.175073,0 -2.127659,-0.95258 -2.127659,-2.12766 0,-1.17507 0.952586,-2.12766 2.127659,-2.12766 1.175074,0 2.12766,0.95259 2.12766,2.12766 z"
       transform="translate(10.638296,444.48985)" />
    <rect
       style="fill:#000000;fill-opacity:0.24468085;stroke:#000000;stroke-width:0.69999999000000002;stroke-linecap:round;stroke-miterlimit:4;stroke-opacity:1;stroke-dasharray:none"
       id="rect3006"
       width="610"
       height="660"
       x="0"
       y="392.36221" />
  </g>
</svg>
