<?xml version="1.0" encoding="UTF-8" standalone="no"?>
<svg x="0px" y="0px" xmlns:rdf="http://www.w3.org/1999/02/22-rdf-syntax-ns#" xmlns="http://www.w3.org/2000/svg" version="1.1" xmlns:dc="http://purl.org/dc/elements/1.1/" viewBox="0 0 296.5 82" xml:space="preserve" xmlns:cc="http://creativecommons.org/ns#" enable-background="new 0 0 296.5 82"><metadata><rdf:RDF><cc:Work rdf:about=""><dc:format>image/svg+xml</dc:format><dc:type rdf:resource="http://purl.org/dc/dcmitype/StillImage"/></cc:Work></rdf:RDF></metadata>
<path fill="#fff" d="m154.43 79.056c6.402 2.708 9.367 2.229 14.413-2.343 2.339-2.121 6.572-7.259 11.788-15.544-0.261 2.556-0.643 6.225-0.773 7.177-0.392 2.895-0.613 5.907 1.452 8.197 1.886 2.112 4.686 2.378 6.619 2.387h0.266c0.383-0.022 9.219-0.496 12.475-0.939 5.603-0.734 7.05-2.481 8.337-6.402l0.291-0.865c1.708-4.968 2.995-10.818 3.96-16.726 1.112 4.316 3.82 7.985 7.771 10.298 6.051 3.542 13.77 3.316 20.642-0.604 2.978-1.699 5.368-3.916 7.285-6.416 0.195 0.317 0.392 0.592 0.573 0.848l0.157 0.213c2.308 3.282 9.749 9.685 21.397 10.527 4.104 0.301 11.818 0.062 17.321-4.885 1.404-1.248 4.769-4.733 5.881-9.933 0.844-3.981 0.131-7.91-1.999-11.058-1.461-2.156-3.338-3.942-5.347-5.438 0.679-0.326 1.356-0.782 2.021-1.386 3.091-2.847 4.65-7.611 1.917-10.671-7.546-8.476-20.242-9.563-27.679-5.716-3.1 1.595-5.494 3.534-7.225 5.851-1.056-2.343-3.329-3.847-6.264-3.981-1.108-0.048-3.033 0.061-4.459 0.182-3.564 0.3-6.125 2.821-6.537 6.351-0.604-1.122-1.543-2.06-2.782-2.686-0.961-0.482-2.481-1.039-4.533-1.761 0.018 0-1.817-0.661-1.817-0.661 0.018 0.009 0.044 0.022 0.065 0.022-3.907-1.482-7.472-0.387-9.758 3.012-1.052 1.561-2.873 4.585-4.425 8.841 0.591-7.776 0.704-13.457 0.713-14 0 0.061-0.009 0.122-0.009 0.178 0.356-5.494-1.687-8.819-7.059-11.501-17.74-8.824-34.43-8.968-44.13-6.16-10.097 2.93-17.638 10.958-19.351 20.56-8.413-4.633-16.171-4.138-21.494-1.678 0.081-1.122-0.098-2.365-0.935-3.521-1.584-2.195-4.349-2.33-5.39-2.377-3.108-0.156-5.861-0.156-7.229-0.156-0.169 0.013-0.391 0-0.628-0.013-1.491-0.07-4.986-0.226-7.004 3.225-0.02 0.022-0.033 0.057-0.05 0.083-1.606 2.93-3.462 6.194-4.846 8.545l-6.868-8.646c-0.042-0.048-0.098-0.117-0.144-0.165l-0.085-0.1c-1.975-2.251-4.438-2.712-7.743-1.447-2.31 0.896-5.605 2.269-7.798 3.343-0.9 0.435-3.001 1.46-3.619 3.812-0.152 0.565-0.187 1.108-0.147 1.63-1.976-0.896-4.112-1.513-6.375-1.826-3.586-0.496-7.126-0.178-10.384 0.843 0.024-1.665-0.795-6.438-1.589-7.98-0.013-0.026-0.052-0.117-0.084-0.183-1.474-3.264-4.197-4.607-8.096-3.951-13.518 2.216-18.373 2.469-33.262 2.59-5.376 0.048-6.714 3.229-7.04 4.594-0.498 2.052-0.48 11.132-0.172 13.118 0.846 5.438 6.035 5.342 7.739 5.303 2.536-0.043 4.323-0.156 5.755-0.239 0.237-0.008 0.454-0.021 0.667-0.035 0.296 4.508 1.613 14.652 4.06 24.463l0.026 0.096c1.576 6.376 6.859 5.798 8.443 5.463 1.875-0.387 8.417-2.155 10.866-3.072 2.282-0.861 3.692-2.8 3.777-5.208 0.004-0.182 0.004-0.373-0.004-0.556 1.332 1.313 2.862 2.46 4.577 3.412 5.038 2.781 11.429 3.595 16.678 2.082 3.568-1.021 6.587-2.456 9.052-4.29 0.45 0.891 1.052 1.651 1.571 2.251 1.023 1.174 6.409 7.106 11.799 7.828 1.901 0.266 2.912-0.073 4.131-0.578l0.124-0.048c3.949-1.625 9.521-8.224 16.567-19.633 0.293-0.479 0.591-0.961 0.88-1.443-0.35 0.878-0.583 1.761-0.685 2.564-0.391 3.112 1.219 4.898 2.471 5.985-0.004-0.013 0.421 0.36 0.421 0.36 2.765 2.435 8.52 7.498 19.18 7.972 0.989 0.035 4.497 0.069 8.311-1.229-0.054 2.455 1.567 4.303 2.119 4.933 0.022 0.035 0.044 0.057 0.07 0.083 0.63 0.686 6.34 6.763 11.16 8.828"/>
<polyline fill="#fff" points="171.1 22.611 171.1 22.611 171.09 22.611 171.1 22.611"/>
<path fill="#0862AD" d="m207.24 13.131c-15.786-7.858-31.378-8.693-41.079-5.885-17.93 5.203-23.489 27.205-6.877 37.985 1.005 0.652 0.374 2.025-0.887 4.221-1.556 2.725-4.446 8.093-9.544 11.962-3.075 2.338-5.068 3.303-2.541 6.185 0 0 5.618 6.068 9.765 7.837 5.003 2.112 6.255 1.761 9.979-1.608 2.339-2.116 6.98-7.906 12.579-17.116 2.903-4.79 6.789-4.882 6.259 2.999 0 0-0.765 7.585-0.974 9.153-0.626 4.521-0.139 6.09 4.051 6.129 0 0 9.011-0.486 12.136-0.908 4.399-0.578 4.16-1.265 5.312-4.616 6.155-17.882 6.677-48.582 6.677-48.582 0.25-4.109-1.1-5.874-4.87-7.756m-11.53 16.556s-5.589 3.703-5.729 3.799c-0.474 0.361-1.126 0.782-1.213 2.495-0.034 0.713-0.252 5.768-0.265 6.394-0.013 0.699-0.326 2.604-2.604 0.66 0 0-3.808-3.221-4.373-3.703-0.126-0.104-1.435-1.53-3.469-0.683l-5.963 2.299s-3.591 1.413-2.252-1.699c1.296-3.025 2.165-5.546 2.451-6.355 0.296-0.843 0.191-2.034-0.534-2.869-0.335-0.374-3.194-4.025-3.852-4.929 0 0-2.351-2.704 1.569-2.521 0 0 6.694 0.143 6.798 0.156 0.113 0.009 1.365 0.091 2.261-1.269 1.104-1.673 4.338-5.594 3.664-4.764 0.565-0.682 1.878-2.395 2.747 0.439 0 0 1.23 3.738 1.813 5.303 0.4 1.061 0.652 1.786 2.643 2.399l6.15 2.147c0 0.002 2.87 0.858 0.15 2.701"/>
<path fill="#fff" d="m294.52 26.192c0 1.591-1.33 2.882-2.982 2.882-1.639 0-2.973-1.291-2.973-2.882 0-1.582 1.334-2.869 2.973-2.869 1.65 0.001 2.98 1.287 2.98 2.869"/>
<path fill="#0862AD" d="m293.98 26.192c0-1.3-1.096-2.352-2.452-2.352-1.347 0-2.442 1.052-2.442 2.352 0 1.317 1.096 2.36 2.442 2.36 1.36 0.001 2.45-1.043 2.45-2.36"/>
<path fill="#fff" d="m293.69 26.192c0 1.147-0.961 2.086-2.152 2.086-1.182 0-2.143-0.939-2.143-2.086 0-1.13 0.961-2.078 2.143-2.078 1.18 0.001 2.15 0.948 2.15 2.078"/>
<path fill="#0862AD" d="m290.55 27.688v-3.182h0.999c0.313 0 0.557 0.069 0.722 0.204 0.174 0.13 0.257 0.322 0.257 0.591 0 0.421-0.222 0.722-0.665 0.904l1.095 1.482h-0.573l-0.935-1.343h-0.431v1.343h-0.48m0.47-1.673h0.148c0.591 0 0.878-0.235 0.878-0.678 0-0.326-0.244-0.496-0.73-0.496h-0.296v1.174z"/>
</svg>
