<?xml version="1.0" encoding="UTF-8" standalone="no"?>
<svg enable-background="new 0 0 352.2 372.8" xmlns="http://www.w3.org/2000/svg" xmlns:xlink="http://www.w3.org/1999/xlink" version="1.1" viewBox="0 0 352.2 372.8">
<defs>
<radialGradient id="aq" gradientTransform="matrix(1 0 0 .3873 0 -155.59)" r="170.83" cy="1189.1" gradientUnits="userSpaceOnUse" cx="175.91">
<stop offset=".466" stop-opacity=".8"/>
<stop offset=".508" stop-opacity=".733"/>
<stop offset=".964" stop-opacity="0"/>
</radialGradient>
<linearGradient id="ak" gradientTransform="matrix(1 0 0 -1 -22.535 286.44)" gradientUnits="userSpaceOnUse" y2="237.53" x2="52.694" x1="68.25" y1="197.68">
<stop offset=".011" stop-color="#941f21"/>
<stop offset=".472" stop-color="#e36126"/>
<stop offset="1" stop-color="#f0bb62"/>
</linearGradient>
<linearGradient id="z" gradientTransform="matrix(.9673 .2537 .2537 -.9673 -1209.9 1128.7)" gradientUnits="userSpaceOnUse" x2="0" y2="1133" y1="1295.5">
<stop offset=".056" stop-color="#dc7327"/>
<stop offset="1" stop-color="#eebc89"/>
</linearGradient>
<linearGradient id="o" gradientTransform="matrix(.9897 -0.0801 -0.0949 -1.1727 14.946 356.34)" gradientUnits="userSpaceOnUse" y2="122.17" x2="-12.397" x1="42.539" y1="211.64">
<stop offset=".056" stop-color="#dc7327"/>
<stop offset="1" stop-color="#edbd6b"/>
</linearGradient>
<radialGradient id="h" gradientTransform="matrix(1 0 0 -1 -22.535 286.44)" r="63.929" cy="260.37" gradientUnits="userSpaceOnUse" cx="302.55">
<stop offset=".257" stop-color="#ffe300"/>
<stop offset=".336" stop-color="#fcd800"/>
<stop offset=".47" stop-color="#f8c91e"/>
<stop offset=".643" stop-color="#eda524"/>
<stop offset=".847" stop-color="#e37b28"/>
<stop offset="1" stop-color="#dd5a26"/>
</radialGradient>
<radialGradient id="g" gradientTransform="matrix(1 0 0 -1 -22.535 286.44)" r="33.395" cy="211.07" gradientUnits="userSpaceOnUse" cx="326.79">
<stop offset=".126" stop-color="#941f21"/>
<stop offset=".343" stop-color="#9e2922"/>
<stop offset=".73" stop-color="#c24028"/>
<stop offset="1" stop-color="#dc5726"/>
</radialGradient>
<radialGradient id="f" gradientTransform="matrix(1 0 0 -1 -22.535 286.44)" r="29.702" cy="-32.07" gradientUnits="userSpaceOnUse" cx="284.01">
<stop offset="0" stop-color="#431413"/>
<stop offset=".164" stop-color="#631e1c"/>
<stop offset=".332" stop-color="#832320"/>
<stop offset=".484" stop-color="#9c2222"/>
<stop offset=".615" stop-color="#ac2023"/>
<stop offset=".708" stop-color="#b21f24"/>
<stop offset=".999" stop-color="#aa1f24"/>
<stop offset="1" stop-color="#a91f24"/>
</radialGradient>
<radialGradient id="e" gradientTransform="matrix(1 0 0 -1 -22.535 286.44)" r="32.88" cy="24.653" gradientUnits="userSpaceOnUse" cx="341.53">
<stop offset=".126" stop-color="#941f21"/>
<stop offset=".343" stop-color="#9e2922"/>
<stop offset=".73" stop-color="#c24028"/>
<stop offset="1" stop-color="#dc5726"/>
</radialGradient>
<radialGradient id="d" gradientTransform="matrix(1 0 0 -1 -22.535 286.44)" r="29.7" cy="121.2" gradientUnits="userSpaceOnUse" cx="357.63">
<stop offset=".126" stop-color="#941f21"/>
<stop offset=".343" stop-color="#9e2922"/>
<stop offset=".73" stop-color="#c24028"/>
<stop offset="1" stop-color="#dc5726"/>
</radialGradient>
<radialGradient id="ap" gradientTransform="matrix(1 0 0 -1 -22.535 286.44)" r="37.11" cy="191.87" gradientUnits="userSpaceOnUse" cx="348.79">
<stop offset="0" stop-color="#941f21"/>
<stop offset=".638" stop-color="#c13f28"/>
<stop offset="1" stop-color="#dc5726"/>
</radialGradient>
<radialGradient id="ao" gradientTransform="matrix(.9408 0 0 -.8863 -1.4635 258.68)" r="328.84" cy="267.04" gradientUnits="userSpaceOnUse" cx="188.16">
<stop offset="0" stop-color="#52c4f1"/>
<stop offset=".077" stop-color="#45bbec"/>
<stop offset=".182" stop-color="#00a9dc"/>
<stop offset=".376" stop-color="#2276b8"/>
<stop offset=".501" stop-color="#035495"/>
<stop offset=".75" stop-color="#1d204e"/>
</radialGradient>
<linearGradient id="an" gradientTransform="matrix(1 0 0 -1 -22.535 286.44)" gradientUnits="userSpaceOnUse" y2="10.518" x2="257.41" x1="178.04" y1="119.4">
<stop offset="0" stop-color="#1d406f"/>
<stop offset="1" stop-color="#141728"/>
</linearGradient>
<radialGradient id="ai" gradientTransform="matrix(1 0 0 -.9811 -22.535 278.79)" r="322.22" cy="216.92" gradientUnits="userSpaceOnUse" cx="278.96">
<stop offset=".119" stop-color="#fff"/>
<stop offset=".122" stop-color="#fffffa"/>
<stop offset=".25" stop-color="#ffe560"/>
<stop offset=".287" stop-color="#ffdf56"/>
<stop offset=".347" stop-color="#f8d03b"/>
<stop offset=".406" stop-color="#f0be1b"/>
<stop offset=".473" stop-color="#eb9d23"/>
<stop offset=".548" stop-color="#e57c27"/>
<stop offset=".765" stop-color="#dd5626"/>
<stop offset=".903" stop-color="#c33a28"/>
<stop offset="1" stop-color="#b02228"/>
</radialGradient>
<radialGradient id="ah" gradientTransform="matrix(1 0 0 -.9759 -22.535 277.94)" r="239.54" cy="165.92" gradientUnits="userSpaceOnUse" cx="224.47">
<stop offset=".656" stop-opacity="0" stop-color="#b02228"/>
<stop offset=".872" stop-opacity=".658" stop-color="#b02127"/>
<stop offset=".973" stop-opacity=".967" stop-color="#b21f24"/>
<stop offset=".984" stop-color="#b21f24"/>
</radialGradient>
<radialGradient id="ag" gradientTransform="matrix(.5289 -.8327 -.8392 -.5131 164.83 444.52)" r="244.55" cy="84.77" gradientUnits="userSpaceOnUse" cx="246.68">
<stop offset=".71" stop-opacity="0" stop-color="#ed6624"/>
<stop offset=".835" stop-opacity=".489" stop-color="#ed6824"/>
<stop offset=".88" stop-opacity=".666" stop-color="#ee6d24"/>
<stop offset=".912" stop-opacity=".791" stop-color="#ef7624"/>
<stop offset=".938" stop-opacity=".893" stop-color="#f28223"/>
<stop offset=".96" stop-opacity=".979" stop-color="#f59123"/>
<stop offset=".966" stop-color="#f69622"/>
</radialGradient>
<radialGradient id="af" gradientTransform="matrix(1 0 0 -.6267 -22.535 146.14)" r="78.67" cy="84.11" gradientUnits="userSpaceOnUse" cx="179.42">
<stop offset="0" stop-opacity=".1" stop-color="#e05a27"/>
<stop offset=".306" stop-opacity=".845" stop-color="#de5926"/>
<stop offset=".556" stop-color="#b02228"/>
</radialGradient>
<radialGradient id="ae" gradientTransform="matrix(.9539 -.2859 -.1382 -.4185 33.309 94.903)" r="66.23" cy="-77.955" gradientUnits="userSpaceOnUse" cx="111.99">
<stop offset="0" stop-opacity="0" stop-color="#e05a27"/>
<stop offset=".446" stop-opacity=".8" stop-color="#dd5a26"/>
<stop offset=".722" stop-color="#b02228"/>
</radialGradient>
<radialGradient id="ad" gradientTransform="matrix(1 0 0 -1 -22.535 286.44)" r="178.25" cy="127.79" gradientUnits="userSpaceOnUse" cx="243.24">
<stop offset=".463" stop-color="#f0b91c"/>
<stop offset=".722" stop-color="#e36024"/>
<stop offset=".782" stop-color="#db5825"/>
<stop offset=".876" stop-color="#c74127"/>
<stop offset=".97" stop-color="#b02228"/>
</radialGradient>
<radialGradient id="ab" gradientTransform="matrix(1 0 0 -1 -22.535 286.44)" r="87.66" cy="146.69" gradientUnits="userSpaceOnUse" cx="304.44">
<stop offset=".09" stop-color="#fff"/>
<stop offset=".115" stop-color="#fffef7"/>
<stop offset=".151" stop-color="#fffbe8"/>
<stop offset=".193" stop-color="#fff7d0"/>
<stop offset=".239" stop-color="#fff2af"/>
<stop offset=".289" stop-color="#ffec85"/>
<stop offset=".342" stop-color="#ffe643"/>
<stop offset=".373" stop-color="#ffe300"/>
<stop offset=".418" stop-color="#ffdb00"/>
<stop offset=".494" stop-color="#f6c713"/>
<stop offset=".538" stop-color="#f0b91c"/>
<stop offset="1" stop-color="#e36024"/>
</radialGradient>
<radialGradient id="aa" gradientTransform="matrix(1 0 0 -1 -22.535 286.44)" r="159.1" cy="157.28" gradientUnits="userSpaceOnUse" cx="321.44">
<stop offset=".09" stop-color="#fff"/>
<stop offset=".115" stop-color="#fffef7"/>
<stop offset=".151" stop-color="#fffbe8"/>
<stop offset=".193" stop-color="#fff7d0"/>
<stop offset=".239" stop-color="#fff2af"/>
<stop offset=".289" stop-color="#ffec85"/>
<stop offset=".342" stop-color="#ffe643"/>
<stop offset=".373" stop-color="#ffe300"/>
<stop offset=".418" stop-color="#ffdb00"/>
<stop offset=".494" stop-color="#f6c713"/>
<stop offset=".538" stop-color="#f0b91c"/>
<stop offset=".741" stop-color="#e27327"/>
<stop offset=".942" stop-color="#dd5a26"/>
</radialGradient>
<linearGradient id="x" gradientTransform="matrix(.9995 -0.0314 -0.0314 -.9995 -20.753 313.04)" gradientUnits="userSpaceOnUse" y2="-11.754" x2="232.14" x1="254.75" y1="86.78">
<stop offset="0" stop-color="#fff038"/>
<stop offset=".003" stop-color="#ffec33"/>
<stop offset=".051" stop-color="#ffd92f"/>
<stop offset=".136" stop-color="#fcbc29"/>
<stop offset=".214" stop-color="#f9a725"/>
<stop offset=".281" stop-color="#f79b23"/>
<stop offset=".33" stop-color="#f69622"/>
<stop offset=".82" stop-opacity=".059" stop-color="#de5b26"/>
</linearGradient>
<linearGradient id="w" gradientTransform="matrix(1 0 0 -1 -22.535 286.44)" gradientUnits="userSpaceOnUse" y2="247.37" x2="47.567" x1="67.71" y1="195.76">
<stop offset=".169" stop-color="#b02228"/>
<stop offset=".406" stop-opacity=".744" stop-color="#bf3628"/>
<stop offset=".623" stop-opacity=".51" stop-color="#c84228"/>
<stop offset="1" stop-opacity="0" stop-color="#e05a27"/>
</linearGradient>
<radialGradient id="t" gradientTransform="matrix(1 0 0 -.8428 -22.535 246.03)" r="95.22" cy="30.26" gradientUnits="userSpaceOnUse" cx="175">
<stop offset=".5" stop-opacity="0" stop-color="#e05a27"/>
<stop offset=".75" stop-opacity=".775" stop-color="#de5926"/>
<stop offset=".95" stop-color="#b02228"/>
</radialGradient>
<linearGradient id="s" gradientTransform="matrix(1 0 0 -1 -22.535 286.44)" gradientUnits="userSpaceOnUse" y2="200.4" x2="197.86" x1="177.69" y1="169.34">
<stop offset="0" stop-color="#37383a"/>
<stop offset=".651" stop-color="#7b3f3d"/>
<stop offset="1" stop-color="#dd5a26"/>
</linearGradient>
<radialGradient id="r" gradientTransform="matrix(.9863 -.1647 -.1249 -.7478 15.643 224.36)" r="87.31" cy="34.34" gradientUnits="userSpaceOnUse" cx="127.8">
<stop offset=".5" stop-opacity="0" stop-color="#e05a27"/>
<stop offset=".656" stop-color="#dd5a26"/>
<stop offset=".815" stop-color="#b02228"/>
</radialGradient>
<radialGradient id="q" gradientTransform="matrix(.9996 -0.0268 -0.0263 -.9807 -11.591 293.55)" r="164.47" cy="264.26" gradientUnits="userSpaceOnUse" cx="263.41">
<stop offset="0" stop-opacity="0" stop-color="#ffe000"/>
<stop offset=".355" stop-opacity=".515" stop-color="#fed700"/>
<stop offset=".483" stop-opacity=".7" stop-color="#fed208"/>
<stop offset=".857" stop-opacity="0" stop-color="#fed208"/>
</radialGradient>
<radialGradient id="p" r="210.73" cx="126.39" cy="63.737" gradientUnits="userSpaceOnUse">
<stop offset="0" stop-color="#ed6624"/>
<stop offset="1" stop-color="#f69622"/>
</radialGradient>
<radialGradient id="n" gradientTransform="matrix(-.2756 .9504 -.6431 -.1776 -962.86 1318.8)" r="53.88" cy="-1211.8" gradientUnits="userSpaceOnUse" cx="-1401.5">
<stop offset="0" stop-color="#fff"/>
<stop offset=".027" stop-opacity=".963" stop-color="#fffbe8"/>
<stop offset=".102" stop-opacity=".857" stop-color="#fff2b6"/>
<stop offset=".174" stop-opacity=".756" stop-color="#ffed8c"/>
<stop offset=".24" stop-opacity=".662" stop-color="#ffe967"/>
<stop offset=".3" stop-opacity=".578" stop-color="#ffe645"/>
<stop offset=".352" stop-opacity=".506" stop-color="#ffe42c"/>
<stop offset=".389" stop-opacity=".454" stop-color="#ffe421"/>
<stop offset=".809" stop-opacity="0" stop-color="#ffe300"/>
</radialGradient>
<radialGradient id="m" gradientTransform="matrix(-.3166 .8278 -.6529 -.2379 -1017.1 1149.9)" r="56.15" cy="-1158.8" gradientUnits="userSpaceOnUse" cx="-1471.7">
<stop offset="0" stop-color="#fff"/>
<stop offset=".027" stop-opacity=".963" stop-color="#fffbe8"/>
<stop offset=".102" stop-opacity=".857" stop-color="#fff2b6"/>
<stop offset=".174" stop-opacity=".756" stop-color="#ffed8c"/>
<stop offset=".24" stop-opacity=".662" stop-color="#ffe967"/>
<stop offset=".3" stop-opacity=".578" stop-color="#ffe645"/>
<stop offset=".352" stop-opacity=".506" stop-color="#ffe42c"/>
<stop offset=".389" stop-opacity=".454" stop-color="#ffe421"/>
<stop offset=".809" stop-opacity="0" stop-color="#ffe300"/>
</radialGradient>
<radialGradient id="l" gradientTransform="matrix(-.2345 .5201 -.5377 -.2307 -894.65 746.31)" r="42.11" cy="-1332.2" gradientUnits="userSpaceOnUse" cx="-1629.4">
<stop offset="0" stop-color="#fff"/>
<stop offset=".027" stop-opacity=".963" stop-color="#fffbe8"/>
<stop offset=".102" stop-opacity=".857" stop-color="#fff2b6"/>
<stop offset=".174" stop-opacity=".756" stop-color="#ffed8c"/>
<stop offset=".24" stop-opacity=".662" stop-color="#ffe967"/>
<stop offset=".3" stop-opacity=".578" stop-color="#ffe645"/>
<stop offset=".352" stop-opacity=".506" stop-color="#ffe42c"/>
<stop offset=".389" stop-opacity=".454" stop-color="#ffe421"/>
<stop offset=".809" stop-opacity="0" stop-color="#ffe300"/>
</radialGradient>
<linearGradient id="k" y2="346.57" y1="155.67" x2="0" gradientUnits="userSpaceOnUse">
<stop offset="0" stop-color="#e57c27"/>
<stop offset=".5" stop-color="#dd5626"/>
<stop offset=".647" stop-color="#c33a28"/>
<stop offset=".75" stop-color="#b02228"/>
<stop offset=".813" stop-color="#ab2026"/>
<stop offset=".913" stop-color="#9c1c21"/>
<stop offset="1" stop-color="#8c161a"/>
</linearGradient>
<radialGradient id="j" gradientTransform="matrix(0.0279 -.9996 .9996 0.0279 4653.8 3342.7)" r="111.59" cy="-4629" gradientUnits="userSpaceOnUse" cx="2912.8">
<stop offset="0" stop-color="#ed6624"/>
<stop offset="1" stop-color="#f69622"/>
</radialGradient>
<radialGradient id="i" gradientTransform="matrix(.9569 .2903 -.1939 .6392 19.546 8.4187)" r="43.93" cy="84.06" gradientUnits="userSpaceOnUse" cx="75.47">
<stop offset=".487" stop-opacity="0" stop-color="#e57c27"/>
<stop offset=".853" stop-color="#f0be1b"/>
</radialGradient>
<clipPath id="a">
<use xlink:href="#am"/>
</clipPath>
<radialGradient id="al" gradientTransform="matrix(.9408 0 0 -.9578 -1.4635 284.05)" r="210.28" cy="85.36" gradientUnits="userSpaceOnUse" cx="187.33">
<stop offset=".795" stop-opacity="0" stop-color="#00a9d4"/>
<stop offset=".907" stop-opacity=".449" stop-color="#50b6e7"/>
<stop offset=".981" stop-color="#70caf2"/>
</radialGradient>
<radialGradient id="aj" gradientTransform="matrix(1 0 0 -.9811 -22.535 278.79)" r="191.42" cy="226.07" gradientUnits="userSpaceOnUse" cx="215.18">
<stop offset=".134" stop-color="#00a3de"/>
<stop offset=".173" stop-color="#009ed9"/>
<stop offset=".233" stop-color="#0292ce"/>
<stop offset=".307" stop-color="#1d7ebe"/>
<stop offset=".334" stop-color="#2276b8"/>
<stop offset=".44" stop-color="#2468a5"/>
<stop offset=".655" stop-color="#1f4276"/>
<stop offset=".862" stop-color="#1d204e"/>
</radialGradient>
<radialGradient id="ac" gradientTransform="matrix(1 0 0 -1 -22.535 286.44)" r="215.6" cy="228.7" gradientUnits="userSpaceOnUse" cx="368.27">
<stop offset=".306" stop-color="#ffe300"/>
<stop offset=".482" stop-color="#f8c91e"/>
<stop offset=".836" stop-color="#e36024"/>
<stop offset="1" stop-color="#e36024"/>
</radialGradient>
<radialGradient id="y" gradientTransform="matrix(1 0 0 -1 -22.535 286.44)" r="134.69" cy="115.84" gradientUnits="userSpaceOnUse" cx="296.09">
<stop offset=".09" stop-color="#fff"/>
<stop offset=".106" stop-color="#fffef7"/>
<stop offset=".13" stop-color="#fffbe8"/>
<stop offset=".158" stop-color="#fff7d0"/>
<stop offset=".189" stop-color="#fff2af"/>
<stop offset=".222" stop-color="#ffec85"/>
<stop offset=".257" stop-color="#ffe643"/>
<stop offset=".277" stop-color="#ffe300"/>
<stop offset=".319" stop-color="#ffdb00"/>
<stop offset=".39" stop-color="#f6c713"/>
<stop offset=".43" stop-color="#f0b91c"/>
<stop offset=".505" stop-color="#ea9e23"/>
<stop offset=".632" stop-color="#e27327"/>
<stop offset=".801" stop-color="#df6427"/>
<stop offset=".948" stop-color="#dd5a26"/>
</radialGradient>
<linearGradient id="v" gradientTransform="matrix(1 0 0 -1 -22.535 286.44)" gradientUnits="userSpaceOnUse" y2="168.75" x2="176" x1="149.17" y1="156.94">
<stop offset=".075" stop-color="#dd5a26"/>
<stop offset=".298" stop-color="#e9986d"/>
<stop offset=".667" stop-color="#f4d4ac"/>
<stop offset="1" stop-color="#f9f7c9"/>
</linearGradient>
<linearGradient id="u" gradientTransform="matrix(1 0 0 -1 -22.535 286.44)" gradientUnits="userSpaceOnUse" y2="188.67" x2="220.88" x1="151.64" y1="153.88">
<stop offset=".044" stop-color="#dd5a26"/>
<stop offset=".258" stop-color="#eca77c"/>
<stop offset="1" stop-color="#f9f7c9"/>
</linearGradient>
<path id="am" d="m175.5 337.9c93.1 0 168.6-75.5 168.6-168.7s-75.5-168.7-168.6-168.7-168.6 75.6-168.6 168.7c0 93.2 75.5 168.7 168.6 168.7z"/>
<radialGradient id="c" gradientTransform="matrix(1 0 0 -.9474 -22.535 271.03)" cx="167.26" cy="93.96" gradientUnits="userSpaceOnUse" r="248.2">
<stop offset=".616" stop-opacity="0" stop-color="#8ed3f5"/>
<stop offset=".713" stop-color="#7acdf2"/>
</radialGradient>
<radialGradient id="b" cx="178.55" cy="31.517" gradientUnits="userSpaceOnUse" r="216.04">
<stop offset=".082" stop-color="#00a2dc"/>
<stop offset=".161" stop-color="#0096d4"/>
<stop offset=".328" stop-color="#2578b8"/>
<stop offset=".33" stop-color="#2276b8"/>
<stop offset=".5" stop-color="#035495"/>
<stop offset=".832" stop-color="#14143e"/>
</radialGradient>
</defs>
<ellipse cx="175.9" cy="304.9" fill="url(#aq)" ry="67.9" rx="175.2"/>
<path fill="url(#ak)" d="m46.8 52.2c-0.4-0.6-0.4 1.5-0.8 0.8-2.7-4.8-4.9-13-5.2-18.8 0 0-4.4 2.5-7.2 11.5-0.5 1.6-0.9 2.5-1.2 3.4-0.1 0.3 0.2-2.9 0.1-2.6-0.5 1.1-2.1 2.9-2.6 4.9-0.4 1.6-1 2.5-1.3 4.5-0.1 0.6-0.1-2.4-0.2-1.9-3.7 9.8-6.7 23.6-5 42.3 16.7-15 40.4-26.3 40.4-26.3-2.7-1.7-11.1-8.3-17-17.8z"/>
<path fill="url(#z)" d="m3 203.5c0.2-2.8 7-59.4 33.2-78.5 22.6-16.5 5-10.5-3.7-9.8-9.2 0.7-14.1 6.3-12.3 4.3 0.1-0.1 0.1-0.1 0.1-0.2-0.3-0.4-21.6 17.5-17.3 84.2z"/>
<path fill="url(#o)" d="m0 159.3s15.4-49 46.6-48.5c20.7 0.3 4.3-17.5-2-20.2-6.5-2.8-8.1-2.7-9.6-1.3-2.3 2-22.8 1.2-35 70z"/>
<path fill="url(#h)" d="m285.7 35.9s14.7 7.1 24.2 22.3c7.8 12.4 4.1 29.1-2.9 26.2-6.9-2.9-21.3-48.5-21.3-48.5z"/>
<path fill="url(#g)" d="m311 86c4.1-31.5-25.4-50.2-25.4-50.2s1.9 10.8 4.2 34.8c2.8 27.5 19.3 30.2 21.2 15.4z"/>
<path fill="url(#f)" d="m212.2 329.1c53.3 11.3 93.6-33.7 64.8-44.5-26.1-9.8-90.1 39.1-64.8 44.5z"/>
<path fill="url(#e)" d="m281.7 286c53.2-11.6 71.4-69.2 40.8-67.2-27.8 1.8-66 72.7-40.8 67.2z"/>
<path fill="url(#d)" d="m328.9 196.4c34.9-25.2 18.3-70 18.3-70s-7.7 23.1-14.7 50.3c-6.9 27.1-24.5 34.8-3.6 19.7z"/>
<path fill="url(#ap)" d="m339.3 118.1c-3.7-43.2-30.5-65.6-30.5-65.6s2.7 14.7 6.3 34.8c4.8 27.5 26.4 56.5 24.2 30.8z"/>
<path fill="url(#ao)" d="m175.6 338.3c93.2 0 168.7-75.6 168.7-168.8s-75.5-168.8-168.7-168.8-168.7 75.6-168.7 168.8 75.5 168.8 168.7 168.8z"/>
<path fill="url(#b)" d="m149.6 304.9c5.0486 0.10482-0.93662-3.2937 0 0zm-3.9 0.4c-6.55-4.2718 0.39085 2.9078 0 0zm-63.4-9.5c-11.22-9.0529-3.273-0.81198 0 0zm66.7 8.5-0.2-0.2 0.2 0.2zm-113.3-157.1c1.769-4.4214 0.40941-0.72735 0 0zm88.9 80.6c-0.3239-0.47439 0.17548 0.93348 0 0zm-77.8-81.1c-3.9971-0.27342-1.5253 7.3404 0.2 1.8 0.72898-0.36317-0.05168-1.3368-0.2-1.8zm-3.4 99.6c-2.0729-1.632 4.5005 7.3722 0 0zm-3.2-111.2c-2.1354-2.9177-4.9768 3.0503-1.8 2.3 0.5986-0.77459 2.9451-0.85704 1.8-2.3zm32.7 149.2c0.03866-3.2138-8.589-13.519-6.1-8.1 0.16204 0.94488 9.3947 15.266 6.1 8.1zm-23.2-24c-6.0131-10.805 5.5103 11.204 0 0zm18.9 15.5c3.647 3.0855-4.0325-4.7229 0 0zm3.3 9.8c-0.434-1.0592-3.2653-5.2958-1.9-2.5-0.002 0.54937 2.5304 3.8882 1.9 2.5zm67.8 22.7c-1.8671 0.48417 1.5977 1.1247 0 0zm2.6-2.6c0.72991-2.9047-5.4386-1.6452 0 0zm-0.6 2.3c3.8121-0.58954-2.0637-2.4571 0 0zm-104.5-162c1.7097-0.43236 5.6442-4.9343 5.1-7.4-1.8597-2.4089-3.3753 3.3143-4.8 4.8 0.0038 0.74827-0.85287 1.981-0.3 2.6zm1 59.3c0.0061-3.857 0.29058-0.27157 0 0zm123.8 64.3c-7.6246-1.5389-10.658-8.498-16.9-12.2-3.2353-6.4299-10.475-7.1642-15.1-12.5-5.1372-2.5223-7.9874-7.0219-5.2-12.3-2.3355-5.5718 6.5662-14.193-1.7-16.9 3.5-2.1023 6.2718-11.63 0.6-14.8-4.7298-4.9882-12.684-2.7315-17.5-10.7-8.1314-3.9047-7.831-13.095-5.6-19.6 3.5934-3.8999 6.575-6.6644 9.7-8.9 3.6633-2.3929 0.29657-14.458-1.7-8.9-4.0855 3.4937-10.585 5.0524-16.4 6.9-7.6349-2.409-8.9489 2.7426-14.5 4.9 0.49149-3.9115-12.055-1.966-9.4875-5.5375-2.4421-8.4813-9.7829 1.8089-14.012 3.3375-6.4035 7.15 7.2921 12.468 10.1 16.8-2.2476 11.36-7.1705 5.2598-9.9-1.6-7.547-2.9685-6.598 11.216-7.4-2.1-4.3522-6.3576-5.7941 1.808-11.762 3.0875-5.3351 7.7863 1.8198 17.954 3.9625 24.712 10.084 2.0982 9.5345 19.449-0.3 12.3-5.1551-0.85812 3.1312 9.25 1.4 13.1 0.14453 5.4414 0.63678 11.174 3.7 16 2.455 8.1172 8.328 12.301 12.7 11.8-1.86-4.3353 7.2753 5.2079 7 7 5.033 6.7052-0.43661 4.1662 5.8 10.2 3.6987 8.169 2.3538 2.5928 3.45-1.225 6.0935-0.1039 9.4737 7.1007 11.55 12.025-8.1264-3.966-1.6144 4.6393 4.4125 8.0125 5.0515 0.56549 5.6133 9.4596 10.988 12.088 4.9493 2.5134 4.5481 6.4548 10.1 9.5 6.0389 4.4762 13.15 6.572 19.4 10.5 4.6708 3.1048 11.085 4.2483 16.9 4.9-7.2191-1.6283-12.592-7.5647-19.8-9.8-2.6902-2.8208-5.9352-8.2334-2.9-12.4 5.2784 2.8089 5.9002 11.854 12.85 7.6375-3.6243-7.4183 5.5931-7.9078 1.85-12.938 6.5595-1.1604 9.482 4.8794 13.5-0.8 6.2332-0.55407 2.4875-6.3218 4.8-11.6 2.5594-6.1477 1.2197-16.088-4.8-10.4-10.016-7.4233 2.5643-5.5147 7.4-6.7-0.0664-2.2267 10.509-2.6053 2.8-2.9zm-50.8-106.1c0.90174-3.8117-2.1462 0.4549 0 0zm27.9 148.8c3.4551 2.2429-1.5155-3.6327 0 0zm-30.2-146.5c2.1633-2.6715-1.8397-0.52239 0 0zm28.6 147.7c2.205-0.25961-1.3801-2.9003 0 0zm-0.8 1.7c-0.99472-2.7158-0.0906 3.2039 0 0zm3.4 2.2c1.5783-4.8946-5.8082 0.0427 0 0zm-4.7-0.5c-1.2514 1.3232 3.9148 0.0452 0 0zm2.6-0.6c0.63239-1.9107-1.8142-1.7983 0 0zm0.2-5.6c-1.2402-5.2764-2.6697 3.51 0 0zm-8.6-81c5.6674-1.8102-3.3168-6.2028 0 0zm-4.9-189.5c-0.85595-4.3032-4.7679 1.321-3.6 3.6 0.0765 4.9271 4.0197-1.7618 3.6-3.6zm2.8 190c-4.3636 2.2112 3.3733 4.8924 0 0zm0.3-192.8c1.7447 1.5075 5.3154-3.8462 1.4-2.6-1.1079 0.06882-3.738 1.8838-1.4 2.6zm-19.8 127.6 0.4 0.5-0.4-0.5zm28.6-133.9c1.5206-3.9365-5.5927 3.7722-0.6 0.8l0.2-0.2 0.4-0.6zm-3.9 2.4c0.9542-3.4457-2.452 1.602 0 0zm-112 90.6-0.1 0.1 0.1-0.1zm11.7 12.7c0.54804 0.30411 0.5525-4.9895 1.5-6.5 1.0396-2.9626 2.9488-7.8658 7.2-5.7 3.9282-1.9806 5.1684 5.2384 8.2 1.175 0.33027-2.6521-0.61886-4.5566 0.8-6.975-3.8226 3.1303-3.9549-1.787-0.7-4.2 2.6482-0.42181 2.4796 2.8783 6.5-1.7 2.6363-2.6427 2.8269-2.3169 5.2-2.8 3.1202-2.1081 3.2104-8.9674-1.9-7.5-3.3754-0.11018-5.4241 2.0001-8.5 0.2-1.6246 5.4825-0.39172 2.3691-1.9-0.8 2.1212-4.5773 1.9251-9.9013 4.7-14.5 2.1823-3.137 5.0964-6.5664 9.2-7.2 1.1056-1.9563-0.04413-3.4512-1.6-3.8 1.3763-1.3768 2.5263-4.1292 5.2-5.8 5.4487-5.2235 5.7441-0.95588 1.8 2.8 2.2835 0.17432-2.7874 6.4979 1 4.4 2.8102-2.2236 5.579-0.04361 8.6-0.8 2.7721-4.0291 3.2128-0.49224 2.5 2.4 0.98474 1.6985 1.4372 7.6049 4.1 4.2 3.2571 1.15 5.5129-0.70972 7.9-3.6 3.3496-2.3792 5.7206-4.7562 8-7.7 0.86748-2.3748 1.2344-5.1279 2.7-7.3-2.4152-1.0063-4.4757-0.32613-6.9 1.5-1.4314-0.13894-6.8022 1.6508-5.6-0.7 1.9956-3.0844 7.7191-2.4598 8.6-5.3-2.9109-0.8431-8.7275 0.42267-4.3-2.8-0.68634-3.6298 6.2496-2.3283 4.4-4-4.292-0.74626 0.76556-2.2531 2.5-3.2 1.4446-0.17818 8.617-5.3172 7-1.8 0.0824 0.3265 5.3617-3.3744 8-3 4.1983-2.1586 0.33413-5.4914 1.7-6.8-1.0605-0.75572-1.1715-2.4764-3.7-2.6-1.4695 2.7001-5.2223 2.9633-7 1.4 0.76086-2.2473-4.2924 0.54282-5.8 0.1-3.3789 0.03663 1.2135-2.9529 2.6-3.5-4.1865-0.82132 2.3234-2.9355 3.9-3.5 3.2406-0.72746 4.4757-3.7652 6.7-6-4.5564-2.0944 0.81284-6.998 4.6-7.4 1.0943 1.2877 4.6635-1.2236 6.8 0.1 1.5148-0.35964 8.4627-4.2306 4.1-2.3-5.1355 1.732 1.6267-2.1162 3.6-2.7 7.7495-2.3005 15.846-6.4122 22.5-8.4-4.6102-0.25843-9.8522 2.5561-13.5 2.8 0.65341 1.3776-3.5981 1.0412-5.1 1.5 2.2669-1.1982 3.3642-1.7045 0.1-0.7-1.4754 0.30498 3.3724-1.6047 0.1-0.8-6.6938 1.5394-13.551 2.2492-19.7 5.1-9.1516 2.811-18.286 6.3581-26.1 12.2 3.1406-1.1245 6.9625-2.911 2.1-0.5-3.9702 2.7438-8.5414 5.7756-12.5 7.9 2.7791-1.7567 6.9531-3.1256 1.9-0.3-2.1855 2.3689-6.1261 5.0789-5.7 4.6-1.0898 1.0123-5.802 2.431-2.4 0.5 4.8126-4.6287-1.88 0.3733-3.5455 2.3455-1.904 1.823-9.199 6.893-8.454 6.254 3.836-3.87-3.56 3.295-4.9 3.9-5.838 4.04-8.882 10.176-13.5 14.6-12.508 13.436-18.555 30.946-26.1 47.2-1.3765 3.6879-1.6119 8.3884 0.1 2.4 0.51444-5.9242 4.4691-5.5563 2.7-0.1-0.64412 3.7358-2.2295 7.5343-1.4 11.3 1.8542-0.68094 3.9786-6.5947 3.7-2.1 0.08493 3.0051 1.4942 7.012-1 9.1-0.39287 3.6862-2.7976 2.4725-4.2 4.9-1.9078 4.7991 1.5746-0.4636 2.2 1 2.5926-1.1992 4.9449-4.5224 6.5-6.8-0.36178 1.9071-1.3888 4.5827 0.4 6.2 1.2222-1.2133 2.2892-6.6326 3.4-5.4-0.70942 2.3321 0.25653 3.3436 0.7 5.5zm112.6-130.3c6.39-1.8143 13.82-3.1666 20.7-3.6-6.83-0.2211-15.09-0.3079-20.7 3.6zm-6.5 19.8c4.9353-1.071-0.9721-2.516 0 0zm-11.7 214.5c7.1079-3.7981-5.8086-8.364 0 0zm4.1 2.4c6.4162-2.2289 5.9007-10.023 3.025-14.95-6.3271 1.1946-4.7434 8.2908-2.325 11.45-2.2183 1.2953-1.6282 3.5898-0.7 3.5zm-4.6-205.5c-2.7586 1.8667 4.2734 2.5699 0 0zm-14.5 114.2c1.6337-6.7017-1.6763-0.12268 0 0zm-53.8 5.2c-1.3138-1.8005-5.1357 4.5651-1.2 2 0.49331-0.76563 1.0894-1.0823 1.2-2zm-2-19c-1.9655 1.7621 1.3217 6.4425 1.8 2.5-0.38067-0.50954-1.4363-5.1159-1.8-2.5zm26.7-11.4c-3.4605 0.60785-4.0847 5.0877-0.1 1.8 0.04748-0.51371 0.38044-1.2651 0.1-1.8zm-33.6 32.3c0.58343-2.2474 7.5188-5.8885 3.7-6.6-4.186 4.1508-4.8136-1.7857-6-1.2-0.79676 4.2942-1.881-0.0103-4.1 0.2-1.4911-2.1745 1.7381-3.2087 1.6-5.9-1.194 2.3451-9.9664 4.8463-6 5.6-0.36974 1.8397-4.4338 4.9609-1 5.2 1.0713 2.0344-4.0104 7.1988 0.7 5.7 3.1528-0.8223 10.133-5.0374 10.4 0.3 0.6628 1.7688 0.6012-2.8989 0.7-3.3zm-13.7-22.1c0.66908-1.8878 4.6275-8.1495-0.2-6.6-2.4515 1.6809-0.53458 4.1698 0 6.4l0.1 0.1 0.1 0.1zm68.8-69.6v-0.2 0.2zm-67.1 75.6c3.2209-3.8801 0.6459-6.2933-1.1-1.7-0.29471 1.2314-0.21074 4.2178 1.1 1.7zm73.8 8 0.2 0.3-0.2-0.3zm2.1-95.6c1.1996-3.2814-4.3392 0.02208-4.4 2.2-2.2696 2.8439-5.1544 5.9525-4.1 9.5 4.8183-1.8519 8.2109-6.6154 8.5-11.7zm-36.1 82.4c2.9229 4.8985 6.0196-2.9196 7.2-5.4 0.45508-4.6572-5.0575-1.4031-6.5 0.8-2.6484 1.0599-0.35335 2.6614-0.7 4.6zm16.8-48.1c0.48298-2.685-3.5243-7.5393-3.3-3-1.3009 4.2326-2.1888-1.4907-5.1-0.3-4.31 0.09008-6.4505 4.4183-9 7.5-5.5032 6.4482 3.3672 0.08615 4.2 1.2-1.1375 3.7974 4.7515-1.1605 3.7 2.4 1.9233 0.06702 3.9398-3.6032 6.8-4 1.7792-0.23256 3.7248-3.2676 2.7-3.8zm-24.9 28.7c5.1927-3.5146-3.2883-3.5248 0 0zm-10.5 24c3.0981 4.2362 10.207 1.5808 14.2-0.2 4.6869 0.47183 4.5418-2.5403 2.6-5.6-0.63795-2.6695 2.6417-7.4407-1.3-8.3-3.19 3.9016-0.06388-3.0305-1.6-3.1 0.17407-3.0078-3.8208-6.7203-2.8-1.8 1.0718 5.5222-3.0012 7.6099-4.2 10.7 0.3218 3.6089-3.6798 4.1844-6.3 3.9-0.64465 1.1385-0.34258 2.9983-0.6 4.4zm178.3 171.2c-6.6996 2.4337 3.1148 1.0319 0 0zm61.3-49.9c-3.65 1.6383-2.6869 5.7145 0 0zm-15.4 21.9c-2.378 0.86437 0.54965 1.4926 0 0zm15.7-18.5c-0.94229 3.0537 5.7401-1.7364 0 0zm5.2-0.3c7.5245-9.0884-3.9484 3.7386 0 0zm-5.1 1.6 0.2-0.2-0.2 0.2zm4.7-2.8c11.245-9.5834-4.4281 1.5093 0 0zm-2.6 2.5c-8.8802 5.9315 2.5619 0.61392 0 0zm-1.4 6.5c-2.9625 2.9641-4.3228 3.5459-7.5 7.5-3.66 6.1109 2.8718-0.68671 3.9-3 1.5423-2.308 3.1577 1.7105 3.6-4.5zm-8.3-56.8 0.2-0.4-0.2 0.4zm-6.6 68.6c-2.4814 1.3958 0.57057 1.297 0 0zm11.5-21.8c6.4113-6.389 0.62792-2.613 0 0zm4-1.5c4.9411 1.2348 9.33-3.1015 10.7-7.8-1.6165 4.6702-5.9036 5.0529-9.7 5.8-0.50433 0.13499-2.8752 2.4233-1 2zm-0.8 2c2.0984 1.9445 6.0321-1.7698 0 0zm6.6 0.4c-3.0093 2.2526-2.9987 5.5991 0 0zm-53-5.3-0.3 0.4 0.3-0.4zm8.9-231-0.3-0.2 0.3 0.2zm66.4 180.9c-0.38216-5.6533-6.8398 7.1-1.3 4.5 0.81908-1.2779 1.0194-3.0259 1.3-4.5zm7-63.8c-1.7365-3.5002-6.7194 5.2772-4.6-2.2 0.34278-1.8075 3.6166-8.3486-0.1-4.1-3.0493-2.3557-6.6801 7.5517-8.1-1.4-1.3299-4.6962-1.5779-8.4874 0.2-13.5 1.4209-3.5551-4.5857-13.194-1.3-5.1 0.10001 3.5508-3.1202-5.9552-6.5-5.6-1.555-1.4028-9.0063-6.1284-3.8-6.1-0.55162-1.7533-0.98368-5.6685 2.4-5.6 4.1613-0.0562 7.5061 2.9166 7.3 7.1 2.076 2.2428 5.1749 0.77552 7.8 0.3-0.55296-4.4256-0.91732-4.6386-2.6-8.8-1.9486-3.0915-0.50847-0.55582-0.4 1.8 0.57778 3.5487-2.5582 1.9151-4.9 0.7-2.1633-2.3805-1.5493-5.508-2-8.7-4.6708-5.865-0.12695-0.22045-1-3.7-1.5118-2.6953 2.4487-4.4985 3.5-1.4-0.0451-0.91648 5.1243 10.188 2.4 3.7-1.41-9.512-8.32-16.339-12.8-24.5-9.38-14.308-23.98-23.527-36-35.2-9.11-6.052-18.84-11.245-28.4-16.3-1.54-4.359-21.45-7.6999-11.8-4.6 1.5903 0.68347 9.1786 4.8517 4.8 3.4-3.7172-2.9638-10.4-4.7076-13.7-5.2 0.35888 0.55382 6.3024 4.3952 2.8 2.5-1.3297-1.3132-6.8133-0.24054-2.6 0.2 2.3357 0.27609-2.1292 0.69608-1.5 1.6-2.2268-0.58856-6.4723-0.77446-3.9 2.5 1.4402 1.8582-5.2552 4.8662 0.3 6 4.3227 0.45074 4.8255 1.1687 7 2.1 4.9384 0.22654 6.4671 2.4958 5.5 6 1.206 3.6772 6.2241 6.7698 5.8 11.9 4.1913 3.3576 1.4102 7.0844 6.5 10.5 4.4357 0.01417 6.8728 6.534 4.5 9.1-3.4171-2.0148-8.2955-0.59748-10.7-4.5-3.0894-2.9946-5.6523-6.5322-10.6-6 0.17789 1.7655 5.2553 8.102 3.4 8.6-1.5758-1.6156-4.1317-7.9261-6.4-3.3-0.98544 4.2096 1.377 5.716-1.8 6.3 3.8348 3.9982-2.9076 4.8504-3.8 6 3.5572 3.9917 10.078 2.2594 14.2 5 4.7 0.19245 9.9935-0.8708 14.2 0 3.6444 2.8115 7.8165 4.1161 6.2 8.4 4.8127 2.279 10.505-2.0743 15.9-1.8 1.9721 2.0367 7.1865 3.4817 6.1-1.4 3.3238-2.3723 5.8385 3.6025 8.6 5.1 3.7451 1.2986 8.3273 5.3186 9.6 7.8 2.1146 1.1008 5.2101 7.3106 1.5 5-3.7928-2.2283 3.0971 4.2159 4.1 6.1 2.9115 0.95923 6.939 8.3163 0.3 5.7-7.0514-2.3321-4.8537 4.0176-3 8.1 2.1713 5.1115 3.0936 7.0987 0 3.2 4.6942 7.0869-1.3252 3.6096-2.3-1.3-1.6601-2.5302-2.9259-9.4663-6.4-8-0.76456 6.2979-10.415 7.9224-8.4 14.825-2.2027 2.0581 1.9397 6.8224 3.4 9.275 2.6703 3.807 4.5393 9.2141 3.2 13.5-5.1332 3.1674-10.898 0.34903-13.9 6.6-5.3443-1.1234-3.4903-8.1727-4.8-11.8 0.94839-4.5558 2.5817-10.344-4.1-10.9-7.157 1.2123-11.31-7.97-16.2-11.6-0.47656-8.3044-9.0188-6.8902-10.9-7.7 5.4345-6.8436-4.5781-7.7495-9-5.8-3.8391-1.4658-3.9887-6.6543-11.2-2.2-4.0974 5.3894 0.6735 9.4754-7.2 6.4-2.4935 4.2059-4.2445 8.0268-5 11.7 0.14689 8.7397 11.598 3.1398 14.7 9.5 5.4795 3.1414 12.207 11.636 5.1 13.8 3.3926 5.4968-6.035 6.1684-6.1 0.5 2.0216-5.1817-6.7715-8.0992-10.2-5.3-4.0746 0.54176-11.123-0.31975-11.4 5 0.64325 5.1669 1.9992 10.234 1.5 15.9 1.9031 5.0284 6.2312 9.0255 11.9 5.2 5.1433-0.15203 12.685-14.046 9.3-4.2 0.25594 4.702-4.7994 7.8137-2.3 12.4 0.48591 4.8071 5.3522 8.5862 3.9 14 4.3593 4.8664 9.7654 6.7893 14.4 11.1 7.6053 3.1878 1.6348-8.951 7.5-7.8 6.4994 7.2416-3.1995 14.273 1.9 20.4-0.0721 4.0143 3.6696 7.7226-0.7 9.6-0.68963 4.0558-2.8293 8.3178-7.6 7.4-1.4207 3.0843 1.2774 8.2056-3.2 11.6 2.9048 4.3082 8.4458 2.108 12.5 1.1 7.7684-1.8626 6.4661 1.7348 5.5 6.9 1.2414 4.0685-1.8675 6.4871-5.5 6.3-3.6185 3.2523-1.9242 7.3557 2.7 4 5.2469-1.82 6.1942-4.4914 4.1 1.9-1.9245 3.7251 1.5969 4.5939 4.8 4.2 4.5951 0.19996 4.3796 5.0718 2.4 8 4.0427 1.0872-1.5164 4.5096-0.3 7.1-0.72353 4.3087 2.5322-3.4378 4.8-3.7 1.2642-4.1314 3.0271-3.2903 5.4-2.7 1.4158-3.2644 6.7804-5.2664 5.1-9.2 2.5809-3.0964 4.922-5.0818 8.5-4 5.4712 0.21198 1.1585 5.9651-1 7.7-3.9732 5.256 3.4944-0.24436 5.5-1.4 3.5802-0.98046 5.616-5.232 9.9-9.1 3.1554-3.713 7.7722-1.1957 10.3-3.7 5.9404-6.0592 6.8315-16.635 14.8-20.3 4.8691-4.9466 7.872-13.847 4.2-20.2-3.3661-2.8203-3.4705 1.643-5 3.6-0.39309 3.6418-1.6051 5.9626-3.4 9.2-1.4447 6.2-3.9201 0.58924-5 2.5-2.5749 4.8589-6.1164 9.2472-11.2 11.9-4.156 2.9844-5.9588-3.9226-3.3-6.2 4.1279-5.4493 0.74732-2.8122-1.1-6.3-5.8793-1.193 1.4073-7.3193 2.3-10.4 4.6445-3.946 6.9221-9.4933 11.2-13.3 0.18519-6.435 4.2864-4.7967 4.6 0.4 2.2904 1.5454 4.9613-5.5876 6.2-7.5-5.1247-9.0818 1.8949-2.2338 1.5-7.1 2.5319-4.9204 4.2634-9.0662 4.8-14.4 4.6563-0.58688 4.0135-7.1936 5.9-10.5 0.13714-1.3324-4.5782-2.7583-3.2-6.3 0.31555-5.8187 1.7982-11.472 3.6-17.1l-0.1 0.8zm-89.8-126.3c0.11658-0.21826 0.40178 0.24612 0 0zm7.5 2.1c4.0714 2.28-1.6785 0.13725 0 0zm15.2 9.8c-1.5503-0.23756-6.982-3.8606-5.1-2.3 2.8855 0.67953 2.9997 3.9642 0.4 3.6-0.87382-1.3617-1.481-4.4958-3.6-4.4 2.078 2.3825-5.31-3.1169-1.6-0.5-1.5776-0.22364 4.4071 3.6686 0.3 2-2.9909-1.8472-5.3998-4.3072-8.5-6.1 1.3368-1.8723-4.2006-4.4125-3.2-4.2 1.9896 0.94907 6.3292 4.201 2.5 0.9 2.1166 0.44065 6.5088 2.6154 9.2 4-3.2384-2.3651-1.0509-0.90423 0.8 0.4 3.1896 1.789 6.3445 3.7493 9.2 5.9l-0.4 0.7zm-5.7 247.8c-0.63114 1.3149-1.4178-1.7839 0 0zm57.6-45.8c1.9855-0.32597-6.7643 10.352-2.5 4.2 0.7649-1.4223 1.8199-2.7131 2.5-4.2zm-9.9 8.9c3.2871-3.424 6.0391-7.4369 9.7-10.6-2.4448 4.3432-5.253 8.3441-9.7 10.6zm-5.7 6.3c4.4488-2.5445 6.935-6.5284 10.4-8.4-3.9974 4.472-1.194 1.9736 0.4 0.6-2.5154 4.2778-6.9124 6.5701-10.7 9.4 1.138-1.7607-0.35657-0.59513-0.1-1.6zm6.4-74.9c-5.082 10.015-7.2972 21.952-15.3 30.5-1.7165 4.9242-2.6778 11.021-4.7 15.2 0.0563-7.3294 5.6248-13.631 6.2-20.7-2.0173-3.5956-0.72423-9.4796 2.1-11.6-1.6785 8.2134 2.6941-2.9479 2.4-5.4-0.16893-3.4166 7.4092-11.31 4.8-3.5-2.078 3.5548-6.3558 8.6512-5.1 12.4 2.2107-4.3834 5.4728-8.7488 6.8-13.3-1.8075-0.88704 7.1477-10.458 2.8-3.6zm-48.5-144.6c0.9717 0.44667-0.70856-0.72305 0 0zm40.9 152 0.2-0.3-0.2 0.3zm8 75.5c-6.4211 8.4686-5.6944 8.6423 0.4 0.2l0.4-1.1-0.8 0.9zm1.7-5c1.8176-2.1971 6.8677-13.816 2.5-5.7-0.28592 1.2138-3.7298 6.1774-2.5 5.7zm4.9-6.5c-2.3046 4.4651-6.4872 8.6849-8 13.1 2.2311-4.5899 6.4205-8.212 8-13.1zm12.3-39.3c-3.1355 1.2041-0.22226 7.917 0 0zm-10.5 34.6c0.69884-3.51-6.1669 12.986-1.5 3.6l0.9-2.1 0.6-1.5zm0.7 0.8c-3.91 6.1784 0.43405 1.103 0 0zm-29.9 43.4 0.1-0.1-0.1 0.1zm-96.1-25.7c2.1785-0.0291 4.9634-1.0551 7.6-0.2 5.2388 0.58484 8.0066-5.3794 6.4-9.8 1.3519-2.7201-0.48388-5.7578-1.2-8.3-2.6975-1.0077-4.0553 2.8936-6.7 2.1 0.59547-2.868-4.1-0.20144-5.6-0.6 0.47756 2.9083-0.76079 2.0719-1.1-0.1-3.0493-0.88835-8.9696 2.6368-6.7 6.6 1.5085 1.1114 7.5669 2.5881 4.3 4.1-2.3821 1.2155-1.4003 4.2083-4 2.3-3.6423 0.17295-2.1112 3.9092 0.7 3.6 2.2308 0.18868 4.1703 0.0129 6.3 0.3zm41.1-208.9c6.5884 5.7851 7.2528-3.7807 0.6-3.3-1.5747-0.40731-0.61696 2.8088-0.6 3.3zm-128.5 117.1c3.1348-1.3981-3.0703-4.9998 0 0zm78.3 88.2c1.5647-3.646-5.4313-1.5178-2.1 0.2 1.4274 1.0037 1.3219-0.67307 2.1-0.2zm46.1-206.9c5.012-1.2209-5.7435-2.4167 0 0zm-1 0c-0.11072-0.35032-0.90724 0.30619 0 0zm-125.4 124.6c2.1481-13.741-9.1794 9.7345-0.3 0.6l0.3-0.6zm62.3 97.1c-6.8857 0.96913 1.3279 6.8531 0 0zm-4.2-264.1h-0.1 0.1zm19.9 0.7c4.3966 0.23218 7.0662-0.77743 11.8-0.8 1.7853-0.18466-0.86952-1.6313 1.7-1.4 1.1446-0.84814 6.7237-0.097281 4.9 0.5 1.6677 1.2156-2.6047 0.88939-4.5 1.1-2.5561 2.3307 4.9482 0.88545 4.8 3.8-0.0976 1.7578 4.0179 1.0517 1.3 1.2-0.087-0.73368 1.9911-0.85455 0.5-2.5 1.4357 0.14348 4.1683 0.3562 2.9 1.4 0.77504 1.661 4.06-0.35378 6.2 0.1 2.5068 0.09974 5.4196 1.6466 7.5 0.2 3.9873 1.4045 0.27026-1.2017-1.8-1.2-0.20198-0.91991-6.794-1.9818-2.1-1.5 2.1928 1.0404 4.4556 0.88574 0.8-0.8-10.673-4.5571-22.165-3.9071-33.5-4-3.7011-1.2673-6.6456 0.83901-9.5 1.1 0.54778-1.3225-4.5991-0.52719-3 0.4-2.59 1.0807-0.97504-1.92-4.2-0.6-2.2175-0.080689-6.0067 2.9566-1.9 2.7 6.0396 1.2039 12.062 0.58175 18.1 0.3zm153.3 136.2c-4.0676-3.6317 1.4839 8.4408 0 0zm0.9 0.5c-1.5184-6.2501 0.18489 4.6861 0 0zm-73.5 154.6c4.3203-4.4996 1.55-1.9004-0.8375-2.25 1.5428-4.8999-5.959 6.0055-7.0625 0.85 0.9787-3.1178 1.5197-5.096-1-8.4 2.682-7.8246-3.6552 0.56786-2-3.2 0.71111-4.1486-5.8113 1.4453-5.8-3.4-3.4633-1.1246-5.522 3.6027-9 4.1-2.9691 0.57399-0.85386 1.764-4.9 1.9-0.33254-0.48856-2.4209 0.0828-7.7 1-5.2509 1.5476-5.1297-0.73824-5.4-1.9-4.0363-2.2246-8.4316 3.1183-10.3 6.4-2.4749 3.4946-8.6872 5.0602-5.8 9.9 2.5897 1.4299 5.8021 1.1416-0.9 3.8-1.6692 3.3486-7.4447 7.1826-7.5 9.5 4.1551 0.50618 2.5154 7.6249 7.4 4.3 2.9654 2.7662 8.6729-0.12502 9-2 1.5881 3.6606-6.8197 7.8607 1.8 3.1 4.4588-2.3288 9.6233-4.7798 11.8-9.4 3.4626-2.5395 7.4577-4.2944 11.6-5.5-6.1237 4.6598 2.6982 0.0578 5.3-0.7 4.7755 0.69808-4.3026 3.3428-3.7875 5.925 7.9254-2.62 15.468-6.2965 22.588-10.325-4.3078 0.87439 8.5706-5.2513 2.5-3.7zm3-2.2c0.51202-0.0799 0.003-0.19142 0 0zm0.4-0.1h-0.2 0.2zm-0.1 0.8c-5.346 3.4252-2.3862 3.7146 0 0zm4.5-4.8c-7.8366 5.1226-3.5574 5.2502 0 0zm3.3-3c-5.484 3.8636 0.51997 3.1232 0 0zm2.4-1.5c-4.8761 3.2681 1.5556 0.40649 0 0zm-18.4-8.3c7.5994-4.4684-5.9344-0.6734 0 0zm5 20.6c0.32068-0.00017 0.21433-1.0513 0 0zm-9.6-18.3c0.70956 4.7174 8.0061 0.34008 1.9-1.9-1.3743 0.11902-2.1364 0.3813-1.9 1.9zm26.8 3.8c-2.7605 2.4706 2.6171-0.0835 0 0zm-45.6 28c5.8206-5.7434-1.3782-1.4147-4.3 0.8-4.025 0.212-4.2742 5.0925 0.2 1.6 1.1756-1.1586 3.066-0.75423 4.1-2.4zm17.8-30.8c-5.6566 0.32199 3.3027 2.8531 0.4-0.3l-0.4 0.3zm-58.1-156.6c6.7878 0.0679-3.694-7.0938 0 0zm4.4-4.7c5.3202-2.0669-5.0482-3.3803-0.5 0 0.61092 0.0433-0.17755 0.42854 0.5 0zm3.7-5.8c2.5145-6.098-5.7783 0.3876 0 0zm-5 11c3.696 5.7873 5.3918 0.0886 3.7-3.2-2.2687-3.0717-4.768 0.65288-3.7 3.2zm-1.2 18.9v-0.2 0.2zm0 0.1v-0.2 0.2zm17.4 22c-1.2177 5.3338-12.122 1.8756-11.2 7 1.0784 6.5006 8.2174-1.0933 9.7-3.8 1.7459-0.58009 3.9652-5.2835 1.5-3.2z" opacity=".5"/>
<path fill="url(#c)" d="m100.2 63.3c6.5372-7.9475 15.329-12.495 24.425-16.525 6.9729-2.6689 22.827-7.9973 25.538 1.45-9.649 7.7619-19.124 17.843-22.926 30.331-0.5549 8.6814 10.142 14.784 18.449 13.444 9.5496 1.3969 24.899-3.3391 29.715 7.2 1.2284 12.86-10.444 21.276-20.714 26.183-9.5256 5.3498-21.715 10.334-16.6 23.026 0.1352 6.43-2.1132 19.96-9.9859 10.991-9.0954-5.5944-18.005 3.8119-13.388 14.149 5.248 11.542 17.762 18.826 29.775 21.429 17.324 2.858 31.571-13.451 49.084-8.8967 9.4169 2.1128 22.13 7.7638 22.627 18.836-3.4093 12.242-19.674 4.2633-26.735 14.161-12.856 10.779-29.596 16.04-46.312 15.184-5.4901-0.54526-9.8351-0.97661-2.8881 3.5262 8.027 9.4957 24.66 2.5424 31.137 13.111-1.0702 6.2506 15.168 5.2543 21.6 6.1 10.286 0.23727 20.494-2.4711 29.3-7.5625 5.5912 2.2272 16.717-19.387 20.35-6.9375 5.4402 8.8157 20.199-3.3166 24.815-10.352 19.703-27.188 27.836-61.558 27.661-94.809-0.17-33.08-13.22-67.515-40.56-87.509-25.66-18.899-58.63-26.101-90.07-24.866-28.98 2.029-59.31 11.453-79.759 33.023-8.897 6.779 12.009 2.233 15.469 5.312z" opacity=".4"/>
<path fill="url(#an)" d="m177.6 205.1c-1 1 0.1 3.9 1.4 3.8s3.2-0.7 3.2-0.7 1 1.9 0 2.5c-1 0.5-3.8 0.3-0.1 1.7 3.8 1.4 4.8 1 5 0.3 0.3-0.7 1.5-3.1 2.2-2.9 0.6-1.2-2-2.4-0.6-3.2s0.3-3.9 0.3-3.9-2 0.1-2.8 1.5c-0.8 1.4-2-0.1-2.8-0.1-0.1 0.8-0.7 1.5-0.7 1.5l-0.6-1.3c0.1-0.1-3.8-0.2-4.5 0.8z"/>
<path clip-path="url(#a)" fill="url(#al)" d="m175.5 337.9c93 0 168.3-75.4 168.3-168.4s-75.3-168.5-168.3-168.5-168.3 75.5-168.3 168.5 75.3 168.4 168.3 168.4z"/>
<path clip-path="url(#a)" fill="url(#aj)" d="m302.7 277.3c9.7-18.2 22.8-28.8 29.9-41.4 9.4-16.7 27.2-63.8 13.8-101.7 6.2 23.8 4.2 47.9-15.4 60 6.3-16.7 10.3-53.5 3.8-86.6-4.3-21.5-17.7-40.8-26.5-46.8 8.1 6.1 14.6 27.8 14.4 37.7-16.9-28.5-44.5-55.7-86.1-67.2 32.4 21.4 44.5 39.5 52.1 55.6-8.7-8.8-23.5-18.1-33.5-18.9 15 11.2 40.1 44.3 37.5 94.4-3.9-8.1-10.9-20.7-15.9-25.2 5.4 49.3 0.7 59.9-2.6 72.9-0.7-6-2.9-10.5-4.1-13.3 0 0-0.6 15.4-10.6 37.3-7.6 16.6-15.4 21.7-18.9 21.2-3.1-0.5-1-3.5-1.5-6.4 0 0-5.2 2.5-10.4 7.9-4.9 5.1-9.3 10.7-11.6 9.1 1.7-1.4 3-3.8 4.3-6.1-1.9 1.3-6.8 5-17.8 6.6-4.5 0.7-23.6 4.1-49-8.6 3.7-0.4 9.2-1.7 13.5 0.8-4.2-4.6-14.4-3.7-21.7-6-6.4-2-14.7-11-19.5-15.5 19.5 4.8 40.3 1.3 52.3-6.9 12.1-8.3 19.3-14.4 25.7-12.9 6.4 1.4 10.7-5 5.7-10.8-5-5.7-17.1-13.5-33.6-9.3-14.2 3.5-26 15.9-47.9 2.9-18.7-11.1-18.6-20.1-18.6-25.8 0-3.9 2.4-9.3 6.9-11.8 2.4 0.9 3.9 1.7 3.9 1.7s-1.1-1.7-1.8-2.6c0.2-0.1 0.3-0.1 0.5-0.2 2 0.7 6.4 2.3 8.7 3.5 3.1 1.5 4.1 3.1 4.1 3.1s0.7-0.4 0-2c-0.3-0.7-1.4-2.6-4.4-4.4h0.2c1.6 0.6 3.3 1.4 5.1 2.5 0.6-2.7 1.7-5.5 1-10.4-0.5-3.5-0.5-4.3-1.3-5.6-0.7-1.1 0.2-1.5 1.3-0.6-0.3-0.8-0.7-1.7-1.1-2.6 1-4.2 26.2-17.5 28.1-18.9 2.6-1.9 5.3-4.9 7-8.4 1.2-2.2 2.1-5.3 1.8-9.8-0.2-3.3-2.1-5.2-29.1-5-7.4 0.1-12.2-4.2-15.1-8.3-0.6-0.9-1.1-1.7-1.6-2.5-0.6-1.1-1.1-2.2-1.4-3 3.2-11.7 9.7-21.9 19.8-30.1 0.6-0.5-2.4 0.3-1.8-0.2 0.7-0.6 4.9-2.7 5.7-3.1 1-0.6-4.6-2.1-9.5-1.1s-5.8 1.6-8.3 2.9c1-1.1 4.3-2.7 3.5-2.6-5.3 1.2-11.5 4.7-16.8 8.4 0-0.5 0-0.9 0.1-1.6-2.5 1.3-8.6 6-10.1 9.5 0-0.8 0-1.2-0.1-2-1.7 1.6-3.4 3.4-4.9 5.5l-0.1 0.1c-15.8-3.9-29.2-3-40.4 0.6-2.7-1.9-7-4.9-13.7-15.4-0.4-0.6-0.4 1.4-0.8 0.8-2.7-4.8-4.9-12.9-5.2-18.8 0 0-4.3 2.5-7.2 11.5-0.5 1.6-0.9 2.5-1.2 3.4-0.1 0.3 0.2-2.9 0.1-2.6-0.5 1.1-2.1 2.9-2.6 4.9-0.4 1.5-1 2.4-1.2 4.3 0 0 0 0.1-0.1 0.1 0-0.5-0.1-2.2-0.2-1.9-1.3 3.3-2.4 7.1-3.4 11.4-1.4 6.8-2.8 16.1-1.9 27.8 0 1 0.1 1.9 0.1 2.7-4.2 5.8-7 10.9-8.1 13.4-5.2 10.1-10.5 25.6-14.8 49.7 0 0 2.9-9.1 8.6-19.4-4.2 13-7.6 33.1-5.6 63.4 0.1-1 1-8.6 3.2-18.9 1.1 20.1 5.9 44.8 21.5 71.7 11.9 20.4 43.4 67.9 122.3 85.7-8.7-2.5-14-7.5-14-7.5s29.5 9.5 51 8.7c-6.7-1.2-8.1-4.4-8.1-4.4s76.5 4.3 103-31.8c-9.1 10.6-32 13.6-40.6 13.7 13.2-12.1 42.3-11.8 73.9-42.9 17.3-17 19.2-30 21.1-42.1-2.9 16.3-18 25.8-33.8 34.5z" opacity=".6"/>
<path fill="#8ed8f8" d="m176.2 1.8c65.3 0 121.9 37.2 149.8 91.6-27.6-55.2-84.6-93.1-150.5-93.1-93 0-168.3 75.4-168.3 168.4 0 27.7 6.7 53.8 18.5 76.8-11.4-22.7-17.7-48.3-17.7-75.3-0.1-93 75.3-168.4 168.2-168.4z"/>
<path fill="url(#ai)" d="m303.4 269.6c9.7-18.2 22.8-28.9 29.9-41.5 9.4-16.8 27.3-63.9 13.8-102 6.2 23.8 4.2 48-15.4 60.2 6.4-16.8 10.3-53.6 3.8-86.8-4.3-21.6-17.8-40.9-26.5-46.9 8.1 6.1 14.6 27.8 14.4 37.8-16.9-28.5-44.6-55.8-86.4-67.3 32.5 21.4 44.6 39.6 52.2 55.8-8.7-8.9-23.5-18.1-33.6-18.9 15 11.2 40.2 44.4 37.5 94.7-3.9-8.1-10.9-20.8-15.9-25.2 5.4 49.4 0.7 60-2.6 73.1-0.7-6-2.9-10.6-4.1-13.3 0 0-0.6 15.4-10.6 37.4-7.6 16.7-15.4 21.8-18.9 21.2-0.9-0.1-1.4-0.5-1.4-0.5 0.2-2.2 0.5-4.4-0.1-5.9 0 0-3.2 1.1-5.3 4-0.8 1.2-1.9 2.3-3.3 3.4-0.2 0.2 2.3-3.2 2.1-3.1-1.2 1-2.6 2.2-3.9 3.6-4.9 5.1-9.4 10.8-11.7 9.2 2.1-0.7 3.9-3.4 4.3-6.1-1.9 1.4-6.8 5-17.8 6.7-4.5 0.7-23.6 4.2-49.1-8.6 3.7-0.4 9.3-1.7 13.5 0.8-4.2-4.6-14.5-3.7-21.8-6-6.4-2-14.7-11-19.5-15.5 19.6 4.8 40.4 1.3 52.4-6.9 12.2-8.3 19.4-14.4 25.8-12.9 6.4 1.4 10.7-5 5.7-10.8s-17.2-13.5-33.7-9.4c-12.7 3.2-23.4 13.3-41.2 6.3-1.1-0.4-2.2-0.9-3.3-1.5s3.7 0.7 2.5 0c-3.4-1.3-9.6-4.1-11.2-5.2-0.3-0.2 2.6 0.5 2.3 0.3-16.9-10-15.8-18-15.8-22.9 0-4 2.4-9.3 6.9-11.8 2.4 0.9 3.9 1.7 3.9 1.7s-1.1-1.7-1.8-2.6c0.2-0.1 0.3-0.1 0.5-0.2 2 0.7 6.5 2.3 8.7 3.5 3.1 1.5 4.1 3.1 4.1 3.1s0.7-0.5 0-2c-0.3-0.7-1.4-2.6-4.4-4.4h0.1c1.6 0.6 3.3 1.4 5.1 2.5 0.6-2.7 1.7-5.5 1-10.4-0.6-3.5-0.5-4.3-1.3-5.6-0.7-1.1 0.2-1.5 1.3-0.6-0.3-0.9-0.7-1.7-1.1-2.6 0.9-4.3 26.3-17.6 28.2-19 2.6-1.9 5.3-4.9 7-8.4 1.2-2.2 2.1-5.3 1.9-9.9-0.2-3.3-2.1-5.3-29.2-5-7.4 0.1-12.2-4.2-15.1-8.3-0.6-0.9-1.1-1.7-1.6-2.5-0.6-1.1-1.1-2.2-1.4-3 3.2-11.7 9.7-21.9 19.8-30.2 0.6-0.5-2.4 0.3-1.8-0.2 0.7-0.6 5-2.7 5.8-3.1 1-0.6-4.7-2.1-9.5-1.1-4.9 1-5.8 1.6-8.4 2.9 1-1.1 4.3-2.7 3.5-2.6-5.3 1.2-11.6 4.7-16.9 8.4 0-0.5 0-0.9 0.1-1.6-2.5 1.3-8.6 6-10.1 9.5 0-0.8 0-1.2-0.1-2-1.7 1.6-3.4 3.5-4.9 5.5 0 0 0 0.1-0.1 0.1-15.8-3.9-29.2-3-40.5 0.6-2.7-1.9-7-4.9-13.8-15.4-0.4-0.6-0.4 1.4-0.8 0.8-2.7-4.8-4.9-13-5.2-18.8 0 0-4.4 2.5-7.2 11.5-0.5 1.6-0.9 2.5-1.2 3.4-0.1 0.3 0.2-2.9 0.1-2.6-0.5 1.1-2.1 2.9-2.6 4.9-0.4 1.5-1 2.4-1.2 4.3 0 0 0 0.1-0.1 0.1 0-0.5-0.1-2.2-0.2-1.9-1.3 3.3-2.4 7.1-3.4 11.4-1.4 6.8-2.8 16.1-1.9 27.9 0 1 0.1 1.9 0.1 2.7-4.3 5.9-7 10.9-8.1 13.4-5.2 10.1-10.5 25.7-14.8 49.9 0 0 2.9-9.1 8.6-19.4-4.2 13-7.6 33.2-5.6 63.5 0.1-1 1-8.7 3.2-19 1.1 20.2 5.9 44.9 21.6 71.8 12 20.5 43.5 68.1 122.6 85.9-8.7-2.5-14.1-7.5-14.1-7.5s29.6 9.5 51.1 8.7c-6.8-1.2-8.1-4.4-8.1-4.4s76.7 4.3 103.2-31.8c-9.1 10.6-32 13.6-40.7 13.7 13.2-12.1 42.4-11.9 74.1-43 17.4-17.1 19.2-30.1 21.1-42.2-2.5 15.8-17.7 25.4-33.5 34.1z"/>
<path fill="url(#ah)" d="m303.4 269.6c9.7-18.2 22.8-28.9 29.9-41.5 9.4-16.8 27.3-63.9 13.8-102 6.2 23.8 4.2 48-15.4 60.2 6.4-16.8 10.3-53.6 3.8-86.8-4.3-21.6-17.8-40.9-26.5-46.9 8.1 6.1 14.6 27.8 14.4 37.8-16.9-28.5-44.6-55.8-86.4-67.3 32.5 21.4 44.6 39.6 52.2 55.8-8.7-8.9-23.5-18.1-33.6-18.9 15 11.2 40.2 44.4 37.5 94.7-3.9-8.1-10.9-20.8-15.9-25.2 5.4 49.4 0.7 60-2.6 73.1-0.7-6-2.9-10.6-4.1-13.3 0 0-0.6 15.4-10.6 37.4-7.6 16.7-15.4 21.8-18.9 21.2-0.9-0.1-1.4-0.5-1.4-0.5 0.2-2.2 0.5-4.4-0.1-5.9 0 0-3.2 1.1-5.3 4-0.8 1.2-1.9 2.3-3.3 3.4-0.2 0.2 2.3-3.2 2.1-3.1-1.2 1-2.6 2.2-3.9 3.6-4.9 5.1-9.4 10.8-11.7 9.2 2.1-0.7 3.9-3.4 4.3-6.1-1.9 1.4-6.8 5-17.8 6.7-4.5 0.7-23.6 4.2-49.1-8.6 3.7-0.4 9.3-1.7 13.5 0.8-4.2-4.6-14.5-3.7-21.8-6-6.4-2-14.7-11-19.5-15.5 19.6 4.8 40.4 1.3 52.4-6.9 12.2-8.3 19.4-14.4 25.8-12.9 6.4 1.4 10.7-5 5.7-10.8s-17.2-13.5-33.7-9.4c-12.7 3.2-23.4 13.3-41.2 6.3-1.1-0.4-2.2-0.9-3.3-1.5s3.7 0.7 2.5 0c-3.4-1.3-9.6-4.1-11.2-5.2-0.3-0.2 2.6 0.5 2.3 0.3-16.9-10-15.8-18-15.8-22.9 0-4 2.4-9.3 6.9-11.8 2.4 0.9 3.9 1.7 3.9 1.7s-1.1-1.7-1.8-2.6c0.2-0.1 0.3-0.1 0.5-0.2 2 0.7 6.5 2.3 8.7 3.5 3.1 1.5 4.1 3.1 4.1 3.1s0.7-0.5 0-2c-0.3-0.7-1.4-2.6-4.4-4.4h0.1c1.6 0.6 3.3 1.4 5.1 2.5 0.6-2.7 1.7-5.5 1-10.4-0.6-3.5-0.5-4.3-1.3-5.6-0.7-1.1 0.2-1.5 1.3-0.6-0.3-0.9-0.7-1.7-1.1-2.6 0.9-4.3 26.3-17.6 28.2-19 2.6-1.9 5.3-4.9 7-8.4 1.2-2.2 2.1-5.3 1.9-9.9-0.2-3.3-2.1-5.3-29.2-5-7.4 0.1-12.2-4.2-15.1-8.3-0.6-0.9-1.1-1.7-1.6-2.5-0.6-1.1-1.1-2.2-1.4-3 3.2-11.7 9.7-21.9 19.8-30.2 0.6-0.5-2.4 0.3-1.8-0.2 0.7-0.6 5-2.7 5.8-3.1 1-0.6-4.7-2.1-9.5-1.1-4.9 1-5.8 1.6-8.4 2.9 1-1.1 4.3-2.7 3.5-2.6-5.3 1.2-11.6 4.7-16.9 8.4 0-0.5 0-0.9 0.1-1.6-2.5 1.3-8.6 6-10.1 9.5 0-0.8 0-1.2-0.1-2-1.7 1.6-3.4 3.5-4.9 5.5 0 0 0 0.1-0.1 0.1-15.8-3.9-29.2-3-40.5 0.6-2.7-1.9-7-4.9-13.8-15.4-0.4-0.6-0.4 1.4-0.8 0.8-2.7-4.8-4.9-13-5.2-18.8 0 0-4.4 2.5-7.2 11.5-0.5 1.6-0.9 2.5-1.2 3.4-0.1 0.3 0.2-2.9 0.1-2.6-0.5 1.1-2.1 2.9-2.6 4.9-0.4 1.5-1 2.4-1.2 4.3 0 0 0 0.1-0.1 0.1 0-0.5-0.1-2.2-0.2-1.9-1.3 3.3-2.4 7.1-3.4 11.4-1.4 6.8-2.8 16.1-1.9 27.9 0 1 0.1 1.9 0.1 2.7-4.3 5.9-7 10.9-8.1 13.4-5.2 10.1-10.5 25.7-14.8 49.9 0 0 2.9-9.1 8.6-19.4-4.2 13-7.6 33.2-5.6 63.5 0.1-1 1-8.7 3.2-19 1.1 20.2 5.9 44.9 21.6 71.8 12 20.5 43.5 68.1 122.6 85.9-8.7-2.5-14.1-7.5-14.1-7.5s29.6 9.5 51.1 8.7c-6.8-1.2-8.1-4.4-8.1-4.4s76.7 4.3 103.2-31.8c-9.1 10.6-32 13.6-40.7 13.7 13.2-12.1 42.4-11.9 74.1-43 17.4-17.1 19.2-30.1 21.1-42.2-2.5 15.8-17.7 25.4-33.5 34.1z"/>
<path fill="url(#ag)" d="m303.4 269.6c9.7-18.2 22.8-28.9 29.9-41.5 9.4-16.8 27.3-63.9 13.8-102 6.2 23.8 4.2 48-15.4 60.2 6.4-16.8 10.3-53.6 3.8-86.8-4.3-21.6-17.8-40.9-26.5-46.9 8.1 6.1 14.6 27.8 14.4 37.8-16.9-28.5-44.6-55.8-86.4-67.3 32.5 21.4 44.6 39.6 52.2 55.8-8.7-8.9-23.5-18.1-33.6-18.9 15 11.2 40.2 44.4 37.5 94.7-3.9-8.1-10.9-20.8-15.9-25.2 5.4 49.4 0.7 60-2.6 73.1-0.7-6-2.9-10.6-4.1-13.3 0 0-0.6 15.4-10.6 37.4-7.6 16.7-15.4 21.8-18.9 21.2-0.9-0.1-1.4-0.5-1.4-0.5 0.2-2.2 0.5-4.4-0.1-5.9 0 0-3.2 1.1-5.3 4-0.8 1.2-1.9 2.3-3.3 3.4-0.2 0.2 2.3-3.2 2.1-3.1-1.2 1-2.6 2.2-3.9 3.6-4.9 5.1-9.4 10.8-11.7 9.2 2.1-0.7 3.9-3.4 4.3-6.1-1.9 1.4-6.8 5-17.8 6.7-4.5 0.7-23.6 4.2-49.1-8.6 3.7-0.4 9.3-1.7 13.5 0.8-4.2-4.6-14.5-3.7-21.8-6-6.4-2-14.7-11-19.5-15.5 19.6 4.8 40.4 1.3 52.4-6.9 12.2-8.3 19.4-14.4 25.8-12.9 6.4 1.4 10.7-5 5.7-10.8s-17.2-13.5-33.7-9.4c-12.7 3.2-23.4 13.3-41.2 6.3-1.1-0.4-2.2-0.9-3.3-1.5s3.7 0.7 2.5 0c-3.4-1.3-9.6-4.1-11.2-5.2-0.3-0.2 2.6 0.5 2.3 0.3-16.9-10-15.8-18-15.8-22.9 0-4 2.4-9.3 6.9-11.8 2.4 0.9 3.9 1.7 3.9 1.7s-1.1-1.7-1.8-2.6c0.2-0.1 0.3-0.1 0.5-0.2 2 0.7 6.5 2.3 8.7 3.5 3.1 1.5 4.1 3.1 4.1 3.1s0.7-0.5 0-2c-0.3-0.7-1.4-2.6-4.4-4.4h0.1c1.6 0.6 3.3 1.4 5.1 2.5 0.6-2.7 1.7-5.5 1-10.4-0.6-3.5-0.5-4.3-1.3-5.6-0.7-1.1 0.2-1.5 1.3-0.6-0.3-0.9-0.7-1.7-1.1-2.6 0.9-4.3 26.3-17.6 28.2-19 2.6-1.9 5.3-4.9 7-8.4 1.2-2.2 2.1-5.3 1.9-9.9-0.2-3.3-2.1-5.3-29.2-5-7.4 0.1-12.2-4.2-15.1-8.3-0.6-0.9-1.1-1.7-1.6-2.5-0.6-1.1-1.1-2.2-1.4-3 3.2-11.7 9.7-21.9 19.8-30.2 0.6-0.5-2.4 0.3-1.8-0.2 0.7-0.6 5-2.7 5.8-3.1 1-0.6-4.7-2.1-9.5-1.1-4.9 1-5.8 1.6-8.4 2.9 1-1.1 4.3-2.7 3.5-2.6-5.3 1.2-11.6 4.7-16.9 8.4 0-0.5 0-0.9 0.1-1.6-2.5 1.3-8.6 6-10.1 9.5 0-0.8 0-1.2-0.1-2-1.7 1.6-3.4 3.5-4.9 5.5 0 0 0 0.1-0.1 0.1-15.8-3.9-29.2-3-40.5 0.6-2.7-1.9-7-4.9-13.8-15.4-0.4-0.6-0.4 1.4-0.8 0.8-2.7-4.8-4.9-13-5.2-18.8 0 0-4.4 2.5-7.2 11.5-0.5 1.6-0.9 2.5-1.2 3.4-0.1 0.3 0.2-2.9 0.1-2.6-0.5 1.1-2.1 2.9-2.6 4.9-0.4 1.5-1 2.4-1.2 4.3 0 0 0 0.1-0.1 0.1 0-0.5-0.1-2.2-0.2-1.9-1.3 3.3-2.4 7.1-3.4 11.4-1.4 6.8-2.8 16.1-1.9 27.9 0 1 0.1 1.9 0.1 2.7-4.3 5.9-7 10.9-8.1 13.4-5.2 10.1-10.5 25.7-14.8 49.9 0 0 2.9-9.1 8.6-19.4-4.2 13-7.6 33.2-5.6 63.5 0.1-1 1-8.7 3.2-19 1.1 20.2 5.9 44.9 21.6 71.8 12 20.5 43.5 68.1 122.6 85.9-8.7-2.5-14.1-7.5-14.1-7.5s29.6 9.5 51.1 8.7c-6.8-1.2-8.1-4.4-8.1-4.4s76.7 4.3 103.2-31.8c-9.1 10.6-32 13.6-40.7 13.7 13.2-12.1 42.4-11.9 74.1-43 17.4-17.1 19.2-30.1 21.1-42.2-2.5 15.8-17.7 25.4-33.5 34.1z"/>
<path fill="url(#af)" d="m171 100.4c-0.2-3.3-2.3-5.6-29.4-5.4-11.1 0.1-16.3-9.6-18.1-13.7-2.9 10.5-3.4 21.3-1.2 34 1.4 8.4 7.4 15.5 10.7 20.5 0.8 0.8 1.2 1 1.4 0.5 1.2-2.6 25-16.1 26.9-17.6 2-1.3 10.2-8.3 9.7-18.3z"/>
<path fill="url(#ae)" d="m133.9 97.3s9.4 4.6 10.8 7.5c0.4 0.9-4.8-1.6-4.5-0.6s6.8 4.3 7 5.9c0.2 1.2-3.6-1.3-5.6-1.6 1.2 1 2.8 2.5 1.9 3.5s-4.2 1.4-4.8 1.8c-8.6 5.5 12.2 6.8 19.7 2.7 7.5-4 12.2-9.9 12.4-10.8 0.3-0.9 2.7-8.8-13-6.1-9.9 1.8-16.1 1.6-23.9-2.3z"/>
<path fill="url(#ad)" d="m262 303.1c-9.1 5-30.6 11.6-36.7 11.9 37.5-11.6 49.6-27.3 55.8-37.7 19.4-3.8 54.8-21.4 56.2-41.9-1.5 28-24.6 47.4-41.2 58.6-19.6 13.3-36.2 14.4-50.3 23.4 4.3-3 9.9-6.9 16.2-14.3z"/>
<path fill="url(#ac)" d="m347.2 126.4c11.7 38.1-7.5 54.6-15.6 59.7 10.3-28.4 14-63.7 2.8-94.7-9.3-25.9-25.4-38.8-25.4-38.8 22.6 24.7 20 52 13.4 71.2 3.1 18.1-7.3 68.4 5.7 66.1-3.1 28.1-15.2 62.6-20.6 73.1 9-14.2 21.9-27.4 27.8-38.5 11.2-21.1 24.3-62.6 11.9-98.1z"/>
<path fill="url(#ab)" d="m301.3 135.3s-5 9.7-4.6 28.6c-6.4-24.7-19.3-34.6-19.3-34.6 1.7 19.9 5.2 48.8-2.5 73.5 0.9 7.2 2.7 24.9-4.2 44 11.3-13 26.3-23.5 28.5-34 0-0.3 0.1-0.7 0.1-1 3.8 0.7 9.1-2.2 13.7-6.8 3.8-6.5 13.8-25.9 14.7-36.3-23.7-9.5-26.4-33.4-26.4-33.4z"/>
<path fill="url(#aa)" d="m297.1 200.1c30.8-43.1 20.1-88 16.8-101.8 44.2 72.5-1.1 156.7-10.3 170.8-2.5 2-16.7 7.3-22.5 7.9 1.9-2.9 6.8-13 6.2-24.9-6.7 16.4-30.5 28.6-43.7 33.1 22.8-16.5 49-62.5 53.5-85.1z"/>
<path fill="url(#y)" d="m291.9 167.7s2.5 37.5-16.4 67.5c5.1-28.3-4.8-46.1-4.8-46.1s-1.4 15.3-7.4 30.1c-10.4 25.5-19.8 30.7-23.5 28-8 31.7-60.9 30.2-60.9 30.2 12 3 54.1 5.3 85-17.4-1.7 4-11.2 23.1-34 32.9 22.5-1.4 52.2-25.2 57.5-40.9 0.4 11.8-3.4 20-5.9 24.7 37.5-42 10.4-109 10.4-109z"/>
<path fill="url(#x)" d="m172.6 298.2c19.6-1.8 35.6-6.2 46.4-20.4-17.7 3-31.7 1.7-40.4-0.3 0 0 13.9 0.6 31.5-3.9 20.4-5.1 45.7-17 60.2-44.3-0.7 65-66.6 77.9-97.7 68.9z"/>
<path fill="url(#w)" d="m46.7 52.2c-0.4-0.6-0.4 1.4-0.8 0.8-2.7-4.8-4.9-13-5.2-18.8 0 0-4.4 2.5-7.2 11.5-0.5 1.6-0.9 2.5-1.2 3.4-0.1 0.3 0.2-2.9 0.1-2.6-0.5 1.1-2.1 2.9-2.6 4.9-0.4 1.6-1 2.5-1.3 4.5-0.1 0.6-0.1-2.4-0.2-1.9-7 17.6-6.2 43.3-5.3 42.2 16.6-21.6 37.5-28.5 37.5-28.5-2.5-1.7-7.9-6-13.8-15.5z"/>
<path fill="url(#v)" d="m163.1 117.3c1.4-1.1 6.3-5.6 7.5-10.9-0.9 0.4-1-0.7-2-0.2-1.8 1.9-6.2 6.5-11.4 9.8 1.4-1.3 3.9-3.2 4.5-4.2-5.6 3.9-12.5 6.6-17.9 6-0.8 0 4 0.5 8.2-2.8-4.1 1.9-11.1 1.7-11.8 1.5-0.6-0.2 6.9-1 6.2-1.2-3.5-1.2-8.1-0.4-9.1 0.1-1.9 0.9-3.8 2.2-5.2 3.9 0.8-1 1.1-1.9 2-3.4-2.6 2.5-6.2 5.2-6.7 5.3 0.4-0.8 6.3-5.3 5.2-4.9-0.7 0.7-3.2 2.1-4.9 3.4-0.5 0.3 3.5-3.3 3.1-3-6.7 1.7-6 5.4-6.2 5.5 0.1 0.2 0.1 0.7 0.3 0.9 0.8 2.4 3.7 6.5 6.4 10.4 2 2.4 2.6 5.1 2.7 4.2 0.9-4.4 27.2-18.9 29.1-20.4z"/>
<path fill="url(#u)" d="m169.2 107.6c-0.2 0-0.4-3.2-0.1-2.4 0.2 0.7-0.3 7.2-6.2 11-1.3 0.8-0.1-2.1-1.5-0.6-2.3 2.5-8 10.8-22.3 10.8-0.5 0 5.6-2.7 4.9-2.5-1.5 0.4-3.2 0.9-8.8 2.7-0.5 0.2 4.7-3.2 4.2-3.1-0.7 0.2-3.8 2.3-7.6 3.9 1.8-1.8 3.9-3.6 3.2-3.3-3 1.7-5.2 3.6-6.5 5.5 0.9 1.5 2 2.4 2.8 3.9 2 2.4 2.2 4.9 2.7 4.2 5.3-6.4 26.2-16.1 30.9-21.1 4.8-5.2 2.9-4.4 4.3-9z"/>
<path fill="url(#t)" d="m138.2 252.4c-26.9-8.4-57.6-20.8-60-56.1-3.2-46.3 39.4-41.3 39.4-41.3-1.5 0.6-4.8 4-5.9 7.9-1.2 4.2-3.4 12.4 6.2 20.9 15.2 13.4-25 38.3 43.5 70.1 1.7 0.7-15.3 1-23.2-1.5z"/>
<path fill="url(#s)" d="m171.4 108.2c1.2-3 2.6-10-1.4-11.5-3.3-0.8-6.2-1.4-11.6-1.3 1.8 0.4 7 1.5 8.3 3.9 2.6 4.6 0.5 13.6-0.4 15.9 2.7-2.1 3.9-4.1 5.1-7z"/>
<path fill="url(#r)" d="m127.5 229.9c18.8 4.5 40 1.3 52.1-7 8.1-5.6 19.8-13.9 25.1-13-6-1.7-10.6-2.4-15.9-2.1-1 0-1.9 0.1-2.9 0.2-1.8 0.2-3.7 0.4-5.8 0.8-3.2 0.7-6.7 3.1-10 3.1-0.2 0 3.1-1.7 2.8-1.7-1.7 0.5-3.6 0.8-5.6 1.3-1.2 0.3-2.4 0.5-3.6 0.7-37.7 7-72.2-13.5-72.2-13.5-1.9 9.5 14.9 26.2 36 31.2z"/>
<path fill="url(#q)" d="m289.2 78.5s14.4 15.5 21.2 30.3 8.9 31.6 8.9 31.6 1-14.1-6.8-37.8c-8.4-25.7-25-47.7-41.4-59.8-11-8.3-33.1-19.3-33.1-19.3s38.1 22.6 51.2 55z"/>
<path fill="url(#p)" d="m81.2 75.2c0.2 0-7.1 0.9-20 12.2-5.5 4.5-9.9 8.9-13.3 12.7-9.4 11.4-14.9 22.4-14.9 22.4s0.8-6.8 5.1-16.2c-13.7 21.6-18.9 53-18.9 53s-0.8-14.3 2.8-31.1c-1.4 3.9-3.1 9.4-4 16.7-2.7 22 0 41.3 0 41.3s-1.2-4.2-2.5-10.2c0.5 4.4 1.2 9.6 2.4 15.5 4.3 20.8 12.4 40.5 12.4 40.5s-10-13.5-16.6-34.1c1.2 6.3 3.1 14.1 5.7 23.5 8.2 28.5 19.1 43.3 19.1 43.3s-8.4-7.4-19.3-34.9c-4.8-12.2-7.3-23.8-8.9-32.4-0.9-6.3-1.7-12.1-2.5-20.5-0.3-2.9-0.7-6.3-0.7-9.1-2.4 11.4-3.9 21.1-3.9 21.1s0.6-22.8 4.3-43.4c0.6-3.1 1.3-6 2.2-8.8-3.5 6.7-6.2 12.3-6.2 12.3s4.6-12.8 9-23.5c-4.4 7.9-7 14.4-7 14.4s7.7-26.4 16.9-39.7c5-7.2 10-12.1 13.6-15.1 1.2-1.2 2.4-2.3 3.7-3.2 1.3-1 2.7-2 3.9-2.9 0.6-0.5 1.3-1 2-1.5 12.4-9.2 25.7-11.4 30.2-10.9 0.1 0-3.9 0.2-12.5 4.8 4.2-1.5 7.6-2 9.6-1.9 0.1 0-3 0.7-10.1 5.3 9.2-4.5 17.6-5.7 21-5.3 0.2 0-6.5 0.4-20.5 9.5-0.4 0.3-0.8 0.5-1.2 0.8 8.4-3.7 16-4.7 19.1-4.6zm-39.4 79c-2.5 1.2-5.4 10.8-3.1 32.5 1.9 17.7 9.3 27.1 9.3 27.1s-3.8-7.1-6.1-31.5c-2-21-0.3-27.8-0.1-28.1zm6.9-16.7c-3.4 17.8 1.2 42.9 1.2 42.9s-0.8-21.1 3.8-43c4.8-23.4 12-30.3 12.1-30.1-3.9 0.4-13.7 12.4-17.1 30.2zm9.2-44.8c-2.1 2.2-3.9 4.6-5.4 7.1-5.6 5.5-12 16.4-15.2 31.5-6 29.3-1.7 47-1.7 47s-0.1-27.1 6.3-50.3c0.9-3.3 1.8-6.3 2.8-9-1.6 6.6-2 11.5-2 11.5s5.2-21.4 23.6-39.7c11.6-11.6 19.5-13.9 19.6-13.8-8.6 1-19.4 6.5-28 15.7zm-6.7 62.8c-1.2 13 1.1 26.4 1.1 26.4s-0.2-13.5 1.5-28.7c1.7-15.1 4-20.9 4.1-20.8-2.8 1.5-5.8 13.7-6.7 23.1zm1.4-44.1c-5.9 10.2-7.9 20.3-7.9 20.3s7.4-16.8 12.5-24.1c5.1-7.3 10.1-12.1 10.1-12-3.1 1.3-9.7 5.9-14.7 15.8zm-26.3 37.8c-2.5 1-6.1 10.5-5.1 32.3 0.8 17.7 7.6 27.6 7.6 27.6s-3.3-7.3-4.1-31.8m105.4-128s-12.1 4.4-18.9 13.1-8.1 17.7-8.1 17.7 7.5-20 27-30.8zm-8.5 11.1c-8.7 11.5-10.8 19.8-10.8 19.8s9.7-22.9 34.1-32.7c0 0.1-14.6 1.5-23.3 12.9zm-87.5-1.9c1.5-13.4 5.3-21.3 5.3-21.3s-12.5 18.9-5 42c0 0.1-1.8-7.3-0.3-20.7zm9.4 16.1s-2.8-6.2-3.9-17.6c-1.1-11.5 0.8-18.5 0.8-18.5s-7.5 17 3.1 36.1z" opacity=".1"/>
<path fill="url(#n)" d="m208.4 198.6c-1.8-2.4-9.6-8.1-18.3-8.7-11.6-0.8-21 4.2-21 4.2s6.4-3.7 21.2-2.4c10.2 0.9 18 6.6 18.1 6.9z" opacity=".5"/>
<path fill="url(#m)" d="m212.3 203.2c-1.8-2.5-8.4-8.3-19-10.4-13.5-2.6-23.4 3.1-23.4 3.1s7.7-3.2 23.3-0.7c10.7 1.8 18.9 7.8 19.1 8z" opacity=".5"/>
<path fill="url(#l)" d="m208.5 203.3c-1.5-1.4-4.9-3.8-10.8-5.5-9.5-2.7-15.9-0.2-15.9-0.2s3.8-0.9 13.5 1c6 1.2 13.1 4.6 13.2 4.7z" opacity=".5"/>
<path fill="url(#k)" d="m330.5 259c-1.9 3.6-4.4 7.5-7.7 11.5-8.1 10-18.3 17.9-26.7 23.6-3.4 2.3-6.7 4.3-10 6l-0.1-1.2h-0.1c9.7-5.1 20.2-12 31-22.6 6.4-6.3 10.7-12 13.6-17.3zm-297.4-211.4c0.4-0.9 0.7-1.8 1.2-3.4 0.6-1.8 1.2-3.4 1.9-4.7-0.9 1.6-1.9 3.6-2.7 6.2-0.2 0.5-0.3 0.9-0.4 1.3v0.6zm104.3 285.5s1.4 1.3 3.8 2.9c9.2 2.6 30.1 7.9 46.5 7.3-2-0.4-3.6-0.9-4.7-1.5-20.8-0.7-45.6-8.7-45.6-8.7zm-127.8-194.7c-0.5 0.8-0.9 1.7-1.4 2.5 0.1-0.1 0.1-0.2 0.2-0.3-4.2 13-7.4 33.1-5.4 63 0-0.2 0.1-0.6 0.1-1.2 0 0.4 0 0.7 0.1 1.1 0-0.4 0.2-2.1 0.6-4.7-1.5-28.6 1.7-47.9 5.8-60.4zm19.2 116.3c-15.7-26.9-20.5-51.7-21.6-71.8-0.2 1.1-0.5 2.2-0.7 3.2 1.3 19.8 6.2 44 21.5 70 12 20.5 43.5 68.1 122.6 85.9-3.6-1-6.7-2.5-9-3.9-71.9-19.2-101.3-63.7-112.8-83.4zm253.9 51.8c0.3-0.3 0.8-0.9 0.9-0.9-26.5 36.2-103.2 31.8-103.2 31.8s0.3 0.7 1.3 1.6c10.9 0.3 62.8 0.7 91.3-21.8 7.1-5.3 11.7-11.5 13.2-17.1 0 0-0.1 0.1-0.4 0.2-0.7 2.4-2 4.6-3.1 6.2zm-265.9-200.6c-5.8 9.9-11.9 26.2-16.8 53.5 0 0 0.1-0.4 0.4-1.1-0.1 0.3-0.1 0.7-0.2 1 0 0 0.4-1.1 1.1-3.1 4.2-23.3 9.4-38.4 14.5-48.3 0.2-0.5 0.6-1.2 1-2zm12.6-51.7c0.2-1.9 0.9-2.8 1.2-4.3 0.1-0.4 0.3-0.9 0.5-1.3-0.5 0.8-1 1.7-1.2 2.7-0.2 0.6-0.4 1.2-0.6 1.7 0 0.4 0 1 0.1 1.2-0.1 0.1 0 0.1 0 0zm-5.5 40.4c0-0.9-0.1-1.8-0.1-2.7-0.8-11.9 0.6-21.2 1.9-28 0.8-3.5 1.7-6.7 2.7-9.6 0-0.2 0-0.4-0.1-0.4h-0.1c-0.2 0.5-0.4 1.1-0.6 1.6 0 0.1-0.1 0.2-0.1 0.3-0.1 0.3-0.2 0.5-0.3 0.8-0.3 0.9-0.6 1.8-0.9 2.8-0.4 1.5-0.8 3-1.2 4.6 0 0.2-0.1 0.4-0.1 0.6-0.1 0.2-0.1 0.5-0.2 0.7 0 0.1 0 0.2-0.1 0.4-0.7 3.1-1.2 6.5-1.6 10.2-1.2 10.2-0.9 18.8-0.4 20.1 0.5-0.5 0.8-0.9 1.2-1.4zm262.1 204.3c-0.6 0.3-5.6 2.9-13.8 6.3-15.4 6.4-26 11.3-26.9 13 0 0 4-2.7 17.7-8.2 14.3-5.7 21.1-9 22.8-9.8 0.3-0.1 0.4-0.2 0.4-0.2l-0.2-1.1z"/>
<path fill="url(#j)" d="m154.4 321.9s-0.1 0 0 0m0-0.9c1 2.5 10.5 6.1 32.3 5.1 17.7-0.8 27.6-7.6 27.6-7.6s-7.3 3.3-31.8 4.2c-21.2 0.6-27.8-1.5-28.1-1.7zm-13.4-6.9c17.7 3.9 39.7 0.5 39.7 0.5s-21.1 0.2-42.9-5c-23.3-5.5-29.9-12.9-29.8-13 0.4 4 15.3 13.6 33 17.5zm14.9-1.5c12.9 1.6 26.4-0.3 26.4-0.3s-13.5-0.2-28.7-2.3c-15-2.1-20.7-4.5-20.7-4.7 1.5 2.8 13.6 6.1 23 7.3zm-43.8-2.5c10.5 5.2 20.7 6.6 20.7 6.6s-17.2-6.3-24.9-10.9c-7.6-4.6-13.8-8.6-14-9 1.7 3 8.1 8.9 18.2 13.3zm36.8 27.2" opacity=".1"/>
<path fill="url(#i)" d="m100.9 67s-2.7 3.2-4.7 6.4c-2.3 3.5-4.2 7.2-4.2 7.2s-11.4-8.4-21.6-10.1c-10.2-1.7-13.2-1.4-13.2-1.4s17-8.8 43.7-2.1z"/>
</svg>
