<?xml version="1.0" encoding="UTF-8" standalone="no"?>
<!-- Created with Inkscape (http://www.inkscape.org/) -->

<svg
   xmlns:dc="http://purl.org/dc/elements/1.1/"
   xmlns:cc="http://creativecommons.org/ns#"
   xmlns:rdf="http://www.w3.org/1999/02/22-rdf-syntax-ns#"
   xmlns:svg="http://www.w3.org/2000/svg"
   xmlns="http://www.w3.org/2000/svg"
   xmlns:sodipodi="http://sodipodi.sourceforge.net/DTD/sodipodi-0.dtd"
   xmlns:inkscape="http://www.inkscape.org/namespaces/inkscape"
   width="610"
   height="660"
   id="svg3012"
   version="1.1"
   inkscape:version="0.48.5 r10040"
   sodipodi:docname="background.svg">
  <defs
     id="defs3014" />
  <sodipodi:namedview
     id="base"
     pagecolor="#ffffff"
     bordercolor="#666666"
     borderopacity="1.0"
     inkscape:pageopacity="0.0"
     inkscape:pageshadow="2"
     inkscape:zoom="0.94"
     inkscape:cx="126.56203"
     inkscape:cy="322.3775"
     inkscape:document-units="px"
     inkscape:current-layer="layer1"
     showgrid="true"
     inkscape:snap-grids="false"
     inkscape:window-width="1351"
     inkscape:window-height="898"
     inkscape:window-x="194"
     inkscape:window-y="66"
     inkscape:window-maximized="0"
     inkscape:snap-page="true">
    <inkscape:grid
       type="xygrid"
       id="grid3020"
       empspacing="5"
       visible="true"
       enabled="true"
       snapvisiblegridlinesonly="true"
       spacingx="40px"
       spacingy="40px"
       originx="5px"
       originy="30px" />
  </sodipodi:namedview>
  <metadata
     id="metadata3017">
    <rdf:RDF>
      <cc:Work
         rdf:about="">
        <dc:format>image/svg+xml</dc:format>
        <dc:type
           rdf:resource="http://purl.org/dc/dcmitype/StillImage" />
        <dc:title />
      </cc:Work>
    </rdf:RDF>
  </metadata>
  <g
     inkscape:label="Layer 1"
     inkscape:groupmode="layer"
     id="layer1"
     transform="translate(0,-392.3622)">
    <rect
       style="fill:#1e2b3c;fill-opacity:1;stroke:none"
       id="rect3800"
       width="610"
       height="660"
       x="0"
       y="0"
       transform="translate(0,392.3622)" />
    <path
       transform="translate(0,392.3622)"
       style="fill:#172d17;fill-opacity:1;stroke:none"
       d="m 0,468.51065 c 0,0 96.191011,-28.27456 143.61702,-19.14894 53.94746,10.38047 143.61703,80.85107 143.61703,80.85107 l 1.06383,129.78724 -288.29788,0 z"
       id="rect3803"
       inkscape:connector-curvature="0"
       sodipodi:nodetypes="cscccc" />
    <path
       style="fill:#1e3c1e;fill-opacity:1;stroke:none"
       d="m 0,903.87734 c 0,0 67.769023,31.76175 104.25532,34.04255 52.26631,3.26724 110.37654,-32.9762 154.25532,-29.78723 53.39119,3.88031 111.18033,24.35418 159.57447,18.08511 38.74296,-5.01885 68.46122,-44.29249 107.4468,-46.80852 C 554.78458,877.52137 610,903.87734 610,903.87734 l 0,148.48486 -610,0 z"
       id="rect3798"
       inkscape:connector-curvature="0"
       sodipodi:nodetypes="csssscccc" />
    <path
       style="fill:#504617;stroke:#000000;stroke-width:1px;stroke-linecap:butt;stroke-linejoin:miter;stroke-opacity:1;fill-opacity:1"
       d="M 460.6383,545.10638 444.68085,310 139.3617,321.70213 l 3.19149,251.06383 z"
       id="path3806"
       inkscape:connector-curvature="0"
       transform="translate(0,392.3622)" />
    <path
       style="fill:#504617;stroke:#000000;stroke-width:1px;stroke-linecap:butt;stroke-linejoin:miter;stroke-opacity:1;fill-opacity:1"
       d="M 126.59574,325.95745 455.31915,313.19149 274.46809,191.91489 z"
       id="path3808"
       inkscape:connector-curvature="0"
       transform="translate(0,392.3622)" />
    <path
       style="fill:#3e1750;stroke:#000000;stroke-width:1px;stroke-linecap:butt;stroke-linejoin:miter;stroke-opacity:1;fill-opacity:1"
       d="m 206.38298,565.31915 -7.44681,-82.97872 50,-6.38298 4.25532,86.17021"
       id="path3810"
       inkscape:connector-curvature="0"
       transform="translate(0,392.3622)" />
    <path
       style="fill:#17504e;fill-opacity:1;stroke:#000000;stroke-width:1px;stroke-linecap:butt;stroke-linejoin:miter;stroke-opacity:1"
       d="m 325.53191,885.34092 -6.38298,-54.25531 63.82979,3.19149 -1.06383,59.57446 z"
       id="path3812"
       inkscape:connector-curvature="0" />
    <path
       style="fill:#17504e;stroke:#000000;stroke-width:1px;stroke-linecap:butt;stroke-linejoin:miter;stroke-opacity:1;fill-opacity:1"
       d="m 197.87234,415.31915 67.02128,-12.76596 -5.31915,-56.38298 -73.40426,9.57447 z"
       id="path3814"
       inkscape:connector-curvature="0"
       transform="translate(0,392.3622)" />
    <path
       style="fill:#17504e;stroke:#000000;stroke-width:1px;stroke-linecap:butt;stroke-linejoin:miter;stroke-opacity:1;fill-opacity:1"
       d="m 319.14894,405.74468 60.63829,-1.06383 -1.06383,-56.38298 -60.63829,9.57447 z"
       id="path3816"
       inkscape:connector-curvature="0"
       transform="translate(0,392.3622)" />
    <path
       style="fill:none;stroke:#000000;stroke-width:1px;stroke-linecap:butt;stroke-linejoin:miter;stroke-opacity:1"
       d="m 321.2766,440.85106 57.4468,58.51064"
       id="path3818"
       inkscape:connector-curvature="0"
       transform="translate(0,392.3622)" />
    <path
       style="fill:none;stroke:#000000;stroke-width:1px;stroke-linecap:butt;stroke-linejoin:miter;stroke-opacity:1"
       d="m 326.59574,491.91489 55.31915,-48.93617"
       id="path3820"
       inkscape:connector-curvature="0"
       transform="translate(0,392.3622)" />
    <path
       style="fill:none;stroke:#000000;stroke-width:1px;stroke-linecap:butt;stroke-linejoin:miter;stroke-opacity:1"
       d="m 320.21277,402.55319 57.4468,-51.06383"
       id="path3822"
       inkscape:connector-curvature="0"
       transform="translate(0,392.3622)" />
    <path
       style="fill:none;stroke:#000000;stroke-width:1px;stroke-linecap:butt;stroke-linejoin:miter;stroke-opacity:1"
       d="m 319.14894,360 59.57446,41.48936"
       id="path3824"
       inkscape:connector-curvature="0"
       transform="translate(0,392.3622)" />
    <path
       style="fill:none;stroke:#000000;stroke-width:1px;stroke-linecap:butt;stroke-linejoin:miter;stroke-opacity:1"
       d="m 187.23404,354.68085 75.53192,43.61702"
       id="path3826"
       inkscape:connector-curvature="0"
       transform="translate(0,392.3622)" />
    <path
       style="fill:none;stroke:#000000;stroke-width:1px;stroke-linecap:butt;stroke-linejoin:miter;stroke-opacity:1"
       d="m 260.6383,347.23404 -58.51064,64.89362"
       id="path3828"
       inkscape:connector-curvature="0"
       transform="translate(0,392.3622)" />
    <path
       style="fill:#5c5c5c;fill-opacity:1;stroke:#000000;stroke-width:1px;stroke-linecap:butt;stroke-linejoin:miter;stroke-opacity:1"
       d="m 365.95745,582.14944 c 0,-1.41844 -1.41844,-4.25532 0,-4.25532 1.41844,0 1.00299,5.25831 0,4.25532 -1.27857,-1.27857 -0.3923,-3.64031 -1.06383,-5.31915 -0.1317,-0.32925 -0.81309,0.25075 -1.06383,0 -0.25075,-0.25075 0.25074,-0.81308 0,-1.06383 -0.25075,-0.25075 -0.81309,0.25075 -1.06383,0 -0.25075,-0.25075 0.25074,-0.81308 0,-1.06383 -0.25075,-0.25075 -0.81308,0.25075 -1.06383,0 -0.25075,-0.25075 0.25075,-0.81308 0,-1.06383 -0.25075,-0.25075 -0.81308,0.25075 -1.06383,0 -0.25075,-0.25075 0.25075,-0.81308 0,-1.06383 -0.25075,-0.25075 -0.90525,0.31717 -1.06383,0 0,-6.02837 0.70922,-0.35461 -1.06383,-2.12766 -0.5015,-0.50149 0.50149,-1.62617 0,-2.12766 -0.25075,-0.25075 -0.81308,0.25075 -1.06383,0 -0.25075,-0.25075 0.25075,-0.81308 0,-1.06383 -0.25075,-0.25075 -0.81308,0.25075 -1.06383,0 -0.25075,-0.25075 0.25075,-0.81308 0,-1.06383 -0.25075,-0.25075 -0.81308,0.25075 -1.06383,0 -0.53192,-0.53191 0.53191,-2.65957 0,-3.19149 -0.25075,-0.25075 -0.81308,0.25075 -1.06383,0 -0.50149,-0.50149 0.50149,-1.62616 0,-2.12766 -0.25075,-0.25075 -0.81308,0.25075 -1.06383,0 -0.53192,-0.53191 0.53191,-2.65957 0,-3.19149 -0.25075,-0.25075 -0.81308,0.25075 -1.06383,0 -0.25075,-0.25075 0,-0.70922 0,-1.06383 0,-0.35461 0,-0.70922 0,-1.06383 0,-0.39067 0.0428,-4.21251 0,-4.25532 -0.25075,-0.25074 -0.81308,0.25075 -1.06383,0 -0.25075,-0.25074 0.25075,-0.81308 0,-1.06383 -0.25075,-0.25074 -0.70922,0 -1.06383,0 -2.48227,0 -4.96454,0 -7.44681,0 -2.48227,0 -4.96454,0 -7.44681,0 -0.35461,0 -0.81308,0.25075 -1.06383,0 -0.25074,-0.25074 0.25075,-0.81308 0,-1.06383 -0.25074,-0.25074 -0.70922,0 -1.06383,0 -2.12766,0 -4.25532,0 -6.38297,0 -0.35461,0 -0.81309,0.25075 -1.06383,0 -0.25075,-0.25074 0.25074,-0.81308 0,-1.06383 -0.5015,-0.50149 -1.62617,0.5015 -2.12766,0 -0.25075,-0.25074 0.25074,-0.81308 0,-1.06383 -0.25075,-0.25074 -0.70922,0 -1.06383,0 -0.5016,0 -5.27094,0.0482 -5.31915,0 -0.35563,-0.35562 0.35562,-1.77203 0,-2.12766 -0.25075,-0.25074 -0.81309,0.25075 -1.06383,0 -0.25075,-0.25074 0.25074,-0.81308 0,-1.06383 -0.25075,-0.25074 -0.81309,0.25075 -1.06383,0 -0.25075,-0.25074 0.25074,-0.81308 0,-1.06383 -0.35278,-0.35277 -1.77488,0.35278 -2.12766,0 -0.5015,-0.50149 0.50149,-1.62616 0,-2.12765 -0.25075,-0.25075 -0.81308,0.25074 -1.06383,0 -0.25075,-0.25075 0.25075,-0.81309 0,-1.06383 -0.25075,-0.25075 -0.81308,0.25074 -1.06383,0 -0.25075,-0.25075 0.25075,-0.81309 0,-1.06383 -0.25075,-0.25075 -0.81308,0.25074 -1.06383,0 -0.25599,-0.25599 0.25599,-3.99933 0,-4.25532 -0.25075,-0.25075 -0.81308,0.25074 -1.06383,0 -0.25599,-0.25599 0.25599,-3.99933 0,-4.25532 -0.25075,-0.25075 -0.70922,0 -1.06383,0 0,-0.35461 0.25075,-0.81309 0,-1.06383 -0.0854,-0.0854 -4.4818,0 -5.31915,0 -0.35461,0 -0.70922,0 -1.06383,0 -0.35461,0 -0.74666,0.15858 -1.06383,0 -0.44855,-0.22428 -0.61528,-0.83956 -1.06383,-1.06383 -0.32344,-0.16172 -3.52072,0 -4.25532,0 -2.83688,0 -5.67376,0 -8.51064,0 -0.4791,0 -2.86773,0.16188 -3.19149,0 -0.44855,-0.22428 -0.61528,-0.83956 -1.06383,-1.06383 -0.31717,-0.15859 -0.81308,0.25075 -1.06383,0 -0.25074,-0.25075 0.25075,-0.81308 0,-1.06383 -0.53191,-0.53192 -2.65957,0.53191 -3.19149,0 -0.25074,-0.25075 0,-0.70922 0,-1.06383 -0.35461,0 -0.81308,0.25075 -1.06382,0 -0.5015,-0.5015 0.50149,-1.62617 0,-2.12766 -0.25075,-0.25075 -0.81309,0.25075 -1.06383,0 -0.25075,-0.25075 0.25074,-0.81308 0,-1.06383 -0.25075,-0.25075 -0.81309,0.25075 -1.06383,0 -0.25075,-0.25075 0.25074,-0.81308 0,-1.06383 -0.25075,-0.25075 -0.81309,0.25075 -1.06383,0 -0.5015,-0.50149 0.50149,-1.62617 0,-2.12766 -0.25075,-0.25075 -0.81309,0.25075 -1.06383,0 -0.25075,-0.25075 0.25074,-0.81308 0,-1.06383 -0.25075,-0.25075 -0.81309,0.25075 -1.06383,0 -0.25075,-0.25075 0.25074,-0.81308 0,-1.06383 -0.1651,-0.16509 -2.77753,0.13799 -3.19149,0 -0.75224,-0.25075 -1.37542,-0.81308 -2.12766,-1.06383 -0.63433,-0.21144 -5.35227,0 -6.38298,0 -0.35461,0 -0.70922,0 -1.06383,0 -0.35461,0 -0.74666,0.15859 -1.06383,0 -0.44855,-0.22427 -0.58807,-0.90524 -1.06383,-1.06383 -0.63262,-0.21087 -5.12638,0 -6.38298,0 -0.35461,0 -0.81308,0.25075 -1.06383,0 -1.41844,-1.41844 1.77305,-1.06383 -1.06383,-1.06383 -2.12766,0 -4.25532,0 -6.38298,0 -0.35461,0 -0.81308,0.25075 -1.06383,0 -0.25074,-0.25075 0.25075,-0.81308 0,-1.06383 -0.25074,-0.25075 -0.81308,0.25075 -1.06383,0 -0.25074,-0.25075 0.25075,-0.81308 0,-1.06383 -0.35018,-0.35018 -1.77747,0.35019 -2.12766,0 -0.35497,-0.35497 0.35498,-1.77269 0,-2.12766 -0.53191,-0.53191 -2.65957,0.53192 -3.19149,0 -0.25074,-0.25075 0.25075,-0.81308 0,-1.06383 -0.25074,-0.25075 -0.74665,0.15859 -1.06383,0 -4.4274,-2.2137 1.13728,0.0734 -1.06383,-2.12766 -0.25074,-0.25075 -0.81308,0.25075 -1.06383,0 -0.25074,-0.25075 0.25075,-0.81308 0,-1.06383 -0.25074,-0.25075 -0.81308,0.25075 -1.06383,0 -0.50149,-0.50149 0.5015,-1.62617 0,-2.12766 -0.35018,-0.35018 -1.77747,0.35018 -2.12766,0 -1.04944,-1.04944 2.17987,-2.12766 -1.06382,-2.12766 -5.67376,0 -11.34752,0 -17.02128,0 -0.25801,0 -3.15728,0.0342 -3.19149,0 -0.25075,-0.25075 0.25075,-0.81308 0,-1.06383 -0.25075,-0.25075 -0.70922,0 -1.06383,0 -0.35461,0 -0.70922,0 -1.06383,0 -2.12766,0 -4.25532,0 -6.38298,0 -1.06383,0 -2.18225,0.33641 -3.19149,0 -0.47576,-0.15859 -0.61528,-0.83955 -1.06383,-1.06383 -0.63434,-0.31717 -1.62616,0.5015 -2.12766,0 -0.25074,-0.25075 0.25075,-0.81308 0,-1.06383 -0.35018,-0.35018 -1.77747,0.35019 -2.12766,0 -0.25074,-0.25075 0.31718,-0.90524 0,-1.06383 -0.63434,-0.31717 -1.49331,0.31717 -2.12766,0 -0.31717,-0.15858 0.25075,-0.81308 0,-1.06383 -0.50149,-0.50149 -1.49331,0.31717 -2.12766,0 -4.4274,-2.2137 1.13728,0.0734 -1.06383,-2.12766 -0.25074,-0.25074 -0.81308,0.25075 -1.06383,0 -0.25074,-0.25074 0.25075,-0.81308 0,-1.06383 -0.53191,-0.53191 -2.65957,0.53192 -3.19149,0 0,-2.83688 0.35461,0.35461 -1.06383,-1.06383 -0.50149,-0.50149 0.5015,-1.62616 0,-2.12766 -0.25074,-0.25074 -0.81308,0.25075 -1.06383,0 -0.50149,-0.50149 0.5015,-1.62616 0,-2.12766 -0.25074,-0.25074 -0.81308,0.25075 -1.06382,0 -0.53192,-0.53191 0.53191,-2.65957 0,-3.19149 -0.25075,-0.25074 -0.81309,0.25075 -1.06383,0 -0.0342,-0.0342 0,-2.93348 0,-3.19149 0,-0.3546 -0.25075,-0.81308 0,-1.06382 0.25074,-0.25075 0.81308,0.25074 1.06383,0 0.21748,-0.21749 -0.2109,-2.76969 0,-3.19149 0.22427,-0.44855 0.83955,-0.61528 1.06382,-1.06383 0.15859,-0.31718 -0.25074,-0.81309 0,-1.06383 0.25075,-0.25075 0.81309,0.25074 1.06383,0 0.25075,-0.25075 -0.25074,-0.81309 0,-1.06383 0.5015,-0.5015 1.62617,0.50149 2.12766,0 0.25075,-0.25075 -0.25074,-0.81309 0,-1.06383 0.25075,-0.25075 0.70922,0 1.06383,0 0.70922,-0.35461 1.56698,-0.50315 2.12766,-1.06383 0.25075,-0.25075 -0.15858,-0.74666 0,-1.06383 1.1761,-2.35219 0.66026,-0.33013 2.12766,-1.06383 0.8971,-0.44855 1.23056,-1.67911 2.12766,-2.12766 0.32376,-0.16188 2.71239,0 3.19149,0 2.12766,0 4.25532,0 6.38298,0 0.35461,0 0.70922,0 1.06383,0 0.35461,0 0.81308,-0.25075 1.06383,0 0.25075,0.25074 -0.25075,0.81308 0,1.06383 0.25075,0.25074 0.81308,-0.25075 1.06383,0 0.25075,0.25074 -0.25075,0.81308 0,1.06383 0.35018,0.35018 1.77748,-0.35019 2.12766,0 0.25075,0.25074 -0.25075,0.81308 0,1.06383 0.35018,0.35018 1.77748,-0.35019 2.12766,0 0.50149,0.50149 -0.50149,1.62616 0,2.12766 0.25075,0.25074 0.70922,0 1.06383,0 0.73994,0 4.93443,0.19235 5.31915,0 0.44855,-0.22428 0.58807,-0.90525 1.06383,-1.06383 0.72372,-0.24124 4.75506,0.28204 5.31915,0 0.44855,-0.22428 0.61528,-0.83956 1.06383,-1.06383 0.4218,-0.2109 2.974,0.21748 3.19149,0 0.25074,-0.25075 -0.25075,-0.81309 0,-1.06383 0.25074,-0.25075 0.70922,0 1.06383,0 0.35461,0 0.70922,0 1.06383,0 1.03071,0 5.74864,0.21144 6.38297,0 0.75225,-0.25075 1.37542,-0.81309 2.12766,-1.06383 0.66958,-0.22319 4.36025,0 5.31915,0 0.47911,0 2.86773,-0.16188 3.19149,0 0.44855,0.22427 0.70922,0.70922 1.06383,1.06383 0.70922,0 1.49332,-0.31718 2.12766,0 0.31717,0.15858 -0.25075,0.81308 0,1.06383 0.25075,0.25074 0.70922,0 1.06383,0 0.35461,0 0.70922,0 1.06383,0 6.02837,0 0.35461,-0.70922 2.12766,1.06383 0.35018,0.35018 1.77748,-0.35019 2.12766,0 0.53192,0.53191 -0.53191,2.65957 0,3.19149 1.41844,1.41844 1.06383,-1.77305 1.06383,1.06383 0,0.35461 0,0.70922 0,1.06383 0,0.35461 -0.25075,0.81308 0,1.06383 0.25075,0.25074 0.70922,0 1.06383,0 1.77305,0 3.5461,0 5.31915,0 2.48227,0 4.96454,0 7.44681,0 0.70922,0 1.41844,0 2.12766,0 0.70922,0 1.49331,0.31717 2.12766,0 0.31717,-0.15859 -0.25075,-0.81309 0,-1.06383 0.25074,-0.25075 0.70922,0 1.06383,0 0.35461,0 0.70922,0 1.06383,0 3.90071,0 7.80141,0 11.70212,0 2.12766,0 4.25532,0 6.38298,0 0.47911,0 2.86773,-0.16188 3.19149,0 2.57239,1.28619 -0.44473,0.84146 2.12766,2.12766 0.31717,0.15858 0.81308,-0.25075 1.06383,0 0.25075,0.25074 -0.25075,0.81308 0,1.06383 0.25075,0.25074 0.81308,-0.25075 1.06383,0 0.25075,0.25074 -0.15859,0.74665 0,1.06382 0.22428,0.44855 0.83956,0.61528 1.06383,1.06383 0.15859,0.31718 -0.25075,0.81309 0,1.06383 0.25075,0.25075 0.81308,-0.25074 1.06383,0 0.50149,0.5015 -0.50149,1.62617 0,2.12766 0.25075,0.25075 0.81308,-0.25074 1.06383,0 0.53192,0.53192 -0.53191,2.65958 0,3.19149 0.25075,0.25075 0.81308,-0.25074 1.06383,0 0.25075,0.25075 0,0.70922 0,1.06383 0,2.48227 0,4.96454 0,7.44681 0,0.25801 0.0342,3.15728 0,3.19149 -0.25075,0.25075 -0.81308,-0.25075 -1.06383,0 -0.25075,0.25075 0,0.70922 0,1.06383 0,0.35461 -0.25075,0.81308 0,1.06383 0.25075,0.25075 0.70922,0 1.06383,0 0.70922,0 1.49331,0.31717 2.12766,0 0.31717,-0.15859 -0.25075,-0.81308 0,-1.06383 0.0482,-0.0482 4.81756,0 5.31915,0 6.73759,0 13.47518,0 20.21276,0 0.25801,0 3.15728,-0.0342 3.19149,0 0.25075,0.25075 -0.25074,0.81308 0,1.06383 0.25075,0.25075 0.81309,-0.25075 1.06383,0 2.20111,2.2011 -3.36357,-0.086 1.06383,2.12766 1.4674,0.7337 0.95157,-1.28836 2.12766,1.06383 0.15859,0.31717 -0.25074,0.81308 0,1.06383 0.25075,0.25075 0.81309,-0.25075 1.06383,0 0.25075,0.25075 -0.25074,0.81308 0,1.06383 0.25075,0.25075 0.81309,-0.25075 1.06383,0 0.53192,0.53191 -0.53191,2.65958 0,3.19149 0.25075,0.25075 0.81309,-0.25075 1.06383,0 0.25075,0.25075 0,0.70922 0,1.06383 0,0.35461 0,0.70922 0,1.06383 0,0.35461 -0.25074,0.81308 0,1.06383 0.25075,0.25075 0.74666,-0.15859 1.06383,0 0.44855,0.22428 0.58807,0.90524 1.06383,1.06383 0.67283,0.22428 1.43962,-0.17201 2.12766,0 0.76926,0.19231 1.37542,0.81308 2.12766,1.06383 0.51544,0.17181 6.9666,0 7.44681,0 2.12766,0 4.25532,0 6.38298,0 1.41844,0 2.83688,0 4.25532,0 0.70922,0 1.43961,-0.17201 2.12766,0 0.76925,0.19231 1.37542,0.81308 2.12766,1.06383 0.67282,0.22428 1.41844,0 2.12766,0 1.08869,0 7.63161,-0.21976 8.51063,0 0.76926,0.19231 1.37542,0.81308 2.12766,1.06383 0.33642,0.11214 0.70922,0 1.06383,0 2.48227,0 4.96454,0 7.44681,0 0.70922,0 1.43962,-0.17201 2.12766,0 4.88967,1.22242 0.24137,1.06383 3.19149,1.06383 0.25801,0 3.15728,-0.0342 3.19149,0 0.25075,0.25075 -0.25075,0.81308 0,1.06383 0.53192,0.53191 2.65958,-0.53192 3.19149,0 0.25075,0.25075 -0.25075,0.81308 0,1.06383 0.25075,0.25075 0.81308,-0.25075 1.06383,0 0.25075,0.25075 -0.25075,0.81308 0,1.06383 0.25075,0.25075 0.81308,-0.25075 1.06383,0 0.53191,0.53191 -0.53192,2.65957 0,3.19149 0.25075,0.25075 0.81308,-0.25075 1.06383,0 0.25075,0.25075 0,0.70922 0,1.06383 0,0.39068 0.0428,4.21251 0,4.25532 -0.25075,0.25074 -0.81308,-0.25075 -1.06383,0 -0.53192,0.53191 0.53191,2.65957 0,3.19149 -0.25075,0.25074 -0.81308,-0.25075 -1.06383,0 -0.25075,0.25074 0.25075,0.81308 0,1.06383 -0.50149,0.50149 -1.62617,-0.5015 -2.12766,0 -0.25075,0.25074 0.25075,0.81308 0,1.06383 -0.25075,0.25074 -0.81308,-0.25075 -1.06383,0 -0.50149,0.50149 0.50149,1.62616 0,2.12766 -0.25599,0.25599 -3.99933,-0.25599 -4.25532,0 -0.25075,0.25074 0.25075,0.81308 0,1.06383 -0.25075,0.25074 -0.81308,-0.25075 -1.06383,0 -0.25075,0.25074 0.25075,0.81308 0,1.06383 -0.50149,0.50149 -1.62616,-0.5015 -2.12766,0 -0.25075,0.25074 0.25075,0.81308 0,1.06383 -0.25075,0.25074 -0.81308,-0.25075 -1.06383,0 -0.7337,0.7337 0.78686,1.98917 1.06383,2.12765 0.31717,0.15859 0.81308,-0.25074 1.06383,0 0,2.83688 -0.35461,-0.35461 1.06383,1.06383 0.5015,0.5015 -0.50149,1.62617 0,2.12766 0.5015,0.5015 1.62617,-0.50149 2.12766,0 0.25075,0.25075 -0.25075,0.81309 0,1.06383 0.25075,0.25075 0.81308,-0.25074 1.06383,0 0.25075,0.25075 -0.25075,0.81309 0,1.06383 0.25075,0.25075 0.81308,-0.25074 1.06383,0 0.35563,0.35563 -0.35563,1.77204 0,2.12766 0.25075,0.25075 0.81308,-0.25074 1.06383,0 0.25075,0.25075 -0.25075,0.81309 0,1.06383 0.25075,0.25075 0.81308,-0.25074 1.06383,0 0.50149,0.5015 -0.50149,1.62617 0,2.12766 0.25075,0.25075 0.81308,-0.25074 1.06383,0 0.25075,0.25075 -0.15859,0.74666 0,1.06383 0.22428,0.44855 0.83955,0.61528 1.06383,1.06383 0.15859,0.31718 0,0.70922 0,1.06383 0,0.35461 0,0.70922 0,1.06383 0,2.12766 0,4.25532 0,6.38298 0,0.73994 0.19236,4.93443 0,5.31915 -0.81116,1.62232 -2.79562,1.06383 -4.25532,1.06383 -0.35461,0 -0.81308,-0.25075 -1.06383,0 -0.25075,0.25075 0.25075,0.81308 0,1.06383 -0.53191,0.53191 -2.65957,-0.53192 -3.19149,0 -0.25075,0.25075 0.25075,0.81308 0,1.06383 -0.50149,0.50149 -1.62616,-0.5015 -2.12766,0 -0.25075,0.25075 0.25075,0.81308 0,1.06383 -0.25075,0.25075 -0.81308,-0.25075 -1.06383,0 -0.25074,0.25075 0.25075,0.81308 0,1.06383 -0.25074,0.25075 -0.74665,-0.15859 -1.06383,0 -0.44855,0.22427 -0.61528,0.83955 -1.06383,1.06383 -0.63434,0.31717 -1.62616,-0.5015 -2.12766,0 -0.25074,0.25075 0.25075,0.81308 0,1.06383 -0.25074,0.25075 -0.81308,-0.25075 -1.06383,0 -0.25074,0.25075 0.25075,0.81308 0,1.06383 -0.25074,0.25074 -0.74665,-0.15859 -1.06383,0 -0.44855,0.22427 -0.61528,0.83955 -1.06383,1.06383 -0.31717,0.15858 -0.81308,-0.25075 -1.06383,0 -0.25074,0.25074 0.25075,0.81308 0,1.06383 -0.50149,0.50149 -1.62616,-0.5015 -2.12766,0 -0.25074,0.25074 0.25075,0.81308 0,1.06383 -0.25074,0.25074 -0.81308,-0.25075 -1.06383,0 -0.25074,0.25074 0.25075,0.81308 0,1.06383 -0.25074,0.25074 -0.81308,-0.25075 -1.06383,0 -0.0428,0.0428 0,3.86464 0,4.25532"
       id="path3832"
       inkscape:connector-curvature="0" />
    <path
       style="fill:#485017;stroke:#000000;stroke-width:1px;stroke-linecap:butt;stroke-linejoin:miter;stroke-opacity:1;fill-opacity:1"
       d="m 352.12766,242.97872 4.25532,-55.31915 36.17021,5.31915 -6.38298,74.46809"
       id="path3830"
       inkscape:connector-curvature="0"
       transform="translate(0,392.3622)" />
    <path
       sodipodi:type="star"
       style="fill:#7e8107;fill-opacity:1;stroke:#000000;stroke-width:0.69999999000000002;stroke-linecap:round;stroke-miterlimit:4;stroke-opacity:1;stroke-dasharray:none"
       id="path3834"
       sodipodi:sides="5"
       sodipodi:cx="518.08511"
       sodipodi:cy="258.93617"
       sodipodi:r1="8.3087763"
       sodipodi:r2="4.1543881"
       sodipodi:arg1="0.69473828"
       sodipodi:arg2="1.3230568"
       inkscape:flatsided="false"
       inkscape:rounded="0"
       inkscape:randomized="0"
       d="m 524.46806,264.25531 -5.36427,-1.2916 -4.10507,3.68673 -0.42927,-5.50085 -4.77482,-2.76489 5.09896,-2.10812 1.15407,-5.39553 3.5806,4.19797 5.48808,-0.56973 -2.88603,4.7026 z"
       transform="translate(0,392.3622)"
       inkscape:transform-center-x="0.6295977"
       inkscape:transform-center-y="-0.17041086" />
    <path
       transform="matrix(0.40210295,0.91559446,-0.91559446,0.40210295,491.0887,-28.069878)"
       sodipodi:type="star"
       style="fill:#7e8107;fill-opacity:1;stroke:#000000;stroke-width:0.69999999;stroke-linecap:round;stroke-miterlimit:4;stroke-opacity:1;stroke-dasharray:none"
       id="path3834-1"
       sodipodi:sides="5"
       sodipodi:cx="518.08508"
       sodipodi:cy="258.93616"
       sodipodi:r1="8.3087759"
       sodipodi:r2="4.154388"
       sodipodi:arg1="0.69473828"
       sodipodi:arg2="1.3230568"
       inkscape:flatsided="false"
       inkscape:rounded="0"
       inkscape:randomized="0"
       d="m 524.46806,264.25531 -5.36427,-1.2916 -4.10507,3.68673 -0.42927,-5.50085 -4.77482,-2.76489 5.09896,-2.10812 1.15407,-5.39553 3.5806,4.19797 5.48808,-0.56973 -2.88603,4.7026 z"
       inkscape:transform-center-x="0.71183773"
       inkscape:transform-center-y="0.085312309" />
    <path
       transform="matrix(0.58142449,0.81360037,-0.81360037,0.58142449,456.8813,-89.746201)"
       sodipodi:type="star"
       style="fill:#7e8107;fill-opacity:1;stroke:#000000;stroke-width:0.69999999;stroke-linecap:round;stroke-miterlimit:4;stroke-opacity:1;stroke-dasharray:none"
       id="path3834-4"
       sodipodi:sides="5"
       sodipodi:cx="518.08508"
       sodipodi:cy="258.93616"
       sodipodi:r1="8.3087759"
       sodipodi:r2="4.154388"
       sodipodi:arg1="0.69473828"
       sodipodi:arg2="1.3230568"
       inkscape:flatsided="false"
       inkscape:rounded="0"
       inkscape:randomized="0"
       d="m 524.46806,264.25531 -5.36427,-1.2916 -4.10507,3.68673 -0.42927,-5.50085 -4.77482,-2.76489 5.09896,-2.10812 1.15407,-5.39553 3.5806,4.19797 5.48808,-0.56973 -2.88603,4.7026 z"
       inkscape:transform-center-x="0.19049707"
       inkscape:transform-center-y="0.61006342" />
    <path
       transform="matrix(0.66436454,-0.7474087,0.7474087,0.66436454,-448.80102,900.70463)"
       sodipodi:type="star"
       style="fill:#7e8107;fill-opacity:1;stroke:#000000;stroke-width:0.69999999;stroke-linecap:round;stroke-miterlimit:4;stroke-opacity:1;stroke-dasharray:none"
       id="path3834-0"
       sodipodi:sides="5"
       sodipodi:cx="518.08508"
       sodipodi:cy="258.93616"
       sodipodi:r1="8.3087759"
       sodipodi:r2="4.154388"
       sodipodi:arg1="0.69473828"
       sodipodi:arg2="1.3230568"
       inkscape:flatsided="false"
       inkscape:rounded="0"
       inkscape:randomized="0"
       d="m 524.46806,264.25531 -5.36427,-1.2916 -4.10507,3.68673 -0.42927,-5.50085 -4.77482,-2.76489 5.09896,-2.10812 1.15407,-5.39553 3.5806,4.19797 5.48808,-0.56973 -2.88603,4.7026 z"
       inkscape:transform-center-x="-0.4210809"
       inkscape:transform-center-y="-0.38220914" />
    <path
       transform="matrix(-0.26507816,-0.96422693,0.96422693,-0.26507816,28.728101,1108.1684)"
       sodipodi:type="star"
       style="fill:#7e8107;fill-opacity:1;stroke:#000000;stroke-width:0.69999999;stroke-linecap:round;stroke-miterlimit:4;stroke-opacity:1;stroke-dasharray:none"
       id="path3834-0-9"
       sodipodi:sides="5"
       sodipodi:cx="518.08508"
       sodipodi:cy="258.93616"
       sodipodi:r1="8.3087759"
       sodipodi:r2="4.154388"
       sodipodi:arg1="0.69473828"
       sodipodi:arg2="1.3230568"
       inkscape:flatsided="false"
       inkscape:rounded="0"
       inkscape:randomized="0"
       d="m 524.46806,264.25531 -5.36427,-1.2916 -4.10507,3.68673 -0.42927,-5.50085 -4.77482,-2.76489 5.09896,-2.10812 1.15407,-5.39553 3.5806,4.19797 5.48808,-0.56973 -2.88603,4.7026 z"
       inkscape:transform-center-x="-0.51478014"
       inkscape:transform-center-y="0.2877489" />
    <path
       transform="matrix(-0.26507816,-0.96422693,0.96422693,-0.26507816,-18.174111,1007.4984)"
       sodipodi:type="star"
       style="fill:#7e8107;fill-opacity:1;stroke:#000000;stroke-width:0.69999999;stroke-linecap:round;stroke-miterlimit:4;stroke-opacity:1;stroke-dasharray:none"
       id="path3834-0-9-4"
       sodipodi:sides="5"
       sodipodi:cx="518.08508"
       sodipodi:cy="258.93616"
       sodipodi:r1="8.3087759"
       sodipodi:r2="4.154388"
       sodipodi:arg1="0.69473828"
       sodipodi:arg2="1.3230568"
       inkscape:flatsided="false"
       inkscape:rounded="0"
       inkscape:randomized="0"
       d="m 524.46806,264.25531 -5.36427,-1.2916 -4.10507,3.68673 -0.42927,-5.50085 -4.77482,-2.76489 5.09896,-2.10812 1.15407,-5.39553 3.5806,4.19797 5.48808,-0.56973 -2.88603,4.7026 z"
       inkscape:transform-center-x="-0.51478014"
       inkscape:transform-center-y="0.2877489" />
  </g>
</svg>
