<?xml version="1.0" encoding="UTF-8" standalone="no"?>
<svg viewBox="0 0 138.2 64.4" xml:space="preserve" xmlns="http://www.w3.org/2000/svg" xmlns:dc="http://purl.org/dc/elements/1.1/" version="1.0" xmlns:rdf="http://www.w3.org/1999/02/22-rdf-syntax-ns#" xmlns:cc="http://creativecommons.org/ns#"><metadata><rdf:RDF><cc:Work rdf:about=""><dc:format>image/svg+xml</dc:format><dc:type rdf:resource="http://purl.org/dc/dcmitype/StillImage"/></cc:Work></rdf:RDF></metadata><defs><clipPath id="c"><path d="m423 127.39h133.07v74.03h-133.07v-74.03z"/></clipPath><linearGradient id="a" gradientTransform="matrix(-10.421 -10.9 10.9 -10.421 472.03 189.02)" gradientUnits="userSpaceOnUse"><stop offset="0" stop-color="#deec4e"/><stop offset="1" stop-color="#466d12"/></linearGradient><clipPath id="b"><path d="m423 127.39h133.07v74.03h-133.07v-74.03z"/></clipPath></defs><g transform="matrix(1.25 0 0 -1.25 -544.32 236.22)"><g clip-path="url(#c)"><g transform="translate(542.59 154.54)" fill="#4d6e15"><path d="m0 0c0-0.164 0.128-0.228 0.273-0.228 0.095 0 0.24 0.028 0.24 0.154 0 0.133-0.185 0.155-0.366 0.204-0.183 0.048-0.368 0.119-0.368 0.35 0 0.252 0.238 0.373 0.461 0.373 0.258 0 0.494-0.112 0.494-0.397h-0.262c-0.009 0.149-0.114 0.187-0.244 0.187-0.086 0-0.187-0.037-0.187-0.14 0-0.095 0.059-0.107 0.368-0.187 0.09-0.022 0.367-0.079 0.367-0.359 0-0.226-0.178-0.396-0.513-0.396-0.273 0-0.529 0.135-0.526 0.439h0.263z" fill="#4d6e15"/></g><g transform="translate(543.52 155.36)" fill="#4d6e15"><path d="m0 0h0.382l0.288-0.848h0.004l0.273 0.848h0.381v-1.233h-0.254v0.874h-0.003l-0.303-0.874h-0.208l-0.303 0.865h-0.003v-0.865h-0.254v1.233z" fill="#4d6e15"/></g><g transform="translate(470.66 159.67)"><path d="m0 0c-1.722-0.47-2.859 0.08-4.09-0.007-1.366-0.098-1.874-0.616-4.229-0.691-2.472 0.021-4.338 1.475-5.457 3.789-2.355 4.866-1.832 9.076-1.302 11.322 0.778 3.296 2.482 4.963 5.558 4.412 1.79-0.321 3.305-1.467 5.382-1.727 1.03-0.128 2.142 0.102 3.442 0.418 1.002 0.244 1.905 0.274 2.798 0.064 1.421-0.333 2.365-0.924 3.096-2.498 1.413-3.042 1.368-7.115-1.403-11.624-0.981-1.597-2.344-3.062-3.795-3.458" fill="#b20c35"/></g><g transform="translate(466.08 181.56)"><path d="m0 0s-0.065 1.325 0.742 2.808c0.806 1.483 2.599 2.465 3.776 2.671s1.901 0.33 2.293 0.796c0.312 0.369 0.566 0.225 0.558-0.145-0.007-0.257-0.1-0.92-0.196-1.546-0.097-0.627-0.398-2.137-1.061-3.165-0.993-1.543-2.322-1.909-3.472-2.022-1.127-0.11-2.091 0.307-2.64 0.603" fill="#deec4e"/></g></g><g transform="translate(1.2315 -.92361)"><path d="m472.02 188.95c-0.17-0.74-0.83-2.35-3.01-4.14-2.41-1.98-4.16-2.33-4.16-2.33 0.55-0.29 1.51-0.71 2.64-0.6 1.15 0.12 2.48 0.48 3.47 2.02 0.67 1.03 0.97 2.54 1.06 3.17 0.1 0.63 0.19 1.29 0.2 1.55 0 0.18-0.08 0.3-0.19 0.33h-0.01z" fill="url(#a)"/></g><g transform="translate(1.2315 -.92361)"><g clip-path="url(#b)"><g transform="translate(468.4 163.75)"><path d="m0 0c-1.702-0.222-2.694 0.507-3.88 0.431-1.317-0.084-1.868-0.511-4.137-0.576-2.384 0.018-4.182 1.034-5.261 3.041-2.269 4.221-1.998 8.124-1.282 10.024 0.836 2.219 2.102 3.589 3.879 3.922 2.89 0.542 3.869-0.898 6.473-1.554 1.144-0.288 2.087-0.327 3.205-0.056 1.565 0.38 2.181 0.442 3.065 0.285 1.469-0.263 2.45-1.267 2.994-2.435 1.252-2.692 1.427-6.611-1.073-10.229-0.954-1.381-2.612-2.717-3.983-2.853m6.254 13.528c-0.898 2.136-2.345 3.399-4.251 3.688-1.257 0.19-1.99-0.276-3.242-0.435-0.837-0.106-1.6-0.096-2.38 0.18-1.983 0.702-3.518 2.1-5.576 2.383-2.597 0.357-4.767-1.704-5.646-3.039-2.074-3.153-2.049-9.235 0.234-14.104 0 0 0.513-0.982 0.806-1.453 0.904-1.455 2.462-3.11 5.572-3.262 2.27 0.066 3.479 0.753 4.385 0.849 0.875 0.094 2.045-0.542 3.9-0.246 2.324 0.371 4.988 4.289 4.988 4.289 1.956 2.959 2.892 7.146 1.21 11.15" fill="#ee2622"/></g><g transform="translate(460.16 177.27)"><path d="m0 0s-2.398-0.876-3.227-3.733c-0.857-2.955-1.941 3.029 3.227 3.733" fill="#fff"/></g></g></g></g></svg>
