<?xml version="1.0" encoding="UTF-8" standalone="no"?>
<svg version="1.0" viewBox="0 0 138.2 64.4" xml:space="preserve" xmlns="http://www.w3.org/2000/svg"><defs><clipPath id="c"><path d="m423 127.39h133.07v74.03h-133.07v-74.03z"/></clipPath><linearGradient id="a" gradientUnits="userSpaceOnUse" gradientTransform="matrix(-10.421 -10.9 10.9 -10.421 472.03 189.02)"><stop stop-color="#deec4e" offset="0"/><stop stop-color="#466d12" offset="1"/></linearGradient><clipPath id="b"><path d="m423 127.39h133.07v74.03h-133.07v-74.03z"/></clipPath></defs><g transform="matrix(1.25 0 0 -1.25 -544.32 236.22)"><g clip-path="url(#c)"><g transform="translate(490.64 154.66)" fill="#4d6e15"><path fill="#4d6e15" d="m0 0c1.74 0 2.297-1.309 2.634-2.737-1.578-0.511-3.507-0.999-5.194-1.312 0.016 0.619 0.213 4.049 2.56 4.049m-3.379-0.405c-1.218-1.218-1.862-2.915-1.862-4.906 0-3.415 2.416-5.801 5.873-5.801 2.633 0 4.303 1.312 4.373 1.368l0.031 0.023-0.015 0.037c-0.067 0.169-0.438 1.007-1.046 0.812-0.687-0.331-1.381-0.491-2.126-0.491-2.924 0-4.022 2.394-4.219 3.844 1.895 0.447 4.711 1.198 7.49 2.564 0-0.001 0.06 0.028 0.06 0.028 0.001 0 0.157 0.079 0.157 0.079l-0.056 0.235c-0.189 0.785-0.468 1.69-1.098 2.451-0.797 0.965-1.967 1.454-3.477 1.454-1.517 0-3.006-0.619-4.085-1.697"/></g><g transform="translate(489.4 155.59)" fill="#4d6e15"><path fill="#4d6e15" d="m1.2315-0.92361c1.74 0 2.297-1.309 2.634-2.737-1.578-0.511-3.507-0.999-5.194-1.312 0.016 0.619 0.213 4.049 2.56 4.049m-3.379-0.405c-1.218-1.218-1.862-2.915-1.862-4.906 0-3.415 2.416-5.8014 5.873-5.8014 2.633 0 4.303 1.312 4.373 1.368l0.031 0.023-0.015 0.037c-0.067 0.169-0.438 1.0074-1.046 0.8124-0.687-0.3314-1.381-0.4914-2.126-0.4914-2.924 0-4.022 2.3944-4.219 3.8444 1.895 0.447 4.711 1.198 7.49 2.564 0-0.001 0.06 0.028 0.06 0.028 0.001 0 0.157 0.079 0.157 0.079l-0.056 0.235c-0.189 0.785-0.468 1.69-1.098 2.451-0.797 0.96499-1.967 1.454-3.477 1.454-1.517-0.00001-3.006-0.61901-4.085-1.697"/></g><g transform="translate(514.73 154.66)" fill="#4d6e15"><path fill="#4d6e15" d="m0 0c1.74 0 2.297-1.309 2.633-2.737-1.578-0.511-3.507-0.999-5.193-1.312 0.016 0.619 0.213 4.049 2.56 4.049m-3.379-0.405h-0.001c-1.217-1.218-1.861-2.914-1.861-4.906 0-3.415 2.415-5.801 5.873-5.801 2.632 0 4.303 1.312 4.373 1.368l0.03 0.023-0.014 0.037c-0.068 0.169-0.438 1.007-1.046 0.813-0.687-0.332-1.381-0.492-2.126-0.492-2.924 0-4.022 2.394-4.219 3.843 1.894 0.447 4.711 1.199 7.49 2.565-0.001-0.001 0.059 0.028 0.059 0.028s0.159 0.079 0.159 0.079l-0.057 0.235c-0.189 0.785-0.466 1.688-1.098 2.451-0.797 0.965-1.967 1.454-3.478 1.454-1.517 0-3.006-0.619-4.084-1.697"/></g><g transform="translate(514.73 154.66)" fill="#4d6e15"><path fill="#4d6e15" d="m0 0c1.74 0 2.297-1.309 2.633-2.737-1.578-0.511-3.507-0.999-5.193-1.312 0.016 0.619 0.213 4.049 2.56 4.049m-3.379-0.405h-0.001c-1.217-1.218-1.861-2.914-1.861-4.906 0-3.415 2.415-5.801 5.873-5.801 2.632 0 4.303 1.312 4.373 1.368l0.03 0.023-0.014 0.037c-0.068 0.169-0.438 1.007-1.046 0.813-0.687-0.332-1.381-0.492-2.126-0.492-2.924 0-4.022 2.394-4.219 3.843 1.894 0.447 4.711 1.199 7.49 2.565-0.001-0.001 0.059 0.028 0.059 0.028s0.159 0.079 0.159 0.079l-0.057 0.235c-0.189 0.785-0.466 1.688-1.098 2.451-0.797 0.965-1.967 1.454-3.478 1.454-1.517 0-3.006-0.619-4.084-1.697"/></g><g transform="translate(525.8 154.66)" fill="#4d6e15"><path fill="#4d6e15" d="m0 0c1.739 0 2.297-1.309 2.632-2.737-1.577-0.511-3.506-0.999-5.192-1.312 0.016 0.619 0.213 4.049 2.56 4.049m-3.38-0.405c-1.217-1.218-1.862-2.915-1.862-4.906 0-3.415 2.416-5.801 5.874-5.801 2.633 0 4.303 1.312 4.373 1.368l0.029 0.023-0.013 0.037c-0.068 0.169-0.437 1.007-1.046 0.813-0.688-0.332-1.381-0.492-2.127-0.492-2.923 0-4.022 2.394-4.218 3.844 1.894 0.446 4.71 1.198 7.49 2.564-0.001-0.001 0.059 0.028 0.059 0.028l0.158 0.079-0.056 0.235c-0.188 0.785-0.467 1.688-1.098 2.451-0.797 0.965-1.967 1.454-3.478 1.454-1.516 0-3.006-0.619-4.085-1.697"/></g><g transform="translate(525.8 154.66)" fill="#4d6e15"><path fill="#4d6e15" d="m0 0c1.739 0 2.297-1.309 2.632-2.737-1.577-0.511-3.506-0.999-5.192-1.312 0.016 0.619 0.213 4.049 2.56 4.049m-3.38-0.405c-1.217-1.218-1.862-2.915-1.862-4.906 0-3.415 2.416-5.801 5.874-5.801 2.633 0 4.303 1.312 4.373 1.368l0.029 0.023-0.013 0.037c-0.068 0.169-0.437 1.007-1.046 0.813-0.688-0.332-1.381-0.492-2.127-0.492-2.923 0-4.022 2.394-4.218 3.844 1.894 0.446 4.71 1.198 7.49 2.564-0.001-0.001 0.059 0.028 0.059 0.028l0.158 0.079-0.056 0.235c-0.188 0.785-0.467 1.688-1.098 2.451-0.797 0.965-1.967 1.454-3.478 1.454-1.516 0-3.006-0.619-4.085-1.697"/></g><g transform="translate(502 154.63)" fill="#4d6e15"><path fill="#4d6e15" d="m0 0c3.056 0 3.386-3.219 3.386-4.603 0-1.827-0.44-4.891-3.386-4.891-0.797 0-1.67 0.32-2.286 0.834v7.827c0.615 0.514 1.489 0.833 2.286 0.833m-6.34 6.547v-0.671c0-0.691 0.461-0.755 0.738-0.795 0.317-0.045 0.529-0.075 0.529-0.805v-15.339h0.815s1.302 1.125 1.345 1.161c1.054-0.716 2.424-1.161 3.583-1.161 3.451 0 5.861 2.628 5.861 6.389 0 3.677-2.342 6.244-5.695 6.244-1.099 0-2.176-0.276-3.122-0.793v5.879l-4.054-0.109z"/></g><g transform="translate(458.36 155.08)" fill="#4d6e15"><path fill="#4d6e15" d="m0 0v0.869l-3.839-0.11v-0.719c0-0.601 0.431-0.69 0.689-0.744l0.1-0.02c0.17-0.043 0.382-0.096 0.382-0.788v-12.352c0-0.724-0.213-0.752-0.534-0.794-0.283-0.038-0.756-0.1-0.756-0.807v-0.677h5.487v0.677c0 0.739-0.512 0.78-0.818 0.803-0.357 0.028-0.592 0.046-0.592 0.798v3.21l0.004 1.526s-0.004 7.81-0.004 7.849c0.616 0.515 1.489 0.833 2.286 0.833 3.056 0 3.386-3.219 3.386-4.603 0-1.827-0.44-4.891-3.386-4.891-0.316 0-0.647 0.051-0.983 0.15-0.015 0.004-0.144 0.046-0.144 0.046-0.211 0.056-0.372 0.03-0.484-0.073-0.235-0.221-0.189-0.75-0.11-1.157l0.004-0.02 0.02-0.008c0.705-0.295 1.453-0.456 2.353-0.506 1.61 0 3.019 0.559 4.076 1.616 1.161 1.161 1.799 2.855 1.799 4.773 0 3.676-2.341 6.243-5.694 6.243-1.528 0-2.532-0.591-3.242-1.124"/></g><g transform="translate(458.36 155.08)" fill="#4d6e15"><path fill="#4d6e15" d="m0 0v0.869l-3.839-0.11v-0.719c0-0.601 0.431-0.69 0.689-0.744l0.1-0.02c0.17-0.043 0.382-0.096 0.382-0.788v-12.352c0-0.724-0.213-0.752-0.534-0.794-0.283-0.038-0.756-0.1-0.756-0.807v-0.677h5.487v0.677c0 0.739-0.512 0.78-0.818 0.803-0.357 0.028-0.592 0.046-0.592 0.798v3.21l0.004 1.526s-0.004 7.81-0.004 7.849c0.616 0.515 1.489 0.833 2.286 0.833 3.056 0 3.386-3.219 3.386-4.603 0-1.827-0.44-4.891-3.386-4.891-0.316 0-0.647 0.051-0.983 0.15-0.015 0.004-0.144 0.046-0.144 0.046-0.211 0.056-0.372 0.03-0.484-0.073-0.235-0.221-0.189-0.75-0.11-1.157l0.004-0.02 0.02-0.008c0.705-0.295 1.453-0.456 2.353-0.506 1.61 0 3.019 0.559 4.076 1.616 1.161 1.161 1.799 2.855 1.799 4.773 0 3.676-2.341 6.243-5.694 6.243-1.528 0-2.532-0.591-3.242-1.124"/></g><g transform="translate(471.2 155.08)" fill="#4d6e15"><path fill="#4d6e15" d="m0 0v0.869l-3.839-0.11v-0.719c0-0.601 0.43-0.69 0.688-0.744l0.101-0.02c0.17-0.043 0.381-0.096 0.381-0.788v-12.352c0-0.724-0.212-0.752-0.533-0.794-0.284-0.038-0.757-0.101-0.757-0.807v-0.677h5.488v0.677c0 0.739-0.513 0.78-0.819 0.803-0.356 0.028-0.591 0.046-0.591 0.798v3.21l0.004 1.526s-0.004 7.81-0.004 7.849c0.615 0.515 1.489 0.833 2.286 0.833 3.056 0 3.385-3.219 3.385-4.603 0-1.827-0.439-4.891-3.385-4.891-0.317 0-0.647 0.051-0.984 0.15-0.016 0.005-0.027 0.009-0.027 0.009-0.002 0.001-0.117 0.037-0.117 0.037-0.21 0.056-0.372 0.03-0.484-0.073-0.234-0.221-0.189-0.75-0.109-1.157l0.003-0.02 0.02-0.008c0.706-0.295 1.453-0.456 2.353-0.506 1.61 0 3.02 0.559 4.077 1.616 1.16 1.16 1.799 2.855 1.799 4.773 0 3.676-2.341 6.243-5.694 6.243-1.529 0-2.532-0.591-3.242-1.124"/></g><g transform="translate(471.2 155.08)" fill="#4d6e15"><path fill="#4d6e15" d="m0 0v0.869l-3.839-0.11v-0.719c0-0.601 0.43-0.69 0.688-0.744l0.101-0.02c0.17-0.043 0.381-0.096 0.381-0.788v-12.352c0-0.724-0.212-0.752-0.533-0.794-0.284-0.038-0.757-0.101-0.757-0.807v-0.677h5.488v0.677c0 0.739-0.513 0.78-0.819 0.803-0.356 0.028-0.591 0.046-0.591 0.798v3.21l0.004 1.526s-0.004 7.81-0.004 7.849c0.615 0.515 1.489 0.833 2.286 0.833 3.056 0 3.385-3.219 3.385-4.603 0-1.827-0.439-4.891-3.385-4.891-0.317 0-0.647 0.051-0.984 0.15-0.016 0.005-0.027 0.009-0.027 0.009-0.002 0.001-0.117 0.037-0.117 0.037-0.21 0.056-0.372 0.03-0.484-0.073-0.234-0.221-0.189-0.75-0.109-1.157l0.003-0.02 0.02-0.008c0.706-0.295 1.453-0.456 2.353-0.506 1.61 0 3.02 0.559 4.077 1.616 1.16 1.16 1.799 2.855 1.799 4.773 0 3.676-2.341 6.243-5.694 6.243-1.529 0-2.532-0.591-3.242-1.124"/></g><g transform="translate(532.56 152.31)" fill="#4d6e15"><path fill="#4d6e15" d="m0 0c0-2.312 2.032-2.981 3.826-3.572 1.537-0.506 2.988-0.983 2.988-2.394 0-1.436-1.648-1.956-2.756-1.956-1.132 0-1.682 0.272-1.682 0.833 0 0.09 0.029 0.2 0.06 0.307 0.032 0.114 0.065 0.233 0.065 0.342 0 0.776-0.894 1.188-1.539 1.188-0.755 0-1.536-0.519-1.536-1.388 0-1.861 3.171-2.461 4.707-2.461 2.524 0 5.207 1.405 5.207 4.009 0 2.396-2.127 3.087-4.003 3.697-1.575 0.514-2.937 0.955-2.937 2.244 0 1.097 1.282 1.681 2.207 1.681 0.371 0 1.233-0.057 1.233-0.584l-0.051-0.524c0-0.755 0.754-1.163 1.464-1.163 0.738 0 1.487 0.442 1.487 1.288 0 1.71-2.442 2.161-3.733 2.161-2.08 0-5.007-1.15-5.007-3.708"/></g><g transform="translate(484.21 146.34)" fill="#4d6e15"><path fill="#4d6e15" d="m0 0c0-2.02 1.472-0.663 1.472-1.933v-0.882h-5.772v0.882c0 1.299 1.529-0.115 1.529 1.933v12.076c0 2.048-1.529 0.634-1.529 1.933v0.88l4.3 0.117v-15.006z"/></g><g transform="translate(530.66 158.16)" fill="#4d6e15"><path fill="#4d6e15" d="m0 0c0-0.544 0.458-1.001 1.003-1.001 0 0 0.141 0.014 0.212 0.022-0.001-0.512-0.18-1.132-0.641-1.67l-0.075-0.09 0.372-0.372 0.089 0.091c0.837 0.837 1.262 1.692 1.262 2.538 0 0.722-0.369 1.497-1.176 1.497-0.587 0-1.046-0.447-1.046-1.015"/></g><g transform="translate(445.17 159.95)" fill="#4d6e15"><path fill="#4d6e15" d="m0 0c0.012-0.035 0.026-0.072 0.026-0.072 0.548-1.619 1.625-4.773 2.705-7.793h-5.501c0.044 0.124 2.699 7.662 2.77 7.865m0.103 5.186v0.001l-0.136-0.096c0.001 0.001-0.133-0.089-0.133-0.089-0.548-0.357-1.082-0.745-1.082-1.217 0-0.271 0.135-0.645 0.225-0.892 0 0 0.025-0.07 0.034-0.095-0.013-0.036-5.182-14.671-5.182-14.671-0.689-1.934-1.279-2.138-1.67-2.272-0.286-0.1-0.643-0.223-0.643-0.983v-0.868h5.183v0.868c0 0.806-0.371 0.978-0.751 1.086-0.345 0.096-0.503 0.141-0.503 0.604 0 0.42 0.273 1.204 0.42 1.625l0.014 0.043s0 0.001 0.446 1.335c0 0 0.137 0.413 0.155 0.466h7.012c0.02-0.053 0.491-1.338 0.491-1.338 2.523-5.729 7.991-4.931 8.049-4.922l0.035 0.005-0.071 2.135c-3.621 0-4.303 2.422-6.293 7.87l-1.616 4.458-2.439 6.802c-0.04 0.112-0.254 0.661-0.56 0.684-0.13 0.01-0.246-0.012-0.985-0.539"/></g><g transform="translate(542.59 154.54)" fill="#4d6e15"><path fill="#4d6e15" d="m0 0c0-0.164 0.128-0.228 0.273-0.228 0.095 0 0.24 0.028 0.24 0.154 0 0.133-0.185 0.155-0.366 0.204-0.183 0.048-0.368 0.119-0.368 0.35 0 0.252 0.238 0.373 0.461 0.373 0.258 0 0.494-0.112 0.494-0.397h-0.262c-0.009 0.149-0.114 0.187-0.244 0.187-0.086 0-0.187-0.037-0.187-0.14 0-0.095 0.059-0.107 0.368-0.187 0.09-0.022 0.367-0.079 0.367-0.359 0-0.226-0.178-0.396-0.513-0.396-0.273 0-0.529 0.135-0.526 0.439h0.263z"/></g><g transform="translate(543.52 155.36)" fill="#4d6e15"><path fill="#4d6e15" d="m0 0h0.382l0.288-0.848h0.004l0.273 0.848h0.381v-1.233h-0.254v0.874h-0.003l-0.303-0.874h-0.208l-0.303 0.865h-0.003v-0.865h-0.254v1.233z"/></g><g transform="translate(470.66 159.67)"><path fill="#b20c35" d="m0 0c-1.722-0.47-2.859 0.08-4.09-0.007-1.366-0.098-1.874-0.616-4.229-0.691-2.472 0.021-4.338 1.475-5.457 3.789-2.355 4.866-1.832 9.076-1.302 11.322 0.778 3.296 2.482 4.963 5.558 4.412 1.79-0.321 3.305-1.467 5.382-1.727 1.03-0.128 2.142 0.102 3.442 0.418 1.002 0.244 1.905 0.274 2.798 0.064 1.421-0.333 2.365-0.924 3.096-2.498 1.413-3.042 1.368-7.115-1.403-11.624-0.981-1.597-2.344-3.062-3.795-3.458"/></g><g transform="translate(466.08 181.56)"><path fill="#deec4e" d="m0 0s-0.065 1.325 0.742 2.808c0.806 1.483 2.599 2.465 3.776 2.671s1.901 0.33 2.293 0.796c0.312 0.369 0.566 0.225 0.558-0.145-0.007-0.257-0.1-0.92-0.196-1.546-0.097-0.627-0.398-2.137-1.061-3.165-0.993-1.543-2.322-1.909-3.472-2.022-1.127-0.11-2.091 0.307-2.64 0.603"/></g></g><g transform="translate(1.2315 -.92361)"><path d="m472.02 188.95c-0.17-0.74-0.83-2.35-3.01-4.14-2.41-1.98-4.16-2.33-4.16-2.33 0.55-0.29 1.51-0.71 2.64-0.6 1.15 0.12 2.48 0.48 3.47 2.02 0.67 1.03 0.97 2.54 1.06 3.17 0.1 0.63 0.19 1.29 0.2 1.55 0 0.18-0.08 0.3-0.19 0.33h-0.01z" fill="url(#a)"/></g><g transform="translate(1.2315 -.92361)"><g clip-path="url(#b)"><g transform="translate(468.4 163.75)"><path fill="#ee2622" d="m0 0c-1.702-0.222-2.694 0.507-3.88 0.431-1.317-0.084-1.868-0.511-4.137-0.576-2.384 0.018-4.182 1.034-5.261 3.041-2.269 4.221-1.998 8.124-1.282 10.024 0.836 2.219 2.102 3.589 3.879 3.922 2.89 0.542 3.869-0.898 6.473-1.554 1.144-0.288 2.087-0.327 3.205-0.056 1.565 0.38 2.181 0.442 3.065 0.285 1.469-0.263 2.45-1.267 2.994-2.435 1.252-2.692 1.427-6.611-1.073-10.229-0.954-1.381-2.612-2.717-3.983-2.853m6.254 13.528c-0.898 2.136-2.345 3.399-4.251 3.688-1.257 0.19-1.99-0.276-3.242-0.435-0.837-0.106-1.6-0.096-2.38 0.18-1.983 0.702-3.518 2.1-5.576 2.383-2.597 0.357-4.767-1.704-5.646-3.039-2.074-3.153-2.049-9.235 0.234-14.104 0 0 0.513-0.982 0.806-1.453 0.904-1.455 2.462-3.11 5.572-3.262 2.27 0.066 3.479 0.753 4.385 0.849 0.875 0.094 2.045-0.542 3.9-0.246 2.324 0.371 4.988 4.289 4.988 4.289 1.956 2.959 2.892 7.146 1.21 11.15"/></g><g transform="translate(460.16 177.27)"><path fill="#fff" d="m0 0s-2.398-0.876-3.227-3.733c-0.857-2.955-1.941 3.029 3.227 3.733"/></g></g></g></g></svg>
