<?xml version="1.0" encoding="UTF-8" standalone="no"?>
<svg xmlns="http://www.w3.org/2000/svg" version="1.1" viewBox="0 0 707.5 747.5" xmlns:xlink="http://www.w3.org/1999/xlink">
<defs>
<radialGradient id="a" gradientTransform="matrix(3.6141 -2.7012 -1.6681 -2.2319 548.51 1223.6)" gradientUnits="userSpaceOnUse" cy="390.01" r="35.059" cx="35.818">
<stop stop-color="#fff" offset="0"/>
<stop stop-color="#919191" offset="1"/>
</radialGradient>
<linearGradient id="b" x1="483.48" gradientUnits="userSpaceOnUse" x2="478.44" y2="240.38" y1="445.67" gradientTransform="matrix(1.25,0,0,-1.25,0,747.5)">
<stop stop-color="#999" offset="0"/>
<stop stop-color="#d7d7d7" offset="1"/>
</linearGradient>
</defs>
<path fill="#43565c" d="m291.08 257.74c-20.834-28.206-45.638-44.029-71.176-56.746-4.1375-2.06-8.3-4.0412-12.475-5.9838 12.098 4.7612 23.788 10.2 42.472 20.858 20.495 11.69 38.915 36.626 50.554 53.866 1.4438 2.1388 2.91 4.28 4.3838 6.4138-4.5325-5.8825-9.0812-12.074-13.759-18.408"/>
<path fill="#657681" d="m84.588 303.4c0.75538 6.36 1.8012 13.944 3.2422 22.28 50.94 170.37 110.21 183.02 255.87 189.47 113.15 5.0062 177.92-23.074 216.07-58.236 38.179-35.192 49.911-77.67 56.595-102 4.8025-17.484 7.9825-34.366 9.3812-51.501l81.11-0.005c-3.2925 55.028-20.591 108.29-57.149 155.43-45.202 55.674-115.88 81.28-177.03 92.922-61.189 11.648-113.12 9.3762-121.09 9.1238-7.9562-0.2525-37.052 0.15875-72.9-2.9475-35.86-3.1-78.58-9.73-113.7-24.13-15.48-6.34-28.85-12.85-40.61-19.7-31.818-19.16-61.235-47.04-75.618-67.5-18.055-25.69-39.73-70.69-45.929-143.18l81.765-0.007zm265.12 0c2.48 3.435 4.4238 5.44 5.4775 5.7112 0.625-0.11375 1.35-0.62625 2.4188-1.9112 0.83125-0.99875 1.7375-2.2975 2.6975-3.795l70.83-0.005c-12.23 9.1612-22.819 19.64-32.782 32.188-16.282 20.504-25.596 40.671-28.572 50.496-3.0988 10.228-8.9925 18.848-9.9088 20.126-1.0875 1.5188-6.0788 2.8125-7.75-0.095-1.72-1.5375-3.4738-4.705-5.0775-8.8512-2.095-5.41-4.71-13.876-9.9888-24.522-5.2525-10.591-13.161-23.372-25.87-37.475-10.972-12.175-22.385-22.849-34.044-31.861l72.57-0.005" fill-rule="evenodd"/>
<path fill="#657681" d="m2.8232 303.4c-1.1167-13.056-1.731-27.012-1.731-41.91v-0.465l0.00195-0.45125 0.00195-0.4525 0.00342-0.45125c0.55126-68.742 32.117-131.08 55.118-157.9 3.161-3.684 14.764-16.995 24.786-26.429 28.806-27.116 106.71-78.546 280.34-73.842 98.74 0.2285 158.88 13.206 199.57 30.859 20.35 8.83 35.81 18.818 48.77 28.931 12.92 10.073 23.36 20.273 33.74 29.581l0.2775 0.25 0.1175 0.35375c0.0662 0.2 49.152 59.254 60.282 142.84 3.0788 23.128 4.1238 46.26 2.7588 69.088l-81.11 0.006c1.4262-17.491 0.995-35.25-1.465-54.181-1.7288-9.8575-3.5375-17.74-4.8438-22.926 0.28625-0.19375-1.7475 1.5688-1.7475 1.5688s-14.4 8.92-84.148 29.936c-46.376 13.974-77.734 27.11-102.41 45.6l-70.83 0.002c0.1975-0.30375 0.3975-0.62125 0.6-0.94625 2.3862-3.8325 4.9375-8.515 7.2938-12.352 5.2062-8.4762 21.015-30.996 43.49-52.062 21.94-20.565 74.6-44.788 113.51-59.241 7.1312-2.65 13.595-5.24 19.395-7.705 16.011-7.3825 31.861-16.75 46.072-26.121-0.93125-3.6325-1.985-5.9638-2.5512-7.1412 0 0-0.6825-1.7712-2.27-4.755-1.6175-3.0412-4.1825-7.37-7.97-12.521-7.59-10.33-20.09-23.974-39.76-37.209-9.14-6.31-22.38-13.306-39.71-20.986-34.5-14.167-81.56-24.659-145.28-24.659-98.71 0-156.44 24.894-189.46 49.639-16.515 12.378-26.876 24.739-33.1 33.98-3.1038 4.6088-5.1838 8.4488-6.4869 11.138-1.2754 2.6312-3.1768 6.4088-3.1768 6.4088-1.8774 5.2538 0.254 7.4938 4.0875 9.9862 7.7549 5.0412 19.377 11.97 21.511 13.238 9.4225 4.6775 22.406 10.529 39.008 16.696 38.91 14.454 91.57 38.676 113.51 59.241 22.501 21.09 37.224 44.035 42.402 52.468 2.3488 3.8225 5.1188 8.4075 7.7412 12.135 0.18375 0.2625 0.36625 0.5175 0.545 0.765l-72.57-0.006c-15.428-11.922-31.284-20.94-47.11-26.678-28.03-10.161-56.761-16.465-69.375-20.32-6.0125-1.8375-13.251-4.1425-19.189-6.0538-4.1238-1.3288-7.6312-2.4712-9.6512-3.1312l-1.51-0.53c-13.634-4.755-27.607-10.758-40.781-18.384-0.51312-0.2975-0.83488-0.365-1.0092-0.37125-0.15038-0.006-0.25775 0.0275-0.37738 0.10625-0.14412 0.0937-0.3145 0.2575-0.52588 0.535-0.23888 0.315-0.44975 0.65625-0.65875 0.97-0.76025 1.1412-3.7421 25.444-4.2456 54.17 0.05962-0.001 0.44875 7.635 1.8804 19.679l-81.765-0.004" fill-rule="evenodd"/>
<path fill="#ccc" d="m85.722 322.97c51.388 174.27 111.17 187.26 258.13 193.76 226.83 10.04 260.7-112.56 274.08-161.27 14.765-53.756 6.5-124.05 6.5-124.05l23.036 78.564-45.482 147.68-63.796 47.26-67.93 20.68-108.69 12.4-138.81-12.4-78.56-39.58-39.58-56.71-15.356-53.75s-6.4995-38.394-3.542-52.575z"/>
<path fill="#666" d="m620.32 213.07s24.824 102.79-14.79 184.92c-39.61 82.14-77.3 132.31-253.38 132.91-176.07 0.59-212.64-72.7-239.84-123.46-27.203-50.77-30.698-123.46-30.698-123.46l-3.2012 85.388 50.399 94.782 41.991 38.426 59.611 25.942 159.5 10.035 70.311-10.035 74.995-18.88 71.499-59.684 28.32-102.2-2.9012-113.35c-4.4-17.404-8.34-24.514-11.818-21.329z"/>
<path fill="#808080" d="m50.399 159.23 16.34 10.711s-2.5586 118.92-3.0699 120.93c-0.51212 2.0125 0 66.318 0 66.318l20.911 81.601-9.1764 7.675-44.38-117.35 4.604-96.92 9.177-60.72 5.594-12.25z"/>
<path fill="url(#b)" d="m625.14 216.21s25.2 105.5-12.918 187.03c-38.11 81.53-65.59 122.68-251.97 130.02-151.18 3.79-190.48-35.57-218.43-64.214-22.102-22.658-37.479-60.566-37.479-60.566s-68.232-126.25-61-86.424c9.4751 52.184 24.6 126.96 83.368 173.9 35.999 28.75 108.6 46.47 108.6 46.47l113.71 8.9988 101.75-6.0338 160.93-62.048 68.821-150.46c-3.2-69.94-9.94-127.79-20.21-173.55l-22.446 19.378-12.72 37.495z"/>
<path fill="url(#a)" d="m57.188 114.13s-2.9659 31.725 4.1289 50.351c-9.5859 15.352-22.21 61.339-23.847 98.282-1.6372 36.945 5.2651 133.35 52.886 188.38-7.9488 15.044-12.686 24.308-12.686 24.308s-74.961-50.884-74.961-213.78c0-78.56 42.322-149.15 64.768-167.78-6.8574 9.5862-10.29 20.244-10.29 20.244z"/>
<path fill="#121113" d="m8.0967 292.95s2.1538 78.93 31.654 129 56.116 82.091 125.97 110.72c69.858 28.632 170.22 26.479 186.12 26.982 15.896 0.50375 207.19 9.0688 296.98-101.52 51.441-66.332 64.819-144.9 54.099-223.46-10.719-78.565-50.572-124.47-50.572-124.47s5.5425 14.246-1.0088 53.598c9.7125 16.905 25.47 73.022 22.448 117.92-3.0238 44.894-11.262 105.79-45.396 153.46-21.942 30.648-39.35 52.086-87.266 74.534-47.915 22.446-121.3 33.67-187.63 32.662-66.33-0.99-130.14-6.17-183.73-30.63-53.6-24.46-82.094-61.66-102.52-91.3-20.435-29.64-4.678-14.61-29.643-39.21s-29.5-88.28-29.5-88.28"/>
<path fill="#c9cdd1" d="m58.746 101.51s69.209-104.75 302.77-98.428c197.3 0.45375 239.77 51.861 281.18 89.014 0.89625 2.71-16.404 16.738-16.404 16.738l-28.41 10.67-81.35-63.86-144.5-31.502s-135.99 16.099-141.64 15.402c-5.65-0.69625-94.738 49.074-94.738 49.074l-16.66 51.076-52.772-39.852-7.482 1.672"/>
<path fill="#e6e6e6" d="m71.138 93.558s63.338-94.725 290.17-88.58c191.62 0.44 238.17 55.302 278.39 91.386-12.83 10.958-26.338 9.4238-26.338 9.4238l-22.48 12.25-79-62.019-140.35-30.595s-132.08 15.636-137.56 14.959c-5.49-0.676-92.01 47.661-92.01 47.661l-45.908 28.524-27.72-16.699 2.806-6.313z"/>
<path fill="#808080" d="m71.138 104.08s76.457-85.579 280.58-85.579 278.7 69.101 286.53 79.539c-8.8688 11.405-24.889 23.578-24.889 23.578-52.3-32.861-101.4-58.818-147.31-77.865l-123.45-18.239s-145.9 33.67-148.71 33.67c-2.805 0-78.561 53.311-78.561 53.311s-6.1954 10.422-11.956 9.1325c-15.689-12.71-32.232-17.55-32.232-17.55z"/>
<path fill="#2a2e33" d="m589.52 137.46s-38.286-100.97-236.19-100.97-232.16 99.838-232.16 99.838l-9.462-16.576 33.669-46.068 89.198-40.785 61.952-9.4725 59.152-2.925 75.824 4.1225 59.705 12.72 82.406 41.692 44.639 35.375 3.1888 3.5788-31.919 19.468"/>
<path fill="#b3b3b3" d="m583.93 153.1s-19.102 12.735-58.032 27.195c-38.929 14.461-91.331 38.604-113.04 58.95-22.368 20.965-38.1 43.384-43.254 51.775-5.1538 8.39-11.244 20.828-14.481 19.614-0.40375 7.1775-2.0225 50.046-2.0225 50.046l2.4275 1.6188 20.422-35.289 67.744-73.709 30.836-32.861 105.05-50.154 4.345-17.186z"/>
<path fill="#121113" d="m522.02 182.87c-12.645 5.5438-71.98 24.245-101.36 60.14-10.019 12.238-27.586 44.465-32.384 52.261-4.7975 7.7975-28.015 57.489-33.67 64.342-5.6538 6.855 30.158-28.958 30.158-28.958s97.151-86.361 99.294-87.646c2.1425-1.285 36.668-32.385 36.668-32.385s11.222-32.106 1.2988-27.755"/>
<path fill="#333" d="m645.97 105.33s-50.889 44.895-102.72 68.198c-51.83 23.3-116.48 45.59-155.19 130.74-29.43 51.93 45.96-46.61 45.96-46.61l39.66-28.44 92.02-41.04 47.03-30.16 33.24-52.69z"/>
<path fill="#e6e6e6" d="m646.83 104.47s-36.209 36.459-87.214 65.199c-16.878 9.51-61.755 29.164-82.416 40.096-45.519 24.086-69.052 66.485-76.42 75.138-7.3675 8.6538-45.32 76.851-45.32 76.851l16.362-3.5125 63.055-83.276 51.319-31.1 117.03-36.67 38.381-31.958s9.2988 4.7162 12.08-38.81c1.7138-26.818-6.855-31.958-6.855-31.958z"/>
<path fill="#333" d="m560.74 247.53-77.5 24.9-43.5 17.89-55.06 41.04s-12.978 23.149-14.029 28.059c-1.0525 4.91-9.1188 31.566-9.1188 31.566l-1.0525 8.7688-2.8062 3.5062-2.455-15.782 1.385-21.539 10.75-19.89 12.416-21.352 23.148-24.902 31.915-18.94 54.011-16.835 44.892-11.574 27.005-4.91z"/>
<path fill="#999" d="m617.07 226.91s-14.255 8.7962-83.718 29.726c-69.462 20.93-105.56 40.062-135.89 78.261-16.38 20.628-25.784 40.951-28.816 50.961-3.0325 10.01-8.8238 18.484-9.7062 19.718-0.91 1.27-5.5888 1.8125-5.6488-0.9175-0.0213-0.94 4.01 2.5512 5.375-7.4875-0.0437-11.644 1.0238-32.254 7.8575-44.376 9.4025-16.685 23.659-36.705 46.711-50.355 23.054-13.65 52.779-25.479 72.191-32.456 19.414-6.9775 67.945-20.324 88.875-27.908 20.929-7.5838 47.318-19.111 47.318-19.111l-4.5488 3.945z"/>
<path fill="#b3b3b3" d="m357.18 364.32s1.1262 31.982 0 35.36c-1.125 3.3775-6.7188-1.69-6.7188-1.69l-22.729-53.02-31.98-33.108-48.551-30.329-21.32-8.4088-34.232-10.661-14.038-4.2212-2.815-8.1275 71.561 17.416 53.582 28.04 27.511 25.825 20.476 28.041 9.2525 14.882z"/>
<path fill="#ccc" d="m127.2 153.1s19.102 12.735 58.031 27.195c38.93 14.461 91.332 38.604 113.04 58.95 22.368 20.965 37.014 43.788 42.166 52.179 5.1538 8.3912 12.331 20.424 15.569 19.21 0.40375 7.1775 2.0225 50.046 2.0225 50.046l-2.43 1.62-20.42-35.29-67.75-73.71-30.83-32.86-105.06-50.15-4.34-17.19z"/>
<path fill="#e6e6e6" d="m348.63 350.28-27.766-34.668-50.424-43.27-160.2-62.501-48.831-44.142s-11.409-37.424-4.2631-51.319c-0.25588-4.36 7.877-27.038 10.909-19.976 8.2705 8.4112 18.229 20.9 52.179 43.066-2.9272 6.89-0.19037 9.905 4.2021 12.761 8.5865 5.5812 21.904 13.472 21.904 13.472l28.6 15.772 55.681 28.069 29.478 18.584 28.83 30.365 21.568 26.632 23.325 30.365 23.882 47.658-9.0712-10.869z"/>
<path fill="#1a1a1a" clip-rule="evenodd" d="m115.09 429.68c-12.36-8.67-27.881-15.86-43.022-25.56-12.172-7.8-21.754-40.1-26.519-66.96-16.967-95.66 16.553-165.99 16.553-165.99s0.5875-1.655-0.0595-2.2462c-2.4341-2.2262-0.6875-6.2338 3.1386-3.6912 42.8 28.44 53.769 28.686 87.294 44.322 48.011 22.391 98.344 22.182 151.74 75.998 25.416 25.616 50.675 76.054 53.605 75.425-0.21 5.0238-0.97 28.742-0.97 28.742s1.355-22.815-5.9188-34.26c-29.501-46.414-72.72-65.722-72.72-65.722s-37.226-19.384-95.568-30.608c-25.151-4.8388-60.976-13.765-92.201-31.842-2.5835-1.495-3.5425 0.3275-4.4419 1.6775-1.6988 2.55-8.4258 66.846-1.4516 108.2 6.4736 38.386 15.349 59.156 30.538 92.52z"/>
<path fill="#3c444b" d="m68.401 94.651s18.754 22.211 50.787 42.922c-13.4-4.97-19.394-5.74-31.5-14.97-8.128-6.2-19.289-27.949-19.289-27.949"/>
<path fill="#121113" d="m642.24 93.676s-14.88 16.022-24.85 23.486c-9.97 7.4638-26.682 19.694-26.682 19.694l30.442-15.05 21.09-28.13"/>
<path fill="#1a1a1a" d="m92.71 114.61s26.838-37.176 71.73-58.958c44.892-21.781 74.836-26.439 102.56-30.52 26.625-3.92 80.576-4.9388 84.818-5.0138h0.265c4.3662 0.0725 61.395 1.09 88.049 5.0138 27.725 4.0812 57.899 7.85 102.79 29.631 44.892 21.781 76.508 60.926 76.508 60.926s-11.262 2.6462-18.139 8.28c-6.8762 5.6338-9.46 3.0912-9.46 3.0912s-0.6125-15.556-21.505-38.314c-20.895-22.758-53.186-36.2-94.974-51.149-40.396-14.452-118.14-14.935-123.27-14.95h-0.265c-4.9975 0.01625-79.662 0.50375-120.04 14.95-41.788 14.949-66.096 32.118-86.99 54.875-20.893 22.758-25.24 45.825-25.24 45.825s-6.8311-8.695-13.707-14.329c-6.8759-5.6338-13.131-9.36-13.131-9.36z"/>
<path fill="#3c444b" d="m304.76 276.2c-4.3775-5.9925-8.9275-12.184-13.606-18.518-20.845-28.224-45.664-44.054-71.209-56.775-4.1388-2.06-8.3012-4.0412-12.478-5.985 12.019 4.9338 23.705 10.371 42.386 21.026 20.472 11.678 38.881 36.595 50.522 53.838 1.4425 2.1388 2.9088 4.28 4.3838 6.4138zm-242.18-170.38c3.6568 4.0462 32.571 28.445 80.164 59.491 48.63 31.721 105.21 38.616 146.16 94.061 31.894 43.184 35.168 38.571 63.896 91.949-5.3362-15.231-10.971-25.836-18.192-37.145-7.22-11.31-20.291-28.779-31.9-45.975-11.609-17.195-30.344-42.664-51.461-54.709-21.118-12.045-33.364-17.469-47.166-22.988-13.804-5.5175-36.29-14.252-58.045-26.665-21.754-12.414-59.141-37.976-83.455-58.02" fill-rule="evenodd"/>
<path fill="#1a1a1a" d="m359.15 361.52c21.511-46.579 42.274-73.328 85.389-104.52 24.951-18.051 42.956-21.378 71.43-32.675 18.86-7.485 30.191-9.885 48.984-17.538 34.344-13.988 49.645-20.87 84.974-42.662 2.455 8.325-15.812 41.014-28.859 60.2-36.708 16.169-66.256 25.142-110.22 35.434-26.374 6.1738-45.775 12.55-72.575 23.382-44.88 18.16-57.87 40.5-79.11 78.39z"/>
<path fill="#ccc" d="m347.16 359.42c6.9662 13.768 10.171 25.955 10.171 38.23 0 12.276-4.56 10.171-8.7688-0.70125s-10.521-34.021-36.124-62.431c-25.602-28.409-53.66-48.751-81.718-58.924-28.058-10.17-56.818-16.484-69.444-20.342-12.625-3.8575-30.662-9.78-30.662-9.78l31.715 8.0275s71.898 16.134 112.93 40.334c41.034 24.201 60.886 43.829 71.898 65.588z"/>
<path fill="#c9cdd1" d="m57.14 114.19c-1.5654 1.9025-41.671 51.432-54.431 147.48 0-74.352 38.044-143.29 61.15-166.26-3.2339 4.825-6.7421 15.602-6.7188 18.775"/>
<path fill="#121113" d="m119.39 138.08s-10.137-13.346-22.822-23.294c-12.684-9.9488-22.35-14.006-22.35-14.006s7.0229 8.6275 21.312 19.896c14.289 11.27 23.86 17.404 23.86 17.404"/>
<path fill="#c9cdd1" d="m74.278 100.87s8.0991 2.4912 19.934 12.062c0 0 25.42-34.488 63.025-53.631 37.604-19.141 74.754-31.076 125.75-36.12 0 0-62.92 2.1312-126.83 34.632-36.236 18.426-62.226 52.371-62.226 52.371-6.334-4.6688-12.884-7.7738-19.649-9.315"/>
<path fill="#e6e6e6" d="m650.41 162.41s6.9188 9.0262 15.505 43.706c6.5262 26.361 7.9438 52.262 7.9438 52.262s-5.54-53.902-23.935-94.208l0.48625-1.7612z"/>
<path fill="#f2f2f2" d="m352.1 18.52c4.6225-0.11375 61.58 0.805 88.309 4.74 13.92 2.05 28.454 4.0225 45.144 8.215 16.725 4.2012 35.611 10.626 58.199 21.586 22.674 11.001 41.955 26.364 55.549 38.945 6.8125 6.305 12.448 12.219 16.38 16.556 2.0012 2.2075 3.8038 4.305 5.0962 5.84l-1.345 1.2912s-31.615-39.145-76.508-60.926c-44.9-21.778-75.07-25.546-102.8-29.628-26.65-3.924-88.03-6.616-88.03-6.616z"/>
<path fill="#e6e6e6" clip-rule="evenodd" d="m186.24 493.03c88.655 42.116 266.65 39.615 342.88 0-80.144 48.318-255.2 50.819-342.88 0z"/>
<path fill="#ccc" d="m615.92 398.61h30.735s-33.631 87.596-127.75 118.08c-39.386 12.759-98.381 13.455-98.381 13.455 107.64-6.3112 162.98-40.725 195.4-131.54z"/>
<path fill="#fff" d="m373.59 332.91s28.135-59.106 94.805-92.522c17.556-8.8 46.944-15.854 46.944-15.854l-17.105 6.4288c-19.144 6.885-34.328 12.022-53.698 26.036-33.265 24.066-53.224 45.488-70.488 75.41l-0.45875 0.50125"/>
<path fill="#b3b3b3" clip-rule="evenodd" d="m363.68 358.98s12.962-57.579 105.7-85.151c-59.114 22.351-85.436 41.875-105.7 85.151z"/>
<path fill="#e6e6e6" d="m354.07 401.5c-0.695-1.1188-1.6238-2.9075-2.685-5.6475-2.1262-5.4938-4.7912-14.084-10.151-24.892-5.4175-10.926-13.549-24.049-26.549-38.475-10.8-11.984-22.054-22.57-33.585-31.592 35.799 22.032 53.375 40.194 63.345 59.896 6.8012 13.44 9.845 25.159 9.845 36.86 0 1.6312-0.0875 2.9-0.22 3.8512z"/>
<path fill="#ececec" d="m589.62 137.92 2.1512 6.4s10.702-5.905 29.958-20.745c19.255-14.841 25.212-19.256 25.212-19.256s5.52 4.25 24.994 36.029c0 0-6.07-18.705-28.139-46.4l-22.4 27.642-31.78 16.33z"/>
<path fill="#666" d="m286.76 256.53c-31.02-33.37-52.88-40.94-92.59-55.15-38.13-13.65-53.85-35.1-56.84-39.62 1.775 1.1738 3.5788 2.3588 5.4088 3.5525 47.786 31.171 103.25 38.37 144.02 91.218z"/>
<path fill="#808080" clip-rule="evenodd" d="m188.94 260.35s6.4075 1.4 8.4562 1.88c23.46 5.35 42.754 11.765 56.599 17.055 11.839 5.365 25.114 12.392 39.526 21.598 59.125 37.765 59.449 69.27 59.449 69.27s-0.84125-21.688-36.921-51.834c-36.359-30.38-98.15-49.636-116.42-54.872-3.35-0.96-10.686-3.0962-10.686-3.0962z"/>
</svg>
