<?xml version="1.0" encoding="UTF-8" standalone="no"?>
<!-- Created with Inkscape (http://www.inkscape.org/) -->

<svg
   xmlns:dc="http://purl.org/dc/elements/1.1/"
   xmlns:cc="http://creativecommons.org/ns#"
   xmlns:rdf="http://www.w3.org/1999/02/22-rdf-syntax-ns#"
   xmlns:svg="http://www.w3.org/2000/svg"
   xmlns="http://www.w3.org/2000/svg"
   xmlns:sodipodi="http://sodipodi.sourceforge.net/DTD/sodipodi-0.dtd"
   xmlns:inkscape="http://www.inkscape.org/namespaces/inkscape"
   width="60"
   height="60"
   id="svg2"
   version="1.1"
   inkscape:version="0.48.5 r10040"
   sodipodi:docname="lemon-chomp.svg">
  <defs
     id="defs4" />
  <sodipodi:namedview
     id="base"
     pagecolor="#ffffff"
     bordercolor="#666666"
     borderopacity="1.0"
     inkscape:pageopacity="0.0"
     inkscape:pageshadow="2"
     inkscape:zoom="4.0022244"
     inkscape:cx="48.689752"
     inkscape:cy="41.637443"
     inkscape:document-units="px"
     inkscape:current-layer="layer1"
     showgrid="false"
     inkscape:window-width="886"
     inkscape:window-height="647"
     inkscape:window-x="840"
     inkscape:window-y="103"
     inkscape:window-maximized="0" />
  <metadata
     id="metadata7">
    <rdf:RDF>
      <cc:Work
         rdf:about="">
        <dc:format>image/svg+xml</dc:format>
        <dc:type
           rdf:resource="http://purl.org/dc/dcmitype/StillImage" />
        <dc:title></dc:title>
      </cc:Work>
    </rdf:RDF>
  </metadata>
  <g
     inkscape:label="Layer 1"
     inkscape:groupmode="layer"
     id="layer1"
     transform="translate(0,-992.3622)">
    <path
       style="fill:#fdf547;fill-opacity:1;stroke:#000000;stroke-width:1px;stroke-linecap:butt;stroke-linejoin:round;stroke-opacity:1"
       d="M 34 5.3125 C 27.289682 5.7821251 18.933348 7.945854 11.5 16.03125 C 0.239734 28.279258 5.8443575 46.136877 5 49.75 C 4.5996443 51.463178 2.9186534 53.518041 3.25 54 C 3.25 54 4.4545176 57.523943 6 58 C 7.5372616 58.473525 7.5016676 56.999583 10.5 56.25 C 13.498333 55.500417 34.59025 59.881817 47.46875 46.5 C 51.073023 42.754865 53.228004 39.010351 54.4375 35.4375 C 54.386129 35.430404 54.333797 35.446638 54.28125 35.4375 C 50.217646 34.7308 51.46875 29.4375 51.46875 29.4375 C 51.46875 29.4375 50.041961 35.08895 45.625 32.96875 C 41.208039 30.84865 44.0625 26.4375 44.0625 26.4375 C 44.0625 26.4375 40.701855 29.44225 37.875 26.96875 C 35.048144 24.49525 39.28125 20.4375 39.28125 20.4375 C 39.28125 20.4375 34.516784 22.191 32.75 19.1875 C 30.983215 16.184 37.15625 13.1875 37.15625 13.1875 C 37.15625 13.1875 31.330499 13.721 30.09375 10.1875 C 28.857001 6.65386 34.6875 5.59375 34.6875 5.59375 C 34.6875 5.59375 34.356234 5.4600244 34 5.3125 z "
       transform="translate(0,992.3622)"
       id="path8066" />
    <path
       style="fill:none;stroke:#ffffff;stroke-width:5;stroke-linecap:round;stroke-linejoin:round;stroke-miterlimit:4;stroke-opacity:0.41489366;stroke-dasharray:none"
       d="m 8.1597588,1029.0741 c 1.190094,-14.0426 12.5725132,-23.8202 18.4111682,-25.8836"
       id="path3759"
       inkscape:connector-curvature="0"
       sodipodi:nodetypes="cc" />
    <path
       style="fill:none;stroke:#000000;stroke-width:5;stroke-linecap:round;stroke-linejoin:round;stroke-miterlimit:4;stroke-opacity:0.26595746;stroke-dasharray:none"
       d="m 22.532515,1044.8386 c 15.877084,-2.4817 18.878473,-7.1308 26.070457,-14.9361"
       id="path3761"
       inkscape:connector-curvature="0"
       sodipodi:nodetypes="cc" />
    <path
       style="fill:none;stroke:#000000;stroke-width:1.5;stroke-linecap:round;stroke-linejoin:round;stroke-opacity:1;stroke-miterlimit:4;stroke-dasharray:none"
       d="M 39.727908,7.2793177 44.225406,1.0327914"
       id="path8786"
       inkscape:connector-curvature="0"
       transform="translate(0,992.3622)" />
    <path
       style="fill:none;stroke:#000000;stroke-width:1.5;stroke-linecap:round;stroke-linejoin:round;stroke-opacity:1;stroke-miterlimit:4;stroke-dasharray:none"
       d="M 44.97499,17.023899 50.721794,12.5264"
       id="path8788"
       inkscape:connector-curvature="0"
       transform="translate(0,992.3622)" />
    <path
       style="fill:none;stroke:#000000;stroke-width:1.5;stroke-linecap:round;stroke-linejoin:round;stroke-opacity:1;stroke-miterlimit:4;stroke-dasharray:none"
       d="m 50.971655,26.518619 5.746804,-1.749028"
       id="path8790"
       inkscape:connector-curvature="0"
       transform="translate(0,992.3622)" />
  </g>
</svg>
