<?xml version="1.0" encoding="UTF-8" standalone="no"?>
<!-- Created with Inkscape (http://www.inkscape.org/) -->

<svg
   xmlns:dc="http://purl.org/dc/elements/1.1/"
   xmlns:cc="http://creativecommons.org/ns#"
   xmlns:rdf="http://www.w3.org/1999/02/22-rdf-syntax-ns#"
   xmlns:svg="http://www.w3.org/2000/svg"
   xmlns="http://www.w3.org/2000/svg"
   xmlns:sodipodi="http://sodipodi.sourceforge.net/DTD/sodipodi-0.dtd"
   xmlns:inkscape="http://www.inkscape.org/namespaces/inkscape"
   width="60"
   height="60"
   id="svg3765"
   version="1.1"
   inkscape:version="0.48.5 r10040"
   sodipodi:docname="orange.svg">
  <defs
     id="defs3767" />
  <sodipodi:namedview
     id="base"
     pagecolor="#ffffff"
     bordercolor="#666666"
     borderopacity="1.0"
     inkscape:pageopacity="0.0"
     inkscape:pageshadow="2"
     inkscape:zoom="5.6"
     inkscape:cx="32.829468"
     inkscape:cy="35.116394"
     inkscape:document-units="px"
     inkscape:current-layer="layer1"
     showgrid="false"
     inkscape:window-width="867"
     inkscape:window-height="678"
     inkscape:window-x="152"
     inkscape:window-y="142"
     inkscape:window-maximized="0" />
  <metadata
     id="metadata3770">
    <rdf:RDF>
      <cc:Work
         rdf:about="">
        <dc:format>image/svg+xml</dc:format>
        <dc:type
           rdf:resource="http://purl.org/dc/dcmitype/StillImage" />
        <dc:title></dc:title>
      </cc:Work>
    </rdf:RDF>
  </metadata>
  <g
     inkscape:label="Layer 1"
     inkscape:groupmode="layer"
     id="layer1"
     transform="translate(0,-992.36218)">
    <path
       style="color:#000000;fill:#e97700;fill-opacity:1;fill-rule:nonzero;stroke:#000000;stroke-width:1.50000000000000000;stroke-linecap:round;stroke-linejoin:round;stroke-miterlimit:4;stroke-opacity:1;stroke-dasharray:none;stroke-dashoffset:0;marker:none;visibility:visible;display:inline;overflow:visible;enable-background:accumulate"
       d="M 30.09375 2.3125 C 14.560741 2.3125 1.96875 14.993369 1.96875 30.625 C 1.96875 46.256631 14.560741 58.9375 30.09375 58.9375 C 43.290382 58.9375 54.373508 49.774804 57.40625 37.4375 C 57.341431 37.42918 57.28546 37.417852 57.21875 37.40625 C 53.155146 36.69955 54.375 31.40625 54.375 31.40625 C 54.375 31.40625 52.979461 37.0577 48.5625 34.9375 C 44.145539 32.8174 46.96875 28.40625 46.96875 28.40625 C 46.96875 28.40625 43.608104 31.411 40.78125 28.9375 C 37.954394 26.464 42.1875 22.40625 42.1875 22.40625 C 42.1875 22.40625 37.423034 24.15975 35.65625 21.15625 C 33.889465 18.15275 40.0625 15.15625 40.0625 15.15625 C 40.0625 15.15625 34.236749 15.68985 33 12.15625 C 31.763251 8.62265 37.59375 7.5625 37.59375 7.5625 C 37.59375 7.5625 32.183687 5.60174 32.5 3.4375 C 32.555726 3.0562168 32.656688 2.739328 32.78125 2.4375 C 31.896166 2.3530094 31.000814 2.3125 30.09375 2.3125 z "
       transform="translate(0,992.36218)"
       id="path3773" />
    <path
       style="fill:none;stroke:#ffffff;stroke-width:5;stroke-linecap:round;stroke-linejoin:round;stroke-miterlimit:4;stroke-opacity:0.41489366;stroke-dasharray:none"
       d="M 7.8123428,1016.6813 C 9.7520191,1006.3866 19.385412,1000.3569 26.473372,999.29301"
       id="path3759"
       inkscape:connector-curvature="0"
       sodipodi:nodetypes="cc" />
    <path
       style="fill:none;stroke:#000000;stroke-width:5;stroke-linecap:round;stroke-linejoin:round;stroke-miterlimit:4;stroke-opacity:0.26595746;stroke-dasharray:none"
       d="m 29.357142,1047.0229 c 16.410714,-2.0892 20.660714,-12.0893 22.178572,-15.5715"
       id="path3761"
       inkscape:connector-curvature="0"
       sodipodi:nodetypes="cc" />
    <path
       style="fill:none;stroke:#000000;stroke-width:1.5;stroke-linecap:butt;stroke-linejoin:miter;stroke-miterlimit:4;stroke-opacity:1;stroke-dasharray:none"
       d="m 26.757951,999.50861 c 2.650177,-1.08453 5.078244,-1.44552 6.841242,0.17858"
       id="path3755"
       inkscape:connector-curvature="0"
       sodipodi:nodetypes="cc" />
    <path
       sodipodi:type="arc"
       style="color:#000000;fill:#000000;fill-opacity:0.38829789;fill-rule:nonzero;stroke:none;stroke-width:1.50000000000000000;stroke-linecap:round;stroke-linejoin:round;stroke-miterlimit:4;stroke-opacity:1;stroke-dasharray:none;stroke-dashoffset:0;marker:none;visibility:visible;display:inline;overflow:visible;enable-background:accumulate"
       id="path4337"
       sodipodi:cx="10.714286"
       sodipodi:cy="34.55357"
       sodipodi:rx="1.4285715"
       sodipodi:ry="1.5178572"
       d="m 12.142857,34.55357 a 1.4285715,1.5178572 0 1 1 -2.8571426,0 1.4285715,1.5178572 0 1 1 2.8571426,0 z"
       transform="translate(0,992.36218)" />
    <path
       transform="translate(4.1071428,981.91575)"
       sodipodi:type="arc"
       style="color:#000000;fill:#000000;fill-opacity:0.38829789;fill-rule:nonzero;stroke:none;stroke-width:1.5;marker:none;visibility:visible;display:inline;overflow:visible;enable-background:accumulate"
       id="path4337-1"
       sodipodi:cx="10.714286"
       sodipodi:cy="34.55357"
       sodipodi:rx="1.4285715"
       sodipodi:ry="1.5178572"
       d="m 12.142857,34.55357 a 1.4285715,1.5178572 0 1 1 -2.8571426,0 1.4285715,1.5178572 0 1 1 2.8571426,0 z" />
    <path
       transform="translate(12.678572,971.73718)"
       sodipodi:type="arc"
       style="color:#000000;fill:#000000;fill-opacity:0.38829789;fill-rule:nonzero;stroke:none;stroke-width:1.5;marker:none;visibility:visible;display:inline;overflow:visible;enable-background:accumulate"
       id="path4337-7"
       sodipodi:cx="10.714286"
       sodipodi:cy="34.55357"
       sodipodi:rx="1.4285715"
       sodipodi:ry="1.5178572"
       d="m 12.142857,34.55357 a 1.4285715,1.5178572 0 1 1 -2.8571426,0 1.4285715,1.5178572 0 1 1 2.8571426,0 z" />
    <path
       transform="translate(6.7857137,1007.2729)"
       sodipodi:type="arc"
       style="color:#000000;fill:#000000;fill-opacity:0.38829789;fill-rule:nonzero;stroke:none;stroke-width:1.5;marker:none;visibility:visible;display:inline;overflow:visible;enable-background:accumulate"
       id="path4337-4"
       sodipodi:cx="10.714286"
       sodipodi:cy="34.55357"
       sodipodi:rx="1.4285715"
       sodipodi:ry="1.5178572"
       d="m 12.142857,34.55357 a 1.4285715,1.5178572 0 1 1 -2.8571426,0 1.4285715,1.5178572 0 1 1 2.8571426,0 z" />
    <path
       transform="translate(16.607143,999.23717)"
       sodipodi:type="arc"
       style="color:#000000;fill:#000000;fill-opacity:0.38829789;fill-rule:nonzero;stroke:none;stroke-width:1.5;marker:none;visibility:visible;display:inline;overflow:visible;enable-background:accumulate"
       id="path4337-0"
       sodipodi:cx="10.714286"
       sodipodi:cy="34.55357"
       sodipodi:rx="1.4285715"
       sodipodi:ry="1.5178572"
       d="m 12.142857,34.55357 a 1.4285715,1.5178572 0 1 1 -2.8571426,0 1.4285715,1.5178572 0 1 1 2.8571426,0 z" />
    <path
       transform="translate(17.142857,986.0229)"
       sodipodi:type="arc"
       style="color:#000000;fill:#000000;fill-opacity:0.38829789;fill-rule:nonzero;stroke:none;stroke-width:1.5;marker:none;visibility:visible;display:inline;overflow:visible;enable-background:accumulate"
       id="path4337-9"
       sodipodi:cx="10.714286"
       sodipodi:cy="34.55357"
       sodipodi:rx="1.4285715"
       sodipodi:ry="1.5178572"
       d="m 12.142857,34.55357 a 1.4285715,1.5178572 0 1 1 -2.8571426,0 1.4285715,1.5178572 0 1 1 2.8571426,0 z" />
    <path
       transform="translate(28.928571,998.34432)"
       sodipodi:type="arc"
       style="color:#000000;fill:#000000;fill-opacity:0.38829789;fill-rule:nonzero;stroke:none;stroke-width:1.5;marker:none;visibility:visible;display:inline;overflow:visible;enable-background:accumulate"
       id="path4337-45"
       sodipodi:cx="10.714286"
       sodipodi:cy="34.55357"
       sodipodi:rx="1.4285715"
       sodipodi:ry="1.5178572"
       d="m 12.142857,34.55357 a 1.4285715,1.5178572 0 1 1 -2.8571426,0 1.4285715,1.5178572 0 1 1 2.8571426,0 z" />
    <path
       style="fill:none;stroke:#000000;stroke-width:1.5;stroke-linecap:round;stroke-linejoin:round;stroke-opacity:1;stroke-miterlimit:4;stroke-dasharray:none"
       d="m 51.607143,25.535715 6.071429,-1.428572"
       id="path8681"
       inkscape:connector-curvature="0"
       transform="translate(0,992.36218)"
       sodipodi:nodetypes="cc" />
    <path
       style="fill:none;stroke:#000000;stroke-width:1.5;stroke-linecap:round;stroke-linejoin:round;stroke-opacity:1;stroke-miterlimit:4;stroke-dasharray:none"
       d="M 46.964286,16.607143 51.25,13.214286"
       id="path8683"
       inkscape:connector-curvature="0"
       transform="translate(0,992.36218)"
       sodipodi:nodetypes="cc" />
    <path
       style="fill:none;stroke:#000000;stroke-width:1.5;stroke-linecap:round;stroke-linejoin:round;stroke-opacity:1;stroke-miterlimit:4;stroke-dasharray:none"
       d="M 41.25,6.0714284 44.107143,0.89285702"
       id="path8685"
       inkscape:connector-curvature="0"
       transform="translate(0,992.36218)"
       sodipodi:nodetypes="cc" />
  </g>
</svg>
