<?xml version="1.0" encoding="UTF-8" standalone="no"?>
<!-- Created with Inkscape (http://www.inkscape.org/) -->

<svg
   xmlns:dc="http://purl.org/dc/elements/1.1/"
   xmlns:cc="http://creativecommons.org/ns#"
   xmlns:rdf="http://www.w3.org/1999/02/22-rdf-syntax-ns#"
   xmlns:svg="http://www.w3.org/2000/svg"
   xmlns="http://www.w3.org/2000/svg"
   xmlns:sodipodi="http://sodipodi.sourceforge.net/DTD/sodipodi-0.dtd"
   xmlns:inkscape="http://www.inkscape.org/namespaces/inkscape"
   width="60"
   height="60"
   id="svg2"
   version="1.1"
   inkscape:version="0.48.5 r10040"
   sodipodi:docname="peach-chomp.svg">
  <defs
     id="defs4" />
  <sodipodi:namedview
     id="base"
     pagecolor="#ffffff"
     bordercolor="#666666"
     borderopacity="1.0"
     inkscape:pageopacity="0.0"
     inkscape:pageshadow="2"
     inkscape:zoom="4.0022244"
     inkscape:cx="9.7114278"
     inkscape:cy="41.637443"
     inkscape:document-units="px"
     inkscape:current-layer="layer1"
     showgrid="false"
     inkscape:window-width="886"
     inkscape:window-height="647"
     inkscape:window-x="2062"
     inkscape:window-y="229"
     inkscape:window-maximized="0" />
  <metadata
     id="metadata7">
    <rdf:RDF>
      <cc:Work
         rdf:about="">
        <dc:format>image/svg+xml</dc:format>
        <dc:type
           rdf:resource="http://purl.org/dc/dcmitype/StillImage" />
        <dc:title />
      </cc:Work>
    </rdf:RDF>
  </metadata>
  <g
     inkscape:label="Layer 1"
     inkscape:groupmode="layer"
     id="layer1"
     transform="translate(0,-992.3622)">
    <path
       style="fill:#f9935d;fill-opacity:1;stroke:#000000;stroke-width:1.50000000000000000;stroke-linecap:butt;stroke-linejoin:round;stroke-miterlimit:4;stroke-opacity:1;stroke-dasharray:none"
       d="M 23.34375 7.5625 C 16.819214 7.5406853 10.075727 8.4800504 6.1875 15.96875 C -1.3815955 34.360385 6.2857117 56.122997 31.09375 55.9375 C 44.226584 55.839302 52.379619 49.502103 56.1875 41.09375 C 52.565619 40.140366 53.71875 35.1875 53.71875 35.1875 C 53.71875 35.1875 52.291961 40.83895 47.875 38.71875 C 43.458039 36.59865 46.3125 32.1875 46.3125 32.1875 C 46.3125 32.1875 42.951855 35.19225 40.125 32.71875 C 37.298144 30.24525 41.53125 26.1875 41.53125 26.1875 C 41.53125 26.1875 36.766784 27.941 35 24.9375 C 33.233215 21.934 39.40625 18.9375 39.40625 18.9375 C 39.40625 18.9375 33.580499 19.4711 32.34375 15.9375 C 31.107001 12.4039 36.9375 11.34375 36.9375 11.34375 C 36.9375 11.34375 32.179181 9.6228418 31.84375 7.625 C 31.092153 7.6716173 30.36499 7.7238661 29.6875 7.71875 C 27.677315 7.70357 25.518595 7.5697716 23.34375 7.5625 z "
       transform="translate(0,992.3622)"
       id="path2985" />
    <path
       style="fill:none;stroke:#ffffff;stroke-width:5;stroke-linecap:round;stroke-linejoin:round;stroke-miterlimit:4;stroke-opacity:0.41489366;stroke-dasharray:none"
       d="m 8.5755301,1015.0013 c 2.2968199,-5.8304 3.1802129,-9.7173 8.3038869,-10.424"
       id="path3759"
       inkscape:connector-curvature="0" />
    <path
       style="fill:none;stroke:#000000;stroke-width:5;stroke-linecap:round;stroke-linejoin:round;stroke-miterlimit:4;stroke-opacity:0.26595746;stroke-dasharray:none"
       d="m 39.263251,50.534894 c 5.690271,-2.285589 8.429938,-4.359406 10.932574,-7.906369"
       id="path3761"
       inkscape:connector-curvature="0"
       transform="translate(0,992.3622)"
       sodipodi:nodetypes="cc" />
    <path
       style="fill:none;stroke:#000000;stroke-width:1.5;stroke-linecap:round;stroke-linejoin:round;stroke-opacity:1;stroke-miterlimit:4;stroke-dasharray:none"
       d="M 40.227629,11.526956 44.725128,5.5302906"
       id="path11448"
       inkscape:connector-curvature="0"
       transform="translate(0,992.3622)" />
    <path
       style="fill:none;stroke:#000000;stroke-width:1.5;stroke-linecap:round;stroke-linejoin:round;stroke-opacity:1;stroke-miterlimit:4;stroke-dasharray:none"
       d="m 45.974434,22.520842 5.247082,-3.747916"
       id="path11450"
       inkscape:connector-curvature="0"
       transform="translate(0,992.3622)" />
    <path
       style="fill:none;stroke:#000000;stroke-width:1.5;stroke-linecap:round;stroke-linejoin:round;stroke-opacity:1;stroke-miterlimit:4;stroke-dasharray:none"
       d="m 53.220404,32.015562 5.996665,-0.999444"
       id="path11452"
       inkscape:connector-curvature="0"
       transform="translate(0,992.3622)" />
    <path
       style="fill:none;stroke:#000000;stroke-width:1.5;stroke-linecap:butt;stroke-linejoin:miter;stroke-miterlimit:4;stroke-opacity:1;stroke-dasharray:none"
       d="m 26.985414,1003.1408 c 1.457921,-0.5269 1.97642,0.2945 3.498115,0.5081 2.782853,0.3906 1.938564,0.2359 3.262054,-0.7567"
       id="path3755" />
    <path
       style="fill:none;stroke:#000000;stroke-width:1.5;stroke-linecap:round;stroke-linejoin:round;stroke-miterlimit:4;stroke-opacity:0.40784314;stroke-dasharray:none"
       d="m 14.016069,1033.4961 c -1.035823,-3.9047 -0.962461,-7.8404 -0.254245,-13.0799 0.741084,-5.4826 4.010343,-13.231 8.197038,-15.0243"
       id="path11528"
       inkscape:connector-curvature="0"
       sodipodi:nodetypes="csc" />
    <path
       style="fill:none;stroke:#ffffff;stroke-width:5;stroke-linecap:round;stroke-linejoin:round;stroke-miterlimit:4;stroke-opacity:0.22872338;stroke-dasharray:none"
       d="m 18.10954,1027.7155 c 0.280175,-12.125 3.447832,-17.2161 6.852791,-19.7576"
       id="path3759-0"
       inkscape:connector-curvature="0"
       sodipodi:nodetypes="cc" />
    <path
       style="fill:#3a2107;fill-opacity:1;stroke:none"
       d="m 31.625442,1003.4223 c -0.36964,0.3363 -1.766785,-0.3534 -1.766785,-0.3534 -1e-6,-0.9354 0.518027,-0.7799 -0.01126,-2.859 2.498933,-0.49617 2.372294,0.2352 1.778049,3.2124 z"
       id="path3757"
       inkscape:connector-curvature="0"
       sodipodi:nodetypes="cscc" />
  </g>
</svg>
