<?xml version="1.0" encoding="UTF-8" standalone="no"?>
<!-- Created with Inkscape (http://www.inkscape.org/) -->

<svg
   xmlns:dc="http://purl.org/dc/elements/1.1/"
   xmlns:cc="http://creativecommons.org/ns#"
   xmlns:rdf="http://www.w3.org/1999/02/22-rdf-syntax-ns#"
   xmlns:svg="http://www.w3.org/2000/svg"
   xmlns="http://www.w3.org/2000/svg"
   xmlns:sodipodi="http://sodipodi.sourceforge.net/DTD/sodipodi-0.dtd"
   xmlns:inkscape="http://www.inkscape.org/namespaces/inkscape"
   width="60"
   height="80"
   id="svg6335"
   version="1.1"
   inkscape:version="0.48.5 r10040"
   sodipodi:docname="pear.svg">
  <defs
     id="defs6337" />
  <sodipodi:namedview
     id="base"
     pagecolor="#ffffff"
     bordercolor="#666666"
     borderopacity="1.0"
     inkscape:pageopacity="0.0"
     inkscape:pageshadow="2"
     inkscape:zoom="5.6"
     inkscape:cx="32.321428"
     inkscape:cy="37.603703"
     inkscape:document-units="px"
     inkscape:current-layer="layer1"
     showgrid="false"
     inkscape:window-width="938"
     inkscape:window-height="804"
     inkscape:window-x="80"
     inkscape:window-y="121"
     inkscape:window-maximized="0" />
  <metadata
     id="metadata6340">
    <rdf:RDF>
      <cc:Work
         rdf:about="">
        <dc:format>image/svg+xml</dc:format>
        <dc:type
           rdf:resource="http://purl.org/dc/dcmitype/StillImage" />
        <dc:title></dc:title>
      </cc:Work>
    </rdf:RDF>
  </metadata>
  <g
     inkscape:label="Layer 1"
     inkscape:groupmode="layer"
     id="layer1"
     transform="translate(0,-972.36218)">
    <path
       style="fill:#a9eb14;stroke:#000000;stroke-width:1.50000000000000000;stroke-linecap:butt;stroke-linejoin:round;stroke-opacity:1;stroke-miterlimit:4;stroke-dasharray:none;fill-opacity:1"
       d="M 29.09375 12.3125 C 13.362212 12.487649 17.712842 30.902212 14.34375 34.9375 C 11.446649 38.407467 2.7505997 43.125467 2.3125 58.21875 C 1.8150916 75.35532 18.379464 78.584822 30.34375 78.40625 C 46.59375 78.40625 58.076207 72.152739 58.40625 55.71875 C 58.457745 53.154651 57.978604 50.964085 57.21875 49.0625 C 56.714363 49.246485 56.134812 49.340019 55.4375 49.21875 C 51.373896 48.51205 52.59375 43.1875 52.59375 43.1875 C 52.59375 43.1875 51.198211 48.83895 46.78125 46.71875 C 42.364289 44.59865 45.1875 40.1875 45.1875 40.1875 C 45.1875 40.1875 41.826855 43.19225 39 40.71875 C 36.173144 38.24535 40.40625 34.1875 40.40625 34.1875 C 40.40625 34.1875 35.641784 35.941 33.875 32.9375 C 32.108215 29.934 38.28125 26.9375 38.28125 26.9375 C 38.28125 26.9375 32.455499 27.47114 31.21875 23.9375 C 29.982001 20.4039 35.8125 19.34375 35.8125 19.34375 C 35.8125 19.34375 30.402437 17.38299 30.71875 15.21875 C 30.920049 13.841447 31.615233 13.027865 32.4375 12.53125 C 31.423935 12.389403 30.316564 12.298886 29.09375 12.3125 z "
       transform="translate(0,972.36218)"
       id="path6343" />
    <path
       style="fill:none;stroke:#ffffff;stroke-width:5;stroke-linecap:round;stroke-linejoin:round;stroke-miterlimit:4;stroke-opacity:0.41489366;stroke-dasharray:none"
       d="M 8.5266281,1021.5027 C 19.75202,1010.4938 20.27827,1010.5354 22.187657,993.40016"
       id="path3759"
       inkscape:connector-curvature="0"
       sodipodi:nodetypes="cc" />
    <path
       style="fill:none;stroke:#000000;stroke-width:5;stroke-linecap:round;stroke-linejoin:round;stroke-miterlimit:4;stroke-opacity:0.26595746;stroke-dasharray:none"
       d="m 27.035714,1046.3086 c 21.69818,0.8375 27.26871,-11.3759 26.464286,-20.75"
       id="path3761"
       inkscape:connector-curvature="0"
       sodipodi:nodetypes="cc" />
    <path
       style="fill:#847d32;stroke:#000000;stroke-width:1.3;stroke-linecap:butt;stroke-linejoin:miter;stroke-opacity:1;fill-opacity:1;stroke-miterlimit:4;stroke-dasharray:none"
       d="M 28.035714,15 C 29.464286,6.9642856 27.5,3.9285713 26.071429,3.0357141 24.642857,2.142857 28.035714,1.2499998 28.035714,1.2499998 c 0,0 3.392857,1.7857143 3.214286,6.9642858 -0.178571,5.1785714 -0.535714,7.5000004 -0.535714,7.5000004"
       id="path6891"
       inkscape:connector-curvature="0"
       transform="translate(0,972.36218)" />
    <path
       style="fill:none;stroke:#000000;stroke-width:1.5;stroke-linecap:round;stroke-linejoin:round;stroke-miterlimit:4;stroke-opacity:1;stroke-dasharray:none"
       d="m 25.892857,14.821428 c 3.392857,1.25 3.392857,1.607143 5,0.714286"
       id="path6889"
       inkscape:connector-curvature="0"
       transform="translate(0,972.36218)"
       sodipodi:nodetypes="cc" />
    <path
       style="fill:none;stroke:#000000;stroke-width:1.5;stroke-linecap:round;stroke-linejoin:round;stroke-opacity:1;stroke-miterlimit:4;stroke-dasharray:none"
       d="M 37.678572,14.464286 41.964286,8.392857"
       id="path8836"
       inkscape:connector-curvature="0"
       transform="translate(0,972.36218)" />
    <path
       style="fill:none;stroke:#000000;stroke-width:1.5;stroke-linecap:round;stroke-linejoin:round;stroke-opacity:1;stroke-miterlimit:4;stroke-dasharray:none"
       d="M 43.928572,28.392857 48.75,24.107143"
       id="path8838"
       inkscape:connector-curvature="0"
       transform="translate(0,972.36218)" />
    <path
       style="fill:none;stroke:#000000;stroke-width:1.5;stroke-linecap:round;stroke-linejoin:round;stroke-opacity:1;stroke-miterlimit:4;stroke-dasharray:none"
       d="m 50.714286,39.285714 6.428571,-1.428571"
       id="path8840"
       inkscape:connector-curvature="0"
       transform="translate(0,972.36218)" />
  </g>
</svg>
