<?xml version="1.0" encoding="UTF-8" standalone="no"?>
<!-- Created with Inkscape (http://www.inkscape.org/) -->

<svg
   xmlns:dc="http://purl.org/dc/elements/1.1/"
   xmlns:cc="http://creativecommons.org/ns#"
   xmlns:rdf="http://www.w3.org/1999/02/22-rdf-syntax-ns#"
   xmlns:svg="http://www.w3.org/2000/svg"
   xmlns="http://www.w3.org/2000/svg"
   xmlns:sodipodi="http://sodipodi.sourceforge.net/DTD/sodipodi-0.dtd"
   xmlns:inkscape="http://www.inkscape.org/namespaces/inkscape"
   width="175"
   height="90"
   id="svg5640"
   version="1.1"
   inkscape:version="0.48.5 r10040"
   sodipodi:docname="pineapple.svg">
  <defs
     id="defs5642" />
  <sodipodi:namedview
     id="base"
     pagecolor="#ffffff"
     bordercolor="#666666"
     borderopacity="1.0"
     inkscape:pageopacity="0.0"
     inkscape:pageshadow="2"
     inkscape:zoom="3.959798"
     inkscape:cx="84.140394"
     inkscape:cy="63.162846"
     inkscape:document-units="px"
     inkscape:current-layer="layer1"
     showgrid="false"
     inkscape:window-width="1231"
     inkscape:window-height="780"
     inkscape:window-x="573"
     inkscape:window-y="143"
     inkscape:window-maximized="0" />
  <metadata
     id="metadata5645">
    <rdf:RDF>
      <cc:Work
         rdf:about="">
        <dc:format>image/svg+xml</dc:format>
        <dc:type
           rdf:resource="http://purl.org/dc/dcmitype/StillImage" />
        <dc:title />
      </cc:Work>
    </rdf:RDF>
  </metadata>
  <g
     inkscape:label="Layer 1"
     inkscape:groupmode="layer"
     id="layer1"
     transform="translate(0,-962.36218)">
    <path
       style="fill:#1e8a22;fill-opacity:1;stroke:#000000;stroke-width:1px;stroke-linecap:butt;stroke-linejoin:miter;stroke-opacity:1"
       d="m 116.78571,1009.505 c 23.92857,1.7858 30,30 30,30 0,0 -18.92857,-20 -34.64285,-20.3571"
       id="path6327"
       inkscape:connector-curvature="0" />
    <path
       style="fill:#1e8a22;fill-opacity:1;stroke:#000000;stroke-width:1px;stroke-linecap:butt;stroke-linejoin:miter;stroke-opacity:1"
       d="m 116.07143,1004.1479 c 34.64285,-1.4286 53.21428,25 53.21428,25 0,0 -34.28571,-16.4286 -53.21428,-16.0714"
       id="path6329"
       inkscape:connector-curvature="0" />
    <path
       style="fill:#1e8a22;fill-opacity:1;stroke:#000000;stroke-width:1px;stroke-linecap:butt;stroke-linejoin:miter;stroke-opacity:1"
       d="m 113.92857,991.64789 c 45.35714,-1.78571 42.85714,-19.28571 42.85714,-19.28571 0,0 13.21429,24.64286 -40.71428,27.5"
       id="path6331"
       inkscape:connector-curvature="0" />
    <path
       style="fill:#1e8a22;fill-opacity:1;stroke:#000000;stroke-width:1px;stroke-linecap:butt;stroke-linejoin:miter;stroke-opacity:1"
       d="M 111.42857,991.29075 C 130.35714,983.07647 137.5,968.43361 137.5,968.43361 c 0,0 -1.07143,26.78571 -21.42858,31.07143"
       id="path6325"
       inkscape:connector-curvature="0" />
    <path
       style="fill:#1e8a22;fill-opacity:1;stroke:#000000;stroke-width:1px;stroke-linecap:butt;stroke-linejoin:miter;stroke-opacity:1"
       d="m 115.35714,995.93361 c 36.78571,-1.07143 56.07143,12.85719 56.07143,12.85719 0,0 -26.42857,-5.7143 -54.28572,-3.2143"
       id="path6333"
       inkscape:connector-curvature="0" />
    <path
       style="fill:#f2d233;fill-opacity:1;stroke:#402b15;stroke-width:1.5;stroke-linecap:butt;stroke-linejoin:miter;stroke-miterlimit:4;stroke-opacity:1;stroke-dasharray:none"
       d="m 4.0172912,1004.9673 c 0,-34.25665 21.0542548,-39.20279 43.1718558,-39.38599 22.117601,-0.18319 71.244333,4.58219 71.669543,38.47009 0.45977,36.6433 -43.98785,43.2308 -73.370897,42.8666 -29.561024,-0.3664 -41.4705018,-14.4721 -41.4705018,-41.9507 z"
       id="path5648"
       inkscape:connector-curvature="0"
       sodipodi:nodetypes="sssss" />
    <path
       style="fill:none;stroke:#b8903c;stroke-width:3;stroke-linecap:round;stroke-linejoin:round;stroke-miterlimit:4;stroke-opacity:1;stroke-dasharray:none"
       d="m 106.24478,982.93994 c 0,0 -13.119078,6.08978 -13.331749,8.47126 -0.212662,2.38148 23.619619,7.39698 23.619619,10.8776 0,3.4806 -23.194277,8.5406 -23.194277,12.5708 0,4.0302 15.843907,10.417 15.843907,10.417"
       id="path6158"
       inkscape:connector-curvature="0"
       sodipodi:nodetypes="csssc" />
    <path
       style="fill:none;stroke:#b8903c;stroke-width:3;stroke-linecap:round;stroke-linejoin:round;stroke-miterlimit:4;stroke-opacity:1;stroke-dasharray:none"
       d="m 86.559604,973.00314 c 0,0 -14.913494,2.83685 -14.913494,7.23343 0,4.39658 21.054259,7.32763 21.054259,11.17463 0,3.84701 -22.117605,6.59487 -21.904936,10.2587 0.212669,3.6638 22.117598,10.0755 22.330269,13.3729 0.212671,3.2974 -20.416246,10.2587 -20.203577,14.8385 0.212669,4.5797 16.574987,8.7683 16.574987,8.7683"
       id="path6160"
       inkscape:connector-curvature="0"
       sodipodi:nodetypes="csssssc" />
    <path
       style="fill:none;stroke:#b8903c;stroke-width:3;stroke-linecap:round;stroke-linejoin:round;stroke-miterlimit:4;stroke-opacity:1;stroke-dasharray:none"
       d="m 59.510744,968.26504 c 0,0 -6.579528,-1.03501 -7.004866,3.72795 -0.425338,4.76296 18.927562,6.22848 19.140232,8.42677 0.212669,2.19829 -19.352901,6.77806 -19.352901,10.07549 0,3.29743 18.502224,8.06039 18.502224,10.99145 0,2.931 -18.502224,8.61 -18.502224,13.3729 0,4.763 21.692263,10.4419 21.054255,14.6553 -0.638008,4.2134 -21.054255,8.0604 -21.054255,10.9914 0,2.9311 10.925975,3.6835 10.925975,3.6835"
       id="path6162"
       inkscape:connector-curvature="0"
       sodipodi:nodetypes="csssssssc" />
    <path
       style="fill:none;stroke:#b8903c;stroke-width:3;stroke-linecap:round;stroke-linejoin:round;stroke-miterlimit:4;stroke-opacity:1;stroke-dasharray:none"
       d="m 36.529035,967.94315 c -0.425338,2.74786 15.976843,1.30198 15.976843,4.04984 0,2.74786 -18.714893,8.24358 -18.714893,10.07549 0,1.8319 18.714893,6.41167 18.714893,8.60996 0,2.19829 -18.076885,9.52596 -18.076885,11.72416 0,2.1983 17.438878,8.0604 18.076885,12.8234 0.638008,4.763 -18.927562,9.1595 -18.927562,13.0065 0,3.847 18.714893,10.8083 18.714893,12.6402 0,1.8319 -15.072972,1.302 -15.072972,3.8666"
       id="path6164"
       inkscape:connector-curvature="0"
       sodipodi:nodetypes="csssssssc" />
    <path
       style="fill:none;stroke:#b8903c;stroke-width:3;stroke-linecap:round;stroke-linejoin:round;stroke-miterlimit:4;stroke-opacity:1;stroke-dasharray:none"
       d="m 16.126114,976.11738 c 0.212669,3.48062 17.664871,3.38643 17.664871,6.13429 0,2.74786 -19.990909,5.49572 -19.990909,9.34272 0,3.84701 20.416247,7.8772 20.416247,11.17461 0,3.2975 -19.56557,8.4268 -19.56557,12.457 0,4.0302 18.714894,10.0755 18.927563,12.6402 0.212669,2.5646 -16.601525,4.5994 -16.814195,8.2632"
       id="path6166"
       inkscape:connector-curvature="0"
       sodipodi:nodetypes="csssssc" />
    <path
       style="fill:none;stroke:#b8903c;stroke-width:3;stroke-linecap:round;stroke-linejoin:round;stroke-miterlimit:4;stroke-opacity:1;stroke-dasharray:none"
       d="m 9.1080282,986.14838 c 0,2.74786 4.9047168,4.16368 4.9047168,5.8124 0,1.64871 -7.4567477,7.69401 -7.4567477,11.17462 0,3.4806 8.3074247,8.2436 8.0947557,12.2738 -0.212669,4.0302 -5.755394,6.0898 -5.755394,9.0208"
       id="path6168"
       inkscape:connector-curvature="0"
       sodipodi:nodetypes="csssc" />
    <path
       style="fill:none;stroke:#ffffff;stroke-width:5;stroke-linecap:round;stroke-linejoin:round;stroke-miterlimit:4;stroke-opacity:0.41489366;stroke-dasharray:none"
       d="m 62.949133,993.64551 c -7.024207,-3.71371 -4.203663,-3.88756 1.695247,-5.75096"
       id="path3759"
       inkscape:connector-curvature="0"
       sodipodi:nodetypes="cc" />
    <path
       style="fill:none;stroke:#ffffff;stroke-width:5;stroke-linecap:round;stroke-linejoin:round;stroke-miterlimit:4;stroke-opacity:0.41489366;stroke-dasharray:none"
       d="m 61.810813,1017.7351 c -7.024207,-3.7137 -4.629002,-3.5212 0.419231,-6.4837"
       id="path3759-9"
       inkscape:connector-curvature="0"
       sodipodi:nodetypes="cc" />
    <path
       style="fill:none;stroke:#ffffff;stroke-width:5;stroke-linecap:round;stroke-linejoin:round;stroke-miterlimit:4;stroke-opacity:0.41489366;stroke-dasharray:none"
       d="m 82.865068,1004.9117 c -7.024207,-3.7137 -6.968363,-2.9716 -1.069453,-4.835"
       id="path3759-2"
       inkscape:connector-curvature="0"
       sodipodi:nodetypes="cc" />
    <path
       style="fill:none;stroke:#ffffff;stroke-width:5;stroke-linecap:round;stroke-linejoin:round;stroke-miterlimit:4;stroke-opacity:0.41489366;stroke-dasharray:none"
       d="m 25.444372,994.65307 c -4.259506,-1.88181 -6.755694,-3.33799 -0.856784,-5.20139"
       id="path3759-7"
       inkscape:connector-curvature="0"
       sodipodi:nodetypes="cc" />
    <path
       style="fill:none;stroke:#ffffff;stroke-width:5;stroke-linecap:round;stroke-linejoin:round;stroke-miterlimit:4;stroke-opacity:0.41489366;stroke-dasharray:none"
       d="m 25.869711,1018.2847 c -7.024207,-3.7138 -4.203663,-3.8876 1.695247,-5.751"
       id="path3759-95"
       inkscape:connector-curvature="0"
       sodipodi:nodetypes="cc" />
    <path
       style="fill:none;stroke:#ffffff;stroke-width:5;stroke-linecap:round;stroke-linejoin:round;stroke-miterlimit:4;stroke-opacity:0.41489366;stroke-dasharray:none"
       d="m 13.534894,1007.4764 c -3.8341671,-3.7137 -2.714978,-6.0858 -0.218776,-8.68201"
       id="path3759-4"
       inkscape:connector-curvature="0"
       sodipodi:nodetypes="cc" />
    <path
       style="fill:none;stroke:#ffffff;stroke-width:5;stroke-linecap:round;stroke-linejoin:round;stroke-miterlimit:4;stroke-opacity:0.41489366;stroke-dasharray:none"
       d="m 46.498627,1005.2781 c -6.173529,-2.065 -6.543025,-3.7043 0.6319,-6.3005"
       id="path3759-3"
       inkscape:connector-curvature="0"
       sodipodi:nodetypes="cc" />
    <path
       style="fill:none;stroke:#ffffff;stroke-width:5;stroke-linecap:round;stroke-linejoin:round;stroke-miterlimit:4;stroke-opacity:0.41489366;stroke-dasharray:none"
       d="m 25.231703,975.96761 c -6.811537,-1.8818 -4.841672,-2.23884 -2.983477,-3.91905"
       id="path3759-1"
       inkscape:connector-curvature="0"
       sodipodi:nodetypes="cc" />
    <path
       style="fill:none;stroke:#ffffff;stroke-width:5;stroke-linecap:round;stroke-linejoin:round;stroke-miterlimit:4;stroke-opacity:0.41489366;stroke-dasharray:none"
       d="m 62.236151,973.95251 c -7.449545,-2.24818 -5.267009,-2.60522 0.631901,-4.46862"
       id="path3759-23"
       inkscape:connector-curvature="0"
       sodipodi:nodetypes="cc" />
    <path
       style="fill:none;stroke:#ffffff;stroke-width:5;stroke-linecap:round;stroke-linejoin:round;stroke-miterlimit:4;stroke-opacity:0.41489366;stroke-dasharray:none"
       d="m 83.503076,982.92887 c -7.024207,-3.71372 -8.24438,-2.97161 0.419229,-5.2014"
       id="path3759-34"
       inkscape:connector-curvature="0"
       sodipodi:nodetypes="cc" />
    <path
       style="fill:none;stroke:#ffffff;stroke-width:5;stroke-linecap:round;stroke-linejoin:round;stroke-miterlimit:4;stroke-opacity:0.41489366;stroke-dasharray:none"
       d="m 47.987312,984.76077 c -7.024207,-3.71371 -4.203663,-3.88756 1.695247,-5.75096"
       id="path3759-11"
       inkscape:connector-curvature="0"
       sodipodi:nodetypes="cc" />
    <path
       style="fill:none;stroke:#ffffff;stroke-width:5;stroke-linecap:round;stroke-linejoin:round;stroke-miterlimit:4;stroke-opacity:0.41489366;stroke-dasharray:none"
       d="m 44.797274,1032.024 c -6.386199,-2.6146 -5.692348,-4.0708 0.206562,-5.9342"
       id="path3759-38"
       inkscape:connector-curvature="0"
       sodipodi:nodetypes="cc" />
    <path
       style="fill:none;stroke:#ffffff;stroke-width:5;stroke-linecap:round;stroke-linejoin:round;stroke-miterlimit:4;stroke-opacity:0.41489366;stroke-dasharray:none"
       d="m 21.828995,1040.0844 c -1.282137,-2.981 -0.588285,-2.9716 5.310625,-4.835"
       id="path3759-74"
       inkscape:connector-curvature="0"
       sodipodi:nodetypes="cc" />
    <path
       style="fill:none;stroke:#ffffff;stroke-width:5;stroke-linecap:round;stroke-linejoin:round;stroke-miterlimit:4;stroke-opacity:0.41489366;stroke-dasharray:none"
       d="m 14.172903,1031.6576 c -2.770822,-4.6297 -3.140317,-4.8035 -0.218777,-9.2315"
       id="path3759-27"
       inkscape:connector-curvature="0"
       sodipodi:nodetypes="cc" />
    <path
       style="fill:none;stroke:#ffffff;stroke-width:5;stroke-linecap:round;stroke-linejoin:round;stroke-miterlimit:4;stroke-opacity:0.41489366;stroke-dasharray:none"
       d="m 13.960233,985.67676 c -2.558152,-4.26332 -2.502309,-2.23891 0.206562,-5.93422"
       id="path3759-79"
       inkscape:connector-curvature="0"
       sodipodi:nodetypes="cc" />
    <path
       style="fill:none;stroke:#ffffff;stroke-width:5;stroke-linecap:round;stroke-linejoin:round;stroke-miterlimit:4;stroke-opacity:0.41489366;stroke-dasharray:none"
       d="m 84.141083,1033.8559 c -7.024207,-3.7137 -7.606371,-3.7044 -1.069454,-7.5829"
       id="path3759-31"
       inkscape:connector-curvature="0"
       sodipodi:nodetypes="cc" />
    <path
       style="fill:none;stroke:#ffffff;stroke-width:5;stroke-linecap:round;stroke-linejoin:round;stroke-miterlimit:4;stroke-opacity:0.41489366;stroke-dasharray:none"
       d="m 63.724836,1041.9163 c -7.662214,-1.6987 -5.479679,-1.6893 0.419233,-3.5527"
       id="path3759-98"
       inkscape:connector-curvature="0"
       sodipodi:nodetypes="cc" />
    <path
       style="fill:none;stroke:#ffffff;stroke-width:5;stroke-linecap:round;stroke-linejoin:round;stroke-miterlimit:4;stroke-opacity:0.41489366;stroke-dasharray:none"
       d="m 104.55733,1018.4679 c -7.024203,-3.7138 -4.20367,-3.8876 1.69525,-5.751"
       id="path3759-6"
       inkscape:connector-curvature="0"
       sodipodi:nodetypes="cc" />
    <path
       style="fill:none;stroke:#ffffff;stroke-width:5;stroke-linecap:round;stroke-linejoin:round;stroke-miterlimit:4;stroke-opacity:0.41489366;stroke-dasharray:none"
       d="m 106.04601,993.00435 c -7.874888,-2.06503 -5.69235,-2.9716 -1.4948,-4.835"
       id="path3759-5"
       inkscape:connector-curvature="0"
       sodipodi:nodetypes="cc" />
  </g>
</svg>
