<?xml version="1.0" encoding="UTF-8" standalone="no"?>
<!DOCTYPE svg  PUBLIC '-//W3C//DTD SVG 1.1//EN'  'http://www.w3.org/Graphics/SVG/1.1/DTD/svg11.dtd'>
<svg xmlns="http://www.w3.org/2000/svg" xml:space="preserve" enable-background="new 0 0 127 55.2" version="1.1" viewBox="0 0 127 55.2" y="0px" x="0px">
<path d="m8.3 32.5c-3.1 1.1-3.6 2.3-3.4 4.1s2.3 2.6 4.4 2.4" fill="#fff"/>
<path stroke="#231F20" stroke-width="1.101" d="m8.3 32.5c-3.1 1.1-3.6 2.3-3.4 4.1s2.3 2.6 4.4 2.4" fill="none"/>
<path d="m4.1 17.6c6.4-2.9 14.4-3.6 19.9 0.7s7.4 15 7.4 17.6c0 0.6-4.4 1.1-5.7 2.1-1.6 1.4 2.8 6.7 2.8 9.2 0 0 0.5 3.5-2.8 4.3-3.7 0.8-6.3-2.1-9.3 0-0.5 0.4-2 1.4-3.7 2.3l-8.6-36.2" fill="#fff"/>
<path stroke="#231F20" stroke-width="1.101" d="m4.1 17.6c6.4-2.9 14.4-3.6 19.9 0.7s7.4 15 7.4 17.6c0 0.6-4.4 1.1-5.7 2.1-1.6 1.4 2.8 6.7 2.8 9.2 0 0 0.5 3.5-2.8 4.3-3.7 0.8-6.3-2.1-9.3 0-0.5 0.4-2 1.4-3.7 2.3l-8.6-36.2z" fill="none" stroke-linecap="round"/>
<path d="m15.6 10.3c0.3 0.8 0.1 1.5-0.4 2-0.3 0.2-0.8 0.2-1 0.6-0.1 0.5 0.2 0.8 0.7 1 1.1 0.4 2.1-0.3 2.5-1 1.4-2.4-1.3-4.6-1.6-7-0.2-1.6 1.2-3.2 1.2-4.7 0-0.5-1.6-0.6-2.1 0.3-0.8 1.7-2.1 3.6-1.2 5.2 0.6 1.1 1.4 2.2 1.9 3.6" fill="#F48120"/>
<path d="m20.5 10.3c0.2 0.9 0 1.6-0.3 2.4-0.4 1.1 0.9 1.5 1.5 0.9 2.5-2.7 1.3-4.2 0.3-5.6-1-1.5-1.2-1.8-1.7-2.9-0.2-0.4-0.9-1.5 0.3-2.7 0.5-0.4 0.4-1.6-0.1-2.1-1.7-1.2-2.2 1-2.8 2.9-0.8 2.5 2.1 4.5 2.8 7.1" fill="#F48120"/>
<path d="m3.7 12.5c0.6 0.7 0.6 1.4 0.3 2-0.2 0.3-0.6 1-0.7 1.4 0.1 0.5 0.4 0.1 0.9 0.1 1.1 0.1 1.9-0.9 2.1-1.8 0.5-2.7-2.7-4-3.7-6.2-0.7-1.4 0.2-3.3-0.3-4.7-0.2-0.5-1.7 0-1.9 1-0.3 1.9-0.9 4 0.5 5.3 0.8 1 1.9 1.8 2.8 2.9" fill="#F48120"/>
<path d="m8.3 9.7c0.3 0.8 0.1 1.6-0.1 2.4-0.3 1.1 1.3 1.1 1.9 0.4 1.3-1.7 0.5-3.8-0.3-5.3-0.9-1.6-2.2-3-2.3-4.7 0-0.5 1-0.5 1.5-0.7 0.6-0.2 1.8-0.8 1.2-1.2-1.9-1.1-4.6 0.2-5.1 2.2-0.6 2.5 2.4 4.4 3.2 6.9" fill="#F48120"/>
<path stroke="#231F20" stroke-width="1.101" d="m17.6 39.7c2.8 4 4.4 6.4 10.1 7.2" fill="none" stroke-linecap="round"/>
<path d="m6 19.1c0.4-0.3 1.5-3.8 1.5-4-0.1-0.3 1.5 3.4 1.6 3.6 0.1 0.1 3.2 0.3 3.4 0.6s-1.9 0.9-2.2 1.3c-0.3 0.3 3.1 4.3 2.9 4.6s-4.5-2.7-4.7-2.5c-0.3 0.2-3.3 3.3-3.4 3.3s0.9-4 0.7-4.3c-0.1-0.3-2.3 0.2-2.5-0.2-0.1-0.4 2.7-2.4 2.7-2.4" fill="#FFD420"/>
<path d="m7.2 23c-0.6 0.5-0.9 1.2-1.5 1.8-0.1 0.1-0.1-0.1-0.1-0.2 0.2-0.8 0.3-1.5 0.4-2.3 0.1-0.3 0.2-0.5 0.3-0.8 0.1-0.2 0.1-0.4 0-0.6-0.2-0.2-0.5 0-0.7 0.1-0.6 0.3-1.2 0.3-1.8 0.1 0.2-0.3 0.5-0.4 0.8-0.6s0.7-0.3 1-0.6c0.2-0.1 0.4-0.1 0.4-0.2 0.2-0.2 0.4-0.4 0.6-0.7 0.6-0.9 0.6-2.1 1-3.1 0.5 1 0.7 2.2 1.2 3.4 0 0.2 0.3-0.1 0.4 0.2 0.4-0.3 0.9-0.2 1.3-0.2 0.2 0 0.6-0.1 0.8 0.2-0.5 0.3-1 0.6-1.6 0.8-0.2 0.1-0.4 0.5-0.2 0.8 0.1 0.2 0.3 0.3 0.4 0.4 0.8 0.7 1.4 1.6 2 2.5-0.2 0.2-0.4 0-0.5-0.2-0.9-0.7-1.8-1-2.7-1.8-0.4-0.5-0.9 0.6-1.5 1m0 1.2c0.3-0.4 0.7-1 1.1-0.9 1.2 0.1 2.2 1.1 3.2 1.8 0.6 0.4 1.1 1 1.8 0.9 0.2 0 0.2-0.3 0.4-0.5 0.1-0.2-0.1-0.4-0.1-0.4-0.6-0.5-0.7-1.3-1.1-1.8-0.6-0.8-1.1-1.5-1.7-2.3 0.7-0.6 1.5-0.7 2.3-1 0.2-0.1 0.3-0.4 0.2-0.6 0-0.2-0.2-0.3-0.2-0.3-0.6-0.1-1.2-0.2-1.7-0.4-0.7-0.1-1.4 0.1-2.1-0.3-0.3-0.1-0.3-0.6-0.4-0.9-0.3-1.2-0.7-2.4-1.2-3.4-0.1-0.2-0.4-0.3-0.6-0.1-0.1-0.2-0.2 0.1-0.1 0.5 0.2 1.2-0.3 2.4-0.6 3.5-0.1 0.2-0.2 0.3-0.4 0.4v0.2c-0.6 0.5-1.1 0.8-1.8 1.2-0.6 0.3-1.1 0.9-1.6 1.4-0.3 0.1-0.4 0.8-0.1 0.8 1 0.3 1.9 0.2 2.9 0.1 0 1.2-0.3 2.3-0.7 3.3l-0.3 0.6c-0.2 0.4 0.2 0.8 0.4 0.7 1-0.6 1.7-1.5 2.4-2.5z" fill="#231F20"/>
<path stroke="#231F20" stroke-width="1.101" d="m12.6 28.9c-5.3 0.2-6.9 1.9-7.8 3s-0.8 3.4 0.2 3.6" fill="none"/>
<path d="m17.9 32.5c2.6 0 4.8-1.7 4.8-3.9 0-2.1-2.1-3.9-4.8-3.9s-4.8 1.7-4.8 3.9c0 2.2 2.1 3.9 4.8 3.9" fill="#BED63D"/>
<ellipse fill="none" stroke="#231F20" stroke-width="1.101" cy="28.6" cx="17.9" rx="4.8" ry="3.9"/>
<path d="m30.3 31.6c3 0 5.4-1.2 5.4-2.8 0-1.5-2.4-2.8-5.4-2.8s-5.4 1.1-5.4 2.8c0 1.8 2.4 2.8 5.4 2.8" fill="#BED63D"/>
<path stroke="#231F20" stroke-width="1.101" d="m30.3 31.6c3 0 5.4-1.2 5.4-2.8 0-1.5-2.4-2.8-5.4-2.8s-5.4 1.1-5.4 2.8c0 1.8 2.4 2.8 5.4 2.8z" fill="none"/>
<path d="m22.7 28.6s2.2-0.7 2.2 0.2" fill="#BED63D"/>
<path stroke="#231F20" stroke-width="1.101" d="m22.7 28.6s2.2-0.7 2.2 0.2" fill="none"/>
<path d="m42 24.5c2.2-2.1 5-1.9 7.1 0 0.7 0.6 0.3 1.5-0.3 2-1.5 1-2.9-0.5-4.4 0-1.4 0.4-2 2.5-2.4 4-1 3.8-1.7 9.3 1.5 11.2 0.7 0.4 1.6 0.2 1.9-0.6 0.5-1.2 1.2-2.8 0.3-3.6-0.3-0.2-0.9-0.6-0.9-0.8-0.7-1.6 0.7-2.4 1.6-2.7 1.6-0.7 4 0.6 3.1 3.1 0 0.2-0.6 0.4-0.6 0.6 0 1.4-0.4 2.5-0.6 3.9-0.1 1-0.9 1.4-1.3 2.2-0.6 0.6-1.3 0.4-1.9 0.8-2.8 1.6-6.1-0.8-6.6-4.9-0.9-5.6-0.3-11.7 3.5-15.2" fill="#231F20"/>
<path d="m53.9 35.7c-3.2-1 0.1-6.6 0.8-5.6 1.6 2.4 1.4 6.3-0.8 5.6m-1 4.1c0.8 0.6 2.4 0.6 3.1-0.4 1.6-2.3 2.8-5 2.1-8.2-0.3-1.4-0.7-2.8-1.5-4-1.2-1.7-3.3-2.4-4-0.2-0.4 1.1-1.5 2.3-2 4.6-0.7 3.1 0.2 6.5 2.3 8.2z" fill="#231F20"/>
<path d="m68.8 39.7c-0.3 0-0.6-13-0.6-14.3 2.4 0.4 4.1 3.2 4.8 5.8 0.6 2.2-0.4 4.5-1.3 6.4-0.5 1-1.7 2.4-2.9 2.1m-2.5 3.4c1.4 0.7 2.9 0.2 4.1-0.7 3.9-2.6 6.9-9.5 3.9-15-1.2-2.1-2.4-3.6-3.9-5-1.2-1-2.6-1.4-3.7-1.4-0.7-0.2-1.8 0-2.1 1.4 0 0.2-0.1 0.7 0 0.9 0.2 0.5 0.8 1.1 0.8 1.6 0.4 4.9 0.8 9.6 0.7 14.3 0 0.7-0.8 1-1 1.5-0.3 0.8 0.5 2 1.2 2.4z" fill="#231F20"/>
<path d="m83 41.1c-0.2 0.8-4.6-0.1-4.6-1.9 0.1-3.5 3.2-2.8 5-3.7 0.7 2.1-0.1 3.5-0.4 5.6m0.6 4.9c1.7 1.5 1.9-3.9 2-6.4 0.2-3.8 1.7-7.3 0.5-10.7-1.4-3.8-6-2.7-8.2-0.7-0.3 0.4 0 3.7 1.2 3.1 1.6-0.7 2.8-1.8 4.6-1.3 0.7 0.2 0.5 2 0.2 2.6-0.1 0.1-4.4-1.3-6.9 3.2-0.8 1.3-1.1 4.3-0.3 5.7 1.2 2.7 3.7 2.6 5.9 3.1 0.4-0.1 0.4 1 1 1.4z" fill="#231F20"/>
<path d="m90 35.4c-0.3-2.5 2.2-3.7 3.8-3.7 0 2.3-0.6 4.5-0.3 6.9-1.6 0.7-3.3-1.2-3.5-3.2m-3.1 0.6c0 3 1.9 4.4 3.4 5.7 1.1 1 2.3 0.6 3.5 0.6 0.7 0.2 0.7 2.8 2 2.6 0.5 0 1.2-0.6 1.2-1-0.9-6.9-1-14 0.7-20.4 0.1-0.8-0.6-1.4-0.9-1.6-0.7-0.4-1.6 0.4-2 1.4-0.5 1.4-0.2 3.5-0.9 4.3-2.3 2.5-7 3.3-7 8.4z" fill="#231F20"/>
<path d="m101.4 35.4c-0.3-2.5 2.2-3.7 3.8-3.7 0 2.3-0.6 4.5-0.3 6.9-1.6 0.7-3.3-1.2-3.5-3.2m-3.1 0.6c0 3 1.9 4.4 3.4 5.7 1.1 1 2.3 0.6 3.5 0.6 0.7 0.2 0.7 2.8 2 2.6 0.5 0 1.2-0.6 1.2-1-0.9-6.9-1-14 0.7-20.4 0.1-0.8-0.6-1.4-0.9-1.6-0.7-0.4-1.6 0.4-2 1.4-0.5 1.4-0.2 3.5-0.9 4.3-2.3 2.5-7 3.3-7 8.4z" fill="#231F20"/>
<path d="m110.5 26.1c0.6-1.2 2.2-1.4 2.7 0 0.7 2 0.2 4.5 0.5 6.9 0.2 0.6 0.5 0 0.6-0.2 0.9-2.6 1.5-5.6 3.3-7.1 0.8-0.6 2.7-0.2 2 1.6-1.6 4-3.8 7.9-4.1 12.7-0.2 2.9-2.3 11.2-3.8 13.8-1.1 1.8-3.8 2-4.6 0-0.5-1.2-0.9-3 0.2-3.8 0.8-0.6 1.8 0.4 2 1.6 2.1-2.2 2.4-6.6 2.9-10.1 0.3-2.2-1.1-4-1.2-6-0.2-2.2-0.5-4.3-0.6-6.5-0.1-1.1-0.3-2.3 0.1-2.9" fill="#231F20"/>
<path d="m127 25.8c0 0.4-0.1 0.9-0.3 1.2-0.2 0.4-0.5 0.7-0.9 0.9s-0.8 0.3-1.2 0.3-0.9-0.1-1.2-0.3c-0.4-0.2-0.7-0.5-0.9-0.9s-0.3-0.8-0.3-1.2 0.1-0.9 0.3-1.2c0.2-0.4 0.5-0.7 0.9-0.9s0.8-0.3 1.2-0.3 0.9 0.1 1.2 0.3c0.4 0.2 0.7 0.5 0.9 0.9 0.2 0.3 0.3 0.7 0.3 1.2m-0.5 0c0-0.5-0.2-1-0.6-1.4s-0.9-0.6-1.4-0.6-1 0.2-1.4 0.6-0.6 0.9-0.6 1.4 0.2 1 0.6 1.4c0.4 0.4 0.9 0.6 1.4 0.6s1-0.2 1.4-0.6 0.6-0.9 0.6-1.4zm-3.1-1.4h1.2c0.3 0 0.6 0.1 0.7 0.2 0.2 0.1 0.2 0.3 0.2 0.5s-0.1 0.3-0.2 0.5c-0.1 0.1-0.3 0.2-0.5 0.3 0.1 0 0.2 0.1 0.2 0.1 0.1 0.1 0.1 0.2 0.2 0.3 0 0 0.1 0.3 0.4 0.8h-0.8c-0.3-0.5-0.4-0.8-0.5-0.9s-0.2-0.2-0.3-0.2h-0.1v1.1h-0.7v-2.7zm0.7 1.2h0.3c0.2 0 0.3 0 0.4-0.1s0.1-0.1 0.1-0.2 0-0.2-0.1-0.2c-0.1-0.1-0.2-0.1-0.4-0.1h-0.3v0.6z" fill="#231F20"/>
</svg>
