<?xml version="1.0" encoding="UTF-8" standalone="no"?>
<svg xmlns="http://www.w3.org/2000/svg" xml:space="preserve" xmlns:dc="http://purl.org/dc/elements/1.1/" y="0px" xmlns:rdf="http://www.w3.org/1999/02/22-rdf-syntax-ns#" viewBox="0 0 568.291 144" height="144px" enable-background="new 0 0 568.291 144" x="0px" xmlns:cc="http://creativecommons.org/ns#" version="1.1" width="568.29px"><metadata><rdf:RDF><cc:Work rdf:about=""><dc:format>image/svg+xml</dc:format><dc:type rdf:resource="http://purl.org/dc/dcmitype/StillImage"/></cc:Work></rdf:RDF></metadata>
				<path fill="#0077B5" d="m557.63 0h-122.71c-5.864 0-10.629 4.648-10.629 10.376v123.23c0 5.734 4.765 10.39 10.629 10.39h122.72c5.874 0 10.659-4.655 10.659-10.39v-123.23c-0.01-5.732-4.79-10.38-10.67-10.38z"/>
				<path fill="#fff" d="m445.64 53.985h21.359v68.722h-21.359v-68.725zm10.68-34.16c6.828 0 12.377 5.549 12.377 12.38 0 6.837-5.549 12.386-12.377 12.386-6.846 0-12.387-5.549-12.387-12.386 0.01-6.83 5.55-12.38 12.39-12.38"/>
				<path fill="#fff" d="m480.39 53.985h20.485v9.39h0.286c2.852-5.403 9.818-11.099 20.209-11.099 21.628 0 25.621 14.234 25.621 32.736v37.694h-21.344v-33.42c0-7.969-0.146-18.22-11.099-18.22-11.113 0-12.819 8.681-12.819 17.644v33.996h-21.34v-68.725z"/>
</svg>
