<?xml version="1.0" encoding="UTF-8" standalone="no"?>
<!DOCTYPE svg  PUBLIC '-//W3C//DTD SVG 1.1//EN'  'http://www.w3.org/Graphics/SVG/1.1/DTD/svg11.dtd'>
<svg x="0px" y="0px" height="144px" enable-background="new 0 0 568.291 144" xmlns="http://www.w3.org/2000/svg" width="568.29px" version="1.1" xml:space="preserve" viewBox="0 0 568.291 144">
					<polygon fill="#fff" points="0 21.297 22.215 21.297 22.215 102.21 63.342 102.21 63.342 122.7 0 122.7"/>
						<path fill="#fff" d="m73.154 53.955h21.352v68.721h-21.352v-68.725zm10.676-34.161c6.837 0 12.386 5.549 12.386 12.38 0 6.843-5.549 12.376-12.386 12.376-6.829 0-12.378-5.534-12.378-12.376-0.001-6.83 5.548-12.38 12.378-12.38"/>
					<polygon fill="#fff" points="183.76 21.29 205.1 21.29 205.1 81.897 229.28 53.924 255.44 53.924 227.44 85.742 254.86 122.7 228.03 122.7 205.38 88.732 205.1 88.732 205.1 122.7 183.76 122.7"/>
					<path fill="#fff" d="m106.31 53.964h20.495v9.394h0.286c2.844-5.409 9.82-11.1 20.209-11.1 21.638 0 25.622 14.232 25.622 32.731v37.687h-21.351v-33.417c0-7.974-0.146-18.217-11.107-18.217-11.1 0-12.802 8.684-12.802 17.647v33.983h-21.351v-68.716z"/>
					<path fill="#fff" d="m300.39 80.326c0.14-7.117-5.411-13.096-13.104-13.096-9.389 0-14.517 6.405-15.08 13.096h28.18zm18.07 30.454c-6.833 8.684-18.071 13.671-29.179 13.671-21.346 0-38.427-14.241-38.427-36.302 0-22.058 17.082-36.29 38.427-36.29 19.942 0 32.456 14.231 32.456 36.29v6.69h-49.531c1.695 8.114 7.825 13.38 16.082 13.38 6.977 0 11.67-3.56 15.229-8.399l14.94 10.959z"/>
					<path fill="#fff" d="m366.2 70.573c-10.667 0-17.07 7.122-17.07 17.503 0 10.399 6.403 17.507 17.07 17.507 10.683 0 17.09-7.107 17.09-17.507 0-10.379-6.41-17.5-17.09-17.5m36.74 52.087h-19.646v-9.112h-0.277c-3.284 4.98-11.532 10.819-21.214 10.819-20.502 0-34.021-14.797-34.021-35.723 0-19.217 11.955-36.866 31.596-36.866 8.833 0 17.086 2.417 21.927 9.108h0.277v-39.599h21.359v101.37z"/>
				<path fill="#0077B5" d="m557.63 0h-122.71c-5.864 0-10.629 4.648-10.629 10.376v123.23c0 5.734 4.765 10.39 10.629 10.39h122.72c5.874 0 10.659-4.655 10.659-10.39v-123.23c-0.01-5.732-4.79-10.38-10.67-10.38z"/>
				<path fill="#fff" d="m445.64 53.985h21.359v68.722h-21.359v-68.725zm10.68-34.16c6.828 0 12.377 5.549 12.377 12.38 0 6.837-5.549 12.386-12.377 12.386-6.846 0-12.387-5.549-12.387-12.386 0.01-6.83 5.55-12.38 12.39-12.38"/>
				<path fill="#fff" d="m480.39 53.985h20.485v9.39h0.286c2.852-5.403 9.818-11.099 20.209-11.099 21.628 0 25.621 14.234 25.621 32.736v37.694h-21.344v-33.42c0-7.969-0.146-18.22-11.099-18.22-11.113 0-12.819 8.681-12.819 17.644v33.996h-21.34v-68.725z"/>
</svg>
