<?xml version="1.0" encoding="UTF-8" standalone="no"?>
<svg
   xmlns="http://www.w3.org/2000/svg"
   width="94"
   height="95"
   stroke="#005395"
   stroke-linejoin="bevel"
   stroke-width="2px"
   version="1.1"
   opacity="0.15">
  <path
     fill="#005395"
     d="m 47 1 23 9 0 22 23 9 0 44 -23 9 -23 -9 -23 9 -23 -9 0 -44 23 -9 0 -22 z" />
  <path
     fill="white"
     d="m 47 1 23 9 0 22 -23 -9 z m 0 22 23 9 -23 9 -23 -9 z m -23 9 23 9 0 22 -23 -9 z m 0 22 23 9 -23 9 -23 -9 z m -23 9 23 9 0 22 -23 -9 z m 69 -31 23 9 0 22 -23 -9 z m 0 22 23 9 -23 9 -23 -9 z m -23 9 23 9 0 22 -23 -9 z" />
</svg>
