<?xml version="1.0" encoding="UTF-8" standalone="no"?>
<!DOCTYPE svg  PUBLIC '-//W3C//DTD SVG 1.1//EN'  'http://www.w3.org/Graphics/SVG/1.1/DTD/svg11.dtd'>
<svg y="0px" x="0px" enable-background="new 0 0 300 120" version="1.1" viewBox="0 0 300 120" xml:space="preserve" xmlns="http://www.w3.org/2000/svg">
<path fill="#C9C9CA" d="m150.82 6.461c-80.34 0-144.74 24.082-144.74 54.276 0 30.013 64.933 54.28 144.75 54.28s144.76-24.349 144.76-54.28c-0.01-29.929-64.95-54.279-144.77-54.279m143.88 50.084c0.052 0.265 0.089 0.533 0.134 0.79-0.04-0.256-0.09-0.522-0.13-0.79"/>
<radialGradient id="o" gradientTransform="matrix(1 0 0 .5079 0 91.31)" cy="185.55" cx="149.87" gradientUnits="userSpaceOnUse" r="623.71">
	<stop stop-color="#00082E" offset="0"/>
	<stop stop-color="#000A30" offset=".1549"/>
	<stop stop-color="#010F39" offset=".242"/>
	<stop stop-color="#011946" offset=".3122"/>
	<stop stop-color="#02275A" offset=".3731"/>
	<stop stop-color="#03346C" offset=".4143"/>
	<stop stop-color="#0B4F87" offset=".4393"/>
	<stop stop-color="#1676AF" offset=".4804"/>
	<stop stop-color="#1C8EC7" offset=".5132"/>
	<stop stop-color="#1F97D0" offset=".5333"/>
	<stop stop-color="#1F97D0" offset="1"/>
</radialGradient>
<path fill="url(#o)" d="m150.83 8.628c-78.745 0-142.53 23.277-142.53 52.08 0 28.79 63.788 52.081 142.53 52.081 78.757 0 142.53-23.291 142.53-52.081 0-28.803-63.78-52.081-142.53-52.081"/>
<linearGradient id="h" gradientTransform="matrix(0 -33.76 -33.76 0 13980 -8567.5)" x2="-253.95" x1="-257.22" y1="409.62" gradientUnits="userSpaceOnUse" y2="409.62">
	<stop stop-color="#00082E" offset="0"/>
	<stop stop-color="#010A30" offset=".3209"/>
	<stop stop-color="#030F39" offset=".5013"/>
	<stop stop-color="#071846" offset=".6468"/>
	<stop stop-color="#0D245A" offset=".773"/>
	<stop stop-color="#0F2961" offset=".809"/>
	<stop stop-color="#0B386E" offset=".8386"/>
	<stop stop-color="#054E83" offset=".8962"/>
	<stop stop-color="#015B90" offset=".9511"/>
	<stop stop-color="#006094" offset="1"/>
</linearGradient>
<path fill="url(#h)" d="m151.48 19.549c66.949 0 122.23 16.357 130.67 37.526v-0.003c-5.641-22.272-62.278-39.768-131.33-39.768-72.787 0-131.79 19.435-131.79 43.421 0 1.955 0.393 3.875 1.149 5.762-0.326-1.242-0.495-2.497-0.495-3.772 0.001-23.837 59.004-43.166 131.8-43.166z"/>
<linearGradient id="g" gradientTransform="matrix(0 -33.76 -33.76 0 13980 -8567.5)" x2="-253.95" x1="-257.22" y1="409.58" gradientUnits="userSpaceOnUse" y2="409.58">
	<stop stop-color="#00082E" offset="0"/>
	<stop stop-color="#010A30" offset=".3209"/>
	<stop stop-color="#030F39" offset=".5013"/>
	<stop stop-color="#071846" offset=".6468"/>
	<stop stop-color="#0D245A" offset=".773"/>
	<stop stop-color="#0F2961" offset=".809"/>
	<stop stop-color="#0B386E" offset=".8386"/>
	<stop stop-color="#054E83" offset=".8962"/>
	<stop stop-color="#015B90" offset=".9511"/>
	<stop stop-color="#006094" offset="1"/>
</linearGradient>
<path fill="url(#g)" d="m286.52 55.292c0.583 1.788 0.873 3.594 0.873 5.433 0 26.257-61.148 47.541-136.58 47.541-67.132 0-122.94-16.862-134.43-39.063 8.713 23.076 65.786 40.903 134.97 40.977h0.837c75.238-0.074 136.17-21.142 136.17-47.138 0-2.636-0.62-5.232-1.84-7.75z"/>
<linearGradient id="f" gradientTransform="matrix(0 -23.735 -23.735 0 9967.2 -6072)" x2="-256.66" x1="-259.93" y1="412.54" gradientUnits="userSpaceOnUse" y2="412.54">
	<stop stop-color="#00082E" offset="0"/>
	<stop stop-color="#010A30" offset=".3209"/>
	<stop stop-color="#030F39" offset=".5013"/>
	<stop stop-color="#071846" offset=".6468"/>
	<stop stop-color="#0D245A" offset=".773"/>
	<stop stop-color="#0F2961" offset=".809"/>
	<stop stop-color="#0B386E" offset=".8386"/>
	<stop stop-color="#054E83" offset=".8962"/>
	<stop stop-color="#015B90" offset=".9511"/>
	<stop stop-color="#006094" offset="1"/>
</linearGradient>
<path fill="url(#f)" d="m177.1 68.042c-0.301-0.763-0.357-1.622-0.183-2.473 0.061-0.303-0.329-0.577-0.651-0.246-3.057 3.189-3.286 7.313-1.282 9.165 0.715 0.667 1.538 0.964 2.416 1.02-1.32-1.656-1.93-4.902-0.31-7.466z"/>
<linearGradient id="e" gradientTransform="matrix(0 -23.681 -23.681 0 9955.6 -6058.5)" x2="-256.71" x1="-259.94" y1="411.61" gradientUnits="userSpaceOnUse" y2="411.61">
	<stop stop-color="#00082E" offset="0"/>
	<stop stop-color="#010A30" offset=".3209"/>
	<stop stop-color="#030F39" offset=".5013"/>
	<stop stop-color="#071846" offset=".6468"/>
	<stop stop-color="#0D245A" offset=".773"/>
	<stop stop-color="#0F2961" offset=".809"/>
	<stop stop-color="#0B386E" offset=".8386"/>
	<stop stop-color="#054E83" offset=".8962"/>
	<stop stop-color="#015B90" offset=".9511"/>
	<stop stop-color="#006094" offset="1"/>
</linearGradient>
<path fill="url(#e)" d="m208.09 74.182h0.003c0.158-0.302 0.314-0.622 0.479-0.964 0.128-0.262 0.064-0.336-0.044-0.38-0.316-0.114-0.639-0.353-0.684-0.601-0.019-0.045-0.024-0.088-0.028-0.139 0.003 0.015 0.004 0.02 0.004 0.027 0.04 0.478 0.17 1.384 0.27 2.057z"/>
<linearGradient id="d" gradientTransform="matrix(0 -23.681 -23.681 0 9956.9 -6058.4)" x2="-256.7" x1="-259.94" y1="411.47" gradientUnits="userSpaceOnUse" y2="411.47">
	<stop stop-color="#00082E" offset="0"/>
	<stop stop-color="#010A30" offset=".3209"/>
	<stop stop-color="#030F39" offset=".5013"/>
	<stop stop-color="#071846" offset=".6468"/>
	<stop stop-color="#0D245A" offset=".773"/>
	<stop stop-color="#0F2961" offset=".809"/>
	<stop stop-color="#0B386E" offset=".8386"/>
	<stop stop-color="#054E83" offset=".8962"/>
	<stop stop-color="#015B90" offset=".9511"/>
	<stop stop-color="#006094" offset="1"/>
</linearGradient>
<path fill="url(#d)" d="m211.56 61.693c1.021 0.978 1.642 2.166 1.76 3.257 0.045 0.517 0.438 0.576 0.76 0.124 0.083-0.124 0.179-0.277 0.293-0.449-0.089-0.125-0.185-0.245-0.277-0.364-0.44-0.527-1.5-1.672-2.53-2.568z"/>
<linearGradient id="c" gradientTransform="matrix(0 -23.696 -23.696 0 9950 -6062.2)" x2="-256.68" x1="-259.95" y1="412.71" gradientUnits="userSpaceOnUse" y2="412.71">
	<stop stop-color="#00082E" offset="0"/>
	<stop stop-color="#010A30" offset=".3209"/>
	<stop stop-color="#030F39" offset=".5013"/>
	<stop stop-color="#071846" offset=".6468"/>
	<stop stop-color="#0D245A" offset=".773"/>
	<stop stop-color="#0F2961" offset=".809"/>
	<stop stop-color="#0B386E" offset=".8386"/>
	<stop stop-color="#054E83" offset=".8962"/>
	<stop stop-color="#015B90" offset=".9511"/>
	<stop stop-color="#006094" offset="1"/>
</linearGradient>
<path fill="url(#c)" d="m169.19 59.684c0.819 1.12 1.202 2.722 1.145 4.77-0.013 0.533 0.373 0.496 0.626 0.134 0.142-0.201 0.272-0.379 0.404-0.561v-0.015c-0.6-1.838-1.52-3.642-2.18-4.328z"/>
<linearGradient id="b" gradientTransform="matrix(0 -23.712 -23.712 0 9965.8 -6066.3)" x2="-256.68" x1="-259.94" y1="411.8" gradientUnits="userSpaceOnUse" y2="411.8">
	<stop stop-color="#00082E" offset="0"/>
	<stop stop-color="#010A30" offset=".3209"/>
	<stop stop-color="#030F39" offset=".5013"/>
	<stop stop-color="#071846" offset=".6468"/>
	<stop stop-color="#0D245A" offset=".773"/>
	<stop stop-color="#0F2961" offset=".809"/>
	<stop stop-color="#0B386E" offset=".8386"/>
	<stop stop-color="#054E83" offset=".8962"/>
	<stop stop-color="#015B90" offset=".9511"/>
	<stop stop-color="#006094" offset="1"/>
</linearGradient>
<path fill="url(#b)" d="m207.28 65.103c-2.523-1.211-6.37 1.01-9.852 5.295-2.853 3.504-4.391 7.068-4.445 10.542-0.022 1.238 0.447 2.766 1.538 3.326 0.354 0.193 0.712 0.318 1.089 0.377-0.132-0.494-0.188-0.978-0.191-1.396-0.042-3.585 1.072-7.165 3.932-10.673 3.456-4.264 7.094-6.389 9.618-5.214-0.13-0.94-0.62-1.749-1.69-2.257z"/>
<linearGradient id="a" gradientTransform="matrix(0 -23.658 -23.658 0 9923.7 -6052.8)" x2="-256.69" x1="-259.96" y1="413.79" gradientUnits="userSpaceOnUse" y2="413.79">
	<stop stop-color="#00082E" offset="0"/>
	<stop stop-color="#010A30" offset=".3209"/>
	<stop stop-color="#030F39" offset=".5013"/>
	<stop stop-color="#071846" offset=".6468"/>
	<stop stop-color="#0D245A" offset=".773"/>
	<stop stop-color="#0F2961" offset=".809"/>
	<stop stop-color="#0B386E" offset=".8386"/>
	<stop stop-color="#054E83" offset=".8962"/>
	<stop stop-color="#015B90" offset=".9511"/>
	<stop stop-color="#006094" offset="1"/>
</linearGradient>
<path fill="url(#a)" d="m131.85 72.206c2.658-3.604 5.652-4.965 9.066-6.442 0.45-0.198 0.504-0.452 0.418-0.849-0.146-0.679-0.62-2.368-0.765-2.774 0.108 0.371 0.012 0.655-0.432 0.82-3.874 1.471-7.758 3.755-10.445 7.353-3.048 4.085-3.865 8.996-1.829 11.826 0.485 0.663 1.063 1.154 1.701 1.473-1.11-3.378-0.31-7.911 2.28-11.407z"/>
<linearGradient id="y" gradientTransform="matrix(0 -23.687 -23.687 0 9945.3 -6059.9)" x2="-256.68" x1="-259.95" y1="412.8" gradientUnits="userSpaceOnUse" y2="412.8">
	<stop stop-color="#00082E" offset="0"/>
	<stop stop-color="#010A30" offset=".3209"/>
	<stop stop-color="#030F39" offset=".5013"/>
	<stop stop-color="#071846" offset=".6468"/>
	<stop stop-color="#0D245A" offset=".773"/>
	<stop stop-color="#0F2961" offset=".809"/>
	<stop stop-color="#0B386E" offset=".8386"/>
	<stop stop-color="#054E83" offset=".8962"/>
	<stop stop-color="#015B90" offset=".9511"/>
	<stop stop-color="#006094" offset="1"/>
</linearGradient>
<path fill="url(#y)" d="m151.35 93.582c2.619 0 5.837 0 8.016-0.011 0.323-0.018 0.553-0.203 0.723-0.445 3.255-5.098 6.732-10.633 10.056-15.737 0.73 2.575 1.104 3.773 2.46 4.986 1.382 1.234 2.659 1.556 4.538 1.574 1.707 0.021 3.389-0.662 5.39-1.493 0.715-0.297 1.359-0.668 1.935-1.039 0-0.947 0.096-1.898 0.265-2.803 0.013-0.098-0.083-0.727-0.619-0.354-0.923 0.664-2.126 1.392-3.622 1.947-1.844 0.688-2.703 0.948-4.41 0.929-2.148-0.016-4.082-0.929-5.444-3.053-0.76-1.147-1.076-2.895-1.148-4.179-0.01-0.141-0.195-0.39-0.396-0.068-3.609 5.516-6.979 10.845-10.56 16.448-0.186 0.263-0.348 0.434-0.719 0.449-2.214 0-4.637-0.006-7.075 0.007-0.255 0-0.438-0.118-0.492-0.294 0.192 0.855 0.504 2.404 0.587 2.764 0.05 0.243 0.24 0.372 0.51 0.372z"/>
<linearGradient id="x" gradientTransform="matrix(0 -23.887 -23.887 0 10038 -6109.9)" x2="-256.6" x1="-259.87" y1="411.51" gradientUnits="userSpaceOnUse" y2="411.51">
	<stop stop-color="#00082E" offset="0"/>
	<stop stop-color="#010A30" offset=".3209"/>
	<stop stop-color="#030F39" offset=".5013"/>
	<stop stop-color="#071846" offset=".6468"/>
	<stop stop-color="#0D245A" offset=".773"/>
	<stop stop-color="#0F2961" offset=".809"/>
	<stop stop-color="#0B386E" offset=".8386"/>
	<stop stop-color="#054E83" offset=".8962"/>
	<stop stop-color="#015B90" offset=".9511"/>
	<stop stop-color="#006094" offset="1"/>
</linearGradient>
<path fill="url(#x)" d="m186.39 90.532c0.605 1.159 1.959 2.46 2.782 2.871 4.694 2.313 11.396-0.31 15.701-4.449 0.042-0.056 0.051-0.06 0.115-0.128 0.197 0.745 0.438 1.646 0.472 1.771 0.294 0.961 0.754 1.834 1.158 2.298 2.946 3.327 9.198 1.813 15.705-3.223 3.638-2.81 6.335-5.636 9.638-9.479 0.131-0.16 0.121-0.396 0.045-0.755-0.188-0.836-0.485-2.348-0.651-3.11h-0.001c0 0.134-0.06 0.258-0.127 0.349-3.449 4.206-7.261 8.181-10.908 10.993-5.67 4.392-11.329 5.507-14.127 2.693-1.047-1.046-1.619-2.543-1.688-3.813-0.035-0.688-0.383-0.72-0.712-0.398-3.341 3.31-9.152 6.976-14.447 4.365-2.731-1.347-4.155-3.876-4.666-6.66 0.004 0.029 0.014 0.065 0.021 0.094 0.35 1.975 0.78 4.822 1.71 6.581z"/>
<linearGradient id="w" gradientTransform="matrix(0 -23.827 -23.827 0 10006 -6094.9)" x2="-256.63" x1="-259.89" y1="412.3" gradientUnits="userSpaceOnUse" y2="412.3">
	<stop stop-color="#00082E" offset="0"/>
	<stop stop-color="#010A30" offset=".3209"/>
	<stop stop-color="#030F39" offset=".5013"/>
	<stop stop-color="#071846" offset=".6468"/>
	<stop stop-color="#0D245A" offset=".773"/>
	<stop stop-color="#0F2961" offset=".809"/>
	<stop stop-color="#0B386E" offset=".8386"/>
	<stop stop-color="#054E83" offset=".8962"/>
	<stop stop-color="#015B90" offset=".9511"/>
	<stop stop-color="#006094" offset="1"/>
</linearGradient>
<path fill="url(#w)" d="m184.05 72.574c1.743-0.944 3.274-2.944 3.083-6.187-0.1-1.616-0.568-3.28-1.324-4.622 0.514 0.979 0.728 2.12 0.546 3.321-0.333 2.093-1.469 3.942-3.399 4.896-1.634 0.801-3.545 0.66-4.882-0.533-0.419-0.378-0.722-0.84-0.936-1.323 0.345 1.582 0.645 2.745 1.057 3.368 1.26 1.9 3.44 2.381 5.85 1.08z"/>
<linearGradient id="v" gradientTransform="matrix(0 -23.665 -23.665 0 9953.8 -6054.3)" x2="-256.69" x1="-259.96" y1="411.14" gradientUnits="userSpaceOnUse" y2="411.14">
	<stop stop-color="#00082E" offset="0"/>
	<stop stop-color="#010A30" offset=".3209"/>
	<stop stop-color="#030F39" offset=".5013"/>
	<stop stop-color="#071846" offset=".6468"/>
	<stop stop-color="#0D245A" offset=".773"/>
	<stop stop-color="#0F2961" offset=".809"/>
	<stop stop-color="#0B386E" offset=".8386"/>
	<stop stop-color="#054E83" offset=".8962"/>
	<stop stop-color="#015B90" offset=".9511"/>
	<stop stop-color="#006094" offset="1"/>
</linearGradient>
<path fill="url(#v)" d="m235.87 45.17c-1.099 1.902-22.301 34.182-23.642 37.521-0.424 1.056-0.473 1.866-0.042 2.448 0.438 0.585 1.076 0.808 1.801 0.796 0.073-0.407 0.229-0.867 0.421-1.351 1.34-3.349 21.197-33.526 22.288-35.435 0.089-0.163 0.057-0.346 0.028-0.468-0.063-0.303-0.729-3.511-0.795-3.812 0 0.085-0.01 0.191-0.07 0.301z"/>
<linearGradient id="u" gradientTransform="matrix(0 -23.691 -23.691 0 9941.6 -6061)" x2="-256.68" x1="-259.95" y1="413.32" gradientUnits="userSpaceOnUse" y2="413.32">
	<stop stop-color="#00082E" offset="0"/>
	<stop stop-color="#010A30" offset=".3209"/>
	<stop stop-color="#030F39" offset=".5013"/>
	<stop stop-color="#071846" offset=".6468"/>
	<stop stop-color="#0D245A" offset=".773"/>
	<stop stop-color="#0F2961" offset=".809"/>
	<stop stop-color="#0B386E" offset=".8386"/>
	<stop stop-color="#054E83" offset=".8962"/>
	<stop stop-color="#015B90" offset=".9511"/>
	<stop stop-color="#006094" offset="1"/>
</linearGradient>
<path fill="url(#u)" d="m147.86 60.193c0.06 0.067 0.111 0.133 0.165 0.201 1.276 1.899 1.972 4.572 2.042 7.333 0.076 0.582 0.325 0.595 0.606 0.297 0.259-0.263 0.511-0.541 0.759-0.81-0.373-1.484-0.951-2.817-1.547-4.102-0.21-0.466-1.18-2.13-2.02-2.919z"/>
<linearGradient id="t" gradientTransform="matrix(0 -23.682 -23.682 0 9934.4 -6058.8)" x2="-256.69" x1="-259.95" y1="413.68" gradientUnits="userSpaceOnUse" y2="413.68">
	<stop stop-color="#00082E" offset="0"/>
	<stop stop-color="#010A30" offset=".3209"/>
	<stop stop-color="#030F39" offset=".5013"/>
	<stop stop-color="#071846" offset=".6468"/>
	<stop stop-color="#0D245A" offset=".773"/>
	<stop stop-color="#0F2961" offset=".809"/>
	<stop stop-color="#0B386E" offset=".8386"/>
	<stop stop-color="#054E83" offset=".8962"/>
	<stop stop-color="#015B90" offset=".9511"/>
	<stop stop-color="#006094" offset="1"/>
</linearGradient>
<path fill="url(#t)" d="m113.65 90.365c0.386 0.195 0.785 0.017 0.977-0.089 1.293-0.663 3.811-2.598 4.896-3.951 0.329-0.306 0.645-0.097 0.75 0.23 0.453 1.435 1.117 2.542 1.861 3.721 0.81 1.312 2.438 2.671 4.547 3.249 2.731 0.764 5.674 0.901 9.545-0.578 3.105-1.187 6.357-3.609 8.858-6.328 3.003-3.257 4.088-5.346 5.225-6.771 1.947-2.41 4.978-6.679 9.226-10.303 1.487-1.269 3.114-2.095 4.133-1.696 0.616-1.581 0.325-2.454-0.329-2.875-0.995-0.648-2.983 0.325-4.662 1.604-4.573 3.464-8.416 8.862-10.362 11.275-1.149 1.421-2.23 3.514-5.228 6.77-4.713 5.117-10.962 8.056-16.99 6.027-3.29-1.107-5.671-3.752-6.577-7.001-0.182-0.627-0.533-0.804-0.875-0.389-0.973 1.216-2.964 3.003-4.627 4.128-0.182 0.131-0.632 0.398-1.018 0.205-0.348-0.157-1.583-1.901-1.825-2.404-0.032-0.05-0.051-0.114-0.061-0.167v0.022c0.434 2.147 0.488 2.396 1.075 3.388 0.65 1.096 1.3 1.871 1.45 1.933z"/>
<linearGradient id="s" gradientTransform="matrix(0 -23.663 -23.663 0 9908.7 -6053.9)" x2="-256.69" x1="-259.96" y1="415.4" gradientUnits="userSpaceOnUse" y2="415.4">
	<stop stop-color="#00082E" offset="0"/>
	<stop stop-color="#010A30" offset=".3209"/>
	<stop stop-color="#030F39" offset=".5013"/>
	<stop stop-color="#071846" offset=".6468"/>
	<stop stop-color="#0D245A" offset=".773"/>
	<stop stop-color="#0F2961" offset=".809"/>
	<stop stop-color="#0B386E" offset=".8386"/>
	<stop stop-color="#054E83" offset=".8962"/>
	<stop stop-color="#015B90" offset=".9511"/>
	<stop stop-color="#006094" offset="1"/>
</linearGradient>
<path fill="url(#s)" d="m77.297 71.087c1.522-3.069 3.664-4.535 5.77-5.866 0.906-0.574 1.308-1.13 0.769-2.626-0.153-0.426-0.239-1.194-0.409-1.874 0.054 0.664-0.274 1.235-0.861 1.54-2.572 1.313-5.668 3.562-7.196 6.63-1.242 2.5-1.494 5.525 0.398 8.399 0.159 0.23 0.331 0.461 0.521 0.674h0.002c-0.608-2.386 0.046-4.956 1.006-6.877z"/>
<linearGradient id="r" gradientTransform="matrix(0 -23.887 -23.887 0 10009 -6109.6)" x2="-256.61" x1="-259.88" y1="414.26" gradientUnits="userSpaceOnUse" y2="414.26">
	<stop stop-color="#00082E" offset="0"/>
	<stop stop-color="#010A30" offset=".3209"/>
	<stop stop-color="#030F39" offset=".5013"/>
	<stop stop-color="#071846" offset=".6468"/>
	<stop stop-color="#0D245A" offset=".773"/>
	<stop stop-color="#0F2961" offset=".809"/>
	<stop stop-color="#0B386E" offset=".8386"/>
	<stop stop-color="#054E83" offset=".8962"/>
	<stop stop-color="#015B90" offset=".9511"/>
	<stop stop-color="#006094" offset="1"/>
</linearGradient>
<path fill="url(#r)" d="m103.63 33.82c9.351-3.084 19.777-1.134 28.15 0.658 1.171-0.732 2.196-1.237 3.223-1.799 0.511-0.268-0.061-0.587-0.22-0.587-10.809-2.029-22.042-4.661-32.775-0.686-7.436 2.776-10.697 8.672-9.124 12.61 0.3 0.751 0.779 1.335 1.404 1.75-0.516-3.632 2.206-9.582 9.35-11.946z"/>
<linearGradient id="q" gradientTransform="matrix(0 -23.676 -23.676 0 9921.4 -6057.1)" x2="-256.69" x1="-259.96" y1="414.67" gradientUnits="userSpaceOnUse" y2="414.67">
	<stop stop-color="#00082E" offset="0"/>
	<stop stop-color="#010A30" offset=".3209"/>
	<stop stop-color="#030F39" offset=".5013"/>
	<stop stop-color="#071846" offset=".6468"/>
	<stop stop-color="#0D245A" offset=".773"/>
	<stop stop-color="#0F2961" offset=".809"/>
	<stop stop-color="#0B386E" offset=".8386"/>
	<stop stop-color="#054E83" offset=".8962"/>
	<stop stop-color="#015B90" offset=".9511"/>
	<stop stop-color="#006094" offset="1"/>
</linearGradient>
<path fill="url(#q)" d="m73.215 90.338c3.067 2.16 6.083 2.876 9.605 2.94 7.152 0.124 13.685-2.829 20.613-9.86 6.651-6.75 12.408-16.181 18.085-25.531 0.188-0.329 0.389-0.476 1.34-0.6 3.562-0.439 6.753-0.642 9.899-0.938 0.938-0.088 1.653-0.174 1.995 0.166 1.136 1.137 2.458 2.176 3.332 2.684 0.581 0.006 1.069 0.134 1.41 0.44 0.367-0.048 0.702-0.252 0.919-0.463 0.408-0.399 0.424-0.866 0.357-1.262-0.141-0.777-0.351-2.307-0.6-2.752 0.172 0.338 0.061 0.817-0.278 1.2-0.249 0.284-0.638 0.552-1.133 0.546-0.409-0.009-0.651-0.15-1.165-0.431-1.059-0.568-2.371-1.506-3.252-2.615-0.297-0.372-0.45-0.382-1.2-0.34-3.364 0.196-8.613 0.7-12.172 1.147-0.858 0.108-0.986 0.268-1.165 0.563-5.671 9.353-11.725 19.436-18.373 26.188-7.129 7.24-13.059 9.14-19.349 9.192-7.259 0.049-13.718-4.063-15.356-11.289v0.002c0.866 4.036 3.467 8.894 6.47 11.013z"/>
<linearGradient id="p" gradientTransform="matrix(0 -23.766 -23.766 0 9957.9 -6079.5)" x2="-256.66" x1="-259.92" y1="414.56" gradientUnits="userSpaceOnUse" y2="414.56">
	<stop stop-color="#00082E" offset="0"/>
	<stop stop-color="#010A30" offset=".3209"/>
	<stop stop-color="#030F39" offset=".5013"/>
	<stop stop-color="#071846" offset=".6468"/>
	<stop stop-color="#0D245A" offset=".773"/>
	<stop stop-color="#0F2961" offset=".809"/>
	<stop stop-color="#0B386E" offset=".8386"/>
	<stop stop-color="#054E83" offset=".8962"/>
	<stop stop-color="#015B90" offset=".9511"/>
	<stop stop-color="#006094" offset="1"/>
</linearGradient>
<path fill="url(#p)" d="m100.03 58.915c-0.166-0.255-0.246-0.533-0.252-0.813-0.074 1.212 0.415 2.994 0.807 3.589 0.431 0.664 1.644 0.991 2.604 0.275 2.17-1.598 4.129-2.529 6.321-2.944 0.565-0.771 1.171-1.625 1.867-2.585 0.061-0.075 0.077-0.175 0.051-0.225-0.039-0.087-0.109-0.112-0.25-0.118-3.213 0.089-6.019 1.05-8.741 3.083-0.77 0.571-1.9 0.49-2.4-0.262z"/>
<linearGradient id="n" gradientTransform="matrix(0 -23.663 -23.663 0 9933 -6054)" x2="-256.69" x1="-259.96" y1="413.08" gradientUnits="userSpaceOnUse" y2="413.08">
	<stop stop-color="#00082E" offset="0"/>
	<stop stop-color="#010A30" offset=".3209"/>
	<stop stop-color="#030F39" offset=".5013"/>
	<stop stop-color="#071846" offset=".6468"/>
	<stop stop-color="#0D245A" offset=".773"/>
	<stop stop-color="#0F2961" offset=".809"/>
	<stop stop-color="#0B386E" offset=".8386"/>
	<stop stop-color="#054E83" offset=".8962"/>
	<stop stop-color="#015B90" offset=".9511"/>
	<stop stop-color="#006094" offset="1"/>
</linearGradient>
<path fill="url(#n)" d="m187.49 37.01c-4.496 2.467-9.193 3.212-14.103 3.255-11.875 0.097-22.938-4.53-34.383-7.016 0.016 0.499 0.147 1.098-0.274 1.414-6.338 4.674-12.069 9.425-15.909 16.092-0.127 0.156-0.057 0.3 0.166 0.284 1.012-0.046 1.991-0.091 2.956-0.144 3.497-5.478 7.238-8.618 12.95-12.834 0.428-0.324 0.855-0.549 0.715-1.768 11.479 2.549 20.21 6.771 35.034 6.81 4.424 0.014 10.663-1.46 14.017-3.48 3.858-2.32 4.883-4.026 5.023-5.829 0.045-0.563-0.103-1.399-0.195-1.83-0.131-0.611-0.217-1.39-0.392-1.971 0.06 0.237 0.086 0.503 0.066 0.796-0.14 2.074-1.74 4.067-5.69 6.221z"/>
<linearGradient id="m" gradientTransform="matrix(0 -23.717 -23.717 0 9948.3 -6067.3)" x2="-256.67" x1="-259.94" y1="413.64" gradientUnits="userSpaceOnUse" y2="413.64">
	<stop stop-color="#00082E" offset="0"/>
	<stop stop-color="#010A30" offset=".3209"/>
	<stop stop-color="#030F39" offset=".5013"/>
	<stop stop-color="#071846" offset=".6468"/>
	<stop stop-color="#0D245A" offset=".773"/>
	<stop stop-color="#0F2961" offset=".809"/>
	<stop stop-color="#0B386E" offset=".8386"/>
	<stop stop-color="#054E83" offset=".8962"/>
	<stop stop-color="#015B90" offset=".9511"/>
	<stop stop-color="#006094" offset="1"/>
</linearGradient>
<path fill="url(#m)" d="m137.89 44.749c-0.141 0.134-0.3 0.271-0.457 0.415-1.133 1.173-1.478 2.726-1.312 3.902 0.093 0.477 0.277 0.571 0.495 0.53 0.214-0.043 0.431-0.118 0.657-0.206 0.08-0.648 0.351-1.275 1.005-1.851 0.473-0.418 1.066-0.612 1.573-0.528 0.437-0.866 0.562-1.908 0.029-2.373-0.51-0.443-1.33-0.36-1.99 0.111z"/>
<linearGradient id="l" gradientTransform="matrix(0 -23.666 -23.666 0 9928.8 -6054.7)" x2="-256.69" x1="-259.96" y1="413.59" gradientUnits="userSpaceOnUse" y2="413.59">
	<stop stop-color="#00082E" offset="0"/>
	<stop stop-color="#010A30" offset=".3209"/>
	<stop stop-color="#030F39" offset=".5013"/>
	<stop stop-color="#071846" offset=".6468"/>
	<stop stop-color="#0D245A" offset=".773"/>
	<stop stop-color="#0F2961" offset=".809"/>
	<stop stop-color="#0B386E" offset=".8386"/>
	<stop stop-color="#054E83" offset=".8962"/>
	<stop stop-color="#015B90" offset=".9511"/>
	<stop stop-color="#006094" offset="1"/>
</linearGradient>
<path fill="url(#l)" d="m142.46 48.813c-1.089 2.083-2.885 3.193-4.608 3.732 0 0-0.361 0.082-0.307 0.412 0.042 0.37 1.264 1.144 2.027 1.687 0.111-0.03 0.277-0.091 0.277-0.091 0.884-0.351 2.358-1.25 3.21-3.115 0.546-1.203 0.843-2.148 0.606-4.212-0.172-1.441-0.463-2.742-0.849-3.415 0.74 1.509 0.44 3.446-0.36 5.002z"/>
<linearGradient id="k" gradientTransform="matrix(0 -23.672 -23.672 0 9918 -6056.1)" x2="-256.69" x1="-259.96" y1="414.83" gradientUnits="userSpaceOnUse" y2="414.83">
	<stop stop-color="#00082E" offset="0"/>
	<stop stop-color="#010A30" offset=".3209"/>
	<stop stop-color="#030F39" offset=".5013"/>
	<stop stop-color="#071846" offset=".6468"/>
	<stop stop-color="#0D245A" offset=".773"/>
	<stop stop-color="#0F2961" offset=".809"/>
	<stop stop-color="#0B386E" offset=".8386"/>
	<stop stop-color="#054E83" offset=".8962"/>
	<stop stop-color="#015B90" offset=".9511"/>
	<stop stop-color="#006094" offset="1"/>
</linearGradient>
<path fill="url(#k)" d="m110.55 41.375c-3.14 7.382-9.14 13.238-16.448 13.48-4.087 0.136-7.215-1.79-8.878-4.73 1.215 2.195 3.271 4.118 5.103 5.272 1.583 0.986 3.536 1.535 5.77 1.46 7.615-0.26 13.385-6.536 15.299-11.838 0.511-1.43 0.112-2.962-0.124-3.998-0.096-0.396-0.227-1.299-0.517-1.943h-0.003c0.21 0.531 0.21 1.313-0.21 2.297z"/>
<path fill="#4B4B4B" d="m150.82 6.461c-80.34 0-144.74 24.082-144.74 54.276 0 30.013 64.933 54.28 144.75 54.28s144.76-24.349 144.76-54.28c-0.01-29.929-64.95-54.279-144.77-54.279m-143.75 54.874c-0.029-6.352 2.77-12.663 8.658-18.604 20.722-20.903 75.018-35.031 134.85-35.275 79.269-0.33 143.87 23.306 144 52.688 0.028 6.353-2.939 12.58-8.827 18.516-20.725 20.908-74.854 35.124-134.69 35.364-79.255 0.33-143.86-23.299-143.99-52.685m287.63-4.79c0.052 0.265 0.089 0.533 0.134 0.79-0.04-0.256-0.09-0.522-0.13-0.79"/>
<linearGradient id="j" gradientTransform="matrix(-10.243 -38.228 -38.228 10.243 13206 -13782)" x2="-250.96" x1="-254.23" y1="410.45" gradientUnits="userSpaceOnUse" y2="410.45">
	<stop stop-color="#A5A5A6" offset="0"/>
	<stop stop-color="#D7D7D7" offset=".35"/>
	<stop stop-color="#D7D7D7" offset=".65"/>
	<stop stop-color="#A5A5A6" offset="1"/>
</linearGradient>
<path fill="url(#j)" d="m6.514 60.737c0 1.418 0.167 2.825 0.457 4.212-0.22-1.195-0.345-2.396-0.351-3.611-0.028-6.436 2.85-12.934 8.786-18.924 20.838-21.018 75.189-35.161 135.17-35.413 8.313-0.037 16.458 0.196 24.394 0.67-7.856-0.493-15.921-0.758-24.151-0.758-80.017 0-144.31 23.996-144.31 53.824z"/>
<linearGradient id="i" x2="173.5" x1="206.88" y1="71.964" gradientUnits="userSpaceOnUse" y2="-52.61">
	<stop stop-color="#A5A5A6" offset="0"/>
	<stop stop-color="#D7D7D7" offset=".35"/>
	<stop stop-color="#D7D7D7" offset=".65"/>
	<stop stop-color="#A5A5A6" offset="1"/>
</linearGradient>
<path fill="url(#i)" d="m286.08 78.995c-20.766 20.941-75.101 35.232-135.01 35.48-8.473 0.037-16.779-0.189-24.854-0.676 7.994 0.51 16.221 0.768 24.605 0.768 79.568 0 144.3-24.293 144.3-53.812 0-1.128-0.104-2.245-0.287-3.357 0.131 0.913 0.191 1.834 0.198 2.759 0.05 6.433-3.01 12.846-8.95 18.835"/>
<path fill="#fff" d="m150.82 13.184c-75.439 0-136.59 21.279-136.59 47.541 0 26.257 61.155 47.541 136.59 47.541 75.432 0 136.58-21.284 136.58-47.541 0-26.266-61.15-47.545-136.58-47.545zm0 90.966c-72.787 0-131.79-19.435-131.79-43.424 0-23.986 59-43.421 131.79-43.421 72.793 0 131.79 19.435 131.79 43.421-0.01 23.987-59 43.424-131.79 43.424z"/>
<path fill="#fff" d="m235.87 45.17c0.188-0.331-0.007-0.573-0.425-0.573-2.187 0-5.046 0.007-7.317 0.007-0.543 0-0.82 0.059-1.076 0.566-0.839 1.61-11.063 16.927-12.966 19.903-0.322 0.452-0.715 0.393-0.76-0.124-0.188-1.768-1.717-3.804-4.12-4.771-1.835-0.745-3.625-0.879-5.485-0.63-3.363 0.451-6.357 2.229-8.993 4.225-3.97 3.019-7.395 6.928-11.814 9.819-2.412 1.571-5.719 2.944-7.927 0.896-2.004-1.853-1.774-5.976 1.282-9.165 0.322-0.331 0.712-0.057 0.651 0.246-0.29 1.446 0.063 2.878 1.159 3.88 1.337 1.193 3.248 1.334 4.882 0.533 1.931-0.954 3.066-2.804 3.399-4.896 0.511-3.258-1.994-6.126-5.129-6.355-2.543-0.18-4.985 0.706-7.362 2.669-1.19 0.991-1.87 1.716-2.9 3.187-0.253 0.362-0.639 0.399-0.626-0.134 0.118-4.163-1.602-6.507-5.048-6.582-2.672-0.069-5.525 1.387-7.752 3.158-2.438 1.956-4.57 4.555-6.862 6.995-0.281 0.298-0.53 0.285-0.606-0.297-0.07-2.762-0.766-5.435-2.042-7.333-0.457-0.659-1.404-0.986-2.202-0.54-0.37 0.2-1.653 0.792-2.591 1.546-0.459 0.383-0.638 0.933-0.438 1.641 1.232 4.128 0.961 8.811-0.711 12.775-1.532 3.62-4.516 6.895-8.026 7.998-2.307 0.732-4.714 0.374-6.201-1.676-2.036-2.83-1.219-7.741 1.829-11.826 2.687-3.598 6.571-5.882 10.445-7.353 0.457-0.178 0.552-0.468 0.421-0.857-0.21-0.636-0.545-1.503-0.683-1.898-0.354-0.943-1.353-1.101-2.569-0.967-2.815 0.328-5.352 1.291-7.863 2.634-6.568 3.517-9.861 10.327-11.307 13.97-0.693 1.752-1.289 2.841-2.059 3.811-1.037 1.301-2.333 2.487-4.713 4.575-0.214 0.193-0.37 0.589-0.191 0.962 0.242 0.503 1.478 2.247 1.825 2.404 0.386 0.193 0.836-0.074 1.018-0.205 1.663-1.125 3.654-2.912 4.627-4.128 0.341-0.415 0.692-0.238 0.875 0.389 0.906 3.249 3.287 5.894 6.577 7.001 6.028 2.028 12.277-0.91 16.99-6.027 2.997-3.256 4.079-5.349 5.228-6.77 1.947-2.413 5.789-7.812 10.362-11.275 1.679-1.278 3.667-2.252 4.662-1.604 0.801 0.519 1.06 1.722-0.227 4.061-4.662 8.52-11.526 18.529-12.788 20.95-0.227 0.422-0.025 0.756 0.415 0.756 2.438-0.013 4.861-0.007 7.075-0.007 0.371-0.016 0.533-0.187 0.719-0.449 3.581-5.604 6.95-10.933 10.56-16.448 0.201-0.321 0.387-0.072 0.396 0.068 0.072 1.284 0.389 3.031 1.148 4.179 1.362 2.124 3.296 3.037 5.444 3.053 1.707 0.02 2.566-0.24 4.41-0.929 1.496-0.556 2.699-1.283 3.622-1.947 0.536-0.373 0.632 0.256 0.619 0.354-0.826 4.447 0.191 9.719 4.614 11.901 5.295 2.61 11.106-1.056 14.447-4.365 0.329-0.321 0.677-0.289 0.712 0.398 0.069 1.271 0.642 2.768 1.688 3.813 2.798 2.813 8.457 1.698 14.127-2.693 3.647-2.813 7.459-6.787 10.908-10.993 0.121-0.164 0.221-0.429-0.025-0.689-0.523-0.549-1.283-1.177-1.804-1.663-0.238-0.199-0.583-0.141-0.788 0.01-3.529 3.355-6.704 7.187-11.3 10.349-1.548 1.086-4.015 1.958-5.126 0.458-0.431-0.582-0.382-1.393 0.042-2.448 1.34-3.341 22.55-35.621 23.65-37.523m-28.03 27.068c0.045 0.248 0.367 0.486 0.684 0.601 0.108 0.044 0.172 0.118 0.044 0.38-0.899 1.934-1.727 3.045-2.859 4.726-1.037 1.549-2.211 2.762-3.625 3.925-2.138 1.768-5.109 3.692-7.563 2.397-1.091-0.561-1.561-2.088-1.538-3.326 0.055-3.474 1.593-7.038 4.445-10.542 3.481-4.285 7.328-6.506 9.852-5.295 2.61 1.246 1.777 4.269 0.609 6.647-0.08 0.18-0.08 0.339-0.04 0.487"/>
<path fill="#fff" d="m82.087 90.613c-7.905 0.056-14.865-4.833-15.666-13.287-0.443-4.684 0.881-8.865 3.533-12.304 2.352-3.068 6.338-5.614 9.702-6.238 1.101-0.199 2.575-0.069 3.185 0.656 0.954 1.112 0.676 2.338-0.274 2.821-2.572 1.313-5.668 3.562-7.196 6.63-1.242 2.5-1.494 5.525 0.398 8.399 3.179 4.79 12.025 4.925 20.252-2.719 2.039-1.873 3.861-3.67 5.719-5.796 3.622-4.148 4.825-5.659 9.641-12.339 0.061-0.075 0.077-0.175 0.051-0.225-0.039-0.087-0.109-0.112-0.25-0.118-3.213 0.089-6.019 1.05-8.741 3.083-0.785 0.571-1.915 0.49-2.409-0.262-0.549-0.851-0.156-1.961 0.75-2.585 4.381-3.046 9.171-3.601 14.061-4.428-0.003 0 0.342 0.013 0.619-0.357 2.007-2.574 3.523-4.898 5.665-7.506 2.157-2.641 4.94-5.064 7.069-6.892 2.971-2.556 4.876-3.415 6.81-4.468 0.511-0.268-0.061-0.587-0.22-0.587-10.809-2.029-22.042-4.661-32.775-0.686-7.436 2.776-10.697 8.672-9.124 12.61 1.11 2.794 4.787 3.247 8.227 1.565 2.856-1.399 5.499-3.654 7.378-6.56 1.047-1.613 3.255-0.45 2.062 2.354-3.14 7.382-9.14 13.238-16.448 13.48-6.223 0.206-10.238-4.369-10.222-10.016 0.022-11.138 12.424-18.473 25.451-19.572 15.691-1.294 30.553 2.886 46.129 4.775 11.939 1.444 23.383 1.473 35.379-1.281 1.417-0.308 2.416 0.595 2.32 2.028-0.118 2.072-1.721 4.065-5.671 6.22-4.496 2.467-9.193 3.212-14.103 3.255-11.875 0.097-22.938-4.53-34.383-7.016 0.016 0.499 0.147 1.098-0.274 1.414-6.338 4.674-12.069 9.425-15.909 16.092-0.127 0.156-0.057 0.3 0.166 0.284 3.332-0.174 6.332-0.258 9.44-0.507 0.542-0.045 0.562-0.179 0.517-0.578-0.274-2.298 0.396-4.921 2.418-6.726 2.068-1.853 4.66-2.064 6.376-0.732 1.953 1.524 1.781 4.262 0.715 6.317-1.089 2.083-2.885 3.193-4.608 3.732 0 0-0.361 0.082-0.307 0.412 0.067 0.523 2.416 1.827 2.617 2.173 0.194 0.327 0.096 0.839-0.265 1.231-0.249 0.284-0.638 0.552-1.133 0.546-0.409-0.009-0.651-0.15-1.165-0.431-1.059-0.568-2.371-1.506-3.252-2.615-0.297-0.372-0.45-0.382-1.2-0.34-3.364 0.196-8.613 0.7-12.172 1.147-0.858 0.108-0.986 0.268-1.165 0.563-5.671 9.353-11.725 19.436-18.373 26.188-7.143 7.244-13.073 9.143-19.363 9.196m54.033-41.548c0.093 0.477 0.277 0.571 0.495 0.53 1.079-0.216 2.259-1.106 2.961-2.132 0.638-0.934 0.935-2.284 0.303-2.826-0.565-0.483-1.484-0.343-2.167 0.258-1.35 1.199-1.76 2.898-1.59 4.17"/>
</svg>
