<?xml version="1.0" encoding="UTF-8" standalone="no"?>
<!DOCTYPE svg  PUBLIC '-//W3C//DTD SVG 1.1//EN'  'http://www.w3.org/Graphics/SVG/1.1/DTD/svg11.dtd'>
<svg viewBox="0 0 178 219" xml:space="preserve" enable-background="new 0 0 178 219" xmlns="http://www.w3.org/2000/svg" version="1.1" y="0px" x="0px">
<path d="m24.104 31.175c16.669-19.978 42.689-27.037 64.44-27.037 21.616 0 48.42 4.984 67.863 28.77 14.58 17.838 19.678 41.515 19.678 78.574 0 24.044-2.37 43.311-8.518 57.958-15.469 36.848-47.993 46.747-76.447 46.747-18.106 0-54.452-3.461-74.123-39.542-8.612-15.796-12.987-37.847-12.987-68.596-0.004-35.585 6.506-60.592 20.091-76.875z" fill="#007AC2"/>
<path stroke="#FFE01B" stroke-width=".211" fill="#FFE01B" d="m30.604 36.88c15.094-18.551 38.652-25.107 58.347-25.107 19.57 0 43.839 4.629 61.442 26.715 13.202 16.566 17.816 38.551 17.816 72.962 0 22.328-2.144 40.218-7.711 53.818-14.006 34.216-43.454 43.408-69.216 43.408-16.394 0-49.301-3.211-67.112-36.717-7.797-14.667-11.759-35.143-11.759-63.696-0.002-33.039 5.892-56.26 18.191-71.38z"/>
<path stroke="#007AC2" stroke-width=".211" fill="#007AC2" d="m35.492 40.829c13.931-17.575 35.677-23.786 53.856-23.786 18.064 0 40.467 4.386 56.717 25.309 12.186 15.694 16.446 36.522 16.446 69.122 0 21.152-1.981 38.102-7.119 50.985-12.929 32.416-40.112 41.123-63.893 41.123-15.132 0-45.509-3.043-61.948-34.783-7.199-13.897-10.855-33.294-10.855-60.345 0.002-31.309 5.443-53.308 16.798-67.631z"/>
<path stroke="#FFE01B" stroke-width=".211" fill="#FFE01B" d="m94.499 65.888c0.644 0 1.073 0.107 1.073 0.107-0.322 1.288-0.215 2.681-3.003 2.681-0.806 0-2.147-0.428-2.521-0.536-0.376-0.107-0.537 0.161-0.269 0.697 0.269 0.537 1.18 3.058 1.072 4.077s-0.269 2.146-2.521 2.36c-0.374 0.054-1.233 0.322-0.804 0.482 1.716 0.859 2.468 3.004 2.521 3.701 0.054 0.698-0.215 1.395-0.859 0.858-0.644-0.536-1.394-0.106-1.501 0.43-0.107 0.537 0.269 1.019 0.857 1.448 0.591 0.43 1.557 1.341 1.557 3.809s-2.36 5.417-4.774 5.417c-2.414 0-3.325-1.18-4.131-2.038-0.804-0.857-1.662-1.341-2.788-1.18s-2.253-0.054-2.844-0.644c-0.591-0.591-1.019-0.859-1.019-0.859-0.537 0.537-1.288 1.342-1.449 1.718-0.161 0.374-0.215 0.589 0.215 1.019 0.43 0.428 0.965 1.61 1.234 2.146 0.269 0.535 1.662 3.164 2.092 3.755 0.43 0.589 6.276 6.221 6.865 6.436 0.591 0.215 1.021 0.269 1.556 0.161 0.537-0.107 3.003-0.535 3.862-0.535 0.858 0 2.092 0.428 2.682 0.589s2.682 0.966 3.166 1.073c0.482 0.107 0.857 0.859 0.269 0.913-0.591 0.052-4.454 0-4.989 0.213-0.537 0.215-1.61 0.967-2.199 1.449-0.591 0.483-2.468 1.234-3.755 0.43-1.288-0.806-1.771-1.18-2.414-1.502-0.645-0.322-9.172-6.543-12.016-9.602-2.844-3.057-4.023-4.452-3.701-6.062 0.322-1.608 1.233-3.003 1.556-3.271-1.986 0.322-7.081 0.645-7.081-3.003s3.701-5.15 4.291-5.365c-0.912-1.448-0.161-3.594 3.433-4.236-0.215-2.521 2.575-4.346 6.652-4.346 4.075 0 5.363 2.199 7.831 1.986 1.449-0.054 4.505-1.341 1.61-4.882-0.376 0.966-1.395 2.575-2.683 2.038-1.287-0.535-1.877-2.575 0.054-5.042-1.341-1.18-2.414-3.325-2.521-5.202-3.418-1.662-7.542-5.813-9.064-10.031-0.107-0.269-0.806-0.536-1.233-0.321-0.43 0.213-2.253 1.286-3.701 1.286-1.449 0-3.326-0.858-3.326-2.788 0-1.933 3.594-5.097 5.255-5.739-1.072-0.483-2.091-1.61-2.091-2.629s1.876-2.682 4.344-2.682 4.56 0.644 5.365 1.019l-1.503-1.823 2.629 0.535-0.107-2.896 1.823 1.716 0.806-2.146 1.501 3.058c1.878 0.054 4.077 0.644 4.668 1.662 2.573-1.77 7.831-2.199 10.083-0.75 2.414-3.166 4.291-3.809 6.168-3.325 1.073-1.287 3.433-1.395 3.915 0.107 0.483 1.501 0.752 4.774 0.591 6.006l0.643 0.269c0.215-0.643 0.215-1.662 0.269-2.199 0.751 0.215 0.858 1.288 0.911 1.93 0.859 0 2.521 0 3.005-0.105-0.43 0.643-1.073 1.716-1.341 1.877 0.698 0 2.038 0.698 2.521 1.126-0.645 0.43-2.629 1.02-2.951 1.18 0.107 0.322 0 1.341 0 1.61 1.18 0.912 0.698 3.486-0.536 5.471-1.233 1.984-3.554 4.731-6.236 6.339l1.301 1.384c1.622-2.004 4.851-2.454 6.353-2.239 1.288-2.146 9.631-15.301 10.705-17.607 0.428-0.643 0.106-2.36 0.106-2.36-0.213-1.019-0.482-1.608-0.054-1.769 0.603-0.226 0.859 0.482 0.967 1.019 0.215 1.072 1.179 1.831 2.253 1.663 1.715-0.269 4.72-1.021 5.954-1.717 0.938-0.531 1.556-0.322 1.662-0.054 0.107 0.268-0.375 0.59-1.073 1.233-0.696 0.643-5.524 3.755-6.812 4.345-0.536 0.161-0.858 0.698-1.073 1.021 0 0-5.859 11.018-7.795 15.446-0.372 0.851-0.083 1.716-0.143 1.932 2.574 0.428 4.076 3.218 3.861 5.148 2.575 1.502 3.22 8.797 0.215 11.373-1.287 1.287-3.218 1.502-4.076 1.502 1.5 2.789 0.643 8.796-1.932 9.226-1.287 0.428-2.36 0.428-3.003 0.215 0.215 3.003-1.502 5.363-4.077 5.363s-3.647-0.643-4.291-1.502c-1.072 1.073-2.145 2.36-1.717 4.292 0.43 1.931 4.72 7.938 6.008 8.581 1.288 0.645 0.43 2.36-0.858 2.36s-1.717-0.857-2.575-1.93c-0.858-1.073-4.506-6.651-4.506-9.871 0-3.218 3.647-7.08 3.647-11.371s-2.36-4.935-3.862-6.438l-1.502-2.36v-3.003c0.859-1.288 0.859-2.145 1.287-3.004 1.288-1.501 2.575-5.363 1.932-6.436l-0.161-1.61 1.608-0.482-1.339-0.483 1.231-0.804-1.5 0.107s0.469-1.604 1.449-2.093c2.466-1.232 6.865-4.291 6.65-8.367 0-1.502-0.857-0.859-1.93-0.429-4.078 1.502-21.241 3.003-29.824 1.287-1.717 0-2.79 0-1.931 1.288 1.179 3.648 5.095 6.919 8.581 8.26-0.215 2.414 1.449 4.828 2.253 5.095 0.806 0.269 0.698 0.859 0.912 1.395 0.215 0.537 0.375 1.395 0.913 1.126 0.536-0.267 0.269-1.984 0.161-2.36-0.107-0.374-1.233-7.669 2.468-8.474 1.447 0.105 6.919-0.215 7.884-0.215s1.556 0.804 1.449 1.823-2.199 1.825-2.146 3.11c0 1.502 0.912 2.252 1.073 2.575 0.159 0.323 0.107 0.699-0.215 0.806-0.322 0.105-0.43 0.696-0.322 1.126 0.107 0.428 0.322 0.589 0.322 0.589-1.986-0.215-2.683 0.591-3.218 0.699-0.537 0.107-0.966 0.107-1.181 0-0.214-0.107-0.429 0.107-0.16 0.428 0.27 0.329 1.344 1.939 3.06 1.724z"/>
<path stroke="#FFE01B" stroke-width=".1053" fill="#FFE01B" d="m95.249 65.136c-1.281 0.175-1.721 0.166-2.36-0.696 0.806-0.483 2.147-0.804 2.897-0.696 0.376 0.107-0.054 1.286-0.537 1.392z"/>
<path stroke="#FFE01B" stroke-width=".1053" fill="#FFE01B" d="m96.805 56.555c0.161 0.804-0.161 1.394-0.696 1.716 0.107 0.322 0.374 0.752 0.965 0.859 0.322-0.537 0.643-2.308 0.376-3.005l-0.645 0.43z"/>
<path stroke="#007AC2" stroke-width=".211" fill="#007AC2" d="m82.214 63.366s1.14 1.397 1.355 1.773c-0.158 0.958-0.892 1.929-1.616 1.605-0.725-0.324-0.895-1.768 0.19-3.258"/>
<circle stroke="#007AC2" stroke-width=".1577" r=".34" cy="61.462" cx="94.279" fill="#007AC2"/>
<path stroke="#007AC2" stroke-width=".211" fill="#007AC2" d="m92.407 55.106c-0.996-0.872-2.277-1.042-3.702-0.698-0.68 0.166-0.418 0.366 0.054 0.269 1.557-0.321 2.843 0.215 3.272 0.965 0.429 0.752 0.804-0.106 0.376-0.536z"/>
<path stroke="#007AC2" stroke-width=".211" fill="#007AC2" d="m91.79 58.565c0.589-1.127 0.241-1.957-1.341-1.931-0.082 0.939-0.724 1.582-1.475 1.582-0.752 0-0.752-0.269-0.859-0.482-0.107-0.215-0.589 0-0.589 0-0.215 0-0.376-0.322 0-0.322s0.589-0.161 0.589-0.161c0.054-0.269 0.269-0.429 0.484-0.429 0.214 0-0.054-0.214-0.054-0.214 1.234-0.161 2.521-0.161 3.112 0.054 0.59 0.214 0.75 1.072 0.321 1.93-0.108 0.269-0.295 0.188-0.188-0.027z"/>
<path stroke="#007AC2" stroke-width=".211" fill="#007AC2" d="m103.03 59.666c0-1.502 1.931-3.433 4.076-3.433 2.146 0 3.54 0.75 3.97 1.931s0.965 2.145 2.038 2.145c1.072 0 1.824 0.645 2.252 1.395 0.43 0.752 0.752 2.575 0.538 3.327-0.215 0.75 0.107 1.394 0.965 1.716 0.857 0.322 1.502 2.252 1.18 3.433-0.322 1.18-2.145 4.397-3.325 3.97-1.18-0.43-2.468-1.288-2.146-3.112 0.321-1.823 0.536-2.466 0.965-2.896 0.428-0.43 0.107-1.287-0.644-1.18s-1.501-0.215-1.288-0.858c0.215-0.645-0.643-1.18-1.18-1.18-0.536 0-1.608-0.537-2.146-1.609-0.536-1.073-1.394-3.326-2.36-2.791-0.98 0.537-2.59 0.751-2.91-0.858z"/>
<path stroke="#007AC2" stroke-width=".211" fill="#007AC2" d="m103.35 62.133c1.716 0 2.896 1.396 3.11 2.253s1.073 1.502 1.931 1.502c0.859 0 1.395 0.644 1.502 1.073 0.107 0.428 1.288 1.18 0.751 1.715-0.536 0.537-0.858 2.147-0.429 2.79 0.429 0.645 1.501 1.502 1.501 2.038 0 0.537 1.181 1.395 0.859 2.146s-0.43 1.608-0.215 2.36c0.215 0.75 0.751 4.613-2.146 4.613-1.287 0-1.932-0.323-2.575-1.61-0.644-1.288-0.537-3.218-0.215-3.755 0.322-0.535 0.75-1.395 0.322-1.931-0.43-0.537-0.966-0.857-0.858-1.287 0.106-0.43 0.214-1.18-0.322-1.717-0.537-0.536-0.857-1.93-0.429-2.788 0.429-0.859-0.107-2.682-1.823-2.575-1.717 0.107-3.863 0-3.863-2.468 0-1.929 2.04-2.359 2.9-2.359z"/>
<path stroke="#007AC2" stroke-width=".211" fill="#007AC2" d="m101.1 68.033c1.82 0.13 2.575 1.823 2.575 2.683 0 0.857 0.107 2.145 0.858 2.36 0.752 0.215 1.182 1.072 1.395 1.93 0.215 0.858 0.322 2.253-0.107 3.005-0.428 0.75-0.643 2.466 0 3.111 0.644 0.643 1.18 2.038 1.18 3.218s-0.965 3.755-2.789 3.755c-1.825 0-2.575-1.61-2.36-2.683s1.072-3.861 0.965-4.828c-0.107-0.965-1.395-2.146-1.395-2.896 0-0.752 0.107-3.005-1.073-3.218-1.18-0.215-2.145-1.825-1.93-3.54 0.208-1.717 1.175-3.004 2.68-2.897z"/>
<path stroke="#007AC2" stroke-width=".211" fill="#007AC2" d="m68.591 78.439c2.79 0.107 5.793 1.717 7.08 2.468 1.288 0.75 2.683 1.18 4.291 1.072 1.609-0.107 4.612-0.428 5.472 0.645 0.858 1.072 2.36 3.968 0.966 5.041-1.396 1.072-3.112 1.18-4.506-0.429-1.395-1.609-3.005-2.252-4.292-1.824-1.288 0.43-3.218-0.107-4.183-0.858s-3.648-1.93-5.257-1.61c-1.608 0.322-4.506 1.073-4.613-1.073-0.109-2.144 3.754-3.432 5.042-3.432z"/>
<path stroke="#007AC2" stroke-width=".211" fill="#007AC2" d="m72.561 74.898c2.788 0 4.506 2.146 5.686 2.146s3.433-0.857 4.828-0.75 2.788 1.072 2.575 2.252c-0.215 1.18-0.645 1.931-1.824 1.825-1.18-0.107-2.253-1.074-3.54-1.074-1.288 0-1.823 0.967-2.79 0.752-0.965-0.215-4.826-2.683-6.221-2.683s-2.897 0.107-2.79-1.18c0.106-1.288 2.251-1.288 4.076-1.288z"/>
<path stroke="#007AC2" stroke-width=".211" fill="#007AC2" d="m75.028 70.823c1.931 0.107 4.505 1.608 6.006 1.608 1.502 0 4.935 0.322 4.828 1.61-0.107 1.287-0.965 1.395-1.93 1.072-0.965-0.322-3.005-0.643-4.185-0.322-1.181 0.322-3.218 0-4.076-0.535-0.857-0.537-2.575-0.752-3.54-0.645s-1.288-0.535-1.073-1.395c0.215-0.858 2.789-1.608 3.97-1.393z"/>
<path stroke="#007AC2" stroke-width=".211" fill="#007AC2" d="m74.491 41.106c0.107 0.966 0.322 2.896 0.965 3.541-1.93-0.215-7.188-0.215-7.938 0.643-0.752 0.857-2.467 1.287-3.219 0.751-0.751-0.537 0.752-3.004 2.039-3.755s6.651-1.609 8.153-1.18z"/>
<path stroke="#007AC2" stroke-width=".211" fill="#007AC2" d="m74.813 37.244c-0.215 0.537-0.322 1.823-0.322 2.36-1.931-0.107-6.008-0.537-7.188-1.61s0.323-1.501 1.181-1.501c2.037-0.107 4.934 0.644 6.329 0.751z"/>
<path stroke="#007AC2" stroke-width=".211" fill="#007AC2" d="m84.896 45.183c-1.18 0-5.793-0.107-6.973-0.321-1.18-1.824-1.931-3.647-1.717-5.364 0.215-1.716 1.395-3.433 3.112-3.433 2.896 0 5.578 3.111 6.115 4.291 0.536 1.181 0.643 1.61 0.751 2.04-0.643 0.749-1.288 2.251-1.288 2.787z"/>
<path stroke="#007AC2" stroke-width=".211" fill="#007AC2" d="m87.149 45.505c0.645-2.468 2.79-5.15 7.725-3.97-0.859 0.751-1.395 2.79-1.502 3.433-1.18 0.215-5.365 0.859-6.223 0.537z"/>
<path stroke="#007AC2" stroke-width=".211" fill="#007AC2" d="m86.399 37.459c1.822-1.395 5.578-1.717 7.08-0.752-0.322 0.645-1.932 3.005-1.932 3.005-1.073 0.107-3.326 0.967-3.646 1.395-0.322-1.395-1.179-3.218-1.502-3.648z"/>
<path stroke="#007AC2" stroke-width=".211" fill="#007AC2" d="m93.909 39.604c0.965-1.823 3.968-6.008 4.934-5.793 0.965 0.214 0.752 0.858 0.752 0.858-0.215 0.751-3.22 4.935-3.433 5.58-0.537-0.322-1.61-0.645-2.253-0.645z"/>
<path stroke="#007AC2" stroke-width=".211" fill="#007AC2" d="m99.487 37.889c0.643-1.61 1.716-4.614 2.575-5.15 0.857-0.537 1.608-0.215 1.5 0.536-0.107 0.751 0 3.755-0.107 4.292-0.75-0.108-3.32-0.001-3.963 0.322z"/>
<path stroke="#007AC2" stroke-width=".211" fill="#007AC2" d="m96.162 44.647c-0.107-1.825 0.75-4.505 6.113-5.257 1.825-0.107 3.435 1.072 3.755 2.683 0.107 0.535 0.107 0.965-0.428 1.395-2.15 0.749-7.41 1.607-9.448 1.179z"/>
<path d="m36.854 145.54c-8.154 0-10.961-3.442-10.961-6.945v-21.966c0-4.612 4.183-7.08 10.513-7.08 5.043 0 10.085 0.643 10.085 6.115v6.115h-6.008v-5.902c0-1.608-1.395-2.36-3.647-2.36s-3.97 0.43-3.97 2.468v22.61c0 1.931 1.932 3.245 4.077 3.245 2.146 0 3.754-1.743 3.754-3.245v-5.982h6.115v5.982c0.001 4.43-2.734 6.94-9.958 6.94z" fill="#fff"/>
<path d="m49.924 145.27v-32.076l5.793-3.005v8.368c1.073-0.643 2.789-0.75 3.647-0.75 2.681 0 6.758 0 6.758 4.183v23.28h-5.578v-21.993c0-0.857-0.43-1.822-1.395-1.822h-3.326v23.815h-5.899z" fill="#fff"/>
<g fill="#fff">
<rect height="27.034" width="6.115" y="118.24" x="69.878"/>
<path d="m72.335 131.22"/>
</g>
<path d="m72.774 108.26c2.075 0 2.897 0.787 2.897 3.862 0 3.218-0.857 3.861-2.897 3.861-1.895 0-2.789-0.5-2.789-3.753 0-2.68 0.321-3.97 2.789-3.97z" fill="#fff"/>
<path d="m88.007 117.7c6.438 0 8.263 1.715 8.263 5.15v30.682l-5.58 3.003v-11.9c-0.535 0.43-0.965 0.751-1.823 0.751-3.004 0-9.87 1.561-9.87-4.699v-17.4c-0.001-3.57 2.252-5.58 9.01-5.58z" fill="#fff"/>
<path d="m99.648 118.24h5.524v22.083c0 0.859 1.315 1.624 2.817 1.624s2.682-0.657 2.682-1.624v-22.083h5.658v22.742c0 3.827-2.825 4.828-8.476 4.828-5.937 0-8.207-2.038-8.207-4.721v-22.85z" fill="#fff"/>
<g fill="#fff">
<rect height="27.034" width="6.114" y="118.24" x="119.76"/>
<path d="m122.22 131.22"/>
</g>
<path d="m122.66 108.26c2.074 0 2.897 0.787 2.897 3.862 0 3.218-0.859 3.861-2.897 3.861-1.896 0-2.789-0.5-2.789-3.753 0-2.68 0.32-3.97 2.79-3.97z" fill="#fff"/>
<polygon fill="#fff" points="135.64 121.67 137.78 121.67 137.78 118.24 135.64 118.24 135.64 110.3 129.52 113.73 129.52 118.24 126.95 118.24 126.95 121.67 129.52 121.67 129.52 145.27 135.64 145.27"/>
<path d="m147.01 117.38c5.417 0 8.419 1.771 8.419 8.421v19.472h-11.53c-1.823 0-5.096-0.054-5.096-7.778 0-5.005 0.771-6.15 3.166-7.349 1.823-0.911 6.115-2.896 6.65-3.164 0.537-0.269 0.805-0.643 0.805-1.18v-3.164c0-0.911-0.805-1.878-2.307-1.878-1.501 0-2.358 1.021-2.358 1.932v3.754h-5.473v-3.754c0.01-2.79 2.21-5.31 7.73-5.31z" fill="#fff"/>
<g fill="#fff">
<circle cy="149.89" cx="152.27" r="3.286"/>
<path d="m151.67 149.35"/>
</g>
<path d="m87.794 121.14c1.823 0 2.36 0.75 2.36 1.502v18.023c0 0.535-0.322 1.18-2.253 1.18-1.932 0-2.683-0.537-2.683-1.395v-17.809c0.001-1.06 0.644-1.49 2.576-1.49z" fill="#007AC2"/>
<path d="m146.74 141.41h2.682v-10.889l-2.896 1.341c-0.643 0.322-1.395 1.18-1.395 2.36v5.847c0.01 0.64 0.71 1.34 1.62 1.34z" fill="#007AC2"/>
<g fill="#007AC2">
<circle cy="149.89" cx="152.27" r="2.821"/>
<path d="m151.66 149.35"/>
</g>
<path d="m150.78 147.98h2.084c0.376 0.016 0.758 0.191 0.865 0.598 0.052 0.164 0.129 0.433 0.037 0.756-0.094 0.324-0.258 0.443-0.51 0.592 0.127 0.087 0.376 0.18 0.416 0.521 0.021 0.153 0.032 0.649 0.037 0.839 0 0.211 0.062 0.257 0.145 0.309v0.138h-0.829c-0.063-0.112-0.094-0.226-0.103-0.35-0.011-0.184-0.011-0.483 0-0.756-0.011-0.251-0.197-0.376-0.464-0.376h-0.907v1.482h-0.772v-3.75zm0.77 1.63h1.056c0.179 0 0.505-0.19 0.457-0.562 0-0.267-0.123-0.422-0.468-0.422h-1.045v0.98z" fill="#fff"/>
</svg>
