<?xml version="1.0" encoding="UTF-8" standalone="no"?>
<!-- Created with Inkscape (http://www.inkscape.org/) -->

<svg
   xmlns:dc="http://purl.org/dc/elements/1.1/"
   xmlns:cc="http://creativecommons.org/ns#"
   xmlns:rdf="http://www.w3.org/1999/02/22-rdf-syntax-ns#"
   xmlns:svg="http://www.w3.org/2000/svg"
   xmlns="http://www.w3.org/2000/svg"
   xmlns:sodipodi="http://sodipodi.sourceforge.net/DTD/sodipodi-0.dtd"
   xmlns:inkscape="http://www.inkscape.org/namespaces/inkscape"
   width="140"
   height="160"
   id="svg2"
   version="1.1"
   inkscape:version="0.48.5 r10040"
   sodipodi:docname="baby-squeek.svg">
  <defs
     id="defs4" />
  <sodipodi:namedview
     id="base"
     pagecolor="#ffffff"
     bordercolor="#666666"
     borderopacity="1.0"
     inkscape:pageopacity="0.0"
     inkscape:pageshadow="2"
     inkscape:zoom="3.959798"
     inkscape:cx="64.253867"
     inkscape:cy="81.082244"
     inkscape:document-units="px"
     inkscape:current-layer="layer1"
     showgrid="false"
     inkscape:window-width="1376"
     inkscape:window-height="866"
     inkscape:window-x="213"
     inkscape:window-y="74"
     inkscape:window-maximized="0" />
  <metadata
     id="metadata7">
    <rdf:RDF>
      <cc:Work
         rdf:about="">
        <dc:format>image/svg+xml</dc:format>
        <dc:type
           rdf:resource="http://purl.org/dc/dcmitype/StillImage" />
        <dc:title />
      </cc:Work>
    </rdf:RDF>
  </metadata>
  <g
     inkscape:label="Layer 1"
     inkscape:groupmode="layer"
     id="layer1"
     transform="translate(0,-892.36218)">
    <path
       style="fill:none;stroke:#000000;stroke-width:3;stroke-linecap:round;stroke-linejoin:round;stroke-miterlimit:4;stroke-opacity:1;stroke-dasharray:none"
       d="m 92.917549,917.85898 c -13.57143,-12.5 -21.78572,2.5 -27.85715,10.71429 -6.07143,8.21428 -8.21428,15 -4.28571,26.42857 3.92857,11.42857 11.78571,21.07143 25.35714,18.57143 13.57143,-2.5 20.000001,-16.78572 17.500001,-28.92857 -2.5,-12.14286 -7.500001,-21.07143 -24.285711,-27.85715"
       id="path4026"
       inkscape:connector-curvature="0" />
    <path
       style="fill:none;stroke:#000000;stroke-width:3;stroke-linecap:round;stroke-linejoin:round;stroke-miterlimit:4;stroke-opacity:1;stroke-dasharray:none"
       d="m 73.988969,952.1447 c 8.21429,19.64285 14.64286,7.85714 16.42858,1.42857"
       id="path4028"
       inkscape:connector-curvature="0" />
    <path
       style="fill:none;stroke:#000000;stroke-width:3;stroke-linecap:round;stroke-linejoin:round;stroke-miterlimit:4;stroke-opacity:1;stroke-dasharray:none"
       d="m 101.13183,930.71613 5.71429,-5"
       id="path4030"
       inkscape:connector-curvature="0" />
    <path
       style="fill:none;stroke:#000000;stroke-width:3;stroke-linecap:round;stroke-linejoin:round;stroke-miterlimit:4;stroke-opacity:1;stroke-dasharray:none"
       d="m 95.417549,924.6447 2.5,-4.64286"
       id="path4032"
       inkscape:connector-curvature="0" />
    <path
       style="fill:none;stroke:#000000;stroke-width:3;stroke-linecap:round;stroke-linejoin:round;stroke-miterlimit:4;stroke-opacity:1;stroke-dasharray:none"
       d="m 91.846119,922.1447 2.14285,-3.92857"
       id="path4034"
       inkscape:connector-curvature="0" />
    <path
       style="fill:none;stroke:#000000;stroke-width:3;stroke-linecap:round;stroke-linejoin:round;stroke-miterlimit:4;stroke-opacity:1;stroke-dasharray:none"
       d="m 87.917549,918.57327 4.64285,-6.07143"
       id="path4036"
       inkscape:connector-curvature="0" />
    <path
       style="fill:none;stroke:#000000;stroke-width:3;stroke-linecap:round;stroke-linejoin:round;stroke-miterlimit:4;stroke-opacity:1;stroke-dasharray:none"
       d="m 82.560399,916.07327 1.42857,-4.28572"
       id="path4038"
       inkscape:connector-curvature="0" />
    <path
       style="fill:none;stroke:#000000;stroke-width:3;stroke-linecap:round;stroke-linejoin:round;stroke-miterlimit:4;stroke-opacity:1;stroke-dasharray:none"
       d="m 77.917549,917.50184 0,-6.42857"
       id="path4040"
       inkscape:connector-curvature="0" />
    <path
       style="fill:none;stroke:#000000;stroke-width:3;stroke-linecap:round;stroke-linejoin:round;stroke-miterlimit:4;stroke-opacity:1;stroke-dasharray:none"
       d="m 75.417549,920.71613 -3.57143,-6.07143"
       id="path4042"
       inkscape:connector-curvature="0" />
    <path
       style="fill:none;stroke:#000000;stroke-width:3;stroke-linecap:round;stroke-linejoin:round;stroke-miterlimit:4;stroke-opacity:1;stroke-dasharray:none"
       d="m 67.203259,923.57327 -2.85714,-5.35714"
       id="path4044"
       inkscape:connector-curvature="0" />
    <path
       style="fill:none;stroke:#000000;stroke-width:3;stroke-linecap:round;stroke-linejoin:round;stroke-miterlimit:4;stroke-opacity:1;stroke-dasharray:none"
       d="m 78.274689,969.28755 c 8.57143,9.64286 12.85714,20.35715 12.5,24.28572"
       id="path4046"
       inkscape:connector-curvature="0" />
    <path
       style="fill:none;stroke:#000000;stroke-width:3;stroke-linecap:round;stroke-linejoin:round;stroke-miterlimit:4;stroke-opacity:1;stroke-dasharray:none"
       d="m 86.131829,987.1447 c 11.07143,6.07143 13.21429,12.5 10.71429,23.5714 -2.5,11.0715 -2.5,18.2143 -16.78572,18.5715 -14.28571,0.3571 -5.71428,-39.6429 -3.21428,-43.92862 2.5,-4.28571 3.21428,-8.57143 3.21428,-8.57143"
       id="path4048"
       inkscape:connector-curvature="0" />
    <path
       style="fill:none;stroke:#000000;stroke-width:3;stroke-linecap:round;stroke-linejoin:round;stroke-miterlimit:4;stroke-opacity:1;stroke-dasharray:none"
       d="m 71.131829,1014.2876 c 13.21429,4.6428 28.57143,5.3571 28.57143,5.3571"
       id="path4050"
       inkscape:connector-curvature="0" />
    <path
       style="fill:none;stroke:#000000;stroke-width:3;stroke-linecap:round;stroke-linejoin:round;stroke-miterlimit:4;stroke-opacity:1;stroke-dasharray:none"
       d="m 97.917549,1000.359 c 15.714281,-1.07145 28.214281,-7.50002 31.428571,-6.78573"
       id="path4052"
       inkscape:connector-curvature="0" />
    <path
       style="fill:none;stroke:#000000;stroke-width:3;stroke-linecap:round;stroke-linejoin:round;stroke-miterlimit:4;stroke-opacity:1;stroke-dasharray:none"
       d="m 73.988969,1000.359 c -12.5,-4.28573 -33.21428,-13.57145 -33.21428,-13.57145"
       id="path4054"
       inkscape:connector-curvature="0" />
    <path
       style="fill:none;stroke:#000000;stroke-width:3;stroke-linecap:round;stroke-linejoin:round;stroke-miterlimit:4;stroke-opacity:1;stroke-dasharray:none"
       d="m 77.917549,1028.2161 c 0,6.0715 -2.14286,13.2143 -3.57143,15.7143"
       id="path4056"
       inkscape:connector-curvature="0" />
    <path
       style="fill:none;stroke:#000000;stroke-width:3;stroke-linecap:round;stroke-linejoin:round;stroke-miterlimit:4;stroke-opacity:1;stroke-dasharray:none"
       d="m 83.988969,1026.7876 c 4.64286,7.1428 7.5,15 7.85715,17.8571"
       id="path4058"
       inkscape:connector-curvature="0" />
    <path
       sodipodi:type="arc"
       style="color:#000000;fill:#000000;fill-opacity:1;fill-rule:nonzero;stroke:none;stroke-width:3;marker:none;visibility:visible;display:inline;overflow:visible;enable-background:accumulate"
       id="path4060"
       sodipodi:cx="657.67859"
       sodipodi:cy="221.25"
       sodipodi:rx="1.6071428"
       sodipodi:ry="4.1071429"
       d="m 659.28573,221.25 c 0,2.26831 -0.71954,4.10714 -1.60714,4.10714 -0.8876,0 -1.60714,-1.83883 -1.60714,-4.10714 0,-2.26831 0.71954,-4.10714 1.60714,-4.10714 0.8876,0 1.60714,1.83883 1.60714,4.10714 z"
       transform="translate(-583.86817,715.00184)" />
    <path
       sodipodi:type="arc"
       style="color:#000000;fill:#000000;fill-opacity:1;fill-rule:nonzero;stroke:none;stroke-width:3;marker:none;visibility:visible;display:inline;overflow:visible;enable-background:accumulate"
       id="path4062"
       sodipodi:cx="670.53571"
       sodipodi:cy="218.57143"
       sodipodi:rx="1.6071428"
       sodipodi:ry="3.2142856"
       d="m 672.14285,218.57143 c 0,1.7752 -0.71954,3.21428 -1.60714,3.21428 -0.8876,0 -1.60715,-1.43908 -1.60715,-3.21428 0,-1.7752 0.71955,-3.21429 1.60715,-3.21429 0.8876,0 1.60714,1.43909 1.60714,3.21429 z"
       transform="translate(-583.86817,715.00184)" />
    <path
       style="fill:none;stroke:#000000;stroke-width:2;stroke-linecap:round;stroke-linejoin:round;stroke-miterlimit:4;stroke-opacity:1;stroke-dasharray:none"
       d="m 8.8388391,964.73144 c -6.56599,5.05077 -3.03046,8.33376 2.7779199,6.81853 5.80837,-1.51522 7.3236,1.26269 4.54568,4.79823 -2.77792,3.53553 -5.80837,0.50508 -5.80837,0.50508"
       id="path4141"
       inkscape:connector-curvature="0" />
    <path
       style="fill:none;stroke:#000000;stroke-width:2;stroke-linecap:round;stroke-linejoin:round;stroke-miterlimit:4;stroke-opacity:1;stroke-dasharray:none"
       d="m 18.687819,958.67053 c 4.29315,6.56599 4.79823,8.5863 2.52539,9.59645 -2.27285,1.01015 -6.81853,-3.03046 -4.79823,-5.80838 2.02031,-2.77792 4.79823,0.75762 5.80838,1.26269 1.01015,0.50508 4.79822,6.81853 4.79822,6.81853"
       id="path4143"
       inkscape:connector-curvature="0" />
    <path
       style="fill:none;stroke:#000000;stroke-width:2;stroke-linecap:round;stroke-linejoin:round;stroke-miterlimit:4;stroke-opacity:1;stroke-dasharray:none"
       d="m 25.001279,955.135 c 2.52538,8.83883 3.53553,6.56599 5.3033,6.56599 1.76777,0 2.0203,-5.05077 1.26269,-6.06092 -0.75762,-1.01015 2.77792,5.55584 2.77792,5.55584"
       id="path4145"
       inkscape:connector-curvature="0" />
    <path
       style="fill:none;stroke:#000000;stroke-width:2;stroke-linecap:round;stroke-linejoin:round;stroke-miterlimit:4;stroke-opacity:1;stroke-dasharray:none"
       d="m 38.638339,957.1553 c 4.54568,-1.01015 0.75761,-6.06091 -2.27285,-5.80838 -3.03045,0.25254 -0.75761,11.8693 3.78808,10.35407"
       id="path4147"
       inkscape:connector-curvature="0" />
    <path
       style="fill:none;stroke:#000000;stroke-width:2;stroke-linecap:round;stroke-linejoin:round;stroke-miterlimit:4;stroke-opacity:1;stroke-dasharray:none"
       d="m 43.436559,957.40784 c 5.05076,0 4.79823,-2.27284 3.03046,-3.78807 -1.76777,-1.51523 -4.79823,5.55584 0.50508,8.83883"
       id="path4149"
       inkscape:connector-curvature="0" />
    <path
       style="fill:none;stroke:#000000;stroke-width:2;stroke-linecap:round;stroke-linejoin:round;stroke-miterlimit:4;stroke-opacity:1;stroke-dasharray:none"
       d="m 47.224629,948.82154 c 2.27285,4.79823 3.53554,11.61676 5.05077,12.62691"
       id="path4151"
       inkscape:connector-curvature="0" />
    <path
       style="fill:none;stroke:#000000;stroke-width:2;stroke-linecap:round;stroke-linejoin:round;stroke-miterlimit:4;stroke-opacity:1;stroke-dasharray:none"
       d="m 56.316009,952.10454 c -2.77792,1.76776 -6.81853,3.53553 -6.81853,3.53553 0,0 5.80837,2.77792 7.07106,4.04061"
       id="path4153"
       inkscape:connector-curvature="0" />
    <path
       sodipodi:type="arc"
       style="color:#000000;fill:#000000;fill-opacity:1;fill-rule:nonzero;stroke:#000000;stroke-width:3;stroke-linecap:round;stroke-linejoin:round;stroke-miterlimit:4;stroke-opacity:1;stroke-dasharray:none;stroke-dashoffset:0;marker:none;visibility:visible;display:inline;overflow:visible;enable-background:accumulate"
       id="path4339"
       sodipodi:cx="83.085045"
       sodipodi:cy="116.94225"
       sodipodi:rx="0.75761437"
       sodipodi:ry="1.3889598"
       d="m 83.842659,116.94225 a 0.75761437,1.3889598 0 1 1 -1.515229,0 0.75761437,1.3889598 0 1 1 1.515229,0 z"
       transform="translate(0.50507627,894.12995)" />
  </g>
</svg>
