<?xml version="1.0" encoding="UTF-8" standalone="no"?>
<!-- Created with Inkscape (http://www.inkscape.org/) -->

<svg
   xmlns:dc="http://purl.org/dc/elements/1.1/"
   xmlns:cc="http://creativecommons.org/ns#"
   xmlns:rdf="http://www.w3.org/1999/02/22-rdf-syntax-ns#"
   xmlns:svg="http://www.w3.org/2000/svg"
   xmlns="http://www.w3.org/2000/svg"
   xmlns:sodipodi="http://sodipodi.sourceforge.net/DTD/sodipodi-0.dtd"
   xmlns:inkscape="http://www.inkscape.org/namespaces/inkscape"
   width="800"
   height="600"
   id="svg6610"
   version="1.1"
   inkscape:version="0.48.5 r10040"
   sodipodi:docname="baby5.svg">
  <defs
     id="defs6612" />
  <sodipodi:namedview
     id="base"
     pagecolor="#ffffff"
     bordercolor="#666666"
     borderopacity="1.0"
     inkscape:pageopacity="0.0"
     inkscape:pageshadow="2"
     inkscape:zoom="3.959798"
     inkscape:cx="361.79162"
     inkscape:cy="349.64997"
     inkscape:document-units="px"
     inkscape:current-layer="layer1"
     showgrid="false"
     inkscape:window-width="1437"
     inkscape:window-height="820"
     inkscape:window-x="121"
     inkscape:window-y="113"
     inkscape:window-maximized="0" />
  <metadata
     id="metadata6615">
    <rdf:RDF>
      <cc:Work
         rdf:about="">
        <dc:format>image/svg+xml</dc:format>
        <dc:type
           rdf:resource="http://purl.org/dc/dcmitype/StillImage" />
        <dc:title></dc:title>
      </cc:Work>
    </rdf:RDF>
  </metadata>
  <g
     inkscape:label="Layer 1"
     inkscape:groupmode="layer"
     id="layer1"
     transform="translate(0,-452.36218)">
    <path
       style="fill:none;stroke:#000000;stroke-width:3;stroke-linecap:round;stroke-linejoin:round;stroke-miterlimit:4;stroke-opacity:1;stroke-dasharray:none"
       d="m 417.193,601.83415 c -22.22336,-37.37565 -39.39595,-4.04061 -51.51778,5.05076 -12.12183,9.09137 -33.33503,43.43656 -28.28427,81.82235 5.05076,38.3858 30.30458,50.50763 58.58885,38.3858 28.28427,-12.12183 57.57869,-63.63961 49.49747,-82.83251 -8.08122,-19.1929 -34.34518,-59.599 -46.46702,-43.43656"
       id="path8269"
       inkscape:connector-curvature="0" />
    <path
       style="fill:none;stroke:#000000;stroke-width:3;stroke-linecap:round;stroke-linejoin:round;stroke-miterlimit:4;stroke-opacity:1;stroke-dasharray:none"
       d="m 373.75644,629.10826 1.01015,16.16244"
       id="path8271"
       inkscape:connector-curvature="0" />
    <path
       style="fill:none;stroke:#000000;stroke-width:3;stroke-linecap:round;stroke-linejoin:round;stroke-miterlimit:4;stroke-opacity:1;stroke-dasharray:none"
       d="m 404.06102,632.13872 0,10.10153"
       id="path8273"
       inkscape:connector-curvature="0" />
    <path
       style="fill:#000000;stroke:#000000;stroke-width:3;stroke-linecap:round;stroke-linejoin:round;stroke-miterlimit:4;stroke-opacity:1;stroke-dasharray:none;fill-opacity:1"
       d="m 361.63461,682.64635 c 9.09137,37.37564 24.24366,32.32488 40.4061,3.03046 z"
       id="path8275"
       inkscape:connector-curvature="0"
       sodipodi:nodetypes="ccc" />
    <path
       style="fill:none;stroke:#000000;stroke-width:3;stroke-linecap:round;stroke-linejoin:round;stroke-miterlimit:4;stroke-opacity:1;stroke-dasharray:none"
       d="m 338.4011,811.94587 c -19.1929,-15.15228 -28.28427,-9.09137 -46.46701,-23.2335 -18.18275,-14.14214 -30.30458,-36.3655 -30.30458,-36.3655"
       id="path8281"
       inkscape:connector-curvature="0" />
    <path
       style="fill:none;stroke:#000000;stroke-width:3;stroke-linecap:round;stroke-linejoin:round;stroke-miterlimit:4;stroke-opacity:1;stroke-dasharray:none"
       d="m 362.64476,915.99159 c -16.16244,30.30457 -23.23351,65.65991 -23.23351,65.65991"
       id="path8285"
       inkscape:connector-curvature="0" />
    <path
       style="fill:none;stroke:#000000;stroke-width:3;stroke-linecap:round;stroke-linejoin:round;stroke-miterlimit:4;stroke-opacity:1;stroke-dasharray:none"
       d="m 377.79705,920.0322 c 3.03046,34.34518 23.23351,67.68022 23.23351,67.68022"
       id="path8287"
       inkscape:connector-curvature="0" />
    <path
       style="fill:#ffffff;fill-opacity:1;stroke:#000000;stroke-width:3;stroke-linecap:round;stroke-linejoin:round;stroke-miterlimit:4;stroke-opacity:1;stroke-dasharray:none"
       d="m 379.81736,736.18443 c -50.50763,60.60916 -58.58885,113.13709 -40.40611,155.5635 18.18275,42.4264 48.48733,29.29442 66.67007,3.03045 18.18275,-26.26396 40.4061,-77.78174 30.30458,-89.90357 -10.10153,-12.12183 -37.37565,-46.46702 -78.7919,-21.21321"
       id="path8277"
       inkscape:connector-curvature="0" />
    <path
       style="fill:none;stroke:#000000;stroke-width:3;stroke-linecap:round;stroke-linejoin:round;stroke-miterlimit:4;stroke-opacity:1;stroke-dasharray:none"
       d="m 231.83001,766.23647 c -5.55584,13.8896 -14.14214,32.32488 -23.48605,32.32488 -9.34391,0 -17.67767,8.5863 -1.01015,12.62691 16.66752,4.04061 29.29442,3.78807 38.63833,2.27284 9.34392,-1.51523 10.10153,-9.09137 2.02031,-10.6066 -8.08122,-1.51523 -8.33376,-1.01015 -9.09137,-6.81853 -0.75762,-5.80838 -2.52538,-29.54696 -2.52538,-29.54696"
       id="path8319"
       inkscape:connector-curvature="0" />
    <path
       style="fill:none;stroke:#000000;stroke-width:3;stroke-linecap:round;stroke-linejoin:round;stroke-miterlimit:4;stroke-opacity:1;stroke-dasharray:none"
       d="m 212.38457,700.57656 c 14.14214,9.34391 21.71828,4.29314 42.93149,7.82868 21.2132,3.53553 21.2132,6.81853 21.2132,6.81853 0,0 -8.08122,38.38579 -24.74874,48.48732 -16.66752,10.10153 -25.00127,12.62691 -33.08249,-3.53553 -8.08122,-16.16244 -9.59645,-51.01271 -4.04061,-56.56855"
       id="path8321"
       inkscape:connector-curvature="0" />
    <path
       style="fill:none;stroke:#000000;stroke-width:3;stroke-linecap:round;stroke-linejoin:round;stroke-miterlimit:4;stroke-opacity:1;stroke-dasharray:none"
       d="m 221.98102,724.0626 c -0.75761,-13.38452 10.35407,-11.11168 10.35407,-11.11168 0,0 -4.54569,9.59645 -3.78808,17.42514 0.75762,7.82868 0.50508,14.39467 0.50508,14.39467"
       id="path8323"
       inkscape:connector-curvature="0" />
    <path
       style="fill:none;stroke:#000000;stroke-width:3;stroke-linecap:round;stroke-linejoin:round;stroke-miterlimit:4;stroke-opacity:1;stroke-dasharray:none"
       d="m 233.0927,741.2352 c -5.05076,-0.25254 -14.89975,-1.01016 -14.89975,-1.01016"
       id="path8325"
       inkscape:connector-curvature="0" />
    <path
       style="fill:none;stroke:#000000;stroke-width:3;stroke-linecap:round;stroke-linejoin:round;stroke-miterlimit:4;stroke-opacity:1;stroke-dasharray:none"
       d="m 248.24499,712.95092 c -13.13199,1.2627 -10.85914,9.34392 -5.05076,13.8896 5.80837,4.54569 10.85914,9.59645 3.03045,14.89975 -7.82868,5.3033 -12.12183,2.52538 -12.12183,2.52538"
       id="path8327"
       inkscape:connector-curvature="0" />
    <path
       style="fill:none;stroke:#000000;stroke-width:3;stroke-linecap:round;stroke-linejoin:round;stroke-miterlimit:4;stroke-opacity:1;stroke-dasharray:none"
       d="m 260.11428,716.23392 c 1.26269,8.83884 -1.76777,29.29442 -1.76777,29.29442"
       id="path8329"
       inkscape:connector-curvature="0" />
    <path
       style="fill:none;stroke:#000000;stroke-width:3;stroke-linecap:round;stroke-linejoin:round;stroke-miterlimit:4;stroke-opacity:1;stroke-dasharray:none"
       d="m 250.77037,726.08291 c 4.79822,-4.54569 16.92005,-0.25254 16.92005,-0.25254"
       id="path8331"
       inkscape:connector-curvature="0" />
    <path
       style="fill:none;stroke:#000000;stroke-width:3;stroke-linecap:round;stroke-linejoin:round;stroke-miterlimit:4;stroke-opacity:1;stroke-dasharray:none"
       d="m 265.92266,729.3659 c 18.43528,-2.0203 21.2132,5.55584 21.71828,9.34391 0.50507,3.78808 -12.87945,13.13199 -23.23351,8.08123"
       id="path8333"
       inkscape:connector-curvature="0" />
    <path
       style="fill:none;stroke:#000000;stroke-width:3;stroke-linecap:round;stroke-linejoin:round;stroke-miterlimit:4;stroke-opacity:1;stroke-dasharray:none"
       d="m 269.45819,734.41667 c 10.6066,0.25253 13.38452,0.25253 13.13198,3.53553 -0.25253,3.283 -7.82868,7.82868 -15.9099,4.04061"
       id="path8335"
       inkscape:connector-curvature="0" />
    <path
       style="fill:none;stroke:#000000;stroke-width:3;stroke-linecap:round;stroke-linejoin:round;stroke-miterlimit:4;stroke-opacity:1;stroke-dasharray:none"
       d="m 211.8795,725.32529 c -6.81853,-6.56599 -14.64722,4.29315 -13.13199,9.09138 1.51523,4.79822 11.8693,9.59645 15.40483,9.59645"
       id="path8337"
       inkscape:connector-curvature="0" />
    <path
       style="fill:none;stroke:#000000;stroke-width:3;stroke-linecap:round;stroke-linejoin:round;stroke-miterlimit:4;stroke-opacity:1;stroke-dasharray:none"
       d="m 212.13203,720.27453 c -11.61675,-6.31345 -21.97081,5.80838 -20.45558,16.41498 1.51522,10.6066 15.15228,14.64721 24.24366,15.15229"
       id="path8339"
       inkscape:connector-curvature="0" />
    <path
       sodipodi:type="arc"
       style="color:#000000;fill:#000000;fill-opacity:1;fill-rule:nonzero;stroke:none;stroke-width:3;marker:none;visibility:visible;display:inline;overflow:visible;enable-background:accumulate"
       id="path8341"
       sodipodi:cx="378.30212"
       sodipodi:cy="408.82864"
       sodipodi:rx="3.0304577"
       sodipodi:ry="5.0507627"
       d="m 381.33258,408.82864 c 0,2.78946 -1.35678,5.05077 -3.03046,5.05077 -1.67367,0 -3.03045,-2.26131 -3.03045,-5.05077 0,-2.78946 1.35678,-5.05076 3.03045,-5.05076 1.67368,0 3.03046,2.2613 3.03046,5.05076 z"
       transform="translate(-1.26269,452.36218)" />
    <path
       style="fill:none;stroke:#000000;stroke-width:3;stroke-linecap:round;stroke-linejoin:round;stroke-miterlimit:4;stroke-opacity:1;stroke-dasharray:none"
       d="m 325.26912,875.58548 c 39.39595,6.06092 69.70052,-4.04061 97.9848,4.04062"
       id="path8283"
       inkscape:connector-curvature="0" />
    <path
       style="fill:none;stroke:#000000;stroke-width:3;stroke-linecap:round;stroke-linejoin:round;stroke-miterlimit:4;stroke-opacity:1;stroke-dasharray:none"
       d="m 416.18285,796.79359 c 8.08122,-31.31473 100.0051,-89.90358 100.0051,-89.90358"
       id="path8279"
       inkscape:connector-curvature="0" />
  </g>
</svg>
