<?xml version="1.0" encoding="UTF-8" standalone="no"?>
<!-- Created with Inkscape (http://www.inkscape.org/) -->

<svg
   xmlns:dc="http://purl.org/dc/elements/1.1/"
   xmlns:cc="http://creativecommons.org/ns#"
   xmlns:rdf="http://www.w3.org/1999/02/22-rdf-syntax-ns#"
   xmlns:svg="http://www.w3.org/2000/svg"
   xmlns="http://www.w3.org/2000/svg"
   xmlns:sodipodi="http://sodipodi.sourceforge.net/DTD/sodipodi-0.dtd"
   xmlns:inkscape="http://www.inkscape.org/namespaces/inkscape"
   width="800"
   height="600"
   id="svg6610"
   version="1.1"
   inkscape:version="0.48.5 r10040"
   sodipodi:docname="baby6.svg">
  <defs
     id="defs6612" />
  <sodipodi:namedview
     id="base"
     pagecolor="#ffffff"
     bordercolor="#666666"
     borderopacity="1.0"
     inkscape:pageopacity="0.0"
     inkscape:pageshadow="2"
     inkscape:zoom="0.7"
     inkscape:cx="666.18128"
     inkscape:cy="235.99705"
     inkscape:document-units="px"
     inkscape:current-layer="layer1"
     showgrid="false"
     inkscape:window-width="1437"
     inkscape:window-height="820"
     inkscape:window-x="121"
     inkscape:window-y="113"
     inkscape:window-maximized="0" />
  <metadata
     id="metadata6615">
    <rdf:RDF>
      <cc:Work
         rdf:about="">
        <dc:format>image/svg+xml</dc:format>
        <dc:type
           rdf:resource="http://purl.org/dc/dcmitype/StillImage" />
        <dc:title></dc:title>
      </cc:Work>
    </rdf:RDF>
  </metadata>
  <g
     inkscape:label="Layer 1"
     inkscape:groupmode="layer"
     id="layer1"
     transform="translate(0,-452.36218)">
    <path
       style="fill:none;stroke:#000000;stroke-width:3;stroke-linecap:round;stroke-linejoin:round;stroke-opacity:1;stroke-miterlimit:4;stroke-dasharray:none"
       d="M 435.71429,236.42857 C 413.57143,190.71428 359.28572,240 346.42857,259.28571 333.57143,278.57143 312.14286,312.85714 343.57143,316.42857 375,320 440.71429,302.14286 442.14286,272.14286 c 1.42857,-30 -39.28572,-41.42858 -53.57143,-39.28572"
       id="path3783"
       inkscape:connector-curvature="0"
       transform="translate(0,452.36218)" />
    <path
       style="fill:none;stroke:#000000;stroke-width:3;stroke-linecap:round;stroke-linejoin:round;stroke-opacity:1;stroke-miterlimit:4;stroke-dasharray:none"
       d="m 370.22091,287.35779 c 7.57614,19.69797 17.67767,13.63706 22.22336,-3.53554"
       id="path3785"
       inkscape:connector-curvature="0"
       transform="translate(0,452.36218)" />
    <path
       style="fill:none;stroke:#000000;stroke-width:3;stroke-linecap:round;stroke-linejoin:round;stroke-opacity:1;stroke-miterlimit:4;stroke-dasharray:none"
       d="m 221.22341,321.70297 c 41.92133,-6.06091 50.00255,1.01016 79.80205,10.6066 29.7995,9.59645 67.17514,24.24367 67.17514,24.24367"
       id="path3787"
       inkscape:connector-curvature="0"
       transform="translate(0,452.36218)" />
    <path
       style="fill:none;stroke:#000000;stroke-width:3;stroke-linecap:round;stroke-linejoin:round;stroke-opacity:1;stroke-miterlimit:4;stroke-dasharray:none"
       d="m 419.71838,355.54308 c 28.28428,-34.34518 88.89343,-58.58884 88.89343,-58.58884"
       id="path3789"
       inkscape:connector-curvature="0"
       transform="translate(0,452.36218)" />
    <path
       style="fill:none;stroke:#000000;stroke-width:3;stroke-linecap:round;stroke-linejoin:round;stroke-opacity:1;stroke-miterlimit:4;stroke-dasharray:none"
       d="m 386.88843,308.57099 c -18.68783,32.32488 -34.34519,70.71068 -30.30458,89.3985 4.04061,18.68782 12.12183,24.74874 33.33503,12.62691 21.21321,-12.12183 33.84011,-36.36549 31.81981,-50.50763 -2.02031,-14.14214 -15.15229,-40.4061 -26.76904,-43.43656 -11.61676,-3.03046 -13.63706,-3.53553 -13.63706,-3.53553"
       id="path3791"
       inkscape:connector-curvature="0"
       transform="translate(0,452.36218)" />
    <path
       style="fill:none;stroke:#000000;stroke-width:3;stroke-linecap:round;stroke-linejoin:round;stroke-opacity:1;stroke-miterlimit:4;stroke-dasharray:none"
       d="m 356.58385,394.43396 c 37.88072,-8.08122 57.07362,-7.07107 57.07362,-7.07107"
       id="path3793"
       inkscape:connector-curvature="0"
       transform="translate(0,452.36218)" />
    <path
       style="fill:none;stroke:#000000;stroke-width:3;stroke-linecap:round;stroke-linejoin:round;stroke-opacity:1;stroke-miterlimit:4;stroke-dasharray:none"
       d="m 377.29198,412.11163 c -15.65737,20.70812 -41.92133,79.80205 -40.4061,98.48987"
       id="path3795"
       inkscape:connector-curvature="0"
       transform="translate(0,452.36218)" />
    <path
       style="fill:none;stroke:#000000;stroke-width:3;stroke-linecap:round;stroke-linejoin:round;stroke-opacity:1;stroke-miterlimit:4;stroke-dasharray:none"
       d="m 395.47472,413.12178 c 11.61676,25.25381 4.54569,23.73858 11.61676,39.90102 7.07107,16.16244 15.15229,31.31473 15.15229,31.31473"
       id="path3797"
       inkscape:connector-curvature="0"
       transform="translate(0,452.36218)" />
    <path
       sodipodi:type="arc"
       style="color:#000000;fill:#000000;fill-opacity:1;fill-rule:nonzero;stroke:#000000;stroke-width:3;stroke-linecap:round;stroke-linejoin:round;stroke-miterlimit:4;stroke-opacity:1;stroke-dasharray:none;stroke-dashoffset:0;marker:none;visibility:visible;display:inline;overflow:visible;enable-background:accumulate"
       id="path3799"
       sodipodi:cx="363.40237"
       sodipodi:cy="261.34634"
       sodipodi:rx="1.767767"
       sodipodi:ry="4.2931485"
       d="m 365.17014,261.34634 a 1.767767,4.2931485 0 1 1 -3.53553,0 1.767767,4.2931485 0 1 1 3.53553,0 z"
       transform="translate(0,452.36218)" />
    <path
       sodipodi:type="arc"
       style="color:#000000;fill:#000000;fill-opacity:1;fill-rule:nonzero;stroke:#000000;stroke-width:3;stroke-linecap:round;stroke-linejoin:round;stroke-miterlimit:4;stroke-opacity:1;stroke-dasharray:none;stroke-dashoffset:0;marker:none;visibility:visible;display:inline;overflow:visible;enable-background:accumulate"
       id="path3801"
       sodipodi:cx="395.2222"
       sodipodi:cy="256.29559"
       sodipodi:rx="1.2626907"
       sodipodi:ry="3.7880721"
       d="m 396.48489,256.29559 a 1.2626907,3.7880721 0 1 1 -2.52538,0 1.2626907,3.7880721 0 1 1 2.52538,0 z"
       transform="translate(0,452.36218)" />
    <path
       sodipodi:type="arc"
       style="color:#000000;fill:#000000;fill-opacity:1;fill-rule:nonzero;stroke:#000000;stroke-width:3;stroke-linecap:round;stroke-linejoin:round;stroke-miterlimit:4;stroke-opacity:1;stroke-dasharray:none;stroke-dashoffset:0;marker:none;visibility:visible;display:inline;overflow:visible;enable-background:accumulate"
       id="path3803"
       sodipodi:cx="388.03571"
       sodipodi:cy="372.14285"
       sodipodi:rx="0.89285713"
       sodipodi:ry="1.7857143"
       d="m 388.92856,372.14285 a 0.89285713,1.7857143 0 1 1 -1.78571,0 0.89285713,1.7857143 0 1 1 1.78571,0 z"
       transform="translate(0,452.36218)" />
  </g>
</svg>
