<?xml version="1.0" encoding="UTF-8" standalone="no"?>
<!-- Created with Inkscape (http://www.inkscape.org/) -->

<svg
   xmlns:dc="http://purl.org/dc/elements/1.1/"
   xmlns:cc="http://creativecommons.org/ns#"
   xmlns:rdf="http://www.w3.org/1999/02/22-rdf-syntax-ns#"
   xmlns:svg="http://www.w3.org/2000/svg"
   xmlns="http://www.w3.org/2000/svg"
   xmlns:sodipodi="http://sodipodi.sourceforge.net/DTD/sodipodi-0.dtd"
   xmlns:inkscape="http://www.inkscape.org/namespaces/inkscape"
   width="800"
   height="600"
   id="svg4927"
   version="1.1"
   inkscape:version="0.48.5 r10040"
   sodipodi:docname="curtain.svg">
  <defs
     id="defs4929" />
  <sodipodi:namedview
     id="base"
     pagecolor="#ffffff"
     bordercolor="#666666"
     borderopacity="1.0"
     inkscape:pageopacity="0.0"
     inkscape:pageshadow="2"
     inkscape:zoom="0.7"
     inkscape:cx="269.57818"
     inkscape:cy="258.78257"
     inkscape:document-units="px"
     inkscape:current-layer="layer1"
     showgrid="false"
     inkscape:window-width="1437"
     inkscape:window-height="869"
     inkscape:window-x="26"
     inkscape:window-y="26"
     inkscape:window-maximized="0" />
  <metadata
     id="metadata4932">
    <rdf:RDF>
      <cc:Work
         rdf:about="">
        <dc:format>image/svg+xml</dc:format>
        <dc:type
           rdf:resource="http://purl.org/dc/dcmitype/StillImage" />
        <dc:title></dc:title>
      </cc:Work>
    </rdf:RDF>
  </metadata>
  <g
     inkscape:label="Layer 1"
     inkscape:groupmode="layer"
     id="layer1"
     transform="translate(0,-452.36218)">
    <path
       style="color:#000000;fill:#ffffff;stroke:none;stroke-width:3;stroke-linecap:round;stroke-linejoin:round;stroke-miterlimit:4;stroke-opacity:1;stroke-dasharray:none;stroke-dashoffset:0;marker:none;visibility:visible;display:inline;overflow:visible;enable-background:accumulate;fill-opacity:1"
       d="M -30.40625 -50 C -33.349375 -50 -35.71875 -47.770002 -35.71875 -45 L -35.71875 682.15625 C -35.71875 684.92625 -33.349375 687.15625 -30.40625 687.15625 L 841.84375 687.15625 C 844.78688 687.15625 847.15625 684.92625 847.15625 682.15625 L 847.15625 -45 C 847.15625 -47.770002 844.78688 -50 841.84375 -50 L -30.40625 -50 z M 392.9375 -35.375 L 422.25 -32.34375 C 454.57489 54.529369 433.34613 198.95255 442.4375 256.53125 C 451.52888 314.10994 465.69463 470.7073 492.96875 546.46875 C 520.24287 622.23019 520.21875 674.75 520.21875 674.75 L 164.65625 675.75 C 164.65625 675.75 198 617.15768 198 582.8125 C 198 548.46731 216.17814 508.06394 220.21875 473.71875 C 224.25937 439.37357 289.92195 271.70686 310.125 226.25 C 330.32805 180.79313 364.68052 25.233509 377.8125 2 C 390.94449 -21.233508 392.9375 -35.375 392.9375 -35.375 z "
       transform="translate(0,452.36218)"
       id="rect5456" />
    <path
       style="fill:none;stroke:#000000;stroke-width:3;stroke-linecap:round;stroke-linejoin:round;stroke-miterlimit:4;stroke-opacity:1;stroke-dasharray:none"
       d="m 422.24376,420.00669 c 32.32489,86.87312 11.11168,231.30462 20.20305,288.88332 9.09138,57.57869 23.23351,214.17264 50.50763,289.93414 27.27412,75.76145 27.27412,128.28935 27.27412,128.28935 l -355.5737,1.0102 c 0,0 33.33504,-58.5889 33.33504,-92.9341 0,-34.3451 18.18274,-74.7513 22.22335,-109.09649 4.04062,-34.34518 69.70053,-202.03051 89.90358,-247.48737 20.20305,-45.45687 54.54824,-201.02036 67.68022,-224.25387 13.13199,-23.2335 15.15229,-37.37564 15.15229,-37.37564 z"
       id="path4946"
       inkscape:connector-curvature="0" />
  </g>
</svg>
