<?xml version="1.0" encoding="UTF-8" standalone="no"?>
<!-- Created with Inkscape (http://www.inkscape.org/) -->

<svg
   xmlns:dc="http://purl.org/dc/elements/1.1/"
   xmlns:cc="http://creativecommons.org/ns#"
   xmlns:rdf="http://www.w3.org/1999/02/22-rdf-syntax-ns#"
   xmlns:svg="http://www.w3.org/2000/svg"
   xmlns="http://www.w3.org/2000/svg"
   xmlns:sodipodi="http://sodipodi.sourceforge.net/DTD/sodipodi-0.dtd"
   xmlns:inkscape="http://www.inkscape.org/namespaces/inkscape"
   width="800"
   height="600"
   id="svg2"
   version="1.1"
   inkscape:version="0.48.5 r10040"
   sodipodi:docname="dino3.svg">
  <defs
     id="defs4" />
  <sodipodi:namedview
     id="base"
     pagecolor="#ffffff"
     bordercolor="#666666"
     borderopacity="1.0"
     inkscape:pageopacity="0.0"
     inkscape:pageshadow="2"
     inkscape:zoom="1.4"
     inkscape:cx="386.28354"
     inkscape:cy="412.17972"
     inkscape:document-units="px"
     inkscape:current-layer="layer1"
     showgrid="false"
     inkscape:window-width="1376"
     inkscape:window-height="866"
     inkscape:window-x="213"
     inkscape:window-y="74"
     inkscape:window-maximized="0" />
  <metadata
     id="metadata7">
    <rdf:RDF>
      <cc:Work
         rdf:about="">
        <dc:format>image/svg+xml</dc:format>
        <dc:type
           rdf:resource="http://purl.org/dc/dcmitype/StillImage" />
        <dc:title></dc:title>
      </cc:Work>
    </rdf:RDF>
  </metadata>
  <g
     inkscape:label="Layer 1"
     inkscape:groupmode="layer"
     id="layer1"
     transform="translate(0,-452.36218)">
    <path
       style="fill:none;stroke:#000000;stroke-width:3;stroke-linecap:butt;stroke-linejoin:miter;stroke-opacity:1;stroke-miterlimit:4;stroke-dasharray:none"
       d="m -64.649763,430.29437 c 62.6294579,0 161.624407,4.04061 175.766543,8.08122 14.14214,4.04061 57.5787,1.01016 119.198,-29.29442 61.61931,-30.30458 100.0051,-91.92388 102.02541,-130.30968 2.0203,-38.3858 18.18274,-70.71068 42.4264,-81.82236 24.24367,-11.11167 66.67007,-49.49747 55.55839,-69.70052 -11.11167,-20.20305 -86.87311,-3.03046 -104.04571,18.18274 -17.17259,21.21321 -31.31473,78.7919 -56.56854,97.9848 -25.25381,19.1929 -53.53809,47.47717 -72.73098,53.53809 -19.1929,6.06091 -73.74114,35.35534 -82.83251,29.29442 -9.09138,-6.06092 -17.172596,-2.0203 -40.406104,11.11168 -23.233509,13.13198 -32.324882,14.14213 -43.43656,13.13198 -11.111678,-1.01015 -17.172593,-4.04061 -28.2842709,3.03046 -11.111678,7.07107 -76.7715931,18.18274 -76.7715931,18.18274"
       id="path4157"
       inkscape:connector-curvature="0"
       transform="translate(0,452.36218)" />
    <path
       style="fill:none;stroke:#000000;stroke-width:3;stroke-linecap:butt;stroke-linejoin:miter;stroke-opacity:1;stroke-miterlimit:4;stroke-dasharray:none"
       d="m 386.88842,119.16739 c -16.16244,1.01015 -8.08122,5.05076 -16.16244,-9.09137 -8.08122,-14.14214 -14.14213,-22.22336 -23.2335,6.06091 -9.09138,28.28427 -9.09138,20.20305 -23.23351,7.07107 -14.14214,-13.13198 -13.13199,-17.17259 -27.27412,11.11168 -14.14214,28.28427 -8.08122,24.24366 -26.26397,20.20305 -18.18274,-4.04061 -19.1929,5.05076 -28.28427,31.31473 -9.09137,26.26396 -5.05076,48.48732 -37.37564,55.55839 -32.32488,7.07106 -54.54824,8.08122 -66.67007,38.38579 -12.12183,30.30458 -15.15229,24.24366 -36.36549,15.15229 -21.213206,-9.09137 -15.152291,-15.15229 -17.172596,-4.04061 -2.020305,11.11168 -3.030458,1.01015 -11.111678,-5.05076 -8.081221,-6.06092 -2.020305,-13.13198 -30.304577,3.03046 -28.284271,16.16244 -11.111678,63.63961 -6.060915,72.73098"
       id="path4159"
       inkscape:connector-curvature="0"
       transform="translate(0,452.36218)" />
    <path
       style="fill:none;stroke:#000000;stroke-width:3;stroke-linecap:butt;stroke-linejoin:miter;stroke-opacity:1;stroke-miterlimit:4;stroke-dasharray:none"
       d="m 297.995,348.47202 c 18.18275,11.11167 13.13198,14.14213 15.15229,26.26396 2.0203,12.12183 13.13198,21.21321 15.15229,31.31473 2.0203,10.10153 8.08122,17.17259 8.08122,17.17259 0,0 -9.09138,-6.06091 -16.16244,-1.01015 -7.07107,5.05076 -7.07107,17.1726 -7.07107,17.1726 0,0 -12.12183,-20.20306 -16.16244,-31.31473 -4.04061,-11.11168 -10.10153,-36.3655 -16.16244,-42.42641"
       id="path4161"
       inkscape:connector-curvature="0"
       transform="translate(0,452.36218)" />
    <path
       style="fill:none;stroke:#000000;stroke-width:3;stroke-linecap:butt;stroke-linejoin:miter;stroke-opacity:1;stroke-miterlimit:4;stroke-dasharray:none"
       d="m 263.64981,371.70552 c 7.07107,30.30458 17.1726,45.45687 17.1726,55.55839 0,10.10153 12.12183,20.20306 12.12183,25.25382 0,5.05076 0,9.09137 0,9.09137 0,0 -11.11168,-6.06091 -22.22336,0 -11.11168,6.06092 -15.15229,18.18275 -15.15229,18.18275 0,0 -16.16244,-48.48733 -16.16244,-75.76144"
       id="path4163"
       inkscape:connector-curvature="0"
       transform="translate(0,452.36218)" />
    <path
       style="fill:none;stroke:#000000;stroke-width:3;stroke-linecap:butt;stroke-linejoin:miter;stroke-opacity:1;stroke-miterlimit:4;stroke-dasharray:none"
       d="m 195.96959,420.19285 c 11.11168,31.31473 6.06092,55.55839 12.12183,69.70052 6.06092,14.14214 8.08122,17.1726 8.08122,17.1726 0,0 -13.13198,-4.04061 -23.2335,-2.02031 -10.10153,2.02031 -19.1929,7.07107 -19.1929,7.07107 0,0 -7.07107,-18.18275 -7.07107,-35.35534 0,-17.17259 1.01015,-44.44671 -4.04061,-48.48732"
       id="path4165"
       inkscape:connector-curvature="0"
       transform="translate(0,452.36218)" />
    <path
       style="fill:none;stroke:#000000;stroke-width:3;stroke-linecap:butt;stroke-linejoin:miter;stroke-opacity:1;stroke-miterlimit:4;stroke-dasharray:none"
       d="m 125.25892,432.31468 c 24.24366,-3.03046 7.07106,55.55839 8.08122,65.65991 1.01015,10.10153 1.01015,23.23351 1.01015,23.23351 0,0 -22.22336,0 -32.32488,-6.06091 -10.101528,-6.06092 -26.263969,-2.02031 -26.263969,-2.02031 0,0 -8.08122,-75.76144 -2.020305,-87.88327"
       id="path4167"
       inkscape:connector-curvature="0"
       transform="translate(0,452.36218)" />
    <path
       sodipodi:type="arc"
       style="color:#000000;fill:#000000;fill-opacity:1;fill-rule:nonzero;stroke:none;stroke-width:2;marker:none;visibility:visible;display:inline;overflow:visible;enable-background:accumulate"
       id="path4169"
       sodipodi:cx="391.42856"
       sodipodi:cy="126.07143"
       sodipodi:rx="2.1428571"
       sodipodi:ry="3.9285715"
       d="m 393.57142,126.07143 a 2.1428571,3.9285715 0 1 1 -4.28572,0 2.1428571,3.9285715 0 1 1 4.28572,0 z"
       transform="translate(0,452.36218)" />
    <path
       style="fill:#000000;stroke:#000000;stroke-width:3;stroke-linecap:round;stroke-linejoin:round;stroke-opacity:1;fill-opacity:1;stroke-miterlimit:4;stroke-dasharray:none"
       d="m 430.35714,142.5 c -12.85714,4.28571 -49.64285,3.57143 -54.28571,4.64286 -4.64286,1.07142 -7.85714,2.5 -7.85714,2.5 0,0 11.78571,0.71428 14.64285,3.21428 2.85715,2.5 13.57143,6.07143 17.5,5 3.92857,-1.07143 17.85715,5.71429 17.85715,5.71429 0,0 9.64285,-7.85714 12.14285,-21.07143 z"
       id="path4171"
       inkscape:connector-curvature="0"
       transform="translate(0,452.36218)" />
  </g>
</svg>
