<?xml version="1.0" encoding="UTF-8" standalone="no"?>
<!-- Created with Inkscape (http://www.inkscape.org/) -->

<svg
   xmlns:dc="http://purl.org/dc/elements/1.1/"
   xmlns:cc="http://creativecommons.org/ns#"
   xmlns:rdf="http://www.w3.org/1999/02/22-rdf-syntax-ns#"
   xmlns:svg="http://www.w3.org/2000/svg"
   xmlns="http://www.w3.org/2000/svg"
   xmlns:sodipodi="http://sodipodi.sourceforge.net/DTD/sodipodi-0.dtd"
   xmlns:inkscape="http://www.inkscape.org/namespaces/inkscape"
   width="800"
   height="600"
   id="svg6610"
   version="1.1"
   inkscape:version="0.48.5 r10040"
   sodipodi:docname="dino7.svg">
  <defs
     id="defs6612" />
  <sodipodi:namedview
     id="base"
     pagecolor="#ffffff"
     bordercolor="#666666"
     borderopacity="1.0"
     inkscape:pageopacity="0.0"
     inkscape:pageshadow="2"
     inkscape:zoom="2.8"
     inkscape:cx="231.33323"
     inkscape:cy="331.67965"
     inkscape:document-units="px"
     inkscape:current-layer="layer1"
     showgrid="false"
     inkscape:window-width="1437"
     inkscape:window-height="820"
     inkscape:window-x="121"
     inkscape:window-y="113"
     inkscape:window-maximized="0" />
  <metadata
     id="metadata6615">
    <rdf:RDF>
      <cc:Work
         rdf:about="">
        <dc:format>image/svg+xml</dc:format>
        <dc:type
           rdf:resource="http://purl.org/dc/dcmitype/StillImage" />
        <dc:title></dc:title>
      </cc:Work>
    </rdf:RDF>
  </metadata>
  <g
     inkscape:label="Layer 1"
     inkscape:groupmode="layer"
     id="layer1"
     transform="translate(0,-452.36218)">
    <path
       style="fill:none;stroke:#000000;stroke-width:3;stroke-linecap:round;stroke-linejoin:round;stroke-opacity:1;stroke-miterlimit:4;stroke-dasharray:none"
       d="m 325.7742,224.72833 c 35.86041,-16.66752 34.85026,-4.54569 41.92133,6.06091 7.07106,10.60661 15.65736,35.86042 1.01015,50.00256 -14.64721,14.14213 -42.93148,33.84011 -56.06347,30.30457 -13.13198,-3.53553 -16.16244,-24.74874 -12.12183,-46.46702 4.04061,-21.71827 9.59645,-44.95178 25.75889,-47.47716 16.16244,-2.52539 17.1726,6.06091 17.1726,6.06091"
       id="path6629"
       inkscape:connector-curvature="0"
       transform="translate(0,452.36218)" />
    <path
       style="fill:none;stroke:#000000;stroke-width:3;stroke-linecap:round;stroke-linejoin:round;stroke-opacity:1;stroke-miterlimit:4;stroke-dasharray:none"
       d="m 299.00515,287.86286 c -15.15228,3.03046 -15.15228,1.51523 -24.24366,5.05077 -9.09137,3.53553 -75.76144,29.29442 -101.01525,43.43656 -25.25382,14.14213 -67.17515,34.34518 -77.781748,39.90102 -10.606602,5.55584 -18.182746,8.5863 -15.657365,22.72843 2.525382,14.14214 9.091373,40.40611 31.314733,46.46702 22.22335,6.06092 55.05331,5.05076 96.97464,-11.61675 41.92133,-16.66752 97.47972,-53.03301 121.21831,-73.74114 23.73858,-20.70813 39.39595,-35.86042 40.4061,-51.51778 1.01015,-15.65736 -6.06092,-16.16244 -6.06092,-16.16244"
       id="path6631"
       inkscape:connector-curvature="0"
       transform="translate(0,452.36218)" />
    <path
       style="fill:none;stroke:#000000;stroke-width:3;stroke-linecap:round;stroke-linejoin:round;stroke-opacity:1;stroke-miterlimit:4;stroke-dasharray:none"
       d="m 346.9874,345.94663 c 12.62691,7.07107 25.25381,22.72844 25.25381,22.72844 0,0 -8.08122,1.01015 -9.59645,10.6066 -1.51522,9.59645 -6.06091,12.12183 -6.06091,12.12183 0,0 -26.76904,-25.75889 -26.26397,-31.31473"
       id="path6633"
       inkscape:connector-curvature="0"
       transform="translate(0,452.36218)" />
    <path
       style="fill:none;stroke:#000000;stroke-width:3;stroke-linecap:round;stroke-linejoin:round;stroke-opacity:1;stroke-miterlimit:4;stroke-dasharray:none"
       d="m 302.54069,378.27152 c 15.15229,2.52538 9.09137,11.61675 14.64721,21.2132 5.55584,9.59645 13.63706,19.69797 13.63706,19.69797 0,0 -11.11168,3.03046 -16.66752,7.07107 -5.55584,4.04061 -4.54568,10.10153 -4.54568,10.10153 0,0 -13.63706,-33.33504 -21.21321,-40.91118 -7.57614,-7.57614 -9.59645,-4.54569 -9.59645,-4.54569"
       id="path6635"
       inkscape:connector-curvature="0"
       transform="translate(0,452.36218)" />
    <path
       style="fill:none;stroke:#000000;stroke-width:3;stroke-linecap:round;stroke-linejoin:round;stroke-opacity:1;stroke-miterlimit:4;stroke-dasharray:none"
       d="m 265.67012,405.04056 c 13.13198,22.72843 20.20305,53.03301 20.20305,53.03301 0,0 -7.07107,0.50507 -15.15229,4.04061 -8.08122,3.53553 -13.13198,8.08122 -13.13198,8.08122 0,0 -19.1929,-36.36549 -23.73859,-47.98225"
       id="path6637"
       inkscape:connector-curvature="0"
       transform="translate(0,452.36218)" />
    <path
       style="fill:none;stroke:#000000;stroke-width:3;stroke-linecap:round;stroke-linejoin:round;stroke-opacity:1;stroke-miterlimit:4;stroke-dasharray:none"
       d="m 199.50513,431.8096 c 13.63706,17.17259 8.08122,17.17259 11.61675,27.7792 3.53554,10.6066 12.12183,29.7995 12.12183,29.7995 0,0 -2.52538,6.56599 -14.64721,10.10152 -12.12183,3.53554 -19.69797,5.05076 -24.24366,8.08122 -4.54569,3.03046 -9.09137,5.05076 -9.09137,5.05076 0,0 -12.12183,-34.85026 -12.62691,-50.50762 -0.50508,-15.65737 -2.52538,-15.65737 -2.52538,-15.65737"
       id="path6639"
       inkscape:connector-curvature="0"
       transform="translate(0,452.36218)" />
    <path
       style="fill:none;stroke:#000000;stroke-width:3;stroke-linecap:round;stroke-linejoin:round;stroke-opacity:1;stroke-miterlimit:4;stroke-dasharray:none"
       d="m 116.67262,545.45176 c -28.284272,0 -36.365493,-5.05076 -40.911179,-9.59645 -4.545687,-4.54568 -20.708127,-43.43656 -15.657365,-63.13453 5.050763,-19.69798 12.626907,-38.89087 25.253814,-48.9924 12.626907,-10.10152 13.131983,-10.6066 13.131983,-10.6066 0,0 -8.08122,-7.07107 -18.687822,2.0203 -10.606602,9.09138 -26.263966,32.32489 -36.870568,67.17515 -10.606602,34.85026 -10.606602,34.34518 -2.020305,53.53808 8.586297,19.1929 17.67767,31.31473 37.880721,31.31473 20.20305,0 37.880721,-21.71828 37.880721,-21.71828 z"
       id="path6641"
       inkscape:connector-curvature="0"
       transform="translate(0,452.36218)" />
    <path
       style="fill:none;stroke:#000000;stroke-width:3;stroke-linecap:round;stroke-linejoin:round;stroke-opacity:1;stroke-miterlimit:4;stroke-dasharray:none"
       d="m 335.87572,200.98974 c -4.04061,-3.53553 -2.52538,0 -3.53553,8.08122 -1.01015,8.08123 -2.52538,12.12184 -9.09138,-3.03045 -6.56599,-15.15229 -11.61675,-3.03046 -11.61675,5.05076 0,8.08122 1.01015,14.14214 1.01015,14.14214 0,0 -7.57614,-24.24367 -12.6269,-13.13199 -5.05077,11.11168 -10.10153,15.15229 -5.05077,24.74874 5.05077,9.59645 2.02031,14.14214 2.02031,14.14214 0,0 -18.68782,41.92133 -22.72843,19.69797 -4.04061,-22.22336 -7.07107,1.01015 -19.69798,27.27412 -12.62691,26.26396 -19.1929,49.49747 -48.9924,23.73858 -29.7995,-25.75889 -31.8198,-4.04061 -37.37564,7.07107 -5.55584,11.11168 -14.64721,30.30458 -35.86042,17.17259 -21.2132,-13.13198 -20.70812,-12.6269 -31.8198,9.09138 -11.11168,21.71828 -9.596451,20.20305 -27.27412,19.1929 -17.67767,-1.01016 -18.182746,9.09137 -14.647212,29.29442 3.535534,20.20305 19.192898,48.48732 -10.101526,43.43656 -29.294424,-5.05076 -22.728432,-0.50508 -20.708127,11.61675 2.020305,12.12183 3.535534,14.64722 3.535534,14.64722 0,0 -19.192898,-6.06092 -14.647212,2.52538 4.545686,8.58629 21.213203,42.4264 20.708127,51.0127"
       id="path6649"
       inkscape:connector-curvature="0"
       transform="translate(0,452.36218)" />
    <path
       sodipodi:type="arc"
       style="color:#000000;fill:#000000;fill-opacity:1;fill-rule:nonzero;stroke:none;stroke-width:3;marker:none;visibility:visible;display:inline;overflow:visible;enable-background:accumulate"
       id="path7161"
       sodipodi:cx="352.32144"
       sodipodi:cy="242.32143"
       sodipodi:rx="2.3214285"
       sodipodi:ry="4.8214288"
       d="m 354.64287,242.32143 c 0,2.6628 -1.03934,4.82143 -2.32143,4.82143 -1.28209,0 -2.32143,-2.15863 -2.32143,-4.82143 0,-2.66281 1.03934,-4.82143 2.32143,-4.82143 1.28209,0 2.32143,2.15862 2.32143,4.82143 z"
       transform="matrix(1.4615385,0,0,1,-161.53847,452.36218)" />
    <path
       style="fill:#000000;stroke:none;stroke-width:1px;stroke-linecap:butt;stroke-linejoin:miter;stroke-opacity:1;fill-opacity:1"
       d="m 376.07143,252.5 c -19.64286,2.85714 -31.07143,10.35714 -26.78572,19.28571 4.28572,8.92858 13.92858,13.92858 13.92858,13.92858 0,0 11.07142,-8.57143 12.85714,-15.71429 1.78571,-7.14286 0,-17.5 0,-17.5 z"
       id="path7734"
       inkscape:connector-curvature="0"
       transform="translate(0,452.36218)" />
  </g>
</svg>
