<?xml version="1.0" encoding="UTF-8" standalone="no"?>
<!-- Created with Inkscape (http://www.inkscape.org/) -->

<svg
   xmlns:dc="http://purl.org/dc/elements/1.1/"
   xmlns:cc="http://creativecommons.org/ns#"
   xmlns:rdf="http://www.w3.org/1999/02/22-rdf-syntax-ns#"
   xmlns:svg="http://www.w3.org/2000/svg"
   xmlns="http://www.w3.org/2000/svg"
   xmlns:sodipodi="http://sodipodi.sourceforge.net/DTD/sodipodi-0.dtd"
   xmlns:inkscape="http://www.inkscape.org/namespaces/inkscape"
   width="169"
   height="200"
   id="svg5478"
   version="1.1"
   inkscape:version="0.48.5 r10040"
   sodipodi:docname="New document 17">
  <defs
     id="defs5480" />
  <sodipodi:namedview
     id="base"
     pagecolor="#ffffff"
     bordercolor="#666666"
     borderopacity="1.0"
     inkscape:pageopacity="0.0"
     inkscape:pageshadow="2"
     inkscape:zoom="0.98994949"
     inkscape:cx="71.314921"
     inkscape:cy="238.61139"
     inkscape:document-units="px"
     inkscape:current-layer="layer1"
     showgrid="false"
     inkscape:object-paths="false"
     inkscape:window-width="1920"
     inkscape:window-height="1017"
     inkscape:window-x="-8"
     inkscape:window-y="-8"
     inkscape:window-maximized="1" />
  <metadata
     id="metadata5483">
    <rdf:RDF>
      <cc:Work
         rdf:about="">
        <dc:format>image/svg+xml</dc:format>
        <dc:type
           rdf:resource="http://purl.org/dc/dcmitype/StillImage" />
        <dc:title></dc:title>
      </cc:Work>
    </rdf:RDF>
  </metadata>
  <g
     inkscape:label="Layer 1"
     inkscape:groupmode="layer"
     id="layer1"
     transform="translate(0,-852.36218)">
    <path
       style="fill:none;stroke:#000000;stroke-width:3;stroke-linecap:round;stroke-linejoin:round;stroke-miterlimit:4;stroke-opacity:1;stroke-dasharray:none"
       d="m 105.7182,978.43691 c -11.428567,29.28569 -11.071427,40.35719 -9.642857,68.57139"
       id="path5497"
       inkscape:connector-curvature="0" />
    <path
       style="fill:none;stroke:#000000;stroke-width:3;stroke-linecap:round;stroke-linejoin:round;stroke-miterlimit:4;stroke-opacity:1;stroke-dasharray:none"
       d="m 119.64677,976.29405 c 3.21429,15.71428 14.64286,46.78575 15,61.42855"
       id="path5499"
       inkscape:connector-curvature="0" />
    <path
       style="fill:none;stroke:#000000;stroke-width:3;stroke-linecap:round;stroke-linejoin:round;stroke-miterlimit:4;stroke-opacity:1;stroke-dasharray:none"
       d="m 159.28963,937.36548 c -20,-4.28572 -37.5,2.14285 -37.5,2.14285"
       id="path5501"
       inkscape:connector-curvature="0" />
    <path
       style="fill:none;stroke:#000000;stroke-width:3;stroke-linecap:round;stroke-linejoin:round;stroke-miterlimit:4;stroke-opacity:1;stroke-dasharray:none"
       d="m 91.432493,942.00833 c -26.07144,-2.49999 -20.71429,12.5 -42.85715,12.85715"
       id="path5503"
       inkscape:connector-curvature="0"
       sodipodi:nodetypes="cc" />
    <path
       style="fill:none;stroke:#000000;stroke-width:3;stroke-linecap:round;stroke-linejoin:round;stroke-miterlimit:4;stroke-opacity:1;stroke-dasharray:none"
       d="m 4.2896326,946.65119 c 17.5000004,0 44.6428604,-4.64286 50.7142804,-0.71428 6.07143,3.92857 -0.35714,29.64285 -0.35714,29.64285 0,0 -24.28571,-0.35714 -28.57143,1.78572 -4.28571,2.14285 -8.21428,4.28571 -10.71428,-2.5 -2.5,-6.78572 -1.42857,-21.07143 2.5,-28.57143"
       id="path5505"
       inkscape:connector-curvature="0" />
    <path
       style="fill:none;stroke:#000000;stroke-width:3;stroke-linecap:round;stroke-linejoin:round;stroke-miterlimit:4;stroke-opacity:1;stroke-dasharray:none"
       d="m 57.503913,940.22262 c -13.21428,-7.5 -28.57142,-18.21429 -35.35714,-18.92857 -6.78571,-0.71429 -8.21428,1.42857 -8.21428,1.42857 l 0.71428,10.35714 c 0,0 10.35714,0 15.71429,3.57143 5.35714,3.57143 21.42857,11.42857 21.42857,11.42857 z"
       id="path5507"
       inkscape:connector-curvature="0" />
    <path
       style="fill:#000000;fill-opacity:1;stroke:none"
       d="m 18.048693,933.25422 c 2.15436,-4.13065 9.03732,-10.46933 9.03732,-10.46933 0,0 -7.23294,-2.6948 -10.15433,-1.4256 -2.92139,1.2692 -2.96679,1.83315 -2.96679,1.83315 l 1.06012,9.89255 z"
       id="path5509"
       inkscape:connector-curvature="0" />
    <path
       style="fill:#000000;fill-opacity:1;stroke:none"
       d="m 31.369883,924.84027 -7.25524,9.34581 8.60054,3.92025 6.45607,-8.85707 z"
       id="path5511"
       inkscape:connector-curvature="0" />
    <path
       style="fill:#000000;fill-opacity:1;stroke:none"
       d="m 38.273043,941.18837 7.51367,-7.94378 5.81656,3.52316 -6.75394,7.84014 z"
       id="path5513"
       inkscape:connector-curvature="0" />
    <path
       style="fill:none;stroke:#000000;stroke-width:3;stroke-linecap:round;stroke-linejoin:round;stroke-miterlimit:4;stroke-opacity:1;stroke-dasharray:none"
       d="m 21.718283,956.27142 c 4.41942,-5.68211 5.3033,-7.07107 7.57614,-3.03046 2.27284,4.04061 4.79823,3.283 6.81853,0.75761 2.02031,-2.52538 4.55527,-4.33067 7.70241,-0.50507 1.85579,2.25586 2.65166,2.52538 2.65166,2.52538"
       id="path5515"
       inkscape:connector-curvature="0"
       sodipodi:nodetypes="csssc" />
    <path
       style="fill:none;stroke:#000000;stroke-width:3;stroke-linecap:round;stroke-linejoin:round;stroke-miterlimit:4;stroke-opacity:1;stroke-dasharray:none"
       d="m 86.432493,923.07976 c 14.999997,-10.35714 21.607137,-6.78571 26.607137,1.96429 5,8.75 6.42857,12.5 12.85714,18.21428 6.42857,5.71429 7.5,23.21429 -4.82143,31.96429 -12.32142,8.75 -22.499997,10.17857 -29.107137,1.60714 -6.60714,-8.57143 -6.78571,-36.78571 1.78572,-57.32143"
       id="path5517"
       inkscape:connector-curvature="0" />
    <path
       style="fill:none;stroke:#000000;stroke-width:3;stroke-linecap:round;stroke-linejoin:round;stroke-miterlimit:4;stroke-opacity:1;stroke-dasharray:none"
       d="m 103.2182,868.25833 c -0.35714,-11.25 -10.892857,-10.89285 -18.392857,-2.5 -7.5,8.39286 -22.14285,34.10715 -14.46428,43.75 7.67857,9.64286 11.60714,11.25 33.214277,4.46429 21.60715,-6.78571 26.60715,-21.07143 22.67858,-36.07143 -3.92858,-15 -19.28572,-21.78571 -30.714287,-14.46428"
       id="path5519"
       inkscape:connector-curvature="0" />
    <path
       style="fill:none;stroke:#000000;stroke-width:3;stroke-linecap:round;stroke-linejoin:round;stroke-miterlimit:4;stroke-opacity:1;stroke-dasharray:none"
       d="m 100.00392,874.32976 c 0,6.07143 2.32142,10.89286 2.32142,10.89286"
       id="path5521"
       inkscape:connector-curvature="0" />
    <path
       style="fill:none;stroke:#000000;stroke-width:3;stroke-linecap:round;stroke-linejoin:round;stroke-miterlimit:4;stroke-opacity:1;stroke-dasharray:none"
       d="m 86.253923,877.54405 c 1.78571,4.82143 1.42857,10 1.42857,10"
       id="path5523"
       inkscape:connector-curvature="0" />
    <path
       style="fill:#000000;fill-opacity:1;stroke:none"
       d="m 96.789633,896.82976 c 9.821427,-0.35714 7.857137,7.32143 5.714287,11.78572 -2.14286,4.46428 -8.571427,3.92857 -9.821427,-0.71429 -1.25,-4.64286 -0.89286,-10.17857 4.10714,-11.07143 z"
       id="path5525"
       inkscape:connector-curvature="0" />
  </g>
</svg>
