<?xml version="1.0" encoding="UTF-8" standalone="no"?>
<!-- Created with Inkscape (http://www.inkscape.org/) -->

<svg
   xmlns:dc="http://purl.org/dc/elements/1.1/"
   xmlns:cc="http://creativecommons.org/ns#"
   xmlns:rdf="http://www.w3.org/1999/02/22-rdf-syntax-ns#"
   xmlns:svg="http://www.w3.org/2000/svg"
   xmlns="http://www.w3.org/2000/svg"
   xmlns:sodipodi="http://sodipodi.sourceforge.net/DTD/sodipodi-0.dtd"
   xmlns:inkscape="http://www.inkscape.org/namespaces/inkscape"
   width="800"
   height="600"
   id="svg2"
   version="1.1"
   inkscape:version="0.48.5 r10040"
   sodipodi:docname="title-base4.svg">
  <defs
     id="defs4" />
  <sodipodi:namedview
     id="base"
     pagecolor="#ffffff"
     bordercolor="#666666"
     borderopacity="1.0"
     inkscape:pageopacity="0.0"
     inkscape:pageshadow="2"
     inkscape:zoom="0.49497475"
     inkscape:cx="389.37721"
     inkscape:cy="143.95863"
     inkscape:document-units="px"
     inkscape:current-layer="layer1"
     showgrid="false"
     inkscape:window-width="1376"
     inkscape:window-height="866"
     inkscape:window-x="213"
     inkscape:window-y="74"
     inkscape:window-maximized="0" />
  <metadata
     id="metadata7">
    <rdf:RDF>
      <cc:Work
         rdf:about="">
        <dc:format>image/svg+xml</dc:format>
        <dc:type
           rdf:resource="http://purl.org/dc/dcmitype/StillImage" />
        <dc:title></dc:title>
      </cc:Work>
    </rdf:RDF>
  </metadata>
  <g
     inkscape:label="Layer 1"
     inkscape:groupmode="layer"
     id="layer1"
     transform="translate(0,-452.36218)">
    <path
       style="fill:none;stroke:#000000;stroke-width:3;stroke-linecap:round;stroke-linejoin:round;stroke-opacity:1;stroke-miterlimit:4;stroke-dasharray:none"
       d="m 55.714286,522.85714 c 0,-26.42857 65.000004,-34.28571 107.857144,-41.42857 42.85714,-7.14286 148.57143,-25.71428 179.28571,-10.71428 30.71429,15 60.71429,30.71428 55.71429,64.28571 -5,33.57143 -54.28572,57.85714 -112.14286,50 -57.85714,-7.85714 -113.57143,-21.42857 -147.14286,-32.85714 -33.57142,-11.42857 -78.571424,0 -83.571424,-29.28572 z"
       id="path3996"
       inkscape:connector-curvature="0"
       transform="translate(0,452.36218)" />
    <path
       style="fill:none;stroke:#000000;stroke-width:3;stroke-linecap:round;stroke-linejoin:round;stroke-opacity:1;stroke-miterlimit:4;stroke-dasharray:none"
       d="m 698.57143,330 c -49.28572,-13.57143 -67.14286,-14.28571 -75,16.42857 -7.85714,30.71429 50.71428,14.28572 66.42857,10.71429 15.71429,-3.57143 30,-7.14286 30,-10 0,-2.85715 -15.71428,-40 -50,-28.57143"
       id="path3998"
       inkscape:connector-curvature="0"
       transform="translate(0,452.36218)" />
    <path
       style="fill:none;stroke:#000000;stroke-width:3;stroke-linecap:round;stroke-linejoin:round;stroke-opacity:1;stroke-miterlimit:4;stroke-dasharray:none"
       d="m 474.28571,173.57143 c 40,-27.85714 53.57143,23.57143 50.71429,42.14286 -2.85714,18.57142 -32.85714,31.42857 -44.28571,20.71428 C 469.28571,225.71429 461.42857,197.14286 468.57143,190 c 7.14286,-7.14286 33.57143,-27.14286 40,-17.85714"
       id="path4000"
       inkscape:connector-curvature="0"
       transform="translate(0,452.36218)" />
    <path
       style="fill:none;stroke:#000000;stroke-width:3;stroke-linecap:round;stroke-linejoin:round;stroke-opacity:1;stroke-miterlimit:4;stroke-dasharray:none"
       d="m 729.28572,153.57143 c -23.57143,22.14286 -21.42858,27.14286 -10,40.71428 11.42857,13.57143 55,-8.57142 51.42857,-20 -3.57143,-11.42857 -5.66298,-29.55426 -28.57143,-27.14285 -13.57143,1.42857 -12.85714,6.42857 -12.85714,6.42857 z"
       id="path4002"
       inkscape:connector-curvature="0"
       transform="translate(0,452.36218)"
       sodipodi:nodetypes="csssc" />
    <path
       style="fill:none;stroke:#000000;stroke-width:3;stroke-linecap:round;stroke-linejoin:round;stroke-opacity:1;stroke-miterlimit:4;stroke-dasharray:none"
       d="m 840.00871,437.48949 c -73.16172,-9.24982 -76.43728,-21.7752 -73.58014,-33.20378 2.85715,-11.42857 28.91807,-42.45359 73.61604,-52.74945"
       id="path4004"
       inkscape:connector-curvature="0"
       transform="translate(0,452.36218)"
       sodipodi:nodetypes="csc" />
  </g>
</svg>
