<?xml version="1.0" encoding="UTF-8" standalone="no"?>
<!-- Created with Inkscape (http://www.inkscape.org/) -->

<svg
   xmlns:dc="http://purl.org/dc/elements/1.1/"
   xmlns:cc="http://creativecommons.org/ns#"
   xmlns:rdf="http://www.w3.org/1999/02/22-rdf-syntax-ns#"
   xmlns:svg="http://www.w3.org/2000/svg"
   xmlns="http://www.w3.org/2000/svg"
   xmlns:sodipodi="http://sodipodi.sourceforge.net/DTD/sodipodi-0.dtd"
   xmlns:inkscape="http://www.inkscape.org/namespaces/inkscape"
   width="800"
   height="600"
   id="svg6610"
   version="1.1"
   inkscape:version="0.48.5 r10040"
   sodipodi:docname="i-win.svg">
  <defs
     id="defs6612" />
  <sodipodi:namedview
     id="base"
     pagecolor="#ffffff"
     bordercolor="#666666"
     borderopacity="1.0"
     inkscape:pageopacity="0.0"
     inkscape:pageshadow="2"
     inkscape:zoom="0.98994949"
     inkscape:cx="280.61462"
     inkscape:cy="301.50558"
     inkscape:document-units="px"
     inkscape:current-layer="layer1"
     showgrid="false"
     inkscape:window-width="1437"
     inkscape:window-height="820"
     inkscape:window-x="121"
     inkscape:window-y="113"
     inkscape:window-maximized="0" />
  <metadata
     id="metadata6615">
    <rdf:RDF>
      <cc:Work
         rdf:about="">
        <dc:format>image/svg+xml</dc:format>
        <dc:type
           rdf:resource="http://purl.org/dc/dcmitype/StillImage" />
        <dc:title></dc:title>
      </cc:Work>
    </rdf:RDF>
  </metadata>
  <g
     inkscape:label="Layer 1"
     inkscape:groupmode="layer"
     id="layer1"
     transform="translate(0,-452.36218)">
    <path
       style="fill:none;stroke:#000000;stroke-width:3;stroke-linecap:round;stroke-linejoin:round;stroke-opacity:1;stroke-miterlimit:4;stroke-dasharray:none"
       d="m 179.80715,33.304423 c 9.09138,44.446712 -2.0203,83.842657 5.05077,100.005097"
       id="path8255"
       inkscape:connector-curvature="0"
       transform="translate(0,452.36218)" />
    <path
       style="fill:none;stroke:#000000;stroke-width:3;stroke-linecap:round;stroke-linejoin:round;stroke-opacity:1;stroke-miterlimit:4;stroke-dasharray:none"
       d="m 166.67517,85.832355 c 36.36549,-4.04061 41.41625,-3.030457 41.41625,-3.030457"
       id="path8257"
       inkscape:connector-curvature="0"
       transform="translate(0,452.36218)" />
    <path
       style="fill:none;stroke:#000000;stroke-width:3;stroke-linecap:round;stroke-linejoin:round;stroke-opacity:1;stroke-miterlimit:4;stroke-dasharray:none"
       d="m 217.1828,33.304423 c 18.18274,24.243661 3.03045,55.55839 7.07106,65.659915 4.04061,10.101522 3.03046,18.182742 3.03046,18.182742 0,0 1.01015,-42.426403 14.14214,-32.324877 13.13198,10.101525 18.18274,32.324877 18.18274,32.324877"
       id="path8259"
       inkscape:connector-curvature="0"
       transform="translate(0,452.36218)" />
    <path
       style="fill:none;stroke:#000000;stroke-width:3;stroke-linecap:round;stroke-linejoin:round;stroke-opacity:1;stroke-miterlimit:4;stroke-dasharray:none"
       d="m 274.76149,99.974491 c 6.06092,1.010149 40.4061,-12.121831 38.3858,-19.192898 -2.02031,-7.071068 -16.16244,-28.284272 -28.28427,-8.081221 -12.12183,20.203051 -6.06092,48.487318 20.20305,45.456868 26.26396,-3.03046 19.1929,-7.07107 19.1929,-7.07107"
       id="path8261"
       inkscape:connector-curvature="0"
       transform="translate(0,452.36218)" />
    <path
       style="fill:none;stroke:#000000;stroke-width:3;stroke-linecap:round;stroke-linejoin:round;stroke-opacity:1;stroke-miterlimit:4;stroke-dasharray:none"
       d="m 356.58385,77.751135 c 13.13198,7.071068 48.48732,7.071068 44.44671,-8.08122 -4.04061,-15.152289 -30.30458,-17.172594 -30.30458,-2.020306 0,15.152289 0,31.314729 19.1929,39.395951 19.1929,8.08122 25.25382,1.01015 25.25382,1.01015"
       id="path8263"
       inkscape:connector-curvature="0"
       transform="translate(0,452.36218)" />
    <path
       style="fill:none;stroke:#000000;stroke-width:3;stroke-linecap:round;stroke-linejoin:round;stroke-opacity:1;stroke-miterlimit:4;stroke-dasharray:none"
       d="m 437.39605,54.517626 c -9.09137,17.172594 8.08122,58.588844 8.08122,58.588844 0,0 -14.14213,-51.517776 11.11168,-58.588844 25.25381,-7.071067 25.25381,9.091373 25.25381,25.253814 0,16.162441 -1.01015,41.41625 5.05077,33.33503"
       id="path8265"
       inkscape:connector-curvature="0"
       transform="translate(0,452.36218)" />
    <path
       style="fill:none;stroke:#000000;stroke-width:3;stroke-linecap:round;stroke-linejoin:round;stroke-opacity:1;stroke-miterlimit:4;stroke-dasharray:none"
       d="m 539.42146,8.0506094 c -4.04061,26.2639656 -2.02031,67.6802206 0,75.7614406 2.0203,8.08122 4.04061,17.17259 4.04061,17.17259 0,0 1.01015,-26.263963 -1.01015,-30.304573 -2.02031,-4.04061 -5.05077,-21.213203 -10.10153,-15.152288 -5.05076,6.060915 -26.26397,24.243661 -18.18275,36.365491 8.08123,12.12183 30.30458,0 30.30458,0"
       id="path8267"
       inkscape:connector-curvature="0"
       transform="translate(0,452.36218)" />
    <path
       style="fill:none;stroke:#000000;stroke-width:3;stroke-linecap:round;stroke-linejoin:round;stroke-opacity:1;stroke-miterlimit:4;stroke-dasharray:none"
       d="m 599.02046,329.27912 c -6.06092,-18.18275 -8.08122,-6.06092 -17.17259,6.06091 -9.09138,12.12183 -12.12184,19.1929 -31.31473,0 -19.1929,-19.19289 -32.32489,-14.14213 -52.52794,18.18275 -20.20305,32.32488 -21.2132,42.42641 -27.27411,29.29442 -6.06092,-13.13198 -10.10153,-46.46701 -34.34519,-28.28427 -24.24366,18.18275 -24.24366,21.21321 -30.30458,28.28427 -6.06091,7.07107 -3.03046,15.15229 -3.03046,15.15229 0,0 -4.04061,-35.35534 -20.20305,-26.26396 -16.16244,9.09137 -27.27411,30.30457 -35.35533,8.08122 -8.08123,-22.22336 -12.12184,-32.32489 -32.32489,-13.13199 -20.20305,19.1929 -26.26396,36.36549 -39.39595,15.15229 -13.13198,-21.2132 -10.10152,-18.18275 -24.24366,5.05076 -14.14213,23.23351 -27.27412,20.20305 -30.30457,9.09138 -3.03046,-11.11168 -4.04061,-18.18275 -4.04061,-18.18275 0,0 -19.1929,32.32488 -28.28427,32.32488 -9.09138,0 -14.14214,-13.13198 -14.14214,-13.13198 0,0 -6.06092,29.29442 -13.13198,32.32488 -7.07107,3.03046 -10.10153,-32.32488 -10.10153,-32.32488 0,0 -1.01015,32.32488 -14.14213,31.31473 -13.13199,-1.01015 -15.15229,-2.02031 -25.25382,17.17259 -10.10152,19.1929 -24.243659,19.1929 -39.395947,12.12183 -15.152288,-7.07107 -23.233508,8.08122 -15.152288,31.31473 8.08122,23.23351 12.121831,20.20305 12.121831,20.20305"
       id="path8289"
       inkscape:connector-curvature="0"
       transform="translate(0,452.36218)" />
    <path
       style="fill:none;stroke:#000000;stroke-width:3;stroke-linecap:round;stroke-linejoin:round;stroke-opacity:1;stroke-miterlimit:4;stroke-dasharray:none"
       d="m 193.94929,449.48727 c -68.69037,16.16244 -147.482273,70.71068 -147.482273,85.86297 0,15.15229 4.04061,25.25381 21.213203,19.1929 17.172594,-6.06092 132.32998,-97.9848 132.32998,-97.9848"
       id="path8291"
       inkscape:connector-curvature="0"
       transform="translate(0,452.36218)" />
    <path
       style="fill:none;stroke:#000000;stroke-width:3;stroke-linecap:round;stroke-linejoin:round;stroke-opacity:1;stroke-miterlimit:4;stroke-dasharray:none"
       d="m 567.70573,402.0101 c -36.36549,-13.13198 -127.27922,-5.05076 -166.67517,2.02031 -39.39595,7.07106 -162.63456,-1.01016 -190.91883,7.07106 -28.28427,8.08122 -34.34519,14.14214 -24.24366,39.39595 10.10152,25.25382 63.63961,36.3655 111.11678,44.44672 47.47717,8.08122 206.07112,7.07106 235.36554,1.01015 29.29442,-6.06092 84.85281,-23.23351 78.7919,-54.54824 -6.06092,-31.31473 -10.10153,-28.28427 -10.10153,-28.28427 z"
       id="path8293"
       inkscape:connector-curvature="0"
       transform="translate(0,452.36218)" />
    <path
       style="fill:none;stroke:#000000;stroke-width:3;stroke-linecap:round;stroke-linejoin:round;stroke-opacity:1;stroke-miterlimit:4;stroke-dasharray:none"
       d="m 528.30978,494.94414 c 24.24366,21.2132 25.25381,41.41625 25.25381,41.41625 0,0 -18.18274,-5.05076 -29.29442,-4.04061 -11.11168,1.01015 -15.15229,8.08122 -15.15229,8.08122 l 1.01015,-41.41625"
       id="path8295"
       inkscape:connector-curvature="0"
       transform="translate(0,452.36218)" />
    <path
       style="fill:none;stroke:#000000;stroke-width:3;stroke-linecap:round;stroke-linejoin:round;stroke-opacity:1;stroke-miterlimit:4;stroke-dasharray:none"
       d="m 482.85292,498.98475 c 0,0 3.03045,13.13198 4.04061,23.2335 1.01015,10.10153 2.0203,27.27412 2.0203,27.27412 0,0 -16.16244,-4.04061 -22.22335,-3.03045 -6.06092,1.01015 -15.15229,6.06091 -15.15229,6.06091 0,0 -12.12183,-49.49747 -6.06092,-60.60915"
       id="path8297"
       inkscape:connector-curvature="0"
       transform="translate(0,452.36218)" />
    <path
       style="fill:none;stroke:#000000;stroke-width:3;stroke-linecap:round;stroke-linejoin:round;stroke-opacity:1;stroke-miterlimit:4;stroke-dasharray:none"
       d="m 400.02041,498.98475 c 10.10152,30.30457 6.06091,34.34518 9.09137,45.45686 3.03046,11.11168 5.05076,15.15229 5.05076,15.15229 0,0 -13.13198,-6.06092 -23.23351,-6.06092 -10.10152,0 -16.16244,6.06092 -16.16244,6.06092 0,0 -4.04061,-56.56854 7.07107,-64.64976"
       id="path8299"
       inkscape:connector-curvature="0"
       transform="translate(0,452.36218)"
       sodipodi:nodetypes="cscscc" />
    <path
       style="fill:none;stroke:#000000;stroke-width:3;stroke-linecap:round;stroke-linejoin:round;stroke-opacity:1;stroke-miterlimit:4;stroke-dasharray:none"
       d="m 343.45186,498.98475 c 11.11168,18.18274 6.06092,39.39594 4.04062,50.50762 -2.02031,11.11168 2.0203,14.14214 2.0203,14.14214 l -40.4061,0 c 0,0 7.07107,-57.5787 16.16244,-73.74114"
       id="path8301"
       inkscape:connector-curvature="0"
       transform="translate(0,452.36218)" />
    <path
       style="fill:none;stroke:#000000;stroke-width:3;stroke-linecap:round;stroke-linejoin:round;stroke-opacity:1;stroke-miterlimit:4;stroke-dasharray:none"
       d="M 568.92857,403.21429 C 552.5,397.85714 541.78571,391.42857 542.5,382.5 c 0.71429,-8.92857 40.35714,-27.14286 46.42857,-32.14286 6.07143,-5 13.21429,-10.71428 28.92857,-5 15.71429,5.71429 31.42857,14.64286 34.28572,30.71429 C 655,392.14286 645,412.5 628.92857,414.64286 c -16.07143,2.14285 -60,-11.42857 -60,-11.42857 z"
       id="path8303"
       inkscape:connector-curvature="0"
       transform="translate(0,452.36218)" />
    <path
       style="fill:none;stroke:#000000;stroke-width:3;stroke-linecap:round;stroke-linejoin:round;stroke-opacity:1;stroke-miterlimit:4;stroke-dasharray:none"
       d="m 580.71429,380.71429 c 7.14285,-8.92858 23.21428,-17.5 23.21428,-17.5"
       id="path8305"
       inkscape:connector-curvature="0"
       transform="translate(0,452.36218)" />
    <path
       style="fill:none;stroke:#000000;stroke-width:3;stroke-linecap:round;stroke-linejoin:round;stroke-opacity:1;stroke-miterlimit:4;stroke-dasharray:none"
       d="m 587.14286,361.42857 c 3.57143,6.07143 7.5,21.78572 7.5,21.78572"
       id="path8307"
       inkscape:connector-curvature="0"
       transform="translate(0,452.36218)" />
    <path
       style="fill:none;stroke:#000000;stroke-width:3;stroke-linecap:round;stroke-linejoin:round;stroke-opacity:1;stroke-miterlimit:4;stroke-dasharray:none"
       d="m 617.85714,366.07143 c 3.21429,10.71428 5,24.28571 5,24.28571"
       id="path8309"
       inkscape:connector-curvature="0"
       transform="translate(0,452.36218)" />
    <path
       style="fill:none;stroke:#000000;stroke-width:3;stroke-linecap:round;stroke-linejoin:round;stroke-opacity:1;stroke-miterlimit:4;stroke-dasharray:none"
       d="m 610.71429,385 c 10.35714,-12.5 20,-17.5 23.57142,-18.21429"
       id="path8311"
       inkscape:connector-curvature="0"
       transform="translate(0,452.36218)" />
    <path
       style="fill:#000000;stroke:#000000;stroke-width:3;stroke-linecap:round;stroke-linejoin:round;stroke-opacity:1;stroke-miterlimit:4;stroke-dasharray:none;fill-opacity:1"
       d="m 604.64286,412.5 c -2.5,-7.85714 -2.85715,-11.78571 -6.42857,-11.78571 -3.57143,0 -8.21429,3.57142 -9.64286,8.21428 -1.42857,4.64286 16.07143,3.57143 16.07143,3.57143 z"
       id="path8313"
       inkscape:connector-curvature="0"
       transform="translate(0,452.36218)" />
    <path
       style="fill:none;stroke:#000000;stroke-width:3;stroke-linecap:round;stroke-linejoin:round;stroke-opacity:1;stroke-miterlimit:4;stroke-dasharray:none"
       d="m 688.21429,464.28571 c -38.92858,1.42858 -36.42858,60 -25,71.07143 11.42857,11.07143 36.07142,11.78572 45,-7.5 8.92857,-19.28571 -0.35715,-62.5 -20,-63.57143 z"
       id="path8315"
       inkscape:connector-curvature="0"
       transform="translate(0,452.36218)" />
    <path
       style="fill:none;stroke:#000000;stroke-width:3;stroke-linecap:round;stroke-linejoin:round;stroke-opacity:1;stroke-miterlimit:4;stroke-dasharray:none"
       d="m 665.71429,471.42857 c -3.92858,-30 0.71428,-28.57143 3.21428,-28.57143 2.5,0 2.5,11.42857 2.5,11.42857 0,0 0.35714,-14.28571 6.42857,-17.5 6.07143,-3.21428 6.07143,8.57143 6.07143,8.57143 0,0 1.07143,-15 4.64286,-15.71428 3.57143,-0.71429 5.35714,5 5.35714,5 0,0 1.07143,-15.71429 3.21429,-16.07143 2.14285,-0.35714 2.14285,9.64286 2.14285,9.64286 0,0 2.5,-12.85715 4.64286,-12.85715 2.14286,0 3.57143,12.5 3.57143,12.5 0,0 2.14286,-12.5 4.28571,-10.35714 2.14286,2.14286 -2.5,22.14286 -2.5,22.14286 0,0 3.21429,-8.57143 4.64286,-6.42857 1.42857,2.14285 -15,43.92857 -15,43.92857"
       id="path8317"
       inkscape:connector-curvature="0"
       transform="translate(0,452.36218)" />
  </g>
</svg>
