<?xml version="1.0" encoding="UTF-8" standalone="no"?>
<!-- Created with Inkscape (http://www.inkscape.org/) -->

<svg
   xmlns:dc="http://purl.org/dc/elements/1.1/"
   xmlns:cc="http://creativecommons.org/ns#"
   xmlns:rdf="http://www.w3.org/1999/02/22-rdf-syntax-ns#"
   xmlns:svg="http://www.w3.org/2000/svg"
   xmlns="http://www.w3.org/2000/svg"
   xmlns:sodipodi="http://sodipodi.sourceforge.net/DTD/sodipodi-0.dtd"
   xmlns:inkscape="http://www.inkscape.org/namespaces/inkscape"
   width="800"
   height="600"
   id="svg2"
   version="1.1"
   inkscape:version="0.48.5 r10040"
   sodipodi:docname="New document 1">
  <defs
     id="defs4" />
  <sodipodi:namedview
     id="base"
     pagecolor="#ffffff"
     bordercolor="#666666"
     borderopacity="1.0"
     inkscape:pageopacity="0.0"
     inkscape:pageshadow="2"
     inkscape:zoom="0.98994949"
     inkscape:cx="523.11281"
     inkscape:cy="329.2596"
     inkscape:document-units="px"
     inkscape:current-layer="layer1"
     showgrid="false"
     inkscape:window-width="1376"
     inkscape:window-height="866"
     inkscape:window-x="245"
     inkscape:window-y="75"
     inkscape:window-maximized="0" />
  <metadata
     id="metadata7">
    <rdf:RDF>
      <cc:Work
         rdf:about="">
        <dc:format>image/svg+xml</dc:format>
        <dc:type
           rdf:resource="http://purl.org/dc/dcmitype/StillImage" />
        <dc:title></dc:title>
      </cc:Work>
    </rdf:RDF>
  </metadata>
  <g
     inkscape:label="Layer 1"
     inkscape:groupmode="layer"
     id="layer1"
     transform="translate(0,-452.36218)">
    <path
       style="fill:none;stroke:#000000;stroke-width:3;stroke-linecap:round;stroke-linejoin:round;stroke-opacity:1;stroke-miterlimit:4;stroke-dasharray:none"
       d="m 106.06602,220.18264 c -1.01016,68.69038 12.12183,106.06602 16.16244,116.16755 4.04061,10.10152 10.10152,22.22335 10.10152,22.22335 0,0 -1.01015,-14.14213 -7.07106,-31.31473 -6.06092,-17.17259 -20.20306,-96.97464 -11.11168,-125.25891 9.09137,-28.28427 29.29442,-34.34519 51.51778,-19.1929 22.22335,15.15229 21.2132,36.36549 6.06091,63.63961 -15.15229,27.27412 -48.48732,29.29442 -73.741133,20.20305"
       id="path2996"
       inkscape:connector-curvature="0"
       transform="translate(0,452.36218)" />
    <path
       style="fill:none;stroke:#000000;stroke-width:3;stroke-linecap:round;stroke-linejoin:round;stroke-opacity:1;stroke-miterlimit:4;stroke-dasharray:none"
       d="m 228.29448,181.79685 c 8.08122,56.56854 -6.06092,57.57869 2.0203,87.88327 8.08122,30.30457 19.1929,50.50762 19.1929,50.50762"
       id="path2998"
       inkscape:connector-curvature="0"
       transform="translate(0,452.36218)" />
    <path
       style="fill:none;stroke:#000000;stroke-width:3;stroke-linecap:round;stroke-linejoin:round;stroke-opacity:1;stroke-miterlimit:4;stroke-dasharray:none"
       d="m 305.06607,239.37554 c -4.04061,37.37565 -3.99464,40.08875 -3.99464,52.05303 0,11.96429 1.60714,22.67857 3.75,22.67857 2.14286,0 -1.07143,-35.17857 -3.75,-49.10714 -2.67857,-13.92857 -2.85714,-11.78571 -10.71429,-18.21429 -7.85714,-6.42857 -10,-8.92857 -11.07143,-3.57142 -1.07142,5.35714 -13.57142,35.71428 -7.14285,45.35714 6.42857,9.64286 15,16.07143 31.42857,14.28571 16.42857,-1.78571 19.64286,-4.64285 19.28571,-8.21428"
       id="path3000"
       inkscape:connector-curvature="0"
       transform="translate(0,452.36218)" />
    <path
       style="fill:none;stroke:#000000;stroke-width:3;stroke-linecap:round;stroke-linejoin:round;stroke-opacity:1;stroke-miterlimit:4;stroke-dasharray:none"
       d="m 326.42857,240 c 31.78572,47.14286 36.42857,51.78571 52.14286,62.5"
       id="path3002"
       inkscape:connector-curvature="0"
       transform="translate(0,452.36218)" />
    <path
       style="fill:none;stroke:#000000;stroke-width:3;stroke-linecap:round;stroke-linejoin:round;stroke-opacity:1;stroke-miterlimit:4;stroke-dasharray:none"
       d="m 410.71429,220.35714 c 5.35714,5 1.07142,5.35715 -1.07143,10.35715 -2.14286,5 -37.14286,78.21428 -46.78572,119.64285 -9.64285,41.42857 -14.64285,60.35715 -14.64285,60.35715"
       id="path3004"
       inkscape:connector-curvature="0"
       transform="translate(0,452.36218)" />
    <path
       style="fill:none;stroke:#000000;stroke-width:3;stroke-linecap:round;stroke-linejoin:round;stroke-opacity:1;stroke-miterlimit:4;stroke-dasharray:none"
       d="m 465,205.35714 c -6.07143,15.71429 -11.07143,28.57143 -7.85714,47.14286 3.21428,18.57143 7.14286,36.42857 7.14286,41.07143 0,4.64286 0.35714,11.07143 0.35714,11.07143 0,0 -6.07143,-11.42857 -6.07143,-23.21429 0,-11.78571 1.42857,-26.07143 -5.35714,-40.35714 -6.78572,-14.28572 -11.07143,-30 -1.78572,-36.78572 9.28572,-6.78571 27.14286,5.71429 31.78572,16.07143 4.64285,10.35715 10,32.14286 -11.42857,35 -21.42858,2.85715 -20,-6.78571 -20,-6.78571 0,0 26.78571,4.64286 37.5,9.64286 10.71428,5 20.71428,11.42857 18.21428,17.5 -2.5,6.07142 -37.85714,31.07142 -45.71428,26.42857 -7.85715,-4.64286 -4.64286,-5 -4.64286,-5"
       id="path3006"
       inkscape:connector-curvature="0"
       transform="translate(0,452.36218)" />
    <path
       style="fill:none;stroke:#000000;stroke-width:3;stroke-linecap:round;stroke-linejoin:round;stroke-opacity:1;stroke-miterlimit:4;stroke-dasharray:none"
       d="m 544.64286,246.78571 c 2.85714,16.42858 0,38.21429 0.35714,48.92858 0.35714,10.71428 -1.42857,-57.85715 -11.42857,-53.21429 -10,4.64286 -16.07143,40 -8.21429,49.28571 7.85715,9.28572 17.85715,11.42858 22.5,7.5"
       id="path3008"
       inkscape:connector-curvature="0"
       transform="translate(0,452.36218)" />
    <path
       style="fill:none;stroke:#000000;stroke-width:3;stroke-linecap:round;stroke-linejoin:round;stroke-opacity:1;stroke-miterlimit:4;stroke-dasharray:none"
       d="m 575.35714,201.07143 c 1.78572,30.71428 -4.64285,44.64286 -3.57142,57.5 1.07142,12.85714 2.5,28.21428 2.5,28.21428"
       id="path3010"
       inkscape:connector-curvature="0"
       transform="translate(0,452.36218)" />
    <path
       style="fill:none;stroke:#000000;stroke-width:3;stroke-linecap:round;stroke-linejoin:round;stroke-opacity:1;stroke-miterlimit:4;stroke-dasharray:none"
       d="m 607.14286,184.28571 c 4.64286,13.92858 2.85714,31.07143 5.35714,44.28572 2.5,13.21428 0.71429,43.57143 3.57143,48.92857"
       id="path3012"
       inkscape:connector-curvature="0"
       transform="translate(0,452.36218)" />
    <path
       style="fill:none;stroke:#000000;stroke-width:3;stroke-linecap:round;stroke-linejoin:round;stroke-opacity:1;stroke-miterlimit:4;stroke-dasharray:none"
       d="m 668.21429,170.35714 c -6.07143,27.5 -2.5,36.42857 -5,53.21429 -2.5,16.78571 -2.14286,15.71428 -2.14286,15.71428"
       id="path3014"
       inkscape:connector-curvature="0"
       transform="translate(0,452.36218)" />
    <path
       style="fill:none;stroke:#000000;stroke-width:3;stroke-linecap:round;stroke-linejoin:round;stroke-opacity:1;stroke-miterlimit:4;stroke-dasharray:none"
       d="m 665,285.35714 c 0,-7.14285 -1.07143,-13.92857 -1.07143,-13.92857 l 5.35715,12.85714"
       id="path3016"
       inkscape:connector-curvature="0"
       transform="translate(0,452.36218)" />
    <path
       style="fill:none;stroke:#000000;stroke-width:3;stroke-linecap:round;stroke-linejoin:round;stroke-opacity:1;stroke-miterlimit:4;stroke-dasharray:none"
       d="m 590.35714,428.57143 c -12.67857,-4.10714 -21.42857,2.85714 -19.10714,24.46428 2.32143,21.60715 26.60714,8.21429 30.17857,-1.42857 3.57143,-9.64285 -0.35714,-18.92857 -11.07143,-23.03571 z"
       id="path3018"
       inkscape:connector-curvature="0"
       transform="translate(0,452.36218)" />
    <path
       style="fill:none;stroke:#000000;stroke-width:3;stroke-linecap:round;stroke-linejoin:round;stroke-opacity:1;stroke-miterlimit:4;stroke-dasharray:none"
       d="m 220.71833,55.527778 c 1.01015,22.223356 -2.52538,34.345186 -0.50507,43.436559 2.0203,9.091373 -0.50508,16.667513 -0.50508,16.667513 0,0 1.51523,-21.718275 9.59645,-26.769038 8.08122,-5.050763 28.78935,-9.091373 34.85026,5.050763 6.06092,14.142135 5.55584,23.233505 5.55584,23.233505"
       id="path3020"
       inkscape:connector-curvature="0"
       transform="translate(0,452.36218)" />
    <path
       style="fill:none;stroke:#000000;stroke-width:3;stroke-linecap:round;stroke-linejoin:round;stroke-opacity:1;stroke-miterlimit:4;stroke-dasharray:none"
       d="m 299.00515,64.619151 c 29.29443,0 37.88072,21.213203 35.35534,30.304576 -2.52538,9.091373 -31.8198,32.829953 -42.93148,29.294423 -11.11168,-3.53553 -23.73859,-29.294423 -13.63706,-42.931482 10.10153,-13.63706 33.84011,-8.081221 33.84011,-8.081221"
       id="path3022"
       inkscape:connector-curvature="0"
       transform="translate(0,452.36218)" />
    <path
       style="fill:none;stroke:#000000;stroke-width:3;stroke-linecap:round;stroke-linejoin:round;stroke-opacity:1;stroke-miterlimit:4;stroke-dasharray:none"
       d="m 375.27167,62.093769 c -4.54569,25.75889 7.57614,51.517781 7.57614,51.517781 0,0 0.50508,-25.758891 4.54569,-37.375645 4.04061,-11.616754 1.51523,-17.172593 1.51523,-17.172593 0,0 18.68782,6.060915 22.22336,21.718279 3.53553,15.657365 -0.50508,33.335039 -0.50508,33.335039 0,0 -2.52538,-31.314733 2.52538,-43.94164 5.05076,-12.626907 11.61676,-16.667517 16.16244,-6.060916 4.54569,10.606602 15.65737,39.901026 15.65737,39.901026"
       id="path3024"
       inkscape:connector-curvature="0"
       transform="translate(0,452.36218)" />
    <path
       style="fill:none;stroke:#000000;stroke-width:3;stroke-linecap:round;stroke-linejoin:round;stroke-opacity:1;stroke-miterlimit:4;stroke-dasharray:none"
       d="m 472.75139,85.327278 c 0,0 29.7995,-9.596449 29.29443,-17.67767 -0.50508,-8.08122 -15.15229,-27.274118 -24.74874,-19.192898 -9.59645,8.08122 -16.66752,37.88072 0,48.487322 16.66751,10.606598 36.87057,7.071068 36.87057,7.071068"
       id="path3026"
       inkscape:connector-curvature="0"
       transform="translate(0,452.36218)" />
    <path
       style="fill:none;stroke:#000000;stroke-width:3;stroke-linecap:round;stroke-linejoin:round;stroke-opacity:1;stroke-miterlimit:4;stroke-dasharray:none"
       d="m 541.94684,53.002396 c -2.52538,22.223356 7.07107,61.114234 7.07107,61.114234 0,0 -7.07107,-7.07107 -7.07107,-27.274123 0,-20.203051 7.07107,-40.911178 18.18275,-36.870568 11.11167,4.04061 13.63706,15.657364 13.63706,15.657364"
       id="path3028"
       inkscape:connector-curvature="0"
       transform="translate(0,452.36218)" />
    <path
       style="fill:none;stroke:#000000;stroke-width:3;stroke-linecap:round;stroke-linejoin:round;stroke-opacity:1;stroke-miterlimit:4;stroke-dasharray:none"
       d="m 595.99,58.053159 c -4.54568,26.769043 -1.01015,42.931481 7.07107,45.456861 8.08122,2.52539 13.63706,-7.071064 18.18275,-29.799496 4.54568,-22.728433 10.10152,-28.284272 10.10152,-28.284272 0,0 0.50508,47.47717 10.6066,60.104078"
       id="path3030"
       inkscape:connector-curvature="0"
       transform="translate(0,452.36218)" />
    <path
       style="fill:none;stroke:#000000;stroke-width:3;stroke-linecap:round;stroke-linejoin:round;stroke-opacity:1;stroke-miterlimit:4;stroke-dasharray:none"
       d="m 656.59915,38.860261 c 2.52539,27.274118 2.52539,59.599 2.52539,59.599 0,0 -7.07107,-26.263966 -1.51523,-40.911178 5.55584,-14.647212 18.18274,-23.738585 22.72843,-12.626907 4.54569,11.111678 9.59645,25.75889 9.09137,39.395949 -0.50507,13.63706 4.54569,14.647212 4.54569,14.647212"
       id="path3032"
       inkscape:connector-curvature="0"
       transform="translate(0,452.36218)" />
    <path
       style="fill:none;stroke:#000000;stroke-width:3;stroke-linecap:round;stroke-linejoin:round;stroke-opacity:1;stroke-miterlimit:4;stroke-dasharray:none"
       d="m 713.67277,28.758735 c 5.55584,20.708127 3.53554,40.406102 3.53554,40.406102"
       id="path3034"
       inkscape:connector-curvature="0"
       transform="translate(0,452.36218)" />
    <path
       style="fill:none;stroke:#000000;stroke-width:3;stroke-linecap:round;stroke-linejoin:round;stroke-opacity:1;stroke-miterlimit:4;stroke-dasharray:none"
       d="m 713.67277,89.872964 1.01016,6.060916"
       id="path3036"
       inkscape:connector-curvature="0"
       transform="translate(0,452.36218)" />
  </g>
</svg>
