<?xml version="1.0" encoding="UTF-8" standalone="no"?>
<!-- Created with Inkscape (http://www.inkscape.org/) -->

<svg
   xmlns:dc="http://purl.org/dc/elements/1.1/"
   xmlns:cc="http://creativecommons.org/ns#"
   xmlns:rdf="http://www.w3.org/1999/02/22-rdf-syntax-ns#"
   xmlns:svg="http://www.w3.org/2000/svg"
   xmlns="http://www.w3.org/2000/svg"
   xmlns:sodipodi="http://sodipodi.sourceforge.net/DTD/sodipodi-0.dtd"
   xmlns:inkscape="http://www.inkscape.org/namespaces/inkscape"
   width="100"
   height="133"
   id="svg2"
   version="1.1"
   inkscape:version="0.48.5 r10040"
   sodipodi:docname="title-main.svg">
  <defs
     id="defs4" />
  <sodipodi:namedview
     id="base"
     pagecolor="#ffffff"
     bordercolor="#666666"
     borderopacity="1.0"
     inkscape:pageopacity="0.0"
     inkscape:pageshadow="2"
     inkscape:zoom="0.98994949"
     inkscape:cx="429.93786"
     inkscape:cy="199.25373"
     inkscape:document-units="px"
     inkscape:current-layer="layer1"
     showgrid="false"
     inkscape:window-width="1376"
     inkscape:window-height="866"
     inkscape:window-x="245"
     inkscape:window-y="75"
     inkscape:window-maximized="0" />
  <metadata
     id="metadata7">
    <rdf:RDF>
      <cc:Work
         rdf:about="">
        <dc:format>image/svg+xml</dc:format>
        <dc:type
           rdf:resource="http://purl.org/dc/dcmitype/StillImage" />
        <dc:title></dc:title>
      </cc:Work>
    </rdf:RDF>
  </metadata>
  <g
     inkscape:label="Layer 1"
     inkscape:groupmode="layer"
     id="layer1"
     transform="translate(0,-919.36218)">
    <path
       style="fill:none;stroke:#000000;stroke-width:3;stroke-linecap:round;stroke-linejoin:round;stroke-miterlimit:4;stroke-opacity:1;stroke-dasharray:none"
       d="m 25.131569,1022.819 c 0,0 -21.0714295,-5.7142 -18.2142795,7.1429 2.85714,12.8571 13.2142795,16.0714 25.7142795,16.4286 12.5,0.3571 24.64286,-4.6429 22.85714,-11.7857 -1.78571,-7.1429 -15.35714,-10.7143 -15.35714,-10.7143 0,0 0.71429,-11.7857 9.64286,-23.9286 8.92857,-12.14286 42.14286,-46.42857 41.78571,-55.35715 -0.35714,-8.92857 2.5,-16.42857 -7.85714,-17.5 -10.35714,-1.07142 -20.35714,3.92858 -27.5,16.07143 -7.14286,12.14286 -30.71429,44.64286 -32.5,59.64282 -1.78571,15 1.42857,20 1.42857,20 z"
       id="path3806"
       inkscape:connector-curvature="0" />
  </g>
</svg>
