<?xml version="1.0" encoding="UTF-8" standalone="no"?>
<!-- Created with Inkscape (http://www.inkscape.org/) -->

<svg
   xmlns:dc="http://purl.org/dc/elements/1.1/"
   xmlns:cc="http://creativecommons.org/ns#"
   xmlns:rdf="http://www.w3.org/1999/02/22-rdf-syntax-ns#"
   xmlns:svg="http://www.w3.org/2000/svg"
   xmlns="http://www.w3.org/2000/svg"
   xmlns:sodipodi="http://sodipodi.sourceforge.net/DTD/sodipodi-0.dtd"
   xmlns:inkscape="http://www.inkscape.org/namespaces/inkscape"
   width="78"
   height="78"
   id="svg2"
   version="1.1"
   inkscape:version="0.48.5 r10040"
   sodipodi:docname="title-base2.svg">
  <defs
     id="defs4" />
  <sodipodi:namedview
     id="base"
     pagecolor="#ffffff"
     bordercolor="#666666"
     borderopacity="1.0"
     inkscape:pageopacity="0.0"
     inkscape:pageshadow="2"
     inkscape:zoom="0.98994949"
     inkscape:cx="429.93786"
     inkscape:cy="199.25373"
     inkscape:document-units="px"
     inkscape:current-layer="layer1"
     showgrid="false"
     inkscape:window-width="1376"
     inkscape:window-height="866"
     inkscape:window-x="245"
     inkscape:window-y="75"
     inkscape:window-maximized="0" />
  <metadata
     id="metadata7">
    <rdf:RDF>
      <cc:Work
         rdf:about="">
        <dc:format>image/svg+xml</dc:format>
        <dc:type
           rdf:resource="http://purl.org/dc/dcmitype/StillImage" />
        <dc:title></dc:title>
      </cc:Work>
    </rdf:RDF>
  </metadata>
  <g
     inkscape:label="Layer 1"
     inkscape:groupmode="layer"
     id="layer1"
     transform="translate(0,-974.3622)">
    <g
       id="g3894"
       transform="translate(-474.77169,53.538082)">
      <path
         transform="translate(0,452.36218)"
         inkscape:connector-curvature="0"
         id="path3852"
         d="M 538.57143,343.92857 C 517.5,343.57143 504.28572,367.14286 512.14286,377.5 520,387.85714 545.71429,400 556.07143,393.57143 c 10.35714,-6.42857 18.21429,-27.85714 10.35714,-37.5 -7.85714,-9.64286 -20.35714,-12.5 -27.85714,-12.14286 z"
         style="fill:none;stroke:#000000;stroke-width:3;stroke-linecap:round;stroke-linejoin:round;stroke-miterlimit:4;stroke-opacity:1;stroke-dasharray:none" />
      <path
         transform="translate(0,452.36218)"
         inkscape:connector-curvature="0"
         id="path3854"
         d="m 529.28572,352.5 c -0.71429,6.07143 0,14.64286 1.42857,16.07143 1.42857,1.42857 9.64285,-8.92857 15.71428,-2.85714"
         style="fill:none;stroke:#000000;stroke-width:3;stroke-linecap:round;stroke-linejoin:round;stroke-miterlimit:4;stroke-opacity:1;stroke-dasharray:none" />
      <path
         transform="translate(0,452.36218)"
         inkscape:connector-curvature="0"
         id="path3856"
         d="m 543.92857,354.28571 c 1.78572,7.14286 -1.78571,19.28572 0.71429,25.71429"
         style="fill:none;stroke:#000000;stroke-width:3;stroke-linecap:round;stroke-linejoin:round;stroke-miterlimit:4;stroke-opacity:1;stroke-dasharray:none" />
    </g>
    <g
       id="g3890"
       transform="translate(-592.95954,204.05081)">
      <path
         sodipodi:nodetypes="ccssc"
         transform="translate(0,452.36218)"
         inkscape:connector-curvature="0"
         id="path3858"
         d="m 631.78572,345 c 2.85714,-8.21429 -3.21429,-17.85714 -3.21429,-17.85714 0,0 -35.47261,35.05603 -26.07143,54.28571 7.85715,16.07143 58.24644,7.45552 60,-1.07142 3.13417,-15.24038 -11.78571,-47.85715 -23.21428,-50.00001"
         style="fill:none;stroke:#000000;stroke-width:3;stroke-linecap:round;stroke-linejoin:round;stroke-miterlimit:4;stroke-opacity:1;stroke-dasharray:none" />
      <path
         transform="translate(0,452.36218)"
         inkscape:connector-curvature="0"
         id="path3860"
         d="m 632.14286,354.28571 c 12.14286,-2.85714 17.14286,2.14286 16.78571,7.14286 -0.35714,5 -15,3.92857 -15,3.92857 0,0 11.78572,3.57143 7.14286,11.42857 -4.64286,7.85715 -13.21429,3.57143 -13.21429,-0.35714"
         style="fill:none;stroke:#000000;stroke-width:3;stroke-linecap:round;stroke-linejoin:round;stroke-miterlimit:4;stroke-opacity:1;stroke-dasharray:none" />
    </g>
  </g>
</svg>
