<?xml version="1.0" encoding="UTF-8" standalone="no"?>
<!-- Created with Inkscape (http://www.inkscape.org/) -->

<svg
   xmlns:dc="http://purl.org/dc/elements/1.1/"
   xmlns:cc="http://creativecommons.org/ns#"
   xmlns:rdf="http://www.w3.org/1999/02/22-rdf-syntax-ns#"
   xmlns:svg="http://www.w3.org/2000/svg"
   xmlns="http://www.w3.org/2000/svg"
   xmlns:xlink="http://www.w3.org/1999/xlink"
   xmlns:sodipodi="http://sodipodi.sourceforge.net/DTD/sodipodi-0.dtd"
   xmlns:inkscape="http://www.inkscape.org/namespaces/inkscape"
   width="40"
   height="40"
   id="svg2"
   version="1.1"
   inkscape:version="0.48.5 r10040"
   sodipodi:docname="robot1.svg">
  <defs
     id="defs4">
    <linearGradient
       id="linearGradient5333">
      <stop
         style="stop-color:#c7b9a9;stop-opacity:1;"
         offset="0"
         id="stop5335" />
      <stop
         style="stop-color:#6b6763;stop-opacity:1;"
         offset="1"
         id="stop5337" />
    </linearGradient>
    <linearGradient
       inkscape:collect="always"
       xlink:href="#linearGradient5333"
       id="linearGradient5341"
       x1="9"
       y1="9"
       x2="25"
       y2="26"
       gradientUnits="userSpaceOnUse"
       gradientTransform="translate(2.5,1016.3622)" />
    <linearGradient
       id="linearGradient5333-7">
      <stop
         style="stop-color:#c7b9a9;stop-opacity:1;"
         offset="0"
         id="stop5335-8" />
      <stop
         style="stop-color:#6b6763;stop-opacity:1;"
         offset="1"
         id="stop5337-3" />
    </linearGradient>
    <linearGradient
       y2="4.1249995"
       x2="17.142859"
       y1="14.625001"
       x1="12.660714"
       gradientTransform="matrix(1,0,0,-1,5.4464286,1051.8444)"
       gradientUnits="userSpaceOnUse"
       id="linearGradient3811"
       xlink:href="#linearGradient5333-7"
       inkscape:collect="always" />
    <linearGradient
       inkscape:collect="always"
       xlink:href="#linearGradient5333"
       id="linearGradient3830"
       gradientUnits="userSpaceOnUse"
       gradientTransform="translate(2.5,1016.3622)"
       x1="9"
       y1="9"
       x2="21.517857"
       y2="24.035715" />
  </defs>
  <sodipodi:namedview
     id="base"
     pagecolor="#ffffff"
     bordercolor="#666666"
     borderopacity="1.0"
     inkscape:pageopacity="0.0"
     inkscape:pageshadow="2"
     inkscape:zoom="11.2"
     inkscape:cx="19.940124"
     inkscape:cy="21.158972"
     inkscape:document-units="px"
     inkscape:current-layer="layer1"
     showgrid="true"
     inkscape:window-width="963"
     inkscape:window-height="674"
     inkscape:window-x="490"
     inkscape:window-y="221"
     inkscape:window-maximized="0"
     inkscape:snap-grids="true">
    <inkscape:grid
       type="xygrid"
       id="grid2985"
       empspacing="5"
       visible="true"
       enabled="true"
       snapvisiblegridlinesonly="true"
       dotted="false" />
  </sodipodi:namedview>
  <metadata
     id="metadata7">
    <rdf:RDF>
      <cc:Work
         rdf:about="">
        <dc:format>image/svg+xml</dc:format>
        <dc:type
           rdf:resource="http://purl.org/dc/dcmitype/StillImage" />
        <dc:title></dc:title>
      </cc:Work>
    </rdf:RDF>
  </metadata>
  <g
     inkscape:label="Layer 1"
     inkscape:groupmode="layer"
     id="layer1"
     transform="translate(0,-1012.3622)">
    <path
       style="fill:url(#linearGradient3811);fill-opacity:1;stroke:#000000;stroke-opacity:1"
       d="m 15.446429,1044.8444 9.107143,0 c 1.662,0 2.959802,-1.3385 3,-3 l -0.08929,-11.0714 -15.017857,0 0,11.0714 c 0,1.662 1.338,3 3,3 z"
       id="rect3897-8"
       inkscape:connector-curvature="0"
       sodipodi:nodetypes="sssccss" />
    <path
       sodipodi:type="arc"
       style="fill:#e46a6a;fill-opacity:1;stroke:#000000;stroke-opacity:1"
       id="path5388"
       sodipodi:cx="13"
       sodipodi:cy="10"
       sodipodi:rx="3"
       sodipodi:ry="3"
       d="m 16,10 a 3,3 0 1 1 -6,0 3,3 0 1 1 6,0 z"
       transform="translate(7.1785714,1013.5229)" />
    <path
       style="fill:url(#linearGradient3830);fill-opacity:1;stroke:#000000;stroke-opacity:1"
       d="m 12.5,1023.3622 15,0 c 1.662,0 3,1.338 3,3 l 0,11.0714 -21,0 0,-11.0714 c 0,-1.662 1.338,-3 3,-3 z"
       id="rect3897"
       inkscape:connector-curvature="0"
       sodipodi:nodetypes="sssccss" />
    <rect
       style="fill:#380c36;fill-opacity:1;stroke:none"
       id="rect5343"
       width="7.9642844"
       height="3.0005047"
       x="16.017857"
       y="1039.3444"
       rx="2" />
    <path
       sodipodi:type="arc"
       style="fill:#d6d6d6;fill-opacity:1;stroke:#000000;stroke-opacity:1"
       id="path5345"
       sodipodi:cx="14"
       sodipodi:cy="13"
       sodipodi:rx="2.7666349"
       sodipodi:ry="3.1071451"
       d="m 16.766635,13 a 2.7666349,3.1071451 0 1 1 -5.53327,0 2.7666349,3.1071451 0 1 1 5.53327,0 z"
       transform="matrix(0.002272,-0.99999741,0.99999741,0.002272,11.182496,1045.6873)" />
    <path
       sodipodi:type="arc"
       style="fill:#d6d6d6;fill-opacity:1;stroke:#000000;stroke-opacity:1"
       id="path5345-8"
       sodipodi:cx="14"
       sodipodi:cy="13"
       sodipodi:rx="2.7666349"
       sodipodi:ry="3.1964517"
       d="m 16.766635,13 a 2.7666349,3.1964517 0 1 1 -5.53327,0 2.7666349,3.1964517 0 1 1 5.53327,0 z"
       transform="matrix(-0.00745954,-1.001184,-0.98540084,0.00757902,28.650444,1045.635)" />
    <path
       sodipodi:type="arc"
       style="fill:#000000;fill-opacity:1;stroke:none"
       id="path5365"
       sodipodi:cx="14"
       sodipodi:cy="14"
       sodipodi:rx="1"
       sodipodi:ry="1"
       d="m 15,14 a 1,1 0 1 1 -2,0 1,1 0 1 1 2,0 z"
       transform="translate(2,1018.3622)" />
    <path
       transform="translate(10,1018.3622)"
       sodipodi:type="arc"
       style="fill:#000000;fill-opacity:1;stroke:none"
       id="path5365-8"
       sodipodi:cx="14"
       sodipodi:cy="14"
       sodipodi:rx="1"
       sodipodi:ry="1"
       d="m 15,14 a 1,1 0 1 1 -2,0 1,1 0 1 1 2,0 z" />
    <path
       style="fill:none;stroke:#000000;stroke-width:1px;stroke-linecap:butt;stroke-linejoin:miter;stroke-opacity:1"
       d="m 26,1026.3622 -12,0"
       id="path5393"
       inkscape:connector-curvature="0"
       sodipodi:nodetypes="cc" />
  </g>
</svg>
