<?xml version="1.0" encoding="UTF-8" standalone="no"?>
<!-- Created with Inkscape (http://www.inkscape.org/) -->

<svg
   xmlns:dc="http://purl.org/dc/elements/1.1/"
   xmlns:cc="http://creativecommons.org/ns#"
   xmlns:rdf="http://www.w3.org/1999/02/22-rdf-syntax-ns#"
   xmlns:svg="http://www.w3.org/2000/svg"
   xmlns="http://www.w3.org/2000/svg"
   xmlns:xlink="http://www.w3.org/1999/xlink"
   xmlns:sodipodi="http://sodipodi.sourceforge.net/DTD/sodipodi-0.dtd"
   xmlns:inkscape="http://www.inkscape.org/namespaces/inkscape"
   width="40"
   height="40"
   id="svg2"
   version="1.1"
   inkscape:version="0.48.5 r10040"
   sodipodi:docname="robot1.svg">
  <defs
     id="defs4">
    <linearGradient
       id="linearGradient5333">
      <stop
         style="stop-color:#a9c7b4;stop-opacity:1;"
         offset="0"
         id="stop5335" />
      <stop
         style="stop-color:#636b66;stop-opacity:1;"
         offset="1"
         id="stop5337" />
    </linearGradient>
    <linearGradient
       inkscape:collect="always"
       xlink:href="#linearGradient5333"
       id="linearGradient5341"
       x1="9"
       y1="9"
       x2="25"
       y2="26"
       gradientUnits="userSpaceOnUse"
       gradientTransform="translate(2.5,1015.3622)" />
  </defs>
  <sodipodi:namedview
     id="base"
     pagecolor="#ffffff"
     bordercolor="#666666"
     borderopacity="1.0"
     inkscape:pageopacity="0.0"
     inkscape:pageshadow="2"
     inkscape:zoom="11.2"
     inkscape:cx="20.891061"
     inkscape:cy="21.158972"
     inkscape:document-units="px"
     inkscape:current-layer="layer1"
     showgrid="true"
     inkscape:window-width="963"
     inkscape:window-height="674"
     inkscape:window-x="490"
     inkscape:window-y="221"
     inkscape:window-maximized="0">
    <inkscape:grid
       type="xygrid"
       id="grid2985"
       empspacing="5"
       visible="true"
       enabled="true"
       snapvisiblegridlinesonly="true"
       dotted="false" />
  </sodipodi:namedview>
  <metadata
     id="metadata7">
    <rdf:RDF>
      <cc:Work
         rdf:about="">
        <dc:format>image/svg+xml</dc:format>
        <dc:type
           rdf:resource="http://purl.org/dc/dcmitype/StillImage" />
        <dc:title></dc:title>
      </cc:Work>
    </rdf:RDF>
  </metadata>
  <g
     inkscape:label="Layer 1"
     inkscape:groupmode="layer"
     id="layer1"
     transform="translate(0,-1012.3622)">
    <path
       style="fill:none;stroke:#000000;stroke-width:1px;stroke-linecap:butt;stroke-linejoin:miter;stroke-opacity:1"
       d="m 31,1036.3622 0,-6"
       id="path5393-9"
       inkscape:connector-curvature="0" />
    <path
       sodipodi:type="arc"
       style="fill:#000000;fill-opacity:1;stroke:none"
       id="path5395-4"
       sodipodi:cx="23"
       sodipodi:cy="3"
       sodipodi:rx="1"
       sodipodi:ry="1"
       d="m 24,3 a 1,1 0 1 1 -2,0 1,1 0 1 1 2,0 z"
       transform="translate(8,1027.3622)" />
    <path
       style="fill:none;stroke:#000000;stroke-width:1px;stroke-linecap:butt;stroke-linejoin:miter;stroke-opacity:1"
       d="m 9,1036.3622 0,-6"
       id="path5393"
       inkscape:connector-curvature="0" />
    <path
       sodipodi:type="arc"
       style="fill:#000000;fill-opacity:1;stroke:none"
       id="path5395"
       sodipodi:cx="23"
       sodipodi:cy="3"
       sodipodi:rx="1"
       sodipodi:ry="1"
       d="m 24,3 a 1,1 0 1 1 -2,0 1,1 0 1 1 2,0 z"
       transform="translate(-14,1027.3622)" />
    <path
       style="fill:url(#linearGradient5341);fill-opacity:1;stroke:#000000;stroke-opacity:1"
       d="m 19,1022.3622 2,0 c 1.662,0 3.217882,1.5335 4,3 l 8,15 c 0.782118,1.4665 -1.338,3 -3,3 l -20,0 c -1.662,0 -3.7821176,-1.5335 -3,-3 l 8,-15 c 0.782118,-1.4665 2.338,-3 4,-3 z"
       id="rect3897"
       inkscape:connector-curvature="0"
       sodipodi:nodetypes="sssssssss" />
    <rect
       style="fill:#bdbaf2;fill-opacity:1;stroke:#000000;stroke-width:0.92048305;stroke-opacity:1"
       id="rect5343-1"
       width="9.0795174"
       height="3.0795345"
       x="15.460244"
       y="1029.3225"
       rx="1" />
    <path
       sodipodi:type="arc"
       style="fill:#e98585;fill-opacity:1;stroke:#000000;stroke-width:0.5;stroke-linecap:round;stroke-linejoin:round;stroke-miterlimit:4;stroke-opacity:1;stroke-dasharray:none"
       id="path3015"
       sodipodi:cx="12.5"
       sodipodi:cy="27.5"
       sodipodi:rx="1.5"
       sodipodi:ry="1.5"
       d="m 14,27.5 a 1.5,1.5 0 1 1 -3,0 1.5,1.5 0 1 1 3,0 z"
       transform="translate(-0.5,1011.3622)" />
    <path
       transform="translate(4.5,1011.3622)"
       sodipodi:type="arc"
       style="fill:#e9e885;fill-opacity:1;stroke:#000000;stroke-width:0.5;stroke-linecap:round;stroke-linejoin:round;stroke-miterlimit:4;stroke-opacity:1;stroke-dasharray:none"
       id="path3015-7"
       sodipodi:cx="12.5"
       sodipodi:cy="27.5"
       sodipodi:rx="1.5"
       sodipodi:ry="1.5"
       d="m 14,27.5 a 1.5,1.5 0 1 1 -3,0 1.5,1.5 0 1 1 3,0 z" />
    <path
       transform="translate(15.5,1011.3622)"
       sodipodi:type="arc"
       style="fill:#e785e9;fill-opacity:1;stroke:#000000;stroke-width:0.5;stroke-linecap:round;stroke-linejoin:round;stroke-miterlimit:4;stroke-opacity:1;stroke-dasharray:none"
       id="path3015-4"
       sodipodi:cx="12.5"
       sodipodi:cy="27.5"
       sodipodi:rx="1.5"
       sodipodi:ry="1.5"
       d="m 14,27.5 a 1.5,1.5 0 1 1 -3,0 1.5,1.5 0 1 1 3,0 z" />
    <path
       transform="translate(10.5,1011.3622)"
       sodipodi:type="arc"
       style="fill:#85e989;fill-opacity:1;stroke:#000000;stroke-width:0.5;stroke-linecap:round;stroke-linejoin:round;stroke-miterlimit:4;stroke-opacity:1;stroke-dasharray:none"
       id="path3015-7-0"
       sodipodi:cx="12.5"
       sodipodi:cy="27.5"
       sodipodi:rx="1.5"
       sodipodi:ry="1.5"
       d="m 14,27.5 a 1.5,1.5 0 1 1 -3,0 1.5,1.5 0 1 1 3,0 z" />
  </g>
</svg>
