<?xml version="1.0" encoding="UTF-8" standalone="no"?>
<!-- Created with Inkscape (http://www.inkscape.org/) -->

<svg
   xmlns:dc="http://purl.org/dc/elements/1.1/"
   xmlns:cc="http://creativecommons.org/ns#"
   xmlns:rdf="http://www.w3.org/1999/02/22-rdf-syntax-ns#"
   xmlns:svg="http://www.w3.org/2000/svg"
   xmlns="http://www.w3.org/2000/svg"
   xmlns:xlink="http://www.w3.org/1999/xlink"
   xmlns:sodipodi="http://sodipodi.sourceforge.net/DTD/sodipodi-0.dtd"
   xmlns:inkscape="http://www.inkscape.org/namespaces/inkscape"
   width="40"
   height="40"
   id="svg2"
   version="1.1"
   inkscape:version="0.48.5 r10040"
   sodipodi:docname="robot2.svg">
  <defs
     id="defs4">
    <linearGradient
       id="linearGradient5333">
      <stop
         style="stop-color:#c7b9a9;stop-opacity:1;"
         offset="0"
         id="stop5335" />
      <stop
         style="stop-color:#6b6763;stop-opacity:1;"
         offset="1"
         id="stop5337" />
    </linearGradient>
    <linearGradient
       inkscape:collect="always"
       xlink:href="#linearGradient5333"
       id="linearGradient5341"
       x1="9"
       y1="9"
       x2="25"
       y2="26"
       gradientUnits="userSpaceOnUse"
       gradientTransform="translate(2.5,1016.3622)" />
    <linearGradient
       id="linearGradient5333-7">
      <stop
         style="stop-color:#c7b9a9;stop-opacity:1;"
         offset="0"
         id="stop5335-8" />
      <stop
         style="stop-color:#6b6763;stop-opacity:1;"
         offset="1"
         id="stop5337-3" />
    </linearGradient>
    <linearGradient
       y2="4.1249995"
       x2="17.142859"
       y1="14.625001"
       x1="12.660714"
       gradientTransform="matrix(1,0,0,-1,5.4464286,1051.8444)"
       gradientUnits="userSpaceOnUse"
       id="linearGradient3811"
       xlink:href="#linearGradient5333-7"
       inkscape:collect="always" />
    <linearGradient
       inkscape:collect="always"
       xlink:href="#linearGradient5333"
       id="linearGradient3830"
       gradientUnits="userSpaceOnUse"
       gradientTransform="translate(2.5,1016.3622)"
       x1="9"
       y1="9"
       x2="21.517857"
       y2="24.035715" />
  </defs>
  <sodipodi:namedview
     id="base"
     pagecolor="#ffffff"
     bordercolor="#666666"
     borderopacity="1.0"
     inkscape:pageopacity="0.0"
     inkscape:pageshadow="2"
     inkscape:zoom="11.2"
     inkscape:cx="19.724989"
     inkscape:cy="21.158972"
     inkscape:document-units="px"
     inkscape:current-layer="layer1"
     showgrid="true"
     inkscape:window-width="963"
     inkscape:window-height="674"
     inkscape:window-x="1995"
     inkscape:window-y="211"
     inkscape:window-maximized="0"
     inkscape:snap-grids="false">
    <inkscape:grid
       type="xygrid"
       id="grid2985"
       empspacing="5"
       visible="true"
       enabled="true"
       snapvisiblegridlinesonly="true"
       dotted="false" />
  </sodipodi:namedview>
  <metadata
     id="metadata7">
    <rdf:RDF>
      <cc:Work
         rdf:about="">
        <dc:format>image/svg+xml</dc:format>
        <dc:type
           rdf:resource="http://purl.org/dc/dcmitype/StillImage" />
        <dc:title></dc:title>
      </cc:Work>
    </rdf:RDF>
  </metadata>
  <g
     inkscape:label="Layer 1"
     inkscape:groupmode="layer"
     id="layer1"
     transform="translate(0,-1012.3622)">
    <path
       style="fill:url(#linearGradient3811);fill-opacity:1;stroke:#000000;stroke-opacity:1"
       d="m 15.446429,1044.8444 9.107143,0 c 1.662,0 2.959802,-1.3385 3,-3 l -0.08929,-11.0714 -15.017857,0 0,11.0714 c 0,1.662 1.338,3 3,3 z"
       id="rect3897-8"
       inkscape:connector-curvature="0"
       sodipodi:nodetypes="sssccss" />
    <path
       sodipodi:type="arc"
       style="fill:#e46a6a;fill-opacity:1;stroke:#000000;stroke-opacity:1"
       id="path5388"
       sodipodi:cx="13"
       sodipodi:cy="10"
       sodipodi:rx="3"
       sodipodi:ry="3"
       d="m 16,10 c 0,1.656854 -1.343146,3 -3,3 -1.656854,0 -3,-1.343146 -3,-3 0,-1.6568542 1.343146,-3 3,-3 1.656854,0 3,1.3431458 3,3 z"
       transform="translate(7.1785714,1013.5229)" />
    <path
       style="fill:url(#linearGradient3830);fill-opacity:1;stroke:#000000;stroke-opacity:1"
       d="m 12.5,1023.3622 15,0 c 1.662,0 3,1.338 3,3 l 0,11.0714 -21,0 0,-11.0714 c 0,-1.662 1.338,-3 3,-3 z"
       id="rect3897"
       inkscape:connector-curvature="0"
       sodipodi:nodetypes="sssccss" />
    <path
       style="fill:#965f15;stroke:#965f15;stroke-width:1px;stroke-linecap:butt;stroke-linejoin:miter;stroke-opacity:0.77647060000000001;fill-opacity:0.7764706"
       d="M 9.4642857,24.821429 9.6428571,20.625 c 0,0 1.2499999,-0.08929 1.7857139,-1.785714 0.535715,-1.696429 -0.08929,-3.75 0.982143,-3.482143 1.071429,0.267857 4.464286,4.107143 5.357143,5.625 C 18.660714,22.5 20.625,25.178571 21.25,23.303571 21.875,21.428571 23.125,19.464286 24.196429,20 25.267857,20.535714 26.25,23.303571 27.5,23.035714 c 1.25,-0.267857 2.142857,-5.178571 2.142857,-5.178571 l 0.982143,0.625 0,6.607143 -5.803571,0.178571 c 0,0 1.785714,0.714286 -0.08929,1.785714 -1.875,1.071429 -4.821429,0.08929 -5.267857,2.053572 -0.446429,1.964286 -2.321429,3.571428 -2.946429,1.964286 -0.625,-1.607143 -0.08929,-3.482143 -1.696428,-4.910715 -1.607143,-1.428571 -2.857143,-0.982143 -2.857143,-0.982143 z"
       id="path3001"
       inkscape:connector-curvature="0"
       transform="translate(0,1012.3622)" />
    <rect
       style="fill:#380c36;fill-opacity:1;stroke:none"
       id="rect5343"
       width="7.9642844"
       height="3.0005047"
       x="16.017857"
       y="1039.3444"
       rx="2" />
    <path
       sodipodi:type="arc"
       style="fill:#d6d6d6;fill-opacity:1;stroke:#000000;stroke-opacity:1"
       id="path5345"
       sodipodi:cx="14"
       sodipodi:cy="13"
       sodipodi:rx="2.7666349"
       sodipodi:ry="3.1071451"
       d="m 16.766635,13 c 0,1.716029 -1.238665,3.107145 -2.766635,3.107145 -1.52797,0 -2.766635,-1.391116 -2.766635,-3.107145 0,-1.716029 1.238665,-3.1071451 2.766635,-3.1071451 1.52797,0 2.766635,1.3911161 2.766635,3.1071451 z"
       transform="matrix(0.002272,-0.99999741,0.99999741,0.002272,11.182496,1045.6873)" />
    <path
       sodipodi:type="arc"
       style="fill:#d6d6d6;fill-opacity:1;stroke:#000000;stroke-opacity:1"
       id="path5345-8"
       sodipodi:cx="14"
       sodipodi:cy="13"
       sodipodi:rx="2.7666349"
       sodipodi:ry="3.1964517"
       d="m 16.766635,13 c 0,1.765352 -1.238665,3.196452 -2.766635,3.196452 -1.52797,0 -2.766635,-1.4311 -2.766635,-3.196452 0,-1.765352 1.238665,-3.1964517 2.766635,-3.1964517 1.52797,0 2.766635,1.4310997 2.766635,3.1964517 z"
       transform="matrix(-0.00745954,-1.001184,-0.98540084,0.00757902,28.650444,1045.635)" />
    <path
       sodipodi:type="arc"
       style="fill:#000000;fill-opacity:1;stroke:none"
       id="path5365"
       sodipodi:cx="14"
       sodipodi:cy="14"
       sodipodi:rx="1"
       sodipodi:ry="1"
       d="m 15,14 c 0,0.552285 -0.447715,1 -1,1 -0.552285,0 -1,-0.447715 -1,-1 0,-0.552285 0.447715,-1 1,-1 0.552285,0 1,0.447715 1,1 z"
       transform="translate(2,1018.3622)" />
    <path
       transform="translate(10,1018.3622)"
       sodipodi:type="arc"
       style="fill:#000000;fill-opacity:1;stroke:none"
       id="path5365-8"
       sodipodi:cx="14"
       sodipodi:cy="14"
       sodipodi:rx="1"
       sodipodi:ry="1"
       d="m 15,14 c 0,0.552285 -0.447715,1 -1,1 -0.552285,0 -1,-0.447715 -1,-1 0,-0.552285 0.447715,-1 1,-1 0.552285,0 1,0.447715 1,1 z" />
    <path
       style="fill:#965f15;fill-opacity:0.77647059;stroke:#965f15;stroke-width:1px;stroke-linecap:butt;stroke-linejoin:miter;stroke-opacity:0.77647059"
       d="m 18.89432,1027.0594 c 0,0 0.178571,-2.6786 1.875,-2.3214 1.696428,0.3571 7.321428,0.2678 5.357143,1.6964 -1.964286,1.4286 -6.428572,2.4107 -7.142857,1.7857 -0.714286,-0.625 -0.08929,-1.1607 -0.08929,-1.1607 z"
       id="path3766"
       inkscape:connector-curvature="0" />
    <path
       style="fill:none;stroke:#000000;stroke-width:1px;stroke-linecap:butt;stroke-linejoin:miter;stroke-opacity:1"
       d="m 26,1026.3622 -12,0"
       id="path5393"
       inkscape:connector-curvature="0"
       sodipodi:nodetypes="cc" />
  </g>
</svg>
