<?xml version="1.0" encoding="UTF-8" standalone="no"?>
<svg xml:space="preserve" viewBox="0 0 345.86 500" version="1.1" xmlns:rdf="http://www.w3.org/1999/02/22-rdf-syntax-ns#" xmlns="http://www.w3.org/2000/svg" x="0px" y="0px" enable-background="new 0 0 345.86 500" xmlns:cc="http://creativecommons.org/ns#" xmlns:dc="http://purl.org/dc/elements/1.1/"><metadata><rdf:RDF><cc:Work rdf:about=""><dc:format>image/svg+xml</dc:format><dc:type rdf:resource="http://purl.org/dc/dcmitype/StillImage"/></cc:Work></rdf:RDF></metadata>
	<rect width="345.86" height="500" fill="#E31937"/>
<g fill="#fff">
	<path d="m173.15 317.3l35.476-199.52c33.815 0 44.481 3.708 46.021 18.843 0 0 22.684-8.458 34.125-25.636-44.646-20.688-89.505-21.621-89.505-21.621l-26.176 31.882 0.059-0.004-26.19-31.879s-44.86 0.934-89.5 21.622c11.431 17.178 34.124 25.636 34.124 25.636 1.549-15.136 12.202-18.844 45.79-18.868l35.77 199.55"/>
	<path d="m173.13 80.157c36.09-0.276 77.399 5.583 119.69 24.014 5.652-10.173 7.105-14.669 7.105-14.669-46.227-18.289-89.518-24.548-126.8-24.705-37.27 0.158-80.559 6.418-126.78 24.706 0 0 2.062 5.538 7.1 14.669 42.28-18.431 83.596-24.29 119.69-24.014"/>
</g>
</svg>
