<?xml version="1.0" encoding="UTF-8" standalone="no"?>
<!DOCTYPE svg  PUBLIC '-//W3C//DTD SVG 1.1//EN'  'http://www.w3.org/Graphics/SVG/1.1/DTD/svg11.dtd'>
<svg xmlns="http://www.w3.org/2000/svg" x="0px" y="0px" version="1.1" xml:space="preserve" enable-background="new 0 0 345.86 500" viewBox="0 0 345.86 500">
	<rect fill="#E31937" height="500" width="345.86"/>
	<g fill="#fff">
		<polyline points="266.6 403.28 266.6 425.19 273.63 425.19 273.63 410.6 299.2 410.6 299.2 425.19 306.22 425.19 306.22 403.32 266.6 403.28"/>
		<path d="m272.84 396.19h27.02c3.753-0.746 6.544-4.058 7.331-7.262h-41.681c0.78 3.21 3.62 6.52 7.33 7.26"/>
	</g>
		<path fill="#fff" d="m245.32 425.21c3.543-1.502 5.449-4.1 6.179-7.14h-31.517l0.02-29.118-7.065 0.02v36.238h32.38"/>
		<path fill="#fff" d="m160.4 396.09h24.954c3.762-1.093 6.921-3.959 7.691-7.136h-39.64v21.415h32.444v7.515l-25.449 0.02c-3.988 1.112-7.37 3.79-9.057 7.327l2.062-0.038h39.415v-21.944h-32.42v-7.16"/>
	<g fill="#fff">
		<path d="m98.795 396.16h27.011c3.758-0.749 6.551-4.058 7.334-7.265h-41.679c0.778 3.2 3.612 6.51 7.334 7.26"/>
		<path d="m98.795 410.48h27.011c3.758-0.741 6.551-4.053 7.334-7.262h-41.679c0.778 3.21 3.612 6.52 7.334 7.26"/>
		<path d="m98.795 425.2h27.011c3.758-0.747 6.551-4.058 7.334-7.263h-41.679c0.778 3.2 3.612 6.52 7.334 7.26"/>
	</g>
		<path fill="#fff" d="m28.524 388.99c0.812 3.167 3.554 6.404 7.316 7.215h11.37l0.58 0.229v28.691h7.1v-28.691l0.645-0.229h11.38c3.804-0.98 6.487-4.048 7.285-7.215v-0.07h-45.676v0.08"/>
<g fill="#fff">
	<path d="m173.15 317.3l35.476-199.52c33.815 0 44.481 3.708 46.021 18.843 0 0 22.684-8.458 34.125-25.636-44.646-20.688-89.505-21.621-89.505-21.621l-26.176 31.882 0.059-0.004-26.19-31.879s-44.86 0.934-89.5 21.622c11.431 17.178 34.124 25.636 34.124 25.636 1.549-15.136 12.202-18.844 45.79-18.868l35.77 199.55"/>
	<path d="m173.13 80.157c36.09-0.276 77.399 5.583 119.69 24.014 5.652-10.173 7.105-14.669 7.105-14.669-46.227-18.289-89.518-24.548-126.8-24.705-37.27 0.158-80.559 6.418-126.78 24.706 0 0 2.062 5.538 7.1 14.669 42.28-18.431 83.596-24.29 119.69-24.014"/>
</g>
</svg>
