<?xml version="1.0" encoding="UTF-8" standalone="no"?>
<svg viewBox="0 0 603 474" version="1.1" xmlns:rdf="http://www.w3.org/1999/02/22-rdf-syntax-ns#" xmlns:cc="http://creativecommons.org/ns#" xmlns:dc="http://purl.org/dc/elements/1.1/" xmlns="http://www.w3.org/2000/svg">
<metadata>
<rdf:RDF>
<cc:Work rdf:about="">
<dc:format>image/svg+xml</dc:format>
<dc:type rdf:resource="http://purl.org/dc/dcmitype/StillImage"/>
</cc:Work>
</rdf:RDF>
</metadata>
<g fill="none" stroke="#fff" stroke-width="34" transform="translate(288 189) scale(1.224)">
<path d="m48.93 28.25a56.5 56.5 0 1 1 0 -56.5"/>
<path d="m-119.64 63.613a135.5 135.5 0 1 0 0 -127.23"/>
</g>
<path fill="#fff" d="m100.83 470.52c-0.17 1.03 0.37 1.89 1.14 1.89h6.51c0.77 0 1.28-0.86 1.42-1.89l2.26-17.24 9.82 18.75c0.51 0.96 2.51 0.96 3.03 0l9.93-18.41 2.29 16.9c0.14 1.03 0.22 1.89 1.3 1.89h6.99c0.59 0 0.92-0.86 0.74-1.89l-6.52-37.77c-0.27-1.55-2.22-1.55-2.65-0.76l-13.59 24.93-13.6-24.93c-0.54-0.98-2.42-0.6-2.65 0.76zm-99.33-18.32c0.1189 11.49 9.291 20.63 20.584 20.58 4.718-0.02 10.082-1.62 14.187-5.66 0.38-0.38 0.375-0.74-0.023-1.14l-5.288-5.29c-0.347-0.34-0.717-0.33-1.098 0-1.889 1.68-4.777 2.93-7.778 3.03-6.283 0.2-11.401-5.04-11.52-11.52 0.118-6.49 5.237-11.72 11.52-11.52 3.001 0.09 5.889 1.34 7.778 3.02 0.381 0.34 0.751 0.35 1.098 0l5.288-5.29c0.398-0.4 0.403-0.76 0.023-1.13-4.105-4.04-9.469-5.65-14.187-5.67-11.293-0.05-20.465 9.1-20.584 20.59zm46.079 0c0 11.37 9.215 20.58 20.584 20.58 11.368 0 20.584-9.21 20.584-20.58s-9.216-20.59-20.584-20.59c-11.369 0-20.584 9.22-20.584 20.59zm113.68-18.94v37.87c0 0.71 0.57 1.28 1.28 1.28h23.51c0.71 0 1.27-0.57 1.27-1.28v-6.14c0-0.7-0.56-1.27-1.27-1.27h-15.72v-7.56h13.08c0.7 0 1.27-0.57 1.27-1.27v-6.14c0-0.71-0.57-1.27-1.27-1.27h-13.08v-6.8h15.72c0.71 0 1.27-0.57 1.27-1.28v-6.14c0-0.7-0.56-1.27-1.27-1.27h-23.51c-0.71 0-1.28 0.57-1.28 1.27zm41.22 0.29v37.3c0 0.86 0.7 1.56 1.56 1.56h14.59c0.16 0 0.32-0.04 0.47-0.09 10.34-0.88 18.46-9.55 18.46-20.12s-8.12-19.24-18.46-20.13c-0.15-0.05-0.31-0.08-0.47-0.08h-14.59c-0.86 0-1.56 0.7-1.56 1.56zm43.46 0l12.77 19.23v17.76c0 1.03 0.83 1.86 1.86 1.86h5.72c1.03 0 1.86-0.83 1.86-1.86v-17.69l12.82-19.3c0.57-0.86 0.19-1.56-0.84-1.56h-6.56c-1.03 0-2.32 0.7-2.89 1.56l-7.23 10.87-7.22-10.87c-0.57-0.86-1.87-1.56-2.9-1.56h-6.57c-1.03 0-1.39 0.7-0.82 1.56zm-189.3 18.65c0-6.36 5.157-11.52 11.52-11.52 6.362 0 11.519 5.16 11.519 11.52s-5.157 11.52-11.519 11.52c-6.363 0-11.52-5.16-11.52-11.52zm154.86-11.52h5.1c6.36 0 11.52 5.16 11.52 11.52s-5.16 11.52-11.52 11.52h-5.1zm265.05-7.84v37.7c0 1.03 0.83 1.87 1.87 1.87h5.71c1.03 0 1.87-0.84 1.87-1.87v-19.78l22.3 21.9c0.74 0.73 3.38-0.08 3.38-1.1v-37.7c0-1.04-0.84-1.87-1.87-1.87h-5.71c-1.03 0-1.87 0.83-1.87 1.87v20.49l-22.3-22.62c-0.18-0.18-0.49-0.27-0.84-0.28-1.05-0.03-2.54 0.62-2.54 1.39zm90.18 4.44c-0.38 0.37-0.38 0.73 0.02 1.13l5.29 5.29c0.34 0.35 0.71 0.34 1.09 0 1.89-1.68 4.78-2.93 7.78-3.02 6.29-0.2 11.41 5.03 11.52 11.52-0.11 6.48-5.23 11.72-11.52 11.52-3-0.1-5.89-1.35-7.78-3.03-0.38-0.33-0.75-0.34-1.09 0l-5.29 5.29c-0.4 0.4-0.4 0.76-0.02 1.14 4.1 4.04 9.46 5.64 14.18 5.66 11.3 0.05 20.47-9.09 20.59-20.58-0.12-11.49-9.29-20.64-20.59-20.59-4.72 0.02-10.08 1.63-14.18 5.67zm-259.76-4.05v6.21c0 0.69 0.55 1.24 1.24 1.24h13.49v30.48c0 0.69 0.55 1.24 1.24 1.24h6.96c0.69 0 1.24-0.55 1.24-1.24v-37.93c0.05-0.68-0.55-1.24-1.24-1.24h-21.69c-0.69 0-1.24 0.55-1.24 1.24zm36 0l18.19 39.17c0.44 0.94 2.06 0.94 2.5 0l18.21-39.17c0.32-0.69-0.03-1.24-0.79-1.24h-6.48c-0.76 0-1.63 0.55-1.95 1.24l-2.23 4.8h-15.96l-2.23-4.8c-0.32-0.69-1.18-1.24-1.93-1.24h-6.54c-0.76 0-1.11 0.55-0.79 1.24zm48.6 26.9c0 6.78 5.5 12.27 12.27 12.27h17.14c0.86 0 1.56-0.69 1.56-1.56v-37.29c0-0.86-0.7-1.56-1.56-1.56h-5.94c-0.86 0-1.56 0.7-1.56 1.56v14.31h-3.52l-7.81-14.5c-0.41-0.76-1.43-1.37-2.29-1.37h-7.06c-0.86 0-1.22 0.61-0.82 1.37l8.12 15.07c-4.94 1.58-8.53 6.22-8.53 11.7zm44.19 4.83v6.2c0 0.69 0.55 1.24 1.24 1.24h25.47c0.69 0 1.24-0.55 1.24-1.24v-6.2c0-0.69-0.55-1.24-1.24-1.24h-8.2v-30.49c0-0.69-0.55-1.24-1.24-1.24h-6.59c-0.68 0-1.24 0.55-1.24 1.24v30.49h-8.2c-0.69 0-1.24 0.55-1.24 1.24zm91.02-31.7v6.14c0 0.71 0.58 1.28 1.28 1.28h15.72v7.55h-13.08c-0.7 0-1.27 0.57-1.27 1.28v6.13c0 0.71 0.57 1.28 1.27 1.28h13.08v6.8h-15.72c-0.7 0-1.28 0.57-1.28 1.27v6.14c0 0.71 0.58 1.27 1.28 1.27h23.51c0.71 0 1.27-0.56 1.27-1.27v-37.87c0-0.7-0.56-1.27-1.27-1.27h-23.51c-0.7 0-1.28 0.57-1.28 1.27zm-168.62 12.7h8.57l-4.29 9.22zm42.48 13.6c0-2.5 2.03-4.53 4.53-4.53h8.31v9.06h-8.31c-2.5 0-4.53-2.02-4.53-4.53z"/>
</svg>
