<?xml version="1.0" encoding="UTF-8" standalone="no"?>
<!-- Created with Inkscape (http://www.inkscape.org/) -->

<svg
   xmlns:dc="http://purl.org/dc/elements/1.1/"
   xmlns:cc="http://creativecommons.org/ns#"
   xmlns:rdf="http://www.w3.org/1999/02/22-rdf-syntax-ns#"
   xmlns:svg="http://www.w3.org/2000/svg"
   xmlns="http://www.w3.org/2000/svg"
   xmlns:sodipodi="http://sodipodi.sourceforge.net/DTD/sodipodi-0.dtd"
   xmlns:inkscape="http://www.inkscape.org/namespaces/inkscape"
   width="100"
   height="120"
   id="svg6893"
   version="1.1"
   inkscape:version="0.48.5 r10040"
   sodipodi:docname="grapes.svg">
  <defs
     id="defs6895" />
  <sodipodi:namedview
     id="base"
     pagecolor="#ffffff"
     bordercolor="#666666"
     borderopacity="1.0"
     inkscape:pageopacity="0.0"
     inkscape:pageshadow="2"
     inkscape:zoom="3.959798"
     inkscape:cx="33.487996"
     inkscape:cy="54.90998"
     inkscape:document-units="px"
     inkscape:current-layer="layer1"
     showgrid="false"
     inkscape:window-width="1149"
     inkscape:window-height="843"
     inkscape:window-x="26"
     inkscape:window-y="26"
     inkscape:window-maximized="0" />
  <metadata
     id="metadata6898">
    <rdf:RDF>
      <cc:Work
         rdf:about="">
        <dc:format>image/svg+xml</dc:format>
        <dc:type
           rdf:resource="http://purl.org/dc/dcmitype/StillImage" />
        <dc:title></dc:title>
      </cc:Work>
    </rdf:RDF>
  </metadata>
  <g
     inkscape:label="Layer 1"
     inkscape:groupmode="layer"
     id="layer1"
     transform="translate(0,-932.36218)">
    <path
       transform="matrix(1.491585,0,0,1.4103616,-11.516967,864.64631)"
       sodipodi:type="arc"
       style="color:#000000;fill:#86257f;fill-opacity:1;fill-rule:nonzero;stroke:#000000;stroke-width:0.89630139;stroke-linecap:round;stroke-linejoin:round;stroke-miterlimit:4;stroke-opacity:1;stroke-dasharray:none;stroke-dashoffset:0;marker:none;visibility:visible;display:inline;overflow:visible;enable-background:accumulate"
       id="path6901-06-4"
       sodipodi:cx="49.371204"
       sodipodi:cy="104.0901"
       sodipodi:rx="10.480332"
       sodipodi:ry="9.8489876"
       d="m 59.851537,104.0901 a 10.480332,9.8489876 0 1 1 -20.960665,0 10.480332,9.8489876 0 1 1 20.960665,0 z" />
    <path
       style="fill:none;stroke:#ffffff;stroke-width:5;stroke-linecap:round;stroke-linejoin:round;stroke-miterlimit:4;stroke-opacity:0.41489366;stroke-dasharray:none"
       d="m 52.541267,1013.4593 c -0.7176,-4.6613 2.671808,-9.609 8.054109,-10.6057"
       id="path3759-1-3"
       inkscape:connector-curvature="0"
       sodipodi:nodetypes="cc" />
    <path
       style="fill:none;stroke:#000000;stroke-width:5;stroke-linecap:round;stroke-linejoin:round;stroke-miterlimit:4;stroke-opacity:0.26595746;stroke-dasharray:none"
       d="m 63.721972,1020.1709 c 4.261806,-1.3514 7.926409,-4.3779 8.293626,-9.0699"
       id="path3761-89-9"
       inkscape:connector-curvature="0"
       sodipodi:nodetypes="cc" />
    <path
       transform="matrix(1.491585,0,0,1.4103616,8.9386228,818.93691)"
       sodipodi:type="arc"
       style="color:#000000;fill:#86257f;fill-opacity:1;fill-rule:nonzero;stroke:#000000;stroke-width:0.89630139;stroke-linecap:round;stroke-linejoin:round;stroke-miterlimit:4;stroke-opacity:1;stroke-dasharray:none;stroke-dashoffset:0;marker:none;visibility:visible;display:inline;overflow:visible;enable-background:accumulate"
       id="path6901-06-84"
       sodipodi:cx="49.371204"
       sodipodi:cy="104.0901"
       sodipodi:rx="10.480332"
       sodipodi:ry="9.8489876"
       d="m 59.851537,104.0901 a 10.480332,9.8489876 0 1 1 -20.960665,0 10.480332,9.8489876 0 1 1 20.960665,0 z" />
    <path
       style="fill:none;stroke:#ffffff;stroke-width:5;stroke-linecap:round;stroke-linejoin:round;stroke-miterlimit:4;stroke-opacity:0.41489366;stroke-dasharray:none"
       d="m 72.996857,967.74987 c -0.7176,-4.6613 2.671808,-9.609 8.054109,-10.6057"
       id="path3759-1-9"
       inkscape:connector-curvature="0"
       sodipodi:nodetypes="cc" />
    <path
       style="fill:none;stroke:#000000;stroke-width:5;stroke-linecap:round;stroke-linejoin:round;stroke-miterlimit:4;stroke-opacity:0.26595746;stroke-dasharray:none"
       d="m 84.177562,974.46147 c 4.261806,-1.3514 7.926409,-4.3779 8.293626,-9.0699"
       id="path3761-89-92"
       inkscape:connector-curvature="0"
       sodipodi:nodetypes="cc" />
    <path
       transform="matrix(1.491585,0,0,1.4103616,-49.145149,843.68565)"
       sodipodi:type="arc"
       style="color:#000000;fill:#86257f;fill-opacity:1;fill-rule:nonzero;stroke:#000000;stroke-width:0.89630139;stroke-linecap:round;stroke-linejoin:round;stroke-miterlimit:4;stroke-opacity:1;stroke-dasharray:none;stroke-dashoffset:0;marker:none;visibility:visible;display:inline;overflow:visible;enable-background:accumulate"
       id="path6901-06-88"
       sodipodi:cx="49.371204"
       sodipodi:cy="104.0901"
       sodipodi:rx="10.480332"
       sodipodi:ry="9.8489876"
       d="m 59.851537,104.0901 a 10.480332,9.8489876 0 1 1 -20.960665,0 10.480332,9.8489876 0 1 1 20.960665,0 z" />
    <path
       style="fill:none;stroke:#ffffff;stroke-width:5;stroke-linecap:round;stroke-linejoin:round;stroke-miterlimit:4;stroke-opacity:0.41489366;stroke-dasharray:none"
       d="m 14.913085,992.49858 c -0.7176,-4.6613 2.671808,-9.609 8.05411,-10.6057"
       id="path3759-1-0"
       inkscape:connector-curvature="0"
       sodipodi:nodetypes="cc" />
    <path
       style="fill:none;stroke:#000000;stroke-width:5;stroke-linecap:round;stroke-linejoin:round;stroke-miterlimit:4;stroke-opacity:0.26595746;stroke-dasharray:none"
       d="m 26.093791,999.21018 c 4.261806,-1.3514 7.926409,-4.3779 8.293626,-9.0699"
       id="path3761-89-8"
       inkscape:connector-curvature="0"
       sodipodi:nodetypes="cc" />
    <path
       transform="matrix(1.491585,0,0,1.4103616,-55.963678,820.45215)"
       sodipodi:type="arc"
       style="color:#000000;fill:#86257f;fill-opacity:1;fill-rule:nonzero;stroke:#000000;stroke-width:0.89630139;stroke-linecap:round;stroke-linejoin:round;stroke-miterlimit:4;stroke-opacity:1;stroke-dasharray:none;stroke-dashoffset:0;marker:none;visibility:visible;display:inline;overflow:visible;enable-background:accumulate"
       id="path6901-06-73"
       sodipodi:cx="49.371204"
       sodipodi:cy="104.0901"
       sodipodi:rx="10.480332"
       sodipodi:ry="9.8489876"
       d="m 59.851537,104.0901 a 10.480332,9.8489876 0 1 1 -20.960665,0 10.480332,9.8489876 0 1 1 20.960665,0 z" />
    <path
       style="fill:none;stroke:#ffffff;stroke-width:5;stroke-linecap:round;stroke-linejoin:round;stroke-miterlimit:4;stroke-opacity:0.41489366;stroke-dasharray:none"
       d="m 8.0945552,969.26511 c -0.7176,-4.6613 2.6718078,-9.609 8.0541098,-10.6057"
       id="path3759-1-49"
       inkscape:connector-curvature="0"
       sodipodi:nodetypes="cc" />
    <path
       style="fill:none;stroke:#000000;stroke-width:5;stroke-linecap:round;stroke-linejoin:round;stroke-miterlimit:4;stroke-opacity:0.26595746;stroke-dasharray:none"
       d="m 19.275261,975.97671 c 4.261806,-1.3514 7.926409,-4.3779 8.293626,-9.0699"
       id="path3761-89-6"
       inkscape:connector-curvature="0"
       sodipodi:nodetypes="cc" />
    <path
       transform="matrix(1.491585,0,0,1.4103616,-22.628645,842.92804)"
       sodipodi:type="arc"
       style="color:#000000;fill:#86257f;fill-opacity:1;fill-rule:nonzero;stroke:#000000;stroke-width:0.89630139;stroke-linecap:round;stroke-linejoin:round;stroke-miterlimit:4;stroke-opacity:1;stroke-dasharray:none;stroke-dashoffset:0;marker:none;visibility:visible;display:inline;overflow:visible;enable-background:accumulate"
       id="path6901-06-7"
       sodipodi:cx="49.371204"
       sodipodi:cy="104.0901"
       sodipodi:rx="10.480332"
       sodipodi:ry="9.8489876"
       d="m 59.851537,104.0901 a 10.480332,9.8489876 0 1 1 -20.960665,0 10.480332,9.8489876 0 1 1 20.960665,0 z" />
    <path
       style="fill:none;stroke:#ffffff;stroke-width:5;stroke-linecap:round;stroke-linejoin:round;stroke-miterlimit:4;stroke-opacity:0.41489366;stroke-dasharray:none"
       d="m 41.429589,991.74104 c -0.7176,-4.66134 2.671808,-9.60904 8.054109,-10.60574"
       id="path3759-1-7"
       inkscape:connector-curvature="0"
       sodipodi:nodetypes="cc" />
    <path
       style="fill:none;stroke:#000000;stroke-width:5;stroke-linecap:round;stroke-linejoin:round;stroke-miterlimit:4;stroke-opacity:0.26595746;stroke-dasharray:none"
       d="m 52.610294,998.45264 c 4.261806,-1.3514 7.926409,-4.3779 8.293626,-9.06994"
       id="path3761-89-83"
       inkscape:connector-curvature="0"
       sodipodi:nodetypes="cc" />
    <path
       style="fill:#845e24;stroke:#000000;stroke-width:1.50000000000000000;stroke-linecap:butt;stroke-linejoin:miter;stroke-opacity:1;stroke-miterlimit:4;stroke-dasharray:none;fill-opacity:1"
       d="M 42.931483,24.288046 C 44.194174,14.439059 43.436559,13.176368 42.426407,10.903525 41.416254,8.6306818 37.375644,4.5900716 37.375644,4.5900716 l 3.030458,-2.5253814 c 0,0 6.060915,1.5152288 7.828682,8.3337588 1.767767,6.818529 3.788072,13.131983 3.788072,13.131983"
       id="path7682"
       inkscape:connector-curvature="0"
       transform="translate(0,932.36218)" />
    <path
       transform="matrix(1.491585,0,0,1.4103616,-24.143871,884.09174)"
       sodipodi:type="arc"
       style="color:#000000;fill:#86257f;fill-opacity:1;fill-rule:nonzero;stroke:#000000;stroke-width:0.89630139;stroke-linecap:round;stroke-linejoin:round;stroke-miterlimit:4;stroke-opacity:1;stroke-dasharray:none;stroke-dashoffset:0;marker:none;visibility:visible;display:inline;overflow:visible;enable-background:accumulate"
       id="path6901-06"
       sodipodi:cx="49.371204"
       sodipodi:cy="104.0901"
       sodipodi:rx="10.480332"
       sodipodi:ry="9.8489876"
       d="m 59.851537,104.0901 a 10.480332,9.8489876 0 1 1 -20.960665,0 10.480332,9.8489876 0 1 1 20.960665,0 z" />
    <path
       style="fill:none;stroke:#ffffff;stroke-width:5;stroke-linecap:round;stroke-linejoin:round;stroke-miterlimit:4;stroke-opacity:0.41489366;stroke-dasharray:none"
       d="m 39.914363,1032.9047 c -0.7176,-4.6613 2.671808,-9.609 8.054109,-10.6057"
       id="path3759-1"
       inkscape:connector-curvature="0"
       sodipodi:nodetypes="cc" />
    <path
       style="fill:none;stroke:#000000;stroke-width:5;stroke-linecap:round;stroke-linejoin:round;stroke-miterlimit:4;stroke-opacity:0.26595746;stroke-dasharray:none"
       d="m 51.095068,1039.6163 c 4.261806,-1.3514 7.926409,-4.3779 8.293626,-9.0699"
       id="path3761-89"
       inkscape:connector-curvature="0"
       sodipodi:nodetypes="cc" />
    <path
       transform="matrix(1.491585,0,0,1.4103616,-37.780933,865.15139)"
       sodipodi:type="arc"
       style="color:#000000;fill:#86257f;fill-opacity:1;fill-rule:nonzero;stroke:#000000;stroke-width:0.89630139;stroke-linecap:round;stroke-linejoin:round;stroke-miterlimit:4;stroke-opacity:1;stroke-dasharray:none;stroke-dashoffset:0;marker:none;visibility:visible;display:inline;overflow:visible;enable-background:accumulate"
       id="path6901-06-8"
       sodipodi:cx="49.371204"
       sodipodi:cy="104.0901"
       sodipodi:rx="10.480332"
       sodipodi:ry="9.8489876"
       d="m 59.851537,104.0901 a 10.480332,9.8489876 0 1 1 -20.960665,0 10.480332,9.8489876 0 1 1 20.960665,0 z" />
    <path
       style="fill:none;stroke:#ffffff;stroke-width:5;stroke-linecap:round;stroke-linejoin:round;stroke-miterlimit:4;stroke-opacity:0.41489366;stroke-dasharray:none"
       d="m 26.277301,1013.9643 c -0.7176,-4.6613 2.671808,-9.609 8.054109,-10.6057"
       id="path3759-1-4"
       inkscape:connector-curvature="0"
       sodipodi:nodetypes="cc" />
    <path
       style="fill:none;stroke:#000000;stroke-width:5;stroke-linecap:round;stroke-linejoin:round;stroke-miterlimit:4;stroke-opacity:0.26595746;stroke-dasharray:none"
       d="m 37.458006,1020.6759 c 4.261806,-1.3514 7.926409,-4.3779 8.293626,-9.0699"
       id="path3761-89-1"
       inkscape:connector-curvature="0"
       sodipodi:nodetypes="cc" />
    <path
       transform="matrix(1.491585,0,0,1.4103616,-1.4154408,842.17042)"
       sodipodi:type="arc"
       style="color:#000000;fill:#86257f;fill-opacity:1;fill-rule:nonzero;stroke:#000000;stroke-width:0.89630139;stroke-linecap:round;stroke-linejoin:round;stroke-miterlimit:4;stroke-opacity:1;stroke-dasharray:none;stroke-dashoffset:0;marker:none;visibility:visible;display:inline;overflow:visible;enable-background:accumulate"
       id="path6901-06-83"
       sodipodi:cx="49.371204"
       sodipodi:cy="104.0901"
       sodipodi:rx="10.480332"
       sodipodi:ry="9.8489876"
       d="m 59.851537,104.0901 a 10.480332,9.8489876 0 1 1 -20.960665,0 10.480332,9.8489876 0 1 1 20.960665,0 z" />
    <path
       style="fill:none;stroke:#ffffff;stroke-width:5;stroke-linecap:round;stroke-linejoin:round;stroke-miterlimit:4;stroke-opacity:0.41489366;stroke-dasharray:none"
       d="m 62.642793,990.98338 c -0.7176,-4.6613 2.671808,-9.609 8.054109,-10.6057"
       id="path3759-1-71"
       inkscape:connector-curvature="0"
       sodipodi:nodetypes="cc" />
    <path
       style="fill:none;stroke:#000000;stroke-width:5;stroke-linecap:round;stroke-linejoin:round;stroke-miterlimit:4;stroke-opacity:0.26595746;stroke-dasharray:none"
       d="m 73.823498,997.69498 c 4.261806,-1.3514 7.926409,-4.3779 8.293626,-9.0699"
       id="path3761-89-0"
       inkscape:connector-curvature="0"
       sodipodi:nodetypes="cc" />
    <path
       transform="matrix(1.491585,0,0,1.4103616,-35.255551,821.20976)"
       sodipodi:type="arc"
       style="color:#000000;fill:#86257f;fill-opacity:1;fill-rule:nonzero;stroke:#000000;stroke-width:0.89630139;stroke-linecap:round;stroke-linejoin:round;stroke-miterlimit:4;stroke-opacity:1;stroke-dasharray:none;stroke-dashoffset:0;marker:none;visibility:visible;display:inline;overflow:visible;enable-background:accumulate"
       id="path6901-06-5"
       sodipodi:cx="49.371204"
       sodipodi:cy="104.0901"
       sodipodi:rx="10.480332"
       sodipodi:ry="9.8489876"
       d="m 59.851537,104.0901 a 10.480332,9.8489876 0 1 1 -20.960665,0 10.480332,9.8489876 0 1 1 20.960665,0 z" />
    <path
       style="fill:none;stroke:#ffffff;stroke-width:5;stroke-linecap:round;stroke-linejoin:round;stroke-miterlimit:4;stroke-opacity:0.41489366;stroke-dasharray:none"
       d="m 28.802683,970.02272 c -0.7176,-4.6613 2.671808,-9.609 8.054109,-10.6057"
       id="path3759-1-1"
       inkscape:connector-curvature="0"
       sodipodi:nodetypes="cc" />
    <path
       style="fill:none;stroke:#000000;stroke-width:5;stroke-linecap:round;stroke-linejoin:round;stroke-miterlimit:4;stroke-opacity:0.26595746;stroke-dasharray:none"
       d="m 39.983388,976.73432 c 4.261806,-1.3514 7.926409,-4.3779 8.293626,-9.0699"
       id="path3761-89-09"
       inkscape:connector-curvature="0"
       sodipodi:nodetypes="cc" />
    <path
       transform="matrix(1.491585,0,0,1.4103616,-14.042348,818.1793)"
       sodipodi:type="arc"
       style="color:#000000;fill:#86257f;fill-opacity:1;fill-rule:nonzero;stroke:#000000;stroke-width:0.89630139;stroke-linecap:round;stroke-linejoin:round;stroke-miterlimit:4;stroke-opacity:1;stroke-dasharray:none;stroke-dashoffset:0;marker:none;visibility:visible;display:inline;overflow:visible;enable-background:accumulate"
       id="path6901-06-9"
       sodipodi:cx="49.371204"
       sodipodi:cy="104.0901"
       sodipodi:rx="10.480332"
       sodipodi:ry="9.8489876"
       d="m 59.851537,104.0901 a 10.480332,9.8489876 0 1 1 -20.960665,0 10.480332,9.8489876 0 1 1 20.960665,0 z" />
    <path
       style="fill:none;stroke:#ffffff;stroke-width:5;stroke-linecap:round;stroke-linejoin:round;stroke-miterlimit:4;stroke-opacity:0.41489366;stroke-dasharray:none"
       d="m 50.015886,966.99226 c -0.7176,-4.6613 2.671808,-9.609 8.054109,-10.6057"
       id="path3759-1-6"
       inkscape:connector-curvature="0"
       sodipodi:nodetypes="cc" />
    <path
       style="fill:none;stroke:#000000;stroke-width:5;stroke-linecap:round;stroke-linejoin:round;stroke-miterlimit:4;stroke-opacity:0.26595746;stroke-dasharray:none"
       d="m 61.196591,973.70386 c 4.261806,-1.3514 7.926409,-4.3779 8.293626,-9.0699"
       id="path3761-89-834"
       inkscape:connector-curvature="0"
       sodipodi:nodetypes="cc" />
  </g>
</svg>
