<?xml version="1.0" encoding="UTF-8" standalone="no"?>
<!-- Created with Inkscape (http://www.inkscape.org/) -->

<svg
   xmlns:dc="http://purl.org/dc/elements/1.1/"
   xmlns:cc="http://creativecommons.org/ns#"
   xmlns:rdf="http://www.w3.org/1999/02/22-rdf-syntax-ns#"
   xmlns:svg="http://www.w3.org/2000/svg"
   xmlns="http://www.w3.org/2000/svg"
   xmlns:sodipodi="http://sodipodi.sourceforge.net/DTD/sodipodi-0.dtd"
   xmlns:inkscape="http://www.inkscape.org/namespaces/inkscape"
   width="60"
   height="60"
   id="svg3765"
   version="1.1"
   inkscape:version="0.48.5 r10040"
   sodipodi:docname="New document 3">
  <defs
     id="defs3767" />
  <sodipodi:namedview
     id="base"
     pagecolor="#ffffff"
     bordercolor="#666666"
     borderopacity="1.0"
     inkscape:pageopacity="0.0"
     inkscape:pageshadow="2"
     inkscape:zoom="5.6"
     inkscape:cx="32.829468"
     inkscape:cy="35.116394"
     inkscape:document-units="px"
     inkscape:current-layer="layer1"
     showgrid="false"
     inkscape:window-width="867"
     inkscape:window-height="678"
     inkscape:window-x="152"
     inkscape:window-y="142"
     inkscape:window-maximized="0" />
  <metadata
     id="metadata3770">
    <rdf:RDF>
      <cc:Work
         rdf:about="">
        <dc:format>image/svg+xml</dc:format>
        <dc:type
           rdf:resource="http://purl.org/dc/dcmitype/StillImage" />
        <dc:title></dc:title>
      </cc:Work>
    </rdf:RDF>
  </metadata>
  <g
     inkscape:label="Layer 1"
     inkscape:groupmode="layer"
     id="layer1"
     transform="translate(0,-992.36218)">
    <path
       sodipodi:type="arc"
       style="color:#000000;fill:#e97700;fill-opacity:1;fill-rule:nonzero;stroke:#000000;stroke-width:1.50000000000000000;stroke-linecap:round;stroke-linejoin:round;stroke-miterlimit:4;stroke-opacity:1;stroke-dasharray:none;stroke-dashoffset:0;marker:none;visibility:visible;display:inline;overflow:visible;enable-background:accumulate"
       id="path3773"
       sodipodi:cx="30.089285"
       sodipodi:cy="30.625"
       sodipodi:rx="28.125"
       sodipodi:ry="28.303572"
       d="m 58.214285,30.625 a 28.125,28.303572 0 1 1 -56.2500001,0 28.125,28.303572 0 1 1 56.2500001,0 z"
       transform="translate(0,992.36218)" />
    <path
       style="fill:none;stroke:#ffffff;stroke-width:5;stroke-linecap:round;stroke-linejoin:round;stroke-miterlimit:4;stroke-opacity:0.41489366;stroke-dasharray:none"
       d="M 7.8123428,1016.6813 C 9.7520191,1006.3866 19.385412,1000.3569 26.473372,999.29301"
       id="path3759"
       inkscape:connector-curvature="0"
       sodipodi:nodetypes="cc" />
    <path
       style="fill:none;stroke:#000000;stroke-width:5;stroke-linecap:round;stroke-linejoin:round;stroke-miterlimit:4;stroke-opacity:0.26595746;stroke-dasharray:none"
       d="m 29.357142,1047.0229 c 19.625,-1.7321 25.125,-17.625 24.321429,-28.4286"
       id="path3761"
       inkscape:connector-curvature="0"
       sodipodi:nodetypes="cc" />
    <path
       style="fill:none;stroke:#000000;stroke-width:1.5;stroke-linecap:butt;stroke-linejoin:miter;stroke-miterlimit:4;stroke-opacity:1;stroke-dasharray:none"
       d="m 26.757951,999.50861 c 2.650177,-1.08453 5.078244,-1.44552 6.841242,0.17858"
       id="path3755"
       inkscape:connector-curvature="0"
       sodipodi:nodetypes="cc" />
    <path
       sodipodi:type="arc"
       style="color:#000000;fill:#000000;fill-opacity:0.38829789;fill-rule:nonzero;stroke:none;stroke-width:1.50000000000000000;stroke-linecap:round;stroke-linejoin:round;stroke-miterlimit:4;stroke-opacity:1;stroke-dasharray:none;stroke-dashoffset:0;marker:none;visibility:visible;display:inline;overflow:visible;enable-background:accumulate"
       id="path4337"
       sodipodi:cx="10.714286"
       sodipodi:cy="34.55357"
       sodipodi:rx="1.4285715"
       sodipodi:ry="1.5178572"
       d="m 12.142857,34.55357 a 1.4285715,1.5178572 0 1 1 -2.8571426,0 1.4285715,1.5178572 0 1 1 2.8571426,0 z"
       transform="translate(0,992.36218)" />
    <path
       transform="translate(4.1071428,981.91575)"
       sodipodi:type="arc"
       style="color:#000000;fill:#000000;fill-opacity:0.38829789;fill-rule:nonzero;stroke:none;stroke-width:1.5;marker:none;visibility:visible;display:inline;overflow:visible;enable-background:accumulate"
       id="path4337-1"
       sodipodi:cx="10.714286"
       sodipodi:cy="34.55357"
       sodipodi:rx="1.4285715"
       sodipodi:ry="1.5178572"
       d="m 12.142857,34.55357 a 1.4285715,1.5178572 0 1 1 -2.8571426,0 1.4285715,1.5178572 0 1 1 2.8571426,0 z" />
    <path
       transform="translate(12.678572,971.73718)"
       sodipodi:type="arc"
       style="color:#000000;fill:#000000;fill-opacity:0.38829789;fill-rule:nonzero;stroke:none;stroke-width:1.5;marker:none;visibility:visible;display:inline;overflow:visible;enable-background:accumulate"
       id="path4337-7"
       sodipodi:cx="10.714286"
       sodipodi:cy="34.55357"
       sodipodi:rx="1.4285715"
       sodipodi:ry="1.5178572"
       d="m 12.142857,34.55357 a 1.4285715,1.5178572 0 1 1 -2.8571426,0 1.4285715,1.5178572 0 1 1 2.8571426,0 z" />
    <path
       transform="translate(6.7857137,1007.2729)"
       sodipodi:type="arc"
       style="color:#000000;fill:#000000;fill-opacity:0.38829789;fill-rule:nonzero;stroke:none;stroke-width:1.5;marker:none;visibility:visible;display:inline;overflow:visible;enable-background:accumulate"
       id="path4337-4"
       sodipodi:cx="10.714286"
       sodipodi:cy="34.55357"
       sodipodi:rx="1.4285715"
       sodipodi:ry="1.5178572"
       d="m 12.142857,34.55357 a 1.4285715,1.5178572 0 1 1 -2.8571426,0 1.4285715,1.5178572 0 1 1 2.8571426,0 z" />
    <path
       transform="translate(16.607143,999.23717)"
       sodipodi:type="arc"
       style="color:#000000;fill:#000000;fill-opacity:0.38829789;fill-rule:nonzero;stroke:none;stroke-width:1.5;marker:none;visibility:visible;display:inline;overflow:visible;enable-background:accumulate"
       id="path4337-0"
       sodipodi:cx="10.714286"
       sodipodi:cy="34.55357"
       sodipodi:rx="1.4285715"
       sodipodi:ry="1.5178572"
       d="m 12.142857,34.55357 a 1.4285715,1.5178572 0 1 1 -2.8571426,0 1.4285715,1.5178572 0 1 1 2.8571426,0 z" />
    <path
       transform="translate(17.142857,986.0229)"
       sodipodi:type="arc"
       style="color:#000000;fill:#000000;fill-opacity:0.38829789;fill-rule:nonzero;stroke:none;stroke-width:1.5;marker:none;visibility:visible;display:inline;overflow:visible;enable-background:accumulate"
       id="path4337-9"
       sodipodi:cx="10.714286"
       sodipodi:cy="34.55357"
       sodipodi:rx="1.4285715"
       sodipodi:ry="1.5178572"
       d="m 12.142857,34.55357 a 1.4285715,1.5178572 0 1 1 -2.8571426,0 1.4285715,1.5178572 0 1 1 2.8571426,0 z" />
    <path
       transform="translate(27.678571,967.2729)"
       sodipodi:type="arc"
       style="color:#000000;fill:#000000;fill-opacity:0.38829789;fill-rule:nonzero;stroke:none;stroke-width:1.5;marker:none;visibility:visible;display:inline;overflow:visible;enable-background:accumulate"
       id="path4337-48"
       sodipodi:cx="10.714286"
       sodipodi:cy="34.55357"
       sodipodi:rx="1.4285715"
       sodipodi:ry="1.5178572"
       d="m 12.142857,34.55357 a 1.4285715,1.5178572 0 1 1 -2.8571426,0 1.4285715,1.5178572 0 1 1 2.8571426,0 z" />
    <path
       transform="translate(30.892857,977.98718)"
       sodipodi:type="arc"
       style="color:#000000;fill:#000000;fill-opacity:0.38829789;fill-rule:nonzero;stroke:none;stroke-width:1.5;marker:none;visibility:visible;display:inline;overflow:visible;enable-background:accumulate"
       id="path4337-8"
       sodipodi:cx="10.714286"
       sodipodi:cy="34.55357"
       sodipodi:rx="1.4285715"
       sodipodi:ry="1.5178572"
       d="m 12.142857,34.55357 a 1.4285715,1.5178572 0 1 1 -2.8571426,0 1.4285715,1.5178572 0 1 1 2.8571426,0 z" />
    <path
       transform="translate(40.714286,979.23718)"
       sodipodi:type="arc"
       style="color:#000000;fill:#000000;fill-opacity:0.38829789;fill-rule:nonzero;stroke:none;stroke-width:1.5;marker:none;visibility:visible;display:inline;overflow:visible;enable-background:accumulate"
       id="path4337-2"
       sodipodi:cx="10.714286"
       sodipodi:cy="34.55357"
       sodipodi:rx="1.4285715"
       sodipodi:ry="1.5178572"
       d="m 12.142857,34.55357 a 1.4285715,1.5178572 0 1 1 -2.8571426,0 1.4285715,1.5178572 0 1 1 2.8571426,0 z" />
    <path
       transform="translate(28.928571,998.34432)"
       sodipodi:type="arc"
       style="color:#000000;fill:#000000;fill-opacity:0.38829789;fill-rule:nonzero;stroke:none;stroke-width:1.5;marker:none;visibility:visible;display:inline;overflow:visible;enable-background:accumulate"
       id="path4337-45"
       sodipodi:cx="10.714286"
       sodipodi:cy="34.55357"
       sodipodi:rx="1.4285715"
       sodipodi:ry="1.5178572"
       d="m 12.142857,34.55357 a 1.4285715,1.5178572 0 1 1 -2.8571426,0 1.4285715,1.5178572 0 1 1 2.8571426,0 z" />
  </g>
</svg>
