<?xml version="1.0" encoding="UTF-8" standalone="no"?>
<!-- Created with Inkscape (http://www.inkscape.org/) -->

<svg
   xmlns:dc="http://purl.org/dc/elements/1.1/"
   xmlns:cc="http://creativecommons.org/ns#"
   xmlns:rdf="http://www.w3.org/1999/02/22-rdf-syntax-ns#"
   xmlns:svg="http://www.w3.org/2000/svg"
   xmlns="http://www.w3.org/2000/svg"
   xmlns:sodipodi="http://sodipodi.sourceforge.net/DTD/sodipodi-0.dtd"
   xmlns:inkscape="http://www.inkscape.org/namespaces/inkscape"
   width="60"
   height="60"
   id="svg4969"
   version="1.1"
   inkscape:version="0.48.5 r10040"
   sodipodi:docname="strawberry-chomp.svg">
  <defs
     id="defs4971" />
  <sodipodi:namedview
     id="base"
     pagecolor="#ffffff"
     bordercolor="#666666"
     borderopacity="1.0"
     inkscape:pageopacity="0.0"
     inkscape:pageshadow="2"
     inkscape:zoom="5.6"
     inkscape:cx="-15.190103"
     inkscape:cy="29.019832"
     inkscape:document-units="px"
     inkscape:current-layer="layer1"
     showgrid="false"
     inkscape:window-width="1119"
     inkscape:window-height="765"
     inkscape:window-x="274"
     inkscape:window-y="124"
     inkscape:window-maximized="0" />
  <metadata
     id="metadata4974">
    <rdf:RDF>
      <cc:Work
         rdf:about="">
        <dc:format>image/svg+xml</dc:format>
        <dc:type
           rdf:resource="http://purl.org/dc/dcmitype/StillImage" />
        <dc:title></dc:title>
      </cc:Work>
    </rdf:RDF>
  </metadata>
  <g
     inkscape:label="Layer 1"
     inkscape:groupmode="layer"
     id="layer1"
     transform="translate(0,-992.36218)">
    <path
       style="fill:none;stroke:#4e3303;stroke-width:4.9000001;stroke-linecap:round;stroke-linejoin:round;stroke-miterlimit:4;stroke-opacity:1;stroke-dasharray:none"
       d="m 29.168155,1002.6976 c 0.126269,-6.28077 2.020305,-7.51229 2.020305,-7.51229"
       id="path5487"
       inkscape:connector-curvature="0"
       sodipodi:nodetypes="cc" />
    <path
       style="fill:#f74343;fill-opacity:1;stroke:#000000;stroke-width:1.5;stroke-linecap:round;stroke-linejoin:round;stroke-miterlimit:4;stroke-opacity:1;stroke-dasharray:none"
       d="M 27.125 8.25 C 16.883375 8.6642769 5.6454432 13.759656 3.78125 18.34375 C -0.03984107 27.73985 10.364575 58.5615 30.3125 58.625 C 40.506476 58.657287 48.070665 50.121813 52.59375 40.59375 C 51.688273 41.74215 50.239731 42.6226 48.03125 41.5625 C 43.614289 39.4424 46.4375 35.03125 46.4375 35.03125 C 46.4375 35.03125 43.076854 38.036 40.25 35.5625 C 37.423144 33.089 41.65625 29 41.65625 29 C 41.65625 29 36.891784 30.78475 35.125 27.78125 C 33.358215 24.77775 39.53125 21.78125 39.53125 21.78125 C 39.53125 21.78125 33.705499 22.2836 32.46875 18.75 C 31.232001 15.2164 37.0625 14.15625 37.0625 14.15625 C 37.0625 14.15625 31.652437 12.2268 31.96875 10.0625 C 32.076144 9.3277061 32.289958 8.7367175 32.625 8.28125 C 31.425488 8.2206275 30.246624 8.223414 29.15625 8.25 C 28.485446 8.2346062 27.807775 8.2223815 27.125 8.25 z "
       transform="translate(0,992.36218)"
       id="path4977" />
    <path
       style="fill:none;stroke:#ffffff;stroke-width:5;stroke-linecap:round;stroke-linejoin:round;stroke-miterlimit:4;stroke-opacity:0.41489366;stroke-dasharray:none"
       d="m 9.0318645,1023.224 c -3.5428039,-11.433 5.3623435,-15.2082 12.3671165,-17.777"
       id="path3759"
       inkscape:connector-curvature="0"
       sodipodi:nodetypes="cc" />
    <path
       style="fill:#15c216;fill-opacity:1;stroke:#000000;stroke-width:1.50000000000000000;stroke-linecap:round;stroke-linejoin:round;stroke-miterlimit:4;stroke-opacity:0.70212761000000001;stroke-dasharray:none"
       d="M 30.53125 8.96875 C 24.95006 9.0289875 19.339475 9.70545 14.875 11.0625 L 9.78125 18.5 L 20.75 15.46875 L 23.09375 23.09375 L 30.15625 15.84375 L 32.3125 17.625 C 32.534862 15.006262 37.0625 14.15625 37.0625 14.15625 C 37.0625 14.15625 31.652437 12.2268 31.96875 10.0625 C 32.02791 9.6577238 32.113824 9.2842952 32.25 8.96875 C 31.679487 8.9620381 31.103947 8.9625689 30.53125 8.96875 z M 37.25 21.6875 L 38.25 22.5 C 38.627472 22.263659 38.771864 22.185329 39 22.0625 L 39.03125 21.78125 C 38.644548 21.798106 38.110141 21.787219 37.25 21.6875 z "
       transform="translate(0,992.36218)"
       id="path5489" />
    <path
       style="fill:none;stroke:#000000;stroke-width:5;stroke-linecap:round;stroke-linejoin:round;stroke-miterlimit:4;stroke-opacity:0.26595746;stroke-dasharray:none"
       d="m 25.218351,1045.7289 c 11.169425,1.1449 16.961711,-3.6864 19.932075,-9.5478"
       id="path3761"
       inkscape:connector-curvature="0"
       sodipodi:nodetypes="cc" />
    <path
       sodipodi:type="arc"
       style="color:#000000;fill:#ffffff;fill-opacity:0.74468085;fill-rule:nonzero;stroke:none;stroke-width:1.5;marker:none;visibility:visible;display:inline;overflow:visible;enable-background:accumulate"
       id="path5527"
       sodipodi:cx="13.75"
       sodipodi:cy="22.142857"
       sodipodi:rx="1.0714285"
       sodipodi:ry="1.7857143"
       d="m 14.821429,22.142857 a 1.0714285,1.7857143 0 1 1 -2.142858,0 1.0714285,1.7857143 0 1 1 2.142858,0 z"
       transform="matrix(1,0,0,0.97531507,-0.35714286,994.33148)" />
    <path
       transform="matrix(1,0,0,0.97531507,10.178571,994.15732)"
       sodipodi:type="arc"
       style="color:#000000;fill:#ffffff;fill-opacity:0.74468085;fill-rule:nonzero;stroke:none;stroke-width:1.5;marker:none;visibility:visible;display:inline;overflow:visible;enable-background:accumulate"
       id="path5527-5"
       sodipodi:cx="13.75"
       sodipodi:cy="22.142857"
       sodipodi:rx="1.0714285"
       sodipodi:ry="1.7857143"
       d="m 14.821429,22.142857 a 1.0714285,1.7857143 0 1 1 -2.142858,0 1.0714285,1.7857143 0 1 1 2.142858,0 z" />
    <path
       sodipodi:type="arc"
       style="color:#000000;fill:#ffffff;fill-opacity:0.74468085;fill-rule:nonzero;stroke:none;stroke-width:1.5;marker:none;visibility:visible;display:inline;overflow:visible;enable-background:accumulate"
       id="path5527-11"
       sodipodi:cx="13.75"
       sodipodi:cy="22.142857"
       sodipodi:rx="1.0714285"
       sodipodi:ry="1.7857143"
       d="m 14.821429,22.142857 a 1.0714285,1.7857143 0 1 1 -2.142858,0 1.0714285,1.7857143 0 1 1 2.142858,0 z"
       transform="matrix(1,0,0,0.97531507,5.0000005,999.73054)" />
    <path
       transform="matrix(1,0,0,0.97531507,15.535714,999.55638)"
       sodipodi:type="arc"
       style="color:#000000;fill:#ffffff;fill-opacity:0.74468085;fill-rule:nonzero;stroke:none;stroke-width:1.5;marker:none;visibility:visible;display:inline;overflow:visible;enable-background:accumulate"
       id="path5527-5-5"
       sodipodi:cx="13.75"
       sodipodi:cy="22.142857"
       sodipodi:rx="1.0714285"
       sodipodi:ry="1.7857143"
       d="m 14.821429,22.142857 a 1.0714285,1.7857143 0 1 1 -2.142858,0 1.0714285,1.7857143 0 1 1 2.142858,0 z" />
    <path
       sodipodi:type="arc"
       style="color:#000000;fill:#ffffff;fill-opacity:0.74468085;fill-rule:nonzero;stroke:none;stroke-width:1.5;marker:none;visibility:visible;display:inline;overflow:visible;enable-background:accumulate"
       id="path5527-76"
       sodipodi:cx="13.75"
       sodipodi:cy="22.142857"
       sodipodi:rx="1.0714285"
       sodipodi:ry="1.7857143"
       d="m 14.821429,22.142857 a 1.0714285,1.7857143 0 1 1 -2.142858,0 1.0714285,1.7857143 0 1 1 2.142858,0 z"
       transform="matrix(1,0,0,0.97531507,-0.17857116,1005.0425)" />
    <path
       transform="matrix(1,0,0,0.97531507,10.357142,1004.8684)"
       sodipodi:type="arc"
       style="color:#000000;fill:#ffffff;fill-opacity:0.74468085;fill-rule:nonzero;stroke:none;stroke-width:1.5;marker:none;visibility:visible;display:inline;overflow:visible;enable-background:accumulate"
       id="path5527-5-1"
       sodipodi:cx="13.75"
       sodipodi:cy="22.142857"
       sodipodi:rx="1.0714285"
       sodipodi:ry="1.7857143"
       d="m 14.821429,22.142857 a 1.0714285,1.7857143 0 1 1 -2.142858,0 1.0714285,1.7857143 0 1 1 2.142858,0 z" />
    <path
       transform="matrix(1,0,0,0.97531507,22.67857,1004.6942)"
       sodipodi:type="arc"
       style="color:#000000;fill:#ffffff;fill-opacity:0.74468085;fill-rule:nonzero;stroke:none;stroke-width:1.5;marker:none;visibility:visible;display:inline;overflow:visible;enable-background:accumulate"
       id="path5527-1-4"
       sodipodi:cx="13.75"
       sodipodi:cy="22.142857"
       sodipodi:rx="1.0714285"
       sodipodi:ry="1.7857143"
       d="m 14.821429,22.142857 a 1.0714285,1.7857143 0 1 1 -2.142858,0 1.0714285,1.7857143 0 1 1 2.142858,0 z" />
    <path
       sodipodi:type="arc"
       style="color:#000000;fill:#ffffff;fill-opacity:0.74468085;fill-rule:nonzero;stroke:none;stroke-width:1.5;marker:none;visibility:visible;display:inline;overflow:visible;enable-background:accumulate"
       id="path5527-11-3"
       sodipodi:cx="13.75"
       sodipodi:cy="22.142857"
       sodipodi:rx="1.0714285"
       sodipodi:ry="1.7857143"
       d="m 14.821429,22.142857 a 1.0714285,1.7857143 0 1 1 -2.142858,0 1.0714285,1.7857143 0 1 1 2.142858,0 z"
       transform="matrix(1,0,0,0.97531507,5.1785718,1010.4415)" />
    <path
       transform="matrix(1,0,0,0.97531507,15.714285,1010.2675)"
       sodipodi:type="arc"
       style="color:#000000;fill:#ffffff;fill-opacity:0.74468085;fill-rule:nonzero;stroke:none;stroke-width:1.5;marker:none;visibility:visible;display:inline;overflow:visible;enable-background:accumulate"
       id="path5527-5-5-2"
       sodipodi:cx="13.75"
       sodipodi:cy="22.142857"
       sodipodi:rx="1.0714285"
       sodipodi:ry="1.7857143"
       d="m 14.821429,22.142857 a 1.0714285,1.7857143 0 1 1 -2.142858,0 1.0714285,1.7857143 0 1 1 2.142858,0 z" />
    <path
       transform="matrix(1,0,0,0.97531507,28.035712,1010.0933)"
       sodipodi:type="arc"
       style="color:#000000;fill:#ffffff;fill-opacity:0.74468085;fill-rule:nonzero;stroke:none;stroke-width:1.5;marker:none;visibility:visible;display:inline;overflow:visible;enable-background:accumulate"
       id="path5527-1-2-2"
       sodipodi:cx="13.75"
       sodipodi:cy="22.142857"
       sodipodi:rx="1.0714285"
       sodipodi:ry="1.7857143"
       d="m 14.821429,22.142857 a 1.0714285,1.7857143 0 1 1 -2.142858,0 1.0714285,1.7857143 0 1 1 2.142858,0 z" />
    <path
       transform="matrix(1,0,0,0.97531507,10.535714,1015.6665)"
       sodipodi:type="arc"
       style="color:#000000;fill:#ffffff;fill-opacity:0.74468085;fill-rule:nonzero;stroke:none;stroke-width:1.5;marker:none;visibility:visible;display:inline;overflow:visible;enable-background:accumulate"
       id="path5527-5-8"
       sodipodi:cx="13.75"
       sodipodi:cy="22.142857"
       sodipodi:rx="1.0714285"
       sodipodi:ry="1.7857143"
       d="m 14.821429,22.142857 a 1.0714285,1.7857143 0 1 1 -2.142858,0 1.0714285,1.7857143 0 1 1 2.142858,0 z" />
    <path
       transform="matrix(1,0,0,0.97531507,22.857142,1015.4924)"
       sodipodi:type="arc"
       style="color:#000000;fill:#ffffff;fill-opacity:0.74468085;fill-rule:nonzero;stroke:none;stroke-width:1.5;marker:none;visibility:visible;display:inline;overflow:visible;enable-background:accumulate"
       id="path5527-1-5"
       sodipodi:cx="13.75"
       sodipodi:cy="22.142857"
       sodipodi:rx="1.0714285"
       sodipodi:ry="1.7857143"
       d="m 14.821429,22.142857 a 1.0714285,1.7857143 0 1 1 -2.142858,0 1.0714285,1.7857143 0 1 1 2.142858,0 z" />
    <path
       transform="matrix(1,0,0,0.97531507,15.892857,1021.0656)"
       sodipodi:type="arc"
       style="color:#000000;fill:#ffffff;fill-opacity:0.74468085;fill-rule:nonzero;stroke:none;stroke-width:1.5;marker:none;visibility:visible;display:inline;overflow:visible;enable-background:accumulate"
       id="path5527-5-5-1"
       sodipodi:cx="13.75"
       sodipodi:cy="22.142857"
       sodipodi:rx="1.0714285"
       sodipodi:ry="1.7857143"
       d="m 14.821429,22.142857 a 1.0714285,1.7857143 0 1 1 -2.142858,0 1.0714285,1.7857143 0 1 1 2.142858,0 z" />
    <path
       sodipodi:type="arc"
       style="color:#000000;fill:#ffffff;fill-opacity:0.74468085;fill-rule:nonzero;stroke:none;stroke-width:1.5;marker:none;visibility:visible;display:inline;overflow:visible;enable-background:accumulate"
       id="path5527-76-5"
       sodipodi:cx="13.75"
       sodipodi:cy="22.142857"
       sodipodi:rx="1.0714285"
       sodipodi:ry="1.7857143"
       d="m 14.821429,22.142857 a 1.0714285,1.7857143 0 1 1 -2.142858,0 1.0714285,1.7857143 0 1 1 2.142858,0 z"
       transform="matrix(1,0,0,0.97531507,0.8928572,1015.7659)" />
    <path
       sodipodi:type="arc"
       style="color:#000000;fill:#ffffff;fill-opacity:0.74468085;fill-rule:nonzero;stroke:none;stroke-width:1.5;marker:none;visibility:visible;display:inline;overflow:visible;enable-background:accumulate"
       id="path5527-76-53"
       sodipodi:cx="13.75"
       sodipodi:cy="22.142857"
       sodipodi:rx="1.0714285"
       sodipodi:ry="1.7857143"
       d="m 14.821429,22.142857 a 1.0714285,1.7857143 0 1 1 -2.142858,0 1.0714285,1.7857143 0 1 1 2.142858,0 z"
       transform="matrix(1,0,0,0.97531507,6.7857143,1022.3731)" />
    <path
       sodipodi:type="arc"
       style="color:#000000;fill:#ffffff;fill-opacity:0.74468085;fill-rule:nonzero;stroke:none;stroke-width:1.5;marker:none;visibility:visible;display:inline;overflow:visible;enable-background:accumulate"
       id="path5527-76-3"
       sodipodi:cx="13.75"
       sodipodi:cy="22.142857"
       sodipodi:rx="1.0714285"
       sodipodi:ry="1.7857143"
       d="m 14.821429,22.142857 a 1.0714285,1.7857143 0 1 1 -2.142858,0 1.0714285,1.7857143 0 1 1 2.142858,0 z"
       transform="matrix(1,0,0,0.97531507,25.178572,1023.0873)" />
    <path
       sodipodi:type="arc"
       style="color:#000000;fill:#ffffff;fill-opacity:0.74468085;fill-rule:nonzero;stroke:none;stroke-width:1.5;marker:none;visibility:visible;display:inline;overflow:visible;enable-background:accumulate"
       id="path5527-76-37"
       sodipodi:cx="13.75"
       sodipodi:cy="22.142857"
       sodipodi:rx="1.0714285"
       sodipodi:ry="1.7857143"
       d="m 14.821429,22.142857 a 1.0714285,1.7857143 0 1 1 -2.142858,0 1.0714285,1.7857143 0 1 1 2.142858,0 z"
       transform="matrix(1,0,0,0.97531507,32.857143,1016.3016)" />
    <path
       sodipodi:type="arc"
       style="color:#000000;fill:#ffffff;fill-opacity:0.74468085;fill-rule:nonzero;stroke:none;stroke-width:1.5;marker:none;visibility:visible;display:inline;overflow:visible;enable-background:accumulate"
       id="path5527-76-38"
       sodipodi:cx="13.75"
       sodipodi:cy="22.142857"
       sodipodi:rx="1.0714285"
       sodipodi:ry="1.7857143"
       d="m 14.821429,22.142857 a 1.0714285,1.7857143 0 1 1 -2.142858,0 1.0714285,1.7857143 0 1 1 2.142858,0 z"
       transform="matrix(1,0,0,0.97531507,-7.5,999.33735)" />
    <path
       style="fill:none;stroke:#000000;stroke-width:1.5;stroke-linecap:round;stroke-linejoin:round;stroke-opacity:1;stroke-miterlimit:4;stroke-dasharray:none"
       d="M 39.821429,9.4642856 43.75,3.392857"
       id="path8750"
       inkscape:connector-curvature="0"
       transform="translate(0,992.36218)" />
    <path
       style="fill:none;stroke:#000000;stroke-width:1.5;stroke-linecap:round;stroke-linejoin:round;stroke-opacity:1;stroke-miterlimit:4;stroke-dasharray:none"
       d="m 45,21.428571 5.357143,-3.214285"
       id="path8752"
       inkscape:connector-curvature="0"
       transform="translate(0,992.36218)" />
    <path
       style="fill:none;stroke:#000000;stroke-width:1.5;stroke-linecap:round;stroke-linejoin:round;stroke-opacity:1;stroke-miterlimit:4;stroke-dasharray:none"
       d="m 50.714286,33.392857 6.071428,0.535714"
       id="path8754"
       inkscape:connector-curvature="0"
       transform="translate(0,992.36218)" />
  </g>
</svg>
