<?xml version="1.0" encoding="UTF-8" standalone="no"?>
<!-- Created with Inkscape (http://www.inkscape.org/) -->

<svg
   xmlns:dc="http://purl.org/dc/elements/1.1/"
   xmlns:cc="http://creativecommons.org/ns#"
   xmlns:rdf="http://www.w3.org/1999/02/22-rdf-syntax-ns#"
   xmlns:svg="http://www.w3.org/2000/svg"
   xmlns="http://www.w3.org/2000/svg"
   xmlns:sodipodi="http://sodipodi.sourceforge.net/DTD/sodipodi-0.dtd"
   xmlns:inkscape="http://www.inkscape.org/namespaces/inkscape"
   width="60"
   height="60"
   id="svg4969"
   version="1.1"
   inkscape:version="0.48.5 r10040"
   sodipodi:docname="strawberry.svg">
  <defs
     id="defs4971" />
  <sodipodi:namedview
     id="base"
     pagecolor="#ffffff"
     bordercolor="#666666"
     borderopacity="1.0"
     inkscape:pageopacity="0.0"
     inkscape:pageshadow="2"
     inkscape:zoom="5.6"
     inkscape:cx="-15.190103"
     inkscape:cy="29.019832"
     inkscape:document-units="px"
     inkscape:current-layer="layer1"
     showgrid="false"
     inkscape:window-width="1119"
     inkscape:window-height="765"
     inkscape:window-x="2003"
     inkscape:window-y="185"
     inkscape:window-maximized="0" />
  <metadata
     id="metadata4974">
    <rdf:RDF>
      <cc:Work
         rdf:about="">
        <dc:format>image/svg+xml</dc:format>
        <dc:type
           rdf:resource="http://purl.org/dc/dcmitype/StillImage" />
        <dc:title />
      </cc:Work>
    </rdf:RDF>
  </metadata>
  <g
     inkscape:label="Layer 1"
     inkscape:groupmode="layer"
     id="layer1"
     transform="translate(0,-992.36218)">
    <path
       style="fill:none;stroke:#4e3303;stroke-width:4.9000001;stroke-linecap:round;stroke-linejoin:round;stroke-miterlimit:4;stroke-opacity:1;stroke-dasharray:none"
       d="m 29.168155,1002.6976 c 0.126269,-6.28077 2.020305,-7.51229 2.020305,-7.51229"
       id="path5487"
       inkscape:connector-curvature="0"
       sodipodi:nodetypes="cc" />
    <path
       style="fill:#f74343;fill-opacity:1;stroke:#000000;stroke-width:1.5;stroke-linecap:round;stroke-linejoin:round;stroke-miterlimit:4;stroke-opacity:1;stroke-dasharray:none"
       d="m 29.168154,1000.604 c -10.73287,-0.2463 -23.3916093,5.2088 -25.380082,10.0985 -3.82109107,9.3961 6.56858,40.2072 26.516505,40.2707 19.575267,0.062 29.546962,-31.4038 26.642773,-41.0096 -1.825207,-6.0371 -17.67767,-9.6059 -27.779196,-9.3596 z"
       id="path4977"
       inkscape:connector-curvature="0"
       sodipodi:nodetypes="csssc" />
    <path
       style="fill:none;stroke:#ffffff;stroke-width:5;stroke-linecap:round;stroke-linejoin:round;stroke-miterlimit:4;stroke-opacity:0.41489366;stroke-dasharray:none"
       d="m 9.0318645,1023.224 c -3.5428039,-11.433 5.3623435,-15.2082 12.3671165,-17.777"
       id="path3759"
       inkscape:connector-curvature="0"
       sodipodi:nodetypes="cc" />
    <path
       style="fill:#15c216;fill-opacity:1;stroke:#000000;stroke-width:1.50000000000000000;stroke-linecap:round;stroke-linejoin:round;stroke-miterlimit:4;stroke-opacity:0.70212761000000001;stroke-dasharray:none"
       d="m 45.945533,1002.9193 5.712746,8.6698 -11.764688,-4.0516 -1.019126,7.8571 -8.730513,-7.1983 -7.045686,7.266 -2.355784,-7.6354 -10.969001,3.0357 5.086658,-7.4507 c 8.92895,-2.7141 22.493074,-2.7034 31.085394,-0.4926 z"
       id="path5489"
       inkscape:connector-curvature="0"
       sodipodi:nodetypes="cccccccccc" />
    <path
       style="fill:none;stroke:#000000;stroke-width:5;stroke-linecap:round;stroke-linejoin:round;stroke-miterlimit:4;stroke-opacity:0.26595746;stroke-dasharray:none"
       d="m 25.218351,1045.7289 c 11.169425,1.1449 21.961711,-6.9007 27.789218,-29.7264"
       id="path3761"
       inkscape:connector-curvature="0"
       sodipodi:nodetypes="cc" />
    <path
       sodipodi:type="arc"
       style="color:#000000;fill:#ffffff;fill-opacity:0.74468085;fill-rule:nonzero;stroke:none;stroke-width:1.5;marker:none;visibility:visible;display:inline;overflow:visible;enable-background:accumulate"
       id="path5527"
       sodipodi:cx="13.75"
       sodipodi:cy="22.142857"
       sodipodi:rx="1.0714285"
       sodipodi:ry="1.7857143"
       d="m 14.821429,22.142857 c 0,0.986222 -0.479695,1.785714 -1.071429,1.785714 -0.591734,0 -1.071429,-0.799492 -1.071429,-1.785714 0,-0.986223 0.479695,-1.785715 1.071429,-1.785715 0.591734,0 1.071429,0.799492 1.071429,1.785715 z"
       transform="matrix(1,0,0,0.97531507,-0.35714286,994.33148)" />
    <path
       transform="matrix(1,0,0,0.97531507,10.178571,994.15732)"
       sodipodi:type="arc"
       style="color:#000000;fill:#ffffff;fill-opacity:0.74468085;fill-rule:nonzero;stroke:none;stroke-width:1.5;marker:none;visibility:visible;display:inline;overflow:visible;enable-background:accumulate"
       id="path5527-5"
       sodipodi:cx="13.75"
       sodipodi:cy="22.142857"
       sodipodi:rx="1.0714285"
       sodipodi:ry="1.7857143"
       d="m 14.821429,22.142857 c 0,0.986222 -0.479695,1.785714 -1.071429,1.785714 -0.591734,0 -1.071429,-0.799492 -1.071429,-1.785714 0,-0.986223 0.479695,-1.785715 1.071429,-1.785715 0.591734,0 1.071429,0.799492 1.071429,1.785715 z" />
    <path
       transform="matrix(1,0,0,0.97531507,22.5,993.98315)"
       sodipodi:type="arc"
       style="color:#000000;fill:#ffffff;fill-opacity:0.74468085;fill-rule:nonzero;stroke:none;stroke-width:1.5;marker:none;visibility:visible;display:inline;overflow:visible;enable-background:accumulate"
       id="path5527-1"
       sodipodi:cx="13.75"
       sodipodi:cy="22.142857"
       sodipodi:rx="1.0714285"
       sodipodi:ry="1.7857143"
       d="m 14.821429,22.142857 c 0,0.986222 -0.479695,1.785714 -1.071429,1.785714 -0.591734,0 -1.071429,-0.799492 -1.071429,-1.785714 0,-0.986223 0.479695,-1.785715 1.071429,-1.785715 0.591734,0 1.071429,0.799492 1.071429,1.785715 z" />
    <path
       transform="matrix(1,0,0,0.97531507,33.571429,994.15732)"
       sodipodi:type="arc"
       style="color:#000000;fill:#ffffff;fill-opacity:0.74468085;fill-rule:nonzero;stroke:none;stroke-width:1.5;marker:none;visibility:visible;display:inline;overflow:visible;enable-background:accumulate"
       id="path5527-7"
       sodipodi:cx="13.75"
       sodipodi:cy="22.142857"
       sodipodi:rx="1.0714285"
       sodipodi:ry="1.7857143"
       d="m 14.821429,22.142857 c 0,0.986222 -0.479695,1.785714 -1.071429,1.785714 -0.591734,0 -1.071429,-0.799492 -1.071429,-1.785714 0,-0.986223 0.479695,-1.785715 1.071429,-1.785715 0.591734,0 1.071429,0.799492 1.071429,1.785715 z" />
    <path
       sodipodi:type="arc"
       style="color:#000000;fill:#ffffff;fill-opacity:0.74468085;fill-rule:nonzero;stroke:none;stroke-width:1.5;marker:none;visibility:visible;display:inline;overflow:visible;enable-background:accumulate"
       id="path5527-11"
       sodipodi:cx="13.75"
       sodipodi:cy="22.142857"
       sodipodi:rx="1.0714285"
       sodipodi:ry="1.7857143"
       d="m 14.821429,22.142857 c 0,0.986222 -0.479695,1.785714 -1.071429,1.785714 -0.591734,0 -1.071429,-0.799492 -1.071429,-1.785714 0,-0.986223 0.479695,-1.785715 1.071429,-1.785715 0.591734,0 1.071429,0.799492 1.071429,1.785715 z"
       transform="matrix(1,0,0,0.97531507,5.0000005,999.73054)" />
    <path
       transform="matrix(1,0,0,0.97531507,15.535714,999.55638)"
       sodipodi:type="arc"
       style="color:#000000;fill:#ffffff;fill-opacity:0.74468085;fill-rule:nonzero;stroke:none;stroke-width:1.5;marker:none;visibility:visible;display:inline;overflow:visible;enable-background:accumulate"
       id="path5527-5-5"
       sodipodi:cx="13.75"
       sodipodi:cy="22.142857"
       sodipodi:rx="1.0714285"
       sodipodi:ry="1.7857143"
       d="m 14.821429,22.142857 c 0,0.986222 -0.479695,1.785714 -1.071429,1.785714 -0.591734,0 -1.071429,-0.799492 -1.071429,-1.785714 0,-0.986223 0.479695,-1.785715 1.071429,-1.785715 0.591734,0 1.071429,0.799492 1.071429,1.785715 z" />
    <path
       transform="matrix(1,0,0,0.97531507,27.857142,999.38222)"
       sodipodi:type="arc"
       style="color:#000000;fill:#ffffff;fill-opacity:0.74468085;fill-rule:nonzero;stroke:none;stroke-width:1.5;marker:none;visibility:visible;display:inline;overflow:visible;enable-background:accumulate"
       id="path5527-1-2"
       sodipodi:cx="13.75"
       sodipodi:cy="22.142857"
       sodipodi:rx="1.0714285"
       sodipodi:ry="1.7857143"
       d="m 14.821429,22.142857 c 0,0.986222 -0.479695,1.785714 -1.071429,1.785714 -0.591734,0 -1.071429,-0.799492 -1.071429,-1.785714 0,-0.986223 0.479695,-1.785715 1.071429,-1.785715 0.591734,0 1.071429,0.799492 1.071429,1.785715 z" />
    <path
       sodipodi:type="arc"
       style="color:#000000;fill:#ffffff;fill-opacity:0.74468085;fill-rule:nonzero;stroke:none;stroke-width:1.5;marker:none;visibility:visible;display:inline;overflow:visible;enable-background:accumulate"
       id="path5527-76"
       sodipodi:cx="13.75"
       sodipodi:cy="22.142857"
       sodipodi:rx="1.0714285"
       sodipodi:ry="1.7857143"
       d="m 14.821429,22.142857 c 0,0.986222 -0.479695,1.785714 -1.071429,1.785714 -0.591734,0 -1.071429,-0.799492 -1.071429,-1.785714 0,-0.986223 0.479695,-1.785715 1.071429,-1.785715 0.591734,0 1.071429,0.799492 1.071429,1.785715 z"
       transform="matrix(1,0,0,0.97531507,-0.17857116,1005.0425)" />
    <path
       transform="matrix(1,0,0,0.97531507,10.357142,1004.8684)"
       sodipodi:type="arc"
       style="color:#000000;fill:#ffffff;fill-opacity:0.74468085;fill-rule:nonzero;stroke:none;stroke-width:1.5;marker:none;visibility:visible;display:inline;overflow:visible;enable-background:accumulate"
       id="path5527-5-1"
       sodipodi:cx="13.75"
       sodipodi:cy="22.142857"
       sodipodi:rx="1.0714285"
       sodipodi:ry="1.7857143"
       d="m 14.821429,22.142857 c 0,0.986222 -0.479695,1.785714 -1.071429,1.785714 -0.591734,0 -1.071429,-0.799492 -1.071429,-1.785714 0,-0.986223 0.479695,-1.785715 1.071429,-1.785715 0.591734,0 1.071429,0.799492 1.071429,1.785715 z" />
    <path
       transform="matrix(1,0,0,0.97531507,22.67857,1004.6942)"
       sodipodi:type="arc"
       style="color:#000000;fill:#ffffff;fill-opacity:0.74468085;fill-rule:nonzero;stroke:none;stroke-width:1.5;marker:none;visibility:visible;display:inline;overflow:visible;enable-background:accumulate"
       id="path5527-1-4"
       sodipodi:cx="13.75"
       sodipodi:cy="22.142857"
       sodipodi:rx="1.0714285"
       sodipodi:ry="1.7857143"
       d="m 14.821429,22.142857 c 0,0.986222 -0.479695,1.785714 -1.071429,1.785714 -0.591734,0 -1.071429,-0.799492 -1.071429,-1.785714 0,-0.986223 0.479695,-1.785715 1.071429,-1.785715 0.591734,0 1.071429,0.799492 1.071429,1.785715 z" />
    <path
       transform="matrix(1,0,0,0.97531507,33.749999,1004.8684)"
       sodipodi:type="arc"
       style="color:#000000;fill:#ffffff;fill-opacity:0.74468085;fill-rule:nonzero;stroke:none;stroke-width:1.5;marker:none;visibility:visible;display:inline;overflow:visible;enable-background:accumulate"
       id="path5527-7-2"
       sodipodi:cx="13.75"
       sodipodi:cy="22.142857"
       sodipodi:rx="1.0714285"
       sodipodi:ry="1.7857143"
       d="m 14.821429,22.142857 c 0,0.986222 -0.479695,1.785714 -1.071429,1.785714 -0.591734,0 -1.071429,-0.799492 -1.071429,-1.785714 0,-0.986223 0.479695,-1.785715 1.071429,-1.785715 0.591734,0 1.071429,0.799492 1.071429,1.785715 z" />
    <path
       sodipodi:type="arc"
       style="color:#000000;fill:#ffffff;fill-opacity:0.74468085;fill-rule:nonzero;stroke:none;stroke-width:1.5;marker:none;visibility:visible;display:inline;overflow:visible;enable-background:accumulate"
       id="path5527-11-3"
       sodipodi:cx="13.75"
       sodipodi:cy="22.142857"
       sodipodi:rx="1.0714285"
       sodipodi:ry="1.7857143"
       d="m 14.821429,22.142857 c 0,0.986222 -0.479695,1.785714 -1.071429,1.785714 -0.591734,0 -1.071429,-0.799492 -1.071429,-1.785714 0,-0.986223 0.479695,-1.785715 1.071429,-1.785715 0.591734,0 1.071429,0.799492 1.071429,1.785715 z"
       transform="matrix(1,0,0,0.97531507,5.1785718,1010.4415)" />
    <path
       transform="matrix(1,0,0,0.97531507,15.714285,1010.2675)"
       sodipodi:type="arc"
       style="color:#000000;fill:#ffffff;fill-opacity:0.74468085;fill-rule:nonzero;stroke:none;stroke-width:1.5;marker:none;visibility:visible;display:inline;overflow:visible;enable-background:accumulate"
       id="path5527-5-5-2"
       sodipodi:cx="13.75"
       sodipodi:cy="22.142857"
       sodipodi:rx="1.0714285"
       sodipodi:ry="1.7857143"
       d="m 14.821429,22.142857 c 0,0.986222 -0.479695,1.785714 -1.071429,1.785714 -0.591734,0 -1.071429,-0.799492 -1.071429,-1.785714 0,-0.986223 0.479695,-1.785715 1.071429,-1.785715 0.591734,0 1.071429,0.799492 1.071429,1.785715 z" />
    <path
       transform="matrix(1,0,0,0.97531507,28.035712,1010.0933)"
       sodipodi:type="arc"
       style="color:#000000;fill:#ffffff;fill-opacity:0.74468085;fill-rule:nonzero;stroke:none;stroke-width:1.5;marker:none;visibility:visible;display:inline;overflow:visible;enable-background:accumulate"
       id="path5527-1-2-2"
       sodipodi:cx="13.75"
       sodipodi:cy="22.142857"
       sodipodi:rx="1.0714285"
       sodipodi:ry="1.7857143"
       d="m 14.821429,22.142857 c 0,0.986222 -0.479695,1.785714 -1.071429,1.785714 -0.591734,0 -1.071429,-0.799492 -1.071429,-1.785714 0,-0.986223 0.479695,-1.785715 1.071429,-1.785715 0.591734,0 1.071429,0.799492 1.071429,1.785715 z" />
    <path
       transform="matrix(1,0,0,0.97531507,10.535714,1015.6665)"
       sodipodi:type="arc"
       style="color:#000000;fill:#ffffff;fill-opacity:0.74468085;fill-rule:nonzero;stroke:none;stroke-width:1.5;marker:none;visibility:visible;display:inline;overflow:visible;enable-background:accumulate"
       id="path5527-5-8"
       sodipodi:cx="13.75"
       sodipodi:cy="22.142857"
       sodipodi:rx="1.0714285"
       sodipodi:ry="1.7857143"
       d="m 14.821429,22.142857 c 0,0.986222 -0.479695,1.785714 -1.071429,1.785714 -0.591734,0 -1.071429,-0.799492 -1.071429,-1.785714 0,-0.986223 0.479695,-1.785715 1.071429,-1.785715 0.591734,0 1.071429,0.799492 1.071429,1.785715 z" />
    <path
       transform="matrix(1,0,0,0.97531507,22.857142,1015.4924)"
       sodipodi:type="arc"
       style="color:#000000;fill:#ffffff;fill-opacity:0.74468085;fill-rule:nonzero;stroke:none;stroke-width:1.5;marker:none;visibility:visible;display:inline;overflow:visible;enable-background:accumulate"
       id="path5527-1-5"
       sodipodi:cx="13.75"
       sodipodi:cy="22.142857"
       sodipodi:rx="1.0714285"
       sodipodi:ry="1.7857143"
       d="m 14.821429,22.142857 c 0,0.986222 -0.479695,1.785714 -1.071429,1.785714 -0.591734,0 -1.071429,-0.799492 -1.071429,-1.785714 0,-0.986223 0.479695,-1.785715 1.071429,-1.785715 0.591734,0 1.071429,0.799492 1.071429,1.785715 z" />
    <path
       transform="matrix(1,0,0,0.97531507,15.892857,1021.0656)"
       sodipodi:type="arc"
       style="color:#000000;fill:#ffffff;fill-opacity:0.74468085;fill-rule:nonzero;stroke:none;stroke-width:1.5;marker:none;visibility:visible;display:inline;overflow:visible;enable-background:accumulate"
       id="path5527-5-5-1"
       sodipodi:cx="13.75"
       sodipodi:cy="22.142857"
       sodipodi:rx="1.0714285"
       sodipodi:ry="1.7857143"
       d="m 14.821429,22.142857 c 0,0.986222 -0.479695,1.785714 -1.071429,1.785714 -0.591734,0 -1.071429,-0.799492 -1.071429,-1.785714 0,-0.986223 0.479695,-1.785715 1.071429,-1.785715 0.591734,0 1.071429,0.799492 1.071429,1.785715 z" />
    <path
       sodipodi:type="arc"
       style="color:#000000;fill:#ffffff;fill-opacity:0.74468085;fill-rule:nonzero;stroke:none;stroke-width:1.5;marker:none;visibility:visible;display:inline;overflow:visible;enable-background:accumulate"
       id="path5527-76-5"
       sodipodi:cx="13.75"
       sodipodi:cy="22.142857"
       sodipodi:rx="1.0714285"
       sodipodi:ry="1.7857143"
       d="m 14.821429,22.142857 c 0,0.986222 -0.479695,1.785714 -1.071429,1.785714 -0.591734,0 -1.071429,-0.799492 -1.071429,-1.785714 0,-0.986223 0.479695,-1.785715 1.071429,-1.785715 0.591734,0 1.071429,0.799492 1.071429,1.785715 z"
       transform="matrix(1,0,0,0.97531507,0.8928572,1015.7659)" />
    <path
       sodipodi:type="arc"
       style="color:#000000;fill:#ffffff;fill-opacity:0.74468085;fill-rule:nonzero;stroke:none;stroke-width:1.5;marker:none;visibility:visible;display:inline;overflow:visible;enable-background:accumulate"
       id="path5527-76-53"
       sodipodi:cx="13.75"
       sodipodi:cy="22.142857"
       sodipodi:rx="1.0714285"
       sodipodi:ry="1.7857143"
       d="m 14.821429,22.142857 c 0,0.986222 -0.479695,1.785714 -1.071429,1.785714 -0.591734,0 -1.071429,-0.799492 -1.071429,-1.785714 0,-0.986223 0.479695,-1.785715 1.071429,-1.785715 0.591734,0 1.071429,0.799492 1.071429,1.785715 z"
       transform="matrix(1,0,0,0.97531507,6.7857143,1022.3731)" />
    <path
       sodipodi:type="arc"
       style="color:#000000;fill:#ffffff;fill-opacity:0.74468085;fill-rule:nonzero;stroke:none;stroke-width:1.5;marker:none;visibility:visible;display:inline;overflow:visible;enable-background:accumulate"
       id="path5527-76-3"
       sodipodi:cx="13.75"
       sodipodi:cy="22.142857"
       sodipodi:rx="1.0714285"
       sodipodi:ry="1.7857143"
       d="m 14.821429,22.142857 c 0,0.986222 -0.479695,1.785714 -1.071429,1.785714 -0.591734,0 -1.071429,-0.799492 -1.071429,-1.785714 0,-0.986223 0.479695,-1.785715 1.071429,-1.785715 0.591734,0 1.071429,0.799492 1.071429,1.785715 z"
       transform="matrix(1,0,0,0.97531507,25.178572,1023.0873)" />
    <path
       sodipodi:type="arc"
       style="color:#000000;fill:#ffffff;fill-opacity:0.74468085;fill-rule:nonzero;stroke:none;stroke-width:1.5;marker:none;visibility:visible;display:inline;overflow:visible;enable-background:accumulate"
       id="path5527-76-37"
       sodipodi:cx="13.75"
       sodipodi:cy="22.142857"
       sodipodi:rx="1.0714285"
       sodipodi:ry="1.7857143"
       d="m 14.821429,22.142857 c 0,0.986222 -0.479695,1.785714 -1.071429,1.785714 -0.591734,0 -1.071429,-0.799492 -1.071429,-1.785714 0,-0.986223 0.479695,-1.785715 1.071429,-1.785715 0.591734,0 1.071429,0.799492 1.071429,1.785715 z"
       transform="matrix(1,0,0,0.97531507,32.857143,1016.3016)" />
    <path
       sodipodi:type="arc"
       style="color:#000000;fill:#ffffff;fill-opacity:0.74468085;fill-rule:nonzero;stroke:none;stroke-width:1.5;marker:none;visibility:visible;display:inline;overflow:visible;enable-background:accumulate"
       id="path5527-76-4"
       sodipodi:cx="13.75"
       sodipodi:cy="22.142857"
       sodipodi:rx="1.0714285"
       sodipodi:ry="1.7857143"
       d="m 14.821429,22.142857 c 0,0.986222 -0.479695,1.785714 -1.071429,1.785714 -0.591734,0 -1.071429,-0.799492 -1.071429,-1.785714 0,-0.986223 0.479695,-1.785715 1.071429,-1.785715 0.591734,0 1.071429,0.799492 1.071429,1.785715 z"
       transform="matrix(1,0,0,0.97531507,39.642857,999.51592)" />
    <path
       sodipodi:type="arc"
       style="color:#000000;fill:#ffffff;fill-opacity:0.74468085;fill-rule:nonzero;stroke:none;stroke-width:1.5;marker:none;visibility:visible;display:inline;overflow:visible;enable-background:accumulate"
       id="path5527-76-38"
       sodipodi:cx="13.75"
       sodipodi:cy="22.142857"
       sodipodi:rx="1.0714285"
       sodipodi:ry="1.7857143"
       d="m 14.821429,22.142857 c 0,0.986222 -0.479695,1.785714 -1.071429,1.785714 -0.591734,0 -1.071429,-0.799492 -1.071429,-1.785714 0,-0.986223 0.479695,-1.785715 1.071429,-1.785715 0.591734,0 1.071429,0.799492 1.071429,1.785715 z"
       transform="matrix(1,0,0,0.97531507,-7.5,999.33735)" />
  </g>
</svg>
