<?xml version="1.0" encoding="UTF-8" standalone="no"?>
<svg xml:space="preserve" xmlns="http://www.w3.org/2000/svg" xmlns:dc="http://purl.org/dc/elements/1.1/" xmlns:rdf="http://www.w3.org/1999/02/22-rdf-syntax-ns#" version="1.1" viewBox="0 0 1000 845.92" xmlns:cc="http://creativecommons.org/ns#"><metadata><rdf:RDF><cc:Work rdf:about=""><dc:format>image/svg+xml</dc:format><dc:type rdf:resource="http://purl.org/dc/dcmitype/StillImage"/><dc:title/></cc:Work></rdf:RDF></metadata><defs><clipPath id="a" clipPathUnits="userSpaceOnUse"><path d="m29.089 522.02h74.482v62.977h-74.482v-62.977z"/></clipPath></defs><g transform="matrix(1.25 0 0 -1.25 -35.887 1498)"><g transform="matrix(10.733 0 0 10.733 -283.33 -5080.9)"><g clip-path="url(#a)"><g transform="translate(40.519 531.15)"><path d="m0 0c-0.06-1.376 0.458-2.646 1.539-3.774 1.652-1.727 4.679-3.14 8.751-4.088 3.514-0.817 7.718-1.268 11.839-1.268h0.151c5.002 0.015 12.222 0.559 18.21 3.062 4.265 1.783 6.56 3.985 6.873 6.524 0.224 1.819-0.257 3.432-2.482 4.493 0 0-0.184 0.019-0.287-0.163-0.438-0.772-0.867-1.471-1.492-2.284-0.234-0.303 0.041-0.519 0.041-0.519 0.799-0.618 0.897-1.456 0.232-2.253-0.589-0.705-1.434-1.688-4.953-3.084-2.901-1.152-8.018-2.529-15.916-2.551h-0.154c-9.189 0-16.111 2.213-18.2 4.399-0.437 0.458-0.65 0.901-0.631 1.317 0.056 1.31 1.875 2.037 5.122 2.049h0.056c0.878 0 1.756-0.059 2.627-0.163 0.652-0.08 1.279-0.18 1.883-0.293 1.392-0.267 2.745-0.631 4.017-1.041v0.003c1.833-0.6 3.263-1.241 4.222-1.646 0.55-0.233 0.914-0.387 1.115-0.447 0.317-0.097 0.62-0.136 0.898-0.118l0.016 0.001c0.774 0.053 1.374 0.572 1.528 1.322 0.135 0.652-0.064 1.361-0.816 1.71-1.98 0.919-5.511 2.397-9.679 3.349-1.167 0.276-2.334 0.494-3.473 0.632l-0.018 0.003 0.001-0.001c-0.877 0.106-1.737 0.165-2.565 0.165h-0.047c-5.043-0.015-8.264-2.06-8.408-5.336m39.874 24.705c-0.026 9.477-1.421 16.675-4.035 22.054-2.188 4.504-5.177 7.088-8.197 7.088-3.446-0.011-4.495-2.83-4.568-4.32-0.058-1.293 0.671-2.734 1.376-4.127 0.545-1.077 1.059-2.095 1.029-2.748-0.007-0.19-0.146-0.71-0.522-0.711-0.354-0.001-1.271 1.485-1.878 2.468-1.412 2.286-3.169 5.132-5.382 5.132-0.716-0.001-3.264-0.392-5.993-5.395-2.285-4.19-3.64-10.097-4.562-19.419 0.015-0.146 0.11-0.421 0.366-0.421h2.775c0.329 0 0.451 0.235 0.467 0.364 0.634 5.373 0.983 8.736 1.716 11.671 1.746 7.003 4.247 8.935 4.93 8.937 0.846 0 1.673-1.373 2.55-2.824 0.125-0.208 0.251-0.417 0.38-0.627 1.138-1.853 2.534-3.829 4.709-3.829 2.225 0.005 3.885 2.257 3.984 4.276 0.097 2.188-0.854 3.816-1.549 5.005-0.398 0.679-0.74 1.267-0.722 1.679 0.028 0.652 0.481 0.79 0.856 0.79 1.277 0 3.422-1.328 5.263-5.073 2.879-5.855 3.49-13.794 3.496-19.983 0.018-0.133 0.141-0.386 0.47-0.386h2.64c0.286 0 0.387 0.255 0.401 0.399m20.696-3.965h0.491v0.331h-1.357v-0.331h0.493v-1.313h0.373zm2.129-1.313h0.353v1.644h-0.385l-0.432-0.696-0.434 0.696h-0.394v-1.644h0.355v1.109l0.453-0.719h0.03l0.454 0.719z" fill="#d91920"/></g></g></g></g></svg>
