<?xml version="1.0" encoding="UTF-8" standalone="no"?>
<svg xmlns:dc="http://purl.org/dc/elements/1.1/" version="1.1" xmlns:cc="http://creativecommons.org/ns#" viewBox="0 0 1000 845.92" xml:space="preserve" xmlns="http://www.w3.org/2000/svg" xmlns:rdf="http://www.w3.org/1999/02/22-rdf-syntax-ns#"><metadata><rdf:RDF><cc:Work rdf:about=""><dc:format>image/svg+xml</dc:format><dc:type rdf:resource="http://purl.org/dc/dcmitype/StillImage"/><dc:title/></cc:Work></rdf:RDF></metadata><defs><clipPath id="a" clipPathUnits="userSpaceOnUse"><path d="m29.089 522.02h74.482v62.977h-74.482v-62.977z"/></clipPath></defs><g transform="matrix(1.25 0 0 -1.25 -35.887 1498)"><g transform="matrix(10.733 0 0 10.733 -283.33 -5080.9)"><g clip-path="url(#a)"><g transform="translate(40.519 531.15)"><path fill="#d91920" d="m0 0c-0.06-1.376 0.458-2.646 1.539-3.774 1.652-1.727 4.679-3.14 8.751-4.088 3.514-0.817 7.718-1.268 11.839-1.268h0.151c5.002 0.015 12.222 0.559 18.21 3.062 4.265 1.783 6.56 3.985 6.873 6.524 0.224 1.819-0.257 3.432-2.482 4.493 0 0-0.184 0.019-0.287-0.163-0.438-0.772-0.867-1.471-1.492-2.284-0.234-0.303 0.041-0.519 0.041-0.519 0.799-0.618 0.897-1.456 0.232-2.253-0.589-0.705-1.434-1.688-4.953-3.084-2.901-1.152-8.018-2.529-15.916-2.551h-0.154c-9.189 0-16.111 2.213-18.2 4.399-0.437 0.458-0.65 0.901-0.631 1.317 0.056 1.31 1.875 2.037 5.122 2.049h0.056c0.878 0 1.756-0.059 2.627-0.163 0.652-0.08 1.279-0.18 1.883-0.293 1.392-0.267 2.745-0.631 4.017-1.041v0.003c1.833-0.6 3.263-1.241 4.222-1.646 0.55-0.233 0.914-0.387 1.115-0.447 0.317-0.097 0.62-0.136 0.898-0.118l0.016 0.001c0.774 0.053 1.374 0.572 1.528 1.322 0.135 0.652-0.064 1.361-0.816 1.71-1.98 0.919-5.511 2.397-9.679 3.349-1.167 0.276-2.334 0.494-3.473 0.632l-0.018 0.003 0.001-0.001c-0.877 0.106-1.737 0.165-2.565 0.165h-0.047c-5.043-0.015-8.264-2.06-8.408-5.336m8.315 12.044s0.03-0.303-0.171-0.303h-0.697c-0.305 0-0.301-0.163-0.301-0.296v-2.691s-0.037-0.28 0.352-0.28h5.96c0.191 0 0.368 0.109 0.368 0.396v2.551c0 0.273-0.014 0.354-0.355 0.354h-0.545c-0.26 0-0.423-0.013-0.423 0.246v2.086c0 0.928 0.32 1.494 0.805 1.979 0.484 0.485 1.417 1.027 2.355 1.107 0.887 0.075 1.284-0.02 1.676-0.057 0.244-0.023 0.381 0.092 0.381 0.287v3.464c0 0.205-0.053 0.405-0.477 0.451-0.424 0.045-2.123-0.179-3.417-1.064-1.121-0.768-1.61-2.047-1.705-2.183-0.096-0.136-0.259-0.191-0.259 0.041v2.578c0 0.259-0.09 0.449-0.396 0.449h-3.969c-0.246 0-0.355-0.007-0.355-0.335v-2.651c0-0.273 0.273-0.273 0.273-0.273s0.313-0.014 0.559-0.014 0.341-0.068 0.341-0.354v-5.488zm14.334 2.72c0 1.692 0.751 3.082 2.503 3.082 1.753 0 2.504-1.431 2.504-3.179s-1.092-2.865-2.579-2.865c-1.486 0-2.428 1.271-2.428 2.962m-5.21 11.928v-2.62c0-0.182 0.093-0.265 0.344-0.265h0.494c0.348 0 0.369-0.103 0.369-0.471v-11.09c0-0.491-0.041-0.505-0.389-0.505h-0.716c-0.38 0-0.43-0.13-0.43-0.457v-2.373c0-0.347 0.143-0.437 0.491-0.437h4.236c0.37 0 0.409 0.15 0.409 0.396v0.757c0 0.245 0.3 0.102 0.46-0.075s0.774-0.969 2.848-1.151c1.696-0.148 3.574 0.305 4.679 1.737 0.847 1.099 1.5 2.156 1.5 4.966 0 2.809-1.309 4.583-2.633 5.388-1.323 0.805-3.085 0.968-4.211 0.667-1.009-0.271-1.908-0.989-2.036-1.144-0.125-0.153-0.368-0.273-0.368-0.014v6.643c0 0.341-0.151 0.436-0.362 0.436h-4.341c-0.32 0-0.344-0.122-0.344-0.388m-18.824-10.06-2.779-0.008c-0.409 0-0.361 0.243-0.293 0.406 0.068 0.164 1.257 3.748 1.339 3.98s0.314 0.382 0.449 0.054c0.135-0.327 1.406-3.818 1.488-4.009 0.081-0.191 0.069-0.423-0.204-0.423m7.819-7.806v2.455c0 0.185-0.178 0.457-0.482 0.457-0.112 0-0.635 0.003-0.73 0.003-0.518 0-0.641 0.477-0.641 0.477l-4.985 13.389s-0.118 0.55-0.597 1.014c-0.478 0.464-1.572 0.459-1.572 0.459h-4.336c-0.236 0-0.409-0.204-0.409-0.387s-0.013-2.218-0.013-2.436c0-0.219 0.112-0.437 0.511-0.437h1.071c0.351 0 0.342-0.257 0.193-0.53-0.151-0.273-4.272-11.155-4.325-11.265-0.157-0.33-0.374-0.284-0.374-0.284h-0.813c-0.362 0-0.341-0.355-0.341-0.355v-2.475s-0.001-0.437 0.423-0.437h6.14c0.396 0 0.405 0.104 0.405 0.382v2.558c0 0.286-0.159 0.327-0.418 0.327h-1.096c-0.328 0-0.42 0.212-0.361 0.411 0.024 0.079 0.379 1.089 0.488 1.375s0.164 0.3 0.478 0.3l4.798 0.009c0.504 0 0.532-0.15 0.6-0.328 0.068-0.177 0.331-0.912 0.394-1.091 0.183-0.521 0.014-0.676-0.205-0.676h-1.077c-0.164 0-0.396-0.085-0.396-0.382v-2.584c0-0.205 0.097-0.301 0.437-0.301h6.928c0.215 0 0.305 0.219 0.305 0.352m33.44 15.879c-0.026 9.477-1.421 16.675-4.035 22.054-2.188 4.504-5.177 7.088-8.197 7.088-3.446-0.011-4.495-2.83-4.568-4.32-0.058-1.293 0.671-2.734 1.376-4.127 0.545-1.077 1.059-2.095 1.029-2.748-0.007-0.19-0.146-0.71-0.522-0.711-0.354-0.001-1.271 1.485-1.878 2.468-1.412 2.286-3.169 5.132-5.382 5.132-0.716-0.001-3.264-0.392-5.993-5.395-2.285-4.19-3.64-10.097-4.562-19.419 0.015-0.146 0.11-0.421 0.366-0.421h2.775c0.329 0 0.451 0.235 0.467 0.364 0.634 5.373 0.983 8.736 1.716 11.671 1.746 7.003 4.247 8.935 4.93 8.937 0.846 0 1.673-1.373 2.55-2.824 0.125-0.208 0.251-0.417 0.38-0.627 1.138-1.853 2.534-3.829 4.709-3.829 2.225 0.005 3.885 2.257 3.984 4.276 0.097 2.188-0.854 3.816-1.549 5.005-0.398 0.679-0.74 1.267-0.722 1.679 0.028 0.652 0.481 0.79 0.856 0.79 1.277 0 3.422-1.328 5.263-5.073 2.879-5.855 3.49-13.794 3.496-19.983 0.018-0.133 0.141-0.386 0.47-0.386h2.64c0.286 0 0.387 0.255 0.401 0.399m6.861-3.546h-6.111c-0.348 0-0.382-0.135-0.382-0.463v-2.414c0-0.264 0.081-0.382 0.395-0.382h0.464c0.204 0 0.45-0.014 0.327-0.341s-1.665-5.224-1.746-5.483c-0.082-0.26-0.691-0.232-0.799 0.04-0.11 0.273-1.378 5.224-1.447 5.47-0.068 0.246-0.043 0.26 0.192 0.26 0.233 0 0.641-0.055 0.641 0.3v2.618c0 0.3-0.034 0.395-0.382 0.395h-5.474c-0.454 0-0.409-0.245-0.409-0.517v-2.401c0-0.307 0.109-0.395 0.382-0.395h0.545c0.208 0 0.382 0.04 0.505-0.328 0.123-0.369 2.537-7.353 2.81-8.225 0.273-0.873 1.141-0.791 1.671-0.791 0.466 0 0.701 0.006 0.619-0.277s-0.449-1.633-0.913-1.988c-0.465-0.354-1.229-0.409-1.747-0.191s-1.1 0.751-1.209 0.839c-0.109 0.087-0.259 0.074-0.396-0.104-0.136-0.177-1.142-1.444-1.432-1.855-0.29-0.41-0.218-0.436 0.041-0.682s1.64-1.608 4.301-1.608c2.836 0 3.875 2.332 4.365 3.622 0.489 1.29 3.92 10.728 4.043 11.165 0.122 0.436 0.259 0.45 0.49 0.45h0.71c0.275 0 0.341 0.122 0.341 0.423v2.468c0 0.3-0.088 0.395-0.395 0.395m1.714 1.504s2.345 5.478-1.146 5.478h-3.018c-0.576 0-0.544-0.567-0.544-0.567s-0.004-2.335-0.004-2.644c0-0.282-0.081-0.623 0.584-0.623h2.309c1.635 0 1.819-1.644 1.819-1.644m12.121-1.923h0.491v0.331h-1.357v-0.331h0.493v-1.313h0.373v1.313zm2.129-1.313h0.353v1.644h-0.385l-0.432-0.696-0.434 0.696h-0.394v-1.644h0.355v1.109l0.453-0.719h0.03l0.454 0.719v-1.109zm-4.264-2.669v3.898c0 0.353-0.195 0.419-0.492 0.419h-1.851c-0.206 0-0.236-0.123-0.236-0.368v-0.614c0-0.195-0.127-0.159-0.357 0.071-0.274 0.273-1.021 1.137-3.102 1.137-2.237 0-3.033-0.746-3.656-1.444-0.622-0.697-1.514-2.36-0.696-4.051 0.819-1.691 3.286-2.039 4.161-2.223 1.036-0.219 2.537-0.764 2.087-1.596s-1.869-0.602-2.687-0.341c-0.819 0.26-1.246 1-1.298 1.19-0.064 0.228-0.305 0.426-0.619 0.426h-2.099c-0.374 0-0.46-0.198-0.46-0.464v-3.836c0-0.256 0.051-0.44 0.338-0.44h2.117c0.28 0 0.328 0.123 0.328 0.317s-0.011 0.42-0.011 0.624c0 0.205 0.118 0.282 0.307 0.092 0.19-0.189 1.264-0.818 2.46-1.006 1.198-0.188 2.774-0.214 3.81 0.362 1.038 0.576 1.865 1.262 2.042 2.653 0.195 1.523-0.354 2.867-2.155 3.492-1.801 0.624-3.527 0.983-4.142 1.334-0.7 0.398-0.827 1.523 0.161 1.797 0.886 0.245 1.647-0.024 2.183-0.333 0.448-0.259 0.676-0.841 0.717-1.086 0.041-0.246 0.072-0.511 0.44-0.511h2.208c0.36 0 0.502 0.142 0.502 0.501"/></g></g></g></g></svg>
