<?xml version="1.0" encoding="UTF-8" standalone="no"?>
<svg version="1.0" width="475.25" viewBox="0 0 475.248 228.092" xml:space="preserve" xmlns="http://www.w3.org/2000/svg" height="228.09">
<path d="m462.84 114.05l-50.04-28.892v20.612h-255.75l49.79-52.611c4.24-3.397 9.79-5.78 15.49-5.912 23.08 0 36.78-0.006 41.82-0.016 3.42 9.741 12.61 16.772 23.52 16.772 13.82 0 25.03-11.208 25.03-25.025 0-13.823-11.21-25.027-25.03-25.027-10.91 0-20.1 7.027-23.52 16.76l-41.33-0.007c-11.2 0-22.94 6.146-30.41 13.351 0.2-0.214 0.42-0.442-0.01 0.004-0.16 0.178-52.84 55.814-52.84 55.814-4.22 3.387-9.77 5.757-15.47 5.897h-28.929c-3.835-19.114-20.713-33.514-40.959-33.514-23.083 0-41.794 18.711-41.794 41.784 0 23.09 18.711 41.8 41.794 41.8 20.25 0 37.128-14.41 40.963-33.54h28.425 0.22 62.87c5.69 0.14 11.22 2.51 15.45 5.91l52.83 55.81c0.42 0.45 0.21 0.22 0 0 7.47 7.21 19.22 13.35 30.42 13.35l39.83-0.01v16.78h50.05v-50.05h-50.05v16.76s-10.49-0.02-40.32-0.02c-5.7-0.13-11.25-2.51-15.49-5.91l-49.81-52.62h193.21v20.65l50.04-28.9z"/>
</svg>
