<?xml version="1.0" encoding="UTF-8" standalone="no"?>
<svg xmlns:cc="http://creativecommons.org/ns#" viewBox="0 0 100 44.171" version="1.1" xmlns:dc="http://purl.org/dc/elements/1.1/" xml:space="preserve" xmlns:rdf="http://www.w3.org/1999/02/22-rdf-syntax-ns#" xmlns="http://www.w3.org/2000/svg"><metadata><rdf:RDF><cc:Work rdf:about=""><dc:format>image/svg+xml</dc:format><dc:type rdf:resource="http://purl.org/dc/dcmitype/StillImage"/><dc:title/></cc:Work></rdf:RDF></metadata><defs><clipPath id="a" clipPathUnits="userSpaceOnUse"><path d="m0 0h595.28v841.89h-595.28v-841.89z"/></clipPath></defs><g transform="matrix(1.25 0 0 -1.25 -483.28 992.93)"><g transform="translate(-17.837 14.269)" clip-path="url(#a)"><rect y="11.145" x="88.487" fill="#fff" width="9.3364" transform="matrix(.8 0 0 -.8 404.46 780.08)" height="5.1559" style="color:#000000"/><path fill="#00aff0" d="m484.38 769c0 2.4288-1.9622 4.3902-4.3894 4.3902-1.2547 0-2.3802-0.52286-3.1783-1.3655-1.8573 1.2908-4.1074 2.047-6.5421 2.047-2.459 0-4.7267-0.7738-6.5966-2.0898-0.84178 0.78052-1.9605 1.2547-3.1959 1.2547-0.91648 0-1.7717-0.2652-2.496-0.71925-1.7155 3.0608-4.9861 5.1271-8.7426 5.1271-3.436 0-6.4615-1.7222-8.2743-4.3466-1.5124 1.5543-3.6273 2.5203-5.9697 2.5203-1.5493 0-2.9936-0.42467-4.2358-1.1615-0.0302 2.9567-2.4288 5.3419-5.3914 5.3419-2.9819 0-5.3973-2.4162-5.3973-5.3914l0.0126-0.20898c-0.57825 0.0856-1.1682 0.13513-1.7708 0.13513-1.7583 0-3.4183-0.38691-4.9122-1.0759-0.84179 0.44901-1.7952 0.7075-2.8157 0.7075-3.2765 0-5.9445-2.6622-5.9445-5.9454 0-1.7398 0.75618-3.295 1.9429-4.3835-0.0311-0.35669-0.0495-0.71925-0.0495-1.0818 0-6.5043 5.2748-11.772 11.779-11.772 2.5262 0 4.8694 0.79898 6.7863 2.1519 1.728-2.3617 4.5136-3.9043 7.6608-3.9043 0.0797 0 0.15359 0.006 0.2266 0.0126 0.9106-2.5757 3.3512-4.4204 6.234-4.4204 2.9148 0 5.3914 1.8934 6.2643 4.5186 1.0029-1.9001 2.9878-3.1909 5.2806-3.1909 2.8652 0 5.2571 2.0226 5.8346 4.715 0.41208-0.0545 0.8359-0.0923 1.2606-0.0923 2.3365 0 4.4573 0.88626 6.0729 2.3306 1.833-1.248 4.052-1.9798 6.4372-1.9798 6.339 0 11.472 5.1396 11.472 11.478 0 0.78136-0.0738 1.5493-0.22744 2.287 1.6718 0.62105 2.8652 2.2249 2.8652 4.1124m-4.6915 1.4385h0.81828s0.006 0 0.62693-1.8128l0.58413 1.8128h0.81072v-2.637h-0.54048s-0.006 0-0.006 1.869l-0.64623-1.869h-0.44901s-0.006 0-0.65126 1.8506v-1.8506h-0.5472v2.637zm-2.459-0.4851v0.4851h2.1578v-0.4851h-0.78639v-2.1519h-0.58413v2.1519z"/></g></g></svg>
