<?xml version="1.0" encoding="UTF-8" standalone="no"?>
<svg xmlns="http://www.w3.org/2000/svg" version="1.1" xmlns:rdf="http://www.w3.org/1999/02/22-rdf-syntax-ns#" xmlns:cc="http://creativecommons.org/ns#" viewBox="0 0 100 44.171" xml:space="preserve" xmlns:dc="http://purl.org/dc/elements/1.1/"><metadata><rdf:RDF><cc:Work rdf:about=""><dc:format>image/svg+xml</dc:format><dc:type rdf:resource="http://purl.org/dc/dcmitype/StillImage"/><dc:title/></cc:Work></rdf:RDF></metadata><defs><clipPath id="a" clipPathUnits="userSpaceOnUse"><path d="m0 0h595.28v841.89h-595.28v-841.89z"/></clipPath></defs><g transform="matrix(1.25 0 0 -1.25 -483.28 992.93)"><g transform="translate(-17.837 14.269)" clip-path="url(#a)"><path d="m5.4346 13.375 15.746-5.2953 4.7379-5.8527 8.9183 7.6642 63.125 1.1148 0.13935 5.574-3.0657 2.9263-4.4592 12.959-27.034 0.97544-3.6231 6.41-9.7544-3.3444-9.0577 4.4592l-13.237-8.22-18.812-1.115-3.066-4.181z" fill="#fff" transform="matrix(.8 0 0 -.8 404.46 780.08)"/><path fill="#00AFF0" d="m467.1 764.49h7.3335c-0.2266 1.9177-1.6592 3.326-3.5224 3.326-2.0965 0-3.3562-1.2908-3.8111-3.326m-11.238-6.2215c2.6621 0.0302 3.3193 2.6982 3.3193 4.647 0 2.4658-1.0885 4.5253-3.3193 4.5555-2.4414 0.0319-3.3571-2.1754-3.3571-4.5555 0-2.1519 0.8057-4.647 3.3571-4.647m28.519 10.733c0 2.4288-1.9622 4.3902-4.3894 4.3902-1.2547 0-2.3802-0.52286-3.1783-1.3655-1.8573 1.2908-4.1074 2.047-6.5421 2.047-2.459 0-4.7267-0.7738-6.5966-2.0898-0.84178 0.78052-1.9605 1.2547-3.1959 1.2547-0.91648 0-1.7717-0.2652-2.496-0.71925-1.7155 3.0608-4.9861 5.1271-8.7426 5.1271-3.436 0-6.4615-1.7222-8.2743-4.3466-1.5124 1.5543-3.6273 2.5203-5.9697 2.5203-1.5493 0-2.9936-0.42467-4.2358-1.1615-0.0302 2.9567-2.4288 5.3419-5.3914 5.3419-2.9819 0-5.3973-2.4162-5.3973-5.3914l0.0126-0.20898c-0.57825 0.0856-1.1682 0.13513-1.7708 0.13513-1.7583 0-3.4183-0.38691-4.9122-1.0759-0.84179 0.44901-1.7952 0.7075-2.8157 0.7075-3.2765 0-5.9445-2.6622-5.9445-5.9454 0-1.7398 0.75618-3.295 1.9429-4.3835-0.0311-0.35669-0.0495-0.71925-0.0495-1.0818 0-6.5043 5.2748-11.772 11.779-11.772 2.5262 0 4.8694 0.79898 6.7863 2.1519 1.728-2.3617 4.5136-3.9043 7.6608-3.9043 0.0797 0 0.15359 0.006 0.2266 0.0126 0.9106-2.5757 3.3512-4.4204 6.234-4.4204 2.9148 0 5.3914 1.8934 6.2643 4.5186 1.0029-1.9001 2.9878-3.1909 5.2806-3.1909 2.8652 0 5.2571 2.0226 5.8346 4.715 0.41208-0.0545 0.8359-0.0923 1.2606-0.0923 2.3365 0 4.4573 0.88626 6.0729 2.3306 1.833-1.248 4.052-1.9798 6.4372-1.9798 6.339 0 11.472 5.1396 11.472 11.478 0 0.78136-0.0738 1.5493-0.22744 2.287 1.6718 0.62105 2.8652 2.2249 2.8652 4.1124m-5.9882-5.1145c0-1.4326-0.43054-1.8011-1.838-1.8011h-9.4552c0-2.2073 1.4318-3.8178 3.8665-3.8178 3.154 0 3.154 2.0654 4.8442 2.0654 1.0029 0 1.7213-0.86108 1.7213-1.6349 0-2.5203-4.0444-3.6944-6.5656-3.6944-4.7578 0-7.1069 2.6185-7.8136 5.5568-0.6328-3.0801-2.6504-5.5568-6.234-5.5568-1.9177 0-3.3495 0.7738-4.1241 2.12h-0.0613v-5.5887c0-1.3764-0.83087-2.0956-2.0906-2.0956-1.2614 0-2.0906 0.71925-2.0906 2.0956v15.591l-4.7032-13.328c-1.0012-2.8644-2.1519-4.3583-4.7888-4.3583-1.8623 0-2.6378 0.91648-2.6378 1.9244 0 1.1196 0.8057 1.6911 1.9253 1.6911h0.42971c0.54132 0 1.1431 0.0235 1.4578 1.3151l-4.3533 12.412c-0.15359 0.449-0.27025 0.78639-0.35585 1.0701-0.099-0.12925-0.20898-0.24591-0.33906-0.38187l-3.0918-3.2396 4.3591-5.8463c0.141-0.19638 0.42971-0.65798 0.42971-1.3462 0-1.0633-0.86025-2.0344-1.979-2.0344-1.0331 0-1.5803 0.51531-1.8934 0.97103l-3.9538 5.5945-1.4628-1.2908v-3.185c0-1.3714-0.83004-2.0898-2.0906-2.0898-1.2664 0-2.0965 0.71841-2.0965 2.0898v1.5434c-0.74946-2.4716-3.5467-3.6332-6.2458-3.6332-3.7809 0-6.934 1.6903-6.934 3.7557 0 0.91564 0.51615 1.7457 1.6903 1.7457 1.8069 0 1.9798-2.5816 5.0717-2.5816 1.488 0 2.4347 0.66385 2.4347 1.5182 0 1.0633-0.91647 1.2354-2.4036 1.6105l-2.4649 0.59672c-2.4347 0.60175-4.3281 1.6106-4.3281 4.4204 0 3.4049 3.3814 4.6713 6.276 4.6713 3.1783 0 6.3935-1.2664 6.3935-3.1842 0-0.97691-0.66386-1.8321-1.7516-1.8321-1.6357 0-1.6911 1.9186-4.3281 1.9186-1.4628 0-2.4095-0.39949-2.4095-1.2908 0-0.97186 0.94669-1.2052 2.2375-1.4888l1.7457-0.40537c2.0109-0.45488 4.3407-1.248 5.0163-3.2396v13.076c0 1.3705 0.83003 2.0898 2.0965 2.0898 1.2606 0 2.0906-0.71925 2.0906-2.0898v-9.5156l4.6411 5.1573c0.43055 0.46076 0.97775 0.80485 1.6047 0.80485 0.68232 0 1.4074-0.44229 1.7582-1.0818 0.33823 0.65211 1.0147 1.0818 1.8011 1.0818 1.1187 0 1.8934-0.6328 2.1452-1.5795l2.6991-9.7749h0.0554l2.5522 9.4854c0.2887 1.0642 0.86024 1.869 2.01 1.869 0.9895 0 1.561-0.49097 1.8632-0.99536 0.25094 0.64539 0.81073 0.99536 1.7146 0.99536 1.2354 0 1.8934-0.69407 1.8934-1.979v-0.65798h0.0613c0.68904 1.7759 2.3793 2.637 4.4078 2.637 2.9878 0 5.6558-1.8749 6.3759-5.7909 0.81073 3.5409 3.5341 5.7909 7.6474 5.7909 4.814 0 7.5676-3.4116 7.5676-6.8543m1.2967 6.553h0.81828s0.006 0 0.62693-1.8128l0.58413 1.8128h0.81072v-2.637h-0.54048s-0.006 0-0.006 1.869l-0.64623-1.869h-0.44901s-0.006 0-0.65126 1.8506v-1.8506h-0.5472v2.637zm-2.459-0.4851v0.4851h2.1578v-0.4851h-0.78639v-2.1519h-0.58413v2.1519h-0.78723z"/></g></g></svg>
