<?xml version="1.0" encoding="UTF-8" standalone="no"?>
<svg width="100%" xmlns="http://www.w3.org/2000/svg" xmlns:xlink="http://www.w3.org/1999/xlink" version="1.1" height="100%" viewBox="0 0 530 45">
<defs>
<linearGradient id="a">
<stop offset="0" stop-color="#fff"/>
<stop offset="1"/>
</linearGradient>
<clipPath id="e" clipPathUnits="userSpaceOnUse">
<rect width="515" x="2.5009" style="color:#000000" ry="10" rx="5" height="25" fill="url(#c)" opacity=".40265" y="1017.4"/>
</clipPath>
<linearGradient id="c" x1="250" y1="1019.9" y2="1039.9" xlink:href="#a" gradientTransform="translate(-8e-7 -.000060917)" gradientUnits="userSpaceOnUse" x2="250"/>
<clipPath id="d" clipPathUnits="userSpaceOnUse">
<rect width="515" x="2.5009" style="color:#000000" ry="10" rx="5" height="25" fill="url(#b)" opacity=".40265" y="10"/>
</clipPath>
<linearGradient id="b" x1="250" y1="1019.9" y2="1039.9" xlink:href="#a" gradientTransform="translate(-8e-7 -1007.4)" gradientUnits="userSpaceOnUse" x2="250"/>
</defs>
<g transform="translate(0 -1007.4)">
<rect width="512.5" style="color:#000000" height="25" x="5" fill="#a8a8a8" y="1017.4"/>
<path d="m467 10v25h50.5v-25z" clip-path="url(#d)" transform="translate(0,1007.4)" fill="#363636"/>
<g clip-path="url(#e)" fill="#cdd11b">
<path d="m477.5 1017.4-10.5 10v10l20.5-20z"/>
<path d="m497.5 1017.4-25 25h10l25-25z"/>
<path d="m517.5 1017.4-25 25h10l15-15z"/>
<path d="m517.5 1037.4-5 5h5z"/>
</g>
<g transform="matrix(1 0 0 1.6667 -45 -686.58)" fill="none" stroke-width=".7746" stroke="#00014e">
<path transform="translate(0 1007.4)" d="m75 30v-15"/>
<path d="m100 1037.4v-15"/>
<path d="m125 1037.4v-15"/>
<path d="m150 1037.4v-15"/>
<path d="m175 1037.4v-15"/>
<path d="m200 1037.4v-15"/>
<path d="m225 1037.4v-15"/>
<path d="m250 1037.4v-15"/>
<path d="m275 1037.4v-15"/>
<path d="m300 1037.4v-15"/>
<path d="m325 1037.4v-15"/>
<path d="m350 1037.4v-15"/>
<path d="m375 1037.4v-15"/>
<path d="m400 1037.4v-15"/>
<path d="m425 1037.4v-15"/>
<path d="m450 1037.4v-15"/>
<path d="m475 1037.4v-15"/>
<path d="m500 1037.4v-15"/>
<path d="m525 1037.4v-15"/>
</g>
</g>
</svg>
