<?xml version="1.0" encoding="UTF-8" standalone="no"?>
<svg xmlns="http://www.w3.org/2000/svg" xmlns:rdf="http://www.w3.org/1999/02/22-rdf-syntax-ns#" xmlns:xlink="http://www.w3.org/1999/xlink" viewBox="0 0 911 331" xmlns:cc="http://creativecommons.org/ns#" version="1.1" xmlns:dc="http://purl.org/dc/elements/1.1/">
<metadata>
<rdf:RDF>
<cc:Work rdf:about="">
<dc:format>image/svg+xml</dc:format>
<dc:type rdf:resource="http://purl.org/dc/dcmitype/StillImage"/>
<dc:title/>
</cc:Work>
</rdf:RDF>
</metadata>
<defs>
<linearGradient id="b" y2="256.11" y1="69.646" gradientTransform="scale(1 .99998)" gradientUnits="userSpaceOnUse" x1="182.9" x2="182.9">
<stop stop-color="#69BE5A" offset="0"/>
<stop stop-color="#5FB356" offset=".0654"/>
<stop stop-color="#2E9648" offset=".3605"/>
<stop stop-color="#0A8D45" offset=".5153"/>
<stop stop-color="#219246" offset=".6269"/>
<stop stop-color="#42A04D" offset=".7969"/>
<stop stop-color="#69BE5B" offset="1"/>
</linearGradient>
<path id="a" d="m182.91 68.497c-51.86 0-94.051 42.183-94.051 94.043 0 20.58 6.652 39.64 17.911 55.14l-11.747 34.93 36.137-11.58c14.86 9.82 32.64 15.55 51.75 15.55 51.85 0 94.04-42.18 94.04-94.04s-42.19-94.043-94.04-94.043zm-26.24 47.773c-1.81-4.36-3.2-4.51-6-4.64-0.96-0.05-2-0.09-3.14-0.09-3.61 0-7.34 1.06-9.6 3.36-2.74 2.81-9.59 9.38-9.59 22.87s9.82 26.53 11.19 28.36 19.16 29.92 46.84 41.39c21.61 8.94 28.02 8.15 32.95 7.07 7.18-1.57 16.18-6.85 18.47-13.25 2.28-6.4 2.28-11.89 1.6-13.03-0.69-1.15-2.52-1.83-5.26-3.21-2.74-1.37-16.23-8-18.74-8.91-2.51-0.92-4.84-0.64-6.77 2.04-2.67 3.69-5.23 7.48-7.36 9.73-1.67 1.77-4.35 2.02-6.66 1.04-3.03-1.3-11.58-4.28-22.05-13.61-8.15-7.27-13.65-16.25-15.25-18.99s-0.15-4.38 1.09-5.87c1.4-1.71 2.7-2.93 4.07-4.53s2.14-2.45 3.05-4.28c0.92-1.83 0.3-3.72-0.39-5.09-0.68-1.37-6.17-14.86-8.45-20.36z"/>
</defs>
<g fill-rule="evenodd">
<path fill="#fff" d="m182.91 50.683c-61.79 0-111.87 50.077-111.87 111.86 0.003 21.14 5.868 40.9 16.054 57.76l-20.188 60.02 61.934-19.84c16.02 8.87 34.45 13.92 54.07 13.92 61.77 0 111.85-50.08 111.85-111.86 0.01-61.78-50.08-111.86-111.85-111.86z"/>
<mask>
<use x="0" y="0" xlink:href="#a" height="331" width="911"/>
</mask>
<use x="0" y="0" xlink:href="#a" height="331" width="911" fill="url(#b)"/>
</g>
</svg>
