<?xml version="1.0" encoding="UTF-8" standalone="no"?>
<svg y="0px" x="0px" xmlns="http://www.w3.org/2000/svg" height="537px" width="595.28px" xml:space="preserve" enable-background="new 0 144.94 595.279 536.996" version="1.1" xmlns:xlink="http://www.w3.org/1999/xlink" xmlns:cc="http://creativecommons.org/ns#" xmlns:rdf="http://www.w3.org/1999/02/22-rdf-syntax-ns#" viewBox="0 144.94 595.279 536.996" xmlns:dc="http://purl.org/dc/elements/1.1/"><metadata><rdf:RDF><cc:Work rdf:about=""><dc:format>image/svg+xml</dc:format><dc:type rdf:resource="http://purl.org/dc/dcmitype/StillImage"/><dc:title/></cc:Work></rdf:RDF></metadata><defs>
<linearGradient id="af" gradientTransform="matrix(2.8704 0 0 2.7863 -599 -394.95)" x1="297.14" gradientUnits="userSpaceOnUse" x2="280.03" y2="281.88" y1="304.07"><stop offset="0" stop-color="#fff"/><stop offset="1" stop-color="#fff" stop-opacity="0"/></linearGradient><linearGradient id="ae" gradientTransform="matrix(-2.8704 0 0 2.7863 1194.4 -394.95)" x1="296.4" gradientUnits="userSpaceOnUse" x2="279.87" y2="282.07" y1="303.79"><stop offset="0" stop-color="#fff"/><stop offset="1" stop-color="#fff" stop-opacity="0"/></linearGradient><linearGradient id="ad" gradientTransform="matrix(2.8704 0 0 2.7863 -599 -394.95)" x1="393.58" gradientUnits="userSpaceOnUse" x2="391.34" y2="239.73" y1="238.52"><stop offset="0" stop-color="#fff"/><stop offset="1" stop-color="#fff" stop-opacity="0"/></linearGradient><linearGradient id="ac" gradientTransform="matrix(1.849 0 0 -1.849 -25.299 1659)" x1="163.44" gradientUnits="userSpaceOnUse" x2="-1.3149" y2="701.31" y1="646.56"><stop offset="0" stop-color="#fff" stop-opacity=".75"/><stop offset="1" stop-color="#fff" stop-opacity="0"/></linearGradient><linearGradient id="ab" gradientTransform="matrix(1.849 0 0 -1.849 -28.85 1660.5)" x1="38.533" gradientUnits="userSpaceOnUse" x2="41.094" y2="695.49" y1="697.6"><stop offset="0" stop-color="#fff"/><stop offset="1" stop-color="#fff" stop-opacity="0"/></linearGradient><linearGradient id="aa" gradientTransform="matrix(-1.849 0 0 -1.849 620.63 1659)" x1="220.12" gradientUnits="userSpaceOnUse" x2="102.36" y2="713.94" y1="793.66"><stop offset="0" stop-color="#fff"/><stop offset="1" stop-color="#fff" stop-opacity="0"/></linearGradient><linearGradient id="z" gradientTransform="matrix(-1.849 0 0 -1.849 620.6 1659)" x1="103.89" gradientUnits="userSpaceOnUse" x2="98.407" y2="726.33" y1="798.38"><stop offset="0" stop-color="#fff"/><stop offset="1" stop-color="#fff" stop-opacity="0"/></linearGradient><linearGradient id="y" gradientTransform="matrix(1.849 0 0 -1.849 -25.163 1659)" x1="219.99" gradientUnits="userSpaceOnUse" x2="102.23" y2="713.94" y1="793.66"><stop offset="0" stop-color="#fff"/><stop offset="1" stop-color="#fff" stop-opacity="0"/></linearGradient><linearGradient id="x" gradientTransform="matrix(1.849 0 0 -1.849 -25.299 1659)" x1="103.76" gradientUnits="userSpaceOnUse" x2="98.277" y2="726.33" y1="798.38"><stop offset="0" stop-color="#fff"/><stop offset="1" stop-color="#fff" stop-opacity="0"/></linearGradient><linearGradient id="w" gradientTransform="matrix(1.849 0 0 -1.849 -25.299 1659)" x1="53.482" gradientUnits="userSpaceOnUse" x2="-5.2678" y2="667.67" y1="667.42"><stop offset="0" stop-color="#fff" stop-opacity=".75"/><stop offset="1" stop-color="#fff" stop-opacity="0"/></linearGradient><linearGradient id="v" gradientTransform="matrix(-1.849 0 0 -1.849 621.34 1659)" x1="163.71" gradientUnits="userSpaceOnUse" x2="-1.2937" y2="701.16" y1="647.16"><stop offset="0" stop-color="#fff" stop-opacity=".75"/><stop offset="1" stop-color="#fff" stop-opacity="0"/></linearGradient><linearGradient id="u" gradientTransform="matrix(-1.849 0 0 -1.849 624.4 1660.5)" x1="38.663" gradientUnits="userSpaceOnUse" x2="41.223" y2="695.49" y1="697.6"><stop offset="0" stop-color="#fff"/><stop offset="1" stop-color="#fff" stop-opacity="0"/></linearGradient><linearGradient id="t" gradientTransform="matrix(2.8704 0 0 2.7863 -599 -394.95)" x1="231.12" gradientUnits="userSpaceOnUse" x2="233.36" y2="239.73" y1="238.52"><stop offset="0" stop-color="#fff"/><stop offset="1" stop-color="#fff" stop-opacity="0"/></linearGradient><linearGradient id="s" gradientTransform="matrix(2.8704 0 0 2.7863 -599 -394.95)" x1="368.51" gradientUnits="userSpaceOnUse" x2="363.68" y2="276.54" y1="283.17"><stop offset="0"/><stop offset="1" stop-opacity="0"/></linearGradient><linearGradient id="r" gradientTransform="matrix(2.8704 0 0 2.7863 -599 -394.95)" x1="407.95" gradientUnits="userSpaceOnUse" x2="376.07" y2="306.65" y1="331.99"><stop offset="0"/><stop offset=".5056" stop-opacity=".1922"/><stop offset=".6912" stop-opacity=".0667"/><stop offset="1" stop-opacity="0"/></linearGradient><linearGradient id="q" gradientTransform="matrix(2.8704 0 0 2.7863 -599 -394.95)" x1="216.83" gradientUnits="userSpaceOnUse" x2="248.71" y2="306.65" y1="331.99"><stop offset="0"/><stop offset=".5056" stop-opacity=".1922"/><stop offset=".6912" stop-opacity=".0667"/><stop offset="1" stop-opacity="0"/></linearGradient><linearGradient id="p" gradientTransform="matrix(1.849 0 0 -1.849 -25.299 1659)" x1="132.65" gradientUnits="userSpaceOnUse" x2="144.15" y2="740.89" y1="841.23"><stop offset="0" stop-color="#fff"/><stop offset="1" stop-color="#fff" stop-opacity="0"/></linearGradient><linearGradient id="o" gradientTransform="matrix(2.8704 0 0 2.7863 -599 -394.95)" x1="310.52" gradientUnits="userSpaceOnUse" x2="308.52" y2="246.44" y1="246.44"><stop offset="0" stop-color="#fff"/><stop offset="1" stop-color="#fff" stop-opacity="0"/></linearGradient><linearGradient id="n" gradientTransform="matrix(2.8704 0 0 2.7863 -599 -394.95)" x1="309.22" gradientUnits="userSpaceOnUse" x2="304.66" y2="247.75" y1="248.34"><stop offset="0"/><stop offset="1" stop-opacity="0"/></linearGradient><linearGradient id="m" gradientTransform="matrix(1.849 0 0 -1.849 -25.299 1659)" x1="237.76" gradientUnits="userSpaceOnUse" x2="235.53" y2="736.03" y1="735.8"><stop offset="0" stop-color="#fff"/><stop offset="1" stop-color="#fff" stop-opacity="0"/></linearGradient><linearGradient id="l" gradientTransform="matrix(1.849 0 0 -1.849 -.1393 1699.9)" x1="91.212" gradientUnits="userSpaceOnUse" x2="97.466" y2="761.59" y1="761.59"><stop offset="0" stop-color="#fff"/><stop offset="1" stop-color="#fff" stop-opacity="0"/></linearGradient><linearGradient id="k" gradientTransform="matrix(2.8704 0 0 2.7863 -599 -394.95)" x1="276.43" gradientUnits="userSpaceOnUse" x2="282.24" y2="250.72" y1="253.19"><stop offset="0"/><stop offset="1" stop-opacity="0"/></linearGradient><linearGradient id="j" gradientTransform="matrix(2.8704 0 0 2.7863 -599 -394.95)" x1="254.14" gradientUnits="userSpaceOnUse" x2="260.42" y2="277.56" y1="286.36"><stop offset="0"/><stop offset="1" stop-opacity="0"/></linearGradient><linearGradient id="i" gradientTransform="matrix(2.8704 0 0 2.7863 -599 -394.95)" x1="367.66" gradientUnits="userSpaceOnUse" x2="367.66" y2="311.7" y1="319.91"><stop offset="0"/><stop offset=".5714" stop-opacity=".2275"/><stop offset="1" stop-opacity="0"/></linearGradient><linearGradient id="h" gradientTransform="matrix(2.8704 0 0 2.7863 -599 -394.95)" x1="257.13" gradientUnits="userSpaceOnUse" x2="257.13" y2="310.31" y1="321.92"><stop offset="0"/><stop offset=".5" stop-opacity=".2118"/><stop offset="1" stop-opacity="0"/></linearGradient><linearGradient id="g" gradientTransform="matrix(2.8704 0 0 2.7863 -599 -394.95)" x1="342.32" gradientUnits="userSpaceOnUse" x2="347.45" y2="263.61" y1="261.26"><stop offset="0"/><stop offset="1" stop-opacity="0"/></linearGradient><linearGradient id="f" gradientTransform="matrix(-1.849 0 0 -1.849 620.55 1659)" x1="132.78" gradientUnits="userSpaceOnUse" x2="144.28" y2="740.89" y1="841.23"><stop offset="0" stop-color="#fff"/><stop offset="1" stop-color="#fff" stop-opacity="0"/></linearGradient><linearGradient id="e" gradientTransform="matrix(1.849 0 0 -1.849 -.1393 1699.9)" x1="163.67" gradientUnits="userSpaceOnUse" x2="167.22" y2="761.58" y1="761.58"><stop offset="0" stop-color="#fff"/><stop offset="1" stop-color="#fff" stop-opacity="0"/></linearGradient><linearGradient id="d" gradientTransform="matrix(1.849 0 0 -1.849 -25.299 1659)" x1="229.17" gradientUnits="userSpaceOnUse" x2="220.67" y2="732.99" y1="729.24"><stop offset="0"/><stop offset="1" stop-opacity="0"/></linearGradient><linearGradient id="c" gradientTransform="matrix(1.849 0 0 -1.849 -25.299 1659)" x1="181.99" gradientUnits="userSpaceOnUse" x2="186.99" y2="737.16" y1="736.41"><stop offset="0"/><stop offset="1" stop-opacity="0"/></linearGradient><linearGradient id="b" gradientTransform="matrix(2.8704 0 0 2.7863 -599 -394.95)" x1="283.98" gradientUnits="userSpaceOnUse" x2="277.03" y2="263.85" y1="260.82"><stop offset="0"/><stop offset="1" stop-opacity="0"/></linearGradient><radialGradient id="a" cy="691.04" gradientTransform="matrix(-.0000094293 1.8662 1.8635 .0000094154 -988.89 90.861)" gradientUnits="userSpaceOnUse" cx="152.46" r="160.72"><stop offset="0" stop-color="#fff"/><stop offset="1" stop-color="#9CAABD"/></radialGradient></defs>
<path fill="#fff" d="m228.74 144.98c-1.805 0.032-3.634 0.12-5.432 0.289-0.524 0.049-1.036 0.112-1.56 0.173-2.905 0.337-5.771 0.869-8.61 1.56-0.207 0.05-0.429 0.063-0.635 0.116-0.347 0.087-0.695 0.196-1.041 0.289-0.978 0.263-1.923 0.562-2.889 0.867-0.523 0.165-1.041 0.342-1.561 0.52-0.246 0.084-0.505 0.144-0.751 0.231-0.733 0.261-1.471 0.523-2.195 0.809-0.602 0.236-1.197 0.498-1.791 0.751-0.43 0.183-0.847 0.386-1.271 0.578-0.267 0.12-0.545 0.224-0.81 0.347-0.588 0.276-1.152 0.574-1.733 0.867-0.738 0.372-1.471 0.756-2.195 1.155-0.46 0.254-0.934 0.486-1.387 0.751-0.155 0.09-0.309 0.197-0.462 0.289-0.676 0.403-1.362 0.844-2.022 1.271-0.688 0.443-1.354 0.917-2.022 1.387-0.284 0.2-0.587 0.374-0.867 0.578-0.178 0.129-0.344 0.273-0.52 0.405-0.868 0.646-1.709 1.33-2.543 2.022-0.792 0.658-1.551 1.323-2.312 2.022-0.857 0.79-1.728 1.585-2.542 2.427-18.795 18.861-26.681 46.419-18.259 72.806 1.144 2.596 2.268 5.203 3.409 7.801-19.521-19.068-48.776-25.503-75.291-15.833-20.032 7.484-36.899 26.478-42.297 46.746-7.219 27.044-0.146 56.561 21.148 74.366 1.817 1.258 3.667 2.498 5.489 3.756-12.021-1.346-24.45 0.444-34.727 5.663-14.706 6.09-28.595 21.486-35.017 36.865-10.009 22.407-6.106 53.189 8.147 72.285 14.168 18.313 33.126 28.199 55.298 27.563l213.39 0.23h29.533-0.007l213.39-0.23c1.386 0.039 2.742 0.043 4.103 0 20.403-0.629 37.912-10.395 51.195-27.563 14.254-19.096 18.156-49.878 8.147-72.285-6.422-15.379-20.31-30.775-35.017-36.865-10.276-5.218-22.705-7.009-34.727-5.663 1.822-1.258 3.672-2.498 5.489-3.756 21.296-17.806 28.367-47.322 21.148-74.366-5.396-20.268-22.265-39.262-42.297-46.746-26.514-9.67-55.77-3.236-75.29 15.833 1.141-2.598 2.265-5.205 3.409-7.801 8.422-26.387 0.535-53.945-18.26-72.806-0.77-0.796-1.561-1.563-2.369-2.312-0.051-0.047-0.122-0.069-0.173-0.116-0.385-0.354-0.763-0.697-1.156-1.04-0.382-0.333-0.766-0.659-1.155-0.982-0.834-0.692-1.675-1.376-2.542-2.022-0.177-0.131-0.343-0.275-0.521-0.405-0.703-0.512-1.415-1.02-2.138-1.502-0.245-0.163-0.505-0.303-0.751-0.462-0.661-0.428-1.347-0.868-2.022-1.271-0.322-0.191-0.657-0.392-0.982-0.578-0.632-0.362-1.264-0.699-1.907-1.04-0.385-0.204-0.767-0.382-1.155-0.578-0.581-0.293-1.145-0.591-1.733-0.867-0.459-0.214-0.924-0.432-1.387-0.635-0.535-0.236-1.077-0.472-1.618-0.693-0.536-0.219-1.076-0.43-1.618-0.636-0.478-0.182-0.962-0.349-1.444-0.52-0.611-0.217-1.231-0.436-1.849-0.636-0.423-0.137-0.847-0.275-1.271-0.404-0.696-0.21-1.377-0.389-2.08-0.578-0.345-0.093-0.694-0.201-1.04-0.289-0.207-0.052-0.429-0.065-0.636-0.116-2.84-0.691-5.705-1.223-8.609-1.56-0.155-0.018-0.308-0.041-0.463-0.058-1.009-0.111-1.991-0.221-3.004-0.289-0.077-0.005-0.155 0.005-0.231 0-1.091-0.069-2.202-0.096-3.294-0.116-1.164-0.021-2.303-0.036-3.467 0-2.116 0.066-4.257 0.203-6.356 0.462-6.298 0.779-12.451 2.454-18.259 4.969-13.221 5.736-25.708 16.428-33.571 29.469-0.761 1.442-1.509 2.907-2.196 4.392-1.386 2.97-2.592 6.052-3.64 9.188-0.513 1.533-1.028 3.05-1.444 4.623-0.416-1.566-0.876-3.095-1.387-4.623-1.049-3.136-2.255-6.217-3.641-9.188-0.688-1.485-1.436-2.949-2.196-4.392-7.863-13.041-20.351-23.732-33.571-29.469-7.743-3.354-16.151-5.166-24.615-5.432-1.162-0.034-2.3-0.018-3.465 0.002z"/><path fill="url(#a)" enable-background="new    " d="m228.74 144.98c-1.805 0.032-3.634 0.12-5.432 0.289-0.524 0.049-1.036 0.112-1.56 0.173-2.905 0.337-5.771 0.869-8.61 1.56-0.207 0.05-0.429 0.063-0.635 0.116-0.347 0.087-0.695 0.196-1.041 0.289-0.978 0.263-1.923 0.562-2.889 0.867-0.523 0.165-1.041 0.342-1.561 0.52-0.246 0.084-0.505 0.144-0.751 0.231-0.733 0.261-1.471 0.523-2.195 0.809-0.602 0.236-1.197 0.498-1.791 0.751-0.43 0.183-0.847 0.386-1.271 0.578-0.267 0.12-0.545 0.224-0.81 0.347-0.588 0.276-1.152 0.574-1.733 0.867-0.738 0.372-1.471 0.756-2.195 1.155-0.46 0.254-0.934 0.486-1.387 0.751-0.155 0.09-0.309 0.197-0.462 0.289-0.676 0.403-1.362 0.844-2.022 1.271-0.688 0.443-1.354 0.917-2.022 1.387-0.284 0.2-0.587 0.374-0.867 0.578-0.178 0.129-0.344 0.273-0.52 0.405-0.868 0.646-1.709 1.33-2.543 2.022-0.792 0.658-1.551 1.323-2.312 2.022-0.857 0.79-1.728 1.585-2.542 2.427-18.795 18.861-26.681 46.419-18.259 72.806 1.144 2.596 2.268 5.203 3.409 7.801-19.521-19.068-48.776-25.503-75.291-15.833-20.032 7.484-36.899 26.478-42.297 46.746-7.219 27.044-0.146 56.561 21.148 74.366 1.817 1.258 3.667 2.498 5.489 3.756-12.021-1.346-24.45 0.444-34.727 5.663-14.706 6.09-28.595 21.486-35.017 36.865-10.009 22.407-6.106 53.189 8.147 72.285 14.168 18.313 33.126 28.199 55.298 27.563l213.39 0.23h29.533-0.007l213.39-0.23c1.386 0.039 2.742 0.043 4.103 0 20.403-0.629 37.912-10.395 51.195-27.563 14.254-19.096 18.156-49.878 8.147-72.285-6.422-15.379-20.31-30.775-35.017-36.865-10.276-5.218-22.705-7.009-34.727-5.663 1.822-1.258 3.672-2.498 5.489-3.756 21.296-17.806 28.367-47.322 21.148-74.366-5.396-20.268-22.265-39.262-42.297-46.746-26.514-9.67-55.77-3.236-75.29 15.833 1.141-2.598 2.265-5.205 3.409-7.801 8.422-26.387 0.535-53.945-18.26-72.806-0.77-0.796-1.561-1.563-2.369-2.312-0.051-0.047-0.122-0.069-0.173-0.116-0.385-0.354-0.763-0.697-1.156-1.04-0.382-0.333-0.766-0.659-1.155-0.982-0.834-0.692-1.675-1.376-2.542-2.022-0.177-0.131-0.343-0.275-0.521-0.405-0.703-0.512-1.415-1.02-2.138-1.502-0.245-0.163-0.505-0.303-0.751-0.462-0.661-0.428-1.347-0.868-2.022-1.271-0.322-0.191-0.657-0.392-0.982-0.578-0.632-0.362-1.264-0.699-1.907-1.04-0.385-0.204-0.767-0.382-1.155-0.578-0.581-0.293-1.145-0.591-1.733-0.867-0.459-0.214-0.924-0.432-1.387-0.635-0.535-0.236-1.077-0.472-1.618-0.693-0.536-0.219-1.076-0.43-1.618-0.636-0.478-0.182-0.962-0.349-1.444-0.52-0.611-0.217-1.231-0.436-1.849-0.636-0.423-0.137-0.847-0.275-1.271-0.404-0.696-0.21-1.377-0.389-2.08-0.578-0.345-0.093-0.694-0.201-1.04-0.289-0.207-0.052-0.429-0.065-0.636-0.116-2.84-0.691-5.705-1.223-8.609-1.56-0.155-0.018-0.308-0.041-0.463-0.058-1.009-0.111-1.991-0.221-3.004-0.289-0.077-0.005-0.155 0.005-0.231 0-1.091-0.069-2.202-0.096-3.294-0.116-1.164-0.021-2.303-0.036-3.467 0-2.116 0.066-4.257 0.203-6.356 0.462-6.298 0.779-12.451 2.454-18.259 4.969-13.221 5.736-25.708 16.428-33.571 29.469-0.761 1.442-1.509 2.907-2.196 4.392-1.386 2.97-2.592 6.052-3.64 9.188-0.513 1.533-1.028 3.05-1.444 4.623-0.416-1.566-0.876-3.095-1.387-4.623-1.049-3.136-2.255-6.217-3.641-9.188-0.688-1.485-1.436-2.949-2.196-4.392-7.863-13.041-20.351-23.732-33.571-29.469-7.743-3.354-16.151-5.166-24.615-5.432-1.162-0.034-2.3-0.018-3.465 0.002z" opacity=".5"/><path fill="#fff" d="m228.76 144.96c-1.804 0.032-3.634 0.12-5.432 0.289-0.524 0.049-1.036 0.113-1.56 0.173-2.905 0.338-5.771 0.869-8.609 1.56-0.207 0.05-0.43 0.063-0.636 0.116-0.347 0.088-0.695 0.196-1.04 0.289-0.979 0.263-1.924 0.562-2.89 0.867-0.522 0.166-1.041 0.342-1.56 0.52-0.247 0.084-0.506 0.144-0.751 0.231-0.734 0.261-1.472 0.523-2.196 0.809-0.601 0.236-1.197 0.498-1.791 0.751-0.429 0.184-0.847 0.386-1.271 0.578-0.266 0.12-0.544 0.223-0.809 0.347-0.589 0.275-1.153 0.574-1.733 0.867-0.739 0.372-1.472 0.756-2.196 1.156-0.459 0.254-0.934 0.486-1.387 0.751-0.154 0.09-0.308 0.197-0.462 0.289-0.676 0.403-1.361 0.843-2.022 1.271-0.687 0.444-1.353 0.917-2.022 1.387-0.283 0.2-0.586 0.374-0.866 0.578-0.178 0.129-0.344 0.273-0.521 0.405-0.867 0.646-1.708 1.33-2.542 2.022-0.793 0.658-1.552 1.323-2.312 2.022-0.858 0.789-1.729 1.584-2.543 2.427-18.795 18.861-26.681 46.419-18.259 72.806 1.144 2.596 2.268 5.203 3.409 7.801-19.521-19.068-48.776-25.503-75.29-15.833-15.001 5.604-28.208 17.682-36.172 31.896h484.74c-7.964-14.214-21.171-26.292-36.172-31.896-26.514-9.67-55.769-3.236-75.29 15.833 1.142-2.598 2.266-5.205 3.409-7.801 8.422-26.387 0.535-53.945-18.259-72.806-0.77-0.795-1.561-1.563-2.369-2.312-0.051-0.047-0.123-0.069-0.174-0.115-0.385-0.354-0.763-0.697-1.155-1.041-0.382-0.333-0.767-0.659-1.156-0.982-0.834-0.692-1.675-1.376-2.542-2.022-0.177-0.131-0.343-0.275-0.521-0.405-0.703-0.512-1.414-1.02-2.138-1.502-0.244-0.163-0.504-0.303-0.751-0.462-0.661-0.428-1.347-0.868-2.022-1.271-0.322-0.192-0.657-0.392-0.982-0.578-0.632-0.362-1.263-0.699-1.906-1.04-0.386-0.204-0.767-0.382-1.156-0.578-0.58-0.293-1.145-0.591-1.733-0.867-0.458-0.214-0.924-0.432-1.387-0.636-0.535-0.236-1.077-0.472-1.618-0.693-0.535-0.219-1.076-0.43-1.617-0.636-0.479-0.182-0.963-0.349-1.445-0.52-0.61-0.216-1.231-0.436-1.849-0.636-0.423-0.137-0.846-0.275-1.271-0.404-0.696-0.21-1.377-0.389-2.08-0.578-0.345-0.093-0.693-0.201-1.04-0.289-0.206-0.052-0.429-0.065-0.636-0.116-2.839-0.691-5.704-1.222-8.609-1.56-0.154-0.018-0.308-0.041-0.462-0.058-1.01-0.111-1.992-0.221-3.005-0.289-0.076-0.005-0.155 0.005-0.231 0-1.09-0.069-2.201-0.096-3.293-0.115-1.165-0.021-2.304-0.037-3.468 0-2.115 0.066-4.256 0.202-6.355 0.462-6.299 0.779-12.452 2.454-18.26 4.969-13.221 5.736-25.708 16.428-33.571 29.469-0.76 1.442-1.509 2.906-2.195 4.392-1.386 2.97-2.593 6.051-3.641 9.187-0.513 1.533-1.028 3.05-1.444 4.623-0.415-1.566-0.876-3.095-1.387-4.623-1.049-3.136-2.255-6.217-3.641-9.187-0.688-1.485-1.436-2.95-2.195-4.392-7.863-13.042-20.351-23.733-33.571-29.469-7.744-3.354-16.152-5.166-24.615-5.431-1.165-0.037-2.304-0.021-3.469 0z"/><path stroke="#9caabd" stroke-width=".5" fill="none" d="m228.74 144.98c-1.805 0.032-3.634 0.12-5.432 0.289-0.524 0.049-1.036 0.112-1.56 0.173-2.905 0.337-5.771 0.869-8.61 1.56-0.207 0.05-0.429 0.063-0.635 0.116-0.347 0.087-0.695 0.196-1.041 0.289-0.978 0.263-1.923 0.562-2.889 0.867-0.523 0.165-1.041 0.342-1.561 0.52-0.246 0.084-0.505 0.144-0.751 0.231-0.733 0.261-1.471 0.523-2.195 0.809-0.602 0.236-1.197 0.498-1.791 0.751-0.43 0.183-0.847 0.386-1.271 0.578-0.267 0.12-0.545 0.224-0.81 0.347-0.588 0.276-1.152 0.574-1.733 0.867-0.738 0.372-1.471 0.756-2.195 1.155-0.46 0.254-0.934 0.486-1.387 0.751-0.155 0.09-0.309 0.197-0.462 0.289-0.676 0.403-1.362 0.844-2.022 1.271-0.688 0.443-1.354 0.917-2.022 1.387-0.284 0.2-0.587 0.374-0.867 0.578-0.178 0.129-0.344 0.273-0.52 0.405-0.868 0.646-1.709 1.33-2.543 2.022-0.792 0.658-1.551 1.323-2.312 2.022-0.857 0.79-1.728 1.585-2.542 2.427-18.795 18.861-26.681 46.419-18.259 72.806 1.144 2.596 2.268 5.203 3.409 7.801-19.521-19.068-48.776-25.503-75.291-15.833-20.032 7.484-36.899 26.478-42.297 46.746-7.219 27.044-0.146 56.561 21.148 74.366 1.817 1.258 3.667 2.498 5.489 3.756-12.021-1.346-24.45 0.444-34.727 5.663-14.706 6.09-28.595 21.486-35.017 36.865-10.009 22.407-6.106 53.189 8.147 72.285 14.168 18.313 33.126 28.199 55.298 27.563l213.39 0.23h29.533-0.007l213.39-0.23c1.386 0.039 2.742 0.043 4.103 0 20.403-0.629 37.912-10.395 51.195-27.563 14.254-19.096 18.156-49.878 8.147-72.285-6.422-15.379-20.31-30.775-35.017-36.865-10.276-5.218-22.705-7.009-34.727-5.663 1.822-1.258 3.672-2.498 5.489-3.756 21.296-17.806 28.367-47.322 21.148-74.366-5.396-20.268-22.265-39.262-42.297-46.746-26.514-9.67-55.77-2.553-75.29 16.515 1.141-2.597 2.265-5.887 3.409-8.483 8.422-26.387 0.535-53.945-18.26-72.806-0.77-0.796-1.561-1.563-2.369-2.312-0.051-0.047-0.122-0.069-0.173-0.116-0.385-0.354-0.763-0.697-1.156-1.04-0.382-0.333-0.766-0.659-1.155-0.982-0.834-0.692-1.675-1.376-2.542-2.022-0.177-0.131-0.343-0.275-0.521-0.405-0.703-0.512-1.415-1.02-2.138-1.502-0.245-0.163-0.505-0.303-0.751-0.462-0.661-0.428-1.347-0.868-2.022-1.271-0.322-0.191-0.657-0.392-0.982-0.578-0.632-0.362-1.264-0.699-1.907-1.04-0.385-0.204-0.767-0.382-1.155-0.578-0.581-0.293-1.145-0.591-1.733-0.867-0.459-0.214-0.924-0.432-1.387-0.635-0.535-0.236-1.077-0.472-1.618-0.693-0.536-0.219-1.076-0.43-1.618-0.636-0.478-0.182-0.962-0.349-1.444-0.52-0.611-0.217-1.231-0.436-1.849-0.636-0.423-0.137-0.847-0.275-1.271-0.404-0.696-0.21-1.377-0.389-2.08-0.578-0.345-0.093-0.694-0.201-1.04-0.289-0.207-0.052-0.429-0.065-0.636-0.116-2.84-0.691-5.705-1.223-8.609-1.56-0.155-0.018-0.308-0.041-0.463-0.058-1.009-0.111-1.991-0.221-3.004-0.289-0.077-0.005-0.155 0.005-0.231 0-1.091-0.069-2.202-0.096-3.294-0.116-1.164-0.021-2.303-0.036-3.467 0-2.116 0.066-4.257 0.203-6.356 0.462-6.298 0.779-12.451 2.454-18.259 4.969-13.221 5.736-25.708 16.428-33.571 29.469-0.761 1.442-1.509 2.907-2.196 4.392-1.386 2.97-2.592 6.052-3.64 9.188-0.513 1.533-1.028 3.05-1.444 4.623-0.416-1.566-0.876-3.095-1.387-4.623-1.049-3.136-2.255-6.217-3.641-9.188-0.688-1.485-1.436-2.95-2.196-4.392-7.863-13.041-20.351-23.732-33.571-29.469-7.743-3.354-16.151-5.166-24.615-5.432-1.162-0.034-2.3-0.018-3.465 0.002z"/><path stroke="#9caabd" stroke-width=".5" fill="none" d="m229.15 146.71c-1.794 0.032-3.612 0.119-5.398 0.286-0.521 0.049-1.03 0.111-1.551 0.171-2.888 0.334-5.735 0.86-8.557 1.545-0.206 0.05-0.427 0.063-0.632 0.114-0.345 0.087-0.691 0.194-1.034 0.286-0.973 0.26-1.912 0.557-2.871 0.858-0.521 0.164-1.035 0.339-1.551 0.515-0.245 0.083-0.503 0.143-0.747 0.229-0.729 0.258-1.462 0.518-2.183 0.801-0.597 0.234-1.189 0.493-1.78 0.744-0.426 0.182-0.841 0.382-1.263 0.572-0.265 0.119-0.542 0.221-0.805 0.343-0.585 0.273-1.146 0.568-1.723 0.858-0.734 0.368-1.463 0.749-2.183 1.145-0.457 0.251-0.928 0.481-1.378 0.744-0.154 0.089-0.307 0.195-0.46 0.286-0.671 0.399-1.354 0.835-2.01 1.259-0.683 0.439-1.345 0.907-2.01 1.373-0.282 0.198-0.583 0.37-0.862 0.572-0.176 0.128-0.341 0.271-0.517 0.4-0.862 0.64-1.698 1.317-2.526 2.002-0.788 0.651-1.542 1.311-2.298 2.003-0.853 0.781-1.718 1.569-2.526 2.403-18.681 18.677-26.312 50.845-15.033 76.766 1.137 2.571 2.254 5.152 3.389 7.725-20.995-20.929-51.368-28.789-77.721-19.213-19.911 7.411-36.903 26.673-42.268 46.743-6.72 29.51 3.285 56.803 26.044 74.434 1.806 1.246 3.645 2.474 5.456 3.719-11.949-1.333-27.561-1.014-37.774 3.634-14.617 6.758-29.731 21.315-36.113 36.544-9.948 22.188-6.524 52.214 7.643 71.124 14.082 18.133 32.925 27.922 54.961 27.293l212.09 0.229h29.355-0.007l212.09-0.229c1.377 0.039 2.726 0.041 4.077 0 20.279-0.623 37.682-10.295 50.884-27.293 14.168-18.91 18.046-49.391 8.098-71.579-6.382-15.229-21.225-27.566-34.803-35.362-10.215-4.855-28.066-5.694-40.015-4.361 1.812-1.245 4.104-2.473 5.911-3.719 18.891-13.082 33.466-41.74 26.063-73.524-5.364-20.07-22.356-40.243-42.268-47.653-26.353-9.576-57.591 0.534-76.993 19.416 1.134-2.572 2.252-6.291 3.389-8.862 9.809-24.69 3.495-56.867-15.76-75.832-0.765-0.788-1.552-1.547-2.355-2.289-0.05-0.046-0.121-0.068-0.172-0.114-0.383-0.351-0.758-0.69-1.148-1.03-0.38-0.33-0.762-0.652-1.148-0.973-0.829-0.686-1.665-1.362-2.527-2.002-0.175-0.13-0.34-0.272-0.517-0.4-0.699-0.508-1.406-1.01-2.125-1.488-0.243-0.161-0.501-0.3-0.747-0.458-0.656-0.423-1.338-0.86-2.01-1.259-0.32-0.19-0.652-0.388-0.977-0.572-0.628-0.359-1.255-0.692-1.895-1.03-0.384-0.202-0.762-0.378-1.149-0.572-0.576-0.29-1.138-0.585-1.723-0.858-0.455-0.212-0.918-0.428-1.378-0.629-0.532-0.233-1.07-0.467-1.608-0.687-0.532-0.217-1.07-0.426-1.608-0.629-0.475-0.18-0.956-0.345-1.436-0.515-0.607-0.214-1.225-0.432-1.838-0.629-0.42-0.135-0.841-0.273-1.264-0.4-0.691-0.208-1.368-0.385-2.067-0.572-0.343-0.092-0.689-0.199-1.033-0.286-0.206-0.051-0.426-0.064-0.632-0.114-2.822-0.685-5.67-1.21-8.558-1.545-0.153-0.018-0.306-0.04-0.459-0.057-1.003-0.11-1.98-0.219-2.986-0.286-0.076-0.005-0.154 0.005-0.23 0-1.083-0.069-2.188-0.095-3.273-0.114-1.157-0.021-2.289-0.036-3.445 0-2.104 0.065-4.231 0.201-6.317 0.458-6.261 0.771-12.376 2.43-18.148 4.921-13.141 5.68-25.552 20.212-33.367 33.126-0.756 1.428-1.5 2.878-2.183 4.349-1.378 2.941-2.576 5.992-3.618 9.097-0.51 1.518-1.022 3.185-1.436 4.742-0.413-1.551-0.871-3.065-1.379-4.578-1.042-3.105-2.24-6.157-3.618-9.097-0.683-1.471-1.426-2.921-2.182-4.349-7.815-12.914-20.228-27.447-33.368-33.126-7.696-3.322-16.054-5.28-24.465-5.543-1.158-0.038-2.29-0.022-3.447-0.001z"/><path stroke="#9caabd" stroke-width="0.5" fill="#fff" d="m285.38 183.53c6.4278 12.387 10.255 26.536 7.9376 42.098-12.815 71.184-18.783 144.44-32.784 215.04-31.378-67.409-59.928-136.21-89.514-204.45-7.5806-24.135-0.5205-49.312 16.397-66.563 17.112-17.984 45.42-22.889 67.725-13.07 11.899 5.2455 23.16 15.022 30.239 26.95"/><path fill="#ce0014" d="m233.62 156.75c-15.924-0.499-32.102 5.312-43.279 16.873-16.073 16.13-22.804 39.666-15.602 62.232 28.111 63.812 55.243 128.12 85.056 191.14 13.304-66.014 18.97-134.47 31.145-201.02 2.203-14.551-1.462-27.826-7.569-39.408-6.725-11.153-17.411-20.288-28.718-25.193-6.623-2.869-13.796-4.396-21.033-4.623z"/><path stroke="#9caabd" stroke-width=".5" fill="#fff" d="m172.52 264.12 92.259 203.59c-63.13-40.27-127.76-82.25-188.9-124.43-18.939-15.78-25.237-41.93-18.818-65.89 4.799-17.958 19.83-34.742 37.643-41.373 29.248-10.629 62.239 0.652 77.814 28.103"/><path fill="#ff6714" d="m169.16 266.29 86.777 191.5c-59.38-37.87-120.18-77.36-177.68-117.03-17.816-14.84-23.74-39.44-17.703-61.98 4.514-16.893 18.651-32.679 35.405-38.916 27.513-10 58.543 0.612 73.193 26.433"/><path stroke="#9caabd" stroke-width=".5" fill="#fff" d="m12.068 400.44c-9.639 19.668-5.877 46.675 7.852 63.439 13.646 16.074 31.877 24.783 53.231 24.225l205.52 0.166-172.17-116.26c-16.793-10.523-42.379-12.443-60.76-3.938-14.163 5.346-27.495 18.872-33.68 32.371"/><path stroke="#9caabd" stroke-width=".5" fill="#fff" d="m583.67 400.44c9.64 19.668 5.877 46.675-7.852 63.439-13.646 16.074-31.877 24.783-53.23 24.225l-205.53 0.166 172.17-116.26c16.793-10.523 42.378-12.443 60.759-3.938 14.164 5.346 27.496 18.872 33.68 32.371"/><path fill="url(#b)" d="m169.16 266.29 86.777 191.5c-59.38-37.87-120.18-77.36-177.68-117.03-17.816-14.84-23.74-39.44-17.703-61.98 4.514-16.893 18.651-32.679 35.405-38.916 27.513-10 58.543 0.612 73.193 26.433"/><path fill="#fabc13" d="m16.009 401.82c-9.082 18.523-5.537 43.96 7.396 59.748 12.856 15.137 30.033 23.34 50.151 22.814l193.63 0.16-162.2-109.5c-15.826-9.91-39.932-11.71-57.248-3.7-13.345 5.03-25.906 17.77-31.733 30.48"/><path stroke="#9caabd" stroke-width=".5" fill="#fff" d="m362.69 151.66c-7.755 0.243-15.502 1.878-22.598 4.951-12.114 5.254-23.564 15.037-30.771 26.983-5.189 9.837-8.601 23.624-8.661 35.507 0.74 0.087 31.808 0.043 32.504 0 2.751 0.343 3.411 1.001 4.003 2.253-0.2 0.182-1.135 1.439-1.397 1.619-0.615 0.413-1.013 0.487-1.546 0.789-0.581 0.291-1.111 0.491-1.864 0.785-0.698 0.235-1.366 0.48-2.044 0.743-13.845 5.262-21.729 15.034-24.17 23.775l-0.212 0.845c-0.224 0.5-0.215 1.286-0.265 1.883-0.058 0.652-0.065 1.26 0 1.856l0.062 0.681c0.011 0.06-0.012 0.126 0 0.186l0.31 1.918 1.176 7.736 8.482 54.646c0.209 1.527 0.412 3.052 0.619 4.58l17.149 111.58c0.406 2.035 0.753 4.096 1.177 6.127 0.02-0.043 0.042-0.082 0.062-0.125 31.932-67.453 60.97-136.3 91.072-204.6 7.718-24.169 0.506-49.438-16.716-66.714-11.977-12.381-29.311-18.543-46.372-18.008z"/><path fill="#5a1566" d="m361.83 156.75c-7.238 0.227-14.469 1.754-21.091 4.623-11.307 4.905-21.993 14.04-28.718 25.193-4.843 9.185-8.149 19.414-8.205 30.509h30.336c4.099 0.741 8.231 2.686 6.991 5.084-0.008 0.019 0.008 0.04 0 0.058-0.035 0.064-0.072 0.108-0.115 0.173-0.134 0.229-0.329 0.468-0.578 0.693-0.188 0.169-0.391 0.353-0.636 0.52-0.417 0.3-0.896 0.559-1.502 0.867-0.026 0.013-0.031 0.044-0.058 0.058-0.543 0.271-1.203 0.534-1.907 0.809-0.651 0.22-1.274 0.448-1.907 0.693-12.857 4.988-21.82 15.059-25.366 22.419l-0.115 0.231c-0.209 0.467-0.3 1.002-0.347 1.56-0.053 0.609-0.061 1.176 0 1.733l0.058 0.636c0.011 0.056-0.011 0.117 0 0.173l0.289 1.791 1.098 7.223 7.916 50.906v0.115c0.048 0.346 0.068 0.694 0.116 1.04 0.146 1.08 0.315 2.155 0.462 3.236l0.058 0.347c4.356 31.998 8.752 63.987 14.677 95.457 0.025 0.133 0.032 0.271 0.058 0.404l1.214 7.974c0.379 1.9 0.702 3.826 1.098 5.721 0.019-0.039 0.039-0.076 0.058-0.115 29.802-62.979 56.903-127.26 84.998-191.03 7.202-22.566 0.472-46.16-15.602-62.29-11.179-11.558-27.357-17.311-43.28-16.812z"/><path fill="url(#c)" d="m361.81 156.77c-7.237 0.227-14.468 1.754-21.09 4.623-11.307 4.906-21.993 14.04-28.718 25.193-4.844 9.185-8.149 19.414-8.206 30.509h30.336c4.1 0.741 8.232 2.686 6.992 5.085-0.008 0.019 0.007 0.04 0 0.058-0.035 0.065-0.072 0.108-0.116 0.174-0.133 0.229-0.329 0.468-0.577 0.693-0.188 0.169-0.391 0.353-0.636 0.52-0.417 0.3-0.896 0.559-1.503 0.867-0.025 0.013-0.031 0.044-0.058 0.058-0.542 0.271-1.203 0.534-1.906 0.809-0.651 0.22-1.274 0.448-1.907 0.693-12.857 4.988-21.82 15.058-25.366 22.419l-0.115 0.231c-0.21 0.467-0.3 1.002-0.347 1.56-0.053 0.609-0.061 1.176 0 1.733l0.058 0.635c0.011 0.056-0.012 0.118 0 0.174l0.289 1.791 1.098 7.223 7.916 51.022c0.194 1.426 0.385 2.85 0.578 4.276l16.005 104.18c0.38 1.9 0.703 3.826 1.099 5.72 0.019-0.039 0.039-0.076 0.058-0.115 29.802-62.979 56.902-127.26 84.998-191.03 7.202-22.566 0.472-46.159-15.602-62.289-11.179-11.561-27.356-17.315-43.28-16.815z"/><path fill="url(#d)" d="m361.81 156.77c-7.237 0.227-14.468 1.754-21.09 4.623-11.307 4.906-21.993 14.04-28.718 25.193-4.844 9.185-8.149 19.414-8.206 30.509h30.336c4.1 0.741 8.232 2.686 6.992 5.085-0.008 0.019 0.007 0.04 0 0.058-0.035 0.065-0.072 0.108-0.116 0.174-0.133 0.229-0.329 0.468-0.577 0.693-0.188 0.169-0.391 0.353-0.636 0.52-0.417 0.3-0.896 0.559-1.503 0.867-0.025 0.013-0.031 0.044-0.058 0.058-0.542 0.271-1.203 0.534-1.906 0.809-0.651 0.22-1.274 0.448-1.907 0.693-12.857 4.988-21.82 15.058-25.366 22.419l-0.115 0.231c-0.21 0.467-0.3 1.002-0.347 1.56-0.053 0.609-0.061 1.176 0 1.733l0.058 0.635c0.011 0.056-0.012 0.118 0 0.174l0.289 1.791 1.098 7.223 7.916 51.022c0.194 1.426 0.385 2.85 0.578 4.276l16.005 104.18c0.38 1.9 0.703 3.826 1.099 5.72 0.019-0.039 0.039-0.076 0.058-0.115 29.802-62.979 56.902-127.26 84.998-191.03 7.202-22.566 0.472-46.159-15.602-62.289-11.179-11.561-27.356-17.315-43.28-16.815z"/><path fill="url(#e)" d="m361 159.49c-7.084 0.222-14.09 1.7-20.57 4.507-11.065 4.801-21.559 13.757-28.141 24.673-4.368 8.285-7.427 17.444-7.916 27.331h30.856c10.537 2.907 9.425 7.38 0.521 10.921-12.672 3.947-20.38 13.507-26.753 23.979 9.3 57.61 14.96 116.26 26.406 173.06 29.178-61.685 55.752-124.65 83.265-187.1 7.049-22.085 0.476-45.116-15.255-60.902-10.94-11.314-26.829-16.957-42.413-16.468zm-56.627 61.076c0.036 1.129 0.067 2.262 0.174 3.409l-0.058-3.409h-0.116z"/><path fill="url(#f)" enable-background="new    " d="m362.56 159.43c-7.443 0.101-14.863 1.617-21.669 4.565-11.065 4.801-21.501 13.757-28.082 24.673-4.378 8.303-7.424 17.475-7.916 27.389h30.451c14.917 4.708 2.606 10.118-2.196 11.788-2.79 0.979-5.346 2.331-7.742 3.929 41.032 3.133 72.285 0.927 93.029-7.049 2.916-18.197-1.492-35.654-14.562-48.768-9.944-10.286-23.962-15.9-38.136-16.468-1.063-0.044-2.115-0.073-3.177-0.059z" opacity=".5"/><path stroke="#9caabd" stroke-width=".5" fill="#fff" d="m423.98 263.76-92.267 203.95c62.146-40.266 125.34-84.678 187.53-127.21 18.938-15.777 26.627-39.502 20.208-63.466-4.799-17.96-19.831-34.744-37.646-41.375-29.252-10.632-62.245 0.65-77.821 28.103"/><path fill="#10578d" d="m426.24 266.29-86.777 191.82c58.45-37.873 117.88-79.645 176.37-119.65 17.811-14.84 25.042-37.154 19.005-59.694-4.514-16.893-18.651-32.679-35.405-38.916-27.514-10-58.544 0.612-73.193 26.433"/><path fill="#359e35" d="m579.38 401.82c9.082 18.523 5.537 43.96-7.396 59.748-12.856 15.137-30.033 23.34-50.151 22.814l-193.63 0.16 162.21-109.5c15.821-9.911 39.927-11.719 57.244-3.708 13.343 5.035 25.905 17.774 31.731 30.488"/><path fill="url(#g)" d="m426.24 266.29-86.777 191.82c58.45-37.873 117.88-79.645 176.37-119.65 17.811-14.84 25.042-37.154 19.005-59.694-4.514-16.893-18.651-32.679-35.405-38.916-27.514-10-58.544 0.612-73.193 26.433"/><path fill="url(#h)" d="m16.009 401.82c-9.082 18.523-5.537 43.96 7.396 59.748 12.856 15.137 30.033 23.34 50.151 22.814l193.63 0.16-162.2-109.5c-15.826-9.91-39.932-11.71-57.248-3.7-13.345 5.03-25.906 17.77-31.733 30.48"/><path fill="url(#i)" d="m579.38 401.82c9.082 18.523 5.537 43.96-7.396 59.748-12.856 15.137-30.033 23.34-50.151 22.814l-193.63 0.16 162.21-109.5c15.821-9.911 39.927-11.719 57.244-3.708 13.343 5.035 25.905 17.774 31.731 30.488"/><path fill="url(#j)" d="m169.16 266.29 86.777 191.5c-59.38-37.87-120.18-77.36-177.68-117.03-17.816-14.84-23.74-39.44-17.703-61.98 4.514-16.893 18.651-32.679 35.405-38.916 27.513-10 58.543 0.612 73.193 26.433"/><path fill="url(#k)" d="m283.38 186.59c6.106 11.582 9.744 24.811 7.542 39.361-12.176 66.557-17.846 135.05-31.149 201.06-29.813-63.027-56.938-127.35-85.049-191.16-7.203-22.566-0.495-46.106 15.579-62.236 16.258-16.815 43.154-21.401 64.346-12.221 11.306 4.906 22.006 14.047 28.731 25.199"/><path fill="url(#l)" d="m282.21 188.66c5.977 11.335 9.536 24.282 7.381 38.523-11.916 65.139-17.466 132.17-30.485 196.78-29.178-61.684-55.725-124.64-83.237-187.09-7.049-22.085-0.484-45.124 15.247-60.91 15.912-16.457 42.235-20.945 62.976-11.96 11.065 4.8 21.536 13.746 28.118 24.661"/><path fill="url(#m)" d="m361 159.49c-7.084 0.222-14.09 1.7-20.57 4.507-11.065 4.801-21.559 13.757-28.141 24.673-4.368 8.285-7.427 17.444-7.916 27.331h30.856c10.537 2.907 9.425 7.38 0.521 10.921-12.672 3.947-20.38 13.507-26.753 23.979 9.3 57.61 14.96 116.26 26.406 173.06 29.178-61.685 55.752-124.65 83.265-187.1 7.049-22.085 0.476-45.116-15.255-60.902-10.94-11.314-26.829-16.957-42.413-16.468zm-56.627 61.076c0.036 1.129 0.067 2.262 0.174 3.409l-0.058-3.409h-0.116z"/><path fill="url(#n)" d="m283.38 186.59c6.106 11.582 9.744 24.811 7.542 39.361-12.176 66.557-17.846 135.05-31.149 201.06-29.813-63.027-56.938-127.35-85.049-191.16-7.203-22.566-0.495-46.106 15.579-62.236 16.258-16.815 43.154-21.401 64.346-12.221 11.306 4.906 22.006 14.047 28.731 25.199"/><path fill="url(#o)" d="m282.21 188.66c5.977 11.335 9.536 24.282 7.381 38.523-11.916 65.139-17.466 132.17-30.485 196.78-29.178-61.684-55.725-124.64-83.237-187.09-7.049-22.085-0.484-45.124 15.247-60.91 15.912-16.457 42.235-20.945 62.976-11.96 11.065 4.8 21.536 13.746 28.118 24.661"/><path fill="url(#p)" d="m229.26 159.49c-14.175 0.568-28.191 6.182-38.137 16.468-13.068 13.114-17.477 30.571-14.562 48.768 23.9 9.19 61.769 10.731 112.44 5.258h0.116c0.166-0.926 0.293-1.849 0.462-2.773 2.155-14.241-1.419-27.207-7.396-38.541-6.582-10.916-17.018-19.872-28.083-24.673-7.776-3.369-16.34-4.848-24.844-4.507z"/><path fill="url(#q)" d="m16.009 401.82c-9.082 18.523-5.537 43.96 7.396 59.748 12.856 15.137 30.033 23.34 50.151 22.814l193.63 0.16-162.2-109.5c-15.826-9.91-39.932-11.71-57.248-3.7-13.345 5.03-25.906 17.77-31.733 30.48"/><path fill="url(#r)" d="m579.36 401.82c9.082 18.523 5.537 43.96-7.396 59.748-12.856 15.137-30.033 23.34-50.151 22.814l-193.64 0.16 162.21-109.5c15.821-9.911 39.927-11.719 57.244-3.708 13.344 5.034 25.906 17.773 31.732 30.487"/><path fill="url(#s)" d="m426.24 266.29-86.777 191.82c58.45-37.873 117.88-79.645 176.37-119.65 17.811-14.84 25.042-37.154 19.005-59.694-4.514-16.893-18.651-32.679-35.405-38.916-27.514-10-58.544 0.612-73.193 26.433"/><path fill="url(#t)" d="m116.89 238.76c-8.433 0.008-22.01 2.764-29.311 7.437-16.237 9.158-29.445 28.283-23.271 43.354l-2.754-0.008c25.058-0.499 63.407-9.651 81.867 0.999 41.571 33.302 71.257 100.1 98.726 139.16l-75.15-161.47c-11.395-20.91-30.21-29.491-49.422-29.469l-0.676-0.001z"/><path fill="url(#u)" enable-background="new    " d="m525.27 371.16c8.416-0.104 21.39 1.767 26.177 3.555 14.448 6.266 29.971 26.684 28.34 34.262-29.498-9.347-76.149-8.833-105.48 5.404-45.427 23.422-92.091 47.739-131.11 68.01 45.717-31.689 102.38-69.5 151.97-102.97 8.402-5.264 19.281-8.129 30.103-8.263z" opacity="0.69"/><path fill="url(#v)" enable-background="new    " d="m522.21 369.64c8.416-0.104 16.825 1.429 23.979 4.738 14.274 6.787 23.951 16.77 27.54 25.667 0.849 1.729 0.742 5.684 1.359 7.526-30.497-24.538-64.563-14.092-103.84 5.29-45.427 23.422-92.091 47.738-131.11 68.01 45.717-31.689 102.38-69.5 151.97-102.97 8.404-5.265 19.284-8.13 30.105-8.263z" opacity=".75"/><path fill="url(#w)" enable-background="new    " d="m73.589 369.64c-8.416-0.104-16.825 1.429-23.979 4.738-15.293 5.928-33.183 24.994-29.692 33.079 29.498-9.347 75.305-8.833 104.64 5.404 45.427 23.422 92.09 47.738 131.11 68.01-45.717-31.689-102.38-69.5-151.97-102.97-8.404-5.265-19.285-8.13-30.105-8.263z" opacity="0.69"/><path fill="url(#x)" d="m116.75 238.76c-6.403 0.007-20.319 2.087-27.62 6.761-13.621 9.135-18.427 16.99-23.229 34.265-0.856 3.229-1.403 6.485-1.733 9.765l0.289-0.347c25.058-0.499 60.364-9.313 78.825 1.337 41.57 33.302 71.256 100.1 98.725 139.16l-75.16-161.47c-11.394-20.91-30.886-29.491-50.098-29.469z"/><path fill="url(#y)" d="m116.89 238.76c-6.403 0.008-20.319 2.087-27.62 6.761-13.621 9.135-18.427 16.99-23.229 34.265-0.856 3.229-1.403 6.485-1.733 9.765l0.289-0.347c25.058-0.499 60.364-9.313 78.824 1.337 41.571 33.302 71.257 100.1 98.726 139.16l-75.16-161.47c-11.395-20.91-30.887-29.491-50.098-29.469z"/><path fill="url(#z)" d="m478.31 238.76c6.403 0.008 20.319 2.087 27.62 6.761 13.621 9.135 18.427 16.99 23.229 34.265 0.856 3.229 1.403 6.485 1.733 9.765l-0.289-0.347c-25.058-0.499-60.364-9.313-78.825 1.337-41.57 33.302-71.256 100.1-98.725 139.16l75.159-161.47c11.394-20.91 30.887-29.491 50.098-29.469z"/><path fill="url(#aa)" d="m478.34 238.76c6.404 0.008 20.32 2.087 27.62 6.761 13.622 9.135 18.428 16.99 23.229 34.265 0.857 3.229 1.404 6.485 1.733 9.765l-0.289-0.347c-25.057-0.499-60.363-9.313-78.824 1.337-41.571 33.302-71.257 100.1-98.725 139.16l75.159-161.47c11.394-20.91 30.886-29.491 50.097-29.469z"/><path fill="url(#ab)" enable-background="new    " d="m70.039 371.16c-8.417-0.104-21.391 1.767-26.178 3.555-14.448 6.266-29.971 26.684-28.34 34.262 29.498-9.347 76.149-8.833 105.48 5.404 45.426 23.422 92.09 47.739 131.11 68.01-45.718-31.689-102.38-69.5-151.97-102.97-8.402-5.264-19.282-8.129-30.103-8.263z" opacity="0.69"/><path fill="url(#ac)" enable-background="new    " d="m73.589 369.64c-8.416-0.104-16.825 1.429-23.979 4.738-15.293 5.928-33.183 24.994-29.692 33.079 29.498-9.347 75.305-8.833 104.64 5.404 45.427 23.422 92.09 47.738 131.11 68.01-45.717-31.689-102.38-69.5-151.97-102.97-8.404-5.265-19.285-8.13-30.105-8.263z" opacity="0.69"/><path fill="url(#ad)" d="m478.26 238.76c8.432 0.008 22.01 2.764 29.311 7.437 16.236 9.158 29.445 28.283 23.271 43.354l2.754-0.008c-25.058-0.499-63.407-9.651-81.868 0.999-41.571 33.302-71.257 100.1-98.725 139.16l75.159-161.47c11.394-20.91 30.21-29.491 49.421-29.469l0.677-0.001z"/><path fill="url(#ae)" d="m478.24 238.76c6.404 0.008 20.319 2.087 27.62 6.761 13.621 9.135 18.428 16.99 23.229 34.265 0.856 3.229 1.403 6.485 1.733 9.765l-0.289-0.347c-25.058-0.499-60.363-9.313-78.824 1.337-41.571 33.302-71.257 100.1-98.726 139.16l75.159-161.47c11.394-20.91 30.887-29.491 50.098-29.469z"/><path fill="url(#af)" d="m116.89 238.76c-6.403 0.008-20.319 2.087-27.62 6.761-13.621 9.135-18.427 16.99-23.229 34.265-0.856 3.229-1.403 6.485-1.733 9.765l0.289-0.347c25.058-0.499 60.364-9.313 78.824 1.337 41.571 33.302 71.257 100.1 98.726 139.16l-75.16-161.47c-11.395-20.91-30.887-29.491-50.098-29.469z"/>
</svg>
