<?xml version="1.0" encoding="UTF-8" standalone="no"?>
<svg xmlns:dc="http://purl.org/dc/elements/1.1/" viewBox="0 0 236.1482 236.17001" version="1.1" xmlns="http://www.w3.org/2000/svg" width="236.15" xmlns:rdf="http://www.w3.org/1999/02/22-rdf-syntax-ns#" xmlns:cc="http://creativecommons.org/ns#" height="236.17" xml:space="preserve"><metadata><rdf:RDF><cc:Work rdf:about=""><dc:format>image/svg+xml</dc:format><dc:type rdf:resource="http://purl.org/dc/dcmitype/StillImage"/><dc:title/></cc:Work></rdf:RDF></metadata><path fill="#fff" d="m222.16 116.58a102.57 98.571 0 1 1 -205.15 0 102.57 98.571 0 1 1 205.15 0z" transform="translate(-.00090286)" style="color:#000000"/><path d="m118.06 0c-65.233 0-118.06 52.849-118.06 118.08 0 65.15 52.829 118.08 118.07 118.08 65.175 0 118.08-52.936 118.08-118.08 0-65.232-52.91-118.08-118.09-118.08zm0 39.649c43.275 0 78.418 35.112 78.418 78.438 0 43.338-35.142 78.399-78.418 78.399-43.35 0-78.437-35.061-78.437-78.399 0-43.325 35.088-78.438 78.437-78.438z" fill="#e51636"/><path d="m118.08 158.06c22.488 0 40.688-18.225 40.688-40.725 0-22.512-18.2-40.725-40.688-40.725-22.525 0-40.737 18.212-40.737 40.725 0 22.5 18.212 40.725 40.737 40.725" fill="#e51636"/></svg>
