<?xml version="1.0" encoding="UTF-8" standalone="no"?>
<svg version="1.1" xmlns:dc="http://purl.org/dc/elements/1.1/" xmlns:rdf="http://www.w3.org/1999/02/22-rdf-syntax-ns#" xmlns:cc="http://creativecommons.org/ns#" viewBox="0 0 1000 832.86" xmlns="http://www.w3.org/2000/svg">
<defs>
<clipPath id="a" clipPathUnits="userSpaceOnUse">
<path d="m15.75 694h81.833v90h-81.833v-90z"/>
</clipPath>
<clipPath id="b" clipPathUnits="userSpaceOnUse">
<path d="m15.75 694h81.833v90h-81.833v-90z"/>
</clipPath>
</defs>
<metadata>
<rdf:RDF>
<cc:Work rdf:about="">
<dc:format>image/svg+xml</dc:format>
<dc:type rdf:resource="http://purl.org/dc/dcmitype/StillImage"/>
<dc:title/>
</cc:Work>
</rdf:RDF>
</metadata>
<g transform="translate(66.667 88.431)">
<g transform="matrix(6.4589 0 0 -6.4589 -29.912 5194.4)">
<g transform="matrix(2.3897 0 0 2.3897 -72.539 -1012.5)">
<g clip-path="url(#a)">
<g transform="translate(68.727 726.26)">
<path fill="#dd1438" d="m0 0c-0.345-0.719-0.739-1.36-1.171-1.904-0.429-0.543-0.873-0.976-1.319-1.289-0.388-0.275-0.712-0.486-0.978-0.439-0.172 0.043-0.149 0.346-0.128 0.541 0.06 0.558 0.239 1.122 0.531 1.678 0.296 0.568 0.663 1.098 1.088 1.575 0.432 0.475 0.902 0.872 1.398 1.179 0.39 0.242 0.776 0.41 1.153 0.501-0.106-0.644-0.299-1.263-0.574-1.842m4.65 12.63c-1.114 0.176-1.919-0.672-2.272-1.508-0.125-0.293-0.161-0.444-0.281-0.822-0.12-0.372-0.167-0.653-0.259-1.037-0.066-0.276-0.167-0.705-0.208-0.895-0.076-0.347-0.085-0.401-0.183-0.928-0.097-0.521-0.161-0.87-0.23-1.332-0.054-0.351-0.107-0.642-0.161-0.994-0.8-0.188-1.619-0.509-2.433-0.95-0.879-0.476-1.698-1.102-2.435-1.859-0.739-0.755-1.379-1.648-1.899-2.649-0.526-1.014-0.86-2.148-0.992-3.369-0.017-0.15-0.027-0.31-0.033-0.478-0.103 0.09-0.205 0.188-0.286 0.31-0.156 0.233-0.269 0.501-0.345 0.827-0.075 0.32-0.12 0.722-0.117 1.037 0.003 0.347 0.016 0.57 0.041 0.799 0.029 0.262 0.064 0.508 0.109 0.733 0.026 0.146 0.044 0.281 0.062 0.413 0.012 0.087 0.023 0.172 0.038 0.256 0.159 0.977 0.229 1.632 0.133 2.299-0.064 0.442-0.421 1.291-1.315 1.319-0.07 0.002-0.143 0-0.22-0.008-0.602-0.057-1.306-0.387-1.737-0.686-0.574-0.399-1.112-0.897-1.599-1.479-0.207-0.247-0.37-0.47-0.506-0.679 0.086 0.263 0.199 0.526 0.31 0.781 0.069 0.157 0.137 0.314 0.198 0.472 0.007 0.018 0.015 0.038 0.023 0.056 0.146 0.371 0.298 0.753 0.332 1.061 0.029 0.277-0.014 0.503-0.129 0.67-0.095 0.137-0.215 0.241-0.358 0.311-0.139 0.062-0.28 0.093-0.418 0.093-0.098 0.003-0.184 0.001-0.243-0.004-0.345-0.03-0.654-0.137-0.916-0.311-0.23-0.149-0.425-0.309-0.605-0.496-0.178-0.205-0.334-0.418-0.456-0.628-0.19-0.306-0.368-0.724-0.542-1.278-0.162-0.514-0.317-1.088-0.462-1.703-0.142-0.596-0.272-1.211-0.388-1.829-0.114-0.61-0.197-1.146-0.246-1.592-0.058-0.547-0.101-1.078-0.126-1.58-0.028-0.521-0.018-0.996 0.028-1.408 0.05-0.439 0.156-0.797 0.317-1.064 0.202-0.332 0.532-0.486 0.959-0.443 0.008 0 0.015 0.002 0.021 0.002 0.08 0.011 0.358 0.051 0.617 0.141 0.24 0.083 0.604 0.343 0.912 0.827 0.178 0.276 0.359 1.006 0.577 1.931 0.051 0.212 0.097 0.407 0.136 0.562 0.853 3.33 2.092 4.029 2.704 4.157-0.042-0.376-0.085-0.752-0.127-1.127-0.03-0.491-0.065-0.926-0.076-1.442 0.014-0.977 0.111-1.535 0.229-2.02 0.135-0.553 0.386-1.221 0.69-1.571 0.358-0.41 0.703-0.679 1.326-0.642 0.002 0 0.006 0 0.009 0.001h0.006c0.271 0.038 0.408 0.061 0.699 0.183 0.296 0.141 0.434 0.244 0.691 0.493 0.184 0.177 0.295 0.349 0.372 0.519 0.113-0.206 0.256-0.39 0.431-0.548 0.274-0.245 0.667-0.36 1.168-0.344 0.011 0.001 0.023 0.001 0.035 0.002 0.055 0.003 0.175 0.016 0.562 0.068 0.354 0.047 0.783 0.187 1.28 0.411 0.485 0.22 1.038 0.564 1.646 1.02 0.426 0.321 0.866 0.739 1.309 1.245-0.043-0.709-0.078-1.385 0.232-2.313 0.127-0.382 0.293-0.695 0.551-1.048 0.288-0.388 0.727-0.586 1.309-0.591h0.004c0.024 0.002 0.045 0.003 0.068 0.005 0.277 0.046 0.506 0.118 0.699 0.22 0.198 0.104 0.385 0.256 0.555 0.451 0.205 0.235 0.327 0.537 0.367 0.902 0.011 0.11 0.006 0.235-0.019 0.386-0.024 0.146-0.098 0.259-0.175 0.377-0.032 0.046-0.065 0.096-0.098 0.152-0.193 0.337-0.315 0.616-0.371 0.852-0.146 0.617-0.183 1.135-0.155 2.132 0.013 0.476 0.05 0.998 0.088 1.495 0.038 0.487 0.093 0.985 0.15 1.513 0.038 0.342 0.075 0.687 0.113 1.029 0.012 0.123 0.024 0.229 0.037 0.322 0.022-0.001 0.046-0.001 0.07-0.001 0.256-0.003 0.524 0.085 0.791 0.268 0.314 0.219 0.505 0.617 0.567 1.183 0.052 0.483-0.067 0.876-0.355 1.168-0.177 0.175-0.375 0.325-0.587 0.448 0.031 0.183 0.062 0.355 0.085 0.513 0.031 0.203 0.064 0.38 0.098 0.526 0.022 0.102 0.042 0.204 0.063 0.307 0.017 0.088 0.032 0.175 0.051 0.259 0.005 0.019 0.355 1.652 1.055 4.085 0.113 0.395 0.166 0.698 0.193 0.953 0.04 0.373-0.051 1-0.753 1.111m10.041-8.572c0.056-0.227 0.067-0.506 0.034-0.851-0.031-0.322-0.093-0.682-0.183-1.073-0.004-0.015-0.504-1.975-0.702-2.914-0.157-0.747-0.254-1.33-0.367-2.006-0.002-0.014-0.004-0.029-0.008-0.044-0.108-0.66-0.276-2.126-0.375-3.161-0.192-1.999-0.237-2.475-0.786-4.015-0.561-1.575-1.844-2.619-2.443-2.954-1.085-0.606-2.306-0.921-3.633-0.948h-0.011c-0.003 0-0.007 0.001-0.01 0.002-0.063 0.007-0.134 0.012-0.21 0.017-0.143 0.01-0.307 0.021-0.464 0.049-1.394 0.25-2.199 1.135-2.049 2.281 0.079 0.599 0.547 0.964 1.149 0.874 0.565-0.094 1.087-0.14 1.558-0.135 1.447 0.016 2.44 0.495 3.034 1.491 0.619 1.037 0.694 1.719 0.799 2.663 0.013 0.122 0.027 0.248 0.042 0.38 0.058 0.487 0.102 0.938 0.149 1.412-0.234-0.31-0.462-0.571-0.683-0.782-0.447-0.425-0.857-0.75-1.222-0.967-0.437-0.256-0.864-0.406-1.269-0.446-0.004 0-0.009-0.001-0.013-0.001-0.005 0.001-0.01 0.001-0.014 0.001-0.666 0.014-1.179 0.271-1.528 0.763-0.307 0.426-0.543 0.964-0.699 1.598-0.152 0.618-0.232 1.28-0.237 1.97-0.007 0.671 0.017 1.3 0.072 1.87 0.17 1.769 0.535 3.18 1.084 4.186 0.608 1.121 1.382 1.688 2.298 1.667 0.049 0 0.119-0.008 0.249-0.022 0.165-0.023 0.309-0.078 0.436-0.164 0.14-0.09 0.253-0.223 0.346-0.407 0.095-0.191 0.127-0.428 0.1-0.721-0.029-0.298-0.141-0.625-0.343-0.999-0.182-0.346-0.353-0.738-0.509-1.163-0.132-0.364-0.266-0.802-0.399-1.299-0.133-0.485-0.227-1.007-0.279-1.553-0.009-0.087-0.024-0.277-0.04-0.583-0.017-0.246-0.015-0.502 0.007-0.786 0.019-0.243 0.066-0.451 0.138-0.618 0.04-0.098 0.168-0.165 0.208-0.173 0.054-0.012 0.112-0.024 0.186-0.024 0.128 0 0.26 0.042 0.391 0.124 0.1 0.064 0.344 0.273 0.631 0.659 0.201 0.272 0.587 0.841 0.905 1.596 0.149 0.352 0.34 0.928 0.541 1.539 0.227 0.687 0.625 2.036 0.854 2.601 0.148 0.361 0.31 0.678 0.497 0.97 0.169 0.262 0.446 0.534 0.662 0.675 0.322 0.213 0.679 0.324 1.079 0.304 0.091-0.005 0.188-0.027 0.315-0.059 0.17-0.044 0.319-0.136 0.442-0.271 0.119-0.127 0.208-0.308 0.27-0.553m0.7 0.29c-0.039 0.161-0.068 0.361 0.01 0.63 0.035 0.12 0.147 0.399 0.213 0.662 0.078 0.347 0.109 0.693 0.025 1.016-0.074 0.284-0.092 0.696-0.013 0.932 0.121 0.359 0.453 0.55 0.688 0.59 0.357 0.06 0.713 0.037 1.014-0.111 0.329-0.162 0.609-0.554 0.68-0.838 0.149-0.599 0.082-1.078 0.012-1.46-0.082-0.457-0.272-0.873-0.476-1.214-0.145-0.243-0.388-0.453-0.596-0.603-0.256-0.183-0.676-0.252-1.117-0.092-0.202 0.074-0.403 0.341-0.44 0.488m7.345-8.465c-0.106-0.766-0.418-1.403-0.925-1.895-0.473-0.459-1.024-0.825-1.635-1.087-0.603-0.255-1.223-0.424-1.843-0.502-0.561-0.068-1.051-0.083-1.454-0.043-0.038 0.003-0.075 0.008-0.109 0.012-0.976 0.125-1.641 0.435-2.029 0.958-0.386 0.522-0.542 1.062-0.466 1.608 0.09 0.648 0.429 0.963 0.698 1.111 0.326 0.183 0.609 0.261 0.864 0.239 0.009-0.001 0.019-0.002 0.03-0.005 0.255-0.029 0.55-0.16 0.899-0.398 0.235-0.163 0.549-0.271 0.934-0.322 0.52-0.067 0.913-0.039 1.167 0.087 0.183 0.087 0.289 0.184 0.301 0.273 0.006 0.04 0.017 0.122-0.123 0.255-0.171 0.163-0.405 0.322-0.695 0.469-0.307 0.155-0.644 0.316-1.032 0.492-0.399 0.177-0.768 0.388-1.099 0.623-0.358 0.252-0.648 0.55-0.863 0.883-0.245 0.385-0.332 0.84-0.26 1.353 0.081 0.587 0.341 1.192 0.767 1.797 0.406 0.575 0.91 1.097 1.501 1.548 0.587 0.447 1.242 0.802 1.946 1.053 0.728 0.256 1.451 0.337 2.147 0.233 0.67-0.099 1.187-0.404 1.534-0.902 0.346-0.504 0.46-1.198 0.341-2.061-0.059-0.417-0.209-0.797-0.45-1.134-0.202-0.281-0.59-0.602-1.3-0.489-0.483 0.072-0.677 0.333-0.754 0.541-0.068 0.17-0.123 0.356-0.163 0.548-0.028 0.127-0.035 0.292-0.118 0.378-0.05 0.044-0.147 0.077-0.268 0.068 0 0-0.11 0.006-0.349-0.063-0.211-0.065-0.422-0.157-0.624-0.274-0.21-0.121-0.401-0.273-0.566-0.45-0.131-0.141-0.21-0.289-0.236-0.439-0.012-0.073-0.019-0.198 0.136-0.347 0.192-0.182 0.439-0.365 0.738-0.545 0.3-0.183 0.645-0.367 1.054-0.562 0.431-0.205 0.82-0.439 1.154-0.696 0.357-0.271 0.651-0.587 0.874-0.934 0.255-0.399 0.349-0.864 0.276-1.381m-42.058 3.206c-0.332-0.514-0.664-0.915-1.017-1.223-0.394-0.345-0.688-0.531-1.064-0.738-0.164-0.09-0.299-0.141-0.413-0.172 0.056 0.308 0.16 0.721 0.304 1.064 0.212 0.509 0.485 1.011 0.81 1.492 0.384 0.567 0.695 0.939 1.012 1.205 0.22 0.186 0.413 0.297 0.558 0.321 0.323 0.056 0.339-0.362 0.338-0.445-0.002-0.503-0.286-1.124-0.528-1.504m2.139 4.224c-0.26 0.178-0.553 0.281-0.869 0.306-0.27 0.018-0.601 0.004-0.845-0.036-0.006 0-0.012-0.001-0.018-0.002-0.525-0.089-1.075-0.274-1.464-0.49-0.399-0.217-0.788-0.496-1.157-0.832-0.311-0.284-0.669-0.628-0.975-1.037-0.2-0.265-0.579-0.8-0.888-1.396-0.416-0.802-0.778-1.735-1.106-2.848-0.205 0-0.653 0.091-0.858 0.131-0.145 0.029-0.195 0.038-0.226 0.04-0.033 0-0.06 0.001-0.087 0.002 0.949 3.948 1.611 6.184 2.095 7.733 0.263 0.756 0.526 1.512 0.788 2.268 0.206 0.428 0.331 1.014 0.311 1.285-0.054 0.792-0.6 1.592-1.572 1.377-1.031-0.228-1.638-1.541-2.458-4.434-0.691-2.435-1.083-3.987-1.644-6.618-0.243-1.199-0.486-2.398-0.726-3.597-0.037-0.18-0.073-0.361-0.108-0.54-0.082-0.374-0.125-0.481-0.257-0.511-0.066-0.015-0.149 0.031-0.187 0.184-0.086 0.335-0.158 1.029-0.209 1.919-0.065 2.05-0.236 4.174-0.162 6.862 0.043 1.536 0.041 1.783-0.06 2.176-0.194 0.761-1.137 1.213-2.164 0.953-1.028-0.261-1.33-1.415-1.923-2.989-0.4-1.066-1.007-2.961-1.61-4.8-0.565-1.904-1.23-4.236-1.23-4.236-0.042-0.162-0.082-0.323-0.124-0.484-0.041-0.161-0.082-0.322-0.123-0.484-0.147-0.394-0.198-0.472-0.296-0.5-0.1-0.027-0.156 0.054-0.186 0.174-0.062 0.239-0.052 1.767-0.033 2.573 0.038 1.642 0.198 3.425 0.351 5.02 0.088 1.151 0.383 3.164 0.472 4.315 0.031 0.347 0.062 0.712 0.07 0.959 0.019 0.733-0.031 1.087-0.351 1.45-0.501 0.441-1.112 0.407-1.817 0.247-1.135-0.258-1.985-0.961-1.884-1.347 0.016-0.058 0.075-0.114 0.133-0.199 0.172-0.249 0.262-0.389 0.331-0.641 0.082-0.297 0.121-0.708 0.119-1.371-0.025-0.593-0.05-1.188-0.075-1.783-0.143-1.794-0.359-5.026-0.417-7.237-0.051-1.909 0.014-3.234 0.164-5.122 0.076-0.949 0.277-1.724 0.385-2.141 0.192-0.746 0.571-1.575 1.227-1.741 0.487-0.123 0.863-0.094 1.504 0.074 0.589 0.153 1.481 0.716 1.678 1.603 0.25 0.988 0.502 1.976 0.753 2.964 0.224 1.055 0.731 2.924 1.163 4.546 0.249 0.965 0.573 2.045 0.747 2.605 0.104 0.283 0.155 0.36 0.221 0.377 0.067 0.017 0.107-0.005 0.122-0.066 0.008-0.031 0.017-0.076 0.02-0.18 0.003-0.067 0.005-0.133 0.007-0.2 0.005-0.202 0.01-0.405 0.014-0.608 0.049-1.984 0.429-5.398 0.786-6.795 0.233-0.913 0.299-2.041 1.707-2.248 0.65-0.098 1.191 0.086 1.191 0.086 1.038 0.316 1.307 0.914 1.54 1.935 0.152 0.646 0.621 2.426 0.878 3.572 0.078 0.348 0.154 0.683 0.229 1.011 0.19-0.061 1.055-0.196 1.416-0.227 0.004-0.109 0.009-0.166 0.021-0.236 0.009-0.067 0.018-0.126 0.026-0.183 0.013-0.088 0.023-0.168 0.042-0.256 0.025-0.116 0.05-0.231 0.075-0.345 0.15-0.6 0.384-1.111 0.693-1.52 0.299-0.399 0.609-0.67 1.038-0.905 0.407-0.222 1.104-0.319 1.765-0.251 0.094 0.003 0.18 0.01 0.27 0.027 0.018 0.002 0.035 0.005 0.052 0.01 0.045 0.008 0.089 0.017 0.135 0.026 0 0.001 0.001 0.003 0.001 0.006 0.098 0.022 0.218 0.051 0.31 0.078 1.038 0.298 2.374 1.22 2.855 2.571 0.188 0.532 0.083 0.865-0.038 1.051-0.132 0.202-0.35 0.325-0.571 0.321-0.075-0.002-0.148-0.009-0.219-0.021-0.452-0.072-0.794-0.328-1.095-0.554-0.272-0.204-0.529-0.397-0.849-0.459-0.365-0.07-0.614-0.061-0.825 0.043-0.235 0.116-0.315 0.202-0.41 0.442-0.057 0.143-0.088 0.306-0.115 0.519 0.589 0.151 1.271 0.451 1.819 0.807 0.627 0.407 1.199 0.905 1.699 1.479 0.497 0.574 0.913 1.209 1.237 1.891 0.309 0.652 0.534 1.516 0.587 2.257 0.042 0.568-0.019 1.038-0.178 1.398-0.164 0.354-0.379 0.623-0.638 0.797"/>
</g>
</g>
<g clip-path="url(#b)">
<g transform="translate(45.204 744.57)">
<path fill="#fff" d="m0 0c0.267-0.139 0.568-0.182 0.486-0.234-0.148-0.092-0.668 0.001-0.914 0.155-0.107 0.067-0.147-0.088-0.05-0.213l-0.001 0.001c0.037-0.058 0.082-0.109 0.171-0.192 0.947-0.828 2.168-1.076 3.27-0.886 0.562-0.876 1.232-1.701 2.011-2.457 2.597-2.518 6.019-3.904 9.635-3.904 3.776 0 7.303 1.492 9.931 4.201 0.653 0.674 1.23 1.402 1.726 2.174 1.117-0.209 2.365 0.033 3.329 0.876 0.089 0.083 0.133 0.134 0.17 0.192v-0.001c0.097 0.126 0.057 0.28-0.051 0.213-0.246-0.154-0.766-0.247-0.913-0.155-0.082 0.052 0.218 0.095 0.485 0.234 1.439 0.725 1.179 3.011 0.753 2.534-0.308-0.386-0.711-0.793-1.482-0.768 0.699 0.813 0.768 1.957 0.526 1.754-0.226-0.234-0.529-0.723-1.141-1.135 0.35 1.262 0.522 2.582 0.501 3.928-0.056 3.697-1.548 7.149-4.201 9.722-0.895 0.867-1.887 1.6-2.951 2.189-0.581 1.058-1.312 1.825-2.624 2.123-0.615 0.085-0.925 0.076-1.429-0.144-0.057 0.206-0.144 0.345-0.233 0.437-0.553 0.547-1.555 0.612-2.046 0.696-0.578 0.056-1.588 0.072-2.55-0.172-2.099-0.532-3.531-1.551-4.568-2.982-1.151-0.648-2.217-1.466-3.166-2.444-3.53-3.639-4.654-8.736-3.404-13.306-0.563 0.4-0.85 0.859-1.066 1.084-0.242 0.203-0.173-0.94 0.526-1.754-0.771-0.025-1.175 0.381-1.483 0.768-0.426 0.478-0.685-1.809 0.753-2.534"/>
</g>
</g>
<g transform="translate(91.9 718.87)">
<path d="m0 0h0.078c0.09 0 0.163 0.03 0.163 0.103 0 0.065-0.047 0.108-0.15 0.108-0.044 0-0.075-0.004-0.091-0.009v-0.202zm-0.004-0.397h-0.164v0.707c0.064 0.008 0.155 0.022 0.271 0.022 0.134 0 0.193-0.022 0.241-0.057 0.043-0.03 0.073-0.081 0.073-0.15 0-0.086-0.064-0.142-0.146-0.168v-0.009c0.069-0.021 0.103-0.077 0.125-0.172 0.021-0.108 0.038-0.146 0.052-0.173h-0.173c-0.021 0.027-0.034 0.087-0.056 0.173-0.013 0.073-0.056 0.108-0.146 0.108h-0.077v-0.281zm0.107 0.931c-0.305 0-0.543-0.254-0.543-0.564 0-0.314 0.238-0.564 0.551-0.564 0.306-0.005 0.539 0.25 0.539 0.56 0 0.314-0.233 0.568-0.542 0.568h-0.005zm0.008 0.142c0.401 0 0.72-0.31 0.72-0.706 0-0.397-0.319-0.711-0.723-0.711-0.406 0-0.728 0.314-0.728 0.711 0 0.396 0.322 0.706 0.728 0.706h0.003z"/>
</g>
<g transform="translate(59.811 763.42)">
<path fill="#2f1e18" d="m0 0c-3.477 0-6.726-1.375-9.147-3.871-4.892-5.043-4.769-13.126 0.275-18.02 2.392-2.319 5.543-3.596 8.874-3.596 3.477 0 6.725 1.374 9.145 3.869 2.37 2.443 3.646 5.664 3.594 9.068-0.051 3.404-1.425 6.583-3.869 8.952-2.391 2.32-5.542 3.598-8.872 3.598m0.002-26.581c-3.617 0-7.039 1.387-9.636 3.905-5.477 5.314-5.611 14.092-0.298 19.567 2.629 2.71 6.156 4.203 9.932 4.203 3.616 0 7.037-1.387 9.634-3.906 2.653-2.573 4.145-6.025 4.201-9.721 0.057-3.697-1.329-7.194-3.903-9.847-2.628-2.709-6.154-4.201-9.93-4.201"/>
</g>
<g transform="translate(74.917 744.5)">
<path fill="#dd1438" fill-rule="evenodd" d="m0 0c-0.245-0.154-0.765-0.247-0.913-0.155-0.082 0.052 0.218 0.095 0.486 0.234 1.438 0.726 1.179 3.011 0.753 2.534-0.308-0.386-0.712-0.793-1.483-0.768 0.699 0.814 0.768 1.957 0.526 1.754-0.502-0.521-1.379-2.303-5.214-1.686 0.106 0.135 0.22 0.266 0.345 0.389-0.196 0.117-0.393 0.303-0.594 0.6-0.586 0.925-1.086 1.082-1.386 1.165 0.49 0.471 0.819 0.968 1.116 1.53 0.993 2.122 0.878 4.43 0.77 5.038-0.115 0.94-0.355 2.407-1.093 3.778-0.836 1.559-1.653 4.406-4.465 5.362-0.572 0.029-0.873-0.001-1.375-0.221-0.049 0.099-0.524 0.49-0.575 0.579-0.298 0.27-1.174 0.509-1.566 0.639-0.807 0.014-1.518 0.215-2.409-0.026-3.771-1.019-5.453-2.903-6.568-6.367-0.092-0.287-0.222-1.223-0.237-1.508 0.034 0.097-1.226-3.726-0.389-5.822 0.154-0.176 0.168-0.512 0.325-0.686 0.396-0.927 1.031-1.497 1.412-2.347-1.237-0.051-1.671-1.94-1.707-2.099-3.881-0.642-4.763 1.155-5.268 1.678-0.241 0.203-0.173-0.94 0.526-1.754-0.771-0.025-1.175 0.382-1.482 0.768-0.427 0.478-0.686-1.809 0.752-2.534 0.268-0.138 0.568-0.182 0.486-0.233-0.148-0.093-0.668 0-0.913 0.154-0.115 0.072-0.155-0.11-0.03-0.239 3.703-2.459 5.408 0.246 5.972 0.324 2.042-0.587 5.662 0.855 4.056 2.099-0.437 0.683-1.096 1.855-1.121 3.206-0.09 0.759-0.002 0.994-0.836 0.924 0.296 0.922 0.6 1.73 0.293 3.131-0.055-0.019-0.112-0.07-0.154-0.11 1.645 1.606 4.89 1.797 6.665 3.552 0.23 0.4 1.139 0.533 1.357 0.949-0.202-1.443-0.845-2.713-2.182-3.988 0 0 0.94-0.003 1.687 0.53 1.274 0.909 1.871 2.014 2.75 2.968 0.005 0.047 0.247 0.263 0.237 0.322 0.145-0.073 0.425-0.305 0.518-0.45 1.039-1.606 0.195-1.213 1.344-2.673 0.067-0.077 0.191-0.41 0.256-0.491 0.25-0.47 0.369-0.761 0.688-1.195 0.413-0.284 0.331-0.765 0.573-1.584-0.072-1.017-0.28-1.81-0.958-2.262-0.037-0.886-0.785-2.942-0.785-2.942 0.067-0.203-0.785-1.563 1.227-1.973 0.528-0.107 1.326-0.001 2.004 0.119 0.055 0.437 0.202 0.852 0.421 1.236-0.016-0.124-0.028-0.249-0.028-0.377 0-0.35 0.065-0.687 0.183-1.003 0.021 0.006 0.041 0.01 0.061 0.016 0.564-0.078 2.27-2.783 5.972-0.324 0.125 0.129 0.085 0.311-0.03 0.239"/>
</g>
<g transform="translate(64.37 741.58)">
<path fill="#24ace9" d="m0 0c-0.154 0.356-0.257 0.596-0.251 0.91-0.02 0.051-0.076 0.096-0.149 0.131l0.006-0.366-0.647 0.265c-0.062-0.087-0.096-0.213-0.075-0.391 0.211-1.245 0.795-1.887 0.945-2.044 0.156-0.163 0.278-0.178 0.414-0.188 0.169-0.014 0.285 0.038 0.389 0.152 0.233 0.344-0.349 0.88-0.632 1.531"/>
</g>
<g transform="translate(57.685 741.17)">
<path fill="#24ace9" d="m0 0-0.35 0.405c-0.242-1.496-0.795-1.892-0.621-2.272 0.055-0.119 0.182-0.219 0.182-0.219 0.087-0.054 0.168-0.079 0.245-0.082 0.122 0.001 0.249 0.029 0.345 0.141 0.411 0.504 0.697 1.346 0.787 1.89 0.019 0.116 0.02 0.233 0.007 0.346l-0.595-0.209z"/>
</g>
<g transform="translate(56.482 741.89)">
<path fill="#24ace9" d="m0 0-0.573 0.136-0.07 0.35c-0.043-0.049-0.083-0.105-0.115-0.169-0.059-0.228-0.108-0.438-0.333-0.935-0.249-0.553-0.98-1.134-0.235-1.354 0.239-0.059 0.384 0.036 0.481 0.123 0.448 0.404 0.857 1.324 1.038 1.879 0.032 0.102 0.054 0.206 0.069 0.314l-0.262-0.344z"/>
</g>
<g transform="translate(62.314 741.15)">
<path fill="#24ace9" d="m0 0-0.678 0.359c0.204-1.188 0.634-2.027 0.874-2.331 0.095-0.11 0.223-0.18 0.368-0.205 0.096-0.004 0.164 0.008 0.247 0.051 0 0 0.181 0.083 0.225 0.206 0.138 0.385-0.505 1.023-0.67 2.47l-0.366-0.55z"/>
</g>
<g transform="translate(59.608 738.83)">
<path fill="#24ace9" d="m0 0c0.712-0.179 1.347 0.369 1.36 0.556 0.009 0.147-0.36 0.739-0.497 0.869-0.083 0.081-0.38 0.287-0.773 0.152-0.217-0.073-0.64-0.505-0.632-0.907 0.005-0.329 0.542-0.67 0.542-0.67"/>
</g>
<g transform="translate(54.743 756.68)">
<path fill="#9c0b2b" fill-rule="evenodd" d="m0 0c2.019 0.605 2.861 2.202 4.758 3.521-0.315-0.042-0.703-0.219-0.968-0.37-1.601-0.918-2.106-1.316-2.852-1.83-0.751-0.518-1.719-1.135-2.42-1.379 0 0 0.501-0.274 1.482 0.058m9.128 8.248c-0.615 0.085-0.926 0.076-1.429-0.144-0.057 0.206-0.144 0.345-0.233 0.437-0.554 0.548-1.555 0.613-2.046 0.696-0.579 0.056-1.588 0.072-2.551-0.172-3.66-0.928-5.293-3.332-6.336-6.832-0.211-0.708-0.416-1.726-0.539-2.686-0.453-1.041-1.313-3.736 0.452-6.348 0.317-0.47 1.364-1.775 1.636-2.49 0.378-1.725-1.795-0.694-3.321-2.242 0 0-1.256-1.63-3.691-1.298-0.415 0.07-0.789 0.193-1.087 0.437 0.037-0.058 0.082-0.109 0.171-0.192 1.545-1.351 3.819-1.158 5.113-0.04 0.284 0.244 0.292 0.399 1.261 0.4 1.687 0.002 3.204 0.124 4.085 1.411-0.685 0.894-0.994 1.208-1.26 1.76 0 0.279-0.086 0.641-0.305 1.108-0.141 1.742-0.323 1.97-0.294 2.843-0.069 1.116-0.018 2.402 1.138 2.879 1.163 0.479 1.473 0.33 3.453 1.358 3.656 1.896 3.745 4.221 3.368 4.512 0 0-0.851-1.491-1.934-2.431-1.619-1.405-3.678-1.93-5.854-2.752-2.186-0.826-2.449-1.662-2.449-1.662-0.551 3.135 1.311 4.951 1.311 4.951-0.187 0.064-1.125-1.059-1.542-1.704 0.466 2.041 0.981 3.28 1.499 4.299 0.136 0.25 0.445 0.722 0.722 1.075 0.582 0.655 0.835 0.927 1.707 1.51 0.547 0.366 1.151 0.709 1.897 0.906 1.628 0.431 4.067 0.396 5.036-0.421 0.263-0.224 0.383-0.58 0.383-0.58s0.468 0.272 0.8 0.372c0.472 0.142 1.027 0.002 1.377-0.14 1.921-0.852 2.369-3.016 3.821-4.833-1.433 2.931-1.728 5.416-4.359 6.013m2.681-6.793c0.828-1.086 2.853-2.983 2.653-5.972 0 0 0.258 0.757 0.226 1.745-0.13 4.408-2.61 4.578-4.492 8.21 0 0-0.283-1.492 1.613-3.983m8.417-13.845c-0.038-0.058-0.082-0.109-0.171-0.192-1.544-1.352-3.819-1.158-5.113-0.039-0.216 0.185-0.273 0.319-0.715 0.373-0.154 0.356-0.239 0.741-0.239 1.142 0 0.129 0.011 0.255 0.029 0.381-0.177-0.31-0.306-0.64-0.378-0.984-0.053-0.003-0.106-0.085-0.162-0.101-1.846-0.715-2.963-0.235-3.693 1.214 0.065 0.094 0.452 0.596 0.502 0.691 0.148 0.324 0.6 1.297 0.722 2.616 0.209 1.756 0.201 2.16 0.265 2.59 0.097 0.838 0.094 1.053-0.085 1.651-0.157 0.493-0.287 0.663-0.581 1.222-0.731 1.059-1.009 1.511-1.355 2.185-0.248 0.483-0.323 0.717-0.399 0.993 0 0-0.669-1.629-2.048-2.652-1.179-0.875-2.085-1.157-2.751-1.034 1.019 0.576 2.07 1.207 2.844 2.474 1.085 1.774 1.289 3.562 1.289 3.562s0.071 0.005 0.291-0.117c0.165-0.093 0.469-0.405 0.621-0.961 0.057-0.211 0.288-0.978 0.568-1.612 0.506-1.142 0.986-1.688 2.011-2.634 0.998-0.922 1.971-2.228 1.604-4.149-0.213-1.118-0.714-1.813-1.267-2.755-0.181-0.361-0.241-0.631-0.195-1.022 0.153-1.028 1.172-0.47 2.454-0.785-0.09-0.119-0.171-0.243-0.244-0.369 0.475-0.145 0.973-0.377 1.417-0.827 0 0 1.257-1.63 3.692-1.299 0.415 0.071 0.789 0.195 1.087 0.438"/>
</g>
<g transform="translate(66.484 753.36)">
<path fill="#fcd3d7" fill-rule="evenodd" d="m0 0c-0.226 0.052-0.319-0.064-0.424-0.282-0.022 0.165-0.063 0.333-0.129 0.551-0.156 0.493-0.287 0.663-0.58 1.222-0.732 1.059-1.009 1.511-1.356 2.185-0.248 0.483-0.323 0.717-0.399 0.993 0 0-0.668-1.629-2.048-2.652-1.179-0.875-2.084-1.157-2.751-1.034 1.268 1.21 1.911 2.415 2.147 3.767-0.522-0.732-1.409-1.55-2.856-2.3-1.98-1.028-2.29-0.879-3.452-1.358-0.824-0.339-1.086-1.09-1.144-1.896-0.011 0.127-0.024 0.243-0.037 0.338-0.022 0.46-0.148 0.452-0.148 0.452s-0.732-0.01-0.78-1.093c-0.014-0.668 0.104-0.857 0.202-1.085 0.11-0.256 0.236-0.579 0.399-0.659 0.279-0.133 0.402-0.042 0.447 0.014 0.005-0.031 0.011-0.062 0.016-0.093s0.011-0.063 0.015-0.098c0.007-0.046 0.014-0.095 0.023-0.147 0.229-1.463 0.445-2.344 0.819-2.902 0.029-0.072 0.061-0.147 0.095-0.223 0.081-0.139 0.16-0.267 0.232-0.381 0.244-0.189 0.367-0.383 0.393-0.573 0.015-0.019 0.031-0.039 0.046-0.059 0.046-0.059 0.093-0.119 0.143-0.184-0.005-0.006-0.009-0.012-0.013-0.018 0.037-0.034 0.074-0.069 0.113-0.1 0.149-0.166 0.304-0.304 0.446-0.42l-0.087-2.837 0.094-0.465 0.572-0.136 0.275 0.36 0.928-1.074 0.805 0.282s0.195-0.079 0.359-0.224c0.164-0.144 1.178-0.594 1.178-0.594l0.469 0.183 0.595 0.446 0.241 0.407 0.982-0.521 0.934 1.406 0.728-0.299-0.05 3.212c0.092 0.098 0.18 0.196 0.263 0.292 0.279 0.322 0.604 0.663 0.849 1.027 0.008 0.02 0.019 0.042 0.029 0.066 0.003 0.005 0.006 0.012 0.008 0.017 0.009 0.02 0.019 0.041 0.029 0.064 0.005 0.012 0.011 0.025 0.016 0.038 0.008 0.019 0.017 0.037 0.025 0.057 0.008 0.018 0.016 0.038 0.024 0.057 0.008 0.018 0.015 0.035 0.023 0.054 0.009 0.022 0.019 0.046 0.028 0.07 0.007 0.018 0.014 0.035 0.022 0.054 0.01 0.026 0.021 0.055 0.031 0.083 0.007 0.018 0.014 0.035 0.021 0.054 0.011 0.03 0.023 0.062 0.034 0.095 0.007 0.018 0.014 0.035 0.02 0.054 0.012 0.034 0.024 0.07 0.036 0.106 0.006 0.019 0.012 0.037 0.019 0.056 0.012 0.037 0.024 0.075 0.035 0.113 0.007 0.02 0.013 0.04 0.019 0.06 0.012 0.04 0.024 0.081 0.035 0.123 0.006 0.021 0.012 0.041 0.018 0.062 0.011 0.041 0.022 0.085 0.034 0.128 0.006 0.022 0.011 0.044 0.017 0.068 0.011 0.043 0.021 0.088 0.031 0.132 0.006 0.025 0.011 0.048 0.017 0.073 0.01 0.045 0.019 0.092 0.028 0.138 0.005 0.026 0.011 0.051 0.016 0.077 0.009 0.048 0.017 0.097 0.025 0.146 0.005 0.027 0.009 0.052 0.014 0.079 0.008 0.053 0.016 0.109 0.023 0.164 0.003 0.023 0.007 0.045 0.01 0.069 0.009 0.079 0.018 0.159 0.026 0.241 0.055 0.465 0.095 0.835 0.126 1.136 0.078-0.052 0.261-0.12 0.502 0.131 0.299 0.245 0.554 0.967 0.543 1.554-0.011 0.515-0.136 1.081-0.438 1.151"/>
</g>
<g transform="translate(51.226 746.95)">
<path fill="#24ace9" d="m0 0c-0.001 0.148-0.017 0.363-0.088 0.617-0.075 0.376-0.151 0.63-0.304 1.289-0.182 0.784-0.685 0.811-0.871 0.798-0.145-0.011-0.893-0.207-1.395-0.625-0.524-0.399-0.532-0.69-0.466-0.897 0.052-0.164 0.305-0.623 0.5-0.871 0.557-0.683 1.391-0.855 1.044-1.098-0.101-0.11-0.074-0.298 0.045-0.723 0.096-0.263 0.189-0.495 0.283-0.644 0.091-0.125 0.173-0.373 0.529-0.406 0.089-0.009 0.197-0.002 0.173-0.059-0.046-0.104-0.073-0.24-0.068-0.352 0.006-0.146 0.206-0.601 0.295-0.826 0.102-0.261 0.346-1.423 0.889-1.413 0.247 0.003 0.492 0.065 0.704 0.134 0.504 0.149 1.135 0.567 1.213 0.898 0.113 0.471-0.189 0.666-0.344 0.886-0.297 0.31-0.956 0.953-1.145 1.154-0.044 0.047-0.099 0.093-0.165 0.158-0.184 0.183-0.091 0.235-0.008 0.355 0.1 0.206-0.193 0.787-0.267 0.902-0.122 0.186-0.325 0.402-0.507 0.405-0.381 0.062-0.049 0.092-0.047 0.318"/>
</g>
<g transform="translate(50.966 744.7)">
<path fill="#2f1e18" d="m0 0c0.505 0.207 0.491 0.214 0.677 0.363 0.058 0.047 0.206-0.031 0.07-0.26-0.058-0.093-0.148-0.049-0.129-0.256 0.025-0.266 0.589-0.67 0.209-0.747-0.345-0.069-0.543 0.57-0.57 0.662-0.029 0.09-0.181-0.008-0.257-0.001-0.163 0.016-0.296 0.117 0 0.239"/>
</g>
<g transform="translate(49.876 747.32)">
<path fill="#2f1e18" d="m0 0c0.048-0.361 0.332-0.771 0.567-0.544 0.149 0.144-0.136 0.183-0.336 1.019-0.129 0.543-0.268-0.196-0.231-0.475"/>
</g>
<g transform="translate(50.695 746.5)">
<path fill="#fff" fill-rule="evenodd" d="m0 0c-0.231-0.024-0.508-0.043-0.629-0.197-0.119-0.154-0.137-0.194-0.053-0.343 0.084-0.15 0.125-0.026 0.259 0.095s0.297 0.189 0.407 0.205c0.122 0.018 0.271 0.082 0.314 0.215 0.032 0.103-0.081 0.047-0.298 0.025"/>
</g>
<g transform="translate(69.168 744.69)">
<path fill="#24ace9" d="m0 0c0.194 0.001 0.464 0.284 0.586 0.467 0.076 0.115 0.413 0.698 0.217 0.885-0.106 0.106-0.133 0.138 0.029 0.293 0.068 0.064 0.124 0.11 0.17 0.157 0.196 0.199 1.038 1.114 1.237 1.33 0.107 0.145 0.453 0.417 0.303 0.804-0.115 0.263-0.94 0.701-1.376 0.867-0.244 0.102-0.517 0.19-0.707 0.204-0.429 0.051-0.774-1.204-0.872-1.461-0.085-0.221-0.203-0.734-0.201-0.879 0-0.108 0.036-0.241 0.089-0.342 0.032-0.056-0.086-0.051-0.183-0.06-0.386-0.036-0.577-0.291-0.65-0.382-0.093-0.086-0.217-0.33-0.306-0.589-0.106-0.417-0.073-0.588 0.041-0.694 0.393-0.235-0.443-0.336-1.036-1.123-0.214-0.242-0.511-0.68-0.56-0.843-0.063-0.202-0.114-0.433 0.523-0.865 0.478-0.376 1.392-0.588 1.552-0.598 0.202-0.012 0.628-0.123 0.786 0.647 0.131 0.646 0.178 0.84 0.237 1.129 0.06 0.348 0.095 0.623 0.064 0.726-0.017 0.187-0.336 0.306 0.057 0.327"/>
</g>
<g transform="translate(68.636 744.78)">
<path fill="#2f1e18" d="m0 0c-0.573 0.037-0.555 0.091-0.746 0.219-0.062 0.04-0.311-0.084-0.133-0.243 0.061-0.053 0.195-0.211 0.144-0.403-0.068-0.249-0.433-0.723-0.076-0.676 0.406 0.051 0.5 0.625 0.545 0.71 0.046 0.086 0.115 0.12 0.204 0.132 0.171 0.021 0.353 0.243 0.062 0.261"/>
</g>
<g transform="translate(69.802 747.18)">
<path fill="#2f1e18" d="m0 0c-0.114-0.248-0.199-0.583-0.53-0.407-0.416 0.221 0.104 0.554 0.422 0.891 0.299 0.314 0.197-0.289 0.108-0.484"/>
</g>
<g transform="translate(69.346 746.43)">
<path fill="#fff" fill-rule="evenodd" d="m0 0c-0.196 0.167-0.394 0.346-0.595 0.34-0.202-0.007-0.279-0.038-0.32-0.204-0.041-0.165 0.079-0.117 0.267-0.143s0.392-0.16 0.489-0.236c0.106-0.086 0.309-0.149 0.363-0.058 0.053 0.09-0.02 0.143-0.204 0.301"/>
</g>
<g transform="translate(58.091 746.62)">
<path fill="#fff" fill-rule="evenodd" d="m0 0s-0.282 0.695-0.572 0.676c0.51 0.004 1.179-0.102 1.684-0.064 0.08 0.004 0.241 0.069 0.32 0.076 0.787 0.081 1.715-0.144 2.439 0.072-0.248-0.235-0.399-0.801-0.756-0.979-0.383-0.192-1.269-0.247-1.822-0.215-0.558 0.032-0.902 0.228-1.293 0.434"/>
</g>
<g transform="translate(54.826 750.35)">
<path fill="#dd1438" d="m0 0c0 0.085 0.056 0.148 0.158 0.148 0.083-0.002 0.195-0.064 0.193-0.15 0.004-0.11-0.112-0.181-0.198-0.178-0.101 0-0.155 0.071-0.153 0.18"/>
</g>
<g transform="translate(55.608 749.82)">
<path fill="#dd1438" d="m0 0c0 0.089 0.086 0.183 0.179 0.18 0.095 0.006 0.195-0.089 0.195-0.181-0.001-0.078-0.103-0.147-0.199-0.147-0.088-0.007-0.176 0.071-0.175 0.148"/>
</g>
<g transform="translate(56.268 750.8)">
<path fill="#dd1438" d="m0 0c0 0.071 0.108 0.159 0.21 0.158 0.066-0.002 0.171-0.086 0.169-0.163-0.036-0.127-0.1-0.18-0.169-0.18-0.134 0.002-0.212 0.055-0.21 0.185"/>
</g>
<g transform="translate(57.068 750.12)">
<path fill="#dd1438" d="m0 0c0.002 0.092 0.046 0.173 0.157 0.172 0.091-0.001 0.161-0.08 0.16-0.168 0-0.096-0.072-0.188-0.164-0.177-0.11 0-0.153 0.086-0.153 0.173"/>
</g>
<g transform="translate(57.847 750.95)">
<path fill="#dd1438" d="m0 0c0.001 0.091 0.06 0.163 0.165 0.163 0.106-0.003 0.169-0.072 0.167-0.16 0-0.09-0.063-0.165-0.172-0.164-0.104-0.001-0.161 0.077-0.16 0.161"/>
</g>
<g transform="translate(61.534 750.9)">
<path fill="#dd1438" d="m0 0c0.016 0.097 0.066 0.151 0.171 0.132 0.09-0.02 0.146-0.094 0.141-0.195-0.018-0.087-0.102-0.12-0.201-0.1-0.095 0.017-0.124 0.097-0.111 0.163"/>
</g>
<g transform="translate(62.587 750.71)">
<path fill="#dd1438" d="m0 0c0.015 0.077 0.08 0.144 0.154 0.13 0.092-0.016 0.145-0.102 0.128-0.185-0.016-0.09-0.093-0.152-0.184-0.134-0.078 0.015-0.115 0.098-0.098 0.189"/>
</g>
<g transform="translate(63.986 750.84)">
<path fill="#dd1438" d="m0 0c0.02 0.094 0.093 0.141 0.221 0.117 0.099-0.018 0.139-0.087 0.121-0.182-0.02-0.102-0.082-0.182-0.184-0.163-0.129 0.023-0.177 0.127-0.158 0.228"/>
</g>
<g transform="translate(63.173 750.08)">
<path fill="#dd1438" d="m0 0c0.02 0.108 0.11 0.156 0.229 0.138 0.092-0.02 0.149-0.11 0.131-0.205-0.018-0.088-0.105-0.157-0.191-0.139-0.125 0.022-0.186 0.118-0.169 0.206"/>
</g>
<g transform="translate(64.27 750)">
<path fill="#dd1438" d="m0 0c0.021 0.105 0.108 0.15 0.213 0.128 0.098-0.013 0.169-0.093 0.147-0.192-0.018-0.093-0.116-0.158-0.206-0.141-0.107 0.019-0.174 0.109-0.154 0.205"/>
</g>
<g transform="translate(56.583 753.05)">
<path fill="#fff" d="m0 0c-0.518-0.145-0.905-0.544-1.061-0.943-0.001-0.115 0.287-0.236 0.296-0.28 0.139-0.04 0.615 0.043 0.782 0.041 0.565-0.006 1.208 0.255 1.046 0.578 0 0-0.544 0.749-1.063 0.604"/>
</g>
<g transform="translate(63.914 752.08)">
<path fill="#fff" d="m0 0c0.143 0.229-0.492 1.082-0.897 1.042-0.406-0.041-0.709-0.194-1.029-0.689-0.018-0.029 0.008-0.159-0.011-0.192 0.152-0.254 0.584-0.438 1.094-0.436 0.163 0 0.321 0.02 0.462 0.056 0.008 0.159 0.24-0.011 0.381 0.219"/>
</g>
<g transform="translate(59.756 738.95)">
<path fill="#2f1e18" fill-rule="evenodd" d="m0 0c0.432-0.11 0.836 0.127 0.903 0.434 0.047 0.222-0.02 0.424-0.096 0.562-0.072 0.135-0.149 0.211-0.305 0.311-0.157 0.111-0.399 0.089-0.476 0.064l-0.068-0.031c-0.428-0.167-0.682-1.155 0.042-1.34m-3.769 5.897c-0.013-0.62-0.018-1.236-0.03-2.076 0.067-0.111 0.154-0.241 0.274-0.406 0.205-0.286 0.5 0.678 0.857 0.476 0.382-0.216 0.363-0.891 0.771-1.211 0.243-0.19 0.694 0.89 0.932 0.299 0.257-0.639 0.718-0.786 1.216-1.04 0.223 0.196 0.549 0.223 0.822 0.545 0.256 0.302 0.409 0.61 0.598 0.669 0.292 0.091 0.464-0.63 0.78-0.515 0.514 0.189 0.424 1.137 0.901 1.265 0.242 0.065 0.281-0.351 0.567-0.394 0.285-0.044 0.557 0.955 0.704 1.37 0.074 0.205 0.179 0.264 0.338 0.204 0.225-0.085 0.239-0.388 0.26-0.91 0.032-0.733 0.369-1.436 0.778-1.926 0.408-0.489-0.631-0.218-1.038 0.843-0.254 0.66-0.183 0.665-0.372 0.325 0 0-0.35-0.606-0.576-0.666-0.289-0.078-0.564 0.346-0.564 0.346s-0.339-1.178-0.919-1.181c-0.545-0.002-0.728 0.579-0.856 0.354-0.097-0.167-0.217-0.416-0.706-0.595 0.262-0.2 0.488-0.407 0.587-0.769v-0.001c0.187-0.861-0.452-1.405-1.205-1.461-0.543-0.037-1.201 0.192-1.375 0.702-0.191 0.649 0.211 1.242 0.601 1.521-0.361 0.095-0.648 0.341-0.859 0.649 0 0-0.306-0.422-0.758-0.342-0.288 0.051-0.674 0.618-0.812 1.102-0.007 0.022-0.319-0.425-0.686-0.365-0.491 0.08-0.485 0.441-0.723 0.794-0.053 0.078-0.228 0.333-0.264 0.114-0.028-0.178-0.088-0.424-0.224-0.695-0.25-0.502-0.973-1.059-1.29-0.848 0.283 0.114 0.755 0.675 0.901 1.176 0.162 0.559 0.202 1.085 0.142 1.632-0.047 0.436 0.384 0.195 0.67-0.104l0.014 0.282c0.017 0.313 0.02 0.664 0.023 0.999 0.001 0.148-0.067 0.425-0.24 0.624-0.178 0.213-0.452 0.657-0.608 0.883 0 0-0.183 0.291-0.3 0.507-0.106 0.199-0.205 0.428-0.349 0.833-0.118 0.335-0.244 0.836-0.313 1.461-0.074 0.642-0.062 0.791-0.081 1.202 0.085-0.389 0.21-1.033 0.256-1.237 0.212-0.93 0.387-1.36 0.714-1.923 0.326-0.586 0.741-1.053 1.135-1.466 0.231-0.242 0.707-0.636 1.01-0.88 0.406-0.325 0.587-0.472 1.044-0.76 0.405-0.255 1.15-0.773 2.172-0.761 0.961 0.011 1.483 0.388 1.796 0.568 0.672 0.389 1.021 0.695 1.488 1.132 0.537 0.502 0.811 0.753 1.137 1.134 0.423 0.494 0.812 1.022 1.164 2.266 0.192 0.68 0.316 1.475 0.395 1.919 0.011-0.158 0.035-0.337-0.014-0.95-0.046-0.445-0.092-0.852-0.189-1.259-0.141-0.593-0.27-0.991-0.505-1.423-0.243-0.445-0.308-0.484-0.716-1.096-0.285-0.404-0.296-0.42-0.308-0.726-0.009-1.285-0.295-3.049-0.517-0.262-1.413-1.2-2.628-1.956-3.779-1.969-1.131-0.013-2.312 0.735-3.871 2.021m6.847 8.589c-0.237-0.077-0.607-0.413-0.736-0.608-0.161-0.242-0.262-0.677-0.469-0.684-0.08 0.028-0.003 0.208-0.124 0.195-0.156-0.035-0.25-0.171-0.209-0.332 0.03-0.081 0.1-0.142 0.211-0.155 0.37-0.048 0.426 0.293 0.567 0.489 0.119 0.163 0.364 0.414 0.495 0.488 0.121 0.07 0.298 0.123 0.45 0.004 0.089-0.076 0.001-0.242-0.065-0.276-0.169-0.014-0.329 0.048-0.409 0.031-0.081-0.017-0.201-0.235-0.219-0.505 0.178-0.072 0.221 0.063 0.396 0.066 0.282 0.004 0.559-0.181 0.703-0.039 0.145 0.144 0.141 0.405 0.14 0.518 0.24-0.01 0.349-0.349 0.248-0.524-0.08-0.092-0.274-0.074-0.273-0.245 0.819-0.165 0.896 0.176 0.959 0.361 0.045 0.149 0.028 0.271-0.041 0.475-0.24 0.608-0.969 0.955-1.624 0.741m-7.578-1.553c0.145-0.076 0.453-0.225 0.697-0.154 0.029 0.094-0.051 0.139-0.103 0.14-0.154 0.006-0.263 0.143-0.259 0.207 0.018 0.209 0.234 0.547 0.488 0.681 0.232 0.165 0.411 0.076 0.479-0.052-0.005-0.1-0.041-0.176-0.127-0.195-0.133-0.03-0.229 0.085-0.328 0.042-0.187-0.196-0.114-0.432-0.047-0.513s0.146-0.112 0.174-0.086c0.125 0.159 0.426 0.156 0.729 0.131 0.129 0.091 0.136 0.311 0.172 0.499 0.216 0.245 0.324-0.248 0.467-0.444 0.094-0.128 0.196-0.281 0.324-0.294 0.219-0.022 0.504 0.154 0.395 0.476-0.063 0.083-0.236-0.084-0.305-0.029-0.262 0.249-0.026 0.757-0.57 1.029-0.582 0.292-1.485 0.191-1.846-0.263-0.14-0.176-0.293-0.371-0.407-0.669-0.055-0.198-0.107-0.403 0.067-0.506m5.557-2.207c-0.357 0.107-0.44-0.275-0.803-0.274-0.509 0-0.615 0.326-0.885 0.298-0.222-0.025-0.337-0.362-0.488-0.385-0.121 0.024-0.096-0.18 0.057-0.219 0.306-0.077 0.239 0.179 0.441 0.108 0.119-0.046 0.144-0.25 0.487-0.407 0.341-0.155 0.681 0.03 0.987 0.307 0.194 0.188 0.561 0.175 0.467 0.291-0.082 0.039-0.141 0.245-0.263 0.281m0.742 4.652c0.024-0.099 0.374-0.001 0.538 0.062 0.126 0.049 0.232 0.104 0.392 0.137 0.11 0.023 0.269 0.039 0.377 0.04 0.248 0.001 0.408-0.002 0.622-0.037 0.338-0.056 0.975-0.389 1.027-0.243 0.058 0.274-0.182 0.494-0.364 0.593-0.451 0.243-1.139 0.369-1.754 0.12-0.206-0.098-0.276-0.181-0.47-0.313-0.135-0.091-0.383-0.238-0.368-0.359m-2.433-7.17c0.079 0.003 0.388 0.033 0.468 0.04 0.786 0.073 1.506-0.13 2.232 0.078-0.25-0.232-0.454-0.595-0.813-0.77-0.384-0.188-1.086-0.189-1.638-0.15-0.558 0.038-1.014 0.342-1.404 0.552-0.105-0.315 0.064-0.436 0.306-0.651 0.274-0.245 0.701-0.579 1.345-0.596 0.933-0.024 1.668 0.066 2.136 0.837 0.143 0.253 0.529 0.772 0.931 0.964 0.225 0.107 0.74 0.348 0.655 0.481-0.153 0.196-0.457 0.161-0.675 0.112-0.166-0.034-0.216-0.338-0.493-0.36-0.656-0.085-1.293 0.145-2.102 0.119-0.582-0.017-1.041-0.152-1.663-0.201-0.6-0.048-0.808 0.269-1.371 0.338-0.256 0.033-0.303-0.115-0.109-0.359 0.182-0.187 0.498-0.365 0.749-0.361 0.51-0.001 0.94-0.107 1.446-0.073m-1.622 7.289c-0.14 0.036-0.222 0.091-0.4 0.112-0.111 0.013-0.271 0.023-0.379 0.017-0.246-0.014-0.37-0.012-0.619-0.076-0.332-0.085-0.948-0.449-1.011-0.306-0.053 0.192 0.047 0.365 0.172 0.49 0.441 0.142 0.805 0.226 1.368 0.448 0.18-0.005 0.36-0.034 0.531-0.095 0.183-0.075 0.321-0.178 0.49-0.283 0.137-0.085 0.405-0.218 0.388-0.336-0.035-0.1-0.371-0.016-0.54 0.029"/>
</g>
</g>
</g>
</g>
</svg>
