<?xml version="1.0" encoding="UTF-8" standalone="no"?>
<svg xmlns="http://www.w3.org/2000/svg" version="1.1" xmlns:rdf="http://www.w3.org/1999/02/22-rdf-syntax-ns#" style="enable-background:new -231.5001678 619.1550293 887.1738892 214.2346954" height="100%" xmlns:dc="http://purl.org/dc/elements/1.1/" width="100%" xml:space="preserve" xmlns:cc="http://creativecommons.org/ns#" x="0px" y="0px" viewBox="-231.5001678 619.1550293 887.1738892 214.2346954"><metadata><rdf:RDF><cc:Work rdf:about=""><dc:format>image/svg+xml</dc:format><dc:type rdf:resource="http://purl.org/dc/dcmitype/StillImage"/><dc:title/></cc:Work></rdf:RDF></metadata>
<style type="text/css">
	.st0{fill:#FFC220;}
</style>
<switch>
	<g>
		<g transform="matrix(3.322 0 0 3.322 710.49 -3457.6)">
			<path d="m-45.235 1248.9c1.511 0 2.755-0.78601 2.923-1.801l1.492-16.872c0-1.668-1.954-3.037-4.41-3.037-2.454 0-4.406 1.369-4.406 3.037l1.491 16.872c0.164 1.015 1.408 1.801 2.915 1.801h-0.005" class="st0"/>
			<path d="m-54.354 1254.2c0.758-1.307 0.701-2.776-0.098-3.429l-13.868-9.728c-1.442-0.83496-3.604 0.17004-4.831 2.298-1.231 2.125-1.013 4.499 0.425 5.334l15.356 7.15c0.96 0.35596 2.269-0.32898 3.021-1.635l-0.0049973 0.01001" class="st0"/>
			<path d="m-36.108 1254.2c0.757 1.306 2.059 1.991 3.02 1.635l15.356-7.15c1.447-0.83496 1.653-3.209 0.433-5.334-1.233-2.126-3.399-3.1331-4.837-2.298l-13.869 9.728c-0.793 0.65198-0.852 2.1219-0.098 3.429l-0.0059967-0.01001" class="st0"/>
			<path d="m-45.235 1270c1.511 0 2.755 0.77905 2.923 1.795l1.492 16.87c0 1.673-1.954 3.0389-4.41 3.0389-2.454 0-4.406-1.366-4.406-3.0389l1.491-16.87c0.164-1.016 1.408-1.795 2.915-1.795h-0.005" class="st0"/>
			<path d="m-36.108 1264.7c0.757-1.3101 2.059-1.989 3.02-1.629l15.356 7.145c1.447 0.83606 1.653 3.212 0.433 5.339-1.233 2.119-3.399 3.129-4.837 2.295l-13.869-9.719c-0.793-0.65698-0.852-2.1281-0.098-3.434h-0.0059967" class="st0"/>
			<path d="m-54.354 1264.7c0.758 1.3051 0.701 2.776-0.098 3.434l-13.868 9.719c-1.442 0.83398-3.604-0.17603-4.831-2.295-1.231-2.127-1.013-4.5031 0.425-5.339l15.356-7.145c0.96-0.35999 2.269 0.31897 3.021 1.629h-0.0049973" class="st0"/>
		</g>
	</g>
</switch>
</svg>
