<?xml version="1.0" encoding="UTF-8" standalone="no"?>
<svg width="100%" height="100%" xml:space="preserve" viewBox="-231.5001678 619.1550293 887.1738892 214.2346954" xmlns="http://www.w3.org/2000/svg" x="0px" y="0px" version="1.1" style="enable-background:new -231.5001678 619.1550293 887.1738892 214.2346954">
<style type="text/css">
	.st0{fill:#FFC220;}
</style>
<switch>
	<g>
		<g transform="matrix(3.322 0 0 3.322 710.49 -3457.6)">
			<path class="st0" d="m-45.235 1248.9c1.511 0 2.755-0.78601 2.923-1.801l1.492-16.872c0-1.668-1.954-3.037-4.41-3.037-2.454 0-4.406 1.369-4.406 3.037l1.491 16.872c0.164 1.015 1.408 1.801 2.915 1.801h-0.005"/>
			<path class="st0" d="m-54.354 1254.2c0.758-1.307 0.701-2.776-0.098-3.429l-13.868-9.728c-1.442-0.83496-3.604 0.17004-4.831 2.298-1.231 2.125-1.013 4.499 0.425 5.334l15.356 7.15c0.96 0.35596 2.269-0.32898 3.021-1.635l-0.0049973 0.01001"/>
			<path class="st0" d="m-36.108 1254.2c0.757 1.306 2.059 1.991 3.02 1.635l15.356-7.15c1.447-0.83496 1.653-3.209 0.433-5.334-1.233-2.126-3.399-3.1331-4.837-2.298l-13.869 9.728c-0.793 0.65198-0.852 2.1219-0.098 3.429l-0.0059967-0.01001"/>
			<path class="st0" d="m-45.235 1270c1.511 0 2.755 0.77905 2.923 1.795l1.492 16.87c0 1.673-1.954 3.0389-4.41 3.0389-2.454 0-4.406-1.366-4.406-3.0389l1.491-16.87c0.164-1.016 1.408-1.795 2.915-1.795h-0.005"/>
			<path class="st0" d="m-36.108 1264.7c0.757-1.3101 2.059-1.989 3.02-1.629l15.356 7.145c1.447 0.83606 1.653 3.212 0.433 5.339-1.233 2.119-3.399 3.129-4.837 2.295l-13.869-9.719c-0.793-0.65698-0.852-2.1281-0.098-3.434h-0.0059967"/>
			<path class="st0" d="m-54.354 1264.7c0.758 1.3051 0.701 2.776-0.098 3.434l-13.868 9.719c-1.442 0.83398-3.604-0.17603-4.831-2.295-1.231-2.127-1.013-4.5031 0.425-5.339l15.356-7.145c0.96-0.35999 2.269 0.31897 3.021 1.629h-0.0049973"/>
			<path class="st1" fill="#fff" d="m-132.71 1268.1c0 0.51794-0.046005 1.052-0.188 1.521-0.588 1.948-2.605 3.595-5.128 3.595-2.104 0-3.775-1.1949-3.775-3.719 0-3.863 4.252-4.9301 9.092-4.903v3.506zm7.59-6.7c0-6.37-2.722-11.975-11.919-11.975-4.721 0-8.468 1.326-10.513 2.5081l1.498 5.121c1.869-1.1801 4.848-2.157 7.667-2.157 4.665-0.01294 5.429 2.642 5.429 4.3409v0.40198c-10.169-0.015015-16.597 3.506-16.597 10.679 0 4.3831 3.274 8.488 8.965 8.488 3.497 0 6.426-1.396 8.179-3.634h0.173s1.16 4.859 7.563 3c-0.334-2.021-0.444-4.178-0.444-6.772v-10.001"/>
			<path class="st1" fill="#fff" d="m-283.56 1240.7s6.645 27.229 7.706 31.648c1.238 5.158 3.469 7.057 9.898 5.775l4.149-16.881c1.052-4.1949 1.756-7.186 2.434-11.449h0.11801c0.47601 4.308 1.151 7.267 2.017 11.463 0 0 1.688 7.6639 2.554 11.688 0.867 4.0229 3.28 6.5601 9.578 5.179l9.887-37.424h-7.98l-3.377 16.181c-0.90799 4.708-1.731 8.39-2.366 12.697h-0.11301c-0.577-4.2679-1.312-7.801-2.234-12.389l-3.513-16.489h-8.316l-3.76 16.073c-1.064 4.886-2.062 8.829-2.694 12.992h-0.11499c-0.64899-3.92-1.513-8.8781-2.448-13.605 0 0-2.232-11.497-3.017-15.46h-8.408"/>
			<path class="st1" fill="#fff" d="m-220.13 1268.1c0 0.51794-0.04599 1.052-0.19 1.521-0.58701 1.948-2.605 3.595-5.128 3.595-2.104 0-3.773-1.1949-3.773-3.719 0-3.863 4.251-4.9301 9.092-4.903v3.506zm7.59-6.7c0-6.37-2.722-11.975-11.917-11.975-4.722 0-8.472 1.326-10.516 2.5081l1.496 5.121c1.869-1.1801 4.848-2.157 7.668-2.157 4.668-0.01294 5.432 2.642 5.432 4.3409v0.40198c-10.173-0.015015-16.598 3.506-16.598 10.679 0 4.3831 3.272 8.488 8.959 8.488 3.502 0 6.429-1.396 8.184-3.634h0.17099s1.163 4.859 7.565 3c-0.33499-2.021-0.444-4.178-0.444-6.772v-9.9"/>
			<path class="st1" fill="#fff" d="m-199.87 1270.2v-29.479h-7.601v37.424h7.601v-7.9"/>
			<path class="st1" fill="#fff" d="m-100.43 1240.7v27.607c0 3.808 0.718 6.473 2.249 8.104 1.341 1.426 3.545 2.349 6.188 2.349 2.248 0 4.458-0.42896 5.501-0.81604l-0.098007-5.938c-0.776 0.18994-1.667 0.34302-2.887 0.34302-2.59 0-3.456-1.6591-3.456-5.076v-10.563h6.619v-7.161h-6.619v-8.849h-7.497"/>
			<path class="st1" fill="#fff" d="m-120.05 1250v28.114h7.841v-14.395c0-0.77795 0.046997-1.4561 0.17-2.076 0.58-3.017 2.886-4.943 6.198-4.943 0.908 0 1.558 0.098999 2.262 0.19897v-7.36c-0.591-0.11804-0.992-0.17297-1.727-0.17297-2.926 0-6.255 1.8879-7.652 5.938h-0.21201v-5.304h-6.88"/>
			<path class="st1" fill="#fff" d="m-194.54 1250v28.114h7.639v-16.486c0-0.77405 0.091003-1.592 0.35899-2.301 0.633-1.66 2.178-3.604 4.643-3.604 3.084 0 4.524 2.606 4.524 6.3669v16.023h7.633v-16.687c0-0.73804 0.101-1.6281 0.319-2.2791 0.627-1.889 2.291-3.425 4.583-3.425 3.125 0 4.625 2.5601 4.625 6.9871v15.403h7.638v-16.559c0-8.7321-4.434-12.189-9.44-12.189-2.215 0-3.965 0.55505-5.548 1.524-1.329 0.81897-2.521 1.979-3.561 3.504h-0.11301c-1.207-3.03-4.047-5.028-7.748-5.028-4.755 0-6.892 2.41-8.188 4.454h-0.114v-3.8199h-7.251"/>
		</g>
	</g>
</switch>
</svg>
