<?xml version="1.0" encoding="UTF-8" standalone="no"?>
<svg viewBox="0 0 151.44 100" xmlns="http://www.w3.org/2000/svg" xmlns:dc="http://purl.org/dc/elements/1.1/" xmlns:rdf="http://www.w3.org/1999/02/22-rdf-syntax-ns#" version="1.1" xmlns:cc="http://creativecommons.org/ns#">
<defs>
<clipPath id="a" clipPathUnits="userSpaceOnUse">
<path d="m0 792.02h594v-792h-594v792z"/>
</clipPath>
<clipPath id="b" clipPathUnits="userSpaceOnUse">
<path d="m0 792h594v-792h-594v792z"/>
</clipPath>
<clipPath id="c" clipPathUnits="userSpaceOnUse">
<path d="m329.07 744.5h243v-102.91h-243v102.91z" clip-rule="evenodd"/>
</clipPath>
</defs>
<metadata>
<rdf:RDF>
<cc:Work rdf:about="">
<dc:format>image/svg+xml</dc:format>
<dc:type rdf:resource="http://purl.org/dc/dcmitype/StillImage"/>
<dc:title/>
</cc:Work>
</rdf:RDF>
</metadata>
<g transform="translate(-225.96 -141.49)">
<g transform="matrix(1.25 0 0 -1.25 34.111 1063.2)">
<g transform="matrix(1.1188 0 0 1.1188 -256.73 -90.288)">
<g clip-path="url(#c)">
<g clip-path="url(#b)">
<g clip-path="url(#a)">
<g fill="#fff">
<path d="m418.09 676.09c-21.351-1.969-43.585 1.13-46.693 17.812-1.534 8.218 2.215 16.939 7.188 22.355v2.896c-8.955-7.852-13.806-17.783-11.013-29.515 3.574-15.048 22.664-23.568 51.801-20.738 11.53 1.119 26.615 4.831 37.105 10.591v8.182c-9.527-5.674-25.267-10.371-38.388-11.583zm56.215 43.262c-5.073 24.711-53.046 26.274-83.977 7.447v-2.078c30.895 15.888 74.707 15.791 78.701-6.976 1.336-7.536-2.899-15.384-10.475-19.889v-5.912c9.115 3.345 18.47 14.157 15.751 27.408"/>
<path d="m454.75 722.95h-5.59v-24.911c0-2.926 1.412-5.466 5.59-5.868v30.779"/>
<path d="m388.12 713.85h-5.597v-16.279c0-2.927 1.412-5.467 5.597-5.87v22.149"/>
<path d="m382.52 716.89h5.5869v5.2998h-5.5869v-5.2998z"/>
<path d="m421.64 691.96c-4.524 0-6.443 3.15-6.443 6.257v21.612h5.542v-5.978h4.176v-4.483h-4.176v-10.812c0-1.27 0.609-1.968 1.923-1.968h2.253v-4.628h-3.275"/>
<path d="m431.84 701.17c0-2.836 1.777-4.926 4.916-4.926 2.465 0 3.677 0.687 5.099 2.09l3.416-3.275c-2.181-2.161-4.492-3.478-8.551-3.478-5.315 0-10.405 2.901-10.405 11.341 0 7.22 4.441 11.295 10.273 11.295 5.924 0 9.329-4.778 9.329-11.042v-2.005h-14.077m4.51 8.461c-1.894 0-3.359-0.977-3.966-2.298-0.37-0.797-0.498-1.402-0.544-2.379h8.549c-0.11 2.383-1.191 4.677-4.039 4.677"/>
<path d="m403.2 709.37c1.621 0 2.302-0.804 2.302-2.102v-15.332h5.548v15.356c0 3.118-1.666 6.554-6.53 6.554l-11.461 0.007v-21.917h5.545v17.434h4.596"/>
<path d="m460.78 718.5c-1.231 0-2.222 0.996-2.222 2.227 0 1.227 0.991 2.223 2.222 2.223 1.227 0 2.228-0.996 2.228-2.223 0-1.231-1.001-2.227-2.228-2.227zm0 4.08c-1.02 0-1.844-0.832-1.844-1.853 0-1.02 0.824-1.844 1.844-1.844 1.016 0 1.853 0.824 1.853 1.844 0 1.021-0.837 1.853-1.853 1.853zm0.986-3.185h-0.415c-0.039 0-0.07 0.027-0.086 0.062l-0.567 0.953c-0.003 0.017-0.059 0.04-0.082 0.04h-0.16-0.089v-0.954c0-0.051-0.04-0.101-0.096-0.101h-0.375c-0.054 0-0.096 0.05-0.096 0.101v2.404c0 0.144 0.05 0.202 0.178 0.218 0.122 0.017 0.478 0.031 0.677 0.031 0.692 0 1.102-0.206 1.102-0.848v-0.05c0-0.395-0.202-0.606-0.5-0.712l0.579-0.991c0.007-0.016 0.015-0.044 0.015-0.071 0-0.039-0.024-0.082-0.085-0.082zm-0.553 1.906c0 0.267-0.152 0.365-0.515 0.365h-0.249-0.098v-0.778c0.054 0 0.304-0.009 0.347-0.009 0.372 0 0.515 0.117 0.515 0.372v0.05"/>
</g>
</g>
</g>
</g>
</g>
</g>
</g>
</svg>
