<?xml version="1.0" encoding="UTF-8" standalone="no"?>
<svg viewBox="0 0 1200 839" xmlns:cc="http://creativecommons.org/ns#" xmlns:dc="http://purl.org/dc/elements/1.1/" xmlns="http://www.w3.org/2000/svg" xmlns:rdf="http://www.w3.org/1999/02/22-rdf-syntax-ns#" version="1.1">
<metadata>
<rdf:RDF>
<cc:Work rdf:about="">
<dc:format>image/svg+xml</dc:format>
<dc:type rdf:resource="http://purl.org/dc/dcmitype/StillImage"/>
</cc:Work>
</rdf:RDF>
</metadata>
<g transform="matrix(3.3219 0 0 3.3219 145.1 282.07)">
<path d="m280.4 54.2c2.2 0 4 1.8 4 4s-1.8 4-4 4-4-1.8-4-4c0.1-2.2 1.8-4 4-4zm0 7.3c1.8 0 3.3-1.5 3.3-3.3s-1.4-3.3-3.3-3.3c-1.8 0-3.3 1.5-3.3 3.3 0.1 1.8 1.5 3.3 3.3 3.3zm0.7-2.7c0.6-0.2 0.9-0.7 0.9-1.2 0-0.7-0.4-1.3-1.3-1.3h-1.6v4h0.8v-1.4h0.3l1 1.4h1l-1.1-1.5zm-0.5-1.8c0.3 0 0.5 0.3 0.5 0.5 0 0.3-0.2 0.5-0.5 0.5h-0.7v-1h0.7z" fill="#fff"/>
<path d="m74.328 74.604c-17.771 17.771-46.542 17.771-64.313 0s-17.771-46.542 0-64.313 46.542-17.771 64.313 0 17.771 46.542 0 64.313" fill="#fff"/>
<path d="m76.884 20.306c0.81284 2.7433 1.3209 5.5883 1.3209 8.5348 0 9.6525-4.7754 18.086-11.989 23.471-12.497 9.2461-30.786 9.2461-55.984 17.171 7.6204 9.1445 19 14.936 31.802 14.936 22.963 0 41.455-18.594 41.455-41.455 0-8.4332-2.4385-16.155-6.6043-22.658" fill="#005992"/>
<path d="m66.927 9.6371c-6.909-5.1819-15.546-8.3316-24.893-8.3316-22.963 0-41.455 18.594-41.455 41.556 0 9.2461 3.0482 17.781 8.1284 24.588 27.84-8.128 49.888-29.973 58.22-57.813" fill="#ed1a38"/>
</g>
</svg>
