<?xml version="1.0" encoding="UTF-8" standalone="no"?>
<svg xmlns:rdf="http://www.w3.org/1999/02/22-rdf-syntax-ns#" xmlns="http://www.w3.org/2000/svg" version="1.1" viewBox="0 0 1200 839" xmlns:dc="http://purl.org/dc/elements/1.1/" xmlns:cc="http://creativecommons.org/ns#">
<metadata>
<rdf:RDF>
<cc:Work rdf:about="">
<dc:format>image/svg+xml</dc:format>
<dc:type rdf:resource="http://purl.org/dc/dcmitype/StillImage"/>
<dc:title/>
</cc:Work>
</rdf:RDF>
</metadata>
<g transform="matrix(3.3219 0 0 3.3219 145.1 282.07)">
<g fill="#fff">
<path d="m182 42.4c0-0.4-0.1-1-0.2-1.7-0.1-1.1-0.4-2.3-0.7-3.4-2.6-8.2-9.6-13.5-17.8-13.5-0.8 0-1.7 0.1-2.5 0.2-10.5 1.4-17.7 10.9-16.3 21.7 1.3 9.8 9.1 16.5 18.7 16.5 0.8 0 1.7-0.1 2.5-0.2 5.1-0.6 9.6-2.8 13-7 0.2-0.2 0.3-0.5 0.2-0.8 0-0.2-0.2-0.5-0.4-0.7-0.6-0.4-2.6-1.4-3.7-1.9-0.3-0.2-0.6-0.3-0.7-0.4-0.3-0.2-0.6-0.2-0.8-0.2-0.3 0-0.5 0.1-0.8 0.4-2.2 2.5-4.9 3.8-7.7 4.2-0.6 0.1-1.1 0.1-1.6 0.1-5.1 0-10.3-3.4-11.8-8.1v-0.1l0.1-0.1c0.3-0.1 2.7-1.2 6.2-1.2 0.4 0 0.9 0 1.3 0.1 1 0.1 2 0.2 3.1 0.3 2 0.3 4 0.5 6.5 0.5 1.5 0 2.9-0.1 4.4-0.3 5.8-1.1 8.2-2.8 8.2-2.8 0.9-0.4 0.8-0.8 0.8-1.6m-6.6-2.4c-1 0.3-2.3 0.6-3.9 0.8-0.8 0.1-1.6 0.2-2.7 0.2-1.7 0-3.6-0.1-5.3-0.3h-0.1c-1.7-0.1-3.2-0.2-4.7-0.2-1.1 0-2.1 0.1-3 0.2-2.8 0.3-5 1.2-5 1.2v-0.2c0.5-5.6 5.3-10.5 11-11.2 0.5-0.1 1.1-0.1 1.6-0.1 5.4 0 10.6 4.1 12.2 9.5v0.1h-0.1z"/>
<path d="m273.6 26c0-0.5-0.4-0.9-0.9-0.9h-4.8c-0.5 0-0.9 0.4-0.9 0.9v34.4c0 0.5 0.4 0.9 0.9 0.9h4.8c0.5 0 0.9-0.4 0.9-0.9v-34.4z"/>
<path d="m270.3 12.8c-2.4 0-4.4 2-4.4 4.4s2 4.4 4.4 4.4 4.4-2 4.4-4.4c-0.1-2.4-2-4.4-4.4-4.4"/>
<path d="m206 62.2h0.9c5 0 9.6-1.9 13-5.4 3.5-3.5 5.4-8.4 5.4-13.6 0-10.9-8.4-19.4-19.1-19.4-8.7 0-16 5.7-18.3 14.2-0.4 1.4-0.8 5.1-0.8 8.8v27c0 0.5 0.4 0.9 0.9 0.9h4.8c0.5 0 0.9-0.4 0.9-0.9v-17l0.3 0.2c2.4 2.4 6.8 5 12 5.2m0.2-31.8c6.9 0 12.2 5.6 12.2 12.9s-5.1 12.7-11.9 12.7c-3.4 0-6.6-1.2-8.9-3.4-2.4-2.3-3.7-5.5-3.7-9.1 0.1-7.3 5.6-13.1 12.3-13.1"/>
<path d="m119.7 62.2h0.9c5 0 9.6-1.9 13-5.4 3.5-3.5 5.4-8.4 5.4-13.6 0-10.9-8.4-19.4-19.1-19.4-8.7 0-16 5.7-18.3 14.2-0.4 1.4-0.8 5.1-0.8 8.8v27c0 0.5 0.4 0.9 0.9 0.9h4.8c0.5 0 0.9-0.4 0.9-0.9v-17l0.2 0.2c2.5 2.4 6.9 5 12.1 5.2m0.2-31.8c6.9 0 12.2 5.6 12.2 12.9s-5.1 12.7-11.9 12.7c-3.4 0-6.6-1.2-8.9-3.4-2.4-2.3-3.7-5.5-3.7-9.1 0.1-7.3 5.6-13.1 12.3-13.1"/>
<path d="m230 56.2c4.2 3.8 8.7 6 14.7 6h0.2c10.2-0.1 14.8-5.7 14.8-11.2 0-7.6-7.2-9.7-9.4-10.2-0.7-0.1-1.4-0.3-2.2-0.4-1.8-0.3-3.6-0.7-5.3-1.2-1.2-0.3-5-1.6-5-4.5 0-3.2 3.5-4.9 6.8-4.9 2.8 0 5.1 0.5 8 2.8 0.2 0.2 0.6 0.4 0.9 0.4s0.6-0.1 0.9-0.3c0.8-0.6 2.3-1.9 3.3-2.9 0.2-0.2 0.3-0.5 0.3-0.8 0-0.4-0.3-0.8-0.5-0.9-3.9-3.1-7.7-4.4-13.1-4.4-7.7 0-13.5 4.9-13.5 11.5 0 5.2 4.3 8.9 12 10.4l4.8 0.9c3.2 0.6 5 2.3 4.9 4.6s-2.9 4.7-7.5 4.7c-3.8 0-7.1-1.5-9.9-4-0.2-0.2-0.4-0.4-0.8-0.4-0.2 0-0.5 0.1-0.7 0.3-0.3 0.2-3.5 2.8-3.9 3.1-0.2 0.2-0.2 0.3-0.2 0.5 0 0.4 0.2 0.7 0.4 0.9"/>
</g>
<path d="m280.4 54.2c2.2 0 4 1.8 4 4s-1.8 4-4 4-4-1.8-4-4c0.1-2.2 1.8-4 4-4zm0 7.3c1.8 0 3.3-1.5 3.3-3.3s-1.4-3.3-3.3-3.3c-1.8 0-3.3 1.5-3.3 3.3 0.1 1.8 1.5 3.3 3.3 3.3zm0.7-2.7c0.6-0.2 0.9-0.7 0.9-1.2 0-0.7-0.4-1.3-1.3-1.3h-1.6v4h0.8v-1.4h0.3l1 1.4h1l-1.1-1.5zm-0.5-1.8c0.3 0 0.5 0.3 0.5 0.5 0 0.3-0.2 0.5-0.5 0.5h-0.7v-1h0.7z" fill="#fff"/>
<path fill="#fff" d="m74.328 74.604c-17.771 17.771-46.542 17.771-64.313 0s-17.771-46.542 0-64.313 46.542-17.771 64.313 0 17.771 46.542 0 64.313"/>
<path fill="#005992" d="m76.884 20.306c0.81284 2.7433 1.3209 5.5883 1.3209 8.5348 0 9.6525-4.7754 18.086-11.989 23.471-12.497 9.2461-30.786 9.2461-55.984 17.171 7.6204 9.1445 19 14.936 31.802 14.936 22.963 0 41.455-18.594 41.455-41.455 0-8.4332-2.4385-16.155-6.6043-22.658"/>
<path fill="#ed1a38" d="m66.927 9.6371c-6.909-5.1819-15.546-8.3316-24.893-8.3316-22.963 0-41.455 18.594-41.455 41.556 0 9.2461 3.0482 17.781 8.1284 24.588 27.84-8.128 49.888-29.973 58.22-57.813"/>
</g>
</svg>
