<?xml version="1.0" encoding="UTF-8" standalone="no"?>
<!-- Created with Inkscape (http://www.inkscape.org/) -->

<svg
   xmlns:dc="http://purl.org/dc/elements/1.1/"
   xmlns:cc="http://creativecommons.org/ns#"
   xmlns:rdf="http://www.w3.org/1999/02/22-rdf-syntax-ns#"
   xmlns:svg="http://www.w3.org/2000/svg"
   xmlns="http://www.w3.org/2000/svg"
   xmlns:sodipodi="http://sodipodi.sourceforge.net/DTD/sodipodi-0.dtd"
   xmlns:inkscape="http://www.inkscape.org/namespaces/inkscape"
   version="1.0"
   width="800"
   height="800"
   id="svg2"
   sodipodi:version="0.32"
   inkscape:version="0.48.5 r10040"
   sodipodi:docname="car.svg">
  <metadata
     id="metadata2729">
    <rdf:RDF>
      <cc:Work
         rdf:about="">
        <dc:format>image/svg+xml</dc:format>
        <dc:type
           rdf:resource="http://purl.org/dc/dcmitype/StillImage" />
        <dc:source>http://commons.mediawiki.org/wiki/Image:Zusatzzeichen_1048-10.svg</dc:source>
        <dc:creator>
          <cc:Agent>
            <dc:title>Purodha Blissenbach</dc:title>
          </cc:Agent>
        </dc:creator>
        <dc:title>Symbol: Personenkraftwagen</dc:title>
        <cc:license
           rdf:resource="http://web.resource.org/cc/PublicDomain" />
      </cc:Work>
      <cc:License
         rdf:about="http://web.resource.org/cc/PublicDomain">
        <cc:permits
           rdf:resource="http://web.resource.org/cc/Reproduction" />
        <cc:permits
           rdf:resource="http://web.resource.org/cc/Distribution" />
        <cc:permits
           rdf:resource="http://web.resource.org/cc/DerivativeWorks" />
      </cc:License>
    </rdf:RDF>
  </metadata>
  <sodipodi:namedview
     inkscape:window-height="710"
     inkscape:window-width="1040"
     inkscape:pageshadow="2"
     inkscape:pageopacity="1"
     guidetolerance="10.0"
     gridtolerance="10.0"
     objecttolerance="10.0"
     borderopacity="1.0"
     bordercolor="#666666"
     pagecolor="white"
     id="base"
     inkscape:zoom="0.9899495"
     inkscape:cx="410.21724"
     inkscape:cy="449.94932"
     inkscape:window-x="20"
     inkscape:window-y="20"
     inkscape:current-layer="svg2"
     inkscape:showpageshadow="false"
     showgrid="true"
     height="360px"
     width="800px"
     inkscape:window-maximized="0"
     inkscape:snap-grids="false">
    <inkscape:grid
       id="GridFromPre046Settings"
       type="xygrid"
       originx="0px"
       originy="0px"
       spacingx="1px"
       spacingy="1px"
       color="#3f3fff"
       empcolor="#3f3fff"
       opacity="0.15"
       empopacity="0.38"
       empspacing="20"
       visible="true"
       enabled="true"
       snapvisiblegridlinesonly="true" />
  </sodipodi:namedview>
  <defs
     id="defs4" />
  <path
     style="fill:#ffffff;stroke:none;stroke-width:1px;stroke-linecap:butt;stroke-linejoin:miter;stroke-opacity:1"
     d="m 231.32493,340.3806 c 0,0 94.95434,-95.96449 102.02541,-98.99495 7.07107,-3.03046 301.02545,-8.08122 308.09652,-4.04061 7.07107,4.04061 142.43151,113.13708 147.48227,119.198 5.05077,6.06091 6.06092,132.32998 1.01016,138.39089 -5.05076,6.06092 -54.54824,5.05077 -54.54824,5.05077 0,0 -13.18804,56.82425 -72.73098,59.599 -52.5445,2.44862 -74.75129,-58.58885 -74.75129,-58.58885 l -368.70568,2.0203 c 0,0 -20.20828,56.02472 -75.76144,56.56855 -52.535126,0.51428 -74.751287,-58.58885 -74.751287,-58.58885 0,0 -48.487323,2.0203 -55.55839,-8.08122 -7.0710678,-10.10153 -5.0507627,-100.0051 0,-106.06602 C 18.182746,380.7867 231.32493,340.3806 231.32493,340.3806 z"
     id="path2990"
     inkscape:connector-curvature="0"
     sodipodi:nodetypes="csssscsccscssc" />
  <g
     transform="matrix(1.17988,0,0,1.17988,616.52618,-11.264527)"
     id="g1919">
    <path
       d="m -349.51018,422.04401 c 0,27.7265 -22.47676,50.20326 -50.20326,50.20326 -27.7265,0 -50.20326,-22.47676 -50.20326,-50.20326 0,-27.72649 22.47676,-50.20326 50.20326,-50.20326 27.7265,0 50.20326,22.47677 50.20326,50.20326 l 0,0 z"
       style="fill:#000000;fill-opacity:1;fill-rule:nonzero;stroke:none"
       id="path25345"
       inkscape:connector-curvature="0" />
    <path
       d="m -239.55303,230.32142 c 2.67342,-3.09507 5.71987,-5.75492 11.34279,-5.40889 l 242.86757,0 120.70418,95.83917 c 1.33193,2.81513 2.0059,4.97229 2.34382,6.79341 l 0.45873,84.92698 c -2.24353,4.86804 -4.88297,9.02345 -9.59029,9.45667 l -28.01514,0 c 0,-83.03197 -122.75209,-83.20155 -122.75209,0 l -315.38129,0 c 0,-82.70991 -123.68626,-83.02726 -123.68626,0 l -34.17452,0 c -2.91395,-1.36302 -5.53563,-0.0955 -9.3857,-9.88359 l -0.37368,-61.07281 c 1.98734,-5.55663 4.466,-7.67397 6.93908,-9.83035 l 177.52462,-29.49107 81.17818,-81.32952 z"
       style="fill:#000000;fill-opacity:1;fill-rule:evenodd;stroke:none"
       id="path24454"
       inkscape:connector-curvature="0" />
    <path
       d="m 88.86912,422.0229 c 0,27.7265 -22.47676,50.20326 -50.20326,50.20326 -27.7265,0 -50.20326,-22.47676 -50.20326,-50.20326 0,-27.72649 22.47676,-50.20326 50.20326,-50.20326 27.7265,0 50.20326,22.47677 50.20326,50.20326 l 0,0 z"
       style="fill:#000000;fill-opacity:1;fill-rule:nonzero;stroke:none"
       id="path25343"
       inkscape:connector-curvature="0" />
    <path
       d="M 44.15052,305.12148 -7.6922,252.9107 c -1.36397,-1.15913 -2.43673,-2.75506 -4.80761,-2.40381 l -90.49807,0 0,73.11573 154.23441,0 c 7.29833,-1.45538 -2.30567,-11.30195 -7.08601,-18.50114 z"
       style="fill:#ffffff;fill-opacity:1;fill-rule:evenodd;stroke:none"
       id="path26236"
       inkscape:connector-curvature="0" />
    <path
       d="m -295.85961,312.59455 60.49577,-59.6945 c 1.36397,-1.15912 2.43673,-2.75505 4.80761,-2.4038 l 107.57028,0 0,73.11574 -168.26636,0 c -6.40563,-2.52663 -7.2724,-6.35652 -4.6073,-11.01744 z"
       style="fill:#ffffff;fill-opacity:1;fill-rule:evenodd;stroke:none"
       id="path25349"
       inkscape:connector-curvature="0" />
  </g>
</svg>
