<?xml version="1.0" encoding="UTF-8" standalone="no"?>
<!-- Generator: Adobe Illustrator 13.0.2, SVG Export Plug-In . SVG Version: 6.00 Build 14948)  -->

<svg
   xmlns:dc="http://purl.org/dc/elements/1.1/"
   xmlns:cc="http://creativecommons.org/ns#"
   xmlns:rdf="http://www.w3.org/1999/02/22-rdf-syntax-ns#"
   xmlns:svg="http://www.w3.org/2000/svg"
   xmlns="http://www.w3.org/2000/svg"
   xmlns:sodipodi="http://sodipodi.sourceforge.net/DTD/sodipodi-0.dtd"
   xmlns:inkscape="http://www.inkscape.org/namespaces/inkscape"
   version="1.1"
   id="Layer_1"
   x="0px"
   y="0px"
   width="800"
   height="800"
   viewBox="-0.258 -0.548 800.00002 799.99999"
   xml:space="preserve"
   inkscape:version="0.48.5 r10040"
   sodipodi:docname="sport.svg"><metadata
   id="metadata21"><rdf:RDF><cc:Work
       rdf:about=""><dc:format>image/svg+xml</dc:format><dc:type
         rdf:resource="http://purl.org/dc/dcmitype/StillImage" /></cc:Work></rdf:RDF></metadata><defs
   id="defs19" /><sodipodi:namedview
   pagecolor="#ffffff"
   bordercolor="#666666"
   borderopacity="1"
   objecttolerance="10"
   gridtolerance="10"
   guidetolerance="10"
   inkscape:pageopacity="0"
   inkscape:pageshadow="2"
   inkscape:window-width="949"
   inkscape:window-height="801"
   id="namedview17"
   showgrid="true"
   inkscape:zoom="0.6754029"
   inkscape:cx="375.54639"
   inkscape:cy="442.88952"
   inkscape:window-x="0"
   inkscape:window-y="0"
   inkscape:window-maximized="0"
   inkscape:current-layer="Layer_1"
   inkscape:snap-grids="false"><inkscape:grid
     type="xygrid"
     id="grid2998"
     empspacing="5"
     visible="true"
     enabled="true"
     snapvisiblegridlinesonly="true" /></sodipodi:namedview>
<path
   style="fill:#ffffff;stroke:none;stroke-width:1px;stroke-linecap:butt;stroke-linejoin:miter;stroke-opacity:1;fill-opacity:1"
   d="m 435.29573,552.74018 57.74331,173.22993 c 0,0 26.65076,32.57315 65.1463,16.28658 38.49554,-16.28658 35.53435,-65.1463 35.53435,-65.1463 l -72.54929,-222.08966 0,-192.47771 c 0,0 -1.4806,-16.28657 -8.88359,-23.68956 -7.40298,-7.40299 -25.17016,-5.92239 -25.17016,-5.92239 0,0 20.72837,-22.20897 20.72837,-41.45674 0,-34.05375 -25.17996,-74.29085 -68.10749,-72.54929 -50.32364,2.04162 -72.54929,28.13136 -72.54929,68.1075 0,22.20897 22.20896,47.37913 22.20896,47.37913 l -23.68956,0 -51.82092,29.61195 -32.57315,-32.57315 156.94336,-136.214989 c 0,0 17.81647,-26.601455 -4.4418,-48.859725 -19.24777,-19.24777 -44.41792,-4.441793 -44.41792,-4.441793 L 235.41504,200.35792 c 0,0 -19.24777,-5.92239 -35.53435,13.32538 -16.28657,19.24777 -11.84478,35.53434 -11.84478,35.53434 0,0 -23.68956,5.9224 -23.68956,19.24778 0,13.32537 20.72837,37.01494 37.01494,38.49554 16.28658,1.48059 20.72837,-7.40299 20.72837,-7.40299 l 56.26271,59.22391 c 0,0 8.88359,11.84478 22.20897,11.84478 13.32538,0 23.68956,-7.40299 23.68956,-7.40299 l 29.61196,-13.32538 -1.4806,100.68065 -78.47168,236.89563 c 0,0 -7.40299,37.01495 34.05375,56.26272 41.45673,19.24777 68.10749,-13.32538 68.10749,-13.32538 z"
   id="path2987"
   inkscape:connector-curvature="0"
   transform="translate(-0.258,-0.548015)"
   sodipodi:nodetypes="ccscccscssscccccsccscssccsccccscc" /><g
   id="g3"
   transform="matrix(6.1511073,0,0,6.1511073,14.433573,20.965141)">
	
	
	<path
   style="fill:#000000"
   d="m 68.758,35.34 c 4.57,0 8.281,-3.711 8.281,-8.281 0,-4.562 -3.711,-8.273 -8.281,-8.273 -4.562,0 -8.273,3.711 -8.273,8.273 -10e-4,4.57 3.71,8.281 8.273,8.281 z"
   id="path9"
   inkscape:connector-curvature="0" />
	<path
   style="fill:#000000"
   d="M 91.242,107.605 79.039,70.543 V 40.879 c 0,-3.883 -3.883,-3.711 -3.883,-3.711 H 62.68 59.383 c 0,0 -0.656,-0.094 -2.016,1.016 l -9.18,5.359 -9.586,-9.594 c -1.562,-1.859 -4.32,-2.125 -6.172,-0.562 -1.883,1.562 -1.984,4.391 -0.422,6.273 l 12.227,12.227 c 0.828,0.883 1.977,1.484 3.266,1.484 0.953,0 1.836,-0.312 2.562,-0.812 l 8.055,-4.43 v 21.758 l -12.32,37.648 c -0.906,3.273 1.047,6.641 4.344,7.523 3.273,0.875 6.641,-1.078 7.516,-4.352 l 10.766,-32.492 10.961,32.57 c 0.875,3.297 4.25,5.227 7.516,4.344 3.272,-0.882 5.225,-4.249 4.342,-7.523 z"
   id="path11"
   inkscape:connector-curvature="0" />
	<path
   style="fill:#000000"
   d="m 29.836,43.832 c 0.414,0.43 1.125,0.438 1.562,0 l 0.148,-0.117 c 0.414,-0.445 0.438,-1.148 0,-1.578 l -2.391,-2.453 c -0.438,-0.438 -1.148,-0.438 -1.586,-0.016 l -0.125,0.141 c -0.438,0.438 -0.461,1.133 -0.023,1.562 l 2.415,2.461 z"
   id="path13"
   inkscape:connector-curvature="0" />
	<path
   style="fill:#000000"
   d="M 52.727,16.051 38.602,31.324 40.313,33.066 56.07,19.48 66.539,9.824 C 66.953,9.363 67.227,8.754 67.227,8.09 67.227,6.629 66.055,5.434 64.61,5.418 63.899,5.402 63.29,5.676 62.805,6.09 l -10.078,9.961 z"
   id="path15"
   inkscape:connector-curvature="0" />
</g>
</svg>