<?xml version="1.0" encoding="UTF-8" standalone="no"?>
<!-- Created with Inkscape (http://www.inkscape.org/) -->

<svg
   xmlns:dc="http://purl.org/dc/elements/1.1/"
   xmlns:cc="http://creativecommons.org/ns#"
   xmlns:rdf="http://www.w3.org/1999/02/22-rdf-syntax-ns#"
   xmlns:svg="http://www.w3.org/2000/svg"
   xmlns="http://www.w3.org/2000/svg"
   xmlns:sodipodi="http://sodipodi.sourceforge.net/DTD/sodipodi-0.dtd"
   xmlns:inkscape="http://www.inkscape.org/namespaces/inkscape"
   version="1.0"
   width="800"
   height="800"
   id="svg2"
   inkscape:version="0.48.5 r10040"
   sodipodi:docname="tv.svg">
  <metadata
     id="metadata16">
    <rdf:RDF>
      <cc:Work
         rdf:about="">
        <dc:format>image/svg+xml</dc:format>
        <dc:type
           rdf:resource="http://purl.org/dc/dcmitype/StillImage" />
      </cc:Work>
    </rdf:RDF>
  </metadata>
  <sodipodi:namedview
     pagecolor="#ffffff"
     bordercolor="#666666"
     borderopacity="1"
     objecttolerance="10"
     gridtolerance="10"
     guidetolerance="10"
     inkscape:pageopacity="0"
     inkscape:pageshadow="2"
     inkscape:window-width="908"
     inkscape:window-height="746"
     id="namedview14"
     showgrid="true"
     inkscape:zoom="0.46732026"
     inkscape:cx="371.18205"
     inkscape:cy="282.70157"
     inkscape:window-x="174"
     inkscape:window-y="194"
     inkscape:window-maximized="0"
     inkscape:current-layer="g12"
     inkscape:snap-grids="false">
    <inkscape:grid
       type="xygrid"
       id="grid2993"
       empspacing="5"
       visible="true"
       enabled="true"
       snapvisiblegridlinesonly="true" />
  </sodipodi:namedview>
  <defs
     id="defs4">
    <marker
       markerUnits="strokeWidth"
       refX="0"
       refY="5"
       markerWidth="4"
       markerHeight="3"
       orient="auto"
       viewBox="0 0 10 10"
       id="ArrowEnd">
      <path
         d="M 0,0 10,5 0,10 0,0 z"
         id="path7"
         inkscape:connector-curvature="0" />
    </marker>
    <marker
       markerUnits="strokeWidth"
       refX="10"
       refY="5"
       markerWidth="4"
       markerHeight="3"
       orient="auto"
       viewBox="0 0 10 10"
       id="ArrowStart">
      <path
         d="M 10,0 0,5 10,10 10,0 z"
         id="path10"
         inkscape:connector-curvature="0" />
    </marker>
  </defs>
  <g
     transform="matrix(29.684965,0,0,29.684965,40.000036,130.085)"
     id="g12">
    <rect
       style="color:#000000;fill:#ffffff;fill-opacity:1;fill-rule:nonzero;stroke:none;stroke-width:20;marker:none;visibility:visible;display:inline;overflow:visible;enable-background:accumulate"
       id="rect2990"
       width="25.662497"
       height="19.679386"
       x="-0.69871372"
       y="-0.78826714" />
    <path
       d="m 0,0 24.2547,0 0,18.1853 L 0,18.1853 0,0 z"
       style="fill:#000000;fill-rule:evenodd;stroke:none"
       id="path14"
       inkscape:connector-curvature="0" />
    <path
       d="M 21.9806,9.0135 C 21.9505,5.8358 21.8299,4.4502 21.077,3.4712 20.9415,3.2605 20.6854,3.14 20.4746,2.9895 19.7366,2.4472 16.2577,2.2515 12.2215,2.2515 8.1853,2.2515 4.54077,2.4472 3.81787,2.9895 3.59192,3.14 3.33581,3.2605 3.1853,3.4712 2.44726,4.4502 2.34192,5.8358 2.29675,9.0135 c 0.04517,3.1779 0.15051,4.5634 0.88855,5.5423 0.15051,0.2259 0.40662,0.3313 0.63257,0.4819 0.7229,0.5573 4.36743,0.738 8.40363,0.7681 4.0362,-0.0301 7.5151,-0.2108 8.2531,-0.7681 0.2108,-0.1506 0.4669,-0.256 0.6024,-0.4819 0.7529,-0.9789 0.8735,-2.3644 0.9036,-5.5423 z"
       style="fill:#ffffff;fill-rule:evenodd;stroke:none"
       id="path16"
       inkscape:connector-curvature="0" />
    <path
       d="M 21.9806,9.0135 C 21.9505,5.8358 21.8299,4.4502 21.077,3.4712 20.9415,3.2605 20.6854,3.14 20.4746,2.9895 19.7366,2.4472 16.2577,2.2515 12.2215,2.2515 8.1853,2.2515 4.54077,2.4472 3.81787,2.9895 3.59192,3.14 3.33581,3.2605 3.1853,3.4712 2.44726,4.4502 2.34192,5.8358 2.29675,9.0135 c 0.04517,3.1779 0.15051,4.5634 0.88855,5.5423 0.15051,0.2259 0.40662,0.3313 0.63257,0.4819 0.7229,0.5573 4.36743,0.738 8.40363,0.7681 4.0362,-0.0301 7.5151,-0.2108 8.2531,-0.7681 0.2108,-0.1506 0.4669,-0.256 0.6024,-0.4819 0.7529,-0.9789 0.8735,-2.3644 0.9036,-5.5423 z"
       style="fill:none;stroke:#000000;stroke-width:0.02387423"
       id="path18"
       inkscape:connector-curvature="0" />
  </g>
</svg>
