<?xml version="1.0" encoding="UTF-8" standalone="no"?>
<svg
   xmlns:dc="http://purl.org/dc/elements/1.1/"
   xmlns:cc="http://creativecommons.org/ns#"
   xmlns:rdf="http://www.w3.org/1999/02/22-rdf-syntax-ns#"
   xmlns:svg="http://www.w3.org/2000/svg"
   xmlns="http://www.w3.org/2000/svg"
   xmlns:sodipodi="http://sodipodi.sourceforge.net/DTD/sodipodi-0.dtd"
   xmlns:inkscape="http://www.inkscape.org/namespaces/inkscape"
   width="800"
   height="800"
   id="svg2987"
   version="1.1"
   inkscape:version="0.48.5 r10040"
   sodipodi:docname="web.svg">
  <metadata
     id="metadata2995">
    <rdf:RDF>
      <cc:Work
         rdf:about="">
        <dc:format>image/svg+xml</dc:format>
        <dc:type
           rdf:resource="http://purl.org/dc/dcmitype/StillImage" />
      </cc:Work>
    </rdf:RDF>
  </metadata>
  <defs
     id="defs2993" />
  <sodipodi:namedview
     pagecolor="#ffffff"
     bordercolor="#666666"
     borderopacity="1"
     objecttolerance="10"
     gridtolerance="10"
     guidetolerance="10"
     inkscape:pageopacity="0"
     inkscape:pageshadow="2"
     inkscape:window-width="1064"
     inkscape:window-height="877"
     id="namedview2991"
     showgrid="true"
     inkscape:snap-grids="true"
     inkscape:zoom="0.56190477"
     inkscape:cx="593.22096"
     inkscape:cy="387.55445"
     inkscape:window-x="0"
     inkscape:window-y="0"
     inkscape:window-maximized="0"
     inkscape:current-layer="svg2987">
    <inkscape:grid
       type="xygrid"
       id="grid2997"
       empspacing="5"
       visible="true"
       enabled="true"
       snapvisiblegridlinesonly="true" />
  </sodipodi:namedview>
  <path
     sodipodi:type="arc"
     style="color:#000000;fill:#ffffff;fill-opacity:1;fill-rule:nonzero;stroke:none;stroke-width:20;marker:none;visibility:visible;display:inline;overflow:visible;enable-background:accumulate"
     id="path2984"
     sodipodi:cx="400"
     sodipodi:cy="400"
     sodipodi:rx="360"
     sodipodi:ry="360"
     d="m 760,400 a 360,360 0 1 1 -720,0 360,360 0 1 1 720,0 z" />
  <path
     d="m 398.34146,76.585366 c -42.26521,0.216754 -84.47089,8.823182 -123.44637,25.172524 -38.97549,16.34932 -74.6903,40.42888 -104.46108,70.42747 -29.7708,29.99856 -53.57423,65.89251 -69.62184,104.98128 -16.047598,39.08877 -24.326814,81.34152 -24.21599,123.58126 0.11079,42.23974 8.611586,84.43334 24.86287,123.41201 16.25129,38.97866 40.24033,74.71206 70.16443,104.52013 29.92411,29.80804 65.75983,53.66775 104.81528,69.7915 39.05543,16.12376 81.3001,24.49919 123.56124,24.49919 42.26114,0 84.50581,-8.37543 123.56124,-24.49919 39.05545,-16.12375 74.89119,-39.98346 104.81528,-69.7915 29.9241,-29.80807 53.91314,-65.54147 70.16443,-104.52013 16.25128,-38.97867 24.75203,-81.17227 24.86287,-123.41201 0.11079,-42.23974 -8.16839,-84.49249 -24.21599,-123.58126 C 683.14022,238.07787 659.33677,202.18392 629.56599,172.18536 599.79521,142.18677 564.0804,118.10721 525.10491,101.75789 486.12943,85.408548 443.92375,76.80212 401.65854,76.585366 z m 1.65854,0 0,521.434694 0,125.39457 M 723.41463,400 76.585366,400 M 149.56098,200.97561 c 72.51047,51.73012 161.36728,80.17741 250.43902,80.17741 89.07174,0 177.92855,-28.44729 250.43902,-80.17741"
     id="path2989"
     inkscape:connector-curvature="0"
     style="fill:none;stroke:#000000;stroke-width:33.17073059"
     sodipodi:nodetypes="csssssssssssssssccccccccsc" />
  <path
     style="fill:none;stroke:#000000;stroke-width:33.17073059;stroke-linecap:butt;stroke-linejoin:miter;stroke-miterlimit:4;stroke-opacity:1;stroke-dasharray:none"
     d="m 151.21951,599.02439 c 0,0 99.5122,-82.92683 248.78049,-82.92683 165.85366,0 248.78049,82.92683 248.78049,82.92683"
     id="path2999"
     inkscape:connector-curvature="0"
     sodipodi:nodetypes="csc" />
  <path
     style="fill:none;stroke:#000000;stroke-width:30;stroke-linecap:butt;stroke-linejoin:miter;stroke-opacity:1;stroke-miterlimit:4;stroke-dasharray:none"
     d="m 400,80 c 0,0 180,100 180,320 0,220 -180,320 -180,320"
     id="path2985"
     inkscape:connector-curvature="0"
     sodipodi:nodetypes="csc" />
  <path
     style="fill:none;stroke:#000000;stroke-width:30;stroke-linecap:butt;stroke-linejoin:miter;stroke-miterlimit:4;stroke-opacity:1;stroke-dasharray:none"
     d="m 400,80 c 0,0 -180,100 -180,320 0,220 180,320 180,320"
     id="path2985-1"
     inkscape:connector-curvature="0"
     sodipodi:nodetypes="csc" />
</svg>
