<?xml version="1.0" encoding="UTF-8" standalone="no"?>
<svg version="1.1" xmlns:rdf="http://www.w3.org/1999/02/22-rdf-syntax-ns#" xmlns:dc="http://purl.org/dc/elements/1.1/" xmlns:cc="http://creativecommons.org/ns#" viewBox="0 0 316 316" xmlns:xlink="http://www.w3.org/1999/xlink" xmlns="http://www.w3.org/2000/svg">
<metadata>
<rdf:RDF>
<cc:Work rdf:about="">
<dc:format>image/svg+xml</dc:format>
<dc:type rdf:resource="http://purl.org/dc/dcmitype/StillImage"/>
</cc:Work>
</rdf:RDF>
</metadata>
<defs>
<linearGradient id="d" x1="158.94" gradientUnits="userSpaceOnUse" x2="158.94" y1="91.328" y2="303.48">
<stop offset="0"/>
<stop offset="1" stop-opacity="0"/>
</linearGradient>
<linearGradient id="c" x1="70.673" gradientUnits="userSpaceOnUse" x2="166.2" y1="26.32" y2="131.94">
<stop stop-color="#999" offset="0"/>
<stop stop-color="#999" offset="1" stop-opacity="0"/>
</linearGradient>
<linearGradient id="b" x1="160.95" gradientUnits="userSpaceOnUse" x2="296.85" y1="157.08" y2="157.08">
<stop offset="0"/>
<stop offset="1" stop-opacity="0"/>
</linearGradient>
<radialGradient id="a" cx="259.42" cy="201.75" gradientUnits="userSpaceOnUse" gradientTransform="matrix(.73337 2.0204 -1.7843 .64769 405.72 -394.74)" r="158">
<stop stop-color="#cc9b00" offset="0"/>
<stop offset="1"/>
</radialGradient>
</defs>
<path fill="url(#a)" d="m316 157.7c0 87.09-70.74 157.69-158 157.69-87.261 0-158-70.6-158-157.69 0.0000010954-87.097 70.739-157.7 158-157.7 87.26 0.000010337 158 70.603 158 157.7z" fill-rule="evenodd"/>
<g>
<path fill="url(#d)" fill-rule="evenodd" d="m316 157.7c0 87.09-70.74 157.69-158 157.69-87.261 0-158-70.6-158-157.69 0.0000010954-87.097 70.739-157.7 158-157.7 87.26 0.000010337 158 70.603 158 157.7z"/>
<path fill="url(#c)" d="m3.1065 125.73c5.4937-20.16 10.328-41.008 38.054-74.559 15.824-14.68 29.554-29.248 63.3-41.937 40.06-13.051 81.6-13.101 123.48 7.766-1.53 55.507-17.34 83.19-38.44 100.57-42.28 32.25-79.09 41.86-114.17 44.27-32.623 1.71-54.709-20.84-72.224-36.11z"/>
<path d="m158 0c-87.261 0-158 70.595-158 157.69 0 87.093 70.739 157.72 158 157.72s158-70.626 158-157.72c0-87.095-70.74-157.69-158-157.69zm-0.3125 3.0312c85.408 0 154.66 69.132 154.66 154.38 0 85.243-69.248 154.34-154.66 154.34-85.408 0-154.62-69.1-154.62-154.34 0-85.243 69.217-154.38 154.62-154.38z" fill-rule="evenodd"/>
</g>
<path fill="url(#b)" d="m56.501 109.06c-26.333 0-47.461 21.579-47.461 48.331 0 26.753 21.128 48.331 47.461 48.331 16.17 0 22.491-11.611 22.491-11.611v10.563h24.971v-47.283c0-26.753-21.128-48.331-47.461-48.331zm0 25.269c12.555 0 22.619 10.297 22.619 23.062s-10.064 23.062-22.619 23.062-22.619-10.297-22.619-23.062 10.064-23.062 22.619-23.062z"/>
<path opacity=".25" d="m258.04 113.95c-23.085 0-41.608 19.335-41.608 43.306s18.523 43.306 41.608 43.306c19.926 0 36.459-14.407 40.609-33.765h-23.015c-3.3012 6.6016-9.9126 11.123-17.594 11.123-11.006 0-19.829-9.2262-19.829-20.664s8.8226-20.664 19.829-20.664c7.7045 0 14.351 4.5388 17.642 11.173h22.967c-4.133-19.382-20.666-33.815-40.609-33.815z" fill="#fff"/>
<path stroke="#000" fill="#fff" stroke-width=".78858" d="m54.239 108.18c-27.438 0-49.454 22.105-49.454 49.51s22.015 49.51 49.454 49.51c16.848 0 23.435-11.895 23.435-11.895v10.821h26.019v-48.437c0-27.405-22.015-49.51-49.454-49.51zm0 25.886c13.082 0 23.568 10.548 23.568 23.625s-10.486 23.625-23.568 23.625-23.568-10.548-23.568-23.625 10.486-23.625 23.568-23.625z"/>
<path stroke="#000" fill="#fff" stroke-width=".78858" d="m109.98 74.091v83.606c0 27.405 22.032 49.528 49.471 49.528 27.438 0 49.414-22.122 49.414-49.528 0-27.405-21.976-49.528-49.414-49.528-16.848 0-23.458 11.928-23.458 11.928v-46.006zm49.471 59.979c13.082 0 23.571 10.551 23.571 23.628s-10.489 23.628-23.571 23.628-23.571-10.551-23.571-23.628 10.489-23.628 23.571-23.628z"/>
<path stroke="#000" fill="#fff" stroke-width=".78858" d="m262.57 108.18c-27.438 0-49.454 22.105-49.454 49.51s22.015 49.51 49.454 49.51c23.684 0 43.335-16.471 48.267-38.602h-27.355c-3.9237 7.5473-11.782 12.717-20.912 12.717-13.082 0-23.568-10.548-23.568-23.625s10.486-23.625 23.568-23.625c9.1574 0 17.057 5.189 20.969 12.773h27.298c-4.9124-22.159-24.564-38.659-48.267-38.659z"/>
</svg>
