<?xml version="1.0" encoding="UTF-8" standalone="no"?>
<svg version="1.1" xmlns="http://www.w3.org/2000/svg" xml:space="preserve" xmlns:cc="http://creativecommons.org/ns#" viewBox="0 0 1399.6 354.33" xmlns:rdf="http://www.w3.org/1999/02/22-rdf-syntax-ns#" xmlns:dc="http://purl.org/dc/elements/1.1/"><metadata><rdf:RDF><cc:Work rdf:about=""><dc:format>image/svg+xml</dc:format><dc:type rdf:resource="http://purl.org/dc/dcmitype/StillImage"/><dc:title/></cc:Work></rdf:RDF></metadata><defs><clipPath id="t" clipPathUnits="userSpaceOnUse"><path d="m0 283.46h1119.7v-283.46h-1119.7v283.46z"/></clipPath><linearGradient id="n" gradientTransform="matrix(199.89 -199.89 -199.89 -199.89 41.788 241.68)" gradientUnits="userSpaceOnUse"><stop stop-color="#191f28" offset="0"/><stop stop-color="#353c44" offset=".16617"/><stop stop-color="#a5a9ac" offset=".5"/><stop stop-color="#d7d9d2" offset=".83383"/><stop stop-color="#fbfaf6" offset=".95055"/><stop stop-color="#fbfaf6" offset="1"/></linearGradient><linearGradient id="m" gradientTransform="matrix(199.89 -199.89 -199.89 -199.89 41.788 241.68)" gradientUnits="userSpaceOnUse"><stop stop-color="#fbfaf6" offset="0"/><stop stop-color="#e9ebe6" offset=".16617"/><stop stop-color="#c0c3c1" offset=".39999"/><stop stop-color="#8b9296" offset=".62114"/><stop stop-color="#2e353d" offset=".83383"/><stop stop-color="#3f464d" offset="0.97"/><stop stop-color="#3f464d" offset="1"/></linearGradient><linearGradient id="l" gradientTransform="matrix(-.0000153 -282.69 -282.69 .0000153 212.4 283.08)" gradientUnits="userSpaceOnUse"><stop stop-color="#e9ebe6" offset="0"/><stop stop-color="#5f6469" offset=".16620"/><stop stop-color="#1d232c" offset=".5"/><stop stop-color="#131822" offset=".83380"/><stop stop-color="#2e353d" offset="0.97"/><stop stop-color="#2e353d" offset="1"/></linearGradient><linearGradient id="k" gradientTransform="matrix(199.89 -199.89 -199.89 -199.89 -28.976 170.91)" gradientUnits="userSpaceOnUse"><stop stop-color="#1d232c" offset="0"/><stop stop-color="#3a4148" offset=".45891"/><stop stop-color="#dcded7" offset=".83380"/><stop stop-color="#dcded7" offset="1"/></linearGradient><linearGradient id="j" gradientTransform="matrix(-.0000153 -244.88 -244.88 .0000153 71.521 275.66)" gradientUnits="userSpaceOnUse"><stop stop-color="#e9ebe6" offset="0"/><stop stop-color="#353c44" offset=".16620"/><stop stop-color="#131822" offset=".5"/><stop stop-color="#3f464d" offset=".83380"/><stop stop-color="#565d63" offset="0.97"/><stop stop-color="#565d63" offset="1"/></linearGradient><linearGradient id="i" gradientTransform="matrix(-.0000153 -265.73 -265.73 .0000153 204.45 274.6)" gradientUnits="userSpaceOnUse"><stop stop-color="#3a4148" offset="0"/><stop stop-color="#2e353d" offset=".16620"/><stop stop-color="#131822" offset=".5"/><stop stop-color="#353c44" offset=".83380"/><stop stop-color="#d7d9d2" offset="0.97"/><stop stop-color="#d7d9d2" offset="1"/></linearGradient><clipPath id="s" clipPathUnits="userSpaceOnUse"><path d="m0 283.46h1119.7v-283.46h-1119.7v283.46z"/></clipPath><linearGradient id="h" gradientTransform="matrix(199.89 -199.89 -199.89 -199.89 41.788 241.68)" gradientUnits="userSpaceOnUse"><stop stop-color="#353c44" offset="0"/><stop stop-color="#7a8084" offset=".24176"/><stop stop-color="#5f6469" offset=".5"/><stop stop-color="#8b9296" offset="0.97"/><stop stop-color="#8b9296" offset="1"/></linearGradient><linearGradient id="g" gradientTransform="matrix(-200.33 200.33 200.33 200.33 242.04 41.427)" gradientUnits="userSpaceOnUse"><stop stop-color="#353c44" offset="0"/><stop stop-color="#5f6469" offset=".5"/><stop stop-color="#8b9296" offset="0.97"/><stop stop-color="#8b9296" offset="1"/></linearGradient><clipPath id="r" clipPathUnits="userSpaceOnUse"><path d="m0 283.46h1119.7v-283.46h-1119.7v283.46z"/></clipPath><linearGradient id="f" gradientTransform="matrix(11.198 -18.273 18.273 11.198 75.709 126.41)" gradientUnits="userSpaceOnUse"><stop stop-color="#fff" offset="0"/><stop stop-color="#b7babc" offset="0.88"/><stop stop-color="#b7babc" offset="1"/></linearGradient><linearGradient id="e" gradientTransform="matrix(-11.621 -18.241 -18.241 11.621 207.55 125.45)" gradientUnits="userSpaceOnUse"><stop stop-color="#fff" offset="0"/><stop stop-color="#b7babc" offset=".89999"/><stop stop-color="#b7babc" offset="1"/></linearGradient><linearGradient id="d" gradientTransform="matrix(21.519 -.75146 -.75146 -21.519 122.46 206.72)" gradientUnits="userSpaceOnUse"><stop stop-color="#fff" offset="0"/><stop stop-color="#b7babc" offset="0.88"/><stop stop-color="#b7babc" offset="1"/></linearGradient><radialGradient id="a" gradientTransform="matrix(133.45 0 0 -133.45 141.72 141.67)" cx="0" gradientUnits="userSpaceOnUse" cy="0" r="1"><stop stop-color="#cfd0cc" offset="0"/><stop stop-color="#c0c3c1" offset="1"/></radialGradient><clipPath id="q" clipPathUnits="userSpaceOnUse"><path d="m0 283.46h1119.7v-283.46h-1119.7v283.46z"/></clipPath><linearGradient id="c" gradientTransform="matrix(-.69092 1.1967 1.1967 .69092 163.22 153.34)" gradientUnits="userSpaceOnUse"><stop stop-color="#63696e" offset="0"/><stop stop-color="#4e575e" offset=".71979"/><stop stop-color="#4e575e" offset="1"/></linearGradient><clipPath id="p" clipPathUnits="userSpaceOnUse"><path d="m0 283.46h1119.7v-283.46h-1119.7v283.46z"/></clipPath><linearGradient id="b" gradientTransform="matrix(0 22.945 22.945 0 141.72 117.37)" gradientUnits="userSpaceOnUse"><stop stop-color="#3f464d" offset="0"/><stop stop-color="#fff" offset=".76118"/><stop stop-color="#fff" offset="1"/></linearGradient><clipPath id="o" clipPathUnits="userSpaceOnUse"><path d="m0 283.46h1119.7v-283.46h-1119.7v283.46z"/></clipPath></defs><g transform="matrix(1.25 0 0 -1.25 0 354.33)"><g clip-path="url(#t)"><g transform="translate(141.73 282.76)"><path fill="#131822" d="m0 0c-77.885 0-141.02-63.139-141.02-141.02 0-77.886 63.138-141.02 141.02-141.02 77.886 0 141.02 63.138 141.02 141.02 0 77.881-63.134 141.02-141.02 141.02m0-282.76c-37.857 0-73.451 14.742-100.22 41.511-26.769 26.77-41.512 62.363-41.512 100.22s14.743 73.45 41.512 100.22 62.363 41.512 100.22 41.512c37.858 0 73.45-14.742 100.22-41.512 26.769-26.77 41.512-62.363 41.512-100.22 0-37.859-14.743-73.452-41.512-100.22-26.77-26.76-62.362-41.51-100.22-41.51"/></g><g transform="translate(141.73 17.738)"><path fill="#131822" d="m0 0c33.12 0 64.258 12.897 87.677 36.316 23.42 23.419 36.316 54.557 36.316 87.678 0 33.119-12.896 64.258-36.316 87.677-23.416 23.42-54.554 36.32-87.674 36.32-33.119 0-64.258-12.897-87.678-36.316-23.419-23.419-36.316-54.558-36.316-87.677 0-33.121 12.897-64.259 36.316-87.678 23.416-23.423 54.555-36.32 87.674-36.32m124.72 123.99c0-68.879-55.836-124.72-124.72-124.72-68.883 0-124.72 55.84-124.72 124.72 0 68.883 55.841 124.72 124.72 124.72 68.884 0 124.72-55.841 124.72-124.72"/></g></g><path fill="url(#n)" d="m0.389 141.73c0-78.06 63.281-141.34 141.34-141.34 78.064 0 141.34 63.281 141.34 141.34 0 78.063-63.28 141.34-141.34 141.34-78.06 0.01-141.34-63.27-141.34-141.34m16.961 0c0 68.696 55.688 124.38 124.38 124.38 68.696 0 124.38-55.688 124.38-124.38 0-68.694-55.688-124.38-124.38-124.38-68.692-0.001-124.38 55.688-124.38 124.38"/><path fill="url(#m)" d="m0.389 141.73c0-78.06 63.281-141.34 141.34-141.34 78.064 0 141.34 63.281 141.34 141.34 0 78.063-63.28 141.34-141.34 141.34-78.06 0.01-141.34-63.27-141.34-141.34m8.481 0c0 73.38 59.483 132.86 132.86 132.86 73.38 0 132.86-59.483 132.86-132.86 0.01-73.376-59.48-132.86-132.86-132.86-73.377 0-132.86 59.484-132.86 132.86"/><path fill="url(#l)" d="m141.73 282.37c75.815 0 137.28-61.46 137.28-137.28 0-75.818-61.46-137.28-137.28-137.28v-7.42c78.064 0 141.34 63.282 141.34 141.34 0 78.062-63.28 141.34-141.34 141.34v-0.707z"/><path fill="url(#k)" d="m16.079 135.58c-4.182-67.96 59.478-125.65 125.65-125.65v7.42c-68.692 0-124.38 55.69-124.38 124.38 0 7.829 0.726 15.489 2.109 22.916-2.21-9.33-2.767-19.08-3.38-29.066"/><path fill="url(#j)" d="m141.02 275.66c-66.284 0.07-124.85-50.45-133.08-117.31-0.289-2.345-0.368-3.559-0.611-5.211-0.459-3.13-0.519-4.838-2.656-6.983-2.057-2.07-3.495-4.43-3.353-12.21 0.173-9.42 3.586-31.46 14.9-53.11 10.667-20.41 28.462-38.568 50.302-50.065-38.998 27.925-57.652 71.425-57.652 110.96 0 73.378 59.483 132.86 132.86 132.86l-0.002 1.059-0.705-0.001z"/><path fill="url(#i)" d="m134.31 274.39v-0.855c67.292 0 123.18-48.674 131.19-113.8 0.506-3.522 1.823-6.751 3.568-8.495 1.926-1.927 3.461-5.014 3.461-10.673 0-71.95-58.71-130.64-131.5-130.64l-0.001-1.058 0.707-0.002c73.38 0 132.86 59.486 132.86 132.86 0 73.377-59.483 132.86-132.86 132.86l-7.42-0.206z"/><g clip-path="url(#s)"><g transform="translate(48.402 234.38)"><path fill="#131822" d="m0 0c-23.888-23.984-38.659-57.053-38.66-93.42 0.001-36.368 14.771-69.284 38.658-93.12 23.889-23.834 56.88-38.572 93.333-38.573 36.451 0.001 69.444 14.739 93.332 38.573 23.886 23.836 38.658 56.752 38.659 93.12 0 36.367-14.774 69.436-38.661 93.42-23.89 23.981-56.88 38.867-93.329 38.867-36.45 0-69.441-14.886-93.331-38.867m-40.405-93.42c0.001 73.695 59.87 134.03 133.74 134.03 73.865 0 133.72-60.335 133.74-134.03h-0.001c0-73.696-59.877-133.44-133.74-133.44-73.86 0-133.74 59.741-133.74 133.44"/></g><g transform="translate(48.402 235.33)"><path fill="#131822" d="m0 0c-23.888-23.985-38.659-57.053-38.66-93.42 0.001-36.368 14.771-69.285 38.658-93.12 23.889-23.834 56.88-38.572 93.333-38.573 36.451 0.001 69.444 14.739 93.332 38.573 23.886 23.835 38.658 56.752 38.659 93.12 0 36.367-14.774 69.435-38.661 93.42-23.89 23.981-56.88 38.868-93.329 38.868-36.45 0-69.441-14.887-93.331-38.868m-40.405-93.42c0.001 73.694 59.87 134.03 133.74 134.03 73.865 0 133.72-60.336 133.74-134.03h-0.001c0-73.697-59.877-133.44-133.74-133.44-73.86 0-133.74 59.741-133.74 133.44"/></g><g transform="translate(48.491 234.77)"><path fill="#fff" d="m0 0c-23.866-23.961-38.624-56.998-38.625-93.332 0.001-36.334 14.758-69.22 38.623-93.032s56.826-38.535 93.244-38.536c36.417 0.001 69.378 14.724 93.244 38.536 23.864 23.812 38.621 56.698 38.621 93.032s-14.758 69.371-38.623 93.332c-23.87 23.955-56.83 38.826-93.248 38.828-36.414-0.002-69.375-14.873-93.242-38.832m-40.619-93.332c0.002 73.764 59.926 134.15 133.86 134.16 73.933-0.004 133.86-60.394 133.86-134.16 0-73.767-59.932-133.56-133.86-133.56s-133.86 59.796-133.86 133.56"/></g></g><path fill="url(#h)" d="m0.389 141.73c0-78.06 63.282-141.34 141.34-141.34 78.063 0 141.34 63.281 141.34 141.34 0 78.062-63.281 141.34-141.34 141.34-78.059 0.01-141.34-63.28-141.34-141.34m0.832 0c0 77.602 62.91 140.51 140.51 140.51 77.603 0 140.51-62.911 140.51-140.51 0-77.601-62.9-140.51-140.51-140.51-77.599 0.001-140.51 62.909-140.51 140.51"/><path fill="url(#g)" d="m16.526 141.73c0-69.149 56.058-125.2 125.21-125.2 69.15 0 125.21 56.056 125.21 125.2 0 69.149-56.057 125.21-125.21 125.21-69.148 0-125.21-56.057-125.21-125.21m0.823 0c0 68.695 55.689 124.38 124.38 124.38 68.696 0 124.38-55.689 124.38-124.38 0-68.694-55.688-124.38-124.38-124.38-68.694 0-124.38 55.689-124.38 124.38"/><g clip-path="url(#r)"><g transform="translate(141.73 270.36)"><path fill="#191f28" d="m0 0c0-0.268 0.002-130.1 0.002-130.1l21.114 12.19-16.028 113.56s-1.581 2.54-5.088 4.348"/></g><g transform="translate(141.73 270.36)"><path fill="#191f29" d="m0 0c0-0.265 0.009-130.06 0.009-130.06 0.132 0.091 20.975 12.282 20.931 12.84-0.003 0.04-15.887 112.87-15.889 112.89-0.001 0.008-1.582 2.542-5.051 4.33"/></g><g transform="translate(141.73 270.36)"><path fill="#1a202a" d="m0 0c0-0.262 0.017-130.03 0.017-130.03 0.262 0.184 20.836 12.376 20.748 13.493-0.007 0.1-15.747 112.19-15.75 112.22-0.003 0.022-1.585 2.552-5.015 4.32"/></g><g transform="translate(141.73 270.36)"><path fill="#242b35" d="m0 0c0-0.215 0.138-129.42 0.138-129.42 2.36 1.657 18.604 13.87 17.814 23.924-0.067 0.86-13.502 101.17-13.531 101.38-0.029 0.218-1.608 2.67-4.421 4.12"/></g><g transform="translate(141.73 270.36)"><path fill="#2e373f" d="m0 0c0-0.17 0.251-128.86 0.251-128.86 4.327 3.039 16.514 15.272 15.064 33.703-0.123 1.571-11.397 90.84-11.45 91.232-0.054 0.393-1.63 2.773-3.865 3.925"/></g><g transform="translate(141.73 270.36)"><path fill="#404850" d="m0 0c0-0.103 0.424-127.99 0.424-127.99 7.344 5.157 13.308 17.421 10.848 48.697-0.209 2.663-8.17 74.996-8.26 75.662-0.092 0.666-1.663 2.936-3.012 3.631"/></g><g transform="translate(141.73 270.36)"><path fill="#51585e" d="m0 0c0-0.044 0.576-127.24 0.576-127.24 9.966 6.999 10.519 19.29 7.181 61.736-0.284 3.618-5.363 61.226-5.486 62.13-0.125 0.903-1.693 3.076-2.271 3.374"/></g><g transform="translate(143.45 267.17)"><path fill="#5f6469" d="m0 0c-0.147 1.081-1.714 3.182-1.714 3.182l0.69-126.67c11.933 8.381 8.427 20.691 4.429 71.515-0.34 4.329-3.258 50.892-3.405 51.975"/></g><g transform="translate(141.73 141.64)"><path fill="#454d53" d="m0 0v-24.288l52.54-21.104 52.539-21.102 6.234 2.234-55.654 32.13-27.828 16.066-27.828 16.064z"/></g><g transform="translate(141.73 141.64)"><path fill="#373f47" d="m0 0v-1.208c0.675-2.626 6.178-21.962 11.51-25.502 5.334-3.541 44.538-20.098 44.538-20.098l48.189-19.348s0.997-0.329 1.252-0.279c0.411 0.082 5.122 1.723 5.826 2.168-0.024 0.015-13.821 7.98-17.5 10.105-3.679 2.124-33.299 19.224-38.193 22.051-3.398 1.962-24.824 14.33-27.81 16.055-5.619 3.242-27.815 16.056-27.815 16.056"/></g><g transform="translate(141.73 141.64)"><path fill="#2e363e" d="m0 0v-1.402c1.133-4.411 10.377-21.006 19.337-26.954 8.96-5.95 39.097-19.415 39.097-19.415l46.115-18.51s0.791-0.198 1.219-0.113c0.69 0.138 4.366 1.375 5.548 2.123-0.04 0.025-11.321 6.538-17.503 10.107-6.18 3.569-29.994 17.317-38.215 22.064-5.709 3.296-22.782 13.153-27.799 16.05-9.435 5.447-27.8 16.05-27.8 16.05"/></g><g transform="translate(141.73 141.64)"><path fill="#272e37" d="m0 0v-1.584c1.565-6.093 14.33-20.108 26.704-28.322 12.372-8.215 33.976-18.77 33.976-18.77l44.162-17.723s0.596-0.076 1.188 0.043c0.954 0.191 3.654 1.048 5.288 2.081-0.055 0.034-8.97 5.18-17.505 10.11-8.537 4.929-26.884 15.521-38.237 22.077-7.883 4.552-20.858 12.043-27.786 16.043-13.027 7.523-27.788 16.045-27.788 16.045"/></g><g transform="translate(141.73 141.64)"><path fill="#212731" d="m0 0v-1.732c1.916-7.458 17.542-19.378 32.688-29.434 15.147-10.056 29.815-18.247 29.815-18.247l42.576-17.081s2.999 0.166 6.24 2.215c-0.068 0.042-7.059 4.079-17.508 10.113-10.449 6.033-24.356 14.063-38.253 22.088l-55.559 32.078"/></g><g transform="translate(36.654 75.15)"><path fill="#131822" d="m0 0s-3.031 0.171-6.331 2.257c0.378 0.228 111.41 64.325 111.41 64.325v-24.379l-105.08-42.203z"/></g><g transform="translate(30.326 77.407)"><path fill="#141822" d="m0 0c0.374 0.225 111.38 64.312 111.38 64.312 0.01-0.127-0.03-24.233-0.65-24.553-0.16-0.085-104.46-41.997-104.46-41.997s-3.006 0.175-6.27 2.238"/></g><g transform="translate(30.348 77.393)"><path fill="#171d26" d="m0 0c0.332 0.201 111.15 64.186 111.15 64.186 0.05-1.393-0.35-22.749-7.16-26.283-1.79-0.929-98.331-39.939-98.331-39.939s-2.758 0.202-5.659 2.036"/></g><g transform="translate(30.372 77.378)"><path fill="#1b212b" d="m0 0c0.286 0.173 110.89 64.046 110.89 64.046 0.09-2.784-0.71-21.118-14.317-28.184-3.581-1.859-91.585-37.676-91.585-37.676s-2.486 0.232-4.988 1.814"/></g><g transform="translate(30.414 77.352)"><path fill="#232a33" d="m0 0c0.207 0.125 110.44 63.805 110.44 63.805 0.18-5.191-1.31-18.302-26.678-31.471-6.673-3.464-79.934-33.768-79.934-33.768s-2.015 0.288-3.828 1.434"/></g><g transform="translate(30.468 77.319)"><path fill="#2e353e" d="m0 0c0.104 0.062 109.86 63.487 109.86 63.487 0.28-8.354-2.12-14.595-42.953-35.794-10.743-5.577-64.604-28.624-64.604-28.624s-1.396 0.357-2.303 0.931"/></g><g transform="translate(30.522 77.284)"><path fill="#3a4148" d="m0 0 0.777-0.426s34.462 15.791 49.275 23.481c56.298 29.228 59.602 28.598 59.215 40.117l-109.27-63.172z"/></g></g><path fill="url(#f)" d="m31.407 83.553s-1.333-2.386-1.083-6.146c1.202 0.688 111.41 64.325 111.41 64.325l-21.118 12.194-89.207-70.373z"/><path fill="url(#e)" d="m141.73 141.73s110.95-64.053 111.41-64.321c0.183 3.846-1.024 6.013-1.024 6.013l-89.268 70.499-21.117-12.191z"/><path fill="url(#d)" d="m138.85 268.42c-1.336-1.111-2.2-2.413-2.2-2.413l-16.038-112.08 21.118-12.194v128.62s-1.195-0.53-2.88-1.934"/><path fill="url(#a)" d="m137.5 267.08c-0.39-0.467-0.82-1.003-0.82-1.003l-15.981-112.16 9.008-4.58c-1.869 1.472-2.315 2.547-2.53 3.324-0.269 0.974-0.092 2.049 0.02 3.382 0.208 2.506 1.083 8.995 11.273 112.03 0 0-0.494-0.428-0.97-0.997m21.993-114.92-14.812-9.112c-0.012-0.008-0.776-0.768 0.13-0.448 2.96 1.048 9.072 3.891 12.65 4.552 4.172 0.768 7.114-1.813 9.527-3.449 0.436-0.294 85.453-62.033 85.83-62.302-0.44 1.665-0.814 2.458-0.814 2.458l-89.433 70.063-3.078-1.762zm-128.04-68.333s-0.558-1.381-0.814-2.465c0.227 0.162 90.36 64.859 93.465 66.929 2.217 1.479 2.38 1.544 4.679 0.717l-2.362 1.817-5.746 2.984-89.222-69.982z"/><g clip-path="url(#q)"><g transform="translate(124.23 153.92)"><path fill="#495158" d="m0 0c-0.868 1.023-0.74 2.473-0.697 3.367 0.153 3.311 13.964 109.82 13.964 109.82s-0.222-0.24-0.466-0.548c-0.103-0.129-0.4-0.528-0.4-0.528l-15.971-111.29v0.001c-0.093-0.526-0.291-0.847-0.684-1.206l0.01 0.005-88.453-69.533s-0.269-0.543-0.491-1.275c0.395 0.295 91.711 69.971 91.711 69.971l15.251-8.322 1.37-0.426s-14.157 8.798-15.144 9.965"/></g></g><path fill="url(#c)" d="m162.66 153.81 0.763-0.347c-0.401 0.347-0.576 0.681-0.683 1.202l-0.08-0.855z"/><g clip-path="url(#p)"><g transform="translate(247.57 75.243)"><path fill="#454d53" d="m0 0-105.84 44.139-105.85-44.139l0.772-0.093 104.4 41.932-0.011-0.008c0.494 0.178 0.797 0.193 1.296 0.034l104.47-41.961 0.76 0.096z"/></g><g transform="translate(162.85 153.92)"><path fill="#63696e" d="m0 0 89.085-69.925s0.22-0.423 0.481-1.258c-0.377 0.284-87.896 67.277-91.513 69.995l1.947 1.188z"/></g><g transform="translate(160.9 152.74)"><path fill="#4e575e" d="m0 0s-3.478-2.204-6.328-3.988l-0.349 0.6c4.57 2.425 6.854 3.635 6.502 6.341-0.278 2.141-14.338 110.92-14.338 110.92l0.448-0.595 16.012-112.09-1.947-1.19z"/></g><g transform="translate(30.294 78.113)"><path fill="#131822" d="m0 0 107.51 63.338s0.42 0.248 0.584 0.344c0.144 0.086 0.402 0.447 0.066 1l1.38-1.123-109.52-64.011-0.02 0.452z"/></g><g transform="translate(253.16 78.117)"><path fill="#131822" d="m0 0-107.88 63.505s-0.412 0.206-0.451 0.481c-0.061 0.423 0.337 0.893 0.337 0.893l-1.74-1.268 109.71-64.063 0.02 0.452z"/></g><g transform="translate(141.13 270.04)"><path fill="#131822" d="m0 0-1.021-125.03s0.019-0.637-0.089-0.789c-0.238-0.336-0.475-0.297-1.208-0.225l1.939-0.547 0.733 126.79-0.354-0.2z"/></g></g><path fill="url(#b)" d="m140.76 140.32 0.664-20.792s0.024-2.153 0.288-2.153c0.263 0 0.245 2.162 0.245 2.162l0.72 20.783h-1.917z"/><g clip-path="url(#o)"><g transform="translate(154.23 149.35)"><path fill="#fff" d="m0 0-11.741-6.077-1.536 0.015-11.711 6.061s-6.261 3.531-6.485 3.354c-0.222-0.177 6.138-3.954 6.138-3.954l11.123-7.112 0.905-1.308v-0.006h1.626v0.006l0.898 1.308 11.13 7.114s6.534 3.793 6.328 3.989c-0.208 0.195-6.675-3.39-6.675-3.39"/></g><g transform="translate(143.16 139.68)"><path fill="#fff" d="m0 0c-0.151 0.086-2.759 0.06-2.907-0.022l-109.62-62.439-0.311 0.19-0.022 0.42 108.98 63.73c0.212 0.123 1.379 2.088 1.379 2.476l0.735 126.15 0.335 0.17 0.341-0.181 0.721-126.15c0.006-0.475 1.228-2.35 1.433-2.471l108.92-63.724-0.01-0.422-0.342-0.204-109.64 62.471z"/></g><g transform="translate(142.59 138.1)"><path fill="#fff" d="m0 0c0.039 0.444-0.031 1.169 0.328 1.355 0.326 0.17 1.172-0.287 1.341-0.397 0.519 0.494 0.892 1.137 1.054 1.861-0.362 0.251-1.086 0.524-1.086 0.944 0 0.392 0.709 0.685 1.018 0.935-0.167 0.553-0.467 1.055-0.854 1.465-0.203-0.094-1.014-0.615-1.346-0.422-0.346 0.201-0.273 0.914-0.283 1.28 0 0.025-0.678 0.302-1.053 0.302-0.366 0-1.046-0.203-1.046-0.228 0-0.404 0.059-1.145-0.261-1.323-0.344-0.193-1.207 0.304-1.369 0.401-0.389-0.41-0.688-0.908-0.858-1.463 0.354-0.225 0.974-0.535 0.972-0.947 0-0.492-0.668-0.764-1.033-0.98 0.167-0.716 0.542-1.35 1.059-1.839 0.167 0.106 0.954 0.587 1.329 0.404 0.375-0.184 0.332-0.926 0.335-1.317 0.284-0.069 0.566-0.098 0.872-0.098s0.881 0.062 0.881 0.067"/></g></g></g></svg>
