<?xml version="1.0" encoding="UTF-8" standalone="no"?>
<svg enable-background="new -0.744 82.256 386 207" viewBox="-0.744 82.256 386 207" height="207" xmlns="http://www.w3.org/2000/svg" version="1.1" xmlns:dc="http://purl.org/dc/elements/1.1/" overflow="visible" xmlns:rdf="http://www.w3.org/1999/02/22-rdf-syntax-ns#" xml:space="preserve" xmlns:cc="http://creativecommons.org/ns#" width="386"><metadata><rdf:RDF><cc:Work rdf:about=""><dc:format>image/svg+xml</dc:format><dc:type rdf:resource="http://purl.org/dc/dcmitype/StillImage"/><dc:title/></cc:Work></rdf:RDF></metadata>
<g fill="#0095D5">
	<path d="m99.501 117.4c-0.278 0-0.278 0.141-0.417 0.278-12.073 16.93-19.15 28.171-26.645 42.048l-0.832 1.526-0.14 0.556c-0.693 1.389-0.555 2.914 0.417 4.163 4.44 6.938 29.281 15.126 84.651 15.126 41.354 0 85.345-6.661 85.345-19.149 0-11.797-43.297-18.873-85.345-18.873-14.017 0-27.755 1.804-31.641 2.498 3.747-5.829 19.567-27.063 19.567-27.2 0.277-0.277 0.277-0.277 0.277-0.416v-0.277c-0.277-0.139-0.416-0.278-0.693-0.278l-44.559-0.01zm16.099 44.55c0-2.498 15.682-6.106 40.938-6.106s40.8 3.608 40.8 6.106c0 2.774-15.543 6.244-40.8 6.244-25.26 0-40.94-3.47-40.94-6.24z"/>
	<path d="m130.86 224.26c7.077 0.139 206.22 7.076 210.66-63.559 3.606-58.425-142.94-52.873-142.94-52.873-0.276 0-1.248 0-1.248 0.693 0 0.833 0.416 0.973 0.972 0.973 40.659 0 106.72 16.235 104.64 51.207-1.666 28.31-53.289 61.614-172.08 61.614-0.555 0-1.11 0.556-1.11 0.972 0 0.42 0.42 0.84 1.11 0.98z"/>
	<polygon points="313.49 219.12 309.6 219.12 309.6 218.29 318.48 218.29 318.48 219.12 314.88 219.12 314.88 226.06 313.49 226.06"/>
	<polygon points="320.43 218.29 322.09 218.29 325.01 224.81 328.06 218.29 329.72 218.29 329.72 226.06 328.62 226.06 328.62 219.68 328.48 219.68 325.56 226.06 324.45 226.06 321.54 219.68 321.54 226.06 320.43 226.06"/>
</g>
</svg>
