<?xml version="1.0" encoding="UTF-8" standalone="no"?>
<svg xmlns:cc="http://creativecommons.org/ns#" xmlns:rdf="http://www.w3.org/1999/02/22-rdf-syntax-ns#" version="1.1" viewBox="0 0 497.99 159.03" xmlns="http://www.w3.org/2000/svg" xmlns:dc="http://purl.org/dc/elements/1.1/">
<defs>
<linearGradient id="a" gradientUnits="userSpaceOnUse" gradientTransform="matrix(104.01 -80.725 -80.725 -104.01 1754.8 1340.8)">
<stop offset="0" stop-color="#fbc74b"/>
<stop offset="1" stop-color="#f2531b"/>
</linearGradient>
<clipPath id="d" clipPathUnits="userSpaceOnUse">
<path d="m2044 1180.4c32.51 28.33 43.13 52.31 43.13 83.39 0 40.5-72.77 51.75-78.78 150.26-3.99 65.17-9.14 85-18.39 85-16.45 0-31.2-40.36-79.15-40.36-36.29 0-27.28 48.22-35.64 48.22-17.1 0-16.05-118.49-74.56-174.78-68.29-65.69-129.11-100.56-163.11-122.22-15.19-9.68-21.27-16.17-21.27-34.16 0-4.38 1.79-7.08 4.83-7.08 6.29 0 16.84 9.07 35.31 9.07 50.72 0 102.72-58.09 163.4-58.09 75.17 0 187.45 89.39 215.28 110.34l5.56-6.66c-42.75-47.11-205.01-177.35-265.36-177.35-35.05 0-54.8 9.47-54.8 21.5 0 16.74 26.41 36.31 40.03 47.02-2.07 1.12-10.05 4.81-12.49 5.92-10.76-7.68-51.47-36.08-51.47-62.11 0-30.54 41.16-40.92 77.93-40.92 32.91 0 65.63 18.03 82.19 27.54 44.33 25.49 153.1 105.65 187.36 135.47z"/>
</clipPath>
<clipPath id="b" clipPathUnits="userSpaceOnUse">
<path d="m1912.1 655.99c-13.11-34.328 3.53-48.789 32.19-48.789h128.55 24.27 2.1 85.94 48.65c38.99 0 51.17 18.25 54.94 41.492 22.77 139.82 31.2 217.38 39.1 382.03 4.59 94.35-5.54 241.7-19.82 315.18-5.95 30.6-9.3 47.33-12.68 62.51-3.47 15.69-6.95 28.64-13.88 52.23-17.36 59.13-40.94 110.98-74.96 158.64-18.79 25.6-42.29 48.06-65.09 62.09-21.11 12.97-45.33 22.71-71.41 24.63-0.61 0.04-1.21 0.09-1.79 0.11-8.24 0.51-14.11 0.34-21.38 0.35-61.6 0-106.78-24.1-138.67-60.63-30.61-35.02-49.01-81.44-57.99-128.88-3.28-17.26-4.07-30.39-1.91-33.67 31.23-47.51 74.45-128.33 93.9-167.17 18.81-37.57 34.42-67.03 50.12-152.83 3.5-19.12 6.04-24.36 8.11-45.78 2.07-21.57 1.93-31.57 1.94-51.61 0-173.65-41.03-290.29-90.23-409.9"/>
</clipPath>
<clipPath id="c" clipPathUnits="userSpaceOnUse">
<path d="m1912.1 655.99c-13.11-34.328 3.53-48.789 32.19-48.789h128.55 24.27 2.1 85.94 48.65c38.99 0 51.17 18.25 54.94 41.492 22.77 139.82 31.2 217.38 39.1 382.03 4.59 94.35-5.54 241.7-19.82 315.18-5.95 30.6-9.3 47.33-12.68 62.51-3.47 15.69-6.95 28.64-13.88 52.23-17.36 59.13-40.94 110.98-74.96 158.64-18.79 25.6-42.29 48.06-65.09 62.09-21.11 12.97-45.33 22.71-71.41 24.63-0.61 0.04-1.21 0.09-1.79 0.11-8.24 0.51-14.11 0.34-21.38 0.35-61.6 0-106.78-24.1-138.67-60.63-30.61-35.02-49.01-81.44-57.99-128.88-3.28-17.26-4.07-30.39-1.91-33.67 31.23-47.51 74.45-128.33 93.9-167.17 18.81-37.57 34.42-67.03 50.12-152.83 3.5-19.12 6.04-24.36 8.11-45.78 2.07-21.57 1.93-31.57 1.94-51.61 0-173.65-41.03-290.29-90.23-409.9z"/>
</clipPath>
</defs>
<metadata>
<rdf:RDF>
<cc:Work rdf:about="">
<dc:format>image/svg+xml</dc:format>
<dc:type rdf:resource="http://purl.org/dc/dcmitype/StillImage"/>
<dc:title/>
</cc:Work>
</rdf:RDF>
</metadata>
<g transform="translate(126.26 -986.37)">
<g transform="matrix(1.25 0 0 -1.25 -126.26 1219.4)">
<g transform="scale(.1)">
<path fill="#46a7de" d="m3879.5 684.82h9.73c11.38 0 20.57 3.801 20.57 12.981 0 8.121-5.96 13.527-18.94 13.527-5.42 0-9.2-0.558-11.36-1.09v-25.418zm-0.55-49.761h-20.53v88.16c8.09 1.609 19.45 3.269 34.06 3.269 16.77 0 24.34-2.707 30.84-7.027 4.87-3.813 8.64-10.84 8.64-18.961 0-10.262-7.58-17.82-18.38-21.102v-1.046c8.65-2.711 13.52-9.743 16.22-21.661 2.71-13.5 4.33-18.91 6.49-21.632h-22.17c-2.69 3.25-4.32 10.832-7.03 21.101-1.63 9.738-7.03 14.07-18.39 14.07h-9.75v-35.171zm13.53 116.85c-38.95 0-68.14-31.922-68.14-70.89 0-39.489 29.19-70.848 69.22-70.848 38.95-0.531 67.61 31.359 67.61 70.848 0 38.968-28.66 70.89-68.14 70.89h-0.55zm1.08 17.82c50.85 0 90.33-39.48 90.33-88.71 0-50.27-39.48-89.239-90.86-89.239-50.85 0-91.43 38.969-91.43 89.239 0 49.23 40.58 88.71 91.43 88.71h0.53"/>
<path fill="#fff" d="m1850.1 1517c-10.07-53.15-23.4-124.51-67.48-172.77-42.66-46.7-97.59-84.35-156.81-121.09-20.7-12.85-28.06-26.29-28.06-46.34 0-14.2 6.34-26.26 17.62-26.26 14.43 0 22.44 8.11 43.28 8.11 26.43 0 57.87-20.92 75-30.86-20.68-14.78-59.7-36.34-59.7-70.56 0-26.2 29.48-60.535 107.81-60.535 73 0 169.31 83.485 218.56 120.86 24.8 80.94-19.76 244.28-150.22 399.44"/>
<g clip-path="url(#c)">
<g clip-path="url(#b)">
<g transform="matrix(10,0,0,-10,-79918,82646)">
<path fill="#fff" d="m8183 8199c-1.3105 3.4334 0.3525 4.8786 3.2186 4.8786 5.8961-13.634 9.6312-32.897 10.736-45.303-1.8427-0.2129-3.6268-0.4229-4.9314-0.5635 0 17.364-4.1033 29.028-9.0229 40.988z"/>
<path fill="#fff" d="m8186.2 8203.9h12.855c4.6013-13.728 5.0642-41.802 5.0642-44.556-1.6347-0.1152-4.4734-0.4341-7.1832-0.747-1.1045 12.406-4.8396 31.669-10.736 45.303z"/>
<path fill="#fff" d="m8199.1 8203.9h1.6893c4.1834-12.808 4.9324-41.616 4.9412-44.134-0.9267-0.1387-1.498-0.418-1.5663-0.4219 0 2.7537-0.4629 30.828-5.0642 44.556z"/>
<path fill="#fff" d="m8200.8 8203.9h0.7373c4.0086-12.439 4.8884-41.596 4.9099-44.041-0.2461-0.03-0.4814-0.06-0.706-0.093-0.01 2.5179-0.7578 31.326-4.9412 44.134z"/>
<path fill="#fff" d="m8201.5 8203.9h0.065c3.9939-12.406 4.8893-41.594 4.9108-44.033-0.022 0-0.044-0.01-0.065-0.01-0.021 2.4457-0.9013 31.603-4.9099 44.041z"/>
<path fill="#fff" d="m8201.6 8203.9h0.1455c3.9675-12.333 4.8952-41.589 4.9274-44.014-0.055-0.01-0.1084-0.013-0.1621-0.019-0.021 2.4388-0.9169 31.627-4.9108 44.033z"/>
<path fill="#fff" d="m8201.7 8203.9h8.5932c1.9433-8.1694 4.4392-41.662 4.6247-43.392-0.3388-0.044-5.07-0.2392-8.2905-0.6215-0.032 2.4241-0.9599 31.68-4.9274 44.014z"/>
<path fill="#fff" d="m8210.3 8203.9c1.9433-8.1694 4.4392-41.662 4.6247-43.392 0.3145 0.041 0.7402 0.085 1.2422 0.1328-0.021 4.6916-1.8906 33.759-3.619 43.259h-2.2479z"/>
<path fill="#fff" d="m8212.6 8203.9h2.6171c0.7568-5.4147 1.4686-14.278 1.9745-22.745-0.7236-0.027-1.4668-0.3588-2.1415-0.6884-0.6865 9.041-1.5859 18.682-2.4501 23.433z"/>
<path fill="#fff" d="m8215 8180.4c0.6747 0.3296 1.4179 0.6611 2.1415 0.6884 0.2529-4.2331 0.4531-8.3667 0.582-11.921-0.6543-0.046-1.3066-0.6205-1.8847-1.1913-0.206 3.5335-0.4961 7.9034-0.8388 12.424z"/>
<path fill="#fff" d="m8215.9 8168c0.5781 0.5708 1.2304 1.145 1.8847 1.1913 0.1289-3.554 0.1855-6.5274 0.1494-8.4409-0.6231-0.055-1.2021-0.1059-1.704-0.1528 0 1.1728-0.125 3.8689-0.3301 7.4024z"/>
<path fill="#fff" d="m8215.2 8203.9c1.9491 0 3.2283-0.456 4.0671-1.2021 0.4736-3.1014 0.8222-6.4976 1.083-10.034-0.9385 0.6327-2.2558 1.0233-4.0682 1.0087-0.3359 3.9509-0.7031 7.5201-1.0819 10.228z"/>
<path fill="#fdfdfe" d="m8216.3 8193.6c1.8124 0.015 3.1297-0.376 4.0682-1.0087 0.2617-3.5374 0.4355-7.2164 0.5605-10.884-0.9902-0.2197-2.2206-0.5761-3.7361-0.624-0.253 4.2332-0.5567 8.5659-0.8926 12.517z"/>
<path fill="#fcfdfe" d="m8217.2 8181.1c0.7577 0.024 1.4442 0.125 2.0643 0.2476 0.1426-4.0569 0.2344-8.0425 0.291-11.578-0.5722-0.3203-1.165-0.5507-1.7733-0.5903-0.1289 3.554-0.3291 7.6876-0.582 11.921z"/>
<path fill="#fafbfd" d="m8217.7 8169.2c0.6083 0.04 1.2011 0.27 1.7733 0.5903 0.056-3.5359 0.076-6.6212 0.076-8.8784-0.5859-0.055-1.1601-0.1054-1.7001-0.1528 0.036 1.9135-0.021 4.8869-0.1494 8.4409z"/>
<path fill="#f7f8fc" d="m8219.2 8181.4c0.621 0.1225 1.1767 0.2666 1.6718 0.3764 0.125-3.6682 0.2011-7.3257 0.2656-10.82-0.5254-0.4028-1.0761-0.8144-1.6464-1.1347-0.057 3.5355-0.1484 7.5211-0.291 11.578z"/>
<path fill="#f3f5fa" d="m8219.5 8169.8c0.5703 0.3203 1.121 0.7319 1.6464 1.1347 0.064-3.4934 0.1181-6.8238 0.1992-9.8383-0.5869-0.062-1.1835-0.1206-1.7694-0.1748 0 2.2572-0.021 5.3425-0.076 8.8784z"/>
<path fill="#fff" d="m8219.2 8202.7c0.8388-0.747 1.2382-1.784 1.4267-2.9461 0.5693-3.4949 1.0488-6.6012 1.4608-9.5522-0.3037 0.9551-0.8651 1.831-1.8045 2.4638-0.2608 3.5369-0.6094 6.9331-1.083 10.034z"/>
<path fill="#f7f8fc" d="m8220.3 8192.6c0.9394-0.6328 1.5008-1.5087 1.8045-2.4638 0.4121-2.9505 0.7559-5.7452 1.0527-8.6176-0.5556 0.4999-1.3056 0.4169-2.2967 0.1972-0.125 3.6678-0.2988 7.3468-0.5605 10.884z"/>
<path fill="#eff2f9" d="m8220.9 8181.8c0.496 0.1099 0.9316 0.1856 1.3124 0.1714 0.1816-3.221 0.3164-6.4923 0.4463-9.9013-0.4688-0.29-0.9678-0.6855-1.4931-1.0898-0.065 3.494-0.1406 7.1515-0.2656 10.82z"/>
<path fill="#e4ebf4" d="m8221.2 8170.9c0.5253 0.4043 1.0243 0.7998 1.4931 1.0898 0.1298-3.4095 0.2538-6.9561 0.415-10.728-0.5449-0.071-1.122-0.1377-1.7089-0.2002-0.081 3.0145-0.1348 6.3449-0.1992 9.8383z"/>
<path fill="#e3e9f3" d="m8222.2 8181.9c0.3808-0.014 0.707-0.1186 0.9843-0.3686 0.2969-2.8719 0.5469-5.822 0.7724-9.0825-0.4033 0.022-0.8407-0.1611-1.3104-0.4502-0.1299 3.409-0.2647 6.6803-0.4463 9.9013z"/>
<path fill="#d3ddec" d="m8222.6 8172c0.4697 0.2891 0.9071 0.4726 1.3104 0.4502 0.2256-3.2611 0.4268-6.8326 0.624-10.949-0.4609-0.081-0.9745-0.1577-1.5194-0.2295-0.1612 3.7718-0.2852 7.3184-0.415 10.728z"/>
<path fill="#fff" d="m8192 8158c1.6113 0.1738 3.9529 0.4531 6.236 0.7129 0-1.124 0.02-1.8212 0.018-2.4628-2.2401-0.046-4.5564-0.2417-6.2741-0.7729 0.023 0.77 0.02 1.5209 0.021 2.5228z"/>
<path fill="#fff" d="m8192 8155.5c1.7177 0.5312 4.034 0.727 6.2741 0.7729 0-0.642-0.027-1.2284-0.1172-2.1307-2.2089-0.055-4.5056-0.3906-6.3307-1.2792 0.1035 1.078 0.1518 1.8671 0.1738 2.637z"/>
<path fill="#fff" d="m8198.3 8158.7c2.2821 0.2602 4.5056 0.5009 5.8786 0.5976 0-1.246-0.01-2.2821-0.033-3.1883-1.4218 0.069-3.5887 0.1733-5.8278 0.1279 0 0.6416-0.018 1.3388-0.018 2.4628z"/>
<path fill="#fdfdfe" d="m8198.3 8156.3c2.2391 0.045 4.406-0.059 5.8278-0.1279-0.026-0.9057-0.071-1.6815-0.1465-2.4081-1.4706 0.2339-3.5906 0.46-5.7985 0.4053 0.09 0.9023 0.1142 1.4887 0.1172 2.1307z"/>
<path fill="#fff" d="m8191.8 8152.8c1.8251 0.8886 4.1218 1.224 6.3307 1.2792-0.086-0.8647-0.1699-1.3295-0.2803-1.7899-2.1883-0.084-4.4792-0.5669-6.4024-1.8647 0.1333 0.6377 0.2485 1.3041 0.352 2.3754z"/>
<path fill="#fff" d="m8191.5 8150.5c1.9232 1.2978 4.2141 1.7807 6.4024 1.8647-0.1103-0.46-0.2461-0.915-0.4345-1.7607-2.1444-0.042-4.4041-0.5996-6.4274-2.307 0.1753 0.9565 0.3262 1.5654 0.4595 2.203z"/>
<path fill="#f6f7fb" d="m8198.2 8154.1c2.2079 0.055 4.3279-0.1714 5.7985-0.4053-0.068-0.6576-0.1611-1.2748-0.2871-1.911-1.5175 0.2964-3.6033 0.6113-5.7917 0.5264 0.1104 0.4604 0.1944 0.9252 0.2803 1.7899z"/>
<path fill="#eef1f7" d="m8197.9 8152.3c2.1884 0.085 4.2742-0.23 5.7917-0.5264-0.127-0.6367-0.2871-1.2924-0.4883-2.0272-1.5634 0.3594-3.5935 0.8344-5.7379 0.7929 0.1884 0.8457 0.3242 1.3007 0.4345 1.7607z"/>
<path fill="#fff" d="m8204.1 8159.3c0.068 0 0.6396 0.2832 1.5663 0.4219 0.045-1.0459 0.099-2.0556 0.1425-3.0277-0.913-0.065-1.5848-0.4707-1.7381-0.4516 0.022 0.8744 0.029 1.8705 0.029 3.0574z"/>
<path fill="#fbfcfe" d="m8204.1 8156.3c0.1533-0.019 0.8251 0.3862 1.7381 0.4516 0.043-0.9721 0.076-1.9066 0.083-2.8016-0.8827 0.096-1.6083-0.048-1.95 0.02 0.066 0.7016 0.1054 1.455 0.1289 2.33z"/>
<path fill="#f0f2f9" d="m8204 8153.9c0.3417-0.068 1.0673 0.076 1.95-0.02 0.01-0.895-0.014-1.7509-0.079-2.5658-0.8515 0.2569-1.6297 0.4478-2.16 0.5659 0.1299 0.6679 0.2227 1.3178 0.2891 2.0199z"/>
<path fill="#e1e6f2" d="m8203.7 8151.9c0.5303-0.1181 1.3085-0.309 2.16-0.5659-0.064-0.8153-0.1738-1.5897-0.3456-2.3216-0.8389 0.3305-1.706 0.6196-2.3222 0.7602 0.2129 0.7734 0.3789 1.4594 0.5078 2.1273z"/>
<path fill="#fff" d="m8205.7 8159.7c0.164 0.023 0.3339 0.046 0.5097 0.069 0.062-1.0024 0.1377-2.018 0.2051-3.0223-0.1875 0-0.3926-0.071-0.5723-0.074-0.044 0.9721-0.098 1.9818-0.1425 3.0277z"/>
<path fill="#fbfcfe" d="m8205.9 8156.7c0.1797 0 0.3848 0.073 0.5723 0.074 0.068-1.0043 0.1289-1.9974 0.1611-2.9559-0.2139 0.044-0.4346 0.04-0.6504 0.08-0.01 0.895-0.04 1.8295-0.083 2.8016z"/>
<path fill="#edf1f7" d="m8205.9 8153.9c0.2158-0.04 0.4365-0.036 0.6504-0.08 0.032-0.9584 0.038-1.8812 0-2.7444-0.2393 0.089-0.4736 0.1738-0.7256 0.2587 0.066 0.8149 0.086 1.6708 0.079 2.5658z"/>
<path fill="#dfe4f1" d="m8205.9 8151.3c0.252-0.085 0.4863-0.1694 0.7256-0.2587-0.042-0.8633-0.1309-1.6669-0.2871-2.3871-0.2519 0.1098-0.5166 0.2192-0.7841 0.3242 0.1718 0.7319 0.2812 1.5063 0.3456 2.3216z"/>
<path fill="#fff" d="m8206.2 8159.8c0.086 0.011 0.1728 0.022 0.2617 0.033 0.069-0.9814 0.1533-1.9999 0.2305-3.0208-0.094-0.0005-0.1944-0.033-0.2871-0.034-0.067 1.0043-0.1426 2.0199-0.2051 3.0223z"/>
<path fill="#fbfcfe" d="m8206.4 8156.8c0.093 0 0.1933 0.034 0.2871 0.034 0.078-1.0209 0.1494-2.0438 0.1933-3.0335-0.1064 0.022-0.2129 0.022-0.3193 0.043-0.032 0.9585-0.093 1.9516-0.1611 2.9559z"/>
<path fill="#edf1f7" d="m8206.6 8153.8c0.1064-0.022 0.2129-0.021 0.3193-0.043 0.043-0.9897 0.06-1.9462 0.027-2.8334-0.1172 0.045-0.2305 0.088-0.3506 0.1324 0.042 0.8632 0.036 1.786 0 2.7444z"/>
<path fill="#dee4f1" d="m8206.6 8151.1c0.1201-0.044 0.2334-0.087 0.3506-0.1324-0.032-0.8871-0.1133-1.7054-0.2637-2.4197-0.123 0.055-0.248 0.1103-0.374 0.165 0.1562 0.7202 0.2451 1.5238 0.2871 2.3871z"/>
<path fill="#fff" d="m8206.5 8159.8c0.3838 0.047 0.791 0.091 1.2119 0.1328 0.071-0.8984 0.1669-1.9291 0.2607-3.0135-0.4219 0-0.8427-0.1347-1.2421-0.1401-0.077 1.0209-0.1612 2.0394-0.2305 3.0208z"/>
<path fill="#fbfcfe" d="m8206.7 8156.8c0.3994 0.01 0.8202 0.1372 1.2421 0.1401 0.094-1.0849 0.1855-2.223 0.249-3.3357-0.4287 0.082-0.8642 0.077-1.2978 0.1621-0.044 0.9897-0.1152 2.0126-0.1933 3.0335z"/>
<path fill="#edf1f7" d="m8206.9 8153.8c0.4336-0.086 0.8691-0.08 1.2978-0.1621 0.064-1.1128 0.1006-2.2001 0.083-3.1825-0.4355 0.1675-0.8847 0.335-1.3534 0.5112 0.032 0.8872 0.016 1.8437-0.027 2.8334z"/>
<path fill="#dee4f1" d="m8206.9 8151c0.4687-0.1762 0.9179-0.3437 1.3534-0.5112-0.018-0.9818-0.088-1.8592-0.2373-2.5521-0.4385 0.2056-0.8955 0.4253-1.3798 0.6436 0.1504 0.7143 0.2314 1.5326 0.2637 2.4197z"/>
<path fill="#fff" d="m8207.7 8160c1.5545 0.1538 3.2888 0.2705 4.6725 0.3545 0.06-0.665 0.1699-1.8324 0.291-3.2523-1.327-0.074-3.0017-0.1674-4.7028-0.1157-0.094 1.0844-0.1895 2.1151-0.2607 3.0135z"/>
<path fill="#fbfcfe" d="m8208 8157c1.7011-0.052 3.3758 0.042 4.7028 0.1157 0.1221-1.4198 0.2539-3.0921 0.3574-4.7673-1.2255 0.4009-2.7889 0.813-4.8112 1.3159-0.064 1.1127-0.1553 2.2508-0.249 3.3357z"/>
<path fill="#edf1f7" d="m8208.2 8153.6c2.0223-0.5029 3.5857-0.915 4.8112-1.3159 0.1035-1.6752 0.1778-3.3528 0.1836-4.7834-1.121 0.9609-2.5662 1.9628-4.9118 2.9168 0.018 0.9824-0.02 2.0697-0.083 3.1825z"/>
<path fill="#dee4f1" d="m8208.3 8150.4c2.3456-0.954 3.7908-1.9559 4.9118-2.9168 0-1.4306-0.059-2.6141-0.2324-3.3006-1.0517 1.2255-2.4256 2.5062-4.9167 3.6653 0.1494 0.6929 0.2197 1.5703 0.2373 2.5521z"/>
<path fill="#fff" d="m8212.4 8160.3c1.3828 0.083 2.4159 0.1338 2.5682 0.1533 0.047-0.4321 0.1826-1.7021 0.3477-3.407-0.3145 0.1298-1.2968 0.075-2.6249 0-0.1211 1.4199-0.2314 2.5873-0.291 3.2523z"/>
<path fill="#fbfcfe" d="m8212.7 8157.1c1.3281 0.074 2.3104 0.1284 2.6249 0 0.166-1.705 0.3603-3.8445 0.5244-6.0153-0.6758 0.4585-1.5654 0.8486-2.7919 1.2494-0.1035 1.6752-0.2353 3.3475-0.3574 4.7673z"/>
<path fill="#edf1f7" d="m8213 8152.3c1.2265-0.4008 2.1161-0.7909 2.7919-1.2494 0.164-2.1708 0.2978-4.3723 0.3408-6.2013-1.0371 0.7875-1.829 1.7069-2.9491 2.6673-0.01 1.4306-0.08 3.1082-0.1836 4.7834z"/>
<path fill="#dee4f1" d="m8213.2 8147.5c1.1201-0.9604 1.912-1.8798 2.9491-2.6673 0.043-1.829 0-3.2855-0.2012-3.9656-1.2001 0.937-1.9296 2.1068-2.9803 3.3323 0.1738 0.6865 0.2373 1.87 0.2324 3.3006z"/>
<path fill="#fff" d="m8214.9 8160.5c0.4317 0.057 1.0683 0.1182 1.8261 0.1865 0.058-0.7333 0.2148-2.2582 0.4043-4.1868-0.7636 0.3311-1.4199 0.563-1.8827 0.5933-0.1651 1.7049-0.3008 2.9749-0.3477 3.407z"/>
<path fill="#fafbfd" d="m8215.3 8157.1c0.4628-0.03 1.1191-0.2622 1.8827-0.5933 0.1884-1.9286 0.4101-4.2609 0.5956-6.6094-0.745 0.537-1.4217 0.9677-1.9539 1.1874-0.1641 2.1708-0.3584 4.3103-0.5244 6.0153z"/>
<path fill="#fbfdfe" d="m8216.8 8160.7c0.7578 0.068 1.6366 0.1436 2.5536 0.2275 0.081-1.3954 0.2255-3.3591 0.3798-5.5983-0.8944 0.4238-1.7665 0.853-2.5291 1.184-0.1895 1.9286-0.3467 3.4535-0.4043 4.1868z"/>
<path fill="#f3f6fa" d="m8217.2 8156.5c0.7626-0.331 1.6347-0.7602 2.5291-1.184 0.1533-2.2396 0.3164-4.7546 0.4346-7.252-0.8076 0.646-1.622 1.2895-2.3681 1.8266-0.1855 2.3485-0.4072 4.6808-0.5956 6.6094z"/>
<path fill="#e9eef6" d="m8215.8 8151.1c0.5322-0.2197 1.2089-0.6504 1.9539-1.1874 0.1875-2.3485 0.3389-4.7127 0.3887-6.7052-0.7119 0.6889-1.3993 1.2816-2.0018 1.6913-0.043 1.829-0.1768 4.0305-0.3408 6.2013z"/>
<path fill="#d7dfee" d="m8216.2 8144.9c0.6025-0.4097 1.2899-1.0024 2.0018-1.6913 0.049-1.9926 0-3.6131-0.2256-4.4739-0.6689 0.9258-1.3427 1.704-1.9774 2.1996 0.1973 0.6801 0.2441 2.1366 0.2012 3.9656z"/>
<path fill="#dee6f1" d="m8217.8 8149.9c0.7461-0.5371 1.5605-1.1806 2.3681-1.8266 0.1181-2.4974 0.1923-4.9782 0.167-7.149-0.6992 0.7954-1.4355 1.581-2.1464 2.2704-0.05 1.9925-0.2012 4.3567-0.3887 6.7052z"/>
<path fill="#cad6e9" d="m8218.2 8143.2c0.7109-0.6894 1.4472-1.475 2.1464-2.2704-0.024-2.1708-0.1485-4.0315-0.4258-5.2902-0.6142 1.0868-1.2773 2.1605-1.9462 3.0867 0.2217 0.8608 0.2744 2.4813 0.2256 4.4739z"/>
<path fill="#eaeff6" d="m8219.3 8160.9c0.9169 0.084 1.87 0.1768 2.7752 0.2813 0.1045-2.0575 0.2041-4.4685 0.2734-7.0309-0.8574 0.3086-1.7762 0.727-2.6688 1.1513-0.1543 2.2392-0.2988 4.2029-0.3798 5.5983z"/>
<path fill="#dce5f0" d="m8219.7 8155.3c0.8926-0.4243 1.8114-0.8427 2.6688-1.1513 0.069-2.5623 0.1094-5.2755 0.095-7.939-0.7196 0.5449-1.5214 1.1923-2.3289 1.8383-0.1182 2.4974-0.2813 5.0124-0.4346 7.252z"/>
<path fill="#cbd8e9" d="m8222.1 8161.2c0.9052 0.104 1.7636 0.2192 2.4891 0.3476 0.1152-2.3587 0.1377-5.0485 0.085-7.8716-0.6494-0.015-1.4443 0.1846-2.3007 0.4931-0.069 2.5624-0.1689 4.9734-0.2734 7.0309z"/>
<path fill="#b9c9e0" d="m8222.4 8154.1c0.8564-0.3085 1.6513-0.5078 2.3007-0.4931-0.053-2.8231-0.1807-5.779-0.3682-8.6694-0.4804 0.2353-1.1181 0.6782-1.8378 1.2235 0.015 2.6635-0.025 5.3767-0.095 7.939z"/>
<path fill="#c6d4e8" d="m8220.1 8148c0.8075-0.646 1.6093-1.2934 2.3289-1.8383-0.015-2.6634-0.084-5.277-0.2324-7.6382-0.5663 0.7275-1.2304 1.5321-1.9295 2.3275 0.025 2.1708-0.049 4.6516-0.167 7.149z"/>
<path fill="#b1c3de" d="m8220.3 8140.9c0.6991-0.7954 1.3632-1.6 1.9295-2.3275-0.1484-2.3612-0.3769-4.4709-0.7079-6.1271-0.4697 0.978-1.0342 2.0775-1.6474 3.1644 0.2773 1.2587 0.4013 3.1194 0.4258 5.2902z"/>
<path fill="#a3b9d8" d="m8222.5 8146.2c0.7197-0.5453 1.3574-0.9882 1.8378-1.2235-0.1875-2.8905-0.4335-5.716-0.7226-8.2779-0.3115 0.4858-0.7812 1.1357-1.3476 1.8632 0.1485 2.3612 0.2178 4.9748 0.2324 7.6382z"/>
<path fill="#8fabcf" d="m8222.2 8138.6c0.5664-0.7275 1.0361-1.3774 1.3476-1.8632-0.2881-2.5623-0.6191-4.8605-0.9765-6.6973-0.2353 0.5995-0.6093 1.4555-1.079 2.4334 0.331 1.6562 0.5595 3.7659 0.7079 6.1271z"/>
<path fill="#fff" d="m8191 8148.3c2.0233 1.7074 4.283 2.2655 6.4274 2.307-0.5137-2.5858-1.0205-4.6149-1.5702-6.5289-2.4433-1.3168-5.0583-3.2137-7.2462-5.2272 0.8217 2.2782 1.6044 5.1593 2.389 9.4491z"/>
<path fill="#fff" d="m8188.6 8138.8c2.1879 2.0135 4.8029 3.9104 7.2462 5.2272-0.5498-1.9144-1.1426-3.7136-1.8271-5.8385-2.7322-1.1289-5.6896-2.9017-8.0415-5.2219 0.9404 1.8788 1.8007 3.5545 2.6224 5.8332z"/>
<path fill="#eaeef6" d="m8197.5 8150.6c2.1444 0.042 4.1745-0.4335 5.7379-0.7929-0.1211-0.4409-0.2812-1.0034-0.4667-1.6728-1.5449 0.3428-3.7293-0.086-6.0427-1.0507 0.2598 1.0698 0.5147 2.2235 0.7715 3.5164z"/>
<path fill="#eceff7" d="m8196.7 8147.1c2.3134 0.9648 4.4978 1.3935 6.0427 1.0507-0.1856-0.6698-0.3955-1.4471-0.6172-2.3177-1.5058 0.3071-3.78-0.4292-6.2242-1.7455 0.2753 0.957 0.539 1.9428 0.7987 3.0125z"/>
<path fill="#f3f4f9" d="m8195.9 8144c2.4442 1.3163 4.7184 2.0526 6.2242 1.7455-0.4433-1.7406-0.9335-3.8538-1.3632-6.2252-1.4491 0.2553-3.9558-0.23-6.6881-1.3588 0.6845 2.1249 1.2773 3.9241 1.8271 5.8385z"/>
<path fill="#dce1f0" d="m8203.2 8149.8c0.8125-0.1855 2.0614-0.6289 3.1063-1.0844-0.1533-0.4263-0.3389-0.9721-0.5459-1.6235-1.0634 0.4536-2.2459 0.8628-3.0271 1.0351 0.1855 0.6694 0.3456 1.2319 0.4667 1.6728z"/>
<path fill="#dee4f1" d="m8202.7 8148.1c0.7812-0.1723 1.9637-0.5815 3.0271-1.0351-0.207-0.6508-0.4345-1.4071-0.6738-2.2557-1.1034 0.4477-2.2615 0.8305-2.9705 0.9731 0.2217 0.8706 0.4316 1.6479 0.6172 2.3177z"/>
<path fill="#e4e8f3" d="m8202.1 8145.8c0.709-0.1426 1.8671-0.5254 2.9705-0.9731-0.4775-1.6962-0.9999-3.7595-1.4842-6.0797-1.165 0.4394-2.2441 0.7285-2.8495 0.8276 0.4297 2.3714 0.9199 4.4846 1.3632 6.2252z"/>
<path fill="#d8deee" d="m8206.3 8148.7c0.2441-0.106 0.4814-0.2134 0.7128-0.3198-0.1474-0.4287-0.3251-0.976-0.5243-1.6283-0.2373 0.1079-0.4863 0.2202-0.7344 0.3246 0.207 0.6514 0.3926 1.1972 0.5459 1.6235z"/>
<path fill="#dae1ef" d="m8205.8 8147.1c0.2481-0.1044 0.4971-0.2167 0.7344-0.3246-0.1992-0.6523-0.418-1.4096-0.6475-2.2582-0.2509 0.1113-0.5048 0.2241-0.7607 0.3271 0.2393 0.8486 0.4668 1.6049 0.6738 2.2557z"/>
<path fill="#e0e5f2" d="m8205.1 8144.8c0.2559-0.103 0.5098-0.2158 0.7607-0.3271-0.4599-1.6972-0.9638-3.7596-1.4354-6.0773-0.2715 0.1157-0.543 0.2241-0.8095 0.3247 0.4843 2.3202 1.0067 4.3835 1.4842 6.0797z"/>
<path fill="#d8deee" d="m8207 8148.4c0.3604-0.1665 0.7061-0.3315 1.041-0.4888-0.3076-0.85-0.7236-2.1722-1.1825-3.8576-0.3399 0.1494-0.6807 0.3066-1.0303 0.4599 0.46 1.6972 0.876 3.0291 1.1718 3.8865z"/>
<path fill="#e0e4f2" d="m8205.8 8144.5c0.3496-0.1533 0.6904-0.3105 1.0303-0.4599-0.459-1.685-0.9609-3.7337-1.4404-6.0378-0.3447 0.1402-0.6875 0.2798-1.0253 0.4204 0.4716 2.3177 0.9755 4.3801 1.4354 6.0773z"/>
<path fill="#d7dded" d="m8208.1 8147.9c3.3582-1.5629 4.6872-3.3474 5.9313-4.9186-0.2705-0.6108-0.5859-1.6708-0.9394-3.0809-1.5507 1.4994-3.3699 2.9027-6.1744 4.1419 0.4589 1.6854 0.8749 3.0076 1.1825 3.8576z"/>
<path fill="#dee4f1" d="m8206.9 8144c2.8045-1.2392 4.6237-2.6425 6.1744-4.1419-0.3535-1.4101-0.7451-3.1702-1.1669-5.1813-1.8583 1.4276-4.198 2.3699-6.4479 3.2854 0.4795 2.3041 0.9814 4.3528 1.4404 6.0378z"/>
<path fill="#d3dbed" d="m8214 8143c0.6015-0.7592 1.1835-1.4687 1.9657-2.079-0.3867-1.3378-0.833-4.4333-1.5038-8.521-0.8359 0.5146-1.5683 1.5693-2.5682 2.3378 0.8447 4.0217 1.5663 7.0411 2.1063 8.2622z"/>
<path fill="#ccd6ea" d="m8216 8140.9c-0.1933-0.6689-0.4013-1.7772-0.6445-3.2293 0.6035-0.4243 1.2451-1.2265 1.8866-2.2211 0.2754 1.3535 0.5254 2.4472 0.7353 3.2508-0.6689 0.9258-1.3427 1.704-1.9774 2.1996z"/>
<path fill="#becbe4" d="m8217.9 8138.7c-0.2099-0.8036-0.4599-1.8973-0.7353-3.2508 0.6406-0.9945 1.2822-2.1815 1.8827-3.3757 0.2773 1.2577 0.5537 2.4402 0.7988 3.5398-0.6142 1.0868-1.2773 2.1605-1.9462 3.0867z"/>
<path fill="#c6d2e8" d="m8215.3 8137.7c-0.2441-1.4521-0.5234-3.2479-0.8593-5.2917 0.5722-0.3535 1.2089-0.9789 1.8612-1.7401 0.3096 1.8431 0.6093 3.4568 0.8847 4.8107-0.6415 0.9946-1.2831 1.7968-1.8866 2.2211z"/>
<path fill="#b8c6e0" d="m8217.2 8135.4c-0.2754-1.3539-0.5751-2.9676-0.8847-4.8107 0.6523-0.7612 1.3212-1.6586 1.9589-2.557 0.2519 1.4013 0.5312 2.7342 0.8085 3.992-0.6005 1.1942-1.2421 2.3812-1.8827 3.3757z"/>
<path fill="#a8bcda" d="m8219.9 8135.6c-0.2451-1.0996-0.5215-2.2821-0.7988-3.5398 0.6006-1.1938 1.1601-2.3944 1.6396-3.4163 0.2519 1.1439 0.5253 2.3958 0.8066 3.7917-0.4697 0.978-1.0342 2.0775-1.6474 3.1644z"/>
<path fill="#86a5cc" d="m8221.5 8132.4c-0.2813-1.3959-0.5547-2.6478-0.8066-3.7917 0.4794-1.022 0.8779-1.8657 1.1562-2.3456 0.2001 0.9906 0.4325 2.1737 0.7294 3.7039-0.2353 0.5995-0.6093 1.4555-1.079 2.4334z"/>
<path fill="#a3b8d8" d="m8219.1 8132.1c-0.2773-1.2578-0.5566-2.5907-0.8085-3.992 0.6376-0.8984 1.244-1.7977 1.7714-2.5624 0.1943 0.96 0.4247 1.9941 0.6767 3.1381-0.4795 1.0219-1.039 2.2225-1.6396 3.4163z"/>
<path fill="#84a3ca" d="m8220.7 8128.7c-0.252-1.144-0.4824-2.1781-0.6767-3.1381 0.5263-0.7646 0.9745-1.3944 1.2948-1.7542 0.1689 0.7587 0.3379 1.556 0.5381 2.5467-0.2783 0.4799-0.6768 1.3236-1.1562 2.3456z"/>
<path fill="#fff" d="m8186 8133c2.3519 2.3202 5.3093 4.093 8.0415 5.2219-0.7079-2.1967-1.4794-4.5105-2.2679-6.6569-3.6087-1.6239-7.501-3.9553-10.026-6.5977 1.7138 3.0999 3.2801 6.0909 4.2527 8.0327z"/>
<path fill="#fff" d="m8181.8 8125c2.5253 2.6424 6.4176 4.9738 10.026 6.5977-0.7885-2.1463-1.5951-4.1257-2.3763-5.6539-4.8733-2.9461-10.087-6.6622-12.786-9.6269 1.5614 2.3753 3.4226 5.5832 5.1364 8.6831z"/>
<path fill="#fcfdfe" d="m8194.1 8138.2c2.7323 1.1288 5.239 1.6141 6.6881 1.3588-0.4453-2.4515-0.5918-4.2766-0.6269-5.6594-1.3945 0.1856-4.7195-0.7318-8.3291-2.3563 0.7885 2.1464 1.56 4.4602 2.2679 6.6569z"/>
<path fill="#fff" d="m8191.8 8131.6c3.6096 1.6245 6.9346 2.5419 8.3291 2.3563-0.036-1.3832 0.039-2.3235 0.039-3.0052-1.3379 0.1163-5.8708-2.0594-10.744-5.005 0.7812 1.5282 1.5878 3.5076 2.3763 5.6539z"/>
<path fill="#f6f7fb" d="m8200.7 8139.6c0.6425-0.1055 1.8173-0.4243 3.0633-0.9096-0.3261-2.3954-0.3476-4.2039-0.2646-5.5827-1.3222 0.4668-2.7049 0.7451-3.4256 0.8329 0.035 1.3828 0.1816 3.2079 0.6269 5.6594z"/>
<path fill="#feffff" d="m8200.1 8133.9c0.7207-0.088 2.1034-0.3661 3.4256-0.8329 0.084-1.3784 0.2714-2.327 0.3632-3.0023-1.4003 0.4482-2.951 0.7597-3.7497 0.83 0 0.6817-0.075 1.622-0.039 3.0052z"/>
<path fill="#f1f3f9" d="m8203.8 8138.7c0.1973-0.077 0.3965-0.1577 0.5957-0.2427-0.3057-2.3871-0.3057-4.1936-0.2022-5.5724-0.2148 0.081-0.4374 0.1552-0.6581 0.2324-0.083 1.3788-0.061 3.1873 0.2646 5.5827z"/>
<path fill="#fbfcfe" d="m8203.5 8133.1c0.2207-0.077 0.4433-0.1514 0.6581-0.2324 0.1035-1.3784 0.3106-2.329 0.419-3.0042-0.2305 0.077-0.4697 0.1562-0.7139 0.2343-0.092 0.6753-0.2792 1.6239-0.3632 3.0023z"/>
<path fill="#eff1f8" d="m8204.4 8138.4c0.5517-0.2295 1.1151-0.456 1.6805-0.687-0.2695-2.3397-0.2304-4.1218-0.09-5.483-0.4814 0.1401-1.1171 0.3505-1.7929 0.5976-0.1035 1.3788-0.1035 3.1853 0.2022 5.5724z"/>
<path fill="#fafbfe" d="m8204.2 8132.8c0.6758-0.2471 1.3115-0.4575 1.7929-0.5976 0.1396-1.3613 0.3799-2.3017 0.5107-2.9574-0.3964 0.05-1.0859 0.2847-1.8846 0.5508-0.1084 0.6752-0.3155 1.6258-0.419 3.0042z"/>
<path fill="#eaeef6" d="m8206.1 8137.7c1.0215-0.4179 2.0497-0.85 3.0331-1.3388-0.3379-2.3323-0.2822-4.0969-0.1328-5.4528-0.8691 0.5537-1.8349 1.018-2.9901 1.3086-0.1406 1.3612-0.1797 3.1433 0.09 5.483z"/>
<path fill="#f8f9fc" d="m8206 8132.2c1.1552-0.2906 2.121-0.7549 2.9901-1.3086 0.075-0.6781 0.1738-1.2538 0.2578-1.7474-0.8047 0.6108-1.7421 1.1098-2.9891 1.3129-0.094 0.4873-0.1885 1.0624-0.2588 1.7431z"/>
<path fill="#fcfdfe" d="m8206.3 8130.5c1.247-0.2031 2.1844-0.7021 2.9891-1.3129 0.085-0.4936 0.1552-0.9052 0.1738-1.2543-0.7363 0.6562-1.621 1.1898-2.911 1.3529-0.065 0.3276-0.1582 0.727-0.2519 1.2143z"/>
<path fill="#e0e5f2" d="m8209.1 8136.4c0.9823-0.4892 1.9198-1.035 2.7596-1.68-0.2031-1.1626-0.3252-2.2045-0.3965-3.1375-0.8173 0.6459-1.6835 1.2191-2.6131 1.725 0.01 0.9022 0.081 1.9266 0.25 3.0925z"/>
<path fill="#e5eaf5" d="m8208.9 8133.3c0.9296-0.5059 1.7958-1.0791 2.6131-1.725-0.07-0.9331-0.09-1.7563-0.088-2.4804-0.7675 0.6479-1.538 1.2915-2.408 1.8451-0.074 0.6777-0.126 1.458-0.1172 2.3603z"/>
<path fill="#eff2f9" d="m8209 8130.9c0.87-0.5536 1.6405-1.1972 2.408-1.8451 0-0.724 0.025-1.3495 0.042-1.8861-0.7167 0.6499-1.3876 1.373-2.1922 1.9838-0.084 0.4936-0.1826 1.0693-0.2578 1.7474z"/>
<path fill="#f6f8fc" d="m8209.2 8129.2c0.8046-0.6108 1.4755-1.3339 2.1922-1.9838 0.017-0.5371 0.025-0.9858 0-1.3559-0.6933 0.6518-1.2802 1.4296-2.0155 2.0854-0.019 0.3491-0.089 0.7607-0.1738 1.2543z"/>
<path fill="#d4dced" d="m8211.9 8134.7c0.9999-0.7685 1.7323-1.8232 2.5682-2.3378-0.1738-1.0571-0.2637-2.0048-0.3027-2.8499-0.9082 0.4502-1.7031 1.2929-2.662 2.0502 0.071 0.933 0.1934 1.9749 0.3965 3.1375z"/>
<path fill="#d8dfef" d="m8211.5 8131.6c0.9589-0.7573 1.7538-1.6 2.662-2.0502-0.038-0.8457-0.025-1.5888 0.01-2.2362-1.0683 0.3095-1.8866 1.0732-2.7577 1.806 0 0.7241 0.018 1.5473 0.088 2.4804z"/>
<path fill="#e0e6f2" d="m8211.4 8129.1c0.8711-0.7328 1.6894-1.4965 2.7577-1.806 0.033-0.6474 0.086-1.1987 0.1269-1.6611-1.2265 0.168-2.0604 0.8721-2.8426 1.581-0.017 0.5366-0.04 1.1621-0.042 1.8861z"/>
<path fill="#e8ecf5" d="m8211.4 8127.2c0.7822-0.7089 1.6161-1.413 2.8426-1.581 0.042-0.4623 0.072-0.8358 0.061-1.1273-1.2998 0.1035-2.164 0.6557-2.9061 1.3524 0.028 0.3701 0.02 0.8188 0 1.3559z"/>
<path fill="#c4cfe5" d="m8214.4 8132.4c-0.3467-2.1141-0.3613-3.7913-0.2949-5.0861 0.5722-0.1992 1.1796-0.6054 1.7928-1.1176-0.01 1.1244 0.044 2.5579 0.3633 4.4636-0.6523 0.7612-1.289 1.3866-1.8612 1.7401z"/>
<path fill="#b4c4de" d="m8216.3 8130.6c-0.3193-1.9057-0.373-3.3392-0.3633-4.4636 0.6133-0.5122 1.2314-1.1303 1.8242-1.7524 0.1093 1.0342 0.2382 2.2099 0.498 3.659-0.6377 0.8984-1.3066 1.7958-1.9589 2.557z"/>
<path fill="#cbd5ea" d="m8214.2 8127.3c0.065-1.2944 0.2119-2.2059 0.1875-2.7884 0.5712-0.045 1.1044-0.4141 1.6092-0.9477 0.074 0.6752 0 1.4931 0 2.6185-0.6132 0.5122-1.2206 0.9184-1.7928 1.1176z"/>
<path fill="#bac7e1" d="m8215.9 8126.2c0.01-1.1254 0.078-1.9433 0-2.6185 0.5039-0.5342 0.9785-1.2334 1.4336-1.9408 0.1855 0.8813 0.2773 1.7728 0.3867 2.8069-0.5928 0.6221-1.2109 1.2402-1.8242 1.7524z"/>
<path fill="#9fb5d6" d="m8218.3 8128.1c-0.2598-1.4491-0.3887-2.6248-0.498-3.659 0.5927-0.6225 1.16-1.2489 1.6698-1.7782 0.2109 0.9536 0.3984 1.8827 0.5996 2.8748-0.5274 0.7647-1.1338 1.664-1.7714 2.5624z"/>
<path fill="#84a2ca" d="m8220 8125.5c-0.2012-0.9921-0.3887-1.9212-0.5996-2.8748 0.5097-0.5292 0.9638-0.9609 1.33-1.1947 0.2168 0.8149 0.3906 1.5306 0.5644 2.3153-0.3203 0.3598-0.7685 0.9896-1.2948 1.7542z"/>
<path fill="#a4b8d8" d="m8217.8 8124.4c-0.1094-1.0341-0.2012-1.9256-0.3867-2.8069 0.455-0.7075 0.8905-1.4223 1.3143-1.9872 0.2959 1.0863 0.5313 2.0628 0.7422 3.0159-0.5098 0.5293-1.0771 1.1557-1.6698 1.7782z"/>
<path fill="#87a3cb" d="m8219.4 8122.6c-0.2109-0.9531-0.4463-1.9296-0.7422-3.0159 0.4238-0.5649 0.8369-0.9799 1.248-1.0869 0.3467 1.1796 0.6074 2.0932 0.8242 2.9081-0.3662 0.2338-0.8203 0.6655-1.33 1.1947z"/>
<path fill="#fff" d="m8176.6 8116.3c5.3981 5.9293 20.856 14.864 23.531 14.632 0-0.5185-0.1153-1.8416-0.3047-3.7116-3.8064-1.0298-17.607-8.9893-23.036-14.286-0.3281 1.7255-0.4062 3.0379-0.1904 3.366z"/>
<path fill="#fff" d="m8176.8 8112.9c5.4284 5.297 19.229 13.256 23.036 14.286-0.792-7.8136-2.8875-25.168-3.3709-33.237-6.1598 0-10.677 2.411-13.866 6.0631-3.0604 3.5018-4.9001 8.1431-5.7985 12.888z"/>
<path fill="#fff" d="m8200.2 8130.9c0.7987-0.07 2.3494-0.3818 3.7497-0.83-0.3193-5.0519-3.3797-25.872-5.2868-36.084-0.8241-0.051-1.411-0.033-2.1385-0.035 0.5986 10 3.6756 34.264 3.6756 36.949z"/>
<path fill="#fff" d="m8203.9 8130.1c0.1533-0.049 0.3047-0.099 0.4531-0.1474-0.3896-5.2634-3.4861-25.716-5.5612-35.925-0.061 0-0.1211-0.01-0.1787-0.012 1.9071 10.212 4.9675 31.032 5.2868 36.084z"/>
<path fill="#fff" d="m8204.4 8129.9c0.9082-0.3003 1.706-0.5825 2.1454-0.6377-0.2724-3.306-1.1708-9.5263-2.3543-16.201-0.4317-0.01-1.2695 0.5961-1.9394 0.7304 1.082 7.0475 1.953 13.476 2.1483 16.108z"/>
<path fill="#fff" d="m8202.2 8113.8c0.6699-0.1343 1.5077-0.7392 1.9394-0.7304-1.1836-6.6744-2.6522-13.804-4.0672-18.928-0.4228-0.073-0.8515-0.127-1.2851-0.1587 1.0381 5.1042 2.331 12.769 3.4129 19.817z"/>
<path fill="#feffff" d="m8206.5 8129.3c1.9794-0.2505 3.0057-1.3739 4.0027-2.472-0.1367-2.3671-0.3945-4.9226-0.7714-7.5777-1.0996 1.4975-2.2304 3.0301-4.0662 3.2127 0.4062 2.8026 0.6992 5.1843 0.8349 6.837z"/>
<path fill="#fff" d="m8205.7 8122.5c1.8358-0.1826 2.9666-1.7152 4.0662-3.2127-0.377-2.6546-0.874-5.4089-1.4892-8.1743-1.2704 0.9662-2.576 1.9896-4.0964 2.0233 0.5917 3.3372 1.1122 6.5611 1.5194 9.3637z"/>
<path fill="#fff" d="m8204.2 8113.1c1.5204-0.034 2.826-1.0571 4.0964-2.0233-1.2304-5.5314-2.9344-11.107-5.1003-16.021-0.9784-0.3955-2.0028-0.7011-3.0633-0.8837 1.415 5.1237 2.8836 12.253 4.0672 18.928z"/>
<path fill="#f5f7fb" d="m8210.5 8126.8c0.498-0.5488 0.9892-1.0913 1.5898-1.5156-0.1367-2.8582-0.3399-5.5416-0.6504-8.1079-0.6191 0.5576-1.1611 1.2978-1.7108 2.0458 0.3769 2.6551 0.6347 5.2106 0.7714 7.5777z"/>
<path fill="#f9fafd" d="m8209.7 8119.2c0.5497-0.748 1.0917-1.4882 1.7108-2.0458-0.3105-2.5657-0.7304-5.0143-1.3007-7.4038-0.6386 0.3232-1.2646 0.7919-1.8993 1.2753 0.6152 2.7654 1.1122 5.5197 1.4892 8.1743z"/>
<path fill="#e6ebf5" d="m8212.1 8125.3c0.5995-0.4238 1.3075-0.7289 2.2401-0.8031-0.1367-3.0819-0.3652-5.7873-0.7226-8.2583-0.8555 0.021-1.5498 0.3959-2.1679 0.9535 0.3105 2.5663 0.5137 5.2497 0.6504 8.1079z"/>
<path fill="#eff1f8" d="m8211.4 8117.2c0.6181-0.5576 1.3124-0.933 2.1679-0.9535-0.3574-2.4711-0.8428-4.7083-1.4941-6.8541-0.6855-0.098-1.3368 0.08-1.9745 0.4038 0.5703 2.3895 0.9902 4.8381 1.3007 7.4038z"/>
<path fill="#f9fafd" d="m8208.2 8111.1c1.2695-0.9668 2.5018-1.8749 3.8738-1.6791-1.3017-4.2918-3.2654-8.2183-6.1823-12.921-0.8798-0.5405-1.8133-1.0248-2.7918-1.4203 2.1659 4.9133 3.8699 10.489 5.1003 16.021z"/>
<path fill="#d4dbed" d="m8214.3 8124.5c-0.2725-6.1637-0.914-10.821-2.2167-15.112 0.5703 0.1528 1.039 0.2114 1.4491 0.2309 1.3007 3.9705 2.0107 8.271 2.3768 13.934-0.5048 0.5336-1.038 0.9023-1.6092 0.9477z"/>
<path fill="#c3cde5" d="m8215.9 8123.6c-0.3661-5.6628-1.0761-9.9633-2.3768-13.934 0.4102 0.02 0.7617 0 1.0957-0.01 1.289 3.593 2.1444 7.4405 2.7147 12-0.4551 0.7074-0.9297 1.4066-1.4336 1.9408z"/>
<path fill="#e6eaf4" d="m8212.1 8109.4c-1.3017-4.2918-3.2654-8.2183-6.1823-12.921 0.5693 0.3506 1.1435 0.7539 1.7138 1.2016 2.7274 4.3406 4.6179 7.9805 5.9176 11.95-0.4101-0.02-0.8788-0.078-1.4491-0.2309z"/>
<path fill="#d8deee" d="m8213.6 8109.6c-1.2997-3.97-3.1902-7.6099-5.9176-11.95 0.5713 0.4483 1.1376 0.9404 1.6913 1.4687 2.3085 3.5428 4.033 6.8814 5.322 10.474-0.334 0.01-0.6855 0.027-1.0957 0.01z"/>
<path fill="#abbcda" d="m8217.4 8121.6c-0.5703-4.5598-1.4257-8.4073-2.7147-12 0.3349-0.01 0.6533 0 0.998 0.079 1.2675 3.1497 2.2567 6.4776 3.031 9.9345-0.4238 0.5649-0.8593 1.2797-1.3143 1.9872z"/>
<path fill="#8da7ce" d="m8218.7 8119.6c0.4238-0.5649 0.8369-0.9799 1.248-1.0869-0.4336-1.4779-0.9062-2.9104-1.4247-4.3025-0.4189-0.01-0.7939 0.1153-1.1542 0.3072 0.5029 1.6576 0.9442 3.3538 1.3309 5.0822z"/>
<path fill="#9bb1d4" d="m8217.4 8114.5c0.3603-0.1919 0.7353-0.3164 1.1542-0.3072-0.5185-1.392-1.082-2.7435-1.6982-4.0588-0.4404-0.2661-0.8114-0.4101-1.1561-0.4863 0.6337 1.5751 1.1972 3.1941 1.7001 4.8523z"/>
<path fill="#c2cde4" d="m8214.7 8109.6c0.3349-0.01 0.6533 0 0.998 0.079-0.6338-1.5751-1.3379-3.1058-2.1191-4.5857-0.3935-0.3129-0.7675-0.5458-1.1581-0.749 0.8808 1.7265 1.6347 3.4598 2.2792 5.2561z"/>
<path fill="#ced8eb" d="m8212.4 8104.4c0.3906 0.2032 0.7646 0.4361 1.1581 0.749-0.7812-1.4804-1.6405-2.9095-2.5857-4.282-0.5205-0.5927-1.0615-1.1571-1.6152-1.6854 1.1542 1.7714 2.162 3.492 3.0428 5.2184z"/>
<path fill="#a9bbda" d="m8215.7 8109.7c0.3447 0.076 0.7157 0.2202 1.1561 0.4863-0.6152-1.3154-1.2831-2.5951-2.0096-3.8435-0.4609-0.5229-0.872-0.916-1.2656-1.2285 0.7812 1.4799 1.4853 3.0106 2.1191 4.5857z"/>
<path fill="#bbc9e2" d="m8213.5 8105.1c0.3936 0.3125 0.8047 0.7056 1.2656 1.2285-0.7265-1.249-1.5116-2.4662-2.3622-3.6575-0.4697-0.6401-0.9696-1.2607-1.4891-1.853 0.9452 1.3725 1.8045 2.8016 2.5857 4.282z"/>
</g>
</g>
</g>
<g clip-path="url(#d)">
<path fill="url(#a)" d="m2044 1180.4c32.51 28.33 43.13 52.31 43.13 83.39 0 40.5-72.77 51.75-78.78 150.26-3.99 65.17-9.14 85-18.39 85-16.45 0-31.2-40.36-79.15-40.36-36.29 0-27.28 48.22-35.64 48.22-17.1 0-16.05-118.49-74.56-174.78-68.29-65.69-129.11-100.56-163.11-122.22-15.19-9.68-21.27-16.17-21.27-34.16 0-4.38 1.79-7.08 4.83-7.08 6.29 0 16.84 9.07 35.31 9.07 50.72 0 102.72-58.09 163.4-58.09 75.17 0 187.45 89.39 215.28 110.34l5.56-6.66c-42.75-47.11-205.01-177.35-265.36-177.35-35.05 0-54.8 9.47-54.8 21.5 0 16.74 26.41 36.31 40.03 47.02-2.07 1.12-10.05 4.81-12.49 5.92-10.76-7.68-51.47-36.08-51.47-62.11 0-30.54 41.16-40.92 77.93-40.92 32.91 0 65.63 18.03 82.19 27.54 44.33 25.49 153.1 105.65 187.36 135.47"/>
</g>
<path fill="#fff" d="m1819.8 1119.7c75.17 0 187.45 89.39 215.28 110.34l5.56-6.66c-42.75-47.11-205.01-177.35-265.36-177.35l44.52 73.67"/>
<path fill="#213562" d="m2143.4 1470.4c-19.85 0-26.7 14.15-26.7 31.17 0 24.39 9.21 46.74 25.95 46.74 14.34 0 24.25-19.54 24.72-47.58 0.31-18.78-9.75-30.33-23.97-30.33"/>
</g>
</g>
</g>
</svg>
