<?xml version="1.0" encoding="UTF-8" standalone="no"?>
<!DOCTYPE svg  PUBLIC '-//W3C//DTD SVG 1.1//EN'  'http://www.w3.org/Graphics/SVG/1.1/DTD/svg11.dtd'>
<svg xml:space="preserve" xmlns="http://www.w3.org/2000/svg" y="0px" x="0px" enable-background="new 0 0 443.174 109.178" width="443.17px" height="109.18px" viewBox="0 0 443.174 109.178" version="1.1">
<g fill="#939598">
	<path d="m402.7 32.627c2.5 0 3.74 0.848 3.74 2.522 0 1.152-0.718 2.022-1.914 2.326l1.957 3.915h-2.37l-1.675-3.589h-1.043v3.589h-2.132v-8.764h3.43v0.001zm-0.2-3.422c-4.369 0-7.911 3.542-7.911 7.911s3.542 7.911 7.911 7.911 7.911-3.542 7.911-7.911-3.54-7.911-7.91-7.911zm6.4 7.911c0 3.533-2.864 6.397-6.397 6.397s-6.397-2.864-6.397-6.397 2.864-6.397 6.397-6.397 6.4 2.864 6.4 6.397zm-7.51-0.596h1.043c1.218 0 1.806-0.37 1.806-1.239 0-0.914-0.631-1.306-1.914-1.306h-0.935v2.545h-0.01z"/>
	<path d="m57.965 109.18c-34.747-0.02-57.965-24.636-57.965-54.493 0-29.858 23.27-54.765 57.913-54.687h327.35c34.643-0.078 57.912 24.829 57.912 54.687 0 29.857-23.218 54.479-57.964 54.491h-327.24-0.005zm0.106-95.747c-27.511 0.052-44.395 18.438-44.395 41.18 0 22.743 16.779 41.277 44.395 41.181h327.03c27.615 0.097 44.396-18.438 44.396-41.181 0-22.742-16.885-41.128-44.395-41.18h-327.03 0.001z"/>
</g>
</svg>
