<?xml version="1.0" encoding="UTF-8" standalone="no"?>
<!DOCTYPE svg  PUBLIC '-//W3C//DTD SVG 1.1//EN'  'http://www.w3.org/Graphics/SVG/1.1/DTD/svg11.dtd'>
<svg width="443.17px" xml:space="preserve" version="1.1" viewBox="0 0 443.174 109.178" height="109.18px" y="0px" x="0px" enable-background="new 0 0 443.174 109.178" xmlns="http://www.w3.org/2000/svg">
<g fill="#939598">
	<polygon points="43.966 28.8 59.975 28.8 82.131 64.643 82.12 28.8 98.005 28.8 98.005 80.2 82.142 80.2 59.873 44.357 59.873 80.2 43.96 80.2"/>
	<polygon points="184.39 34.087 199.86 34.088 199.86 41.002 208.23 41.002 208.23 46.086 199.86 46.086 199.87 80.2 184.39 80.2 184.4 46.086 176 46.086 176 41.013 184.4 41.009"/>
	<polygon points="106.85 46.02 122.31 46.023 122.31 80.2 106.85 80.2"/>
	<polygon points="106.82 28.789 122.31 28.789 122.31 39.296 106.82 39.296"/>
	<path d="m383.9 62.835s-0.007 5.166-0.007 7.236c0 5.448-3.218 7.695-6.317 7.695-3.101 0-6.335-2.247-6.335-7.695 0-2.07 0.005-7.369 0.005-7.369s0.01-5.056 0.01-7.126c0-5.424 3.236-7.655 6.316-7.655 3.082 0 6.316 2.231 6.316 7.655 0 2.07-0.004 5.903 0.012 7.276v-0.017zm-6.2-19.147c-12.475 0-22.589 8.592-22.589 19.189s10.114 19.189 22.589 19.189c12.476 0 22.589-8.592 22.589-19.189s-10.11-19.189-22.59-19.189z"/>
	<path d="m334.82 28.8h15.253v51.395h-15.28s-0.008-1.659-0.008-1.977c-5.913 3.711-12.586 3.705-17.788 1.283-1.393-0.647-10.572-5.052-10.572-16.944 0-9.023 8.513-18.873 19.65-17.895 3.669 0.322 6.276 1.662 8.745 3.051v-18.913zm0.12 34.135v-6.108c0-5.287-3.648-6.633-6.052-6.633-2.461 0-6.061 1.346-6.061 6.633 0 1.751 0.005 6.093 0.005 6.093s-0.005 4.262-0.005 6.082c0 5.278 3.6 6.659 6.058 6.659 2.406 0 6.061-1.381 6.061-6.659-0.02-2.199-0.02-6.067-0.02-6.067z"/>
	<path d="m158.49 44.442c5.777-0.165 17.503 3.619 17.419 17.152-0.015 2.402-0.003 18.595-0.003 18.595h-15.36v-22.448c0-2.978-2.849-6.289-7.06-6.289-4.21 0-7.338 3.312-7.338 6.289 0 1.459 0.016 22.448 0.016 22.448h-15.346l-0.009-34.173 15.354-0.013s-0.018 2.749 0.001 3.595c2.97-2.821 7.22-5.01 12.33-5.156z"/>
	<path d="m284.1 44.442c5.777-0.165 17.503 3.619 17.42 17.152-0.015 2.402-0.004 18.595-0.004 18.595h-15.356v-22.448c0-2.978-2.85-6.289-7.061-6.289-4.21 0-7.338 3.312-7.338 6.289 0 1.459 0.016 22.448 0.016 22.448h-15.346l0.011-34.173 15.336-0.013s-0.018 2.749 0 3.595c2.95-2.821 7.21-5.01 12.32-5.156z"/>
	<path d="m222.62 57.932c-0.022-2.993 0.041-4.994 1.023-6.706 1.208-2.104 3.427-3.107 5.438-3.118h-0.003c2.012 0.011 4.229 1.014 5.438 3.118 0.982 1.712 1.025 3.713 1.003 6.707l-12.9-0.001zm12.84 10.308s0.015 0.153 0.015 2.074c0 6.251-4.113 7.638-6.396 7.638s-6.466-1.387-6.466-7.638c0-1.872 0.013-7.055 0.013-7.055s29.117 0.01 29.117-0.007c0-10.597-10.235-19.379-22.804-19.379s-22.758 8.592-22.758 19.189 10.188 19.188 22.758 19.188c10.431 0 19.239-5.949 21.927-14.021l-15.41 0.011z"/>
	<path d="m402.7 32.627c2.5 0 3.74 0.848 3.74 2.522 0 1.152-0.718 2.022-1.914 2.326l1.957 3.915h-2.37l-1.675-3.589h-1.043v3.589h-2.132v-8.764h3.43v0.001zm-0.2-3.422c-4.369 0-7.911 3.542-7.911 7.911s3.542 7.911 7.911 7.911 7.911-3.542 7.911-7.911-3.54-7.911-7.91-7.911zm6.4 7.911c0 3.533-2.864 6.397-6.397 6.397s-6.397-2.864-6.397-6.397 2.864-6.397 6.397-6.397 6.4 2.864 6.4 6.397zm-7.51-0.596h1.043c1.218 0 1.806-0.37 1.806-1.239 0-0.914-0.631-1.306-1.914-1.306h-0.935v2.545h-0.01z"/>
	<path d="m57.965 109.18c-34.747-0.02-57.965-24.636-57.965-54.493 0-29.858 23.27-54.765 57.913-54.687h327.35c34.643-0.078 57.912 24.829 57.912 54.687 0 29.857-23.218 54.479-57.964 54.491h-327.24-0.005zm0.106-95.747c-27.511 0.052-44.395 18.438-44.395 41.18 0 22.743 16.779 41.277 44.395 41.181h327.03c27.615 0.097 44.396-18.438 44.396-41.181 0-22.742-16.885-41.128-44.395-41.18h-327.03 0.001z"/>
</g>
</svg>
