<?xml version="1.0" encoding="UTF-8" standalone="no"?>
<svg xmlns:dc="http://purl.org/dc/elements/1.1/" xml:space="preserve" xmlns="http://www.w3.org/2000/svg" xmlns:rdf="http://www.w3.org/1999/02/22-rdf-syntax-ns#" viewBox="0 0 150 50" xmlns:cc="http://creativecommons.org/ns#" version="1.1"><metadata><rdf:RDF><cc:Work rdf:about=""><dc:format>image/svg+xml</dc:format><dc:type rdf:resource="http://purl.org/dc/dcmitype/StillImage"/><dc:title/></cc:Work></rdf:RDF></metadata><defs><clipPath id="a"><path d="m0 792h612v-792h-612v792z"/></clipPath></defs><g transform="matrix(1.25,0,0,-1.25,-305,520)"><g clip-path="url(#a)"><g transform="translate(265.35 392.73)"><path fill="#fff" d="m0 0c2.437 0 4.412-2.383 4.412-5.324 0-2.942-1.975-5.324-4.412-5.324s-4.41 2.382-4.41 5.324c0 2.941 1.973 5.324 4.41 5.324"/></g><g transform="translate(265.35 392.73)"><path fill="none" stroke="#000" d="m0 0c2.437 0 4.412-2.383 4.412-5.324 0-2.942-1.975-5.324-4.412-5.324s-4.41 2.382-4.41 5.324c0 2.941 1.973 5.324 4.41 5.324z" stroke-width="1.1"/></g><g transform="translate(258.41 376.54)"><path fill="#fff" d="m0 0c0.063 0.197 0.108 0.401 0.108 0.615 0 1.361-1.361 2.464-3.04 2.464s-3.039-1.103-3.039-2.464c0-0.214 0.044-0.418 0.108-0.615h5.863z"/></g><g transform="translate(258.41 376.54)"><path stroke-linecap="round" stroke-linejoin="round" fill="none" stroke="#000" d="m0 0c0.063 0.197 0.108 0.401 0.108 0.615 0 1.361-1.361 2.464-3.04 2.464s-3.039-1.103-3.039-2.464c0-0.214 0.044-0.418 0.108-0.615h5.863z" stroke-width="1.1"/></g><g transform="translate(269.05 376.54)"><path fill="#fff" d="m0 0c0.063 0.197 0.107 0.401 0.107 0.615 0 1.361-1.361 2.464-3.04 2.464s-3.039-1.103-3.039-2.464c0-0.214 0.044-0.418 0.107-0.615h5.865z"/></g><g transform="translate(269.05 376.54)"><path stroke-linecap="round" stroke-linejoin="round" fill="none" stroke="#000" d="m0 0c0.063 0.197 0.107 0.401 0.107 0.615 0 1.361-1.361 2.464-3.04 2.464s-3.039-1.103-3.039-2.464c0-0.214 0.044-0.418 0.107-0.615h5.865z" stroke-width="1.1"/></g><g transform="translate(252.49 403.99)"><path fill="#fff" d="m0 0c0-1.493-1.21-2.702-2.703-2.702-1.492 0-2.701 1.209-2.701 2.702s1.209 2.703 2.701 2.703c1.493 0 2.703-1.21 2.703-2.703"/></g><g transform="translate(252.49 403.99)"><path fill="none" stroke="#000" d="m0 0c0-1.493-1.21-2.702-2.703-2.702-1.492 0-2.701 1.209-2.701 2.702s1.209 2.703 2.701 2.703c1.493 0 2.703-1.21 2.703-2.703z" stroke-width="1.1"/></g><g transform="translate(274.59 403.99)"><path fill="#fff" d="m0 0c0-1.493-1.21-2.702-2.703-2.702-1.492 0-2.701 1.209-2.701 2.702s1.209 2.703 2.701 2.703c1.493 0 2.703-1.21 2.703-2.703"/></g><g transform="translate(274.59 403.99)"><path fill="none" stroke="#000" d="m0 0c0-1.493-1.21-2.702-2.703-2.702-1.492 0-2.701 1.209-2.701 2.702s1.209 2.703 2.701 2.703c1.493 0 2.703-1.21 2.703-2.703z" stroke-width="1.1"/></g><g transform="translate(268.33 413.47)"><path stroke-linecap="round" stroke-linejoin="round" fill="none" stroke="#000" d="m0 0-5.404 1.272-1.986-6.278" stroke-width="1.1"/></g><g transform="translate(256.25 392.73)"><path fill="#fff" d="m0 0c2.437 0 4.411-2.383 4.411-5.324 0-2.942-1.974-5.324-4.411-5.324-2.436 0-4.41 2.382-4.41 5.324 0 2.941 1.974 5.324 4.41 5.324"/></g><g transform="translate(256.25 392.73)"><path fill="none" stroke="#000" d="m0 0c2.437 0 4.411-2.383 4.411-5.324 0-2.942-1.974-5.324-4.411-5.324-2.436 0-4.41 2.382-4.41 5.324 0 2.941 1.974 5.324 4.41 5.324z" stroke-width="1.1"/></g><g transform="translate(272.66 413.03)"><path fill="#fff" d="m0 0c0-1.176-0.954-2.13-2.129-2.13-1.178 0-2.131 0.954-2.131 2.13 0 1.177 0.953 2.13 2.131 2.13 1.175 0 2.129-0.953 2.129-2.13"/></g><g transform="translate(272.66 413.03)"><path fill="none" stroke="#000" d="m0 0c0-1.176-0.954-2.13-2.129-2.13-1.178 0-2.131 0.954-2.131 2.13 0 1.177 0.953 2.13 2.131 2.13 1.175 0 2.129-0.953 2.129-2.13z" stroke-width="1.1"/></g><g transform="translate(259.28 376.53)"><path fill="#fff" d="m0 0h2.99c2.656 1.382 4.624 6.34 4.624 12.261 0 6.99-2.74 12.656-6.119 12.656-3.38 0-6.119-5.666-6.119-12.656 0-5.921 1.968-10.879 4.624-12.261"/></g><g transform="translate(259.28 376.53)"><path fill="none" stroke="#000" d="m0 0h2.99c2.656 1.382 4.624 6.34 4.624 12.261 0 6.99-2.74 12.656-6.119 12.656-3.38 0-6.119-5.666-6.119-12.656 0-5.921 1.968-10.879 4.624-12.261z" stroke-width="1.1"/></g><g transform="translate(273.02 400.27)"><path fill="#fff" d="m0 0c0-4.411-5.479-7.986-12.239-7.986-6.759 0-12.238 3.575-12.238 7.986s5.479 7.987 12.238 7.987c6.76 0 12.239-3.576 12.239-7.987"/></g><g transform="translate(273.02 400.27)"><path fill="none" stroke="#000" d="m0 0c0-4.411-5.479-7.986-12.239-7.986-6.759 0-12.238 3.575-12.238 7.986s5.479 7.987 12.238 7.987c6.76 0 12.239-3.576 12.239-7.987z" stroke-width="1.1"/></g><g transform="translate(257.56 376.54)"><path stroke-linecap="round" stroke-linejoin="round" fill="none" stroke="#000" d="m0 0h6.596" stroke-width="1.1"/></g><g transform="translate(257.96 401.83)"><path fill="#ff4500" d="m0 0c0-0.79-0.641-1.43-1.43-1.43-0.791 0-1.431 0.64-1.431 1.43 0 0.791 0.64 1.431 1.431 1.431 0.789 0 1.43-0.64 1.43-1.431"/></g><g transform="translate(257.96 401.83)"><path fill="none" stroke="#ff4500" d="m0 0c0-0.79-0.641-1.43-1.43-1.43-0.791 0-1.431 0.64-1.431 1.43 0 0.791 0.64 1.431 1.431 1.431 0.789 0 1.43-0.64 1.43-1.431z" stroke-width="1.1"/></g><g transform="translate(266.58 401.83)"><path fill="#ff4500" d="m0 0c0-0.79-0.64-1.43-1.43-1.43-0.789 0-1.43 0.64-1.43 1.43 0 0.791 0.641 1.431 1.43 1.431 0.79 0 1.43-0.64 1.43-1.431"/></g><g transform="translate(266.58 401.83)"><path fill="none" stroke="#ff4500" d="m0 0c0-0.79-0.64-1.43-1.43-1.43-0.789 0-1.43 0.64-1.43 1.43 0 0.791 0.641 1.431 1.43 1.431 0.79 0 1.43-0.64 1.43-1.431z" stroke-width="1.1"/></g><g transform="translate(256.61 396.59)"><path stroke-linecap="round" fill="none" stroke="#000" d="m0 0c1.066-1.066 2.786-1.271 4.212-1.271" stroke-width="1.1"/></g><g transform="translate(265.07 396.59)"><path stroke-linecap="round" fill="none" stroke="#000" d="m0 0c-1.067-1.066-2.785-1.271-4.212-1.271" stroke-width="1.1"/></g></g></g></svg>
