<?xml version="1.0" encoding="UTF-8" standalone="no"?>
<!DOCTYPE svg  PUBLIC '-//W3C//DTD SVG 1.1//EN'  'http://www.w3.org/Graphics/SVG/1.1/DTD/svg11.dtd'>
<svg xml:space="preserve" xmlns="http://www.w3.org/2000/svg" enable-background="new 0 0 300 240" x="0px" y="0px" version="1.1" viewBox="0 0 300 240">
<path fill="#FFC300" d="m196.49 18.773c23.334 0 42.252 98.376 42.252 219.73h33.81c0-130.69-34.059-236.64-76.062-236.64-23.9 0-45.221 31.84-59.164 81.629-13.94-49.781-35.27-81.621-59.168-81.621-42.003 0-76.066 105.94-76.066 236.64h33.814c0-121.35 18.921-219.73 42.252-219.73 23.338 0 42.264 90.809 42.264 202.84h33.802c0-112.04 18.92-202.85 42.26-202.85"/>
<path fill="#FFC300" d="m289.48 221.61c4.586 0 8.43 3.63 8.43 8.408 0 4.852-3.844 8.486-8.43 8.486-4.602 0-8.478-3.635-8.478-8.486 0-4.78 3.87-8.41 8.48-8.41m0 15.66c3.884 0 6.9-3.121 6.9-7.25 0-4.056-3.017-7.173-6.9-7.173-3.932 0-6.945 3.117-6.945 7.173-0.01 4.13 3 7.25 6.94 7.25zm-3.29-12.16h3.808c2.331 0 3.43 0.927 3.43 2.82 0 1.785-1.114 2.531-2.574 2.685l2.804 4.368h-1.646l-2.672-4.248h-1.616v4.248h-1.533v-9.88zm1.53 4.39h1.597c1.344 0 2.584-0.067 2.584-1.632 0-1.313-1.124-1.518-2.158-1.518h-2.022v3.15z"/>
</svg>
