<?xml version="1.0" encoding="UTF-8" standalone="no"?>
<svg xmlns="http://www.w3.org/2000/svg" xmlns:rdf="http://www.w3.org/1999/02/22-rdf-syntax-ns#" version="1.1" xml:space="preserve" xmlns:cc="http://creativecommons.org/ns#" xmlns:dc="http://purl.org/dc/elements/1.1/" viewBox="0 0 742.26 206.05"><metadata><rdf:RDF><cc:Work rdf:about=""><dc:format>image/svg+xml</dc:format><dc:type rdf:resource="http://purl.org/dc/dcmitype/StillImage"/><dc:title/></cc:Work></rdf:RDF></metadata><defs><clipPath id="k" clipPathUnits="userSpaceOnUse"><path d="m407.94 100.05h37.601v7.613h-37.601v-7.613z"/></clipPath><clipPath id="j" clipPathUnits="userSpaceOnUse"><path d="m345.15 100.05h37.598v7.613h-37.598v-7.613z"/></clipPath><radialGradient id="a" cy="0" cx="0" gradientUnits="userSpaceOnUse" gradientTransform="matrix(-.69505 -117.86 -160.59 .94708 412.69 224.16)" r="1"><stop stop-color="#f9fafb" offset="0"/><stop stop-color="#cfdadf" offset=".73587"/><stop stop-color="#f1f3f5" offset="1"/></radialGradient><clipPath id="i" clipPathUnits="userSpaceOnUse"><path d="m0 862h1219.1v-862h-1219.1v862z"/></clipPath><clipPath id="h" clipPathUnits="userSpaceOnUse"><path d="m0 862h1219.1v-862h-1219.1v862z"/></clipPath><clipPath id="g" clipPathUnits="userSpaceOnUse"><path d="m0 862h1219.1v-862h-1219.1v862z"/></clipPath><clipPath id="f" clipPathUnits="userSpaceOnUse"><path d="m0 862h1219.1v-862h-1219.1v862z"/></clipPath><clipPath id="e" clipPathUnits="userSpaceOnUse"><path d="m0 862h1219.1v-862h-1219.1v862z"/></clipPath><clipPath id="d" clipPathUnits="userSpaceOnUse"><path d="m0 862h1219.1v-862h-1219.1v862z"/></clipPath><clipPath id="c" clipPathUnits="userSpaceOnUse"><path d="m0 862h1219.1v-862h-1219.1v862z"/></clipPath><clipPath id="b" clipPathUnits="userSpaceOnUse"><path d="m0 862h1219.1v-862h-1219.1v862z"/></clipPath></defs><g transform="matrix(1.25 0 0 -1.25 -330.16 514.78)">
<g transform="translate(-44.947 153.88)"><g clip-path="url(#k)"><g transform="translate(445.54 103.85)"><path d="m0 0c0-2.102-8.416-3.806-18.798-3.806-10.383 0-18.801 1.704-18.801 3.806s8.418 3.807 18.801 3.807c10.382 0 18.798-1.705 18.798-3.807" fill="#2b5860"/></g></g></g><g transform="translate(-44.947 153.88)"><g clip-path="url(#j)"><g transform="translate(382.75 103.85)"><path d="m0 0c0-2.102-8.417-3.806-18.799-3.806-10.384 0-18.799 1.704-18.799 3.806s8.415 3.807 18.799 3.807c10.382 0 18.799-1.705 18.799-3.807" fill="#2b5860"/></g></g></g><g transform="translate(-44.947 153.88)"><path fill="url(#a)" d="m397.32 248.52c-13.083-1.768-25.941-7.207-36.213-15.317-11.421-9.02-18.782-20.565-21.282-33.386-0.757-3.87-1.077-8.101-1.415-12.582-1.318-17.467-3.149-28.073-17.423-28.073-1.661 0-3.185-0.941-3.926-2.431-0.743-1.49-0.579-3.272 0.423-4.601 19.292-25.597 52.399-28.556 75.622-28.556 0.591 0 1.177 0.001 1.758 0.004 0.425 0.003 0.867 0.004 1.322 0.004 0.664 0 1.354-0.002 2.068-0.005 0.771-0.002 1.568-0.003 2.387-0.003 10.849 0 22.298 0.525 32.511 4.332 18.135 6.763 33.417 21.969 38.932 38.736 6.222 18.923 3.332 38.073-8.139 53.925-12.764 17.633-34.676 28.586-57.186 28.586-3.15 0-6.324-0.213-9.439-0.633"/></g><g transform="translate(-44.947 153.88)"><g clip-path="url(#i)"><g transform="translate(406.76 253.55)"><path d="m0 0c-3.345 0-6.719-0.228-10.026-0.674-13.85-1.87-27.468-7.632-38.347-16.221-12.257-9.68-20.166-22.126-22.872-35.992-0.804-4.122-1.148-8.682-1.482-13.091-0.521-6.902-1.059-14.039-3.253-18.704-1.501-3.187-3.739-5.309-9.791-5.309-3.327 0-6.371-1.884-7.856-4.863-1.486-2.98-1.159-6.544 0.846-9.203 20.474-27.163 54.965-30.304 79.128-30.304 0.601 0 1.195 0.002 1.782 0.006 0.421 0.002 0.854 0.002 1.299 0.002 0.66 0 1.346-0.002 2.054-0.003 0.774-0.003 1.576-0.005 2.4-0.005 11.262 0 23.179 0.559 34.044 4.609 9.051 3.376 17.67 8.841 24.922 15.803 7.844 7.527 13.598 16.404 16.647 25.675 3.433 10.435 4.295 20.925 2.56 31.175-1.621 9.583-5.428 18.565-11.314 26.698-6.647 9.182-15.742 16.852-26.299 22.175-10.67 5.383-22.579 8.227-34.442 8.227m0-8.782c39.565 0 74.78-35.321 61.155-76.749-5.488-16.687-20.776-30.204-36.299-35.994-10.122-3.775-21.949-4.055-30.974-4.055-1.577 0-3.072 0.009-4.454 0.009-0.462 0-0.913-0.001-1.35-0.004-0.569-0.004-1.148-0.005-1.731-0.005-22.678 0-53.994 2.767-72.118 26.808 24.832 0 19.933 27.75 23.144 44.204 4.894 25.078 29.703 41.941 53.775 45.193 2.961 0.4 5.922 0.593 8.852 0.593" fill="#3d3d3d"/></g></g></g><g transform="translate(-44.947 153.88)"><g clip-path="url(#h)"><g transform="translate(381.6 121.7)"><path d="m0 0c0.833-9.698-6.353-18.233-16.049-19.066-9.699-0.833-18.234 6.35-19.066 16.048-0.835 9.697 6.352 18.233 16.049 19.066 9.694 0.835 18.231-6.351 19.066-16.048" fill="#3d3d3d"/></g></g></g><g transform="translate(-44.947 153.88)"><g clip-path="url(#g)"><g transform="translate(369.18 120.38)"><path d="m0 0c0-3.151-2.211-5.706-4.937-5.706-2.725 0-4.936 2.555-4.936 5.706s2.211 5.707 4.936 5.707c2.726 0 4.937-2.556 4.937-5.707" fill="#515252"/></g></g></g><g transform="translate(-44.947 153.88)"><g clip-path="url(#f)"><g transform="translate(442.03 121.7)"><path d="m0 0c0.834-9.698-6.352-18.233-16.047-19.066-9.698-0.833-18.234 6.35-19.067 16.048-0.835 9.697 6.35 18.233 16.049 19.066 9.696 0.835 18.229-6.351 19.065-16.048" fill="#3d3d3d"/></g></g></g><g transform="translate(-44.947 153.88)"><g clip-path="url(#e)"><g transform="translate(429.61 120.38)"><path d="m0 0c0-3.151-2.211-5.706-4.937-5.706-2.728 0-4.936 2.555-4.936 5.706s2.208 5.707 4.936 5.707c2.726 0 4.937-2.556 4.937-5.707" fill="#515252"/></g></g></g><g transform="translate(-44.947 153.88)"><g clip-path="url(#d)"><g transform="translate(391.96 201.03)"><path d="m0 0c0-4.658-3.774-8.433-8.43-8.433s-8.432 3.775-8.432 8.433c0 4.656 3.776 8.431 8.432 8.431s8.43-3.775 8.43-8.431" fill="#3d3d3d"/></g></g></g><g transform="translate(-44.947 153.88)"><g clip-path="url(#c)"><g transform="translate(432.23 202.35)"><path d="m0 0c0-4.658-3.773-8.433-8.431-8.433-4.656 0-8.432 3.775-8.432 8.433 0 4.656 3.776 8.431 8.432 8.431 4.658 0 8.431-3.775 8.431-8.431" fill="#3d3d3d"/></g></g></g><g transform="translate(-44.947 153.88)"><g clip-path="url(#b)"><g transform="translate(403.78 155.81)"><path d="m0 0c-7.187 0-14.16 2.336-19.726 6.625-5.656 4.359-9.305 10.375-10.008 16.508-0.276 2.41 1.454 4.588 3.861 4.864 2.403 0.274 4.586-1.452 4.861-3.861 1.073-9.353 12.251-15.598 21.654-15.346 11.982 0.314 19.9 7.48 21.527 14.396 0.556 2.359 2.92 3.821 5.28 3.268 2.359-0.556 3.822-2.919 3.267-5.279-1.326-5.645-4.963-10.876-10.24-14.731-5.491-4.015-12.273-6.24-19.603-6.434-0.292-0.006-0.581-0.01-0.873-0.01" fill="#3d3d3d"/></g></g></g></g></svg>
