<?xml version="1.0" encoding="UTF-8" standalone="no"?>
<svg xml:space="preserve" xmlns:rdf="http://www.w3.org/1999/02/22-rdf-syntax-ns#" version="1.1" xmlns="http://www.w3.org/2000/svg" xmlns:dc="http://purl.org/dc/elements/1.1/" xmlns:cc="http://creativecommons.org/ns#" viewBox="0 0 742.26 206.05"><metadata><rdf:RDF><cc:Work rdf:about=""><dc:format>image/svg+xml</dc:format><dc:type rdf:resource="http://purl.org/dc/dcmitype/StillImage"/><dc:title/></cc:Work></rdf:RDF></metadata><defs><clipPath id="ap" clipPathUnits="userSpaceOnUse"><path d="m407.94 100.05h37.601v7.613h-37.601v-7.613z"/></clipPath><clipPath id="ao" clipPathUnits="userSpaceOnUse"><path d="m345.15 100.05h37.598v7.613h-37.598v-7.613z"/></clipPath><radialGradient id="a" gradientTransform="matrix(-.69505 -117.86 -160.59 .94708 412.69 224.16)" cy="0" cx="0" r="1" gradientUnits="userSpaceOnUse"><stop stop-color="#f9fafb" offset="0"/><stop stop-color="#cfdadf" offset=".73587"/><stop stop-color="#f1f3f5" offset="1"/></radialGradient><clipPath id="an" clipPathUnits="userSpaceOnUse"><path d="m0 862h1219.1v-862h-1219.1v862z"/></clipPath><clipPath id="am" clipPathUnits="userSpaceOnUse"><path d="m0 862h1219.1v-862h-1219.1v862z"/></clipPath><clipPath id="al" clipPathUnits="userSpaceOnUse"><path d="m0 862h1219.1v-862h-1219.1v862z"/></clipPath><clipPath id="ak" clipPathUnits="userSpaceOnUse"><path d="m0 862h1219.1v-862h-1219.1v862z"/></clipPath><clipPath id="aj" clipPathUnits="userSpaceOnUse"><path d="m0 862h1219.1v-862h-1219.1v862z"/></clipPath><clipPath id="ai" clipPathUnits="userSpaceOnUse"><path d="m0 862h1219.1v-862h-1219.1v862z"/></clipPath><clipPath id="ah" clipPathUnits="userSpaceOnUse"><path d="m0 862h1219.1v-862h-1219.1v862z"/></clipPath><clipPath id="ag" clipPathUnits="userSpaceOnUse"><path d="m0 862h1219.1v-862h-1219.1v862z"/></clipPath><clipPath id="af" clipPathUnits="userSpaceOnUse"><path d="m0 862h1219.1v-862h-1219.1v862z"/></clipPath><clipPath id="ae" clipPathUnits="userSpaceOnUse"><path d="m0 862h1219.1v-862h-1219.1v862z"/></clipPath><clipPath id="ad" clipPathUnits="userSpaceOnUse"><path d="m0 862h1219.1v-862h-1219.1v862z"/></clipPath><clipPath id="ac" clipPathUnits="userSpaceOnUse"><path d="m0 862h1219.1v-862h-1219.1v862z"/></clipPath><clipPath id="ab" clipPathUnits="userSpaceOnUse"><path d="m503.38 101.28h393.47v17.273h-393.47v-17.273z"/></clipPath><clipPath id="aa" clipPathUnits="userSpaceOnUse"><path d="m503.38 101.28h393.47v17.273h-393.47v-17.273z"/></clipPath><clipPath id="z" clipPathUnits="userSpaceOnUse"><path d="m503.38 101.28h393.47v17.273h-393.47v-17.273z"/></clipPath><clipPath id="y" clipPathUnits="userSpaceOnUse"><path d="m503.38 101.28h393.47v17.273h-393.47v-17.273z"/></clipPath><clipPath id="x" clipPathUnits="userSpaceOnUse"><path d="m503.38 101.28h393.47v17.273h-393.47v-17.273z"/></clipPath><clipPath id="w" clipPathUnits="userSpaceOnUse"><path d="m503.38 101.28h393.47v17.273h-393.47v-17.273z"/></clipPath><clipPath id="v" clipPathUnits="userSpaceOnUse"><path d="m503.38 101.28h393.47v17.273h-393.47v-17.273z"/></clipPath><clipPath id="u" clipPathUnits="userSpaceOnUse"><path d="m503.38 101.28h393.47v17.273h-393.47v-17.273z"/></clipPath><clipPath id="t" clipPathUnits="userSpaceOnUse"><path d="m503.38 101.28h393.47v17.273h-393.47v-17.273z"/></clipPath><clipPath id="s" clipPathUnits="userSpaceOnUse"><path d="m503.38 101.28h393.47v17.273h-393.47v-17.273z"/></clipPath><clipPath id="r" clipPathUnits="userSpaceOnUse"><path d="m503.38 101.28h393.47v17.273h-393.47v-17.273z"/></clipPath><clipPath id="q" clipPathUnits="userSpaceOnUse"><path d="m503.38 101.28h393.47v17.273h-393.47v-17.273z"/></clipPath><clipPath id="p" clipPathUnits="userSpaceOnUse"><path d="m503.38 101.28h393.47v17.273h-393.47v-17.273z"/></clipPath><clipPath id="o" clipPathUnits="userSpaceOnUse"><path d="m503.38 101.28h393.47v17.273h-393.47v-17.273z"/></clipPath><clipPath id="n" clipPathUnits="userSpaceOnUse"><path d="m503.38 101.28h393.47v17.273h-393.47v-17.273z"/></clipPath><clipPath id="m" clipPathUnits="userSpaceOnUse"><path d="m503.38 101.28h393.47v17.273h-393.47v-17.273z"/></clipPath><clipPath id="l" clipPathUnits="userSpaceOnUse"><path d="m503.38 101.28h393.47v17.273h-393.47v-17.273z"/></clipPath><clipPath id="k" clipPathUnits="userSpaceOnUse"><path d="m503.38 101.28h393.47v17.273h-393.47v-17.273z"/></clipPath><clipPath id="j" clipPathUnits="userSpaceOnUse"><path d="m503.38 101.28h393.47v17.273h-393.47v-17.273z"/></clipPath><clipPath id="i" clipPathUnits="userSpaceOnUse"><path d="m503.38 101.28h393.47v17.273h-393.47v-17.273z"/></clipPath><clipPath id="h" clipPathUnits="userSpaceOnUse"><path d="m503.38 101.28h393.47v17.273h-393.47v-17.273z"/></clipPath><clipPath id="g" clipPathUnits="userSpaceOnUse"><path d="m503.38 101.28h393.47v17.273h-393.47v-17.273z"/></clipPath><clipPath id="f" clipPathUnits="userSpaceOnUse"><path d="m503.38 101.28h393.47v17.273h-393.47v-17.273z"/></clipPath><clipPath id="e" clipPathUnits="userSpaceOnUse"><path d="m503.38 101.28h393.47v17.273h-393.47v-17.273z"/></clipPath><clipPath id="d" clipPathUnits="userSpaceOnUse"><path d="m503.38 101.28h393.47v17.273h-393.47v-17.273z"/></clipPath><clipPath id="c" clipPathUnits="userSpaceOnUse"><path d="m503.38 101.28h393.47v17.273h-393.47v-17.273z"/></clipPath><clipPath id="b" clipPathUnits="userSpaceOnUse"><path d="m503.38 101.28h393.47v17.273h-393.47v-17.273z"/></clipPath></defs><g transform="matrix(1.25 0 0 -1.25 -330.16 514.78)">
<g transform="translate(-44.947 153.88)"><g clip-path="url(#ap)"><g transform="translate(445.54 103.85)"><path fill="#2b5860" d="m0 0c0-2.102-8.416-3.806-18.798-3.806-10.383 0-18.801 1.704-18.801 3.806s8.418 3.807 18.801 3.807c10.382 0 18.798-1.705 18.798-3.807"/></g></g></g><g transform="translate(-44.947 153.88)"><g clip-path="url(#ao)"><g transform="translate(382.75 103.85)"><path fill="#2b5860" d="m0 0c0-2.102-8.417-3.806-18.799-3.806-10.384 0-18.799 1.704-18.799 3.806s8.415 3.807 18.799 3.807c10.382 0 18.799-1.705 18.799-3.807"/></g></g></g><g transform="translate(-44.947 153.88)"><path fill="url(#a)" d="m397.32 248.52c-13.083-1.768-25.941-7.207-36.213-15.317-11.421-9.02-18.782-20.565-21.282-33.386-0.757-3.87-1.077-8.101-1.415-12.582-1.318-17.467-3.149-28.073-17.423-28.073-1.661 0-3.185-0.941-3.926-2.431-0.743-1.49-0.579-3.272 0.423-4.601 19.292-25.597 52.399-28.556 75.622-28.556 0.591 0 1.177 0.001 1.758 0.004 0.425 0.003 0.867 0.004 1.322 0.004 0.664 0 1.354-0.002 2.068-0.005 0.771-0.002 1.568-0.003 2.387-0.003 10.849 0 22.298 0.525 32.511 4.332 18.135 6.763 33.417 21.969 38.932 38.736 6.222 18.923 3.332 38.073-8.139 53.925-12.764 17.633-34.676 28.586-57.186 28.586-3.15 0-6.324-0.213-9.439-0.633"/></g><g transform="translate(-44.947 153.88)"><g clip-path="url(#an)"><g transform="translate(406.76 253.55)"><path fill="#3d3d3d" d="m0 0c-3.345 0-6.719-0.228-10.026-0.674-13.85-1.87-27.468-7.632-38.347-16.221-12.257-9.68-20.166-22.126-22.872-35.992-0.804-4.122-1.148-8.682-1.482-13.091-0.521-6.902-1.059-14.039-3.253-18.704-1.501-3.187-3.739-5.309-9.791-5.309-3.327 0-6.371-1.884-7.856-4.863-1.486-2.98-1.159-6.544 0.846-9.203 20.474-27.163 54.965-30.304 79.128-30.304 0.601 0 1.195 0.002 1.782 0.006 0.421 0.002 0.854 0.002 1.299 0.002 0.66 0 1.346-0.002 2.054-0.003 0.774-0.003 1.576-0.005 2.4-0.005 11.262 0 23.179 0.559 34.044 4.609 9.051 3.376 17.67 8.841 24.922 15.803 7.844 7.527 13.598 16.404 16.647 25.675 3.433 10.435 4.295 20.925 2.56 31.175-1.621 9.583-5.428 18.565-11.314 26.698-6.647 9.182-15.742 16.852-26.299 22.175-10.67 5.383-22.579 8.227-34.442 8.227m0-8.782c39.565 0 74.78-35.321 61.155-76.749-5.488-16.687-20.776-30.204-36.299-35.994-10.122-3.775-21.949-4.055-30.974-4.055-1.577 0-3.072 0.009-4.454 0.009-0.462 0-0.913-0.001-1.35-0.004-0.569-0.004-1.148-0.005-1.731-0.005-22.678 0-53.994 2.767-72.118 26.808 24.832 0 19.933 27.75 23.144 44.204 4.894 25.078 29.703 41.941 53.775 45.193 2.961 0.4 5.922 0.593 8.852 0.593"/></g></g></g><g transform="translate(-44.947 153.88)"><g clip-path="url(#am)"><g transform="translate(381.6 121.7)"><path fill="#3d3d3d" d="m0 0c0.833-9.698-6.353-18.233-16.049-19.066-9.699-0.833-18.234 6.35-19.066 16.048-0.835 9.697 6.352 18.233 16.049 19.066 9.694 0.835 18.231-6.351 19.066-16.048"/></g></g></g><g transform="translate(-44.947 153.88)"><g clip-path="url(#al)"><g transform="translate(369.18 120.38)"><path fill="#515252" d="m0 0c0-3.151-2.211-5.706-4.937-5.706-2.725 0-4.936 2.555-4.936 5.706s2.211 5.707 4.936 5.707c2.726 0 4.937-2.556 4.937-5.707"/></g></g></g><g transform="translate(-44.947 153.88)"><g clip-path="url(#ak)"><g transform="translate(442.03 121.7)"><path fill="#3d3d3d" d="m0 0c0.834-9.698-6.352-18.233-16.047-19.066-9.698-0.833-18.234 6.35-19.067 16.048-0.835 9.697 6.35 18.233 16.049 19.066 9.696 0.835 18.229-6.351 19.065-16.048"/></g></g></g><g transform="translate(-44.947 153.88)"><g clip-path="url(#aj)"><g transform="translate(429.61 120.38)"><path fill="#515252" d="m0 0c0-3.151-2.211-5.706-4.937-5.706-2.728 0-4.936 2.555-4.936 5.706s2.208 5.707 4.936 5.707c2.726 0 4.937-2.556 4.937-5.707"/></g></g></g><g transform="translate(-44.947 153.88)"><g clip-path="url(#ai)"><g transform="translate(391.96 201.03)"><path fill="#3d3d3d" d="m0 0c0-4.658-3.774-8.433-8.43-8.433s-8.432 3.775-8.432 8.433c0 4.656 3.776 8.431 8.432 8.431s8.43-3.775 8.43-8.431"/></g></g></g><g transform="translate(-44.947 153.88)"><g clip-path="url(#ah)"><g transform="translate(432.23 202.35)"><path fill="#3d3d3d" d="m0 0c0-4.658-3.773-8.433-8.431-8.433-4.656 0-8.432 3.775-8.432 8.433 0 4.656 3.776 8.431 8.432 8.431 4.658 0 8.431-3.775 8.431-8.431"/></g></g></g><g transform="translate(-44.947 153.88)"><g clip-path="url(#ag)"><g transform="translate(403.78 155.81)"><path fill="#3d3d3d" d="m0 0c-7.187 0-14.16 2.336-19.726 6.625-5.656 4.359-9.305 10.375-10.008 16.508-0.276 2.41 1.454 4.588 3.861 4.864 2.403 0.274 4.586-1.452 4.861-3.861 1.073-9.353 12.251-15.598 21.654-15.346 11.982 0.314 19.9 7.48 21.527 14.396 0.556 2.359 2.92 3.821 5.28 3.268 2.359-0.556 3.822-2.919 3.267-5.279-1.326-5.645-4.963-10.876-10.24-14.731-5.491-4.015-12.273-6.24-19.603-6.434-0.292-0.006-0.581-0.01-0.873-0.01"/></g></g></g><g transform="translate(-44.947 153.88)"><g clip-path="url(#af)"><g transform="translate(519.6 148.91)"><path fill="#373737" d="m0 0-23.148 66.791c-0.534 1.591-1.239 4.241-1.239 6.538 0 6.183 4.95 12.192 12.897 12.192 6.717 0 11.135-4.239 13.078-10.423l14.49-48.063 14.844 47.886c1.941 6.361 6.891 10.779 13.779 10.779h1.59c6.893 0 11.842-4.418 13.787-10.779l15.016-48.064 14.844 48.414c1.765 5.655 5.83 10.25 12.898 10.25 7.424 0 12.545-5.653 12.545-12.37 0-1.765-0.529-4.239-0.883-5.476l-23.855-67.675c-2.829-8.306-8.307-12.017-14.842-12.017h-0.885c-6.537 0-12.016 3.711-14.49 11.486l-15.02 47.708-15.195-47.708c-2.473-7.775-7.951-11.486-14.488-11.486h-0.883c-6.539 0-12.016 3.711-14.842 12.017"/></g></g></g><g transform="translate(-44.947 153.88)"><g clip-path="url(#ae)"><g transform="translate(694 172.06)"><path fill="#373737" d="m0 0v4.771c-4.596 2.121-10.604 3.534-17.139 3.534-11.486 0-18.554-4.595-18.554-13.077v-0.353c0-7.246 6.006-11.487 14.664-11.487 12.547 0 21.029 6.894 21.029 16.612m-61.67-6.184v0.352c0 20.675 15.727 30.217 38.168 30.217 9.543 0 16.432-1.59 23.147-3.888v1.59c0 11.132-6.889 17.316-20.319 17.316-7.424 0-13.43-1.059-18.555-2.651-1.589-0.53-2.65-0.706-3.888-0.706-6.184 0-11.131 4.77-11.131 10.956 0 4.77 3.002 8.834 7.246 10.424 8.481 3.182 17.67 4.949 30.213 4.949 14.666 0 25.268-3.888 31.982-10.603 7.069-7.067 10.248-17.492 10.248-30.214v-43.117c0-7.243-5.83-12.896-13.074-12.896-7.773 0-12.898 5.477-12.898 11.13v0.178c-6.539-7.245-15.551-12.017-28.623-12.017-17.848 0-32.516 10.248-32.516 28.98"/></g></g></g><g transform="translate(-44.947 153.88)"><g clip-path="url(#ad)"><g transform="translate(723.69 149.44)"><path fill="#373737" d="m0 0v0.532c0 5.124 1.766 8.479 6.006 13.073l44 48.592h-37.461c-6.01 0-10.957 4.772-10.957 10.779 0 6.01 4.947 10.955 10.957 10.955h58.842c7.595 0 13.074-4.417 13.074-10.779v-0.53c0-5.123-1.768-8.48-6.008-13.074l-44.176-48.592h39.227c6.01 0 10.957-4.949 10.957-10.956 0-6.008-4.947-10.777-10.957-10.777h-60.43c-7.597 0-13.074 4.417-13.074 10.777"/></g></g></g><g transform="translate(-44.947 153.88)"><g clip-path="url(#ac)"><g transform="translate(872.82 193.44)"><path fill="#373737" d="m0 0c-1.59 12.014-8.658 20.144-19.967 20.144-11.131 0-18.377-7.952-20.496-20.144h40.463zm-17.316-56.897c-28.45 0-49.477 19.967-49.477 48.945v0.356c0 27.032 19.264 49.297 46.826 49.297 31.627 0 45.59-25.973 45.59-45.587 0-7.776-5.478-12.9-12.549-12.9h-53.185c2.65-12.192 11.134-18.552 23.148-18.552 7.42 0 13.606 2.297 19.084 6.36 1.943 1.414 3.711 2.121 6.539 2.121 6.006 0 10.424-4.595 10.424-10.601 0-3.536-1.59-6.187-3.535-7.952-8.305-7.069-19.082-11.487-32.865-11.487"/></g></g></g><g transform="translate(-44.947 153.88)"><g clip-path="url(#ab)"><g transform="translate(516.51 111)"><path fill="#59899e" d="m0 0v0.041c0 3.301-2.408 6.001-5.73 6.001-3.323 0-5.688-2.658-5.688-5.959v-0.042c0-3.301 2.408-6 5.731-6 3.322 0 5.687 2.658 5.687 5.959m-13.121 0v0.041c0 4.007 3.012 7.515 7.434 7.515 4.421 0 7.39-3.467 7.39-7.473v-0.042c0-4.007-3.01-7.516-7.433-7.516-4.42 0-7.391 3.468-7.391 7.475"/></g></g></g><g transform="translate(-44.947 153.88)"><g clip-path="url(#aa)"><g transform="translate(521.65 109.86)"><path fill="#59899e" d="m0 0v7.724c0 0.456 0.373 0.831 0.812 0.831 0.454 0 0.829-0.375 0.829-0.831v-7.62c0-3.135 1.683-4.898 4.445-4.898 2.678 0 4.379 1.619 4.379 4.794v7.724c0 0.456 0.373 0.831 0.83 0.831 0.437 0 0.81-0.375 0.81-0.831v-7.599c0-4.236-2.429-6.436-6.06-6.436-3.594 0-6.045 2.2-6.045 6.311"/></g></g></g><g transform="translate(-44.947 153.88)"><g clip-path="url(#z)"><g transform="translate(541.69 116.79)"><path fill="#59899e" d="m0 0h-4.213c-0.416 0-0.769 0.331-0.769 0.747 0 0.415 0.353 0.767 0.769 0.767h10.09c0.414 0 0.768-0.352 0.768-0.767 0-0.416-0.354-0.747-0.768-0.747h-4.217v-12.292c0-0.457-0.371-0.83-0.828-0.83s-0.832 0.373-0.832 0.83v12.292z"/></g></g></g><g transform="translate(-44.947 153.88)"><g clip-path="url(#y)"><g transform="translate(550.68 105.52)"><path fill="#59899e" d="m0 0c-0.187 0.123-0.312 0.352-0.312 0.621 0 0.459 0.351 0.811 0.789 0.811 0.209 0 0.394-0.083 0.498-0.187 1.373-1.163 2.744-1.722 4.587-1.722 1.954 0 3.241 1.038 3.241 2.468v0.044c0 1.348-0.729 2.116-3.78 2.76-3.343 0.726-4.878 1.806-4.878 4.195v0.039c0 2.285 2.015 3.965 4.777 3.965 1.906 0 3.299-0.476 4.627-1.431 0.166-0.125 0.353-0.354 0.353-0.663 0-0.438-0.353-0.791-0.789-0.791-0.185 0-0.332 0.041-0.478 0.145-1.225 0.893-2.406 1.267-3.756 1.267-1.893 0-3.096-1.038-3.096-2.345v-0.042c0-1.37 0.75-2.138 3.947-2.823 3.237-0.707 4.733-1.89 4.733-4.111v-0.042c0-2.491-2.076-4.11-4.963-4.11-2.117 0-3.881 0.664-5.5 1.952"/></g></g></g><g transform="translate(-44.947 153.88)"><g clip-path="url(#x)"><g transform="translate(564.7 117.56)"><path fill="#59899e" d="m0 0c0 0.437 0.373 0.811 0.809 0.811h0.185c0.356 0 0.606-0.187 0.77-0.438l5.189-7.804 5.192 7.804c0.166 0.271 0.435 0.438 0.765 0.438h0.188c0.437 0 0.81-0.374 0.81-0.811v-13.058c0-0.458-0.373-0.831-0.81-0.831-0.455 0-0.832 0.395-0.832 0.831v10.837l-4.649-6.832c-0.187-0.267-0.394-0.414-0.681-0.414-0.293 0-0.522 0.147-0.711 0.414l-4.625 6.811v-10.837c0-0.456-0.356-0.81-0.813-0.81-0.435 0-0.787 0.354-0.787 0.81v13.079z"/></g></g></g><g transform="translate(-44.947 153.88)"><g clip-path="url(#w)"><g transform="translate(592.31 109.11)"><path fill="#59899e" d="m0 0-3.342 7.431-3.344-7.431h6.686zm-10.277-4.258 5.898 12.894c0.205 0.457 0.516 0.725 1.037 0.725h0.082c0.498 0 0.83-0.268 1.018-0.725l5.896-12.871c0.063-0.147 0.104-0.291 0.104-0.416 0-0.437-0.352-0.789-0.787-0.789-0.397 0-0.666 0.27-0.811 0.602l-1.517 3.343h-7.973l-1.514-3.384c-0.144-0.353-0.414-0.561-0.787-0.561-0.418 0-0.748 0.331-0.748 0.748 0 0.125 0.02 0.27 0.102 0.434"/></g></g></g><g transform="translate(-44.947 153.88)"><g clip-path="url(#v)"><g transform="translate(605.52 110.9)"><path fill="#59899e" d="m0 0c2.18 0 3.736 1.12 3.736 2.988v0.043c0 1.785-1.371 2.865-3.716 2.865h-4.485v-5.896h4.465zm-6.105 6.579c0 0.457 0.373 0.831 0.81 0.831h5.44c1.783 0 3.216-0.538 4.13-1.452 0.705-0.705 1.121-1.724 1.121-2.865v-0.043c0-2.387-1.621-3.779-3.882-4.213l3.611-4.652c0.166-0.186 0.271-0.372 0.271-0.601 0-0.437-0.416-0.81-0.83-0.81-0.334 0-0.582 0.185-0.769 0.435l-4.09 5.317h-4.172v-4.922c0-0.457-0.375-0.83-0.83-0.83-0.437 0-0.81 0.373-0.81 0.83v12.975z"/></g></g></g><g transform="translate(-44.947 153.88)"><g clip-path="url(#u)"><g transform="translate(618.32 116.79)"><path fill="#59899e" d="m0 0h-4.215c-0.416 0-0.767 0.331-0.767 0.747 0 0.415 0.351 0.767 0.767 0.767h10.09c0.414 0 0.768-0.352 0.768-0.767 0-0.416-0.354-0.747-0.768-0.747h-4.215v-12.292c0-0.457-0.375-0.83-0.828-0.83-0.457 0-0.832 0.373-0.832 0.83v12.292z"/></g></g></g><g transform="translate(-44.947 153.88)"><g clip-path="url(#t)"><g transform="translate(628.29 117.58)"><path fill="#59899e" d="m0 0c0 0.456 0.373 0.829 0.809 0.829 0.457 0 0.83-0.373 0.83-0.829v-13.08c0-0.457-0.373-0.831-0.83-0.831-0.436 0-0.809 0.374-0.809 0.831v13.08z"/></g></g></g><g transform="translate(-44.947 153.88)"><g clip-path="url(#s)"><g transform="translate(634.39 117.56)"><path fill="#59899e" d="m0 0c0 0.437 0.375 0.811 0.812 0.811h0.229c0.375 0 0.6-0.187 0.83-0.479l8.82-11.252v10.962c0 0.436 0.356 0.811 0.813 0.811 0.434 0 0.789-0.375 0.789-0.811v-13.121c0-0.437-0.313-0.768-0.746-0.768h-0.086c-0.352 0-0.602 0.207-0.852 0.498l-9.007 11.523v-11.253c0-0.437-0.354-0.81-0.813-0.81-0.434 0-0.789 0.373-0.789 0.81v13.079z"/></g></g></g><g transform="translate(-44.947 153.88)"><g clip-path="url(#r)"><g transform="translate(650.36 111)"><path fill="#59899e" d="m0 0v0.041c0 3.985 2.928 7.515 7.287 7.515 2.201 0 3.633-0.58 4.959-1.556 0.188-0.146 0.334-0.376 0.334-0.664 0-0.456-0.373-0.831-0.81-0.831-0.186 0-0.35 0.083-0.518 0.208-1.037 0.789-2.201 1.329-4.027 1.329-3.217 0-5.524-2.721-5.524-5.959v-0.042c0-3.468 2.223-6.042 5.752-6.042 1.66 0 3.195 0.644 4.192 1.454v3.611h-3.901c-0.394 0-0.726 0.332-0.726 0.726 0 0.418 0.332 0.749 0.726 0.749h4.67c0.438 0 0.811-0.375 0.811-0.832v-4.422c0-0.393-0.188-0.744-0.563-0.994-1.328-0.976-3.115-1.766-5.273-1.766-4.569 0-7.389 3.323-7.389 7.475"/></g></g></g><g transform="translate(-44.947 153.88)"><g clip-path="url(#q)"><g transform="translate(677.77 116.79)"><path fill="#59899e" d="m0 0h-4.217c-0.414 0-0.765 0.331-0.765 0.747 0 0.415 0.351 0.767 0.765 0.767h10.092c0.416 0 0.768-0.352 0.768-0.767 0-0.416-0.352-0.747-0.768-0.747h-4.217v-12.292c0-0.457-0.373-0.83-0.83-0.83-0.455 0-0.828 0.373-0.828 0.83v12.292z"/></g></g></g><g transform="translate(-44.947 153.88)"><g clip-path="url(#p)"><g transform="translate(693.69 110.9)"><path fill="#59899e" d="m0 0c2.18 0 3.736 1.12 3.736 2.988v0.043c0 1.785-1.369 2.865-3.716 2.865h-4.485v-5.896h4.465zm-6.104 6.579c0 0.457 0.372 0.831 0.811 0.831h5.438c1.785 0 3.216-0.538 4.132-1.452 0.705-0.705 1.121-1.724 1.121-2.865v-0.043c0-2.387-1.621-3.779-3.882-4.213l3.611-4.652c0.168-0.186 0.271-0.372 0.271-0.601 0-0.437-0.416-0.81-0.83-0.81-0.332 0-0.584 0.185-0.769 0.435l-4.09 5.317h-4.174v-4.922c0-0.457-0.375-0.83-0.828-0.83-0.439 0-0.811 0.373-0.811 0.83v12.975z"/></g></g></g><g transform="translate(-44.947 153.88)"><g clip-path="url(#o)"><g transform="translate(712.19 109.11)"><path fill="#59899e" d="m0 0-3.344 7.431-3.342-7.431h6.686zm-10.277-4.258 5.896 12.894c0.207 0.457 0.52 0.725 1.037 0.725h0.084c0.498 0 0.832-0.268 1.018-0.725l5.896-12.871c0.063-0.147 0.102-0.291 0.102-0.416 0-0.437-0.35-0.789-0.785-0.789-0.397 0-0.666 0.27-0.809 0.602l-1.519 3.343h-7.973l-1.516-3.384c-0.144-0.353-0.414-0.561-0.787-0.561-0.414 0-0.746 0.331-0.746 0.748 0 0.125 0.018 0.27 0.102 0.434"/></g></g></g><g transform="translate(-44.947 153.88)"><g clip-path="url(#n)"><g transform="translate(719.29 117.48)"><path fill="#59899e" d="m0 0c0 0.458 0.377 0.833 0.812 0.833h8.991c0.416 0 0.746-0.333 0.746-0.749 0-0.415-0.33-0.767-0.746-0.767h-8.16v-5.192h7.222c0.42 0 0.752-0.332 0.752-0.746 0-0.416-0.332-0.749-0.752-0.749h-7.222v-5.604c0-0.456-0.372-0.831-0.831-0.831-0.435 0-0.812 0.375-0.812 0.831v12.974z"/></g></g></g><g transform="translate(-44.947 153.88)"><g clip-path="url(#m)"><g transform="translate(733.12 117.48)"><path fill="#59899e" d="m0 0c0 0.458 0.373 0.833 0.811 0.833h8.988c0.416 0 0.746-0.333 0.746-0.749 0-0.415-0.33-0.767-0.746-0.767h-8.16v-5.192h7.226c0.414 0 0.746-0.332 0.746-0.746 0-0.416-0.332-0.749-0.746-0.749h-7.226v-5.604c0-0.456-0.373-0.831-0.828-0.831-0.438 0-0.811 0.375-0.811 0.831v12.974z"/></g></g></g><g transform="translate(-44.947 153.88)"><g clip-path="url(#l)"><g transform="translate(747.09 117.58)"><path fill="#59899e" d="m0 0c0 0.456 0.373 0.829 0.807 0.829 0.459 0 0.832-0.373 0.832-0.829v-13.08c0-0.457-0.373-0.831-0.832-0.831-0.434 0-0.807 0.374-0.807 0.831v13.08z"/></g></g></g><g transform="translate(-44.947 153.88)"><g clip-path="url(#k)"><g transform="translate(752.55 111)"><path fill="#59899e" d="m0 0v0.041c0 4.11 3.07 7.515 7.348 7.515 2.345 0 3.84-0.769 5.193-1.889 0.164-0.144 0.33-0.374 0.33-0.665 0-0.434-0.394-0.809-0.83-0.809-0.23 0-0.416 0.105-0.541 0.186-1.121 0.997-2.387 1.663-4.172 1.663-3.221 0-5.627-2.617-5.627-5.959v-0.042c0-3.364 2.43-6 5.627-6 1.807 0 3.072 0.623 4.318 1.764 0.124 0.126 0.311 0.229 0.52 0.229 0.412 0 0.787-0.373 0.787-0.788 0-0.248-0.123-0.457-0.267-0.582-1.434-1.308-3.012-2.139-5.399-2.139-4.193 0-7.287 3.301-7.287 7.475"/></g></g></g><g transform="translate(-44.947 153.88)"><g clip-path="url(#j)"><g transform="translate(767.88 102.07)"><path fill="#59899e" d="m0 0c0.85 0.372 1.203 0.893 1.162 1.702-0.435 0.105-0.81 0.436-0.81 0.995v0.333c0 0.54 0.392 0.954 0.953 0.954 0.603 0 1.019-0.455 1.019-1.14v-0.394c0-1.245-0.269-2.013-0.748-2.49-0.435-0.435-1.078-0.747-1.41-0.747-0.271 0-0.437 0.163-0.437 0.413 0 0.166 0.103 0.312 0.271 0.374"/></g></g></g><g transform="translate(-44.947 153.88)"><g clip-path="url(#i)"><g transform="translate(784.3 116.79)"><path fill="#59899e" d="m0 0h-4.215c-0.416 0-0.767 0.331-0.767 0.747 0 0.415 0.351 0.767 0.767 0.767h10.092c0.412 0 0.768-0.352 0.768-0.767 0-0.416-0.356-0.747-0.768-0.747h-4.217v-12.292c0-0.457-0.373-0.83-0.828-0.83-0.457 0-0.832 0.373-0.832 0.83v12.292z"/></g></g></g><g transform="translate(-44.947 153.88)"><g clip-path="url(#h)"><g transform="translate(805.6 111)"><path fill="#59899e" d="m0 0v0.041c0 3.301-2.41 6.001-5.73 6.001-3.323 0-5.688-2.658-5.688-5.959v-0.042c0-3.301 2.406-6 5.727-6 3.324 0 5.691 2.658 5.691 5.959m-13.121 0v0.041c0 4.007 3.008 7.515 7.43 7.515 4.425 0 7.39-3.467 7.39-7.473v-0.042c0-4.007-3.01-7.516-7.429-7.516-4.422 0-7.391 3.468-7.391 7.475"/></g></g></g><g transform="translate(-44.947 153.88)"><g clip-path="url(#g)"><g transform="translate(810.33 111)"><path fill="#59899e" d="m0 0v0.041c0 3.985 2.93 7.515 7.287 7.515 2.205 0 3.635-0.58 4.963-1.556 0.186-0.146 0.332-0.376 0.332-0.664 0-0.456-0.373-0.831-0.809-0.831-0.187 0-0.353 0.083-0.519 0.208-1.039 0.789-2.199 1.329-4.029 1.329-3.217 0-5.522-2.721-5.522-5.959v-0.042c0-3.468 2.223-6.042 5.75-6.042 1.66 0 3.199 0.644 4.195 1.454v3.611h-3.904c-0.392 0-0.724 0.332-0.724 0.726 0 0.418 0.332 0.749 0.724 0.749h4.674c0.436 0 0.809-0.375 0.809-0.832v-4.422c0-0.393-0.186-0.744-0.563-0.994-1.328-0.976-3.113-1.766-5.269-1.766-4.571 0-7.395 3.323-7.395 7.475"/></g></g></g><g transform="translate(-44.947 153.88)"><g clip-path="url(#f)"><g transform="translate(827.46 104.61)"><path fill="#59899e" d="m0 0v12.87c0 0.457 0.375 0.833 0.811 0.833h9.029c0.416 0 0.748-0.333 0.748-0.749 0-0.415-0.332-0.747-0.748-0.747h-8.197v-4.962h7.265c0.412 0 0.748-0.353 0.748-0.746 0-0.416-0.336-0.749-0.748-0.749h-7.265v-5.086h8.3c0.416 0 0.75-0.333 0.75-0.747 0-0.417-0.334-0.748-0.75-0.748h-9.132c-0.436 0-0.811 0.372-0.811 0.831"/></g></g></g><g transform="translate(-44.947 153.88)"><g clip-path="url(#e)"><g transform="translate(845.42 116.79)"><path fill="#59899e" d="m0 0h-4.217c-0.414 0-0.765 0.331-0.765 0.747 0 0.415 0.351 0.767 0.765 0.767h10.09c0.418 0 0.77-0.352 0.77-0.767 0-0.416-0.352-0.747-0.77-0.747h-4.215v-12.292c0-0.457-0.373-0.83-0.826-0.83-0.459 0-0.832 0.373-0.832 0.83v12.292z"/></g></g></g><g transform="translate(-44.947 153.88)"><g clip-path="url(#d)"><g transform="translate(855.24 117.58)"><path fill="#59899e" d="m0 0c0 0.456 0.373 0.829 0.809 0.829 0.455 0 0.83-0.373 0.83-0.829v-5.73h8.386v5.73c0 0.456 0.377 0.829 0.832 0.829 0.436 0 0.807-0.373 0.807-0.829v-13.08c0-0.457-0.371-0.831-0.807-0.831-0.455 0-0.832 0.374-0.832 0.831v5.813h-8.386v-5.813c0-0.457-0.375-0.831-0.83-0.831-0.436 0-0.809 0.374-0.809 0.831v13.08z"/></g></g></g><g transform="translate(-44.947 153.88)"><g clip-path="url(#c)"><g transform="translate(871.23 104.61)"><path fill="#59899e" d="m0 0v12.87c0 0.457 0.379 0.833 0.812 0.833h9.03c0.416 0 0.75-0.333 0.75-0.749 0-0.415-0.334-0.747-0.75-0.747h-8.197v-4.962h7.265c0.414 0 0.746-0.353 0.746-0.746 0-0.416-0.332-0.749-0.746-0.749h-7.265v-5.086h8.302c0.416 0 0.748-0.333 0.748-0.747 0-0.417-0.332-0.748-0.748-0.748h-9.135c-0.433 0-0.812 0.372-0.812 0.831"/></g></g></g><g transform="translate(-44.947 153.88)"><g clip-path="url(#b)"><g transform="translate(891.45 110.9)"><path fill="#59899e" d="m0 0c2.18 0 3.736 1.12 3.736 2.988v0.043c0 1.785-1.369 2.865-3.716 2.865h-4.485v-5.896h4.465zm-6.102 6.579c0 0.457 0.37 0.831 0.807 0.831h5.44c1.785 0 3.218-0.538 4.13-1.452 0.707-0.705 1.123-1.724 1.123-2.865v-0.043c0-2.387-1.619-3.779-3.882-4.213l3.611-4.652c0.166-0.186 0.271-0.372 0.271-0.601 0-0.437-0.416-0.81-0.832-0.81-0.332 0-0.58 0.185-0.767 0.435l-4.092 5.317h-4.172v-4.922c0-0.457-0.375-0.83-0.83-0.83-0.437 0-0.807 0.373-0.807 0.83v12.975z"/></g></g></g></g></svg>
