<?xml version="1.0" encoding="UTF-8" standalone="no"?>
<!DOCTYPE svg  PUBLIC '-//W3C//DTD SVG 1.1//EN'  'http://www.w3.org/Graphics/SVG/1.1/DTD/svg11.dtd'>
<svg enable-background="new 8.504 -69.429 300 234.494" width="300px" viewBox="8.504 -69.429 300 234.494" xmlns="http://www.w3.org/2000/svg" height="234.49px" version="1.1" xml:space="preserve" y="0px" x="0px">
	<path fill="#fff" d="m161.44-67.864c12.147 9.423 27.196 16.935 44.715 22.334 15.229 4.689 32.338 7.796 50.876 9.238l3.15 0.249v39.89h48.317v86.674h-29.697l-2.917 2.969-7.271 6.451c-32.64 28.978-78.037 63.796-108.94 65.124h-0.257c-23.707-0.79-63.697-24.364-109.71-64.69l-6.971-6.107-3.571-3.724h-30.674v-86.694h49.346v-39.947l3.202-0.153c39.078-1.828 68.777-11.595 96.303-31.667l2.063-1.507 2.02 1.565z"/>
	<path d="m159.36-65.172c26.694 20.695 62.968 29.597 97.414 32.273v28.235c-7.301-0.379-13.219 7.272-13.235 11.916l61.56-0.007v79.872h-57.078c1.354 7.395 11.229 10.659 18.333 10.277-37.945 33.685-79.776 63.106-106.83 64.267-24.65-0.816-66.317-27.691-107.58-63.85 17.11 0.278 18.624-10.704 18.624-10.704l-58.665 0.045v-79.906h61.373c-0.302-5.843-5.664-11.287-12.057-11.908v-28.19c36.58-1.711 68.195-10.483 98.145-32.319z"/>
	<path fill="#F5821F" d="m249.66-26.76c-0.01 5.032-0.01 11.945 0 17.664-6.74 1.396-13.54 10.547-13.52 16.349-3.899-0.008-5.544 0-5.544 0 0.54-11.037 6.661-16.399 13.554-20.057 0-3.482 0-5.376 0.035-8.794-29.376-0.724-63.354-13.342-84.61-27.701-19.341 13.027-55.731 26.957-85.4 27.701-0.009 1.933-0.009 5.779 0 8.8 7.753 3.95 12.302 11.676 12.778 20.042h-5.836c-1.258-8.733-6.256-13.414-12.393-16.846 0-5.581 0-11.024-0.036-16.816 33.546-1.896 71.168-14.871 90.517-29.861 18.54 15.247 57.5 27.001 90.46 29.519z"/>
	<polygon fill="#F5821F" points="19.374 14.737 297.95 14.737 297.95 79.352 19.374 79.352"/>
	<polygon points="25.496 20.194 292.52 20.194 292.52 74.265 25.496 74.265"/>
	<path fill="#F5821F" d="m84.958 87.11c-0.087 6.721-2.977 11.483-7.196 15.026 27.182 24.351 63.917 45.102 81.977 46.303 18.33-1.201 54.05-23.313 81.342-46.474-5.479-4.813-7.052-8.983-7.068-14.855 2.604 0.006 3.709 0.006 5.414 0.013 0.467 7.055 7.952 12.752 11.06 14.083-40.101 33.107-65.439 49.266-91.131 52.653-26.691-3.731-52.542-19.716-91.369-52.354 5.406-2.399 10.846-8.007 10.832-14.395h6.145v-0.005z"/>
	<path d="m265.59 90.817c0.414 0.41 0.613 0.907 0.613 1.484 0 0.595-0.199 1.092-0.613 1.507-0.406 0.414-0.903 0.624-1.49 0.624s-1.083-0.21-1.492-0.624c-0.401-0.415-0.604-0.912-0.604-1.507 0-0.577 0.203-1.074 0.611-1.484 0.408-0.417 0.909-0.622 1.485-0.622 0.59 0.001 1.08 0.206 1.49 0.622zm0.25-0.239c-0.475-0.474-1.052-0.707-1.735-0.707-0.673 0-1.243 0.233-1.727 0.707-0.474 0.483-0.717 1.053-0.717 1.727 0 0.687 0.243 1.267 0.717 1.742 0.475 0.483 1.045 0.724 1.727 0.724 0.681 0 1.257-0.24 1.735-0.724 0.48-0.482 0.715-1.06 0.715-1.742-0.01-0.674-0.24-1.252-0.72-1.727zm-1.37 1.616c-0.104 0.037-0.25 0.059-0.457 0.059h-0.424v-0.972h0.404c0.263 0 0.453 0.037 0.569 0.104 0.125 0.063 0.184 0.197 0.184 0.392 0.01 0.204-0.09 0.344-0.27 0.417zm-1.36 1.448h0.475v-1.057h0.374c0.25 0 0.425 0.028 0.526 0.087 0.17 0.102 0.259 0.307 0.259 0.62v0.213l0.005 0.086c0 0.007 0.008 0.015 0.008 0.03 0 0.009 0.007 0.017 0.007 0.023h0.449l-0.023-0.03c-0.007-0.023-0.016-0.072-0.023-0.138-0.007-0.074-0.007-0.14-0.007-0.205v-0.197c0-0.133-0.044-0.273-0.146-0.417-0.094-0.14-0.25-0.227-0.462-0.263 0.168-0.023 0.291-0.065 0.389-0.124 0.176-0.117 0.263-0.293 0.263-0.533 0-0.337-0.14-0.563-0.417-0.68-0.154-0.067-0.401-0.097-0.733-0.097h-0.943v2.681z"/>
</svg>
