<?xml version="1.0" encoding="UTF-8" standalone="no"?>
<!DOCTYPE svg  PUBLIC '-//W3C//DTD SVG 1.1//EN'  'http://www.w3.org/Graphics/SVG/1.1/DTD/svg11.dtd'>
<svg enable-background="new 8.504 -69.429 300 234.494" viewBox="8.504 -69.429 300 234.494" version="1.1" height="234.49px" width="300px" xmlns="http://www.w3.org/2000/svg" xml:space="preserve" x="0px" y="0px">
	<path d="m161.44-67.864c12.147 9.423 27.196 16.935 44.715 22.334 15.229 4.689 32.338 7.796 50.876 9.238l3.15 0.249v39.89h48.317v86.674h-29.697l-2.917 2.969-7.271 6.451c-32.64 28.978-78.037 63.796-108.94 65.124h-0.257c-23.707-0.79-63.697-24.364-109.71-64.69l-6.971-6.107-3.571-3.724h-30.674v-86.694h49.346v-39.947l3.202-0.153c39.078-1.828 68.777-11.595 96.303-31.667l2.063-1.507 2.02 1.565z" fill="#fff"/>
	<path d="m159.36-65.172c26.694 20.695 62.968 29.597 97.414 32.273v28.235c-7.301-0.379-13.219 7.272-13.235 11.916l61.56-0.007v79.872h-57.078c1.354 7.395 11.229 10.659 18.333 10.277-37.945 33.685-79.776 63.106-106.83 64.267-24.65-0.816-66.317-27.691-107.58-63.85 17.11 0.278 18.624-10.704 18.624-10.704l-58.665 0.045v-79.906h61.373c-0.302-5.843-5.664-11.287-12.057-11.908v-28.19c36.58-1.711 68.195-10.483 98.145-32.319z"/>
	<path d="m249.66-26.76c-0.01 5.032-0.01 11.945 0 17.664-6.74 1.396-13.54 10.547-13.52 16.349-3.899-0.008-5.544 0-5.544 0 0.54-11.037 6.661-16.399 13.554-20.057 0-3.482 0-5.376 0.035-8.794-29.376-0.724-63.354-13.342-84.61-27.701-19.341 13.027-55.731 26.957-85.4 27.701-0.009 1.933-0.009 5.779 0 8.8 7.753 3.95 12.302 11.676 12.778 20.042h-5.836c-1.258-8.733-6.256-13.414-12.393-16.846 0-5.581 0-11.024-0.036-16.816 33.546-1.896 71.168-14.871 90.517-29.861 18.54 15.247 57.5 27.001 90.46 29.519z" fill="#F5821F"/>
	<g fill="#F5821F">
		<path d="m145.57-23.549c-0.321-7.871-2.106-9.744-13.62-4.147-7.367 3.673-9.062 3.337-9.202 9.832v17.138c0.094 8.163 2.75 8.038 10.884 7.979 9.898-0.066 11.874 0.083 11.938-5.735-0.02-4.133 0.02-14.316 0-25.067zm-6.44 22.816c-0.009 1.153-0.564 1.476-1.368 1.505-1.757 0.08-4.886 0.014-7.015 0.022-1.315 0.008-1.852-1.214-1.866-2.275-0.049-4.712-0.466-15.918 1.238-17.644 0.557-0.57 9.002-5.435 9.011-1.436 0.01 0.002 0.02 18.575 0.01 19.828z"/>
		<path d="m105.74-7.185l-5.29-11.433c-1.901 0.343-2.992 0.628-6.65 1.28v24.583l6.737 0.008 0.205-9.778c1.99 2.569 3.6 6.227 5.165 9.356 1.536-3.095 3.117-7.212 4.952-10.549 0.884 1.039 0.718 7.25 0.718 10.963v0.001h6.648v-29.615c-5.207 1.068-5.119 1.068-6.926 1.581l-5.55 13.603z"/>
		<path d="m146.29-34.127l-0.052 7.345 9.231-4.573s-0.016 25.955 0 38.608h7.409v-38.608l9.481 4.662 0.05-7.483s-10.919-5.239-13.385-7.038c-2.3 1.71-12.73 7.087-12.73 7.087z"/>
		<path d="m222.81-2.695c2.799-0.964 3.562-10.233 0.321-13.796-1.749-1.923-12.23-3.576-21.104-5.508v29.252h6.431v-7.833c3.204-0.013 2.397-0.059 5.095-0.008 3.721-0.005 5.211 0.119 5.224 7.841h6.36s0.64-7.724-2.33-9.948zm-6.09-3.98c-2.928-0.176-3.994-0.212-8.172-0.423l-0.042-6.775c3.503 0.396 8.813 1.078 9.347 1.757 0.65 0.84 1.2 5.478-1.14 5.441z"/>
		<path d="m186.38-27.917c-5.734-2.275-13.284-6.269-13.284 3.059-0.007 6.947 0 25.644 0 25.644 0 6.458 3.746 6.458 12.237 6.467 8.981-0.008 11.28-0.008 11.28-6.467v-20.648c-0.01-5.012-4.81-5.903-10.24-8.055zm3.71 26.137c0.015 3.017-2.832 2.561-4.784 2.561-2.809 0.006-5.406 0.499-5.397-4.506 0 0-0.025-9.672-0.016-15.508 0.007-3.432 2.093-2.875 5.222-1.962 2 0.587 4.99 0.617 4.984 4.208 0.01 6.655 0.01 8.99 0 15.207z"/>
	</g>
	<polygon points="19.374 14.737 297.95 14.737 297.95 79.352 19.374 79.352" fill="#F5821F"/>
	<polygon points="25.496 20.194 292.52 20.194 292.52 74.265 25.496 74.265"/>
	<g fill="#fff">
		<path d="m44.199 42.541h-4.44v-15.609h-6.099v40.838h6.143l-0.005-17.017c1.835 0.007 2.684 0.007 4.358 0v17.058h6.146v-40.837h-6.103v15.567z"/>
		<path d="m97.613 60.949l-0.001-33.975h-6.525v40.796h12.62v-6.821c-2.21 0.016-3.87 0.016-6.097 0z"/>
		<path d="m105.06 67.77h12.568v-6.861c-2.311 0.023-3.796 0.023-6.085 0v-10.834h6.13v-7.145c-2.143 0.013-3.674 0.013-6.13 0v-9.525h6.174v-6.43h-12.657v40.795z"/>
		<rect width="11.229" height="5.077" x="135.7" y="44.998"/>
		<path d="m165.67 33.975c-0.007-4.769-2.217-7.023-5.393-7.023-4.142 0-5.925 0-10.643 0.022v40.796c3.546 0 6.548 0 8.763-0.017 5.012 0.017 7.286-3.897 7.322-7.235-0.02-7.371-0.06-17.875-0.05-26.543zm-7.66 26.943c-1.361 0.014-1.279 0.014-2.195-0.01l-0.006-27.76s3.643-0.835 3.643 1.953c0 1.588 0.044 18.896 0.065 23.907-0.03 1.111-0.67 1.881-1.51 1.91z"/>
		<path d="m136.72 26.974h-6.012c-1.361 4.528-1.698 8.528-3.088 13.32-1.293-4.754-2.012-9.005-2.814-13.342-1.964 0-3.367 0-6.364 0.022 1.652 8.038 3.979 15.88 6.027 23.919-0.009 5.098 0.034 9.815 0.014 16.538h6.144c0-6.336 0-9.869-0.022-16.415 2.18-7.993 4.43-15.433 6.11-24.042z"/>
		<path d="m85.639 47.031c3.191-3.197 3.051-6.852 3.051-8.807 0.008-4.294-0.673-11.273-6.618-11.273-6.804 0-7.662 0-10.317 0.021l-0.089 40.838h6.606v-15.696h1.09c1.427 0.007 2.918 0.262 2.927 2.787-0.008 3.051-0.017 8.552 0.007 11.127-0.015 1.192 1.728 1.742 2.457 1.784h3.974c0.015-5.232 0.015-8.845 0.015-13.092-0.044-4.463-1.097-5.889-3.103-7.689zm-3.672-4.857c0.015 1.615-0.71 2.084-1.331 2.098h-2.405v-10.834c2.39 0.024 3.75 0.024 3.766 2.292-0.007 1.749 0.03 4.572-0.03 6.444z"/>
		<path d="m65.582 26.976h-9.405c-1.318 13.97-2.764 27.402-4.186 40.838h5.802l1.14-9.824h4.199c0.314 2.342 0.783 6.168 1.258 9.78h5.669c-1.471-14.324-2.875-27.593-4.478-40.796v0.002zm-5.685 23.017l0.725-14.731c0.863 5.259 1.207 9.554 1.645 14.731h-2.37z"/>
		<path d="m241.22 45.381c-2.796-2.086-5.539-3.073-5.548-8.407 0.009-1.814-0.325-4.191 1.729-4.204 2.407-0.163 2.407 3.115 2.414 8.125l6.1 0.039v-7.984c0.008-3.921-2.319-7-7.856-7.041-9.351-0.104-8.458 8.57-8.45 14.306-0.008 6.344 5.18 8.385 7.906 10.447 1.384 1.045 2.591 2.319 2.591 6.437 0 3.614-0.583 4.887-2.114 4.879-2.521-0.015-2.31-2.449-2.318-3.649 0.009-1.097 0.009-4.117 0.019-6.198-1.284-0.007-5.194-0.007-6.161-0.023-0.014 12.686 1.01 16.05 8.448 16.05 6.338 0 8.295-4.504 8.295-10.289-0.05-7.909-1.33-9.696-5.06-12.488z"/>
		<path d="m220.89 26.629c-3.49 0.011-7.104 0.011-9.691 0v40.848c2.193 0 5.521 0 8.455-0.007 5.207 0.007 7.864-2.26 7.848-6.658v-26.976c0.01-5.393-3.52-7.198-6.62-7.207zm0.86 32.289c-0.011 1.833-0.436 2.01-4.048 1.989v-27.803s0.907 0.024 2.004 0c0.927 0.016 2.033 0.995 2.05 2.195 0.03 7.006 0 23.619 0 23.619z"/>
		<path d="m256.78 25.616c-3.489 0.02-8.508 0.746-8.498 8.608-0.01 10.972 0.003 20.454 0 26.253-0.01 6.02 4.407 7.937 7.95 7.997 4.242 0.08 8.39-3.634 8.39-7.908 0 0 0.005-22.305 0-26.188 0-7.55-4.66-8.792-7.84-8.762zm1.62 33.719c-0.01 3.884-4.305 2.912-4.296-0.593-0.009-9.297-0.059-19.047-0.023-24.271 0.017-2.794 4.333-2.72 4.319 0.002-0.01 2.347-0.01 15.485 0 24.862z"/>
		<path d="m278.54 26.629l0.257 18.713c-1.362-6.101-2.614-12.479-3.957-18.713h-7.835v40.481h6.458l-0.19-22.413c1.509 7.658 2.824 14.805 4.207 22.413h7.207v-40.481h-6.15z"/>
		<path d="m192.2 50.8c-0.861-7.901-1.675-16.234-2.413-24.171h-6.182l5.423 40.804h6.515l5.678-40.804h-6.058c-0.98 7.127-2.96 24.171-2.96 24.171z"/>
		<path d="m171.51 26.629c-1.358 13.439-3.686 27.302-4.87 40.804h5.831l1.2-9.868h4.357c0.557 3.364 0.887 6.568 1.566 9.868h5.755l-5.076-40.804h-8.77zm2.87 23.364l1.359-14.606c0.797 4.067 1.178 10.615 1.391 14.606h-2.75z"/>
		<polygon points="202.36 26.629 202.36 67.477 208.52 67.477 208.5 26.629"/>
	</g>
	<path d="m84.958 87.11c-0.087 6.721-2.977 11.483-7.196 15.026 27.182 24.351 63.917 45.102 81.977 46.303 18.33-1.201 54.05-23.313 81.342-46.474-5.479-4.813-7.052-8.983-7.068-14.855 2.604 0.006 3.709 0.006 5.414 0.013 0.467 7.055 7.952 12.752 11.06 14.083-40.101 33.107-65.439 49.266-91.131 52.653-26.691-3.731-52.542-19.716-91.369-52.354 5.406-2.399 10.846-8.007 10.832-14.395h6.145v-0.005z" fill="#F5821F"/>
	<g fill="#F5821F">
		<path d="m116.21 87.11c-3.271 0.006-8.398-0.104-8.392 3.664-0.007 6.444-0.007 20.243-0.007 23.417 0 4.539 2.575 5.39 6.884 8.339 4.315 2.953 5.588 3.86 7.395 4.103 1.2 0.154 3.08-1.018 3.08-4.484 0.013-9.627 0.013-30.034 0.013-30.027 0.01-5.22-3.17-5.006-8.96-5.013zm3.16 28.01c0 3.608-2.413 1.937-3.238 1.363-0.674-0.451-2.881-1.13-2.881-3.707-0.016-4.938 0-13.606 0.005-17.857 0-1.704 1.887-1.92 2.619-1.93 2.158-0.007 3.495-0.323 3.504 2.227-0.01 7.43-0.01 13.04-0.01 19.91z"/>
		<path d="m139.94 108.99c-1.449-5.201-5.523-19.647-5.523-19.647s-0.352-2.226-1.917-2.226c-1.193 0-3.036-0.02-4.688-0.006v43.129c2.136 1.479 3.151 2.076 5.486 2.883 0.006-9.269 0.006-18.066 0-26.203h0.542c1.871 6.329 4.695 15.034 6.392 19.862 1.732-5.342 3.358-11.303 5.032-16.773l0.623 0.042 0.009 28.819 5.77 2.202v-53.96h-5.89c-1.88 7.367-3.45 13.66-5.83 21.88z"/>
		<path d="m104.08 87.11h-7.724c-1.749 0.006-3.87 1.749-3.876 3.737 0.007 4.346 0.007 10.408 0.013 14.564-0.006 2.325 8.369 7.956 12.589 10.373 0.007-2.417-0.037-3.587-0.029-6.751-2.854-2.021-6.743-3.594-6.729-5.385 0.006-4.967-0.029-8.208-0.029-10.321h6.334s0.783 0.006 0.783-1.017c0.007-0.842-0.008-3.826-0.008-3.826 0.01-0.936-0.32-1.359-1.32-1.366z"/>
		<path d="m227.84 87.11c-1.639 0.006-3.591 0.006-5.326 0l-3.269 11.98c-1.08-3.386-1.674-8.615-2.604-11.98-1.662 0.006-4.758 0-6.07 0 1.813 5.324 3.853 11.016 5.734 16.591-0.008 3.657-0.008 5.99-0.015 11.053 1.872-1.272 4.001-2.979 5.458-4.076-0.011-1.874-0.011-6.084 0.006-8.981 1.56-3.434 4.49-9.557 6.09-14.58z"/>
		<path d="m184.97 87.107h-6.692l-8.887 53.12c4.009-1.242 5.456-1.837 6.846-2.523 0.653-4.628 1.457-9.729 2.011-13.267 2.21-0.8 4.296-1.356 6.812-1.903 0.541 3.19 1.01 6.717 1.523 10.205 2.464-0.89 4.292-2.033 5.588-2.88-2.064-14.213-4.484-28.155-7.2-42.748v-0.005zm-5.76 30.613s1.974-16.366 2.584-16.423c0.611-0.057 2.235 15.069 2.235 15.069-1.61 0.59-2.67 0.89-4.81 1.35z"/>
		<path d="m203.34 87.11v17.314h-0.513s-2.384-10.93-4.191-17.314h-5.799v42.331l6.056-3.554-0.167-19.73c2.223 6.218 3.369 10.512 5.17 16.341 1.731-1.015 3.433-2.004 5.246-3.392 0.015-10.522 0.015-21.194 0-31.996h-5.81z"/>
		<path d="m172.47 112.5l-0.023-19.666c0.008-2.582-1.346-5.713-5.345-5.719-3.141 0.006-7.946 0-12.372 0v54.519c3.629 1.578 4.66 1.748 6.459 0.468l0.009-22.223c8.37-0.96 10.92-1.17 11.27-7.38zm-11.27 1.24v-20.749h2.992c1.045-0.007 1.769 0.628 1.752 2.246 0.017 3.913 0.017 11.227 0.025 15.743 0 1.65-0.89 2.5-4.76 2.76z"/>
	</g>
	<path d="m265.59 90.817c0.414 0.41 0.613 0.907 0.613 1.484 0 0.595-0.199 1.092-0.613 1.507-0.406 0.414-0.903 0.624-1.49 0.624s-1.083-0.21-1.492-0.624c-0.401-0.415-0.604-0.912-0.604-1.507 0-0.577 0.203-1.074 0.611-1.484 0.408-0.417 0.909-0.622 1.485-0.622 0.59 0.001 1.08 0.206 1.49 0.622zm0.25-0.239c-0.475-0.474-1.052-0.707-1.735-0.707-0.673 0-1.243 0.233-1.727 0.707-0.474 0.483-0.717 1.053-0.717 1.727 0 0.687 0.243 1.267 0.717 1.742 0.475 0.483 1.045 0.724 1.727 0.724 0.681 0 1.257-0.24 1.735-0.724 0.48-0.482 0.715-1.06 0.715-1.742-0.01-0.674-0.24-1.252-0.72-1.727zm-1.37 1.616c-0.104 0.037-0.25 0.059-0.457 0.059h-0.424v-0.972h0.404c0.263 0 0.453 0.037 0.569 0.104 0.125 0.063 0.184 0.197 0.184 0.392 0.01 0.204-0.09 0.344-0.27 0.417zm-1.36 1.448h0.475v-1.057h0.374c0.25 0 0.425 0.028 0.526 0.087 0.17 0.102 0.259 0.307 0.259 0.62v0.213l0.005 0.086c0 0.007 0.008 0.015 0.008 0.03 0 0.009 0.007 0.017 0.007 0.023h0.449l-0.023-0.03c-0.007-0.023-0.016-0.072-0.023-0.138-0.007-0.074-0.007-0.14-0.007-0.205v-0.197c0-0.133-0.044-0.273-0.146-0.417-0.094-0.14-0.25-0.227-0.462-0.263 0.168-0.023 0.291-0.065 0.389-0.124 0.176-0.117 0.263-0.293 0.263-0.533 0-0.337-0.14-0.563-0.417-0.68-0.154-0.067-0.401-0.097-0.733-0.097h-0.943v2.681z"/>
</svg>
