<?xml version="1.0" encoding="UTF-8" standalone="no"?>
<!-- Created with Inkscape (http://www.inkscape.org/) -->

<svg
   xmlns:dc="http://purl.org/dc/elements/1.1/"
   xmlns:cc="http://creativecommons.org/ns#"
   xmlns:rdf="http://www.w3.org/1999/02/22-rdf-syntax-ns#"
   xmlns:svg="http://www.w3.org/2000/svg"
   xmlns="http://www.w3.org/2000/svg"
   xmlns:sodipodi="http://sodipodi.sourceforge.net/DTD/sodipodi-0.dtd"
   xmlns:inkscape="http://www.inkscape.org/namespaces/inkscape"
   width="145"
   height="240"
   id="svg2"
   version="1.1"
   inkscape:version="0.48.5 r10040"
   sodipodi:docname="lala1.svg">
  <defs
     id="defs4" />
  <sodipodi:namedview
     id="base"
     pagecolor="#ffffff"
     bordercolor="#666666"
     borderopacity="1.0"
     inkscape:pageopacity="0.0"
     inkscape:pageshadow="2"
     inkscape:zoom="2.8"
     inkscape:cx="79.584277"
     inkscape:cy="148.9987"
     inkscape:document-units="px"
     inkscape:current-layer="layer1"
     showgrid="false"
     inkscape:window-width="1463"
     inkscape:window-height="944"
     inkscape:window-x="135"
     inkscape:window-y="24"
     inkscape:window-maximized="0" />
  <metadata
     id="metadata7">
    <rdf:RDF>
      <cc:Work
         rdf:about="">
        <dc:format>image/svg+xml</dc:format>
        <dc:type
           rdf:resource="http://purl.org/dc/dcmitype/StillImage" />
        <dc:title></dc:title>
      </cc:Work>
    </rdf:RDF>
  </metadata>
  <g
     inkscape:label="Layer 1"
     inkscape:groupmode="layer"
     id="layer1"
     transform="translate(0,-812.36218)">
    <path
       style="fill:none;stroke:#000000;stroke-width:3;stroke-linecap:butt;stroke-linejoin:miter;stroke-miterlimit:4;stroke-opacity:1;stroke-dasharray:none"
       d="m 53.166056,964.9143 c -1.35202,20.83318 -8.65295,23.26823 -12.97943,36.7963 -4.32647,13.528 -8.11214,21.6448 -7.57132,44.9131"
       id="path3033"
       inkscape:connector-curvature="0"
       sodipodi:nodetypes="csc" />
    <path
       style="fill:none;stroke:#000000;stroke-width:3;stroke-linecap:butt;stroke-linejoin:miter;stroke-miterlimit:4;stroke-opacity:1;stroke-dasharray:none"
       d="m 63.441436,963.5615 c -0.5408,15.69252 0,26.51496 5.94891,41.3958 5.94891,14.8808 9.19377,26.2444 9.19377,45.9953"
       id="path3803"
       inkscape:connector-curvature="0" />
    <path
       style="fill:none;stroke:#000000;stroke-width:3;stroke-linecap:butt;stroke-linejoin:miter;stroke-miterlimit:4;stroke-opacity:1;stroke-dasharray:none"
       d="M 50.462016,930.28252 C 40.186626,918.64841 31.263276,902.14419 21.799106,897.54466"
       id="path3805"
       inkscape:connector-curvature="0" />
    <path
       style="fill:none;stroke:#000000;stroke-width:3;stroke-linecap:butt;stroke-linejoin:miter;stroke-miterlimit:4;stroke-opacity:1;stroke-dasharray:none"
       d="m 78.043296,916.75448 c 13.249841,-12.98692 35.693434,-10.28131 45.157594,-9.46962"
       id="path3807"
       inkscape:connector-curvature="0" />
    <path
       style="fill:none;stroke:#000000;stroke-width:3;stroke-linecap:butt;stroke-linejoin:miter;stroke-miterlimit:4;stroke-opacity:1;stroke-dasharray:none"
       d="m 63.711846,889.42784 c -15.95388,21.64486 -22.17318,38.96075 -26.22926,50.59487 -4.05607,11.63411 -7.57133,22.45655 -7.57133,22.45655 0,0 2.16323,1.89392 7.57133,2.16448 5.4081,0.27056 30.82614,-1.89393 38.93828,-0.54111 8.11215,1.3528 14.60186,2.97615 14.60186,2.97615 0,0 -2.43364,-7.03458 -6.2193,-20.56261 -3.78567,-13.52804 -6.48972,-32.19673 -11.89781,-38.41964 -5.4081,-6.2229 -8.38255,-7.30514 -8.38255,-7.30514"
       id="path3809"
       inkscape:connector-curvature="0" />
    <path
       style="fill:none;stroke:#000000;stroke-width:3;stroke-linecap:round;stroke-linejoin:round;stroke-miterlimit:4;stroke-opacity:1;stroke-dasharray:none"
       d="m 94.537996,858.04279 c 1.35202,-11.36356 -9.46416,-25.70328 -20.28036,-24.89159 -10.8162,0.81167 -21.36197,1.62336 -26.77008,14.88083 -5.40809,13.25748 -7.30093,31.1145 -2.16323,38.14908 5.13769,7.03458 10.54579,6.2229 21.09157,-0.54112 10.54579,-6.76402 26.77008,-17.58645 28.1221,-27.5972 z"
       id="path3811"
       inkscape:connector-curvature="0" />
    <path
       style="fill:none;stroke:#000000;stroke-width:3;stroke-linecap:round;stroke-linejoin:round;stroke-opacity:1;stroke-miterlimit:4;stroke-dasharray:none"
       d="m 92.857143,36.42857 c 0,4.642857 -5.357143,43.928572 -2.142857,54.642858"
       id="path4672"
       inkscape:connector-curvature="0"
       transform="translate(0,812.36218)" />
    <path
       style="fill:none;stroke:#000000;stroke-width:3;stroke-linecap:round;stroke-linejoin:round;stroke-opacity:1;stroke-miterlimit:4;stroke-dasharray:none"
       d="M 87.142858,91.785713 C 88.214286,76.071428 87.5,37.499999 90,32.499999"
       id="path4674"
       inkscape:connector-curvature="0"
       transform="translate(0,812.36218)" />
    <path
       style="fill:none;stroke:#000000;stroke-width:3;stroke-linecap:round;stroke-linejoin:round;stroke-opacity:1;stroke-miterlimit:4;stroke-dasharray:none"
       d="m 83.928572,24.285713 c 1.428571,10 2.142857,62.142858 -0.357143,66.071429"
       id="path4676"
       inkscape:connector-curvature="0"
       transform="translate(0,812.36218)" />
    <path
       style="fill:none;stroke:#000000;stroke-width:3;stroke-linecap:round;stroke-linejoin:round;stroke-opacity:1;stroke-miterlimit:4;stroke-dasharray:none"
       d="m 78.214286,91.785713 c 1.071429,-15.357142 1.071429,-63.214286 2.5,-66.785714"
       id="path4678"
       inkscape:connector-curvature="0"
       transform="translate(0,812.36218)" />
    <path
       style="fill:none;stroke:#000000;stroke-width:3;stroke-linecap:round;stroke-linejoin:round;stroke-opacity:1;stroke-miterlimit:4;stroke-dasharray:none"
       d="m 73.928572,21.785713 c 1.428571,5 1.785714,63.214286 0.714286,65.714286"
       id="path4680"
       inkscape:connector-curvature="0"
       transform="translate(0,812.36218)" />
    <path
       style="fill:none;stroke:#000000;stroke-width:3;stroke-linecap:round;stroke-linejoin:round;stroke-opacity:1;stroke-miterlimit:4;stroke-dasharray:none"
       d="m 68.571429,21.42857 c 3.214286,6.785715 0.714286,20.357143 1.785714,29.642858 1.071429,9.285714 2.5,38.928571 2.5,38.928571"
       id="path4682"
       inkscape:connector-curvature="0"
       transform="translate(0,812.36218)" />
    <path
       style="fill:none;stroke:#000000;stroke-width:3;stroke-linecap:round;stroke-linejoin:round;stroke-opacity:1;stroke-miterlimit:4;stroke-dasharray:none"
       d="m 63.928572,23.214285 c 0.714285,11.071428 5.714286,58.571428 4.285714,62.5"
       id="path4684"
       inkscape:connector-curvature="0"
       transform="translate(0,812.36218)" />
    <path
       style="fill:none;stroke:#000000;stroke-width:3;stroke-linecap:round;stroke-linejoin:round;stroke-opacity:1;stroke-miterlimit:4;stroke-dasharray:none"
       d="m 61.071429,23.214285 c -1.785714,6.071428 -2.142857,27.142857 -0.714286,32.857143 1.428572,5.714285 3.571429,30 3.571429,30"
       id="path4686"
       inkscape:connector-curvature="0"
       transform="translate(0,812.36218)" />
    <path
       style="fill:none;stroke:#000000;stroke-width:3;stroke-linecap:round;stroke-linejoin:round;stroke-opacity:1;stroke-miterlimit:4;stroke-dasharray:none"
       d="m 53.928572,26.42857 c 1.785714,8.928572 3.571428,32.5 3.571428,37.5 0,5 0.357143,22.500001 0.357143,22.500001"
       id="path4688"
       inkscape:connector-curvature="0"
       transform="translate(0,812.36218)" />
    <path
       style="fill:none;stroke:#000000;stroke-width:3;stroke-linecap:round;stroke-linejoin:round;stroke-opacity:1;stroke-miterlimit:4;stroke-dasharray:none"
       d="m 50.714286,28.571427 c 1.428571,8.571429 3.571429,37.500001 3.571429,43.214286 0,5.714286 -0.357143,19.285715 -0.357143,19.285715"
       id="path4690"
       inkscape:connector-curvature="0"
       transform="translate(0,812.36218)" />
    <path
       style="fill:none;stroke:#000000;stroke-width:3;stroke-linecap:round;stroke-linejoin:round;stroke-opacity:1;stroke-miterlimit:4;stroke-dasharray:none"
       d="m 47.857143,37.499999 c 1.785714,7.857143 0.357143,20.357143 0.357143,27.142857 0,6.785715 2.5,23.214286 2.5,23.214286"
       id="path4692"
       inkscape:connector-curvature="0"
       transform="translate(0,812.36218)" />
    <path
       style="fill:none;stroke:#000000;stroke-width:3;stroke-linecap:round;stroke-linejoin:round;stroke-opacity:1;stroke-miterlimit:4;stroke-dasharray:none"
       d="m 43.928572,45.357142 c 2.142857,13.928571 1.785714,42.5 1.785714,42.5"
       id="path4694"
       inkscape:connector-curvature="0"
       transform="translate(0,812.36218)" />
  </g>
</svg>
