<?xml version="1.0" encoding="UTF-8" standalone="no"?>
<!-- Created with Inkscape (http://www.inkscape.org/) -->

<svg
   xmlns:dc="http://purl.org/dc/elements/1.1/"
   xmlns:cc="http://creativecommons.org/ns#"
   xmlns:rdf="http://www.w3.org/1999/02/22-rdf-syntax-ns#"
   xmlns:svg="http://www.w3.org/2000/svg"
   xmlns="http://www.w3.org/2000/svg"
   xmlns:sodipodi="http://sodipodi.sourceforge.net/DTD/sodipodi-0.dtd"
   xmlns:inkscape="http://www.inkscape.org/namespaces/inkscape"
   width="145"
   height="240"
   id="svg2"
   version="1.1"
   inkscape:version="0.48.5 r10040"
   sodipodi:docname="lala1.svg">
  <defs
     id="defs4" />
  <sodipodi:namedview
     id="base"
     pagecolor="#ffffff"
     bordercolor="#666666"
     borderopacity="1.0"
     inkscape:pageopacity="0.0"
     inkscape:pageshadow="2"
     inkscape:zoom="7.9195959"
     inkscape:cx="65.638412"
     inkscape:cy="174.02138"
     inkscape:document-units="px"
     inkscape:current-layer="layer1"
     showgrid="false"
     inkscape:window-width="1463"
     inkscape:window-height="944"
     inkscape:window-x="135"
     inkscape:window-y="24"
     inkscape:window-maximized="0" />
  <metadata
     id="metadata7">
    <rdf:RDF>
      <cc:Work
         rdf:about="">
        <dc:format>image/svg+xml</dc:format>
        <dc:type
           rdf:resource="http://purl.org/dc/dcmitype/StillImage" />
        <dc:title></dc:title>
      </cc:Work>
    </rdf:RDF>
  </metadata>
  <g
     inkscape:label="Layer 1"
     inkscape:groupmode="layer"
     id="layer1"
     transform="translate(0,-812.36218)">
    <path
       style="fill:none;stroke:#000000;stroke-width:3;stroke-linecap:butt;stroke-linejoin:miter;stroke-miterlimit:4;stroke-opacity:1;stroke-dasharray:none"
       d="m 53.166056,964.9143 c -1.35202,20.83318 -8.65295,23.26823 -12.97943,36.7963 -4.32647,13.528 -8.11214,21.6448 -7.57132,44.9131"
       id="path3033"
       inkscape:connector-curvature="0"
       sodipodi:nodetypes="csc" />
    <path
       style="fill:none;stroke:#000000;stroke-width:3;stroke-linecap:butt;stroke-linejoin:miter;stroke-miterlimit:4;stroke-opacity:1;stroke-dasharray:none"
       d="m 63.441436,963.5615 c -0.5408,15.69252 0,26.51496 5.94891,41.3958 5.94891,14.8808 9.19377,26.2444 9.19377,45.9953"
       id="path3803"
       inkscape:connector-curvature="0" />
    <path
       style="fill:none;stroke:#000000;stroke-width:3;stroke-linecap:butt;stroke-linejoin:miter;stroke-miterlimit:4;stroke-opacity:1;stroke-dasharray:none"
       d="M 50.462016,930.28252 C 40.186626,918.64841 31.263276,902.14419 21.799106,897.54466"
       id="path3805"
       inkscape:connector-curvature="0" />
    <path
       style="fill:none;stroke:#000000;stroke-width:3;stroke-linecap:butt;stroke-linejoin:miter;stroke-miterlimit:4;stroke-opacity:1;stroke-dasharray:none"
       d="m 78.043296,916.75448 c 13.249841,-12.98692 35.693434,-10.28131 45.157594,-9.46962"
       id="path3807"
       inkscape:connector-curvature="0" />
    <path
       style="fill:none;stroke:#000000;stroke-width:3;stroke-linecap:butt;stroke-linejoin:miter;stroke-miterlimit:4;stroke-opacity:1;stroke-dasharray:none"
       d="m 63.711846,889.42784 c -15.95388,21.64486 -22.17318,38.96075 -26.22926,50.59487 -4.05607,11.63411 -7.57133,22.45655 -7.57133,22.45655 0,0 2.16323,1.89392 7.57133,2.16448 5.4081,0.27056 30.82614,-1.89393 38.93828,-0.54111 8.11215,1.3528 14.60186,2.97615 14.60186,2.97615 0,0 -2.43364,-7.03458 -6.2193,-20.56261 -3.78567,-13.52804 -6.48972,-32.19673 -11.89781,-38.41964 -5.4081,-6.2229 -8.38255,-7.30514 -8.38255,-7.30514"
       id="path3809"
       inkscape:connector-curvature="0" />
    <path
       style="fill:none;stroke:#000000;stroke-width:3;stroke-linecap:butt;stroke-linejoin:miter;stroke-miterlimit:4;stroke-opacity:1;stroke-dasharray:none"
       d="m 94.537996,858.04279 c 1.35202,-11.36356 -9.46416,-25.70328 -20.28036,-24.89159 -10.8162,0.81167 -21.36197,1.62336 -26.77008,14.88083 -5.40809,13.25748 -7.30093,31.1145 -2.16323,38.14908 5.13769,7.03458 10.54579,6.2229 21.09157,-0.54112 10.54579,-6.76402 26.77008,-17.58645 28.1221,-27.5972 z"
       id="path3811"
       inkscape:connector-curvature="0" />
    <path
       style="fill:none;stroke:#000000;stroke-width:3;stroke-linecap:butt;stroke-linejoin:miter;stroke-miterlimit:4;stroke-opacity:1;stroke-dasharray:none"
       d="m 33.967326,901.06195 c -0.27041,-8.9285 2.97445,-18.12757 6.2193,-27.86776 3.24486,-9.74019 1.89284,-23.26823 5.40811,-29.22057 3.51525,-5.95234 14.60186,-19.20982 28.39249,-14.06916 13.79065,5.14065 21.36198,22.99767 24.877247,37.06683 3.515257,14.06917 5.678487,19.75094 5.678487,19.75094"
       id="path3813"
       inkscape:connector-curvature="0" />
    <path
       sodipodi:type="arc"
       style="color:#000000;fill:#000000;fill-opacity:1;fill-rule:nonzero;stroke:none;stroke-width:3;marker:none;visibility:visible;display:inline;overflow:visible;enable-background:accumulate"
       id="path3815"
       sodipodi:cx="393.07562"
       sodipodi:cy="428.08792"
       sodipodi:rx="1.6414979"
       sodipodi:ry="2.5253813"
       d="m 394.71712,428.08792 c 0,1.39473 -0.73492,2.52538 -1.6415,2.52538 -0.90657,0 -1.6415,-1.13065 -1.6415,-2.52538 0,-1.39473 0.73493,-2.52538 1.6415,-2.52538 0.90658,0 1.6415,1.13065 1.6415,2.52538 z"
       transform="matrix(1.0707483,0,0,1.0713661,-358.39002,390.47539)" />
    <path
       sodipodi:type="arc"
       style="color:#000000;fill:#000000;fill-opacity:1;fill-rule:nonzero;stroke:none;stroke-width:3;marker:none;visibility:visible;display:inline;overflow:visible;enable-background:accumulate"
       id="path3817"
       sodipodi:cx="400.9043"
       sodipodi:cy="426.0676"
       sodipodi:rx="1.6414979"
       sodipodi:ry="2.7779195"
       d="m 402.54579,426.0676 c 0,1.5342 -0.73492,2.77792 -1.64149,2.77792 -0.90658,0 -1.6415,-1.24372 -1.6415,-2.77792 0,-1.53421 0.73492,-2.77792 1.6415,-2.77792 0.90657,0 1.64149,1.24371 1.64149,2.77792 z"
       transform="matrix(0.99132643,-0.40492328,0.4046898,0.99189837,-499.64387,586.66948)" />
    <path
       style="fill:none;stroke:#000000;stroke-width:3;stroke-linecap:round;stroke-linejoin:round;stroke-opacity:1;stroke-miterlimit:4;stroke-dasharray:none"
       d="m 52.527933,56.152236 c 6.313453,4.04061 12.879445,6.060915 18.561553,-0.631345"
       id="path3023"
       inkscape:connector-curvature="0"
       transform="translate(0,812.36218)" />
  </g>
</svg>
