<?xml version="1.0" encoding="UTF-8" standalone="no"?>
<!-- Created with Inkscape (http://www.inkscape.org/) -->

<svg
   xmlns:dc="http://purl.org/dc/elements/1.1/"
   xmlns:cc="http://creativecommons.org/ns#"
   xmlns:rdf="http://www.w3.org/1999/02/22-rdf-syntax-ns#"
   xmlns:svg="http://www.w3.org/2000/svg"
   xmlns="http://www.w3.org/2000/svg"
   xmlns:sodipodi="http://sodipodi.sourceforge.net/DTD/sodipodi-0.dtd"
   xmlns:inkscape="http://www.inkscape.org/namespaces/inkscape"
   width="100"
   height="50"
   id="svg2"
   version="1.1"
   inkscape:version="0.48.5 r10040"
   sodipodi:docname="words32.svg">
  <defs
     id="defs4" />
  <sodipodi:namedview
     id="base"
     pagecolor="#ffffff"
     bordercolor="#666666"
     borderopacity="1.0"
     inkscape:pageopacity="0.0"
     inkscape:pageshadow="2"
     inkscape:zoom="0.98994949"
     inkscape:cx="365.90274"
     inkscape:cy="202.47928"
     inkscape:document-units="px"
     inkscape:current-layer="layer1"
     showgrid="false"
     inkscape:window-width="1463"
     inkscape:window-height="944"
     inkscape:window-x="129"
     inkscape:window-y="24"
     inkscape:window-maximized="0"
     showguides="true"
     inkscape:guide-bbox="true" />
  <metadata
     id="metadata7">
    <rdf:RDF>
      <cc:Work
         rdf:about="">
        <dc:format>image/svg+xml</dc:format>
        <dc:type
           rdf:resource="http://purl.org/dc/dcmitype/StillImage" />
        <dc:title></dc:title>
      </cc:Work>
    </rdf:RDF>
  </metadata>
  <g
     inkscape:label="Layer 1"
     inkscape:groupmode="layer"
     id="layer1"
     transform="translate(0,-1002.3622)">
    <path
       style="fill:none;stroke:#000000;stroke-width:3;stroke-linecap:round;stroke-linejoin:round;stroke-miterlimit:4;stroke-opacity:1;stroke-dasharray:none"
       d="m 9.1515426,1010.3046 c 2.4895804,10.5754 5.9127604,31.415 5.9127604,31.415"
       id="path3973"
       inkscape:connector-curvature="0" />
    <path
       style="fill:none;stroke:#000000;stroke-width:3;stroke-linecap:round;stroke-linejoin:round;stroke-miterlimit:4;stroke-opacity:1;stroke-dasharray:none"
       d="m 26.267423,1031.7663 c 6.84634,3.1104 11.51432,-1.2441 9.95832,-7.1539 -1.55598,-5.9097 -7.46874,-6.5318 -8.40234,-0.311 -0.93359,6.2208 -2.80077,16.4851 4.04557,18.3513 6.84635,1.8663 9.64714,0.6221 9.64714,0.6221"
       id="path3975"
       inkscape:connector-curvature="0" />
    <path
       style="fill:none;stroke:#000000;stroke-width:3;stroke-linecap:round;stroke-linejoin:round;stroke-miterlimit:4;stroke-opacity:1;stroke-dasharray:none"
       d="m 43.072093,1023.6793 c 5.29037,3.4214 17.73828,4.3546 17.73828,4.3546"
       id="path3977"
       inkscape:connector-curvature="0" />
    <path
       style="fill:none;stroke:#000000;stroke-width:3;stroke-linecap:round;stroke-linejoin:round;stroke-miterlimit:4;stroke-opacity:1;stroke-dasharray:none"
       d="m 49.918453,1012.4819 c 1.24479,4.6656 2.80077,33.2812 2.80077,33.2812"
       id="path3979"
       inkscape:connector-curvature="0" />
    <path
       transform="translate(-346.81027,984.83356)"
       sodipodi:type="arc"
       style="color:#000000;fill:#000000;fill-opacity:1;fill-rule:nonzero;stroke:none;stroke-width:3;marker:none;visibility:visible;display:inline;overflow:visible;enable-background:accumulate"
       id="path3126"
       sodipodi:cx="413.53119"
       sodipodi:cy="59.694656"
       sodipodi:rx="1.8940361"
       sodipodi:ry="1.8940361"
       d="m 415.42523,59.694656 c 0,1.046048 -0.84799,1.894036 -1.89404,1.894036 -1.04605,0 -1.89404,-0.847988 -1.89404,-1.894036 0,-1.046047 0.84799,-1.894036 1.89404,-1.894036 1.04605,0 1.89404,0.847989 1.89404,1.894036 z" />
    <path
       transform="translate(-346.81027,984.83356)"
       sodipodi:type="arc"
       style="color:#000000;fill:#000000;fill-opacity:1;fill-rule:nonzero;stroke:none;stroke-width:3;marker:none;visibility:visible;display:inline;overflow:visible;enable-background:accumulate"
       id="path3128"
       sodipodi:cx="424.76913"
       sodipodi:cy="60.452271"
       sodipodi:rx="1.767767"
       sodipodi:ry="2.1465743"
       d="m 426.5369,60.452271 c 0,1.18552 -0.79145,2.146574 -1.76777,2.146574 -0.97631,0 -1.76776,-0.961054 -1.76776,-2.146574 0,-1.185521 0.79145,-2.146575 1.76776,-2.146575 0.97632,0 1.76777,0.961054 1.76777,2.146575 z" />
    <path
       transform="translate(-346.81027,984.83356)"
       sodipodi:type="arc"
       style="color:#000000;fill:#000000;fill-opacity:1;fill-rule:nonzero;stroke:none;stroke-width:3;marker:none;visibility:visible;display:inline;overflow:visible;enable-background:accumulate"
       id="path3130"
       sodipodi:cx="436.51218"
       sodipodi:cy="60.704807"
       sodipodi:rx="1.6414979"
       sodipodi:ry="1.8940361"
       d="m 438.15367,60.704807 c 0,1.046048 -0.73492,1.894036 -1.64149,1.894036 -0.90658,0 -1.6415,-0.847988 -1.6415,-1.894036 0,-1.046047 0.73492,-1.894036 1.6415,-1.894036 0.90657,0 1.64149,0.847989 1.64149,1.894036 z" />
  </g>
</svg>
