<?xml version="1.0" encoding="UTF-8" standalone="no"?>
<!-- Created with Inkscape (http://www.inkscape.org/) -->

<svg
   xmlns:dc="http://purl.org/dc/elements/1.1/"
   xmlns:cc="http://creativecommons.org/ns#"
   xmlns:rdf="http://www.w3.org/1999/02/22-rdf-syntax-ns#"
   xmlns:svg="http://www.w3.org/2000/svg"
   xmlns="http://www.w3.org/2000/svg"
   xmlns:sodipodi="http://sodipodi.sourceforge.net/DTD/sodipodi-0.dtd"
   xmlns:inkscape="http://www.inkscape.org/namespaces/inkscape"
   width="150"
   height="230"
   id="svg2"
   version="1.1"
   inkscape:version="0.48.5 r10040"
   sodipodi:docname="sing4.svg">
  <defs
     id="defs4" />
  <sodipodi:namedview
     id="base"
     pagecolor="#ffffff"
     bordercolor="#666666"
     borderopacity="1.0"
     inkscape:pageopacity="0.0"
     inkscape:pageshadow="2"
     inkscape:zoom="1.979899"
     inkscape:cx="-47.376771"
     inkscape:cy="128.03552"
     inkscape:document-units="px"
     inkscape:current-layer="layer1"
     showgrid="false"
     inkscape:window-width="1463"
     inkscape:window-height="944"
     inkscape:window-x="78"
     inkscape:window-y="0"
     inkscape:window-maximized="0" />
  <metadata
     id="metadata7">
    <rdf:RDF>
      <cc:Work
         rdf:about="">
        <dc:format>image/svg+xml</dc:format>
        <dc:type
           rdf:resource="http://purl.org/dc/dcmitype/StillImage" />
        <dc:title />
      </cc:Work>
    </rdf:RDF>
  </metadata>
  <g
     inkscape:label="Layer 1"
     inkscape:groupmode="layer"
     id="layer1"
     transform="translate(0,-822.36218)">
    <path
       style="fill:#ffffff;stroke:#000000;stroke-width:3;stroke-linecap:butt;stroke-linejoin:miter;stroke-miterlimit:4;stroke-opacity:1;stroke-dasharray:none;fill-opacity:1"
       d="m 68.988178,903.43265 c -4.225679,25.03222 -5.850939,38.51111 -15.927553,50.38537 -10.076615,11.87429 -12.677034,19.89728 -12.677034,19.89728 0,0 13.327138,11.23248 26.004169,14.7626 12.677032,3.53029 27.629431,6.41863 27.629431,6.41863 0,0 -3.900625,-21.18123 -9.426511,-36.58555 -5.525888,-15.40445 -6.826095,-13.79982 -10.726722,-28.56242 -3.900625,-14.76258 -4.87578,-26.31591 -4.87578,-26.31591 z"
       id="path3858"
       inkscape:connector-curvature="0" />
    <path
       style="fill:none;stroke:#000000;stroke-width:3;stroke-linecap:butt;stroke-linejoin:miter;stroke-miterlimit:4;stroke-opacity:1;stroke-dasharray:none"
       d="m 71.913647,915.94875 c 13.327137,11.87424 31.530053,23.7485 31.530053,23.7485"
       id="path3860"
       inkscape:connector-curvature="0" />
    <path
       style="fill:none;stroke:#000000;stroke-width:3;stroke-linecap:butt;stroke-linejoin:miter;stroke-miterlimit:4;stroke-opacity:1;stroke-dasharray:none"
       d="m 65.805246,916.2619 c -14.182716,15.77846 -33.61555,33.71276 -33.61555,33.71276"
       id="path3862"
       inkscape:connector-curvature="0" />
    <path
       style="fill:#ffffff;stroke:#000000;stroke-width:3;stroke-linecap:butt;stroke-linejoin:miter;stroke-miterlimit:4;stroke-opacity:1;stroke-dasharray:none;fill-opacity:1"
       d="m 69.150705,901.18615 c 15.602499,-0.96279 24.541434,-15.72537 26.004168,-24.06944 1.462733,-8.34408 5.850937,-23.74853 -0.975156,-28.88335 -6.826094,-5.13481 -15.927553,-11.39287 -22.753648,-10.75101 -6.826094,0.64184 -19.3406,15.0835 -20.640809,29.68564 -1.30021,14.60212 -2.275365,25.51361 4.55073,30.48797 6.826094,4.97436 13.814715,3.53019 13.814715,3.53019 z"
       id="path3864"
       inkscape:connector-curvature="0" />
    <path
       style="fill:none;stroke:#000000;stroke-width:3;stroke-linecap:butt;stroke-linejoin:miter;stroke-miterlimit:4;stroke-opacity:1;stroke-dasharray:none"
       d="m 34.207599,890.27468 c 7.313674,-16.20677 14.789873,-34.49956 23.403756,-43.48548 8.613881,-8.98593 12.677032,-17.33001 29.417214,-5.93712 16.740181,11.39285 13.164611,19.09509 21.941021,25.67407 8.77641,6.57899 9.75156,10.75101 9.75156,10.75101"
       id="path3866"
       inkscape:connector-curvature="0" />
    <path
       sodipodi:type="arc"
       style="color:#000000;fill:#000000;fill-opacity:1;fill-rule:nonzero;stroke:none;stroke-width:3;marker:none;visibility:visible;display:inline;overflow:visible;enable-background:accumulate"
       id="path3870"
       sodipodi:cx="41.195282"
       sodipodi:cy="486.77145"
       sodipodi:rx="1.5467961"
       sodipodi:ry="3.1251595"
       d="m 42.742078,486.77145 c 0,1.72598 -0.692524,3.12516 -1.546796,3.12516 -0.854272,0 -1.546796,-1.39918 -1.546796,-3.12516 0,-1.72597 0.692524,-3.12516 1.546796,-3.12516 0.854272,0 1.546796,1.39919 1.546796,3.12516 z"
       transform="matrix(1.8202918,0,0,1.7971854,-7.3990688,-14.167974)" />
    <path
       sodipodi:type="arc"
       style="color:#000000;fill:#000000;fill-opacity:1;fill-rule:nonzero;stroke:none;stroke-width:3;marker:none;visibility:visible;display:inline;overflow:visible;enable-background:accumulate"
       id="path3872"
       sodipodi:cx="51.17054"
       sodipodi:cy="485.72974"
       sodipodi:rx="1.5467961"
       sodipodi:ry="2.6516504"
       d="m 52.717336,485.72974 c 0,1.46446 -0.692524,2.65165 -1.546796,2.65165 -0.854272,0 -1.546796,-1.18719 -1.546796,-2.65165 0,-1.46447 0.692524,-2.65165 1.546796,-2.65165 0.854272,0 1.546796,1.18718 1.546796,2.65165 z"
       transform="matrix(1.8202918,0,0,1.7971854,-7.3990688,-14.167974)" />
    <path
       style="fill:#000000;stroke:#000000;stroke-width:3;stroke-linecap:round;stroke-linejoin:round;stroke-miterlimit:4;stroke-opacity:1;stroke-dasharray:none;fill-opacity:1"
       d="m 64.285715,53.30357 c 3.303571,17.589286 16.696428,15.803572 19.375,0.446429 z"
       id="path4815"
       inkscape:connector-curvature="0"
       transform="translate(0,822.36218)"
       sodipodi:nodetypes="ccc" />
    <path
       style="fill:none;stroke:#000000;stroke-width:3;stroke-linecap:butt;stroke-linejoin:miter;stroke-miterlimit:4;stroke-opacity:1;stroke-dasharray:none"
       d="m 77.517398,1034.8119 c 2.167545,-29.5935 -1.375553,-35.97503 -1.050499,-43.67716"
       id="path3854"
       inkscape:connector-curvature="0"
       sodipodi:nodetypes="cc" />
    <path
       style="fill:none;stroke:#000000;stroke-width:3;stroke-linecap:butt;stroke-linejoin:miter;stroke-miterlimit:4;stroke-opacity:1;stroke-dasharray:none"
       d="m 61.802334,1032.2375 c -1.961679,-22.7284 2.798172,-43.83699 2.798172,-43.83699"
       id="path3856"
       inkscape:connector-curvature="0"
       sodipodi:nodetypes="cc" />
  </g>
</svg>
