<?xml version="1.0" encoding="UTF-8" standalone="no"?>
<!-- Created with Inkscape (http://www.inkscape.org/) -->

<svg
   xmlns:dc="http://purl.org/dc/elements/1.1/"
   xmlns:cc="http://creativecommons.org/ns#"
   xmlns:rdf="http://www.w3.org/1999/02/22-rdf-syntax-ns#"
   xmlns:svg="http://www.w3.org/2000/svg"
   xmlns="http://www.w3.org/2000/svg"
   xmlns:sodipodi="http://sodipodi.sourceforge.net/DTD/sodipodi-0.dtd"
   xmlns:inkscape="http://www.inkscape.org/namespaces/inkscape"
   width="800"
   height="600"
   id="svg2"
   version="1.1"
   inkscape:version="0.48.5 r10040"
   sodipodi:docname="1-title.svg">
  <defs
     id="defs4" />
  <sodipodi:namedview
     id="base"
     pagecolor="#ffffff"
     bordercolor="#666666"
     borderopacity="1.0"
     inkscape:pageopacity="0.0"
     inkscape:pageshadow="2"
     inkscape:zoom="0.7"
     inkscape:cx="387.22654"
     inkscape:cy="238.78179"
     inkscape:document-units="px"
     inkscape:current-layer="layer1"
     showgrid="false"
     inkscape:window-width="1463"
     inkscape:window-height="944"
     inkscape:window-x="135"
     inkscape:window-y="24"
     inkscape:window-maximized="0" />
  <metadata
     id="metadata7">
    <rdf:RDF>
      <cc:Work
         rdf:about="">
        <dc:format>image/svg+xml</dc:format>
        <dc:type
           rdf:resource="http://purl.org/dc/dcmitype/StillImage" />
        <dc:title></dc:title>
      </cc:Work>
    </rdf:RDF>
  </metadata>
  <g
     inkscape:label="Layer 1"
     inkscape:groupmode="layer"
     id="layer1"
     transform="translate(0,-452.36218)">
    <path
       style="fill:none;stroke:#000000;stroke-width:12.80000019;stroke-linecap:round;stroke-linejoin:miter;stroke-miterlimit:4;stroke-opacity:1;stroke-dasharray:none"
       d="m 216.40477,573.45966 c 0,0 -22.47589,-4.29315 -34.85026,1.26269 -12.37437,5.55584 -18.94036,13.88959 -16.66752,22.47589 2.27285,8.5863 23.73859,19.44544 40.15357,19.69798 16.41498,0.25253 38.63833,1.01015 42.67894,17.9302 4.04061,16.92006 -8.58629,36.3655 -22.98097,49.24494 -14.39467,12.87945 -41.66879,32.07234 -62.88199,20.20305"
       id="path3766"
       inkscape:connector-curvature="0" />
    <g
       id="g3814"
       transform="translate(43.416148,231.73979)">
      <path
         inkscape:connector-curvature="0"
         id="path3768"
         d="m 294.96454,498.04097 c 0,0 -1.51523,-52.78047 1.51523,-64.14468"
         style="fill:none;stroke:#000000;stroke-width:12.80000019;stroke-linecap:round;stroke-linejoin:miter;stroke-miterlimit:4;stroke-opacity:1;stroke-dasharray:none" />
      <path
         inkscape:connector-curvature="0"
         id="path3770"
         d="m 287.3884,419.24907 c -4.79823,-4.54568 -3.283,-13.63706 -1.51523,-19.44543 1.76777,-5.80838 9.84899,-15.9099 12.62691,-14.14214 2.77792,1.76777 3.03046,8.08122 2.77792,12.37437 -0.25254,4.29315 -5.55584,19.69798 -8.33376,21.97082 -2.77792,2.27284 -5.55584,-0.75762 -5.55584,-0.75762 z"
         style="fill:#000000;fill-opacity:1;stroke:none" />
    </g>
    <g
       id="g3818"
       transform="translate(43.416148,231.73979)">
      <path
         inkscape:connector-curvature="0"
         id="path3772"
         d="m 324.00643,438.18943 1.01015,74.49875"
         style="fill:none;stroke:#000000;stroke-width:12.80000019;stroke-linecap:round;stroke-linejoin:miter;stroke-miterlimit:4;stroke-opacity:1;stroke-dasharray:none" />
      <path
         inkscape:connector-curvature="0"
         id="path3774"
         d="m 324.76404,455.10949 c 0,0 19.44544,-25.25381 30.05204,-26.01143 10.6066,-0.75761 21.97082,-1.01015 26.76904,11.86929 4.79823,12.87945 20.70813,59.09393 20.70813,59.09393"
         style="fill:none;stroke:#000000;stroke-width:12.80000019;stroke-linecap:round;stroke-linejoin:miter;stroke-miterlimit:4;stroke-opacity:1;stroke-dasharray:none" />
    </g>
    <g
       id="g3822"
       transform="translate(43.416148,231.73979)">
      <path
         sodipodi:nodetypes="zssssz"
         inkscape:connector-curvature="0"
         id="path3776"
         d="m 517.1981,419.75415 c 4.68484,10.90077 -10.6066,31.81981 -15.65736,40.15356 -5.05076,8.33376 -15.9099,18.43529 -23.99112,15.15229 -8.08122,-3.28299 -12.62691,-27.02158 -11.11168,-35.35534 1.51523,-8.33376 7.57614,-26.26396 24.74874,-30.55711 17.17259,-4.29315 21.32658,-0.29417 26.01142,10.6066 z"
         style="fill:none;stroke:#000000;stroke-width:12.80000019;stroke-linecap:butt;stroke-linejoin:miter;stroke-miterlimit:4;stroke-opacity:1;stroke-dasharray:none" />
      <path
         sodipodi:nodetypes="ccssc"
         inkscape:connector-curvature="0"
         id="path3778"
         d="m 518.20825,424.29984 2.77793,59.34646 c 0,0 1.51522,39.64849 -8.33376,49.75001 -9.84899,10.10153 -21.21321,26.51651 -39.14341,28.28427 -17.93021,1.76777 -29.7995,-2.77792 -39.39595,-11.86929"
         style="fill:none;stroke:#000000;stroke-width:12.80000019;stroke-linecap:round;stroke-linejoin:miter;stroke-miterlimit:4;stroke-opacity:1;stroke-dasharray:none" />
    </g>
    <g
       id="g3826"
       transform="translate(43.416148,231.73979)">
      <path
         inkscape:connector-curvature="0"
         id="path3780"
         d="m 585.88848,495.26305 c 6.81853,3.53554 5.80837,16.92006 0.75761,25.50636 -5.05076,8.58629 -7.82868,9.59644 -11.36421,8.58629 -3.53554,-1.01015 -8.08123,-6.31345 -4.04062,-17.67767 4.04062,-11.36421 14.64722,-16.41498 14.64722,-16.41498 z"
         style="fill:#000000;fill-opacity:1;stroke:none" />
      <path
         inkscape:connector-curvature="0"
         id="path3782"
         d="m 581.34279,457.12979 c -0.25254,-27.02158 0.25254,-58.84138 13.38452,-93.69164"
         style="fill:none;stroke:#000000;stroke-width:12.80000019;stroke-linecap:round;stroke-linejoin:miter;stroke-miterlimit:4;stroke-opacity:1;stroke-dasharray:none" />
    </g>
    <g
       id="g3830"
       transform="translate(43.416148,231.73979)">
      <path
         inkscape:connector-curvature="0"
         id="path3790"
         d="m 185.36299,756.89256 c 0,0 -6.31345,-16.92005 -7.3236,-25.75889 -1.01016,-8.83883 -3.78808,-29.54696 -3.78808,-29.54696"
         style="fill:none;stroke:#000000;stroke-width:3.20000005;stroke-linecap:round;stroke-linejoin:miter;stroke-miterlimit:4;stroke-opacity:1;stroke-dasharray:none" />
      <path
         inkscape:connector-curvature="0"
         id="path3792"
         d="m 174.75639,704.86971 c 0,0 3.03046,-5.80838 7.07107,-4.29315 4.04061,1.51523 10.6066,6.56599 11.36421,9.34391 0.75762,2.77792 5.30331,8.33376 -0.75761,10.85914 -6.06092,2.52538 -10.35406,0.50508 -11.86929,-0.25254 -1.51523,-0.75761 -5.05077,-2.77792 -5.05077,-2.77792 0,0 11.11168,-2.27284 17.1726,3.03046 6.06091,5.3033 15.40482,18.18275 10.85914,24.74874 -4.54569,6.56599 -14.89975,5.55584 -21.71828,2.0203"
         style="fill:none;stroke:#000000;stroke-width:3.20000005;stroke-linecap:round;stroke-linejoin:miter;stroke-miterlimit:4;stroke-opacity:1;stroke-dasharray:none" />
    </g>
    <g
       id="g3834"
       transform="translate(43.416148,231.73979)">
      <path
         inkscape:connector-curvature="0"
         id="path3794"
         d="m 216.93026,718.50677 c 0,0 9.34391,10.10152 9.84899,12.37436"
         style="fill:none;stroke:#000000;stroke-width:3.20000005;stroke-linecap:round;stroke-linejoin:miter;stroke-miterlimit:4;stroke-opacity:1;stroke-dasharray:none" />
      <path
         inkscape:connector-curvature="0"
         id="path3796"
         d="m 231.57747,718.00169 c -1.26269,5.80838 -7.3236,14.39467 -9.59645,24.4962 -2.27284,10.10152 -4.54568,20.45559 -2.27284,25.25381"
         style="fill:none;stroke:#000000;stroke-width:3.20000005;stroke-linecap:round;stroke-linejoin:miter;stroke-miterlimit:4;stroke-opacity:1;stroke-dasharray:none" />
    </g>
    <g
       id="g3838"
       transform="translate(43.416148,231.73979)">
      <path
         inkscape:connector-curvature="0"
         id="path3798"
         d="m 255.56859,695.5258 c 3.78808,7.07106 3.53554,14.14213 3.03046,21.71828 -0.50507,7.57614 1.01015,21.97081 2.27285,25.75889 1.26269,3.78807 3.03045,7.3236 3.03045,7.3236"
         style="fill:none;stroke:#000000;stroke-width:3.20000005;stroke-linecap:round;stroke-linejoin:miter;stroke-miterlimit:4;stroke-opacity:1;stroke-dasharray:none" />
      <path
         inkscape:connector-curvature="0"
         id="path3800"
         d="m 276.7818,712.44585 c -4.54569,4.29315 -9.34391,8.83884 -13.38452,9.59645 -4.04061,0.75761 -5.05077,1.76777 -5.05077,1.76777 0,0 8.33376,0.75761 12.62691,3.78807 4.29315,3.03046 22.72843,12.62691 28.53681,24.74874"
         style="fill:none;stroke:#000000;stroke-width:3.20000005;stroke-linecap:round;stroke-linejoin:miter;stroke-miterlimit:4;stroke-opacity:1;stroke-dasharray:none" />
    </g>
    <path
       style="fill:none;stroke:#000000;stroke-width:3.20000005;stroke-linecap:round;stroke-linejoin:miter;stroke-miterlimit:4;stroke-opacity:1;stroke-dasharray:none"
       d="m 350.50252,962.62092 c 0,0 4.79823,1.76777 8.83884,1.76777 4.04061,0 7.57614,-1.01015 7.82868,-1.76777 0.25254,-0.75761 -8.5863,-15.40482 -13.8896,-14.39467 -5.3033,1.01015 -7.07106,6.31345 -5.3033,14.89975 1.76777,8.5863 9.34391,17.17259 14.64721,17.42513 5.30331,0.25254 6.06092,-4.29315 6.06092,-4.29315"
       id="path3802"
       inkscape:connector-curvature="0" />
    <path
       style="fill:none;stroke:#000000;stroke-width:3.20000005;stroke-linecap:round;stroke-linejoin:miter;stroke-miterlimit:4;stroke-opacity:1;stroke-dasharray:none"
       d="m 380.8071,952.77194 c 0,0 1.26269,4.79822 1.26269,9.09137 0,4.29315 1.01015,18.18275 1.01015,18.18275 0,0 -2.27284,-22.4759 7.57615,-27.27412 9.84899,-4.79823 13.8896,26.01143 13.8896,26.01143"
       id="path3804"
       inkscape:connector-curvature="0" />
    <path
       style="fill:none;stroke:#000000;stroke-width:3.20000005;stroke-linecap:round;stroke-linejoin:miter;stroke-miterlimit:4;stroke-opacity:1;stroke-dasharray:none"
       d="m 426.26397,924.23513 c 0,0 0,17.17259 0.75761,23.99112 0.75761,6.81853 2.27284,20.45559 2.27284,23.48605 0,3.03046 -0.25254,5.55584 -0.25254,5.55584 0,0 -4.04061,-8.5863 -4.54568,-11.11168 -0.50508,-2.52538 -3.283,-10.35406 -6.31346,-9.84899 -3.03045,0.50508 -4.54568,12.37437 -0.75761,16.92006 3.78807,4.54568 11.61675,4.04061 11.61675,4.04061"
       id="path3806"
       inkscape:connector-curvature="0" />
    <path
       style="fill:none;stroke:#000000;stroke-width:3.20000005;stroke-linecap:round;stroke-linejoin:miter;stroke-miterlimit:4;stroke-opacity:1;stroke-dasharray:none"
       d="m 450.25509,960.09554 c 0,0 2.0203,4.04061 2.0203,8.08122 0,4.04061 0.25254,11.8693 0.25254,11.8693 0,0 -3.28299,-15.40483 -4.79822,-16.41498 -1.51523,-1.01016 -7.07107,2.27284 -4.79823,11.86929 2.27285,9.59645 8.33376,10.35406 8.33376,10.35406 0,0 3.53553,-2.27284 4.54569,-3.03045"
       id="path3808"
       inkscape:connector-curvature="0" />
    <path
       style="fill:none;stroke:#000000;stroke-width:3.20000005;stroke-linecap:round;stroke-linejoin:miter;stroke-miterlimit:4;stroke-opacity:1;stroke-dasharray:none"
       d="m 474.75129,978.27829 c -1.51523,-6.81853 -0.50508,-21.97082 -0.50508,-30.55712 0,-8.58629 -1.26269,-23.73858 -1.26269,-23.73858"
       id="path3810"
       inkscape:connector-curvature="0" />
    <path
       style="fill:none;stroke:#000000;stroke-width:3.20000005;stroke-linecap:round;stroke-linejoin:miter;stroke-miterlimit:4;stroke-opacity:1;stroke-dasharray:none"
       d="m 489.90358,913.12345 c 0.25253,8.5863 3.53553,22.22336 3.28299,28.78935 -0.25254,6.56599 1.76777,25.00127 1.76777,25.00127"
       id="path3812"
       inkscape:connector-curvature="0" />
  </g>
</svg>
