<?xml version="1.0" encoding="UTF-8" standalone="no"?>
<!-- Created with Inkscape (http://www.inkscape.org/) -->

<svg
   xmlns:dc="http://purl.org/dc/elements/1.1/"
   xmlns:cc="http://creativecommons.org/ns#"
   xmlns:rdf="http://www.w3.org/1999/02/22-rdf-syntax-ns#"
   xmlns:svg="http://www.w3.org/2000/svg"
   xmlns="http://www.w3.org/2000/svg"
   xmlns:sodipodi="http://sodipodi.sourceforge.net/DTD/sodipodi-0.dtd"
   xmlns:inkscape="http://www.inkscape.org/namespaces/inkscape"
   width="800"
   height="600"
   id="svg2"
   version="1.1"
   inkscape:version="0.48.5 r10040"
   sodipodi:docname="words27.svg">
  <defs
     id="defs4" />
  <sodipodi:namedview
     id="base"
     pagecolor="#ffffff"
     bordercolor="#666666"
     borderopacity="1.0"
     inkscape:pageopacity="0.0"
     inkscape:pageshadow="2"
     inkscape:zoom="0.98994949"
     inkscape:cx="312.05105"
     inkscape:cy="296.99797"
     inkscape:document-units="px"
     inkscape:current-layer="layer1"
     showgrid="false"
     inkscape:window-width="1463"
     inkscape:window-height="944"
     inkscape:window-x="129"
     inkscape:window-y="24"
     inkscape:window-maximized="0"
     showguides="true"
     inkscape:guide-bbox="true" />
  <metadata
     id="metadata7">
    <rdf:RDF>
      <cc:Work
         rdf:about="">
        <dc:format>image/svg+xml</dc:format>
        <dc:type
           rdf:resource="http://purl.org/dc/dcmitype/StillImage" />
        <dc:title></dc:title>
      </cc:Work>
    </rdf:RDF>
  </metadata>
  <g
     inkscape:label="Layer 1"
     inkscape:groupmode="layer"
     id="layer1"
     transform="translate(0,-452.36218)">
    <path
       style="fill:none;stroke:#000000;stroke-width:3;stroke-linecap:round;stroke-linejoin:round;stroke-miterlimit:4;stroke-opacity:1;stroke-dasharray:none"
       d="m 563.14478,691.29478 c 3.11198,5.59871 13.6927,20.83965 13.6927,20.83965 0,0 -1.55599,-10.57534 0,-15.55197 1.55599,-4.97664 3.42318,-4.97664 3.42318,-4.97664 0,0 1.86719,8.39807 3.42317,12.44158 1.55599,4.04352 4.66797,8.08703 4.66797,8.08703 0,0 0,-9.02015 2.17838,-12.44158 2.17839,-3.42143 2.48959,-10.88638 2.48959,-10.88638"
       id="path4115-1"
       inkscape:connector-curvature="0" />
    <path
       style="fill:none;stroke:#000000;stroke-width:3;stroke-linecap:round;stroke-linejoin:round;stroke-miterlimit:4;stroke-opacity:1;stroke-dasharray:none"
       d="m 599.96422,684.55407 c -1.55599,9.95326 3.11198,29.85979 3.11198,29.85979 0,0 0.9336,-11.19743 6.53516,-9.02015 5.60156,2.17728 4.97916,12.75262 4.97916,12.75262"
       id="path4193-7"
       inkscape:connector-curvature="0" />
    <path
       style="fill:none;stroke:#000000;stroke-width:3;stroke-linecap:round;stroke-linejoin:round;stroke-miterlimit:4;stroke-opacity:1;stroke-dasharray:none"
       d="m 625.0713,690.22444 c -4.35677,-1.86624 -7.15754,7.15391 -4.66797,12.44158 2.48958,5.28767 4.97917,10.57534 6.22396,10.57534 1.24479,0 0.9336,-22.39484 0.9336,-22.39484 0,0 0,22.0838 1.55598,23.639"
       id="path3999-4"
       inkscape:connector-curvature="0" />
    <path
       style="fill:none;stroke:#000000;stroke-width:3;stroke-linecap:round;stroke-linejoin:round;stroke-miterlimit:4;stroke-opacity:1;stroke-dasharray:none"
       d="m 642.51918,682.97677 c 0.6224,8.39807 3.42319,32.34811 3.42319,32.34811"
       id="path4059-0"
       inkscape:connector-curvature="0" />
    <path
       style="fill:none;stroke:#000000;stroke-width:3;stroke-linecap:round;stroke-linejoin:round;stroke-miterlimit:4;stroke-opacity:1;stroke-dasharray:none"
       d="m 633.49445,695.41835 c 4.97917,1.24416 16.80468,4.97663 16.80468,4.97663"
       id="path4061-9"
       inkscape:connector-curvature="0" />
  </g>
</svg>
