<?xml version="1.0" encoding="UTF-8" standalone="no"?>
<!-- Created with Inkscape (http://www.inkscape.org/) -->

<svg
   xmlns:dc="http://purl.org/dc/elements/1.1/"
   xmlns:cc="http://creativecommons.org/ns#"
   xmlns:rdf="http://www.w3.org/1999/02/22-rdf-syntax-ns#"
   xmlns:svg="http://www.w3.org/2000/svg"
   xmlns="http://www.w3.org/2000/svg"
   xmlns:sodipodi="http://sodipodi.sourceforge.net/DTD/sodipodi-0.dtd"
   xmlns:inkscape="http://www.inkscape.org/namespaces/inkscape"
   width="800"
   height="600"
   id="svg2"
   version="1.1"
   inkscape:version="0.48.5 r10040"
   sodipodi:docname="words23.svg">
  <defs
     id="defs4" />
  <sodipodi:namedview
     id="base"
     pagecolor="#ffffff"
     bordercolor="#666666"
     borderopacity="1.0"
     inkscape:pageopacity="0.0"
     inkscape:pageshadow="2"
     inkscape:zoom="0.98994949"
     inkscape:cx="312.05105"
     inkscape:cy="296.99797"
     inkscape:document-units="px"
     inkscape:current-layer="layer1"
     showgrid="false"
     inkscape:window-width="1463"
     inkscape:window-height="944"
     inkscape:window-x="129"
     inkscape:window-y="24"
     inkscape:window-maximized="0"
     showguides="true"
     inkscape:guide-bbox="true" />
  <metadata
     id="metadata7">
    <rdf:RDF>
      <cc:Work
         rdf:about="">
        <dc:format>image/svg+xml</dc:format>
        <dc:type
           rdf:resource="http://purl.org/dc/dcmitype/StillImage" />
        <dc:title></dc:title>
      </cc:Work>
    </rdf:RDF>
  </metadata>
  <g
     inkscape:label="Layer 1"
     inkscape:groupmode="layer"
     id="layer1"
     transform="translate(0,-452.36218)">
    <path
       style="fill:none;stroke:#000000;stroke-width:3;stroke-linecap:round;stroke-linejoin:round;stroke-miterlimit:4;stroke-opacity:1;stroke-dasharray:none"
       d="m 242.06342,642.99522 c 0.9336,9.64223 6.22395,34.83643 6.22395,34.83643 0,0 -4.35677,-19.28445 -9.64712,-10.88639 -5.29036,8.39807 1.55598,14.61886 6.53515,15.86301 4.97916,1.24417 10.58072,-2.17727 10.58072,-2.17727"
       id="path4147"
       inkscape:connector-curvature="0" />
    <path
       style="fill:none;stroke:#000000;stroke-width:3;stroke-linecap:round;stroke-linejoin:round;stroke-miterlimit:4;stroke-opacity:1;stroke-dasharray:none"
       d="m 265.09206,662.90175 c -5.91277,-4.97663 -9.64713,8.7091 -5.91277,13.37469 3.73438,4.6656 13.69271,3.1104 14.31511,-3.11038 0.62239,-6.2208 0.3112,-11.19743 -3.73438,-13.06366 -4.04557,-1.86624 -6.22396,1.55519 -6.22396,1.55519"
       id="path4149"
       inkscape:connector-curvature="0" />
    <path
       style="fill:none;stroke:#000000;stroke-width:3;stroke-linecap:round;stroke-linejoin:round;stroke-miterlimit:4;stroke-opacity:1;stroke-dasharray:none"
       d="m 289.67668,660.1024 c -6.22395,0.93311 -5.60156,15.24093 1.55599,18.35132 7.15754,3.1104 7.77994,-7.77598 5.60156,-13.99677 -2.17838,-6.22079 -1.24479,-4.35455 -7.15755,-4.35455 z"
       id="path4151"
       inkscape:connector-curvature="0" />
    <path
       style="fill:none;stroke:#000000;stroke-width:3;stroke-linecap:round;stroke-linejoin:round;stroke-miterlimit:4;stroke-opacity:1;stroke-dasharray:none"
       d="m 303.05819,657.92512 c 2.48958,5.90975 7.15754,20.21756 7.15754,20.21756 0,0 -6.22395,-20.21756 1.556,-22.0838 7.77994,-1.86624 10.89192,1.5552 10.89192,1.5552"
       id="path4153"
       inkscape:connector-curvature="0" />
    <path
       style="fill:none;stroke:#000000;stroke-width:3;stroke-linecap:round;stroke-linejoin:round;stroke-miterlimit:4;stroke-opacity:1;stroke-dasharray:none"
       d="m 326.39802,641.75107 c 1.86719,7.1539 0.31119,21.15068 0.31119,21.15068"
       id="path4155"
       inkscape:connector-curvature="0" />
    <path
       style="fill:none;stroke:#000000;stroke-width:3;stroke-linecap:round;stroke-linejoin:round;stroke-miterlimit:4;stroke-opacity:1;stroke-dasharray:none"
       d="m 327.33161,673.78813 2.48958,5.90976"
       id="path4157"
       inkscape:connector-curvature="0" />
  </g>
</svg>
