<?xml version="1.0" encoding="UTF-8" standalone="no"?>
<!-- Created with Inkscape (http://www.inkscape.org/) -->

<svg
   xmlns:dc="http://purl.org/dc/elements/1.1/"
   xmlns:cc="http://creativecommons.org/ns#"
   xmlns:rdf="http://www.w3.org/1999/02/22-rdf-syntax-ns#"
   xmlns:svg="http://www.w3.org/2000/svg"
   xmlns="http://www.w3.org/2000/svg"
   xmlns:xlink="http://www.w3.org/1999/xlink"
   xmlns:sodipodi="http://sodipodi.sourceforge.net/DTD/sodipodi-0.dtd"
   xmlns:inkscape="http://www.inkscape.org/namespaces/inkscape"
   width="610"
   height="660"
   id="svg3012"
   version="1.1"
   inkscape:version="0.48.5 r10040"
   sodipodi:docname="background.svg">
  <defs
     id="defs3014">
    <linearGradient
       id="linearGradient3775">
      <stop
         style="stop-color:#4d7e99;stop-opacity:1;"
         offset="0"
         id="stop3777" />
      <stop
         style="stop-color:#c27a36;stop-opacity:1;"
         offset="1"
         id="stop3779" />
    </linearGradient>
    <linearGradient
       inkscape:collect="always"
       xlink:href="#linearGradient3775"
       id="linearGradient3781"
       x1="226.59575"
       y1="0"
       x2="467.44681"
       y2="514.04254"
       gradientUnits="userSpaceOnUse" />
  </defs>
  <sodipodi:namedview
     id="base"
     pagecolor="#ffffff"
     bordercolor="#666666"
     borderopacity="1.0"
     inkscape:pageopacity="0.0"
     inkscape:pageshadow="2"
     inkscape:zoom="0.94"
     inkscape:cx="339.6837"
     inkscape:cy="365.06349"
     inkscape:document-units="px"
     inkscape:current-layer="layer1"
     showgrid="true"
     inkscape:snap-grids="false"
     inkscape:window-width="1351"
     inkscape:window-height="898"
     inkscape:window-x="96"
     inkscape:window-y="46"
     inkscape:window-maximized="0"
     inkscape:snap-page="true"
     inkscape:snap-to-guides="true">
    <inkscape:grid
       type="xygrid"
       id="grid3020"
       empspacing="5"
       visible="true"
       enabled="true"
       snapvisiblegridlinesonly="true"
       spacingx="40px"
       spacingy="40px"
       originx="5px"
       originy="30px" />
  </sodipodi:namedview>
  <metadata
     id="metadata3017">
    <rdf:RDF>
      <cc:Work
         rdf:about="">
        <dc:format>image/svg+xml</dc:format>
        <dc:type
           rdf:resource="http://purl.org/dc/dcmitype/StillImage" />
        <dc:title />
      </cc:Work>
    </rdf:RDF>
  </metadata>
  <g
     inkscape:label="Layer 1"
     inkscape:groupmode="layer"
     id="layer1"
     transform="translate(0,-392.3622)">
    <rect
       style="fill:url(#linearGradient3781);fill-opacity:1;stroke:none"
       id="rect3800"
       width="610"
       height="660"
       x="0"
       y="0"
       transform="translate(0,392.3622)" />
    <path
       sodipodi:type="arc"
       style="fill:#effc08;fill-opacity:1;stroke:#724b13;stroke-width:0.50000000000000000;stroke-linecap:round;stroke-linejoin:round;stroke-miterlimit:4;stroke-opacity:1;stroke-dasharray:none"
       id="path3826"
       sodipodi:cx="531.91492"
       sodipodi:cy="499.89362"
       sodipodi:rx="46.80851"
       sodipodi:ry="43.085106"
       d="m 578.72343,499.89362 c 0,23.79524 -20.95689,43.0851 -46.80851,43.0851 -25.85163,0 -46.80851,-19.28986 -46.80851,-43.0851 0,-23.79525 20.95688,-43.08511 46.80851,-43.08511 25.85162,0 46.80851,19.28986 46.80851,43.08511 z"
       transform="translate(0,392.3622)" />
    <path
       style="fill:#172d17;fill-opacity:1;stroke:none"
       d="m 222.34043,924.70262 c 0,0 138.7442,-92.10435 186.17021,-82.97873 53.94746,10.38047 143.61703,80.85107 143.61703,80.85107 l 1.06383,129.78724 -288.29788,0 z"
       id="rect3803"
       inkscape:connector-curvature="0"
       sodipodi:nodetypes="cscccc" />
    <path
       style="fill:#1e3c1e;fill-opacity:1;stroke:none"
       d="m 0,903.87734 c 0,0 67.769023,31.76175 104.25532,34.04255 52.26631,3.26724 110.37654,-32.9762 154.25532,-29.78723 53.39119,3.88031 111.18033,24.35418 159.57447,18.08511 38.74296,-5.01885 68.46122,-44.29249 107.4468,-46.80852 C 554.78458,877.52137 610,903.87734 610,903.87734 l 0,148.48486 -610,0 z"
       id="rect3798"
       inkscape:connector-curvature="0"
       sodipodi:nodetypes="csssscccc" />
    <path
       style="fill:#751515;fill-opacity:1;stroke:#000000;stroke-opacity:1"
       d="m 40.425531,942.78773 c 0,0 -3.546099,-73.3917 -4.255319,-119.14893 l 153.191488,-15.95744 4.25532,154.25532 z"
       id="path3815"
       inkscape:connector-curvature="0"
       sodipodi:nodetypes="ccccc" />
    <path
       style="fill:#bdbdbd;stroke:none;stroke-width:1px;stroke-linecap:butt;stroke-linejoin:miter;stroke-opacity:1;fill-opacity:1"
       d="m 135.10638,313.19149 c -1.06383,-1.41844 -4.60993,-3.19149 -3.19149,-4.25532 1.41844,-1.06383 4.96454,4.25532 3.19149,4.25532 -1.77305,-1.41844 -3.5461,-2.83688 -5.31915,-4.25532 0,-0.35461 0.25075,-0.81308 0,-1.06383 -0.25074,-0.25075 -0.81308,0.25075 -1.06383,0 -0.25074,-0.25075 0.25075,-0.81308 0,-1.06383 -0.25074,-0.25075 -0.81308,0.25075 -1.06383,0 -0.25074,-0.25075 0.15859,-0.74666 0,-1.06383 -0.22427,-0.44855 -0.83955,-0.61528 -1.06383,-1.06383 -0.15858,-0.31717 0.25075,-0.81308 0,-1.06383 -0.25074,-0.25075 -0.81308,0.25075 -1.06383,0 -0.25074,-0.25075 0.15859,-0.74666 0,-1.06383 -2.2137,-4.4274 0.0735,1.13727 -2.12765,-1.06383 -0.25075,-0.25075 0,-0.70922 0,-1.06383 0,-1.2778 -0.55931,-4.20053 0,-5.31915 0.65728,-1.31457 1.0271,-1.06383 2.12765,-1.06383 2.83688,0 -0.35461,0.35461 1.06383,-1.06383 0.11411,-0.1141 10.57149,0 11.70213,0 0.43805,0 2.90989,-0.2816 3.19149,0 0.25075,0.25075 -0.25075,0.81309 0,1.06383 0.5015,0.5015 1.62617,-0.50149 2.12766,0 0.25075,0.25075 -0.25075,0.81309 0,1.06383 0.25075,0.25075 0.70922,0 1.06383,0 0,0.35461 -0.25075,0.81309 0,1.06383 0.35018,0.35019 1.77748,-0.35018 2.12766,0 0.25075,0.25075 0,0.70922 0,1.06383 0.35461,0 0.81308,-0.25074 1.06383,0 0.70922,0.70922 -0.70922,3.5461 0,4.25532 0.25075,0.25075 0.70922,0 1.06383,0 2.83688,0 -0.35461,0.35461 1.06383,-1.06383 0.25075,-0.25075 0.81308,0.25075 1.06383,0 0.25075,-0.25075 -0.25075,-0.81308 0,-1.06383 0.25075,-0.25074 0.81308,0.25075 1.06383,0 0.50149,-0.50149 -0.50149,-1.62616 0,-2.12766 0.53191,-0.53191 2.65957,0.53192 3.19149,0 0.25075,-0.25074 -0.25075,-0.81308 0,-1.06383 0.25075,-0.25074 0.81308,0.25075 1.06383,0 0.25075,-0.25074 -0.25075,-0.81308 0,-1.06383 0.25075,-0.25074 0.81308,0.25075 1.06383,0 0.25075,-0.25074 -0.25075,-0.81308 0,-1.06383 0.35018,-0.35018 1.77747,0.35019 2.12766,0 0.25075,-0.25074 -0.25075,-0.81308 0,-1.06383 0.10003,-0.10003 9.61329,0 10.6383,0 3.90071,0 7.80141,0 11.70212,0 1.2778,0 4.20054,-0.5593 5.31915,0 0.44855,0.22428 0.61528,0.83956 1.06383,1.06383 1.05917,0.52959 6.89638,-0.55043 7.44681,0 0.25075,0.25075 -0.25075,0.81309 0,1.06383 0.41269,0.41269 5.97029,-0.41269 6.38298,0 0.25075,0.25075 -0.25075,0.81309 0,1.06383 0.32941,0.32941 4.98974,-0.32941 5.31915,0 0.25075,0.25075 -0.25075,0.81309 0,1.06383 0.35018,0.35019 1.77747,-0.35018 2.12766,0 0.25075,0.25075 -0.25075,0.81309 0,1.06383 0.25075,0.25075 0.81308,-0.25074 1.06383,0 0.25074,0.25075 -0.25075,0.81309 0,1.06383 0.25074,0.25075 0.70922,0 1.06383,0 0,0.35461 -0.25075,0.81308 0,1.06383 0.25074,0.25075 0.81308,-0.25075 1.06383,0 1.52654,1.52654 -0.93046,0.93046 -1.06383,1.06383 -0.25075,0.25075 0.25074,0.81308 0,1.06383 -0.25075,0.25075 -0.74666,-0.15858 -1.06383,0 -0.44855,0.22428 -0.61528,0.83956 -1.06383,1.06383 -0.85107,0.42553 -2.34043,-0.42553 -3.19149,0 -0.44855,0.22428 -0.61528,0.83956 -1.06383,1.06383 -0.62784,0.31392 -2.47646,0 -3.19149,0 -0.37111,0 -8.91898,0 -5.31915,0 8.15603,0 16.31206,0 24.46809,0 0.64919,0 3.84081,-0.41451 4.25531,0 0.25075,0.25075 -0.25074,0.81308 0,1.06383 0.25075,0.25075 0.81309,-0.25075 1.06383,0 0.25075,0.25075 -0.25074,0.81308 0,1.06383 0.35019,0.35018 1.77748,-0.35018 2.12766,0 0.25075,0.25075 -0.25074,0.81308 0,1.06383 0.5015,0.50149 1.62617,-0.50149 2.12766,0 0.1658,0.16579 0.1658,4.08953 0,4.25532 -0.25074,0.25075 -0.81308,-0.25075 -1.06383,0 -0.25074,0.25075 0.25075,0.81308 0,1.06383 -0.25074,0.25075 -0.74665,-0.15859 -1.06383,0 -4.4274,2.2137 1.13728,-0.0734 -1.06383,2.12766 -0.20911,0.20911 -4.97537,-0.72006 -3.19148,1.06383 0.49177,0.49177 2.54917,-0.32116 3.19148,0 0.44855,0.22427 0.61528,0.83955 1.06383,1.06383 0.63435,0.31717 1.62617,-0.5015 2.12766,0 0.25075,0.25075 -0.25074,0.81308 0,1.06383 0.70922,0.70922 3.5461,-0.70922 4.25532,0 0.25075,0.25075 -0.25074,0.81308 0,1.06383 0.25075,0.25075 0.81309,-0.25075 1.06383,0 0.16579,0.16579 0.16579,4.08953 0,4.25532 -0.25074,0.25074 -0.81308,-0.25075 -1.06383,0 -0.25074,0.25074 0.25075,0.81308 0,1.06383 -0.25074,0.25074 -1.06383,0.35461 -1.06383,0 0,-0.70922 1.41844,0 2.12766,0 1.41844,0 2.83688,0 4.25532,0 1.51603,0 3.85692,-0.48741 5.31915,0 0.75224,0.25074 1.37542,0.81308 2.12766,1.06383 1.97032,0.65677 11.40048,-0.68274 12.76596,0 0.44855,0.22427 0.61528,0.83955 1.06383,1.06383 1.34483,0.67241 11.42112,-0.67242 12.76596,0 0.44855,0.22427 0.61527,0.83955 1.06382,1.06383 1.54022,0.7701 9.82798,-0.81033 10.6383,0 0.25075,0.25074 -0.25074,0.81308 0,1.06383 0.5015,0.50149 1.41844,0 2.12766,0 4.60993,0 9.21986,0 13.82979,0 12.05674,0 24.11347,0 36.17021,0 0.60695,0 6.32826,0.0547 6.38298,0 0.25075,-0.25075 -0.25075,-0.81309 0,-1.06383 0.53192,-0.53192 2.65958,0.53191 3.19149,0 0.50149,-0.5015 -0.50149,-1.62617 0,-2.12766 0.25075,-0.25075 0.70922,0 1.06383,0 0.35461,0 0.81308,-0.25075 1.06383,0 0.25075,0.25074 -0.25075,0.81308 0,1.06383 0.25075,0.25074 0.81308,-0.25075 1.06383,0 0.25075,0.25074 0,0.70922 0,1.06383 0,0.50159 0.0482,5.27093 0,5.31915 -0.50149,0.50149 -1.62617,-0.5015 -2.12766,0 -0.25075,0.25074 0.25075,0.81308 0,1.06383 -0.53191,0.53191 -2.65957,-0.53192 -3.19149,0 -0.25075,0.25074 0.25075,0.81308 0,1.06382 -0.50149,0.5015 -1.62616,-0.50149 -2.12766,0 -0.25075,0.25075 0.25075,0.81309 0,1.06383 -0.53191,0.53192 -2.65957,-0.53191 -3.19149,0 -0.25075,0.25075 0.25075,0.81309 0,1.06383 -0.0865,0.0865 -8.65467,0 -9.57447,0 -2.83688,0 -5.67376,0 -8.51063,0 -2.83688,0 0.35461,-0.35461 -1.06383,1.06383 -0.25075,0.25075 -1.41844,0 -1.06383,0 6.02836,0 12.05673,0 18.0851,0 1.37491,0 6.47158,-0.48761 7.44681,0 0.44855,0.22428 0.61528,0.83956 1.06383,1.06383 0.64231,0.32116 2.69972,-0.49177 3.19149,0 0.25075,0.25075 -0.25075,0.81309 0,1.06383 0.25075,0.25075 0.81308,-0.25074 1.06383,0 0.25075,0.25075 0,0.70922 0,1.06383 0,1.00855 0.44175,3.37183 0,4.25532 -0.44855,0.8971 -1.67911,1.23056 -2.12766,2.12766 -0.31717,0.63435 0.50149,1.62617 0,2.12766 -0.35597,0.35598 -1.77169,-0.35597 -2.12766,0 -0.25075,0.25075 0.25075,0.81308 0,1.06383 -0.25075,0.25075 -0.81308,-0.25075 -1.06383,0 -0.25075,0.25075 0.25075,0.81308 0,1.06383 -0.25075,0.25075 -0.81308,-0.25075 -1.06383,0 -0.25075,0.25075 0.25075,0.81308 0,1.06383 -0.53191,0.53192 -2.65957,-0.53191 -3.19149,0 -0.25075,0.25075 0.25075,0.81308 0,1.06383 -0.25075,0.25075 -0.74666,-0.15859 -1.06383,0 -0.44855,0.22428 -0.61528,0.83956 -1.06383,1.06383 -0.64231,0.32116 -2.69972,-0.49177 -3.19149,0 -0.25074,0.25075 0.25075,0.81308 0,1.06383 -0.53191,0.53192 -2.65957,-0.53191 -3.19149,0 -0.25074,0.25075 0.25075,0.81308 0,1.06383 -0.50149,0.50149 -1.41844,0 -2.12766,0 -4.96454,0 -9.92907,0 -14.89361,0 -1.23651,0 -12.63765,-0.12831 -12.76596,0 -0.10638,0.10638 -0.10638,3.08511 0,3.19149 0.25075,0.25075 0.74666,-0.15859 1.06383,0 0.44855,0.22427 0.61528,0.83955 1.06383,1.06383 0.31717,0.15859 0.81308,-0.25075 1.06383,0 0.25075,0.25075 -0.25075,0.81308 0,1.06383 0.25075,0.25075 0.81308,-0.25075 1.06383,0 0.25075,0.25075 -0.25075,0.81308 0,1.06383 0.25075,0.25075 0.81308,-0.25075 1.06383,0 0.25075,0.25075 0,0.70922 0,1.06383 0,0.35461 0.25075,0.81308 0,1.06383 -0.53192,0.53191 -2.65958,-0.53192 -3.19149,0 -0.25075,0.25075 0.25075,0.81308 0,1.06383 -0.5015,0.50149 -1.49332,-0.31717 -2.12766,0 -0.44855,0.22427 -0.61528,0.83955 -1.06383,1.06383 -0.88573,0.44286 -3.58052,-0.6748 -4.25532,0 -0.25075,0.25075 0.25075,0.81308 0,1.06383 -0.50149,0.50149 -1.41844,0 -2.12766,0 -5.31915,0 -10.6383,0 -15.95745,0 -0.60695,0 -6.32825,0.0547 -6.38297,0 -0.25075,-0.25075 0.25074,-0.81308 0,-1.06383 -0.70922,-0.70922 -3.5461,0.70922 -4.25532,0 -1.41844,-1.41844 1.77305,-1.06383 -1.06383,-1.06383 -0.71101,0 -7.38345,0.0634 -7.44681,0 -0.25075,-0.25075 0.25074,-0.81308 0,-1.06383 -0.70922,-0.70922 -3.5461,0.70922 -4.25532,0 -0.25075,-0.25075 0.25075,-0.81308 0,-1.06383 -0.5015,-0.5015 -1.62617,0.50149 -2.12766,0 -0.25075,-0.25075 0.25075,-0.81308 0,-1.06383 -0.35018,-0.35018 -1.77748,0.35018 -2.12766,0 -0.25075,-0.25075 0.25075,-0.81308 0,-1.06383 -0.32941,-0.32941 -4.98974,0.32941 -5.31915,0 -0.25075,-0.25075 0.25075,-0.81308 0,-1.06383 -0.50149,-0.50149 -1.62616,0.50149 -2.12766,0 -0.25075,-0.25075 0.25075,-0.81308 0,-1.06383 -0.34984,-0.34984 -1.77782,0.34984 -2.12766,0 -0.25075,-0.25075 0.25075,-0.81308 0,-1.06383 -0.35018,-0.35018 -1.77747,0.35018 -2.12766,0 -1.42539,-1.42539 2.94813,-1.30719 3.19149,-1.06383 0.25075,0.25075 -0.25075,0.81308 0,1.06383 0.5015,0.50149 1.62617,-0.50149 2.12766,0 0.25075,0.25075 -0.25075,0.81308 0,1.06383 0.5015,0.50149 1.62617,-0.50149 2.12766,0 0.50149,0.50149 0,1.41844 0,2.12766 0,0.43805 0.2816,2.90989 0,3.19149 -0.35018,0.35018 -1.77748,-0.35019 -2.12766,0 -0.25075,0.25075 0.25075,0.81308 0,1.06383 -0.25075,0.25075 -0.81308,-0.25075 -1.06383,0 -0.25075,0.25075 0.25075,0.81308 0,1.06383 -0.49177,0.49177 -2.54918,-0.32116 -3.19149,0 -0.44855,0.22427 -0.61528,0.83955 -1.06383,1.06383 -1.05917,0.52958 -6.89637,-0.55044 -7.44681,0 -0.25074,0.25075 0.25075,0.81308 0,1.06383 -0.50149,0.50149 -1.41844,0 -2.12766,0 -1.56012,0 -9.80273,0.41778 -10.63829,0 -0.44855,-0.22428 -0.61528,-0.83956 -1.06383,-1.06383 -0.31718,-0.15859 -0.81309,0.25075 -1.06383,0 -0.25075,-0.25075 0.25074,-0.81308 0,-1.06383 -0.53192,-0.53192 -2.65958,0.53191 -3.19149,0 -0.25075,-0.25075 0.25074,-0.81308 0,-1.06383 -0.53192,-0.53192 -2.65958,0.53191 -3.19149,0 -0.25075,-0.25075 0.25074,-0.81308 0,-1.06383 -0.25075,-0.25075 -0.81309,0.25075 -1.06383,0 -0.25075,-0.25075 0.25074,-0.81308 0,-1.06383 -0.35019,-0.35018 -1.77748,0.35018 -2.12766,0 -0.25075,-0.25075 0.25075,-0.81308 0,-1.06383 -0.25075,-0.25075 -0.74666,0.15859 -1.06383,0 -0.44855,-0.22428 -0.61528,-0.83956 -1.06383,-1.06383 -0.64231,-0.32116 -2.69972,0.49177 -3.19149,0 -0.25075,-0.25075 0.25075,-0.81308 0,-1.06383 -0.35018,-0.35018 -1.77748,0.35018 -2.12766,0 -0.25075,-0.25075 0.25075,-0.81308 0,-1.06383 -0.35018,-0.35018 -1.77748,0.35018 -2.12766,0 -0.25075,-0.25075 0.25075,-0.81308 0,-1.06383 -0.25075,-0.25075 -0.74666,0.15859 -1.06383,0 -0.44855,-0.22428 -0.61528,-0.83955 -1.06383,-1.06383 -0.88573,-0.44287 -3.58052,0.6748 -4.25532,0 -0.25075,-0.25075 0.25075,-0.81308 0,-1.06383 -0.50149,-0.50149 -1.62616,0.50149 -2.12766,0 -0.25075,-0.25075 0.25075,-0.81308 0,-1.06383 -0.50149,-0.50149 -1.62616,0.50149 -2.12766,0 -0.25074,-0.25075 0.25075,-0.81308 0,-1.06383 -0.50149,-0.50149 -1.62616,0.5015 -2.12766,0 -0.25074,-0.25075 0.25075,-0.81308 0,-1.06383 -0.70922,-0.70922 -3.5461,0.70922 -4.25532,0 -0.10638,-0.10638 -0.10638,-3.08511 0,-3.19149 0.35019,-0.35018 1.77748,0.35019 2.12766,0 0.25075,-0.25075 -0.25074,-0.81308 0,-1.06383 0.25075,-0.25075 0.81309,0.25075 1.06383,0 0.25075,-0.25075 -0.25074,-0.81308 0,-1.06383 2.2011,-2.2011 -0.086,3.36358 2.12766,-1.06383 0.15859,-0.31717 -0.25074,-0.81308 0,-1.06383 0.5015,-0.50149 1.62617,0.5015 2.12766,0 0.25075,-0.25074 -0.25074,-0.81308 0,-1.06383 0.25075,-0.25074 0.81308,0.25075 1.06383,0 0.10638,-0.10638 0.10638,-3.0851 0,-3.19149 -0.50149,-0.50149 -1.62616,0.5015 -2.12766,0 -0.25074,-0.25074 0.25075,-0.81308 0,-1.06383 -0.50149,-0.50149 -1.62616,0.5015 -2.12766,0 -0.25074,-0.25074 0.25075,-0.81308 0,-1.06383 -0.49177,-0.49177 -2.54917,0.32116 -3.19149,0 -0.44855,-0.22427 -0.61528,-0.83955 -1.06383,-1.06383 -0.31717,-0.15858 -0.81308,0.25075 -1.06383,0 -0.25074,-0.25074 0.31718,-0.90524 0,-1.06383 -0.86537,-0.43268 -6.99813,0.44868 -7.4468,0 -0.25075,-0.25074 0.25074,-0.81308 0,-1.06383 -0.41269,-0.41269 -5.97029,0.41269 -6.38298,0 -0.25075,-0.25074 0.25074,-0.81308 0,-1.06383 -0.35019,-0.35018 -1.77748,0.35019 -2.12766,0 0,-2.83687 0.35461,0.35461 -1.06383,-1.06383 -0.41269,-0.41268 0.41269,-5.97028 0,-6.38297 -0.35019,-0.35019 -1.77748,0.35018 -2.12766,0 -0.25075,-0.25075 0.25074,-0.81309 0,-1.06383 -0.5015,-0.5015 -1.49332,0.31717 -2.12766,0 -0.44855,-0.22428 -0.61528,-0.83956 -1.06383,-1.06383 -0.63435,-0.31718 -1.62617,0.50149 -2.12766,0 -0.25075,-0.25075 0.25075,-0.81309 0,-1.06383 -0.5015,-0.5015 -1.41844,0 -2.12766,0 -4.60993,0 -9.21986,0 -13.82979,0 -0.50159,0 -5.27093,0.0482 -5.31915,0 -0.25074,-0.25075 0.25075,-0.81309 0,-1.06383 -0.49943,-0.49944 -6.94737,0.49943 -7.44681,0 -0.25074,-0.25075 0.25075,-0.81309 0,-1.06383 -0.4145,-0.41451 -3.60612,0 -4.25531,0 -1.02501,0 -10.53827,0.10003 -10.6383,0 -0.10639,-0.10639 -0.10639,-3.08511 0,-3.19149 0.25074,-0.25075 0.81308,0.25074 1.06383,0 0.50149,-0.5015 -0.5015,-1.62617 0,-2.12766 0.35018,-0.35019 1.77747,0.35018 2.12766,0 1.41844,-1.41844 -1.77305,-1.06383 1.06383,-1.06383 0.70922,0 1.62616,0.50149 2.12766,0 0.25074,-0.25075 -0.25075,-0.81308 0,-1.06383 0.53191,-0.53192 2.65957,0.53191 3.19149,0 0.25074,-0.25075 -0.25075,-0.81308 0,-1.06383 0.42937,-0.42938 6.37442,0.35746 7.4468,0 1.81164,-0.60388 3.5461,-1.41844 5.31915,-2.12766 z"
       id="path3822"
       inkscape:connector-curvature="0"
       transform="translate(0,392.3622)" />
    <path
       style="fill:#8a1919;fill-opacity:1;stroke:#000000;stroke-width:1px;stroke-linecap:butt;stroke-linejoin:miter;stroke-opacity:1"
       d="m 192.55319,963.00051 -5.31915,-154.25532 16.85409,-42.21232 19.80941,-20.21738 22.13836,29.3215 14.6024,53.32096 -6.38298,115.95745 z"
       id="path3817"
       inkscape:connector-curvature="0"
       sodipodi:nodetypes="cccccccc" />
    <path
       style="fill:#5c4c4c;fill-opacity:1;stroke:#000000;stroke-width:1px;stroke-linecap:butt;stroke-linejoin:miter;stroke-opacity:1"
       d="M 184.04255,814.06433 204.25532,767.25582 55.319148,785.34093 32.978723,830.02178 z"
       id="path3819"
       inkscape:connector-curvature="0" />
    <path
       style="fill:#7a6565;fill-opacity:1;stroke:#000000;stroke-width:1px;stroke-linecap:butt;stroke-linejoin:miter;stroke-opacity:1"
       d="M 203.19149,767.25582 224.46808,744.9154 75.531914,765.12816 54.255318,786.40476 z"
       id="path3821"
       inkscape:connector-curvature="0"
       sodipodi:nodetypes="ccccc" />
    <path
       style="fill:#272020;fill-opacity:1;stroke:#000000;stroke-width:1px;stroke-linecap:butt;stroke-linejoin:miter;stroke-opacity:1"
       d="m 209.57447,957.68136 -3.7631,-66.9949 5.89076,-11.19659 29.25532,3.19149 5.67111,11.14913 -0.88388,52.14874 z"
       id="path3823"
       inkscape:connector-curvature="0"
       sodipodi:nodetypes="ccccccc" />
    <path
       style="fill:#4c0e0e;fill-opacity:1;stroke:#7b7b7b;stroke-width:2;stroke-linecap:butt;stroke-linejoin:miter;stroke-miterlimit:4;stroke-opacity:1;stroke-dasharray:none"
       d="m 65.957446,892.78774 2.12766,28.7234 26.595744,-5.31915 -4.255319,-27.65957 z"
       id="path3825"
       inkscape:connector-curvature="0" />
    <path
       style="fill:#4c0e0e;fill-opacity:1;stroke:#858585;stroke-width:2;stroke-linecap:butt;stroke-linejoin:miter;stroke-miterlimit:4;stroke-opacity:1;stroke-dasharray:none"
       d="m 128.7234,891.72391 2.12766,29.78723 24.46809,0 1.06383,-29.78723 z"
       id="path3827"
       inkscape:connector-curvature="0" />
    <path
       style="fill:#4c0e0e;fill-opacity:1;stroke:#858585;stroke-width:2;stroke-linecap:butt;stroke-linejoin:miter;stroke-miterlimit:4;stroke-opacity:1;stroke-dasharray:none"
       d="m 216.95674,803.86669 1.43995,31.97942 11.39054,2.68631 1.06383,-30.85106 z"
       id="path3827-1"
       inkscape:connector-curvature="0"
       sodipodi:nodetypes="ccccc" />
    <path
       style="fill:#84775d;stroke:none;stroke-width:1px;stroke-linecap:butt;stroke-linejoin:miter;stroke-opacity:1;fill-opacity:1"
       d="m 557.44681,565.31915 c 0,4.25532 2.12766,43.61702 2.12766,43.61702 l 5.31915,-1.06383 1.06383,-42.55319 z"
       id="path3847"
       inkscape:connector-curvature="0"
       transform="translate(0,392.3622)" />
    <path
       style="fill:#84775d;stroke:none;stroke-width:1px;stroke-linecap:butt;stroke-linejoin:miter;stroke-opacity:1;fill-opacity:1"
       d="m 519.14894,607.87234 4.25532,-40.42553 -8.51064,-1.06383 -1.06383,42.55319 z"
       id="path3849"
       inkscape:connector-curvature="0"
       transform="translate(0,392.3622)" />
    <path
       style="fill:#84775d;stroke:none;stroke-width:1px;stroke-linecap:butt;stroke-linejoin:miter;stroke-opacity:1;fill-opacity:1"
       d="m 474.46809,606.80851 6.38297,2.12766 -1.06383,-42.55319 -8.51063,0 z"
       id="path3851"
       inkscape:connector-curvature="0"
       transform="translate(0,392.3622)" />
    <path
       style="fill:#84775d;stroke:none;stroke-width:1px;stroke-linecap:butt;stroke-linejoin:miter;stroke-opacity:1;fill-opacity:1"
       d="m 431.91489,605.74468 7.44681,-1.06383 0,-37.23404 -8.51064,0 z"
       id="path3853"
       inkscape:connector-curvature="0"
       transform="translate(0,392.3622)" />
    <path
       style="fill:#84775d;stroke:none;stroke-width:1px;stroke-linecap:butt;stroke-linejoin:miter;stroke-opacity:1;fill-opacity:1"
       d="m 395.74468,604.68085 -3.19149,-34.04255 6.38298,-3.19149 5.31915,38.29787 z"
       id="path3855"
       inkscape:connector-curvature="0"
       transform="translate(0,392.3622)" />
    <path
       style="fill:#84775d;stroke:none;stroke-width:1px;stroke-linecap:butt;stroke-linejoin:miter;stroke-opacity:1;fill-opacity:1"
       d="m 353.19149,999.17071 6.38298,0 4.25532,-43.61702 -11.70213,6.38298 z"
       id="path3857"
       inkscape:connector-curvature="0" />
    <path
       style="fill:#675d49;stroke:none;stroke-width:1px;stroke-linecap:butt;stroke-linejoin:miter;stroke-opacity:1;fill-opacity:1"
       d="m 308.51064,595.10638 0,8.51064 51.06383,-24.46808 -5.31915,-6.38298 z"
       id="path3859"
       inkscape:connector-curvature="0"
       transform="translate(0,392.3622)" />
    <path
       style="fill:#675d49;stroke:none;stroke-width:1px;stroke-linecap:butt;stroke-linejoin:miter;stroke-opacity:1;fill-opacity:1"
       d="m 358.51064,575.95745 -1.06383,5.31915 39.3617,0 0,-7.44681 z"
       id="path3861"
       inkscape:connector-curvature="0"
       transform="translate(0,392.3622)" />
    <path
       style="fill:#675d49;stroke:none;stroke-width:1px;stroke-linecap:butt;stroke-linejoin:miter;stroke-opacity:1;fill-opacity:1"
       d="m 357.44681,595.10638 0,6.38298 41.48936,-5.31915 -2.12766,-7.44681 z"
       id="path3863"
       inkscape:connector-curvature="0"
       transform="translate(0,392.3622)" />
    <path
       style="fill:#675d49;stroke:none;stroke-width:1px;stroke-linecap:butt;stroke-linejoin:miter;stroke-opacity:1;fill-opacity:1"
       d="m 398.93617,599.3617 -1.06383,-6.38298 37.23404,0 -1.06383,7.44681 z"
       id="path3865"
       inkscape:connector-curvature="0"
       transform="translate(0,392.3622)" />
    <path
       style="fill:#675d49;stroke:none;stroke-width:1px;stroke-linecap:butt;stroke-linejoin:miter;stroke-opacity:1;fill-opacity:1"
       d="m 435.10638,577.02128 0,-6.38298 -36.17021,3.19149 1.06383,8.51064 z"
       id="path3867"
       inkscape:connector-curvature="0"
       transform="translate(0,392.3622)" />
    <path
       style="fill:#675d49;stroke:none;stroke-width:1px;stroke-linecap:butt;stroke-linejoin:miter;stroke-opacity:1;fill-opacity:1"
       d="m 435.10638,580.21277 -1.06383,-5.31915 42.55319,-3.19149 0,7.44681 z"
       id="path3869"
       inkscape:connector-curvature="0"
       transform="translate(0,392.3622)" />
    <path
       style="fill:#675d49;stroke:none;stroke-width:1px;stroke-linecap:butt;stroke-linejoin:miter;stroke-opacity:1;fill-opacity:1"
       d="m 477.65957,601.48936 -1.06383,-8.51064 -40.42553,-3.19149 -2.12766,6.38298 z"
       id="path3871"
       inkscape:connector-curvature="0"
       transform="translate(0,392.3622)" />
    <path
       style="fill:#675d49;stroke:none;stroke-width:1px;stroke-linecap:butt;stroke-linejoin:miter;stroke-opacity:1;fill-opacity:1"
       d="m 477.65957,603.61702 0,-8.51064 39.36171,-4.25532 -1.06383,8.51064 z"
       id="path3873"
       inkscape:connector-curvature="0"
       transform="translate(0,392.3622)" />
    <path
       style="fill:#675d49;stroke:none;stroke-width:1px;stroke-linecap:butt;stroke-linejoin:miter;stroke-opacity:1;fill-opacity:1"
       d="m 517.02128,600.42553 1.06383,-6.38298 43.61702,-4.25532 0,8.51064 z"
       id="path3875"
       inkscape:connector-curvature="0"
       transform="translate(0,392.3622)" />
    <path
       style="fill:#675d49;stroke:none;stroke-width:1px;stroke-linecap:butt;stroke-linejoin:miter;stroke-opacity:1;fill-opacity:1"
       d="m 476.59574,581.2766 1.06383,-7.44681 40.42554,3.19149 -2.12766,5.31915 z"
       id="path3877"
       inkscape:connector-curvature="0"
       transform="translate(0,392.3622)" />
    <path
       style="fill:#675d49;stroke:none;stroke-width:1px;stroke-linecap:butt;stroke-linejoin:miter;stroke-opacity:1;fill-opacity:1"
       d="m 521.2766,580.21277 -2.12766,-8.51064 42.55319,2.12766 -1.06383,6.38298 z"
       id="path3879"
       inkscape:connector-curvature="0"
       transform="translate(0,392.3622)" />
    <path
       style="fill:#675d49;stroke:none;stroke-width:1px;stroke-linecap:butt;stroke-linejoin:miter;stroke-opacity:1;fill-opacity:1"
       d="m 562.76596,598.29787 1.06383,-7.44681 48.93617,4.25532 3.19149,7.44681 z"
       id="path3881"
       inkscape:connector-curvature="0"
       transform="translate(0,392.3622)" />
    <path
       style="fill:#675d49;stroke:none;stroke-width:1px;stroke-linecap:butt;stroke-linejoin:miter;stroke-opacity:1;fill-opacity:1"
       d="m 563.82979,578.08511 -2.12766,-7.44681 56.38298,0 -2.12766,10.6383 z"
       id="path3883"
       inkscape:connector-curvature="0"
       transform="translate(0,392.3622)" />
    <path
       sodipodi:type="arc"
       style="fill:#797979;fill-opacity:1;stroke:none"
       id="path3885"
       sodipodi:cx="336.17023"
       sodipodi:cy="505.74469"
       sodipodi:rx="7.4468083"
       sodipodi:ry="5.319149"
       d="m 343.61704,505.74469 c 0,2.93768 -3.33405,5.31915 -7.44681,5.31915 -4.11276,0 -7.44681,-2.38147 -7.44681,-5.31915 0,-2.93768 3.33405,-5.31915 7.44681,-5.31915 4.11276,0 7.44681,2.38147 7.44681,5.31915 z"
       transform="translate(0,392.3622)" />
    <path
       sodipodi:type="arc"
       style="fill:#797979;fill-opacity:1;stroke:none"
       id="path3887"
       sodipodi:cx="343.61703"
       sodipodi:cy="499.62766"
       sodipodi:rx="3.7234042"
       sodipodi:ry="3.1914895"
       d="m 347.34044,499.62766 c 0,1.76261 -1.66703,3.19148 -3.72341,3.19148 -2.05637,0 -3.7234,-1.42887 -3.7234,-3.19148 0,-1.76262 1.66703,-3.19149 3.7234,-3.19149 2.05638,0 3.72341,1.42887 3.72341,3.19149 z"
       transform="translate(-0.26595745,394.48986)" />
    <path
       transform="translate(73.271265,368.82496)"
       sodipodi:type="arc"
       style="fill:#797979;fill-opacity:1;stroke:none"
       id="path3885-7"
       sodipodi:cx="336.17023"
       sodipodi:cy="505.74469"
       sodipodi:rx="7.4468083"
       sodipodi:ry="5.319149"
       d="m 343.61704,505.74469 c 0,2.93768 -3.33405,5.31915 -7.44681,5.31915 -4.11276,0 -7.44681,-2.38147 -7.44681,-5.31915 0,-2.93768 3.33405,-5.31915 7.44681,-5.31915 4.11276,0 7.44681,2.38147 7.44681,5.31915 z" />
    <path
       sodipodi:type="arc"
       style="fill:#797979;fill-opacity:1;stroke:none"
       id="path3887-4"
       sodipodi:cx="343.61703"
       sodipodi:cy="499.62766"
       sodipodi:rx="3.7234042"
       sodipodi:ry="3.1914895"
       d="m 347.34044,499.62766 c 0,1.76261 -1.66703,3.19148 -3.72341,3.19148 -2.05637,0 -3.7234,-1.42887 -3.7234,-3.19148 0,-1.76262 1.66703,-3.19149 3.7234,-3.19149 2.05638,0 3.72341,1.42887 3.72341,3.19149 z"
       transform="translate(73.005305,370.95262)" />
    <path
       transform="matrix(-1,0,0,1,712.89895,355.52709)"
       sodipodi:type="arc"
       style="fill:#000000;fill-opacity:1;stroke:none"
       id="path3885-7-0"
       sodipodi:cx="336.17023"
       sodipodi:cy="505.74469"
       sodipodi:rx="7.4468083"
       sodipodi:ry="5.319149"
       d="m 343.61704,505.74469 c 0,2.93768 -3.33405,5.31915 -7.44681,5.31915 -4.11276,0 -7.44681,-2.38147 -7.44681,-5.31915 0,-2.93768 3.33405,-5.31915 7.44681,-5.31915 4.11276,0 7.44681,2.38147 7.44681,5.31915 z" />
    <path
       sodipodi:type="arc"
       style="fill:#000000;fill-opacity:1;stroke:none"
       id="path3887-4-9"
       sodipodi:cx="343.61703"
       sodipodi:cy="499.62766"
       sodipodi:rx="3.7234042"
       sodipodi:ry="3.1914895"
       d="m 347.34044,499.62766 c 0,1.76261 -1.66703,3.19148 -3.72341,3.19148 -2.05637,0 -3.7234,-1.42887 -3.7234,-3.19148 0,-1.76262 1.66703,-3.19149 3.7234,-3.19149 2.05638,0 3.72341,1.42887 3.72341,3.19149 z"
       transform="matrix(-1,0,0,1,713.16491,357.65475)" />
    <path
       style="fill:#bdbdbd;stroke:none;stroke-width:1px;stroke-linecap:butt;stroke-linejoin:miter;stroke-opacity:1;fill-opacity:1"
       d="m 61.702128,90.851064 c -1.41844,-0.70922 -4.964539,-0.70922 -4.255319,-2.12766 0.709219,-1.418439 5.376694,3.249035 4.255319,2.12766 -1.462095,-1.462094 -3.46973,-2.26678 -5.319149,-3.19149 -0.317173,-0.158586 -0.813083,0.250748 -1.06383,0 -0.250747,-0.250747 0.250747,-0.813082 0,-1.063829 -0.501494,-0.501494 -1.626165,0.501494 -2.12766,0 -0.250747,-0.250747 0.250747,-0.813083 0,-1.06383 -0.250747,-0.250747 -0.746657,0.158586 -1.063829,0 -0.44855,-0.224275 -0.61528,-0.839555 -1.06383,-1.06383 -0.317173,-0.158586 -0.813083,0.250747 -1.06383,0 -0.250747,-0.250747 0.250747,-0.813083 0,-1.06383 -0.250747,-0.250747 -0.813083,0.250747 -1.06383,0 -0.250747,-0.250747 0.250747,-0.813082 0,-1.063829 -0.501494,-0.501495 -1.626165,0.501494 -2.127659,0 -0.250747,-0.250748 0.250747,-0.813083 0,-1.06383 -0.250747,-0.250747 -0.813083,0.250747 -1.06383,0 -0.250747,-0.250747 0.250747,-0.813083 0,-1.06383 -0.250747,-0.250747 -0.813083,0.250747 -1.06383,0 -0.106383,-0.106383 -0.106383,-3.085106 0,-3.191489 0.250747,-0.250747 0.813083,0.250747 1.06383,0 0.250747,-0.250747 -0.250747,-0.813083 0,-1.06383 0.501494,-0.501494 1.626165,0.501494 2.127659,0 0.250748,-0.250747 -0.250747,-0.813083 0,-1.06383 0.414509,-0.414509 3.606126,0 4.25532,0 0.649194,0 3.84081,0.414509 4.255319,0 0.250747,-0.250747 -0.250747,-0.813083 0,-1.06383 0.329412,-0.329412 4.989737,0.329412 5.319149,0 0.250747,-0.250747 -0.250747,-0.813082 0,-1.06383 0.06336,-0.06336 6.735802,0 7.446808,0 3.546099,0 7.092199,0 10.638298,0 0.35461,0 0.813083,-0.250747 1.06383,0 0.250747,0.250748 -0.250747,0.813083 0,1.06383 0.250747,0.250747 1.06383,0.35461 1.06383,0 0,-2.213702 -1.491882,-0.428052 -2.12766,-1.06383 -0.250747,-0.250747 0.250747,-0.813082 0,-1.063829 -2.836879,0 0.35461,0.35461 -1.06383,-1.06383 -0.250747,-0.250747 -0.813082,0.250747 -1.06383,0 -0.49177,-0.491771 0.321157,-2.549177 0,-3.191489 -2.213702,-4.427405 0.07344,1.137271 -2.127659,-1.06383 -0.531915,-0.531915 0.531915,-2.659575 0,-3.19149 -0.250747,-0.250747 -0.813083,0.250747 -1.06383,0 C 73.93617,62.659574 75,60.531915 74.468085,60 c -0.250747,-0.250747 -1.06383,0.35461 -1.06383,0 0,-0.70922 1.41844,0 2.12766,0 2.836879,0 -0.35461,0.35461 1.06383,-1.06383 0.12831,-0.12831 11.529452,0 12.765957,0 12.056738,0 24.113478,0 36.170208,0 4.25532,0 8.51064,0 12.76596,0 0.70922,0 1.62617,-0.501494 2.12766,0 0.25075,0.250747 -0.25075,0.813083 0,1.06383 0.35019,0.350184 1.77748,-0.350184 2.12766,0 0.25075,0.250747 -0.25075,0.813083 0,1.06383 1.2375,1.237495 1.06383,-1.753433 1.06383,2.127659 0,0.70922 0.70922,2.12766 0,2.12766 -0.70922,0 0,-1.41844 0,-2.12766 0,-0.438047 -0.2816,-2.909887 0,-3.191489 0.25075,-0.250747 0.81308,0.250747 1.06383,0 0.25075,-0.250747 -0.25075,-0.813083 0,-1.06383 0.25075,-0.250747 0.81308,0.250747 1.06383,0 0.25075,-0.250747 -0.25075,-0.813082 0,-1.06383 0.35018,-0.350183 1.77748,0.350184 2.12766,0 0.25075,-0.250747 -0.25075,-0.813082 0,-1.063829 0.25075,-0.250747 0.81308,0.250747 1.06383,0 0.25075,-0.250747 -0.25075,-0.813083 0,-1.06383 0.25075,-0.250747 0.81308,0.250747 1.06383,0 0.25075,-0.250747 -0.25075,-0.813083 0,-1.06383 0.25075,-0.250747 0.81308,0.250747 1.06383,0 0.25075,-0.250747 -0.25075,-0.813083 0,-1.06383 0.53191,-0.531915 2.65957,0.531915 3.19149,0 0.25075,-0.250747 -0.25075,-0.813082 0,-1.06383 0.25075,-0.250747 0.81308,0.250748 1.06383,0 0.25075,-0.250747 -0.25075,-0.813082 0,-1.063829 0.34984,-0.349839 1.77782,0.349839 2.12766,0 0.25075,-0.250747 -0.25075,-0.813083 0,-1.06383 0.35018,-0.350184 1.77747,0.350184 2.12766,0 0.25075,-0.250747 -0.25075,-0.813083 0,-1.06383 0.2816,-0.281602 2.75344,0 3.19149,0 2.83688,0 -0.35461,0.35461 1.06383,-1.06383 0.49177,-0.49177 2.54917,0.321157 3.19149,0 0.44855,-0.224275 0.61528,-0.839554 1.06383,-1.063829 0.88349,-0.441746 3.24677,0 4.25532,0 0.35461,0 0.81308,-0.250748 1.06383,0 0.25074,0.250747 -0.25075,0.813082 0,1.063829 0.53191,0.531915 2.65957,-0.531915 3.19148,0 0.5015,0.501495 -0.50149,1.626166 0,2.12766 0.1658,0.165792 4.08953,0.165792 4.25532,0 0.25075,-0.250747 -0.25074,-0.813083 0,-1.06383 0.25075,-0.250747 0.72742,0.112138 1.06383,0 0.75224,-0.250747 1.37542,-0.813083 2.12766,-1.06383 0.33642,-0.112137 0.81309,0.250747 1.06383,0 0.25075,-0.250747 -0.25074,-0.813082 0,-1.063829 0.25075,-0.250748 0.74666,0.158586 1.06383,0 0.8971,-0.44855 1.23056,-1.67911 2.12766,-2.12766 0.85107,-0.425532 2.34043,0.425532 3.19149,0 0.44855,-0.224275 0.61528,-0.839555 1.06383,-1.06383 0.31717,-0.158586 0.81308,0.250747 1.06383,0 0.25075,-0.250747 -0.25075,-0.813083 0,-1.06383 0.25075,-0.250747 0.81308,0.250747 1.06383,0 0.25075,-0.250747 -0.25075,-0.813082 0,-1.063829 0.35018,-0.350184 1.77748,0.350183 2.12766,0 0.25075,-0.250747 -0.25075,-0.813083 0,-1.06383 0.70922,-0.70922 3.5461,0.70922 4.25532,0 0.25075,-0.250747 -0.25075,-0.813083 0,-1.06383 0.41269,-0.41269 5.97029,0.41269 6.38298,0 0.25075,-0.250747 -0.25075,-0.813083 0,-1.06383 0.41451,-0.414509 3.60612,0 4.25532,0 6.73759,0 13.47517,0 20.21276,0 0.43805,0 2.90989,-0.281602 3.19149,0 0.25075,0.250747 -0.25074,0.813083 0,1.06383 0.66953,0.669526 8.90495,-0.669525 9.57447,0 0.25075,0.250747 -0.25075,0.813083 0,1.06383 0.32941,0.329412 4.98974,-0.329412 5.31915,0 0.25075,0.250747 -0.25075,0.813083 0,1.06383 0.6748,0.6748 3.36959,-0.442866 4.25532,0 0.44855,0.224275 0.61528,0.839554 1.06383,1.063829 0.88573,0.442866 3.58052,-0.6748 4.25532,0 0.25075,0.250747 -0.25075,0.813083 0,1.06383 0.58564,0.585647 7.92499,-0.585647 8.51064,0 1.23749,1.237495 -1.75344,1.06383 2.12766,1.06383 3.88109,0 0.89016,-0.173665 2.12766,1.06383 0.49177,0.49177 2.54917,-0.321156 3.19148,0 0.44855,0.224275 0.61528,0.839555 1.06383,1.06383 0.63435,0.317172 1.62617,-0.501495 2.12766,0 0.25075,0.250747 -0.25074,0.813082 0,1.063829 0.25075,0.250747 1.06383,-0.35461 1.06383,0 0,2.213703 -1.49188,0.428052 -2.12766,1.06383 -0.25074,0.250747 0.25075,0.813083 0,1.06383 -0.50149,0.501494 -1.49331,-0.317173 -2.12766,0 -0.44855,0.224275 -0.61527,0.839555 -1.06382,1.06383 -0.31718,0.158586 -0.81309,-0.250747 -1.06383,0 -0.25075,0.250747 0.25074,0.813082 0,1.063829 -0.49944,0.499437 -6.94738,-0.499436 -7.44681,0 -1.41844,1.41844 1.77305,1.06383 -1.06383,1.06383 -3.8811,0 -0.89017,-0.173665 -2.12766,1.06383 -0.53192,0.531915 -2.65958,-0.531915 -3.19149,0 -0.25075,0.250747 0.25075,0.813083 0,1.06383 -0.25075,0.250747 -1.41844,0 -1.06383,0 0.37312,0 4.91216,-0.406992 5.31915,0 0.25074,0.250747 -0.25075,0.813083 0,1.06383 0.63877,0.638777 7.28945,-0.610593 8.51064,0 0.44855,0.224275 0.61528,0.839554 1.06383,1.063829 0.64231,0.321157 2.69971,-0.49177 3.19148,0 0.25075,0.250748 -0.25074,0.813083 0,1.06383 0.49178,0.491771 2.54918,-0.321156 3.19149,0 0.44855,0.224275 0.61528,0.839555 1.06383,1.06383 0.31718,0.158586 0.81309,-0.250747 1.06383,0 0.25075,0.250747 -0.25074,0.813083 0,1.06383 0.5015,0.501494 1.62617,-0.501494 2.12766,0 0.10639,0.106383 0.10639,3.085106 0,3.191489 -0.25074,0.250747 -0.81308,-0.250747 -1.06383,0 -0.25074,0.250747 0.25075,0.813083 0,1.06383 -0.50149,0.501494 -1.62616,-0.501494 -2.12766,0 -0.25074,0.250747 0.25075,0.813083 0,1.06383 -0.25074,0.250747 -0.74665,-0.158587 -1.06383,0 -0.44855,0.224275 -0.61528,0.839554 -1.06383,1.06383 -0.31717,0.158586 -0.81308,-0.250748 -1.06383,0 -0.25074,0.250747 0.25075,0.813082 0,1.063829 -0.53191,0.531915 -2.65957,-0.531915 -3.19148,0 -1.2375,1.237495 1.75343,1.06383 -2.12766,1.06383 -0.6492,0 -3.84081,-0.414509 -4.25532,0 -0.25075,0.250747 0.25074,0.813083 0,1.06383 -0.32942,0.329412 -4.98974,-0.329412 -5.31915,0 -0.25075,0.250747 0.25074,0.813083 0,1.06383 -0.11411,0.114102 -10.57149,0 -11.70213,0 -7.80142,0 -15.60284,0 -23.40426,0 -7.80141,0 -15.60283,0 -23.40425,0 -1.56013,0 -9.80274,-0.41778 -10.6383,0 -0.44855,0.224275 -0.61528,0.839554 -1.06383,1.063829 -0.85106,0.425532 -2.34042,-0.425531 -3.19149,0 -2.19355,1.096778 0.0743,1.06383 -3.19149,1.06383 -2.83688,0 0.35461,-0.35461 -1.06383,1.06383 -0.25074,0.250747 -0.81308,-0.250747 -1.06383,0 -0.25074,0.250747 0.15859,0.746657 0,1.06383 -0.22427,0.44855 -0.83955,0.61528 -1.06383,1.06383 -0.15858,0.317172 0.25075,0.813082 0,1.063829 -0.25074,0.250747 -0.81308,-0.250747 -1.06383,0 -0.41451,0.414509 0,3.606126 0,4.25532 0,0.709219 -0.50149,1.626165 0,2.127659 0.25075,0.250747 0.81309,-0.250747 1.06383,0 0.25075,0.250747 -0.25074,0.813083 0,1.06383 0.53192,0.531915 2.65958,-0.531915 3.19149,0 0.25075,0.250747 -0.25074,0.813083 0,1.06383 0.53192,0.531915 2.65958,-0.531915 3.19149,0 0.25075,0.250747 -0.25074,0.813082 0,1.063829 0.53192,0.531915 2.65958,-0.531914 3.19149,0 0.25075,0.250748 0,0.70922 0,1.06383 0.35461,0 0.81308,-0.250747 1.06383,0 0.25075,0.250747 0,0.70922 0,1.06383 0,0.649194 0.41451,3.84081 0,4.255319 -0.35018,0.350184 -1.77747,-0.350184 -2.12766,0 -0.25075,0.250747 0.25075,0.813083 0,1.06383 -0.50149,0.501494 -1.49331,-0.317173 -2.12766,0 -0.44855,0.224275 -0.61528,0.839555 -1.06383,1.06383 -0.89638,0.44819 -5.92177,-0.461203 -6.38298,0 -0.25074,0.250747 0.25075,0.813082 0,1.06383 -0.2816,0.281602 -2.75344,0 -3.19149,0 -1.41844,0 -2.83688,0 -4.25531,0 -0.35461,0 -1.06383,0.354609 -1.06383,0 0,-0.35461 0.70922,0 1.06383,0 0.35461,0 0.74665,-0.158587 1.06382,0 0.44855,0.224275 0.61528,0.839554 1.06383,1.063829 0.63435,0.317173 1.41844,0 2.12766,0 3.8811,0 0.89017,-0.173665 2.12766,1.06383 0.25075,0.250747 0.74666,-0.158586 1.06383,0 0.44855,0.224275 0.61528,0.839558 1.06383,1.063828 0.63435,0.31717 1.62617,-0.501492 2.12766,0 0.25075,0.25075 -0.25074,0.81308 0,1.06383 0.25075,0.25075 0.74666,-0.15858 1.06383,0 0.44855,0.22428 0.61528,0.83956 1.06383,1.06383 0.64231,0.32116 2.69972,-0.49177 3.19149,0 0.25075,0.25075 -0.25075,0.81308 0,1.06383 0.5015,0.5015 1.62617,-0.50149 2.12766,0 0.25075,0.25075 0,0.70922 0,1.06383 0.35461,0 0.81308,-0.25075 1.06383,0 0.5015,0.5015 0,1.41844 0,2.12766 0,0.64919 0.41451,3.84081 0,4.25532 -0.25075,0.25075 -0.81308,-0.25075 -1.06383,0 -0.25075,0.25075 0.25075,0.81308 0,1.06383 -0.50149,0.50149 -1.62616,-0.50149 -2.12766,0 -0.25075,0.25075 0.25075,0.81308 0,1.06383 -0.25075,0.25075 -0.81308,-0.25075 -1.06383,0 -0.25074,0.25075 0.25075,0.81308 0,1.06383 -0.50149,0.50149 -1.49331,-0.31717 -2.12766,0 -0.44855,0.22427 -0.61528,0.83955 -1.06383,1.06383 -0.73482,0.36741 -4.94572,-0.37343 -5.31915,0 -0.25074,0.25075 0.25075,0.81308 0,1.06383 -0.12831,0.12831 -11.52945,0 -12.76595,0 -6.73759,0 -13.47518,0 -20.21277,0 -0.43805,0 -2.90989,0.2816 -3.19149,0 -0.25075,-0.25075 0.25075,-0.81308 0,-1.06383 -0.70922,-0.70922 -3.5461,0.70922 -4.25532,0 -0.25075,-0.25075 0.25075,-0.81308 0,-1.06383 -0.53191,-0.53192 -2.65957,0.53191 -3.19149,0 -0.25074,-0.25075 0.25075,-0.81308 0,-1.06383 -0.70922,-0.70922 -3.5461,0.70922 -4.25532,0 -0.25074,-0.25075 0.25075,-0.81308 0,-1.06383 -0.41451,-0.41451 -3.60612,0 -4.25532,0 -0.50159,0 -5.27093,0.0482 -5.31914,0 -0.25075,-0.25075 0.25074,-0.81308 0,-1.06383 -0.58565,-0.58565 -7.925,0.58565 -8.51064,0 -0.25075,-0.25075 0.25074,-0.81308 0,-1.06383 -0.25075,-0.25075 -0.70922,0 -1.06383,0 -0.5016,0 -5.27094,-0.0482 -5.31915,0 -0.25075,0.25075 0.25075,0.81308 0,1.06383 -0.25075,0.25075 -0.81308,-0.25075 -1.06383,0 -0.35597,0.35597 0.35597,1.77169 0,2.12766 -0.25075,0.25075 -0.81308,-0.25075 -1.06383,0 -0.35563,0.35563 0.35563,1.77203 0,2.12766 -0.5015,0.50149 -1.62617,-0.5015 -2.12766,0 -0.25075,0.25075 0.25075,0.81308 0,1.06383 -0.25075,0.25075 -0.81308,-0.25075 -1.06383,0 -0.35563,0.35563 0.35563,1.77203 0,2.12766 -0.25075,0.25075 -0.81308,-0.25075 -1.06383,0 -0.25075,0.25075 0.25075,0.81308 0,1.06383 -0.35018,0.35018 -1.77748,-0.35019 -2.12766,0 -0.250747,0.25075 0.25075,0.81308 0,1.06383 -0.250747,0.25074 -0.813083,-0.25075 -1.06383,0 -0.250747,0.25074 0.250747,0.81308 0,1.06383 -0.250747,0.25074 -0.813082,-0.25075 -1.06383,0 -0.250747,0.25074 0.250748,0.81308 0,1.06383 -0.501494,0.50149 -1.493314,-0.31718 -2.127659,0 -0.44855,0.22427 -0.61528,0.83955 -1.06383,1.06383 -0.661206,0.3306 -7.270972,0 -8.510638,0 -0.35461,0 -0.813083,0.25074 -1.06383,0 -0.250747,-0.25075 0.250747,-0.81309 0,-1.06383 -0.501494,-0.5015 -1.626165,0.50149 -2.12766,0 -0.250747,-0.25075 0.250747,-0.81309 0,-1.06383 -2.836879,0 0.35461,0.35461 -1.063829,-1.06383 -0.501495,-0.5015 -1.626166,0.50149 -2.12766,0 -0.250747,-0.25075 0.250747,-0.81308 0,-1.06383 -0.501494,-0.5015 -1.626165,0.50149 -2.12766,0 -0.355973,-0.35598 0.355974,-1.77169 0,-2.12766 -0.250747,-0.25075 -0.813082,0.25075 -1.063829,0 -0.250747,-0.25075 0.250747,-0.81308 0,-1.06383 -0.501494,-0.5015 -1.626166,0.50149 -2.12766,0 -0.250747,-0.25075 0.250747,-0.81308 0,-1.06383 -0.250747,-0.25075 -0.813083,0.25075 -1.06383,0 -0.250747,-0.25075 0.250747,-0.81308 0,-1.06383 -0.250747,-0.25075 -0.813082,0.25075 -1.063829,0 -0.250748,-0.25075 0.250747,-0.81308 0,-1.06383 -2.83688,0 0.354609,0.35461 -1.06383,-1.06383 -0.501494,-0.50149 -1.626166,0.50149 -2.12766,0 -0.355973,-0.35597 0.355973,-1.77169 0,-2.12766 -0.501494,-0.50149 -1.626165,0.50149 -2.127659,0 -0.250747,-0.25075 0.250747,-0.81308 0,-1.06383 -0.501495,-0.50149 -1.626166,0.50149 -2.12766,0 -0.250747,-0.25075 0.250747,-0.81308 0,-1.06383 -0.499436,-0.49944 -6.947372,0.49944 -7.446808,0 -0.250748,-0.25075 0.250747,-0.81308 0,-1.06383 -0.70922,-0.70922 -3.5461,0.70922 -4.25532,0 -0.250747,-0.25075 0.250747,-0.81308 0,-1.06383 -0.250747,-0.25075 -0.813082,0.25075 -1.063829,0 -0.250748,-0.25075 0.250747,-0.81308 0,-1.06383 -0.501495,-0.50149 -1.626166,0.5015 -2.12766,0 -0.165792,-0.16579 -0.165792,-4.08953 0,-4.25532 0.250747,-0.25075 0.746657,0.15859 1.06383,0 0.44855,-0.22427 0.61528,-0.839553 1.06383,-1.063828 0.634345,-0.317173 1.626165,0.501494 2.127659,0 0.250747,-0.250747 -0.250747,-0.813083 0,-1.06383 0.501494,-0.501494 1.626166,0.501495 2.12766,0 0.250747,-0.250747 -0.250747,-0.813082 0,-1.063829 0.250747,-0.250748 0.813082,0.250747 1.06383,0 0.250747,-0.250748 -0.250748,-0.813083 0,-1.06383 0.501494,-0.501494 1.762768,0.608151 2.127659,0 0.982498,-1.637497 1.41844,-3.5461 2.12766,-5.319149 z"
       id="path3816"
       inkscape:connector-curvature="0"
       transform="translate(0,392.3622)" />
    <path
       style="fill:#bdbdbd;fill-opacity:1;stroke:none"
       d="m 246.80851,610.87284 c 0.30421,-5.01494 -4.06541,1.25373 -5.31915,0 -1.41844,-1.41844 1.77305,-1.06383 -1.06383,-1.06383 -0.43805,0 -2.90989,0.2816 -3.19149,0 -0.25074,-0.25075 0.25075,-0.81309 0,-1.06383 -0.70922,-0.70922 -3.5461,0.70922 -4.25532,0 -0.25074,-0.25075 0.25075,-0.81309 0,-1.06383 -0.50149,-0.5015 -1.62616,0.50149 -2.12766,0 -0.35277,-0.35278 0.35278,-1.77488 0,-2.12766 -0.25074,-0.25075 -0.74665,0.15858 -1.06383,0 -0.44855,-0.22428 -0.61528,-0.83956 -1.06383,-1.06383 -0.31717,-0.15859 -0.81308,0.25075 -1.06383,0 -0.25074,-0.25075 0.25075,-0.81308 0,-1.06383 -0.25074,-0.25075 -0.81308,0.25075 -1.06382,0 -0.1658,-0.16579 -0.1658,-4.08953 0,-4.25532 0.25074,-0.25075 0.81308,0.25075 1.06382,0 0.25075,-0.25075 -0.25074,-0.81308 0,-1.06383 0.25075,-0.25075 0.74666,0.15859 1.06383,0 0.44855,-0.22428 0.61528,-0.83955 1.06383,-1.06383 0.31718,-0.15859 0.81309,0.25075 1.06383,0 0.25075,-0.25075 -0.25074,-0.81308 0,-1.06383 0.0741,-0.0741 7.6955,0 8.51064,0 0.60695,0 6.32826,0.0547 6.38298,0 0.25075,-0.25075 -0.25075,-0.81308 0,-1.06383 0.41451,-0.41451 3.60613,0 4.25532,0 7.44681,0 14.89362,0 22.34043,0 1.23966,0 7.84943,0.3306 8.51063,0 0.44855,-0.22427 0.61528,-0.83955 1.06383,-1.06383 0.88574,-0.44287 3.58052,0.6748 4.25532,0 0.25075,-0.25075 -0.25074,-0.81308 0,-1.06383 0.53192,-0.53191 2.65958,0.53192 3.19149,0 0.25075,-0.25075 -0.25074,-0.81308 0,-1.06383 0.2816,-0.2816 2.75344,0 3.19149,0 0.35461,0 1.06383,-0.35461 1.06383,0 0,0.35461 -1.06383,0.35461 -1.06383,0 0,-2.2137 1.49188,-0.42805 2.12766,-1.06383 0.25075,-0.25075 -0.25075,-0.81308 0,-1.06383 0.25075,-0.25075 0.81308,0.25075 1.06383,0 0.25075,-0.25075 0.25075,-0.81308 0,-1.06383 -0.41451,-0.41451 -3.60612,0 -4.25532,0 -4.2807,0 -0.38877,-1.06383 -3.19149,-1.06383 -0.70922,0 -1.62616,0.5015 -2.12766,0 -0.25074,-0.25075 0.25075,-0.81308 0,-1.06383 -0.25074,-0.25074 -0.81308,0.25075 -1.06383,0 -2.2011,-2.2011 3.36358,0.086 -1.06383,-2.12766 -0.31717,-0.15858 -0.81308,0.25075 -1.06383,0 -0.25074,-0.25074 0.25075,-0.81308 0,-1.06383 -0.25074,-0.25074 -0.81308,0.25075 -1.06383,0 -0.4145,-0.41451 0,-3.60612 0,-4.25532 0,-0.70922 -0.50149,-1.62616 0,-2.12766 0.25075,-0.25074 0.74666,0.15859 1.06383,0 0.44855,-0.22427 0.61528,-0.83955 1.06383,-1.06383 0.63435,-0.31717 1.62617,0.5015 2.12766,0 0.25075,-0.25074 -0.25074,-0.81308 0,-1.06383 0.25075,-0.25074 0.81309,0.25075 1.06383,0 0.25075,-0.25074 -0.25074,-0.81308 0,-1.06383 0.25075,-0.25074 0.81309,0.25075 1.06383,0 0.25075,-0.25074 -0.25074,-0.81308 0,-1.06383 0.5015,-0.50149 1.62617,0.5015 2.12766,0 0.25075,-0.25074 -0.25074,-0.81308 0,-1.06382 0.58565,-0.58565 7.92499,0.58564 8.51064,0 0.25075,-0.25075 -0.25075,-0.81309 0,-1.06383 0.5015,-0.5015 1.41844,0 2.12766,0 5.31915,0 10.6383,0 15.95745,0 0.70922,0 1.62616,-0.5015 2.12766,0 0.25074,0.25074 -0.25075,0.81308 0,1.06383 0.50149,0.50149 1.62616,-0.5015 2.12766,0 0.25074,0.25074 -0.25075,0.81308 0,1.06382 0.25074,0.25075 0.74665,-0.15858 1.06383,0 0.44855,0.22428 0.61528,0.83956 1.06383,1.06383 0.63434,0.31718 1.62616,-0.50149 2.12766,0 0.25074,0.25075 -0.25075,0.81309 0,1.06383 0.0741,0.0741 7.69549,0 8.51063,0 7.0922,0 14.1844,0 21.2766,0 0.43805,0 2.90989,-0.2816 3.19149,0 0.25075,0.25075 -0.25075,0.81309 0,1.06383 0.70922,0.70922 3.5461,-0.70922 4.25532,0 0.25075,0.25075 -0.25075,0.81309 0,1.06383 2.83688,0 -0.35461,-0.35461 1.06383,1.06383 0.25075,0.25075 0.81308,-0.25074 1.06383,0 0.25074,0.25075 0,0.70922 0,1.06383 0,0.35461 0.25074,0.81309 0,1.06383 -0.25075,0.25075 -0.81308,-0.25074 -1.06383,0 -0.25075,0.25075 0.25075,0.81309 0,1.06383 -0.70922,0.70922 -3.5461,-0.70922 -4.25532,0 -0.25075,0.25075 0.25075,0.81309 0,1.06383 -0.53192,0.53192 -2.65958,-0.53191 -3.19149,0 -0.25075,0.25075 0.25075,0.81309 0,1.06383 -0.66953,0.66953 -8.90494,-0.66952 -9.57447,0 -0.25075,0.25075 0.25075,0.81309 0,1.06383 -0.10003,0.10003 -9.61329,0 -10.6383,0 -2.83688,0 0.35461,-0.35461 -1.06383,1.06383 -0.35169,0.35169 -12.41426,-0.35169 -12.76595,0 -0.25075,0.25075 0.25074,0.81309 0,1.06383 -0.41451,0.41451 -3.60613,0 -4.25532,0 -3.8811,0 -0.89017,-0.17366 -2.12766,1.06383 -0.70922,0.70922 -3.5461,-0.70922 -4.25532,0 -0.25075,0.25075 0.25075,0.81308 0,1.06383 -0.25075,0.25075 -0.81308,-0.25075 -1.06383,0 -0.25075,0.25075 0.25075,0.81308 0,1.06383 -0.25075,0.25075 -0.70922,0 -1.06383,0 0,0.35461 0.25075,0.81308 0,1.06383 -0.25075,0.25075 -0.81308,-0.25075 -1.06383,0 -0.35113,0.35113 0.35113,1.77653 0,2.12766 -0.25075,0.25075 -0.81308,-0.25075 -1.06383,0 0,2.83688 0.35461,-0.35461 -1.06383,1.06383 -0.25075,0.25075 -0.25075,0.81308 0,1.06383 0.25075,0.25075 0.81308,-0.25075 1.06383,0 0.25075,0.25075 -0.25075,0.81308 0,1.06383 0.25075,0.25075 0.81308,-0.25075 1.06383,0 0.53191,0.53192 -0.53192,2.65957 0,3.19149 1.41844,1.41844 1.06383,-1.77305 1.06383,1.06383 0,2.83688 -0.35461,-0.35461 1.06383,1.06383 0.25075,0.25075 -0.25075,0.81308 0,1.06383 0.35018,0.35018 1.77747,-0.35018 2.12766,0 0.25075,0.25075 0,0.70922 0,1.06383 0,0.35461 0.25075,0.81308 0,1.06383 -0.53192,0.53191 -2.65958,-0.53192 -3.19149,0 -0.25075,0.25075 0.25075,0.81308 0,1.06383 -0.53192,0.53191 -2.65958,-0.53192 -3.19149,0 -0.25075,0.25075 0.25075,0.81308 0,1.06383 -0.32941,0.32941 -4.98974,-0.32941 -5.31915,0 -1.23749,1.23749 1.75343,1.06383 -2.12766,1.06383 -0.60695,0 -6.32826,-0.0547 -6.38298,0 -0.25074,0.25074 0.25075,0.81308 0,1.06383 -0.41269,0.41269 -5.97029,-0.41269 -6.38298,0 -1.41844,1.41844 1.77305,1.06383 -1.06383,1.06383 -0.64919,0 -3.84081,-0.41451 -4.25532,0 -0.25074,0.25074 0.25075,0.81308 0,1.06383 -0.70922,0.70922 -3.54609,-0.70922 -4.25531,0 -0.25075,0.25074 0.25074,0.81308 0,1.06383 -0.41451,0.41451 -3.60613,0 -4.25532,0 -0.6492,0 -3.84081,-0.41451 -4.25532,0 -0.25075,0.25074 0.25074,0.81308 0,1.06383 -0.53192,0.53191 -2.65958,-0.53192 -3.19149,0 -0.25075,0.25074 0.25074,0.81308 0,1.06383 -0.0547,0.0547 -5.77603,0 -6.38298,0 -1.41844,0 -2.83688,0 -4.25532,0 -0.70922,0 -2.12766,0.70922 -2.12766,0 0,-0.35461 0.70922,0 1.06383,0 -2.12766,-1.06383 -4.25532,-2.12766 -6.38298,-3.19149 z"
       id="path3820"
       inkscape:connector-curvature="0" />
    <path
       style="fill:#bdbdbd;stroke:none;stroke-width:1px;stroke-linecap:butt;stroke-linejoin:miter;stroke-opacity:1;fill-opacity:1"
       d="M 553.8125 136.375 C 553.3098 136.30448 552.65692 136.59375 552.125 136.59375 C 551.2052 136.59375 542.649 136.50725 542.5625 136.59375 C 541.14406 138.01219 544.33688 137.65625 541.5 137.65625 C 541.06195 137.65625 538.5941 137.37465 538.3125 137.65625 C 537.81101 138.15775 538.814 139.27976 538.3125 139.78125 C 537.9583 140.13546 536.51046 139.42705 536.15625 139.78125 C 535.90551 140.032 536.407 140.59301 536.15625 140.84375 C 535.90551 141.0945 535.3445 140.59301 535.09375 140.84375 C 534.84301 141.0945 535.3445 141.65551 535.09375 141.90625 C 534.38453 142.61547 531.55297 141.19703 530.84375 141.90625 C 530.59301 142.157 531.0945 142.71801 530.84375 142.96875 C 530.48778 143.32473 529.07473 142.61278 528.71875 142.96875 C 528.46801 143.2195 528.9695 143.78051 528.71875 144.03125 C 528.21726 144.53275 527.09525 143.52976 526.59375 144.03125 C 526.34301 144.282 526.8445 144.84301 526.59375 145.09375 C 526.09226 145.59525 524.97024 144.59226 524.46875 145.09375 C 524.218 145.3445 524.71949 145.90551 524.46875 146.15625 C 523.75953 146.86547 520.92797 145.44703 520.21875 146.15625 C 519.968 146.407 520.46949 146.96801 520.21875 147.21875 C 519.86277 147.57473 518.44972 146.86278 518.09375 147.21875 C 517.843 147.4695 518.34449 148.06176 518.09375 148.3125 C 517.59225 148.814 516.67797 148.3125 515.96875 148.3125 C 514.94374 148.3125 505.41253 148.41253 505.3125 148.3125 C 504.81306 147.81307 505.81194 141.34319 505.3125 140.84375 C 504.811 140.34226 503.68899 141.34525 503.1875 140.84375 C 502.93675 140.59301 503.43825 140.032 503.1875 139.78125 C 502.9059 139.49965 500.43805 139.78125 500 139.78125 L 487.21875 139.78125 C 486.50953 139.78125 485.59525 139.27976 485.09375 139.78125 C 484.84301 140.032 485.3445 140.59301 485.09375 140.84375 C 484.68106 141.25644 479.13144 140.43106 478.71875 140.84375 C 478.46801 141.0945 478.9695 141.65551 478.71875 141.90625 C 478.04923 142.57578 469.82577 141.23673 469.15625 141.90625 C 468.9055 142.157 469.40699 142.71801 469.15625 142.96875 C 468.80382 143.32118 467.38368 142.61632 467.03125 142.96875 C 466.7805 143.2195 467.28199 143.78051 467.03125 144.03125 C 466.52975 144.53275 465.40774 143.52976 464.90625 144.03125 C 464.6555 144.282 465.15699 144.84301 464.90625 145.09375 C 464.40475 145.59525 463.28274 144.59226 462.78125 145.09375 C 462.5305 145.3445 463.03199 145.90551 462.78125 146.15625 C 462.24933 146.68817 460.09441 145.62434 459.5625 146.15625 C 459.31175 146.407 459.81325 146.96801 459.5625 147.21875 C 459.31175 147.4695 458.85461 147.21875 458.5 147.21875 C 458.5 147.57336 458.75075 148.06176 458.5 148.3125 C 457.9985 148.814 456.87649 147.81101 456.375 148.3125 C 455.8735 148.814 456.375 149.72828 456.375 150.4375 C 456.375 151.0867 455.96049 154.27299 456.375 154.6875 C 456.62575 154.93825 457.18675 154.43675 457.4375 154.6875 C 457.68825 154.93825 457.18675 155.49925 457.4375 155.75 C 457.68825 156.00075 458.24925 155.49925 458.5 155.75 C 458.75075 156.00075 458.24925 156.56175 458.5 156.8125 C 458.75075 157.06325 459.31175 156.56175 459.5625 156.8125 C 460.06399 157.31399 459.061 158.43601 459.5625 158.9375 C 459.81325 159.18825 460.37425 158.68675 460.625 158.9375 C 460.87574 159.18825 460.37425 159.74925 460.625 160 C 460.87574 160.25075 461.43675 159.74925 461.6875 160 C 461.93824 160.25075 461.43675 160.81175 461.6875 161.0625 C 461.93824 161.31325 462.5305 160.81175 462.78125 161.0625 C 463.03199 161.31325 462.5305 161.87425 462.78125 162.125 C 463.03199 162.37575 463.593 161.87425 463.84375 162.125 C 464.09449 162.37575 463.593 162.93675 463.84375 163.1875 C 464.09449 163.43825 464.6555 162.93675 464.90625 163.1875 C 465.15699 163.43825 464.90625 163.89539 464.90625 164.25 L 464.90625 165.3125 C 464.66984 165.3125 464.82745 165.68479 464.90625 166 L 464.90625 166.375 C 464.6555 166.62575 464.09449 166.62575 463.84375 166.375 C 463.593 166.12425 464.09449 165.56325 463.84375 165.3125 C 463.78902 165.2578 458.04445 165.3125 457.4375 165.3125 C 456.72828 165.3125 455.81399 164.811 455.3125 165.3125 C 455.06175 165.56325 455.3125 166.02039 455.3125 166.375 C 455.3125 167.02419 454.89799 170.21049 455.3125 170.625 C 455.56325 170.87574 456.12425 170.37425 456.375 170.625 C 456.90691 171.15691 455.84308 173.31183 456.375 173.84375 C 456.62575 174.09449 457.18675 173.593 457.4375 173.84375 C 457.68825 174.09449 457.18675 174.6555 457.4375 174.90625 C 457.68825 175.15699 458.24925 174.6555 458.5 174.90625 C 458.75075 175.15699 458.24925 175.718 458.5 175.96875 C 460.70106 178.16985 458.4113 172.60384 460.625 177.03125 C 460.78358 177.34842 460.37425 177.843 460.625 178.09375 C 460.87574 178.34449 461.43675 177.843 461.6875 178.09375 C 461.93824 178.34449 461.43675 178.9055 461.6875 179.15625 C 462.39672 179.86547 465.25953 178.44703 465.96875 179.15625 C 466.21949 179.40699 465.718 179.968 465.96875 180.21875 C 466.50066 180.75066 468.62433 179.68683 469.15625 180.21875 C 469.40699 180.46949 468.9055 181.0305 469.15625 181.28125 C 469.84539 181.97039 475.98115 180.38753 476.59375 181.28125 C 482.26063 182.41458 480.09676 182.34375 482.96875 182.34375 C 483.67797 182.34375 484.59226 182.84524 485.09375 182.34375 C 485.3445 182.093 484.84301 181.53199 485.09375 181.28125 C 485.3445 181.0305 485.90551 181.53199 486.15625 181.28125 C 487.57469 179.86281 484.38187 180.21875 487.21875 180.21875 L 505.3125 180.21875 C 505.75055 180.21875 508.2184 179.93714 508.5 180.21875 C 509.73749 181.45624 506.74391 181.28125 510.625 181.28125 C 511.8615 181.28125 523.27793 181.15294 523.40625 181.28125 C 523.65699 181.53199 523.1555 182.093 523.40625 182.34375 C 523.89802 182.83552 525.95144 182.02259 526.59375 182.34375 C 527.0423 182.56802 527.2077 183.18197 527.65625 183.40625 C 528.28409 183.72016 530.12872 183.40625 530.84375 183.40625 C 531.55297 183.40625 532.46726 182.90475 532.96875 183.40625 C 534.52904 184.96653 530.95014 184.36236 530.84375 184.46875 C 529.42531 185.88718 532.61813 185.53125 529.78125 185.53125 C 525.90016 185.53125 528.89375 185.35626 527.65625 186.59375 C 527.40551 186.8445 526.8445 186.34301 526.59375 186.59375 C 526.34301 186.8445 526.8445 187.40551 526.59375 187.65625 C 525.88453 188.36547 523.05297 186.94703 522.34375 187.65625 C 522.093 187.907 522.59449 188.46801 522.34375 188.71875 C 522.093 188.9695 521.53199 188.46801 521.28125 188.71875 C 521.0305 188.9695 521.53199 189.53051 521.28125 189.78125 C 520.77975 190.28275 519.65774 189.27976 519.15625 189.78125 C 518.9055 190.032 519.40699 190.59301 519.15625 190.84375 C 517.91875 192.08125 518.09375 189.08766 518.09375 192.96875 C 518.09375 193.4068 517.81214 195.87465 518.09375 196.15625 C 518.34449 196.407 518.83907 195.99767 519.15625 196.15625 C 521.7854 197.47083 518.78638 197.21875 521.28125 197.21875 C 521.99047 197.21875 522.90475 196.71726 523.40625 197.21875 C 523.65699 197.4695 523.1555 198.06176 523.40625 198.3125 C 523.61536 198.52161 528.37764 197.59111 526.59375 199.375 C 526.06184 199.90692 523.93816 198.84309 523.40625 199.375 C 523.1555 199.62575 523.65699 200.18675 523.40625 200.4375 C 522.69703 201.14672 519.86547 199.72828 519.15625 200.4375 C 518.9055 200.68825 519.40699 201.24925 519.15625 201.5 C 518.9055 201.75075 518.34449 201.24925 518.09375 201.5 C 517.843 201.75075 518.34449 202.31175 518.09375 202.5625 C 517.38453 203.27172 514.55297 201.85328 513.84375 202.5625 C 513.593 202.81325 514.09449 203.37425 513.84375 203.625 C 513.13453 204.33422 510.27172 202.91578 509.5625 203.625 C 509.31175 203.87575 509.81325 204.43675 509.5625 204.6875 C 508.85328 205.39672 506.02172 203.97828 505.3125 204.6875 C 505.06175 204.93825 505.56325 205.49925 505.3125 205.75 C 505.06175 206.00075 504.50075 205.49925 504.25 205.75 C 503.83549 206.16451 504.25 209.35081 504.25 210 C 504.25 210.35461 503.99925 210.81175 504.25 211.0625 C 504.50075 211.31325 505.06175 210.81175 505.3125 211.0625 C 505.56325 211.31325 505.06175 211.87425 505.3125 212.125 C 505.56325 212.37575 506.12425 211.87425 506.375 212.125 C 506.62575 212.37575 506.12425 212.93675 506.375 213.1875 C 506.62575 213.43825 507.18675 212.93675 507.4375 213.1875 C 507.68825 213.43825 507.18675 213.99925 507.4375 214.25 C 507.68825 214.50075 508.24925 213.99925 508.5 214.25 C 508.75075 214.50075 508.24925 215.06175 508.5 215.3125 C 509.00149 215.81399 509.91578 215.3125 510.625 215.3125 C 511.65 215.3125 521.18122 215.41253 521.28125 215.3125 C 521.53199 215.06175 521.0305 214.50075 521.28125 214.25 C 521.39535 214.1359 531.83811 214.25 532.96875 214.25 C 533.47035 214.25 538.2643 214.2982 538.3125 214.25 C 538.56325 213.99925 538.06176 213.43825 538.3125 213.1875 C 538.64191 212.85809 543.29559 213.51691 543.625 213.1875 C 543.87575 212.93675 543.37425 212.37575 543.625 212.125 C 543.67972 212.0703 549.39305 212.125 550 212.125 C 553.88109 212.125 550.8875 212.29999 552.125 211.0625 C 552.7998 210.3877 555.48927 211.50537 556.375 211.0625 C 556.82355 210.83822 556.98895 210.22428 557.4375 210 C 558.07981 209.67884 560.13323 210.49177 560.625 210 C 560.87574 209.74925 560.37425 209.18825 560.625 208.9375 C 561.33422 208.22828 564.19703 209.64672 564.90625 208.9375 C 565.15699 208.68675 564.6555 208.12575 564.90625 207.875 C 565.61547 207.16578 568.44703 208.58422 569.15625 207.875 C 569.40699 207.62425 568.9055 207.06325 569.15625 206.8125 C 569.86547 206.10328 572.69703 207.52172 573.40625 206.8125 C 573.65699 206.56175 573.1555 206.00075 573.40625 205.75 C 573.90774 205.24851 575.02976 206.2515 575.53125 205.75 C 575.782 205.49925 575.28051 204.93825 575.53125 204.6875 C 576.03275 204.18601 577.15476 205.189 577.65625 204.6875 C 577.907 204.43675 577.40551 203.87575 577.65625 203.625 C 578.06894 203.21231 583.61856 204.03769 584.03125 203.625 C 584.282 203.37425 583.78051 202.81325 584.03125 202.5625 C 584.53275 202.06101 585.65476 203.064 586.15625 202.5625 C 586.407 202.31175 585.90551 201.75075 586.15625 201.5 C 586.64802 201.00823 588.73269 201.82116 589.375 201.5 C 589.82355 201.27573 589.98895 200.66178 590.4375 200.4375 C 591.07981 200.11635 593.13323 200.92927 593.625 200.4375 C 593.87575 200.18675 593.37425 199.62575 593.625 199.375 C 594.03769 198.96231 599.58731 199.78769 600 199.375 C 600.25075 199.12426 599.74925 198.56325 600 198.3125 C 600.53191 197.78059 602.65558 198.84442 603.1875 198.3125 C 604.60594 196.89406 601.41312 197.21875 604.25 197.21875 C 608.13109 197.21875 605.1375 197.39375 606.375 196.15625 C 606.94555 195.5857 608.89098 196.40708 610 196.375 L 610 166.375 C 608.80983 166.38293 605.35535 166.41785 605.3125 166.375 C 605.06175 166.12425 605.56325 165.56325 605.3125 165.3125 C 605.06175 165.06175 604.50075 165.56325 604.25 165.3125 C 603.99925 165.06175 604.40859 164.56717 604.25 164.25 C 604.02572 163.80145 603.68899 163.1875 603.1875 163.1875 C 603.13928 163.1393 598.37659 163.1875 597.875 163.1875 C 596.04297 163.1875 583.6664 163.53632 582.96875 163.1875 C 582.5202 162.96322 582.3548 162.34927 581.90625 162.125 C 580.7715 161.55762 578.79101 162.69238 577.65625 162.125 C 577.2077 161.90072 577.09525 161.0625 576.59375 161.0625 L 576.59375 158.9375 C 576.59375 158.22649 576.65715 151.5634 576.59375 151.5 C 576.34301 151.24925 575.782 151.75075 575.53125 151.5 C 575.02976 150.99851 576.03275 149.8765 575.53125 149.375 C 575.02976 148.87351 574.11547 149.375 573.40625 149.375 L 560.625 149.375 L 557.4375 149.375 C 557.68825 149.12426 557.18675 148.56325 557.4375 148.3125 C 557.68825 148.06176 558.24925 148.56325 558.5 148.3125 C 558.91451 147.89799 558.5 144.68045 558.5 144.03125 C 558.5 141.19437 558.85594 144.38719 557.4375 142.96875 C 556.936 142.46726 557.93899 141.34525 557.4375 140.84375 C 557.18675 140.59301 556.62575 141.0945 556.375 140.84375 C 556.12425 140.59301 556.62575 140.032 556.375 139.78125 C 556.12425 139.53051 555.56325 140.032 555.3125 139.78125 C 554.95829 139.42705 555.6667 138.01046 555.3125 137.65625 C 555.06175 137.40551 554.50075 137.907 554.25 137.65625 C 553.99925 137.40551 554.50075 136.8445 554.25 136.59375 C 554.12463 136.46838 553.98007 136.39851 553.8125 136.375 z "
       transform="translate(0,392.3622)"
       id="path3818" />
    <path
       style="fill:#bdbdbd;stroke:none;stroke-width:1px;stroke-linecap:butt;stroke-linejoin:miter;stroke-opacity:1;fill-opacity:1"
       d="m 508.51064,390.85106 c -1.41844,-0.70922 -4.96454,-0.70922 -4.25532,-2.12766 0.70922,-1.41844 5.37669,3.24904 4.25532,2.12766 -1.4621,-1.46209 -3.46973,-2.26678 -5.31915,-3.19149 -0.64231,-0.32115 -2.69972,0.49177 -3.19149,0 -0.25075,-0.25074 0.25075,-0.81308 0,-1.06383 -0.55043,-0.55043 -6.38764,0.52959 -7.44681,0 -0.44855,-0.22427 -0.61528,-0.83955 -1.06383,-1.06383 -0.64231,-0.32115 -2.69972,0.49178 -3.19149,0 -0.25074,-0.25074 0.25075,-0.81308 0,-1.06382 -0.53191,-0.53192 -2.65957,0.53191 -3.19149,0 -0.25074,-0.25075 0.25075,-0.81309 0,-1.06383 -0.53191,-0.53192 -2.65957,0.53191 -3.19149,0 -0.25074,-0.25075 0.25075,-0.81309 0,-1.06383 -0.70922,-0.70922 -3.5461,0.70922 -4.25532,0 -0.25074,-0.25075 0.25075,-0.81309 0,-1.06383 -0.25074,-0.25075 -0.81308,0.25074 -1.06383,0 -0.23011,-0.23012 -0.16789,-3.91953 0,-4.25532 0.22428,-0.44855 0.61528,-0.83956 1.06383,-1.06383 0.31718,-0.15859 0.81309,0.25074 1.06383,0 0.25075,-0.25075 -0.25074,-0.81309 0,-1.06383 0.5015,-0.5015 1.62617,0.50149 2.12766,0 0.25075,-0.25075 -0.25074,-0.81309 0,-1.06383 0.53192,-0.53192 2.65958,0.53191 3.19149,0 0.25075,-0.25075 -0.25074,-0.81309 0,-1.06383 0.12831,-0.12831 11.52946,0 12.76596,0 0.35461,0 0.81308,0.25074 1.06383,0 0.70922,-0.70922 -0.70922,-3.5461 0,-4.25532 0.25075,-0.25075 0.81308,0.25075 1.06383,0 0.25075,-0.25075 -0.25075,-0.81308 0,-1.06383 0.25075,-0.25075 0.81308,0.25075 1.06383,0 0.25075,-0.25075 -0.25075,-0.81308 0,-1.06383 0.0741,-0.0741 7.69549,0 8.51064,0 3.5461,0 7.0922,0 10.6383,0 0.70922,0 1.41844,0 2.12766,0 0.35461,0 1.06383,-0.35461 1.06383,0 0,0.31295 -4.98771,-0.33144 -5.31915,0 -0.10639,0.10638 -0.10639,3.08511 0,3.19149 0.50149,0.50149 1.62616,-0.5015 2.12766,0 0.25074,0.25075 -0.25075,0.81308 0,1.06383 0.2816,0.2816 2.75344,0 3.19149,0 2.49487,0 -0.5015,-0.25075 2.12766,1.06383 1.57259,0.7863 5.8742,-0.7863 7.4468,0 2.62916,1.31457 -0.36721,1.06383 2.12766,1.06383 5.31915,0 10.6383,0 15.95745,0 1.37491,0 6.47158,-0.48762 7.44681,0 0.44855,0.22427 0.61528,0.83955 1.06383,1.06383 0.88573,0.44286 3.58052,-0.6748 4.25532,0 0.50149,0.50149 0,1.41844 0,2.12766 0,0.35461 0.25074,0.81308 0,1.06383 -0.53192,0.53191 -2.65958,-0.53192 -3.19149,0 -0.25075,0.25074 0.25075,0.81308 0,1.06383 -0.2816,0.2816 -2.75344,0 -3.19149,0 -6.02837,0 -12.05674,0 -18.08511,0 -0.50159,0 -5.27093,-0.0482 -5.31915,0 -0.25074,0.25074 0,0.70922 0,1.06383 0,0.35461 -0.25074,0.81308 0,1.06383 0.25075,0.25074 0.81309,-0.25075 1.06383,0 0.25075,0.25074 -0.25074,0.81308 0,1.06383 0.5015,0.50149 1.62617,-0.5015 2.12766,0 0.25075,0.25074 -0.25074,0.81308 0,1.06383 0.25075,0.25074 0.81309,-0.25075 1.06383,0 0.25075,0.25074 -0.25074,0.81308 0,1.06383 0.13338,0.13337 2.59037,-0.46272 1.06383,1.06383 -0.0482,0.0482 -4.81755,0 -5.31915,0 -4.96454,0 -9.92907,0 -14.89361,0 -0.70922,0 -1.62617,0.50149 -2.12766,0 -1.2375,-1.2375 1.75343,-1.06383 -2.12766,-1.06383 -0.6492,0 -3.84081,-0.41451 -4.25532,0 -0.25075,0.25074 0.25075,0.81308 0,1.06383 -0.25075,0.25074 -0.81308,-0.25075 -1.06383,0 -1.41844,1.41843 1.77305,1.06382 -1.06383,1.06382"
       id="path3824"
       inkscape:connector-curvature="0"
       transform="translate(0,392.3622)" />
    <rect
       style="fill:#000000;fill-opacity:0.30319148;stroke:#000000;stroke-width:0.69999999;stroke-linecap:round;stroke-miterlimit:4;stroke-opacity:1;stroke-dasharray:none"
       id="rect3006"
       width="610"
       height="660"
       x="0"
       y="392.36221" />
  </g>
</svg>
