<?xml version="1.0" encoding="UTF-8" standalone="no"?>
<svg fill="#ffffff" xmlns:cc="http://creativecommons.org/ns#" height="104.79" xml:space="preserve" xmlns:dc="http://purl.org/dc/elements/1.1/" viewBox="0 0 502.921 104.794" width="502.92" xmlns="http://www.w3.org/2000/svg" x="0px" y="0px" version="1.2" xmlns:rdf="http://www.w3.org/1999/02/22-rdf-syntax-ns#"><metadata><rdf:RDF><cc:Work rdf:about=""><dc:format>image/svg+xml</dc:format><dc:type rdf:resource="http://purl.org/dc/dcmitype/StillImage"/><dc:title/></cc:Work></rdf:RDF></metadata>
			<polygon points="492.41 88.467 492.41 82.049 494.73 82.049 494.73 81.218 489.1 81.218 489.1 82.049 491.43 82.049 491.43 88.467"/>
			<polygon points="498.57 88.467 499.54 88.467 501.49 82.577 501.49 88.467 502.3 88.467 502.3 81.218 501.12 81.218 499.08 87.409 496.98 81.218 495.63 81.218 495.63 88.467 496.61 88.467 496.61 82.577"/>
		<path d="m50.372 0c5.858 1.092 11.616 2.652 17.346 4.278 3.278 0.952 6.547 1.937 9.795 2.986 5.102 1.625 10.182 3.465 14.803 6.209 2.07 1.257 4.058 2.677 5.757 4.409 1.841 1.799 3.348 3.933 4.454 6.255 2.015 4.208 2.705 8.909 2.909 13.531 0.096 3.016 0.09 6.058-0.473 9.035-0.468 2.587-1.3 5.138-2.684 7.385-1.222 1.985-2.921 3.701-4.983 4.807-1.978 1.066-4.243 1.574-6.486 1.529-3.402 0.036-6.703-1.049-9.756-2.47-0.055-10.153-0.008-20.308-0.024-30.46-0.022-1.837 0.103-3.693-0.267-5.505-0.26-1.404-0.833-2.819-1.935-3.772-0.731-0.659-1.678-1.031-2.63-1.232-0.963-0.183-1.99 0.226-2.586 0.999-0.991 1.238-1.251 2.882-1.296 4.423-0.008 27.181 0.01 54.363-0.008 81.542-7.312-2.32-14.625-4.637-21.935-6.961-0.008-32.33-0.005-64.659-0.001-96.989z"/>
		<path d="m17.506 68.783c9.533-3.375 19.056-6.782 28.593-10.146 0.015 3.743 0 7.487 0.006 11.233-0.006 0.508 0.027 1.018-0.037 1.523-7.538 2.672-15.061 5.391-22.592 8.08-1.044 0.394-2.115 0.841-2.92 1.638-0.375 0.374-0.68 0.926-0.475 1.462 0.258 0.631 0.902 0.974 1.496 1.234 1.652 0.672 3.458 0.767 5.218 0.848 1.962-0.031 3.932-0.178 5.854-0.602 1.299-0.255 2.549-0.693 3.787-1.158 3.218-1.165 6.436-2.337 9.659-3.49 0.024 3.166 0.004 6.334 0.01 9.503-0.01 0.633 0.029 1.27-0.034 1.901-3.958 0.711-7.963 1.194-11.986 1.257-8.101 0.183-16.221-1.071-23.916-3.603-2.524-0.731-5.032-1.704-7.139-3.307-1.16-0.898-2.198-2.027-2.726-3.416-0.442-1.176-0.41-2.535 0.141-3.67 0.531-1.132 1.459-2.027 2.481-2.722 2.365-1.633 4.973-2.878 7.616-3.989 2.277-0.972 4.639-1.728 6.964-2.576z"/>
		<path d="m94.209 64.52c2.162-0.25 4.338-0.309 6.511-0.387 7.151 0.027 14.338 0.917 21.178 3.062 1.342 0.408 2.642 0.936 3.979 1.362 2.383 0.871 4.769 1.927 6.677 3.64 1.147 1.046 2.135 2.455 2.149 4.064 0.068 1.309-0.525 2.565-1.374 3.531-1.616 1.812-3.752 3.057-5.897 4.143-2.283 1.164-4.737 1.915-7.131 2.801-14.612 5.247-29.225 10.492-43.835 15.745-0.002-4.093 0.004-8.185-0.002-12.276 0.022-0.163-0.068-0.448 0.163-0.491 11.118-3.956 22.233-7.923 33.349-11.889 1.503-0.562 3.122-0.969 4.398-1.989 0.522-0.41 1.033-1.062 0.777-1.765-0.267-0.615-0.905-0.956-1.492-1.21-1.664-0.659-3.476-0.787-5.246-0.836-2.771 0.019-5.567 0.361-8.202 1.249-7.919 2.775-15.824 5.584-23.745 8.35 0.001-4.395-0.002-8.787 0.002-13.181 5.731-2.011 11.715-3.23 17.741-3.923z"/>
			<path d="m126.69 94.796c1.729-0.216 3.535 0.559 4.571 1.961 1.131 1.446 1.338 3.532 0.539 5.184-0.806 1.714-2.65 2.915-4.559 2.852-1.757 0.039-3.459-0.984-4.324-2.499-0.782-1.335-0.875-3.044-0.27-4.464 0.68-1.639 2.282-2.836 4.043-3.034zm-0.376 0.923c-0.968 0.22-1.847 0.807-2.425 1.614-0.695 0.949-0.958 2.205-0.694 3.354 0.222 1.067 0.897 2.02 1.808 2.611 1.403 0.922 3.37 0.871 4.712-0.142 1.385-0.978 2.043-2.857 1.567-4.484-0.294-1.1-1.08-2.036-2.07-2.581-0.88-0.468-1.93-0.603-2.898-0.372z"/>
			<path d="m125.12 96.896c0.901-0.005 1.805-0.001 2.707-0.003 0.51 0.007 1.072 0.126 1.433 0.517 0.364 0.411 0.393 1.008 0.293 1.523-0.056 0.34-0.356 0.541-0.573 0.779 0.189 0.167 0.43 0.324 0.475 0.596 0.104 0.52-0.006 1.068 0.161 1.578 0.105 0.18 0.212 0.362 0.22 0.578-0.374 0.01-0.747 0.003-1.121 0.009-0.252-0.593-0.064-1.26-0.221-1.871-0.062-0.249-0.32-0.404-0.566-0.396-0.61-0.026-1.222-0.008-1.83-0.009-0.009 0.758 0.022 1.519-0.018 2.276-0.318-0.005-0.637-0.005-0.955 0.001-0.016-1.862-0.005-3.719-0.005-5.578zm0.978 0.884c0.001 0.513 0.001 1.026 0 1.541 0.545 0.003 1.091 0.007 1.638 0.002 0.271-0.002 0.586-0.053 0.762-0.283 0.185-0.293 0.181-0.683 0.014-0.981-0.14-0.235-0.437-0.258-0.681-0.273-0.578-0.017-1.156-0.007-1.733-0.006z"/>
</svg>
