<?xml version="1.0" encoding="UTF-8" standalone="no"?>
<svg version="1.0" xmlns="http://www.w3.org/2000/svg" viewBox="0 0 285 362">
<g transform="translate(-653.9 -574.82)">
<g transform="matrix(58.69 0 0 58.69 -78905 -17558)">
<g transform="matrix(1 0 0 -1 1360.4 311.08)">
<path fill="#fff" d="m0 0c0 1.173-1.087 2.124-2.428 2.124s-2.428-0.951-2.428-2.124v-4.044h4.856v4.044z"/>
</g>
<g transform="matrix(1 0 0 -1 1360 311.6)">
<path fill="#36399a" d="m0 0c-0.41-0.422-1.015-0.806-1.279-0.942-0.118-0.06-0.237-0.113-0.356-0.16h1.635v1.102z"/>
</g>
<g transform="matrix(1 0 0 -1 1359.9 310.67)">
<path fill="#36399a" d="m0 0c-0.318 0.039-0.445 0.166-0.445 0.166-0.42 0.441-0.727 0.802-1.121 0.904-0.146 0.037-0.314 0.033-0.472 0.008-0.056 0.071-0.166 0.172-0.319 0.191 0.144 0.029 0.294 0.045 0.448 0.045 0.923 0 1.696-0.56 1.909-1.314"/>
</g>
<g transform="matrix(1 0 0 -1 1356.7 311.97)">
<path fill="#36399a" d="m0 0c0.047 0.161 0.004 0.392 0.004 0.392-0.008 0.128-0.272 1.077 0.324 1.586 0 0-0.084 0.308 0.161 0.488-0.691-0.269-1.17-0.878-1.17-1.586v-1.605h0.372c-0.018 0.099 0.029 0.23 0.131 0.377 0 0 0.132 0.187 0.178 0.348"/>
</g>
<g transform="matrix(1 0 0 -1 1358.6 312.16)">
<path fill="#ed008c" d="m0 0c0.672 0.325 1.144 0.744 1.051 0.935s-0.713 0.084-1.386-0.241c-0.673-0.324-1.144-0.742-1.051-0.934 0.092-0.192 0.712-0.084 1.386 0.24m-0.77 2.424c0.371 0.046 0.61-0.289 0.783-0.561 0.182-0.285 0.241-0.381 0.329-0.434 0.08 0.018 0.179 0.042 0.331 0.036-0.211 0.039-0.46 0.548-0.681 0.744-0.267 0.237-0.531 0.274-0.777 0.218l0.015-0.003zm-0.597-0.231c-0.306-0.284-0.305-0.676-0.159-1.266 0.019-0.072 0.059-0.328 0.063-0.375 0 0-0.185-0.161-0.288-0.387 0 0-0.062-0.168-0.111-0.245l0.002-0.003c0.15 0.245 0.427 0.527 0.769 0.751 0 0 0.811 0.592 1.845 0.739l-0.007-0.006s-1.136-0.235-1.957-1.048c-0.257-0.254-0.398-0.514-0.326-0.665 0.127-0.261 0.852-0.161 1.579 0.189 0.727 0.349 1.295 0.874 1.161 1.132-0.14 0.274-0.861 0.17-1.577-0.192l-0.024-0.008c0.318 0.202 0.873 0.475 1.442 0.559 0.029 0.003 0.144 0.016 0.232 0.007-0.387 0.035-0.512 0.198-0.512 0.198-0.392 0.443-0.668 0.811-1.046 0.924-0.14 0.044-0.317 0.041-0.48 0.011-0.163 0.236-0.413 0.218-0.527 0.157-0.061-0.034-0.106-0.092-0.127-0.16-0.024-0.066-0.013-0.167 0.029-0.264 0.141 0.102 0.299 0.177 0.514 0.237l-0.013-0.007c-0.194-0.075-0.339-0.155-0.451-0.251 0 0-0.026-0.02-0.031-0.027"/>
</g>
<g transform="matrix(1 0 0 -1 1357.4 311.8)">
<path fill="#36399a" d="m0 0c-0.257-0.255-0.398-0.515-0.326-0.665 0.126-0.262 0.852-0.162 1.58 0.188 0.727 0.349 1.293 0.875 1.16 1.133-0.141 0.273-0.861 0.17-1.577-0.192l-0.024-0.008c0.319 0.201 0.873 0.475 1.442 0.558 0 0 0.488 0.076 0.584-0.153 0.133-0.31-0.531-0.927-1.553-1.419-1.022-0.491-1.895-0.618-2.041-0.314-0.113 0.236 0.282 0.798 0.874 1.187 0 0 0.811 0.591 1.845 0.738l-0.007-0.005s-1.136-0.235-1.957-1.048"/>
</g>
<g transform="matrix(1 0 0 -1 1357.8 309.73)">
<path fill="#fff" d="m0 0c0.37 0.045 0.609-0.291 0.782-0.562 0.183-0.285 0.242-0.381 0.33-0.434 0.08 0.018 0.179 0.042 0.331 0.036-0.212 0.039-0.46 0.548-0.682 0.744-0.266 0.236-0.529 0.274-0.775 0.218l0.014-0.002z"/>
</g>
<g transform="matrix(1 0 0 -1 1358.6 312.15)">
<path fill="#36399a" d="m0 0c0.672 0.325 1.144 0.743 1.051 0.935s-0.713 0.084-1.386-0.241-1.144-0.742-1.051-0.934c0.092-0.192 0.713-0.084 1.386 0.24"/>
</g>
<g transform="matrix(1 0 0 -1 1358.3 311.59)">
<path fill="#fee012" d="m0 0c-0.258-0.073-0.476-0.187-0.634-0.289 0 0 0.02-0.288 0.348-0.234 0 0-0.321-0.164-0.55 0.09-0.024-0.018-0.08-0.068-0.08-0.068l-0.002-0.001c0.093-0.096 0.218-0.183 0.424-0.168 0.295 0.023 0.54 0.228 0.526 0.504-0.004 0.069-0.007 0.103-0.032 0.166"/>
</g>
<g transform="matrix(1 0 0 -1 1357.1 311.41)">
<path fill="#36399a" d="m0 0s0.018-0.094 0.029-0.192c-0.194-0.173-0.29-0.387-0.29-0.387 0.062 0.157-0.005 0.451-0.005 0.451-0.044 0.275-0.275 1.045 0.265 1.539-0.039 0.138-0.02 0.22 0.011 0.309 0.035 0.08 0.116 0.169 0.193 0.202 0 0-0.229-0.115-0.099-0.425 0.149 0.107 0.311 0.18 0.514 0.238l-0.012-0.009c-0.774-0.295-0.842-0.728-0.641-1.542 0.018-0.073 0.028-0.136 0.035-0.184"/>
</g>
<g transform="matrix(1 0 0 -1 1360.1 314.39)">
<path fill="#36399a" d="m0 0c0.012 0 0.033-0.002 0.033 0.017 0 0.014-0.012 0.016-0.024 0.016h-0.027v-0.033h0.018zm0.044-0.053h-0.014l-0.027 0.044h-0.021v-0.044h-0.011v0.094h0.041c0.007 0 0.015 0 0.022-0.004 0.008-0.004 0.011-0.012 0.011-0.02 0-0.019-0.013-0.025-0.03-0.026l0.029-0.044zm0.032 0.048c0 0.041-0.033 0.074-0.074 0.074s-0.074-0.033-0.074-0.074c0-0.042 0.033-0.075 0.074-0.075s0.074 0.033 0.074 0.075m-0.158 0c0 0.046 0.038 0.084 0.084 0.084s0.084-0.038 0.084-0.084c0-0.047-0.038-0.085-0.084-0.085s-0.084 0.038-0.084 0.085"/>
</g>
<g transform="matrix(1 0 0 -1 1356.8 313.25)">
<path fill="#36399a" d="m0 0h-0.251v-0.514h-0.404v0.515h-0.238l-0.087 0.163h1.068l-0.088-0.164z"/>
</g>
<g transform="matrix(1 0 0 -1 1357.2 313.45)">
<path fill="#36399a" d="m0 0h0.206l-0.099 0.223h-0.002l-0.105-0.223zm-0.152 0.368h0.518l0.363-0.677h-0.396l-0.065 0.146h-0.331l-0.064-0.146h-0.388l0.363 0.677z"/>
</g>
<g transform="matrix(1 0 0 -1 1358.8 313.74)">
<path fill="#36399a" d="m0 0c-0.074-0.015-0.225-0.031-0.327-0.031-0.356 0-0.629 0.067-0.629 0.36 0 0.261 0.292 0.344 0.629 0.344 0.147 0 0.282-0.013 0.35-0.025l-0.08-0.157c-0.044 0.007-0.13 0.012-0.198 0.012-0.174 0-0.289-0.046-0.289-0.174 0-0.147 0.121-0.181 0.288-0.181 0.074 0 0.179 0.013 0.256 0.032v-0.18z"/>
</g>
<g transform="matrix(1 0 0 -1 1359.5 313.62)">
<path fill="#36399a" d="m0 0c0.154 0 0.164 0.123 0.165 0.194-0.001 0.063-0.012 0.195-0.165 0.195-0.149 0-0.162-0.132-0.162-0.195 0-0.073 0.017-0.194 0.162-0.194m0-0.158c-0.368 0-0.584 0.12-0.584 0.35 0 0.227 0.216 0.35 0.584 0.35 0.367 0 0.587-0.123 0.587-0.35 0-0.23-0.22-0.35-0.587-0.35"/>
</g>
<g transform="matrix(1 0 0 -1 1357.3 314.01)">
<path fill="#36399a" d="m0 0h0.939l-0.085-0.158h-0.455v-0.099h0.434v-0.153h-0.434v-0.104h0.522v-0.163h-0.921v0.677z"/>
</g>
<g transform="matrix(1 0 0 -1 1356.6 314.55)">
<path fill="#36399a" d="m0 0h0.107c0.065 0 0.091 0.003 0.114 0.012 0.026 0.009 0.042 0.032 0.041 0.065 0 0.026-0.011 0.051-0.043 0.062-0.025 0.008-0.063 0.008-0.109 0.008h-0.11v-0.147zm0 0.281h0.102c0.058 0 0.085 0.001 0.111 0.009 0.027 0.009 0.039 0.03 0.038 0.059-0.001 0.022-0.011 0.044-0.039 0.053-0.023 0.007-0.058 0.007-0.106 0.007h-0.106v-0.128zm0.463-0.068c0.065-0.01 0.164-0.036 0.164-0.162 0-0.079-0.032-0.134-0.117-0.164-0.063-0.022-0.151-0.027-0.278-0.027h-0.628v0.677h0.6c0.144 0 0.27 0.008 0.35-0.052 0.035-0.027 0.054-0.063 0.054-0.114 0-0.121-0.091-0.153-0.145-0.158"/>
</g>
<g transform="matrix(1 0 0 -1 1358.4 314.69)">
<path fill="#36399a" d="m0 0c-0.111 0-0.136 0.069-0.136 0.137v0.54h0.408v-0.507h0.51l-0.091-0.17h-0.691z"/>
</g>
<g transform="matrix(1 0 0 -1 1359.4 314.69)">
<path fill="#36399a" d="m0 0c-0.111 0-0.136 0.069-0.136 0.137v0.54h0.408v-0.507h0.509l-0.091-0.17h-0.69z"/>
</g>
</g>
<g transform="matrix(1 0 0 -1 233.93 919.36)">
<path fill-rule="evenodd" fill="#fff" d="m0 0c-0.001 0 0 0 0 0z"/>
</g>
<g transform="matrix(1 0 0 -1 233.93 919.36)">
<path fill="#fff" d="m0 0c-0.001 0 0 0 0 0z"/>
</g>
<g transform="matrix(1 0 0 -1 233.93 919.36)">
<path fill="#1a5dad" d="m0 0z"/>
</g>
<g transform="matrix(1 0 0 -1 233.93 919.36)">
<path fill="#1a5dad" d="m0 0z"/>
</g>
<g transform="matrix(1 0 0 -1 233.93 919.36)">
<path fill="#1a5dad" d="m0 0z"/>
</g>
<g transform="matrix(1 0 0 -1 233.93 919.36)">
<path fill="#1a5dad" d="m0 0z"/>
</g>
<g transform="matrix(1 0 0 -1 233.93 919.36)">
<path fill="#1a5dad" d="m0 0z"/>
</g>
<g transform="matrix(1 0 0 -1 233.93 919.36)">
<path fill="#1a5dad" d="m0 0z"/>
</g>
<g transform="matrix(1 0 0 -1 233.93 919.36)">
<path fill="#1a5dad" d="m0 0z"/>
</g>
<g transform="matrix(1 0 0 -1 233.93 919.36)">
<path fill="#ef1897" d="m0 0z"/>
</g>
<path fill="#1a5dad" d="m233.93 919.36z"/>
<g transform="matrix(1 0 0 -1 233.93 919.36)">
<path fill="#ef1897" d="m0 0z"/>
</g>
<g transform="matrix(1 0 0 -1 233.93 919.36)">
<path fill="#1a5dad" d="m0 0z"/>
</g>
</g>
</svg>
