<?xml version="1.0" encoding="UTF-8" standalone="no"?>
<svg xmlns="http://www.w3.org/2000/svg" viewBox="0 0 174.86932 23.917332" xmlns:cc="http://creativecommons.org/ns#" version="1.1" xmlns:rdf="http://www.w3.org/1999/02/22-rdf-syntax-ns#" width="174.87" height="23.917" xml:space="preserve" xmlns:dc="http://purl.org/dc/elements/1.1/"><metadata><rdf:RDF><cc:Work rdf:about=""><dc:format>image/svg+xml</dc:format><dc:type rdf:resource="http://purl.org/dc/dcmitype/StillImage"/></cc:Work></rdf:RDF></metadata><path fill="#fff" d="m170.94 6.4627h0.72l1.2413 3.3187 1.252-3.3187h0.72v3.9493h-0.496v-3.2853h-0.012l-1.236 3.2853h-0.44666l-1.2333-3.2853h-0.012v3.2853h-0.49733zm-2.2907 0.44267h-1.3187v-0.44267h3.1573v0.44267h-1.3147v3.5067h-0.524zm-141.65 15.278c-2.1013 0-4.0427-0.56267-5.4733-1.5907-1.2413-0.892-1.9387-2.0347-1.9387-3.2187 0.004-1.5867 1.2227-2.6773 1.9387-3.1853 1.436-1.0173 3.3867-1.5707 5.492-1.5707 2.112 0 4.0693 0.556 5.5187 1.5733 0.72533 0.50933 1.952 1.5987 1.956 3.1827-0.012 2.6453-3.456 4.8067-7.4933 4.8093zm-11.247-9.36c0.744 0.14 1.5253 0.21333 2.3307 0.21333 0.82533 0 1.6253-0.07733 2.384-0.22133-1.1307 0.816-1.956 1.8453-2.348 3.0027-0.39867-1.152-1.232-2.1813-2.3667-2.9947zm-6.6093 9.36c-2.0947 0-4.036-0.56267-5.4707-1.5907-1.24-0.892-1.936-2.0347-1.936-3.2187 0.003-1.5867 1.2213-2.6773 1.9387-3.1867 1.4347-1.016 3.384-1.572 5.4933-1.572 2.1107 0 4.0693 0.556 5.5173 1.576 0.724 0.512 1.9547 1.5987 1.9587 3.1827-0.0147 2.6453-3.4613 4.8067-7.5013 4.8093zm1.532-15.691c0.003-1.5893 1.2227-2.68 1.9387-3.1867 1.4387-1.0173 3.3853-1.572 5.4933-1.572 2.1133 0 4.072 0.55733 5.5187 1.572 0.72267 0.51333 1.952 1.6027 1.9573 3.1867-0.016 2.644-3.4613 4.8053-7.4973 4.808-2.0987 0-4.0413-0.56133-5.472-1.5907-1.2413-0.892-1.9387-2.032-1.9387-3.2173zm16.343 4.389c-0.82533 0-1.624 0.07867-2.3827 0.22 1.658-1.181 2.679-2.8117 2.679-4.609 0-3.6147-4.108-6.492-9.207-6.492-5.0987 0-9.164 2.8773-9.164 6.492 0 1.804 1.004 3.4307 2.644 4.616-0.77-0.145-1.581-0.227-2.4197-0.227-5.0986 0-9.1653 2.878-9.1653 6.492 0 3.6133 4.0467 6.544 9.1413 6.544 4.3413 0 7.984-2.1227 8.9707-4.984 0.968 2.8613 4.5427 4.984 8.88 4.984 5.0987 0 9.2333-2.9307 9.2333-6.544 0-3.6147-4.1107-6.492-9.2093-6.492zm6.6453 6.5027c0 1.0853-0.72534 2.08-1.932 2.812-1.2013 0.73067-2.876 1.1867-4.7227 1.1867-1.848 0-3.504-0.456-4.6907-1.1867-1.1893-0.732-1.9027-1.7267-1.8987-2.812-0.004-1.0867 0.71333-2.0787 1.9067-2.7973 1.188-0.724 2.8507-1.172 4.6973-1.1693 1.8493-0.0027 3.5173 0.44533 4.716 1.1693 1.2013 0.71867 1.924 1.7107 1.924 2.7973zm-22.155-10.884c-0.001-1.0853 0.71467-2.076 1.9053-2.7987 1.192-0.72 2.8533-1.1693 4.7-1.168 1.8453-0.00133 3.516 0.448 4.7147 1.168 1.2 0.724 1.9227 1.7133 1.9227 2.7987 0 1.084-0.728 2.0813-1.932 2.8147-1.2027 0.72933-2.872 1.1853-4.72 1.1853-1.8507 0-3.5053-0.456-4.692-1.1853-1.1893-0.73333-1.9-1.728-1.8987-2.8147zm4.304 10.884c0 1.0853-0.72533 2.08-1.9307 2.812-1.2053 0.73067-2.876 1.1867-4.724 1.1867-1.8493 0-3.504-0.456-4.6893-1.1867-1.1893-0.732-1.9027-1.7267-1.9-2.812-0.003-1.0867 0.712-2.0787 1.9053-2.8 1.192-0.72133 2.852-1.1667 4.7-1.1667s3.516 0.44533 4.7147 1.1667c1.2 0.724 1.924 1.7133 1.924 2.8z"/></svg>
