<?xml version="1.0" encoding="UTF-8" standalone="no"?>
<svg version="1.1" xmlns:cc="http://creativecommons.org/ns#" width="174.87" viewBox="0 0 174.86932 23.917332" xmlns:rdf="http://www.w3.org/1999/02/22-rdf-syntax-ns#" height="23.917" xmlns="http://www.w3.org/2000/svg" xml:space="preserve" xmlns:dc="http://purl.org/dc/elements/1.1/"><metadata><rdf:RDF><cc:Work rdf:about=""><dc:format>image/svg+xml</dc:format><dc:type rdf:resource="http://purl.org/dc/dcmitype/StillImage"/></cc:Work></rdf:RDF></metadata><path fill="#fff" d="m170.94 6.4627h0.72l1.2413 3.3187 1.252-3.3187h0.72v3.9493h-0.496v-3.2853h-0.012l-1.236 3.2853h-0.44666l-1.2333-3.2853h-0.012v3.2853h-0.49zm-2.2907 0.44267h-1.3187v-0.4427h3.1573v0.44267h-1.3147v3.5067h-0.524zm-141.65 15.278c-2.1013 0-4.0427-0.56267-5.4733-1.5907-1.2413-0.892-1.9387-2.0347-1.9387-3.2187 0.004-1.5867 1.2227-2.6773 1.9387-3.1853 1.436-1.0173 3.3867-1.5707 5.492-1.5707 2.112 0 4.0693 0.556 5.5187 1.5733 0.72533 0.50933 1.952 1.5987 1.956 3.1827-0.012 2.6453-3.456 4.8067-7.4933 4.8093zm-11.247-9.36c0.744 0.14 1.5253 0.21333 2.3307 0.21333 0.82533 0 1.6253-0.07733 2.384-0.22133-1.1307 0.816-1.956 1.8453-2.348 3.0027-0.39867-1.152-1.232-2.1813-2.3667-2.9947zm-6.6093 9.36c-2.0947 0-4.036-0.56267-5.4707-1.5907-1.24-0.892-1.936-2.0347-1.936-3.2187 0.003-1.5867 1.2213-2.6773 1.9387-3.1867 1.4347-1.016 3.384-1.572 5.4933-1.572 2.1107 0 4.0693 0.556 5.5173 1.576 0.724 0.512 1.9547 1.5987 1.9587 3.1827-0.0147 2.6453-3.4613 4.8067-7.5013 4.8093zm1.532-15.691c0.003-1.5893 1.2227-2.68 1.9387-3.1867 1.4387-1.0173 3.3853-1.572 5.4933-1.572 2.1133 0 4.072 0.55733 5.5187 1.572 0.72267 0.51333 1.952 1.6027 1.9573 3.1867-0.016 2.644-3.4613 4.8053-7.4973 4.808-2.0987 0-4.0413-0.56133-5.472-1.5907-1.2413-0.892-1.9387-2.032-1.9387-3.2173zm16.343 4.389c-0.82533 0-1.624 0.07867-2.3827 0.22 1.658-1.181 2.679-2.8117 2.679-4.609 0-3.6147-4.108-6.492-9.207-6.492-5.0987 0-9.164 2.8773-9.164 6.492 0 1.804 1.004 3.4307 2.644 4.616-0.77-0.145-1.581-0.227-2.4197-0.227-5.0986 0-9.1653 2.878-9.1653 6.492 0 3.6133 4.0467 6.544 9.1413 6.544 4.3413 0 7.984-2.1227 8.9707-4.984 0.968 2.8613 4.5427 4.984 8.88 4.984 5.0987 0 9.2333-2.9307 9.2333-6.544 0-3.6147-4.1107-6.492-9.2093-6.492zm6.6453 6.5027c0 1.0853-0.72534 2.08-1.932 2.812-1.2013 0.73067-2.876 1.1867-4.7227 1.1867-1.848 0-3.504-0.456-4.6907-1.1867-1.1893-0.732-1.9027-1.7267-1.8987-2.812-0.004-1.0867 0.71333-2.0787 1.9067-2.7973 1.188-0.724 2.8507-1.172 4.6973-1.1693 1.8493-0.0027 3.5173 0.44533 4.716 1.1693 1.2013 0.71867 1.924 1.7107 1.924 2.7973zm-22.155-10.884c-0.001-1.0853 0.71467-2.076 1.9053-2.7987 1.192-0.72 2.8533-1.1693 4.7-1.168 1.8453-0.00133 3.516 0.448 4.7147 1.168 1.2 0.724 1.9227 1.7133 1.9227 2.7987 0 1.084-0.728 2.0813-1.932 2.8147-1.2027 0.72933-2.872 1.1853-4.72 1.1853-1.8507 0-3.5053-0.456-4.692-1.1853-1.1893-0.73333-1.9-1.728-1.8987-2.8147zm4.304 10.884c0 1.0853-0.72533 2.08-1.9307 2.812-1.2053 0.73067-2.876 1.1867-4.724 1.1867-1.8493 0-3.504-0.456-4.6893-1.1867-1.1893-0.732-1.9027-1.7267-1.9-2.812-0.003-1.0867 0.712-2.0787 1.9053-2.8 1.192-0.72133 2.852-1.1667 4.7-1.1667s3.516 0.44533 4.7147 1.1667c1.2 0.724 1.924 1.7133 1.924 2.8zm38.937-15.108-0.779 3.9893-0.169 0.0574c-0.31067-0.43333-0.49467-0.60533-0.924-0.936-0.956-0.73467-2.084-1.1493-3.2387-1.1493-0.90666 0-1.6547 0.28133-2.1787 0.75067-0.526 0.4732-0.822 1.1386-0.822 1.8826 0.003 1.408 0.964 2.0933 2.679 3.1226l0.66667 0.37733c1.4387 0.94133 3.6653 2.3853 3.6667 5.6627-0.007 3.72-2.392 7.4587-8.1147 7.4653-1.404 0-2.7773-0.248-4.0973-0.748-0.89333-0.336-1.3227-0.63467-1.864-1.032l-0.0427-0.256 0.75866-3.8947 0.17067-0.05867c0.34133 0.444 0.776 0.808 1.424 1.236 1.376 0.92 2.6987 1.0173 3.264 1.0173 2.0227-0.0013 3.608-1.1533 3.608-2.9467-0.003-1.6013-1.2693-2.4067-2.596-3.1867l-0.91333-0.564c-1.4387-0.944-3.4427-2.228-3.4467-5.44 0-1.2387 0.356-3.0093 1.452-4.4627 1.4413-1.912 3.712-2.5973 5.996-2.6 2.944 0.002667 4.6293 1.0413 5.416 1.5493zm9.581 7.56-0.176 0.172-2.549-0.0627-1.183 5.5637c-0.164 0.696-0.52666 2.4387-0.52666 3.0013-0.001 0.52267 0.192 0.88133 0.46933 1.0933 0.27733 0.21333 0.61733 0.284 0.92133 0.28533 0.712 0 0.96-0.19867 1.4333-0.37867l0.0813 0.08-0.62534 3.2027-0.21733 0.212c-0.872 0.18533-1.5227 0.33733-2.4427 0.33733-2.372-0.016-4.0867-0.812-4.096-3.5787 0-1.2947 0.52533-3.6507 0.912-5.4067l0.94-4.416-2.0053 0.066666-0.11733-0.17333 0.584-3.112 0.184-0.10267h2.0347l0.81733-4.0987 0.15733-0.17867c2.036-0.52267 2.628-0.77333 4.484-1.384l0.096 0.11067-0.616 2.6427-0.63333 2.972 2.6107-0.076 0.0707 0.13333zm8.9213 8.4227s-0.884 1.388-2.1613 1.8853c-1.2787 0.49733-2.1947 0.104-2.5627-0.39067-0.28933-0.38533-0.89466-1.608 0.25734-2.9827 1.166-1.386 5.026-1.474 5.026-1.474zm3.81-10.942c-0.936-0.6586-2.434-0.9986-4.483-0.9986-1.0133 0-2.0347 0.098667-3.0587 0.29333-0.91733 0.17333-1.488 0.32-1.972 0.46267l-0.132 0.13333-0.664 3.408 0.21334 0.12933c0.428-0.196 1.056-0.44 1.88-0.72933 0.84933-0.3 1.624-0.448 2.3293-0.448 1.0293 0 1.8053 0.13867 2.3453 0.43067 0.544 0.29333 0.93867 0.94267 0.93734 1.66 0 0.17333-0.012 0.328-0.04 0.46933-0.024 0.12933-0.0427 0.224-0.0467 0.28133l-0.0107 0.07333s-0.33333 0.02133-0.68533 0.05333c-0.236 0.02133-0.53067 0.052-0.872 0.09467-0.56667 0.06267-1.212 0.14133-1.776 0.236-1.3547 0.22667-5.1627 0.81733-6.304 3.3707-1.2 2.0907-0.992 4.8613 0.18133 6.2147 0.41334 0.47467 1.0493 0.924 1.9027 1.0973l-0.001 0.004c0.0387 0.008 0.172 0.028 0.19733 0.03333 3.2973 0.50933 5.6573-2.3613 5.6573-2.3613l-0.35333 1.772 0.14667 0.124 3.704-0.124 0.148-0.13467 2.1773-10.941c0.048-0.23067 0.0827-0.504 0.112-0.81333 0.0253-0.31333 0.04-0.56667 0.04-0.756-0.004-1.4013-0.634-2.3733-1.573-3.0347zm88.841 2.9027c0 0.98933-0.22133 2.0187-0.44133 3.02l-1.8907 9.6413-0.144 0.116-4.2507 0.148-0.108-0.148s2.18-10.649 2.18-11.18c0-0.48267-0.252-1.776-1.6107-1.776-1.064 0-2.1667 1.0787-2.1667 1.0787l-2.2947 11.761-0.14266 0.116-1.832 0.064v-0.0013l-1.6373 0.05733-0.81333 0.028-0.0507-0.06933-0.0507-0.07867s0.332-1.6227 0.73733-3.6293h-0.009c0.636-3.1387 1.4467-7.2267 1.4467-7.5507 0-0.48267-0.25333-1.776-1.6107-1.776-1.0627 0-2.1653 1.0787-2.1653 1.0787l-2.2987 11.761-0.14 0.116-0.65867 0.024-3.624 0.12-0.0907-0.144 3.188-16.377 0.16-0.16 4.244-0.40133 0.17067 0.17467-0.44933 2.3027s2.0453-2.2387 4.6587-2.2933c2.436-0.046667 2.9467 2.2933 2.9467 2.2933s2.424-2.3493 5.0093-2.2933c1.308 0.010667 3.732 0.588 3.7387 3.9773zm-21.761-4.1253-0.904 4.708-0.192 0.19067c-0.25867-0.044-0.588-0.084-0.97734-0.084-1.2213-0.0013-2.9587 0.39067-4.3173 2.192l-0.0147 0.016-1.8707 9.764-0.132 0.116-4.0627 0.12-0.10667-0.104 3.1947-16.393 0.17467-0.17067 4.0227-0.39067 0.16 0.17467-0.464 2.372 0.19467-0.18c0.84-0.76 1.588-1.2893 2.424-1.7653 0.824-0.472 1.6507-0.70933 2.4813-0.70933 0.0813 0 0.16534 0.00133 0.252 0.00667zm-17.97 12.164s-0.88533 1.388-2.1627 1.8853c-1.28 0.49733-2.2 0.104-2.5627-0.39067-0.29067-0.38533-0.89467-1.608 0.256-2.9827 1.1653-1.3853 5.024-1.4733 5.024-1.4733zm3.81-10.942c-0.936-0.65867-2.4333-0.99867-4.4813-0.99867-1.0147 0-2.036 0.098667-3.0627 0.29333-0.91467 0.17333-1.4853 0.32-1.972 0.46267l-0.132 0.13333-0.664 3.408 0.21467 0.12933c0.42933-0.196 1.0547-0.44 1.884-0.72933 0.844-0.3 1.6213-0.448 2.3267-0.448 1.0253 0 1.8053 0.13867 2.344 0.43067 0.54534 0.29333 0.94 0.94267 0.93867 1.66 0 0.17333-0.0147 0.328-0.0387 0.46933-0.028 0.12933-0.0453 0.224-0.0507 0.28133l-0.008 0.07333s-0.332 0.02133-0.68534 0.05333c-0.236 0.02133-0.532 0.052-0.872 0.09467-0.56666 0.06267-1.2133 0.14133-1.7747 0.236-1.3573 0.22667-5.1653 0.81733-6.3067 3.3707-1.1973 2.0907-0.992 4.8613 0.184 6.2147 0.412 0.47467 1.0453 0.924 1.9013 1.0973v0.004c0.0373 0.008 0.16934 0.028 0.19467 0.03333 3.2973 0.50933 5.656-2.3613 5.656-2.3613l-0.35067 1.772 0.14267 0.124 3.704-0.124 0.15067-0.13467 2.1787-10.941c0.048-0.23067 0.0827-0.504 0.10934-0.81333 0.024-0.31333 0.04-0.56667 0.04-0.756-0.001-1.4013-0.63334-2.3733-1.5707-3.0347zm-9.516-2.7333-0.13867 0.15467-6.732-0.013333-1.096 5.6187 5.8907-0.17867 0.088 0.13733c-0.48533 1.62-0.59733 2.0747-0.924 3.484l-0.15067 0.14267-5.6027-0.012-0.73734 3.9-0.93333 5.064-0.12133 0.116-4.8307 0.124-0.056-0.124 0.836-4.3093 1.2773-6.088c0.96667-4.7293 1.2453-6.24 2.156-11.389l0.14534-0.14533h7.0533l4.4787-0.11333 0.0867 0.11333zm-31.472 5.252-0.17467 0.172-2.552-0.062666-1.18 5.564c-0.168 0.696-0.52666 2.4387-0.52666 3.0013-0.003 0.52267 0.19066 0.88133 0.468 1.0933 0.27466 0.21333 0.61866 0.284 0.92266 0.28533 0.70934 0 0.95867-0.19867 1.432-0.37867l0.0813 0.08-0.624 3.2027-0.21734 0.212c-0.872 0.18533-1.5227 0.33733-2.4467 0.33733-2.368-0.016-4.0827-0.812-4.0947-3.5787 0-1.2947 0.52533-3.6507 0.91333-5.4067l0.94-4.416-2.004 0.066666-0.11866-0.17333 0.584-3.112 0.184-0.10267h2.036l0.81333-4.0987 0.15867-0.17867c2.036-0.52267 2.6253-0.77333 4.4853-1.384l0.096 0.11067-0.61733 2.6427-0.63334 2.972 2.6107-0.076 0.072 0.13333zm10.067 2.9187-0.0133 0.076-2.5947 0.032-2.5613 0.032 0.024-0.08533 0.012-0.036c0.0493-0.18267 0.10267-0.37867 0.16934-0.58 0.17866-0.564 0.42933-1.1773 0.876-1.7413 0.0773-0.1 0.15733-0.19467 0.24933-0.28933 0.79067-0.86533 1.544-1.0027 2.0293-1.0027 0.68934 0 1.1933 0.27467 1.5147 0.68533 0.0547 0.069333 0.0987 0.14133 0.144 0.22 0.15867 0.27067 0.256 0.58267 0.292 0.904 0.0187 0.116 0.0253 0.23733 0.0253 0.356 0 0.48267-0.0867 0.95733-0.16666 1.4293zm1.7493-5.616 0.0467-0.078667-0.0493 0.076c-0.89333-0.612-2.1813-0.89333-3.4427-0.89333-2.8653 0-4.912 1.4173-6.256 3.4067-1.34 1.992-1.9693 4.564-1.9693 6.852 0 1.6533 0.24667 3.196 1.2573 4.5867 0.49733 0.68 1.7 2.312 5.5853 2.3187 2.704-0.0027 3.984-0.704 4.676-1.1093l0.116-0.15867c0.13333-0.58933 0.592-3.2787 0.77733-3.9533l-0.144-0.10667c-1.3613 1.0827-2.8493 1.8733-4.5413 1.8733-1.1333 0-1.9987-0.27067-2.5787-0.78667-0.58-0.52-0.868-1.28-0.864-2.2227 0-0.35067 0.0267-0.66667 0.0547-1.0147l0.008-0.08133 0.0787-0.0027c2.6453-0.06933 3.9933-0.104 6.208-0.104 0.72266 0 1.5387 0.0027 2.524 0.01067l0.16933-0.12c0.22133-1.0267 0.46267-2.2013 0.46267-3.6453 0-1.2827-0.13734-3.5587-2.1187-4.8467"/></svg>
