<?xml version="1.0" encoding="UTF-8" standalone="no"?>
<svg xmlns:dc="http://purl.org/dc/elements/1.1/" xmlns="http://www.w3.org/2000/svg" xmlns:rdf="http://www.w3.org/1999/02/22-rdf-syntax-ns#" version="1.1" xml:space="preserve" y="0px" x="0px" xmlns:cc="http://creativecommons.org/ns#" viewBox="0 0 300 160" enable-background="new 0 0 300 160"><metadata><rdf:RDF><cc:Work rdf:about=""><dc:format>image/svg+xml</dc:format><dc:type rdf:resource="http://purl.org/dc/dcmitype/StillImage"/></cc:Work></rdf:RDF></metadata>
<path d="m7.634 80.531c0-39.62 32.111-71.718 71.719-71.718s71.719 32.098 71.719 71.718c0 39.597-32.11 71.707-71.719 71.707s-71.717-32.11-71.717-71.709m112.84 0.509h7.752l-17.41-39.718h-11.405l17.476 39.718h-7.958v10.546c0.024 6.386-2.661 9.119-11.345 8.998v20.343h11.308v-20.343h3.737c3.302 0.097 7.789-2.588 7.849-7.813v-11.727zm-54.783-39.718c-17.464 0-31.844 12.191-31.844 30.284 0 15.214 9.167 26.075 22.834 28.154v21.166h28.446v-20.343h3.955c4.62-0.436 7.74-3.483 7.789-7.777v-11.773h7.752l-17.635-39.718h-21.298zm15.71 34.457c4.052 0 7.329-3.278 7.329-7.342 0-4.051-3.277-7.329-7.329-7.329s-7.341 3.277-7.341 7.329c0 4.064 3.289 7.342 7.341 7.342"/>
</svg>
