<?xml version="1.0" encoding="UTF-8" standalone="no"?>
<svg width="310.28px" xmlns:cc="http://creativecommons.org/ns#" x="0px" y="0px" xmlns="http://www.w3.org/2000/svg" height="100.23px" xml:space="preserve" xmlns:rdf="http://www.w3.org/1999/02/22-rdf-syntax-ns#" version="1.1" xmlns:dc="http://purl.org/dc/elements/1.1/" viewBox="0 0 310.276 100.233" enable-background="new 0 0 310.276 100.233"><metadata><rdf:RDF><cc:Work rdf:about=""><dc:format>image/svg+xml</dc:format><dc:type rdf:resource="http://purl.org/dc/dcmitype/StillImage"/></cc:Work></rdf:RDF></metadata>
	<polyline points="0 0.001 0 100.23 310.28 100.23 310.28 0.001" fill="none"/>
	<rect width="42.169" height="43.076" x="187.64" y="56.76" fill="#231F20"/>
	<path d="m187.63 100.23h-0.396v-43.866h42.961v43.867h-42.56zm41.77-0.79v-42.285h-41.376v42.285h41.38z" fill="#231F20"/>
	<rect width="40.919" height="40.807" x="188.88" y="56.756" fill="#FFF200"/>
	<path d="m188.88 97.893h-0.328v-41.469h41.573v41.469h-41.24zm0.33-0.66l40.26-0.004v-40.145h-40.26v40.149z" fill="#231F20"/>
	<rect width="42.169" height="43.076" x="133.91" y="56.76" fill="#231F20"/>
	<path d="m133.91 100.23h-0.394v-43.866h42.958v43.867h-42.57zm41.77-0.79v-42.287h-41.374v42.287h41.37z" fill="#231F20"/>
	<rect width="40.918" height="40.807" x="135.16" y="56.756" fill="#FFF200"/>
	<path d="m135.16 97.891h-0.332v-41.467h41.577v41.467h-41.25zm40.59-0.658v-40.149h-40.26v40.148h40.26v0.001z" fill="#231F20"/>
	<rect width="42.168" height="43.076" x="80.258" y="56.76" fill="#231F20"/>
	<path d="m80.258 100.23h-0.395v-43.866h42.959v43.867h-42.562zm41.772-0.79v-42.287h-41.377v42.287h41.377z" fill="#231F20"/>
	<rect width="40.918" height="40.807" x="81.622" y="56.756" fill="#FFF200"/>
	<path d="m81.622 97.891h-0.331v-41.467h41.578v41.467h-41.248zm40.588-0.658v-40.149h-40.26v40.148h40.26v0.001z" fill="#231F20"/>
	<rect width="42.169" height="43.078" x="53.997" y=".402" fill="#231F20"/>
	<path d="m53.998 43.874h-0.398v-43.867h42.96v43.867h-42.562zm41.771-0.792v-42.288h-41.377v42.288h41.377z" fill="#231F20"/>
	<rect width="40.918" height="40.806" x="55.248" y=".4" fill="#FFF200"/>
	<path d="m55.247 41.536h-0.33v-41.465h41.579v41.465h-41.249zm40.587-0.661v-40.147h-40.257v40.147h40.257z" fill="#231F20"/>
	<rect width="42.169" height="43.078" x="107.32" y=".402" fill="#231F20"/>
	<path d="m107.32 43.877h-0.394v-43.872h42.961v43.872h-42.57zm41.78-0.792v-42.289h-41.378v42.289h41.38z" fill="#231F20"/>
	<rect width="41.033" height="40.806" x="108.48" y=".4" fill="#FFF200"/>
	<path d="m108.48 41.533h-0.33v-41.462h41.691v41.462h-41.36zm40.7-0.656v-40.15h-40.375v40.15h40.38z" fill="#231F20"/>
	<rect width="42.168" height="43.078" x="160.9" y=".402" fill="#231F20"/>
	<path d="m160.9 43.874h-0.394v-43.871h42.956v43.871h-42.57zm41.77-0.79v-42.286h-41.378v42.287h41.38v-0.001z" fill="#231F20"/>
	<rect width="40.917" height="40.806" x="162.15" y=".4" fill="#FFF200"/>
	<path d="m162.15 41.535h-0.332v-41.467h41.578v41.467h-41.25zm40.59-0.659v-40.15h-40.26v40.15h40.26z" fill="#231F20"/>
	<rect width="42.169" height="43.078" x="214.36" y=".402" fill="#231F20"/>
	<path d="m214.36 43.877h-0.396v-43.873h42.956v43.873h-42.56zm41.76-0.793v-42.288h-41.376v42.288h41.38z" fill="#231F20"/>
	<rect width="41.033" height="40.806" x="215.6" y=".4" fill="#FFF200"/>
	<path d="m215.6 41.537h-0.328v-41.466h41.69v41.466h-41.36zm40.71-0.661v-40.149h-40.375v40.149h40.37z" fill="#231F20"/>
	<path d="m288.52 96.726c0 2.004 1.602 3.503 3.511 3.503 1.901 0 3.491-1.499 3.491-3.503 0-1.963-1.59-3.462-3.491-3.462-1.91-0.001-3.51 1.498-3.51 3.461m0.63 0c0-1.665 1.248-2.951 2.877-2.951 1.609 0 2.859 1.286 2.859 2.951 0 1.704-1.25 2.99-2.859 2.99-1.63 0-2.88-1.286-2.88-2.99zm1.52 2.048h0.634v-1.748h0.672l1.106 1.748h0.68l-1.165-1.794c0.605-0.068 1.072-0.374 1.072-1.11 0-0.781-0.458-1.163-1.426-1.163h-1.573v4.067zm0.63-3.555h0.839c0.428 0 0.893 0.085 0.893 0.624 0 0.642-0.513 0.67-1.07 0.67h-0.661v-1.294z" fill="#231F20"/>
	<rect width="42.169" height="43.078" x=".396" y=".402" fill="#231F20"/>
	<path d="m0.396 43.874h-0.394v-43.867h42.959v43.867h-42.565zm41.77-0.792v-42.288h-41.373v42.288h41.373z" fill="#231F20"/>
	<rect width="40.919" height="40.806" x="1.646" y=".4" fill="#FFF200"/>
	<path d="m1.646 41.536h-0.33v-41.465h41.578v41.465h-41.248zm40.588-0.661v-40.147h-40.257v40.147h40.257z" fill="#231F20"/>
	<rect width="42.169" height="43.076" x="26.67" y="56.76" fill="#231F20"/>
	<path d="m26.671 100.23h-0.399v-43.866h42.963v43.867h-42.564zm41.771-0.79v-42.287h-41.376v42.287h41.376z" fill="#231F20"/>
	<rect width="40.919" height="40.807" x="27.92" y="56.756" fill="#FFF200"/>
	<path d="m27.92 97.891h-0.332v-41.467h41.578v41.467h-41.246zm40.588-0.658v-40.149h-40.26v40.148h40.26v0.001z" fill="#231F20"/>
	<rect width="42.167" height="43.078" x="267.71" y=".396" fill="#231F20"/>
	<path d="m267.71 43.869h-0.398v-43.869h42.96v43.869h-42.56zm41.77-0.791v-42.287h-41.378v42.288h41.38v-0.001z" fill="#231F20"/>
	<rect width="40.919" height="40.806" x="268.96" y=".394" fill="#FFF200"/>
	<path d="m268.96 41.528h-0.33v-41.463h41.575v41.463h-41.24zm40.59-0.658v-40.147h-40.26v40.147h40.26z" fill="#231F20"/>
	<rect width="42.169" height="43.076" x="241.34" y="56.76" fill="#231F20"/>
	<path d="m241.34 100.23h-0.396v-43.868h42.96v43.871h-42.56zm41.77-0.792v-42.281h-41.378v42.281h41.38z" fill="#231F20"/>
	<rect width="40.92" height="40.807" x="242.59" y="56.756" fill="#FFF200"/>
	<path d="m242.59 97.889h-0.328v-41.463h41.578v41.463h-41.25zm40.59-0.658v-40.149h-40.26v40.149h40.26z" fill="#231F20"/>
</svg>
