<?xml version="1.0" encoding="UTF-8" standalone="no"?>
<!DOCTYPE svg  PUBLIC '-//W3C//DTD SVG 1.1//EN'  'http://www.w3.org/Graphics/SVG/1.1/DTD/svg11.dtd'>
<svg width="310.28px" enable-background="new 0 0 310.276 100.233" version="1.1" x="0px" y="0px" xmlns="http://www.w3.org/2000/svg" xml:space="preserve" height="100.23px" viewBox="0 0 310.276 100.233">
	<polyline points="0 0.001 0 100.23 310.28 100.23 310.28 0.001" fill="none"/>
	<rect width="42.169" fill="#231F20" height="43.076" x="187.64" y="56.76"/>
	<path d="m187.63 100.23h-0.396v-43.866h42.961v43.867h-42.56zm41.77-0.79v-42.285h-41.376v42.285h41.38z" fill="#231F20"/>
	<rect width="40.919" fill="#FFF200" height="40.807" x="188.88" y="56.756"/>
	<path d="m188.88 97.893h-0.328v-41.469h41.573v41.469h-41.24zm0.33-0.66l40.26-0.004v-40.145h-40.26v40.149z" fill="#231F20"/>
	<rect width="42.169" fill="#231F20" height="43.076" x="133.91" y="56.76"/>
	<path d="m133.91 100.23h-0.394v-43.866h42.958v43.867h-42.57zm41.77-0.79v-42.287h-41.374v42.287h41.37z" fill="#231F20"/>
	<rect width="40.918" fill="#FFF200" height="40.807" x="135.16" y="56.756"/>
	<path d="m135.16 97.891h-0.332v-41.467h41.577v41.467h-41.25zm40.59-0.658v-40.149h-40.26v40.148h40.26v0.001z" fill="#231F20"/>
	<rect width="42.168" fill="#231F20" height="43.076" x="80.258" y="56.76"/>
	<path d="m80.258 100.23h-0.395v-43.866h42.959v43.867h-42.562zm41.772-0.79v-42.287h-41.377v42.287h41.377z" fill="#231F20"/>
	<rect width="40.918" fill="#FFF200" height="40.807" x="81.622" y="56.756"/>
	<path d="m81.622 97.891h-0.331v-41.467h41.578v41.467h-41.248zm40.588-0.658v-40.149h-40.26v40.148h40.26v0.001z" fill="#231F20"/>
	<rect width="42.169" fill="#231F20" height="43.078" x="53.997" y=".402"/>
	<path d="m53.998 43.874h-0.398v-43.867h42.96v43.867h-42.562zm41.771-0.792v-42.288h-41.377v42.288h41.377z" fill="#231F20"/>
	<rect width="40.918" fill="#FFF200" height="40.806" x="55.248" y=".4"/>
	<path d="m55.247 41.536h-0.33v-41.465h41.579v41.465h-41.249zm40.587-0.661v-40.147h-40.257v40.147h40.257z" fill="#231F20"/>
	<rect width="42.169" fill="#231F20" height="43.078" x="107.32" y=".402"/>
	<path d="m107.32 43.877h-0.394v-43.872h42.961v43.872h-42.57zm41.78-0.792v-42.289h-41.378v42.289h41.38z" fill="#231F20"/>
	<rect width="41.033" fill="#FFF200" height="40.806" x="108.48" y=".4"/>
	<path d="m108.48 41.533h-0.33v-41.462h41.691v41.462h-41.36zm40.7-0.656v-40.15h-40.375v40.15h40.38z" fill="#231F20"/>
	<rect width="42.168" fill="#231F20" height="43.078" x="160.9" y=".402"/>
	<path d="m160.9 43.874h-0.394v-43.871h42.956v43.871h-42.57zm41.77-0.79v-42.286h-41.378v42.287h41.38v-0.001z" fill="#231F20"/>
	<rect width="40.917" fill="#FFF200" height="40.806" x="162.15" y=".4"/>
	<path d="m162.15 41.535h-0.332v-41.467h41.578v41.467h-41.25zm40.59-0.659v-40.15h-40.26v40.15h40.26z" fill="#231F20"/>
	<rect width="42.169" fill="#231F20" height="43.078" x="214.36" y=".402"/>
	<path d="m214.36 43.877h-0.396v-43.873h42.956v43.873h-42.56zm41.76-0.793v-42.288h-41.376v42.288h41.38z" fill="#231F20"/>
	<rect width="41.033" fill="#FFF200" height="40.806" x="215.6" y=".4"/>
	<path d="m215.6 41.537h-0.328v-41.466h41.69v41.466h-41.36zm40.71-0.661v-40.149h-40.375v40.149h40.37z" fill="#231F20"/>
	<path d="m288.52 96.726c0 2.004 1.602 3.503 3.511 3.503 1.901 0 3.491-1.499 3.491-3.503 0-1.963-1.59-3.462-3.491-3.462-1.91-0.001-3.51 1.498-3.51 3.461m0.63 0c0-1.665 1.248-2.951 2.877-2.951 1.609 0 2.859 1.286 2.859 2.951 0 1.704-1.25 2.99-2.859 2.99-1.63 0-2.88-1.286-2.88-2.99zm1.52 2.048h0.634v-1.748h0.672l1.106 1.748h0.68l-1.165-1.794c0.605-0.068 1.072-0.374 1.072-1.11 0-0.781-0.458-1.163-1.426-1.163h-1.573v4.067zm0.63-3.555h0.839c0.428 0 0.893 0.085 0.893 0.624 0 0.642-0.513 0.67-1.07 0.67h-0.661v-1.294z" fill="#231F20"/>
	<rect width="42.169" fill="#231F20" height="43.078" x=".396" y=".402"/>
	<path d="m0.396 43.874h-0.394v-43.867h42.959v43.867h-42.565zm41.77-0.792v-42.288h-41.373v42.288h41.373z" fill="#231F20"/>
	<rect width="40.919" fill="#FFF200" height="40.806" x="1.646" y=".4"/>
	<path d="m1.646 41.536h-0.33v-41.465h41.578v41.465h-41.248zm40.588-0.661v-40.147h-40.257v40.147h40.257z" fill="#231F20"/>
	<rect width="42.169" fill="#231F20" height="43.076" x="26.67" y="56.76"/>
	<path d="m26.671 100.23h-0.399v-43.866h42.963v43.867h-42.564zm41.771-0.79v-42.287h-41.376v42.287h41.376z" fill="#231F20"/>
	<rect width="40.919" fill="#FFF200" height="40.807" x="27.92" y="56.756"/>
	<path d="m27.92 97.891h-0.332v-41.467h41.578v41.467h-41.246zm40.588-0.658v-40.149h-40.26v40.148h40.26v0.001z" fill="#231F20"/>
	<rect width="42.167" fill="#231F20" height="43.078" x="267.71" y=".396"/>
	<path d="m267.71 43.869h-0.398v-43.869h42.96v43.869h-42.56zm41.77-0.791v-42.287h-41.378v42.288h41.38v-0.001z" fill="#231F20"/>
	<rect width="40.919" fill="#FFF200" height="40.806" x="268.96" y=".394"/>
	<path d="m268.96 41.528h-0.33v-41.463h41.575v41.463h-41.24zm40.59-0.658v-40.147h-40.26v40.147h40.26z" fill="#231F20"/>
	<rect width="42.169" fill="#231F20" height="43.076" x="241.34" y="56.76"/>
	<path d="m241.34 100.23h-0.396v-43.868h42.96v43.871h-42.56zm41.77-0.792v-42.281h-41.378v42.281h41.38z" fill="#231F20"/>
	<rect width="40.92" fill="#FFF200" height="40.807" x="242.59" y="56.756"/>
	<path d="m242.59 97.889h-0.328v-41.463h41.578v41.463h-41.25zm40.59-0.658v-40.149h-40.26v40.149h40.26z" fill="#231F20"/>
	<path d="m84.856 77.249c0-9.443 7.655-17.096 17.098-17.096s17.098 7.653 17.098 17.096-7.655 17.1-17.098 17.1-17.094-7.657-17.094-17.1m17.054 9.215c5.111 0 9.254-4.143 9.254-9.254 0-5.108-4.143-9.252-9.254-9.252s-9.252 4.144-9.252 9.252c0.003 5.112 4.144 9.254 9.252 9.254z" fill="#231F20"/>
	<path d="m221.39 63.45v7.055c-4.157-1.879-6.506-2.352-9.486-2.821-3.764-0.627-7.447 0.077-7.918 2.744 0 0.391 0.314 1.097 1.177 1.489 4.39 1.803 19.675 2.744 17.011 14.035-2.275 9.954-15.838 7.603-25.869 4.154v-7.84c9.091 4.701 17.951 6.897 18.736 0.941 0.547-4.471-17.326-2.901-18.814-12.075-0.941-6.035 5.329-9.329 11.129-9.721 5.33-0.313 10.66 1.491 14.03 2.039" fill="#231F20"/>
	<path d="m222.98 5.236h7.301v24.978h18.831c0.076 3.152 0 4.383 0 6.917h-26.131v-31.895" fill="#231F20"/>
	<path d="m115.95 5.259h26.106v6.921h-18.854v5.736h16.679v6.196h-16.679v13.052h-7.251v-31.905" fill="#231F20"/>
	<path d="m169.55 5.259h26.105v6.921h-18.854v5.736h16.68c0.066 2.109 0 3.757 0 6.196h-16.68v13.052h-7.25v-31.905" fill="#231F20"/>
	<path d="m276.28 5.259h26.169v6.921h-18.853v5.736h16.678c0.066 2.043 0 3.823 0 6.196h-16.678v6.131h18.853c0.066 3.165 0 4.351 0 6.921h-26.169v-31.905" fill="#231F20"/>
	<path d="m249.91 61.621h26.171v6.923h-18.853v5.735h16.678v6.196h-16.678v6.132h18.853c0.066 3.163 0 4.35 0 6.921h-26.171v-31.907" fill="#231F20"/>
	<path d="m149.84 61.621c0.065 2.704 0 6.132 0 9.363v7.713c0.065 4.416 1.451 7.777 6.526 7.58 4.614-0.066 5.077-3.363 5.141-7.58v-7.713-9.296h7.12c0.066 8.504 0 14.37 0 19.581-1.121 7.844-4.613 12.195-12.393 12.26-8.307 0.066-12.525-4.219-13.712-12.26 0-5.078 0.066-10.88 0-19.647 1.18 0.065 5.99-0.001 7.31-0.001" fill="#231F20"/>
	<path d="m34.341 61.621h7.449v12.725h13.646v-12.725h7.12v31.513h-7.12v-12.659h-13.646v12.658h-7.449v-31.512" fill="#231F20"/>
	<path d="m5.138 5.259h6.988c0.857 5.406 0.989 9.097 1.978 15.096 1.516-4.417 2.703-8.043 4.747-15.096h7.383c2.109 8.042 3.23 11.47 4.021 15.096l2.439-15.096h6.329l-4.68 31.247h-6.856c-1.121-4.285-4.087-15.163-5.472-20.041l-5.801 20.041h-6.196l-4.88-31.247" fill="#231F20"/>
	<path d="m72.15 5.209h7.219l11.968 32.007h-7.781l-2.42-7.127h-11.02l-2.512 7.127h-7.602l12.148-32.007m-0.197 19.635h7.346l-3.562-11.744h-0.088l-3.696 11.744z" fill="#231F20"/>
</svg>
