<?xml version="1.0" encoding="UTF-8" standalone="no"?>
<svg version="1.1" xmlns:cc="http://creativecommons.org/ns#" viewBox="0 0 300 146.37" xmlns:rdf="http://www.w3.org/1999/02/22-rdf-syntax-ns#" xmlns="http://www.w3.org/2000/svg" xmlns:dc="http://purl.org/dc/elements/1.1/">
<defs>
<clipPath id="a">
<path d="m406.79 304h-60.901v-29.714h60.901v29.71z"/>
</clipPath>
</defs>
<metadata>
<rdf:RDF>
<cc:Work rdf:about="">
<dc:format>image/svg+xml</dc:format>
<dc:type rdf:resource="http://purl.org/dc/dcmitype/StillImage"/>
<cc:license rdf:resource=""/>
<dc:title/>
</cc:Work>
</rdf:RDF>
</metadata>
<g transform="translate(-559.08 -313.13)">
<g transform="matrix(3.9409 0 0 3.9409 -960.06 -2371)">
<g transform="matrix(1.25 0 0 -1.25 -46.875 1061.1)">
<g clip-path="url(#a)">
<g transform="translate(405.72 287.39)">
<path stroke-width=".145" stroke="#bdbcbc" fill="#fff" stroke-linecap="round" d="m0 0c-0.389 0.294-0.453 0.339-2.791 1.109 2.025 0.498 2.112 0.551 2.471 0.787 0.813 0.551 1.247 1.465 1.184 2.455l-0.008 0.108c-0.165 1.589-2.212 4.587-3.59 5.26-0.909 0.434-1.92 0.373-2.716-0.162-0.375-0.248-0.425-0.282-1.964-2.383-0.15 2.455-0.439 6.784-0.51 7.189l-0.015 0.093-0.023 0.09c-0.263 0.951-1.009 1.665-1.997 1.913-1.649 0.411-6.01-0.818-7.18-2.024-0.687-0.717-0.951-1.682-0.714-2.587l0.048-0.18 0.081-0.167c0.112-0.231 0.407-0.72 2.938-4.691l0.933-1.47c-2.266 0.927-2.356 0.93-2.825 0.934-0.893 0.039-1.788-0.439-2.327-1.283l-0.01-0.016c-0.278-0.448-0.45-1.057-0.557-1.695 0.01951-1.8909 0.20095-4.7492 0.93063-7.2865 0.06626-0.23039-0.94661-0.77082-1.2408-1.4677-0.39606-0.93814-0.10025-2.1114 0.36919-2.6788 0.418-0.22 0.893-0.357 1.404-0.357 0.513 0 0.987 0.137 1.404 0.357h2.227c1.475-0.83 3.631-1.459 4.785-1.261 0.994 0.176 1.777 0.816 2.108 1.713l0.017 0.045c0.14 0.408 0.163 0.484 0.173 2.789 1.264-2.042 1.33-2.096 1.685-2.376 0.763-0.595 1.766-0.726 2.692-0.353 1.487 0.597 3.759 3.485 3.987 5.07 0.019 0.138 0.03 0.278 0.03 0.415 0 0.83-0.358 1.599-0.999 2.111z" stroke-linejoin="round"/>
<g transform="translate(-23.075,5.382)">
<path fill="none" stroke-width=".145" stroke-linecap="round" stroke="#bdbcbc" d="m0 0c0.004-0.002 0.005-0.002 0.008-0.002 0.003-0.002 0.004-0.002 0.008-0.002l-0.016 0.004z" stroke-linejoin="round"/>
<g transform="translate(20.06,-12.978)">
<path fill="none" stroke-width=".145" stroke-linecap="round" stroke="#bdbcbc" d="m0 0h-0.003c-0.002 0-0.003-0.003-0.006-0.004l0.009 0.004z" stroke-linejoin="round"/>
</g>
</g>
</g>
</g>
</g>
<g transform="matrix(1.25 0 0 -1.25 438.16 697.87)">
<path fill="#e9e9e9" d="m0 0c-0.361-0.578-0.512-2.394-0.387-3.601 0.043-0.398 0.114-0.73 0.221-0.927 0.144-0.275 0.386-0.439 0.662-0.448 0.175-0.009 0.286 0.02 3.614 1.093 0 0 1.479 0.47 1.487 0.473 0.366 0.095 0.616 0.433 0.64 0.866 0.024 0.445-0.207 0.836-0.583 0.978l-1.044 0.426c-3.578 1.476-3.737 1.532-3.919 1.534-0.275 0.013-0.52-0.128-0.691-0.394"/>
</g>
<g transform="matrix(1.25 0 0 -1.25 448.16 711.61)">
<path fill="#e9e9e9" d="m0 0c0.059 0.168 0.065 0.283 0.074 3.779 0 0 0.009 1.545 0.012 1.562 0.022 0.376-0.222 0.722-0.624 0.877-0.413 0.16-0.858 0.062-1.109-0.25 0 0-0.728-0.864-0.731-0.865-2.505-2.945-2.61-3.079-2.67-3.255-0.038-0.102-0.053-0.21-0.041-0.32 0.016-0.155 0.085-0.312 0.204-0.452 0.58-0.693 3.367-1.718 4.255-1.566 0.309 0.056 0.535 0.232 0.63 0.49"/>
</g>
<g transform="matrix(1.25 0 0 -1.25 455.22 710.09)">
<path fill="#e9e9e9" d="m0 0c0.842 0.335 2.676 2.667 2.804 3.563 0.044 0.313-0.053 0.581-0.269 0.754-0.139 0.106-0.25 0.147-3.573 1.239 0 0-1.461 0.482-1.477 0.49-0.355 0.138-0.757 0.011-1.028-0.324-0.282-0.343-0.326-0.794-0.099-1.137l0.587-0.955c1.975-3.208 2.124-3.434 2.266-3.546 0.22-0.171 0.501-0.202 0.789-0.084"/>
</g>
<g transform="matrix(1.25 0 0 -1.25 453.08 699.77)">
<path fill="#e9e9e9" d="m0 0c3.78 0.914 3.925 0.962 4.075 1.06 0.229 0.156 0.342 0.412 0.323 0.729 0 0.011 0.001 0.02 0 0.031-0.098 0.927-1.723 3.342-2.524 3.734-0.285 0.135-0.569 0.126-0.803-0.03-0.146-0.098-0.255-0.238-2.277-3.008 0 0-0.915-1.246-0.926-1.257-0.241-0.292-0.244-0.713-0.01-1.074 0.243-0.373 0.657-0.555 1.035-0.45 0 0-0.017-0.026-0.02-0.032 0.185 0.071 0.521 0.153 1.127 0.297"/>
</g>
<g transform="matrix(1.25 0 0 -1.25 448.33 695.87)">
<path fill="#e9e9e9" d="m0 0c-0.066 1.498-0.515 8.167-0.568 8.475-0.077 0.282-0.296 0.481-0.611 0.56-0.963 0.24-4.652-0.795-5.335-1.5-0.218-0.228-0.3-0.511-0.235-0.761 0.107-0.22 4.676-7.409 4.676-7.409 0.676-1.096 1.227-0.925 1.407-0.869s0.728 0.227 0.666 1.504"/>
</g>
<g transform="matrix(1.25 0 0 -1.25 438.54 696.93)">
<path fill="#bf2519" d="m0 0c-0.36-0.577-0.512-2.394-0.387-3.6 0.044-0.398 0.116-0.73 0.221-0.928 0.144-0.274 0.386-0.437 0.662-0.447 0.177-0.009 0.287 0.021 3.615 1.091 0 0 1.479 0.472 1.485 0.475 0.369 0.094 0.617 0.433 0.641 0.866 0.024 0.444-0.205 0.836-0.583 0.978 0 0-1.043 0.425-1.045 0.425-3.576 1.475-3.737 1.533-3.917 1.535-0.276 0.011-0.521-0.128-0.692-0.395"/>
</g>
<g transform="matrix(1.25 0 0 -1.25 448.54 710.67)">
<path fill="#bf2519" d="m0 0c0.058 0.168 0.065 0.283 0.075 3.779 0 0 0.008 1.545 0.009 1.56 0.024 0.379-0.221 0.724-0.622 0.878-0.413 0.159-0.858 0.061-1.108-0.25 0 0-0.73-0.866-0.732-0.866-2.505-2.943-2.61-3.079-2.671-3.253-0.037-0.102-0.052-0.212-0.04-0.321 0.015-0.156 0.086-0.31 0.203-0.454 0.581-0.69 3.367-1.715 4.257-1.563 0.309 0.056 0.534 0.23 0.629 0.49"/>
</g>
<g transform="matrix(1.25 0 0 -1.25 455.6 709.14)">
<path fill="#bf2519" d="m0 0c0.84 0.335 2.672 2.666 2.801 3.563 0.045 0.312-0.053 0.581-0.268 0.753-0.141 0.106-0.248 0.147-3.574 1.239 0 0-1.459 0.482-1.478 0.491-0.353 0.137-0.756 0.01-1.027-0.324-0.282-0.343-0.324-0.796-0.099-1.138l0.587-0.956c1.974-3.206 2.125-3.433 2.267-3.544 0.22-0.173 0.5-0.201 0.791-0.084"/>
</g>
<g transform="matrix(1.25 0 0 -1.25 453.46 698.83)">
<path fill="#bf2519" d="m0 0c3.78 0.916 3.926 0.964 4.075 1.062 0.229 0.154 0.344 0.412 0.324 0.726 0 0.01 0.002 0.021 0 0.032-0.097 0.928-1.723 3.342-2.524 3.734-0.284 0.136-0.568 0.127-0.804-0.031-0.146-0.095-0.253-0.239-2.277-3.007 0 0-0.914-1.245-0.925-1.257-0.241-0.293-0.245-0.713-0.009-1.073 0.244-0.373 0.656-0.555 1.034-0.45 0 0-0.015-0.027-0.019-0.032 0.186 0.07 0.519 0.152 1.125 0.296"/>
</g>
<g transform="matrix(1.25 0 0 -1.25 448.71 694.93)">
<path fill="#bf2519" d="m0 0c-0.065 1.498-0.516 8.168-0.569 8.477-0.076 0.28-0.295 0.48-0.609 0.559-0.965 0.239-4.653-0.794-5.336-1.499-0.22-0.229-0.301-0.511-0.235-0.761 0.108-0.221 4.677-7.41 4.677-7.41 0.675-1.095 1.226-0.925 1.407-0.868 0.179 0.055 0.727 0.225 0.665 1.502"/>
</g>
<g transform="matrix(1.25 0 0 -1.25 437.5 709.82)">
<path fill="#231f20" d="m0 0h0.139c0.113 0 0.219 0.006 0.219 0.133 0 0.114-0.097 0.126-0.184 0.126h-0.174v-0.259zm-0.114 0.361h0.298c0.195 0 0.286-0.071 0.286-0.233 0-0.146-0.093-0.207-0.215-0.22l0.235-0.359h-0.123l-0.222 0.349h-0.145v-0.349h-0.114v0.812zm0.263-1c0.329 0 0.594 0.259 0.594 0.602 0 0.337-0.265 0.597-0.594 0.597-0.33 0-0.595-0.26-0.595-0.604 0-0.336 0.265-0.595 0.595-0.595zm0 1.3c0.384 0 0.707-0.302 0.707-0.698 0-0.403-0.323-0.704-0.707-0.704-0.385 0-0.707 0.301-0.707 0.697 0 0.403 0.322 0.705 0.707 0.705"/>
</g>
</g>
</g>
</svg>
