<?xml version="1.0" encoding="UTF-8" standalone="no"?>
<svg xmlns:rdf="http://www.w3.org/1999/02/22-rdf-syntax-ns#" xmlns:cc="http://creativecommons.org/ns#" enable-background="new 0 0 300 245.333" xmlns:i="&amp;ns_ai;" i:pageBounds="-7050.5 7350.5 7349.5 -7049.5" x="0px" y="0px" height="245.33px" i:rulerOrigin="7050.5 7049.5" xmlns="http://www.w3.org/2000/svg" viewBox="0 0 300 245.333" i:viewOrigin="-0.1665 271.1665" xmlns:ns="&amp;ns_vars;" xmlns:dc="http://purl.org/dc/elements/1.1/" xml:space="preserve" version="1.0" xmlns:xlink="http://www.w3.org/1999/xlink" width="300px">
<metadata>
	<ns:variableSets>
		<ns:variableSet locked="none" varSetName="binding1">
			<ns:variables/>
			<ns:sampleDataSets/>
		</ns:variableSet>
	</ns:variableSets>
<rdf:RDF><cc:Work rdf:about=""><dc:format>image/svg+xml</dc:format><dc:type rdf:resource="http://purl.org/dc/dcmitype/StillImage"/><dc:title/></cc:Work></rdf:RDF></metadata>
<g i:dimmedPercent="50" i:layer="yes" i:rgbTrio="#4F008000FFFF">
		<defs>
			<rect id="b" x="9.549" y="11.523" height="220.45" width="283.24"/>
		</defs>
		<clipPath id="a">
			<use xlink:href="#b" overflow="visible"/>
		</clipPath>
		<path fill="#E21F26" clip-path="url(#a)" d="m245.2 144.02c-21.81-2.951-35.627-8.386-39.974-15.923-1.297-2.227-1.651-4.235-1.137-5.964 0.579-1.853 2.141-3.429 4.684-4.721 0.233-0.072 0.674-0.526 0.674-1.205 0-0.771-0.636-1.364-1.41-1.364-0.284 0-0.555 0.029-0.837 0.069-2.141 0.653-5.247 1.329-8.875 1.858-10.395 1.611-21.4 2.1-32.598 1.418-47.284-2.952-84.651-25.805-83.244-50.952 0.48-8.55 5.564-16.81 14.313-23.222 12.902-9.477 25.48-11.646 32.206-12.008 0.843-0.04 1.326-0.73 1.326-1.407 0-0.685-0.483-1.332-1.369-1.416-9.315-0.61-34.784 1.206-55.414 10.883-17.899 8.38-28.176 20.431-28.947 33.849-0.728 13.59 8.268 26.896 25.397 37.494 16.933 10.443 39.824 17.051 64.45 18.539 8.101 0.526 16.208 0.445 24.099-0.242 0.417 0.046 0.733 0.202 0.976 0.486 8.903 14.353 39.091 20.185 85.522 16.6 0.766 0 1.375-0.636 1.375-1.366-0.05-0.99-0.82-1.39-1.22-1.43" i:knockout="Off"/>
		<path fill="#4D7335" clip-path="url(#a)" d="m226.94 30.438c-16.931-10.492-39.79-17.051-64.416-18.579-3.303-0.21-6.643-0.331-9.87-0.331-30.27-0.199-49.217 6.89-62.439 13.262-0.443 0.242-0.713 0.762-0.713 1.249 0 0.774 0.607 1.416 1.358 1.416 0.081 0 0.368-0.046 0.449-0.081 10.96-3.176 18.296-3.479 29.22-3.873 13.199-0.478 23.99 1.289 31.925 2.903 37.644 7.488 63.164 27.327 62.024 48.167-0.475 8.458-5.395 16.49-14.215 23.135-12.172 9.27-24.594 11.654-32.818 12.048-0.199 0-0.523 0.041-0.523 0.041-0.717 0.089-1.237 0.685-1.237 1.375 0 0.765 0.566 1.326 1.237 1.413 0.204 0.026 0.324 0.026 0.485 0.026 9.67 0.857 36.07-1.487 56.11-10.952 17.856-8.389 28.09-20.391 28.814-33.777 0.8-13.577-8.22-26.879-25.36-37.435" i:knockout="Off"/>
		<path fill="#4D7335" clip-path="url(#a)" d="m235.94 29.596c0 2 1.608 3.507 3.519 3.507 1.901 0 3.49-1.507 3.49-3.501 0-1.974-1.589-3.467-3.49-3.467-1.92 0-3.52 1.493-3.52 3.461m0.64 0.006c0.003-1.674 1.252-2.949 2.877-2.949 1.62 0 2.856 1.28 2.856 2.949 0 1.703-1.245 2.983-2.856 2.983-1.63 0-2.88-1.286-2.88-2.983m1.51 2.039h0.636v-1.74l0.679-0.012 1.107 1.752h0.668l-1.157-1.79c0.602-0.066 1.063-0.362 1.063-1.11 0-0.78-0.455-1.159-1.407-1.159h-1.588v4.059m0.64-3.55h0.837c0.42 0 0.895 0.083 0.895 0.621 0 0.653-0.509 0.67-1.064 0.67h-0.667v-1.291z" i:knockout="Off"/>
		<path fill="#4D7335" clip-path="url(#a)" d="m285.78 158.95c0 2 1.608 3.51 3.516 3.51 1.898 0 3.489-1.51 3.489-3.51 0-1.962-1.591-3.461-3.486-3.455-1.91-0.01-3.52 1.48-3.52 3.45m0.64 0c0-1.665 1.251-2.942 2.874-2.942 1.619 0 2.859 1.283 2.859 2.942 0 1.706-1.246 2.995-2.859 2.995-1.62 0-2.87-1.29-2.87-2.99m1.51 2.05h0.636v-1.741l0.683-0.005 1.093 1.746h0.679l-1.153-1.79c0.596-0.065 1.059-0.365 1.059-1.113 0-0.773-0.452-1.153-1.415-1.153h-1.58v4.04m0.63-3.55h0.838c0.417 0 0.889 0.086 0.889 0.621 0 0.65-0.507 0.664-1.059 0.664h-0.668v-1.28z" i:knockout="Off"/>
		<path fill="#D0AB7B" clip-path="url(#a)" d="m277.03 210.91c0 1.826 1.468 3.208 3.211 3.208 1.737 0 3.188-1.382 3.188-3.205 0-1.798-1.45-3.168-3.185-3.165-1.74-0.02-3.21 1.35-3.21 3.15m0.58 0c0.006-1.527 1.151-2.698 2.633-2.698 1.479 0 2.615 1.176 2.615 2.698 0 1.559-1.146 2.729-2.615 2.729-1.48 0-2.63-1.17-2.63-2.73m1.39 1.87h0.578v-1.594l0.622-0.006 1.004 1.6h0.618l-1.056-1.635c0.55-0.058 0.976-0.336 0.976-1.018 0-0.711-0.42-1.06-1.295-1.06h-1.44v3.72m0.58-3.25h0.763c0.392 0 0.82 0.08 0.82 0.572 0 0.59-0.464 0.607-0.976 0.607h-0.607v-1.18z" i:knockout="Off"/>
</g>
</svg>
