<?xml version="1.0" encoding="UTF-8" standalone="no"?>
<svg x="0px" y="0px" xmlns:xlink="http://www.w3.org/1999/xlink" viewBox="0 0 300 245.333" height="245.33px" xmlns:ns="&amp;ns_vars;" xml:space="preserve" i:pageBounds="-7050.5 7350.5 7349.5 -7049.5" i:rulerOrigin="7050.5 7049.5" version="1.0" xmlns:cc="http://creativecommons.org/ns#" xmlns:dc="http://purl.org/dc/elements/1.1/" width="300px" xmlns:i="&amp;ns_ai;" enable-background="new 0 0 300 245.333" i:viewOrigin="-0.1665 271.1665" xmlns:rdf="http://www.w3.org/1999/02/22-rdf-syntax-ns#" xmlns="http://www.w3.org/2000/svg">
<metadata>
	<ns:variableSets>
		<ns:variableSet locked="none" varSetName="binding1">
			<ns:variables/>
			<ns:sampleDataSets/>
		</ns:variableSet>
	</ns:variableSets>
<rdf:RDF><cc:Work rdf:about=""><dc:format>image/svg+xml</dc:format><dc:type rdf:resource="http://purl.org/dc/dcmitype/StillImage"/><dc:title/></cc:Work></rdf:RDF></metadata>
<g i:rgbTrio="#4F008000FFFF" i:layer="yes" i:dimmedPercent="50">
		<defs>
			<rect id="b" x="9.549" y="11.523" width="283.24" height="220.45"/>
		</defs>
		<clipPath id="a">
			<use xlink:href="#b" overflow="visible"/>
		</clipPath>
		<path fill="#4D7335" d="m241.38 162.09c-2.986-1.134-6.479-1.381-8.921-1.381h-0.297c-12.92 0.089-19.691 7.135-19.691 20.359 0 5.751 1.084 10.028 3.461 13.486 2.111 3.196 5.84 6.864 16.015 6.864h0.216c12.917-0.083 19.479-6.979 19.479-20.515 0-12.21-5.6-16.96-10.26-18.81m-9.22 30.66h-0.06c-4.002 0-6.057-3.521-6.057-11.746 0-1.956 0-6.559 1.355-8.94 1.062-1.896 2.771-2.973 4.761-2.973 2.356 0 3.795 1.557 4.151 2.043 1.326 1.594 1.991 4.781 1.991 9.724 0 8.29-1.84 11.87-6.14 11.9" clip-path="url(#a)" i:knockout="Off"/>
		<path fill="#4D7335" d="m109.57 162.29c-0.147 0.723-1.715 6.861-1.838 7.615-0.124 0.627 0.572 1.18 1.203 1.18 3.803 0 3.944 0.052 3.944 3.875v24.447c0 0.665 0.547 1.211 1.206 1.211h11.565c0.696 0 1.171-0.512 1.171-1.211v-37.097c0-0.713-0.475-1.202-1.171-1.202h-14.911c-0.64-0.01-1 0.54-1.16 1.18" clip-path="url(#a)" i:knockout="Off"/>
		<path fill="#4D7335" d="m65.363 161.1c-0.622 0-1.021 0.423-1.168 1.182-0.124 0.742-0.541 3.128-1.861 7.612-0.178 0.63 0.48 1.183 1.11 1.183 3.823 0 3.944 0.141 3.944 3.875 0 8.303-1.024 18.19 3.256 22.457 2.342 2.655 5.57 4.013 9.508 4.013 4.701 0 7.589-1.867 10.031-3.731 0 0.783-0.034 1.709-0.034 1.709 0 0.665 0.546 1.211 1.179 1.211h10.837c0.662 0 1.174-0.546 1.174-1.211v-37.117c0-0.67-0.48-1.182-1.174-1.182h-10.957c-0.63 0-1.177 0.489-1.177 1.147 0 0 0.124 23.426-0.026 26.896 0 0.015-3.165 2.101-4.819 2.101-4.065 0-4.64-4.37-4.64-9.123l0.032-19.839c0-0.633-0.509-1.182-1.168-1.182h-14.042z" clip-path="url(#a)" i:knockout="Off"/>
		<path fill="#4D7335" d="m185.09 164.54c0-0.877-0.029-2.166-0.029-2.25 0-0.633-0.503-1.182-1.174-1.182h-13.037c-0.999 0-1.508 0.276-1.83 0.903-0.305 0.661-3.316 6.956-3.529 7.321-0.297 0.63 0 1.752 1.084 1.752h0.599c4.672 0 4.738 0 4.738 3.875 0 0-0.066 24.364-0.066 24.511 0 0.636 0.541 1.171 1.177 1.171 0.146 0 11.019-0.061 11.019-0.061 0.633 0 1.176-0.509 1.176-1.174 0-0.055 0-21.041-0.034-26.168 1.39-0.929 2.946-1.962 4.937-1.962 1.027 0 1.847 0.314 2.445 0.973 1.353 1.358 1.539 3.884 1.502 5.265-0.034 1.724 0.037 21.956 0.037 21.956 0 0.659 0.538 1.171 1.194 1.171 0.098 0 10.238-0.061 10.903-0.061 0.664 0 1.174-0.509 1.174-1.174 0-0.055-0.026-20.802-0.026-20.802-0.069-6.591-0.124-10.213-2.02-13.343-1.749-2.973-4.965-4.546-9.304-4.546-4.16-0.02-7.75 1.94-10.94 3.81" clip-path="url(#a)" i:knockout="Off"/>
		<path fill="#4D7335" d="m257.75 166.64c-0.751 1.064-2.014 3.319-2.014 6.596 0 8.038 6.257 10.452 9.6 11.721 0.029 0 1.749 0.69 2.713 1.021 1.775 0.569 4.877 1.573 4.877 3.766 0 1.563-1.623 3.161-5.239 3.161-2.146 0-5.025-0.782-7.284-1.956-1.053-0.541-1.6-0.995-2.439-1.657-0.185-0.144-0.452-0.244-0.728-0.244-0.3 0-0.593 0.118-0.843 0.365-0.213 0.207-0.328 0.569-0.328 0.812 0.028 0.273-0.328 5.9-0.423 6.807-0.029 0.271-0.061 0.661-0.061 0.809 0 0.46 0.155 0.912 0.696 1.104 3.374 1.329 6.709 2.482 11.89 2.482 13.702 0 17.348-6.26 18.041-11.683 0.083-0.785 0.061-1.113 0.061-1.657 0-8.19-5.958-10.509-9.644-11.927-2.676-0.99-3.55-1.295-3.55-1.295-2.497-0.837-4.126-1.53-4.126-3.127 0-0.426 0.216-2.645 4.606-2.645 4.042 0 6.656 1.703 8.256 2.705 0.331 0.213 0.573 0.213 0.693 0.213 0.535 0 1.019-0.397 1.11-0.973 0-0.063 0.662-7.402 0.662-7.402 0-0.572-0.386-1.062-0.927-1.145-0.071-0.032-0.278-0.093-0.491-0.153-2.862-0.779-5.771-1.625-10.322-1.625-4.62 0.01-11.15 0.65-14.8 5.94" clip-path="url(#a)" i:knockout="Off"/>
		<path fill="#4D7335" d="m9.546 175.53c0 22.71 15.659 26.104 24.114 26.104 2.868 0 6.93-0.598 8.009-1.075 1.237-0.579 0.789-1.654 0.483-1.96-0.236-0.272-6.772-6.783-6.772-6.783-0.21-0.21-0.455-0.354-0.785-0.354-0.208 0.034-0.48 0.034-0.48 0.034-2.195 0-5.299-0.728-7.354-4.105-2.342-3.702-2.649-8.671-2.649-13.063 0-12.5 4.945-16.09 9.79-16.09 4.094 0 10.028 1.455 10.028 16.449 0 2.144-0.121 4.549-0.331 6.174h-12.191c-0.754 0-1.752 0.927-0.846 2.011 0 0 20.207 20.21 20.503 20.521 0.271 0.3 0.57 0.414 0.875 0.414h13.31c0.636 0 1.177-0.482 1.177-1.176 0-0.303-0.124-0.602-0.365-0.841 0 0-11.139-11.142-11.171-11.173-0.026-0.029-0.21-0.173-0.239-0.273 0-0.058 0.061-0.176 0.089-0.245 2.471-4.326 3.639-9.571 3.639-15.865 0-4.065-0.751-14.234-7.526-20.529-3.82-3.556-9.871-5.607-16.585-5.607-15.482 0-24.723 10.24-24.723 27.43" clip-path="url(#a)" i:knockout="Off"/>
		<path fill="#4D7335" d="m162.36 161.1h-27.49c-0.665 0-0.998 0.423-1.211 1.202-0.208 0.903-1.861 6.631-1.861 7.261 0 0.662 0.541 1.174 1.171 1.174 0.063 0 11.804-0.12 12.497-0.12-0.748 1.507-14.116 28.282-14.116 28.282-0.069 0.112-0.127 0.322-0.127 0.526-0.029 0.639 0.515 1.185 1.171 1.185h33.337c0.667 0 1.18-0.546 1.18-1.211l0.028-7.218c0-0.667-0.512-1.174-1.174-1.174h0.029s-13.13 0.356-16.683 0.452c0.607-1.237 5.156-10.57 6.893-14.011 1.718-3.395 7.051-13.878 7.414-14.597 0.42-0.92-0.37-1.74-1.06-1.74" clip-path="url(#a)" i:knockout="Off"/>
		<path fill="#E21F26" d="m245.2 144.02c-21.81-2.951-35.627-8.386-39.974-15.923-1.297-2.227-1.651-4.235-1.137-5.964 0.579-1.853 2.141-3.429 4.684-4.721 0.233-0.072 0.674-0.526 0.674-1.205 0-0.771-0.636-1.364-1.41-1.364-0.284 0-0.555 0.029-0.837 0.069-2.141 0.653-5.247 1.329-8.875 1.858-10.395 1.611-21.4 2.1-32.598 1.418-47.284-2.952-84.651-25.805-83.244-50.952 0.48-8.55 5.564-16.81 14.313-23.222 12.902-9.477 25.48-11.646 32.206-12.008 0.843-0.04 1.326-0.73 1.326-1.407 0-0.685-0.483-1.332-1.369-1.416-9.315-0.61-34.784 1.206-55.414 10.883-17.899 8.38-28.176 20.431-28.947 33.849-0.728 13.59 8.268 26.896 25.397 37.494 16.933 10.443 39.824 17.051 64.45 18.539 8.101 0.526 16.208 0.445 24.099-0.242 0.417 0.046 0.733 0.202 0.976 0.486 8.903 14.353 39.091 20.185 85.522 16.6 0.766 0 1.375-0.636 1.375-1.366-0.05-0.99-0.82-1.39-1.22-1.43" clip-path="url(#a)" i:knockout="Off"/>
		<path fill="#4D7335" d="m226.94 30.438c-16.931-10.492-39.79-17.051-64.416-18.579-3.303-0.21-6.643-0.331-9.87-0.331-30.27-0.199-49.217 6.89-62.439 13.262-0.443 0.242-0.713 0.762-0.713 1.249 0 0.774 0.607 1.416 1.358 1.416 0.081 0 0.368-0.046 0.449-0.081 10.96-3.176 18.296-3.479 29.22-3.873 13.199-0.478 23.99 1.289 31.925 2.903 37.644 7.488 63.164 27.327 62.024 48.167-0.475 8.458-5.395 16.49-14.215 23.135-12.172 9.27-24.594 11.654-32.818 12.048-0.199 0-0.523 0.041-0.523 0.041-0.717 0.089-1.237 0.685-1.237 1.375 0 0.765 0.566 1.326 1.237 1.413 0.204 0.026 0.324 0.026 0.485 0.026 9.67 0.857 36.07-1.487 56.11-10.952 17.856-8.389 28.09-20.391 28.814-33.777 0.8-13.577-8.22-26.879-25.36-37.435" clip-path="url(#a)" i:knockout="Off"/>
		<path fill="#4D7335" d="m235.94 29.596c0 2 1.608 3.507 3.519 3.507 1.901 0 3.49-1.507 3.49-3.501 0-1.974-1.589-3.467-3.49-3.467-1.92 0-3.52 1.493-3.52 3.461m0.64 0.006c0.003-1.674 1.252-2.949 2.877-2.949 1.62 0 2.856 1.28 2.856 2.949 0 1.703-1.245 2.983-2.856 2.983-1.63 0-2.88-1.286-2.88-2.983m1.51 2.039h0.636v-1.74l0.679-0.012 1.107 1.752h0.668l-1.157-1.79c0.602-0.066 1.063-0.362 1.063-1.11 0-0.78-0.455-1.159-1.407-1.159h-1.588v4.059m0.64-3.55h0.837c0.42 0 0.895 0.083 0.895 0.621 0 0.653-0.509 0.67-1.064 0.67h-0.667v-1.291z" clip-path="url(#a)" i:knockout="Off"/>
		<path fill="#4D7335" d="m285.78 158.95c0 2 1.608 3.51 3.516 3.51 1.898 0 3.489-1.51 3.489-3.51 0-1.962-1.591-3.461-3.486-3.455-1.91-0.01-3.52 1.48-3.52 3.45m0.64 0c0-1.665 1.251-2.942 2.874-2.942 1.619 0 2.859 1.283 2.859 2.942 0 1.706-1.246 2.995-2.859 2.995-1.62 0-2.87-1.29-2.87-2.99m1.51 2.05h0.636v-1.741l0.683-0.005 1.093 1.746h0.679l-1.153-1.79c0.596-0.065 1.059-0.365 1.059-1.113 0-0.773-0.452-1.153-1.415-1.153h-1.58v4.04m0.63-3.55h0.838c0.417 0 0.889 0.086 0.889 0.621 0 0.65-0.507 0.664-1.059 0.664h-0.668v-1.28z" clip-path="url(#a)" i:knockout="Off"/>
		<path fill="#D0AB7B" d="m39.644 230.95c0 0.192 0.069 0.337-0.17 0.337h-5.003c-0.193 0-0.213-0.069-0.213-0.188l-0.219-6.248s-2.669 2.206-3.679 2.997c-0.213 0.173-0.213 0.173-0.429 0-1.082-0.86-3.369-2.997-3.369-2.997l-0.164 6.081c0 0.308-0.052 0.337-0.313 0.337h-4.402c-0.242 0-0.242 0.066-0.242-0.152 0.049-5.136 0.291-11.363 0.556-16.174 0.023-0.291 0.095-0.331 0.339-0.164 2.69 1.968 6.85 5.478 7.978 6.484 1.179-1.007 5.48-4.611 8.245-6.611 0.242-0.189 0.311-0.189 0.337 0.127 0.388 6.28 0.549 10.37 0.748 16.16" clip-path="url(#a)" i:knockout="Off"/>
		<path fill="#D0AB7B" d="m62.04 230.95c0 0.192 0.078 0.337-0.164 0.337h-5.003c-0.189 0-0.215-0.069-0.215-0.188l-0.213-6.248s-2.673 2.206-3.68 2.997c-0.216 0.173-0.216 0.173-0.432 0-1.082-0.86-3.369-2.997-3.369-2.997l-0.173 6.081c0 0.308-0.04 0.337-0.305 0.337h-4.401c-0.239 0-0.239 0.066-0.239-0.152 0.046-5.136 0.288-11.363 0.549-16.174 0.029-0.291 0.101-0.331 0.336-0.164 2.693 1.968 6.855 5.478 7.983 6.484 1.179-1.007 5.48-4.611 8.245-6.611 0.239-0.189 0.313-0.189 0.336 0.127 0.386 6.28 0.558 10.37 0.745 16.16" clip-path="url(#a)" i:knockout="Off"/>
		<path fill="#D0AB7B" d="m84.445 230.95c0 0.192 0.072 0.337-0.167 0.337h-4.997c-0.195 0-0.221-0.069-0.221-0.188l-0.216-6.248s-2.667 2.206-3.68 2.997c-0.216 0.173-0.216 0.173-0.426 0-1.087-0.86-3.369-2.997-3.369-2.997l-0.17 6.081c0 0.308-0.049 0.337-0.313 0.337h-4.396c-0.242 0-0.242 0.066-0.242-0.152 0.046-5.136 0.288-11.363 0.552-16.174 0.023-0.291 0.095-0.331 0.336-0.164 2.693 1.968 6.85 5.478 7.98 6.484 1.177-1.007 5.48-4.611 8.248-6.611 0.242-0.189 0.305-0.189 0.336 0.127 0.385 6.28 0.552 10.37 0.745 16.16" clip-path="url(#a)" i:knockout="Off"/>
		<path fill="#D0AB7B" d="m106.85 230.95c0 0.192 0.072 0.337-0.167 0.337h-5.003c-0.193 0-0.216-0.069-0.216-0.188l-0.213-6.248s-2.672 2.206-3.683 2.997c-0.215 0.173-0.215 0.173-0.434 0-1.079-0.86-3.363-2.997-3.363-2.997l-0.167 6.081c0 0.308-0.049 0.337-0.311 0.337h-4.398c-0.239 0-0.239 0.066-0.239-0.152 0.043-5.136 0.282-11.363 0.549-16.174 0.026-0.291 0.095-0.331 0.336-0.164 2.693 1.968 6.85 5.478 7.98 6.484 1.18-1.007 5.483-4.611 8.245-6.611 0.242-0.189 0.313-0.189 0.333 0.127 0.39 6.28 0.56 10.37 0.76 16.16" clip-path="url(#a)" i:knockout="Off"/>
		<path fill="#D0AB7B" d="m118.63 230.82c0 0.325-0.032 0.449-0.42 0.449h-5.736c-0.354 0-0.469-0.089-0.469-0.48v-5.584c0-0.389 0.115-0.472 0.501-0.472h5.65c0.414 0 0.475 0.201 0.475 0.503v5.58z" clip-path="url(#a)" i:knockout="Off"/>
		<path fill="#D0AB7B" d="m130.27 230.82c0 0.325-0.029 0.449-0.414 0.449h-5.736c-0.354 0-0.478-0.089-0.478-0.48v-5.584c0-0.389 0.124-0.472 0.506-0.472h5.647c0.417 0 0.475 0.201 0.475 0.503v5.58z" clip-path="url(#a)" i:knockout="Off"/>
		<path fill="#D0AB7B" d="m141.92 230.82c0 0.325-0.029 0.449-0.412 0.449h-5.736c-0.356 0-0.478-0.089-0.478-0.48v-5.584c0-0.389 0.121-0.472 0.506-0.472h5.647c0.414 0 0.472 0.201 0.472 0.503v5.58z" clip-path="url(#a)" i:knockout="Off"/>
		<path fill="#D0AB7B" d="m157.08 231c0 0.233-0.026 0.273-0.297 0.273h-6.45c-0.299 0-0.299 0.022-0.299-0.273v-14.651l-5.405 0.327c-0.204 0-0.204-0.031-0.204-0.204v-5.055c0-0.232 0-0.302 0.236-0.302h17.615c0.213 0 0.238 0.069 0.238 0.302v5.055c0 0.173-0.025 0.204-0.207 0.204l-5.227-0.327v14.65z" clip-path="url(#a)" i:knockout="Off"/>
		<path fill="#D0AB7B" d="m173.95 217.48c2.29 0 3.771 1.425 3.771 3.711 0 2.408-1.637 3.896-3.771 3.896-2.232 0-3.774-1.427-3.774-3.896 0-2.17 1.45-3.71 3.77-3.71m0-6.99c-5.943 0-10.908 4.335-10.908 10.728 0 6.059 4.548 10.76 10.908 10.76 5.763 0 10.906-4.428 10.906-10.731 0-6.63-5.24-10.76-10.91-10.76" clip-path="url(#a)" i:knockout="Off"/>
		<path fill="#D0AB7B" d="m192.94 224.37s0.803-1.755 1.338-3.035c0.265-0.625 0.472-1.188 0.472-1.188s0.21 0.563 0.478 1.188c0.564 1.245 1.31 3.035 1.31 3.035h-3.6m5.23 4.38c0.356 0.739 0.658 1.453 1.01 2.258 0.118 0.205 0.273 0.242 0.42 0.242h6.979c0.328 0 0.328 0 0.12-0.423-3.685-6.536-7.937-14.499-11.023-20.08-0.029-0.063-1.338-0.093-1.396 0-2.765 5.141-7.189 13.61-10.788 20.08-0.182 0.299-0.118 0.423 0.118 0.423h6.087c0.42 0 0.446-0.069 0.602-0.328 0.351-0.719 0.563-1.344 0.946-2.172h6.92z" clip-path="url(#a)" i:knockout="Off"/>
		<path fill="#D0AB7B" d="m207.29 226.86l4.425-1.66c0.268-0.118 0.296-0.089 0.356 0.118 0.325 1.099 1.514 1.959 2.819 1.959 1.398 0 2.083-0.621 2.083-1.517 0-0.978-0.831-1.332-2.583-1.542-0.21-0.034-0.535-0.06-0.742-0.092-2.256-0.176-6.18-1.217-6.18-6.029 0-4.632 2.997-7.609 8.642-7.609 4.163 0 6.66 1.786 7.227 4.37 0.055 0.354 0.084 0.388-0.213 0.506l-4.186 1.542c-0.244 0.124-0.268 0.124-0.359-0.121-0.478-1.096-1.246-1.694-2.707-1.694-1.393 0-1.928 0.599-1.928 1.404 0 0.895 0.776 1.188 2.972 1.519 0.294 0.055 0.653 0.084 1.067 0.144 3.328 0.504 6.033 1.928 6.033 6.119 0 4.966-3.95 7.699-8.887 7.699-4.039 0-6.801-1.758-7.961-4.546-0.18-0.48-0.15-0.48 0.12-0.57" clip-path="url(#a)" i:knockout="Off"/>
		<path fill="#D0AB7B" d="m238.19 231c0 0.233-0.028 0.273-0.291 0.273h-6.455c-0.291 0-0.291 0.022-0.291-0.273v-14.651l-5.411 0.327c-0.21 0-0.21-0.031-0.21-0.204v-5.055c0-0.232 0-0.302 0.239-0.302h17.62c0.21 0 0.242 0.069 0.242 0.302v5.055c0 0.173-0.032 0.204-0.213 0.204l-5.23-0.327v14.65z" clip-path="url(#a)" i:knockout="Off"/>
		<path fill="#D0AB7B" d="m259.08 224.84v6.035c0 0.389 0 0.414-0.322 0.414h-6.597c-0.21 0-0.21-0.025-0.21-0.414v-5.5s-4.689-8.078-7.874-13.847c-0.207-0.417-0.175-0.417 0.182-0.417h7.488c0.236 0 0.294 0 0.501 0.48 1.104 2.497 3.3 7.278 3.3 7.278s1.924-4.931 2.856-7.46c0.089-0.268 0.089-0.299 0.443-0.299h6.743c0.417 0 0.33 0.031 0.178 0.389-2.86 5.8-6.69 13.34-6.69 13.34" clip-path="url(#a)" i:knockout="Off"/>
		<path fill="#D0AB7B" d="m269.69 224.78c-0.208 0-1.787-4.336-1.787-4.635-0.058-3.625-0.025-6.035 0-9.304 0 0 0-0.293 0.302-0.293 2.405-0.093 4.1-0.093 6.568 0 0.232 0 0.265 0.089 0.265 0.356 0.146 3.205 0.146 5.645 0.086 9.24 0 0.179-1.57 4.635-1.813 4.635-1.4 0.04-2.2 0.09-3.63 0m5.43 1.31c0 4.991 0 5.176-0.175 5.176h-6.858c0-2.144-0.156-5.23 0-5.23 2.2 0 7.04-0.04 7.04 0.05" clip-path="url(#a)" i:knockout="Off"/>
		<path fill="#D0AB7B" d="m277.03 210.91c0 1.826 1.468 3.208 3.211 3.208 1.737 0 3.188-1.382 3.188-3.205 0-1.798-1.45-3.168-3.185-3.165-1.74-0.02-3.21 1.35-3.21 3.15m0.58 0c0.006-1.527 1.151-2.698 2.633-2.698 1.479 0 2.615 1.176 2.615 2.698 0 1.559-1.146 2.729-2.615 2.729-1.48 0-2.63-1.17-2.63-2.73m1.39 1.87h0.578v-1.594l0.622-0.006 1.004 1.6h0.618l-1.056-1.635c0.55-0.058 0.976-0.336 0.976-1.018 0-0.711-0.42-1.06-1.295-1.06h-1.44v3.72m0.58-3.25h0.763c0.392 0 0.82 0.08 0.82 0.572 0 0.59-0.464 0.607-0.976 0.607h-0.607v-1.18z" clip-path="url(#a)" i:knockout="Off"/>
</g>
</svg>
