<?xml version="1.0" encoding="UTF-8" standalone="no"?>
<svg viewBox="0 0 440 126" xmlns:rdf="http://www.w3.org/1999/02/22-rdf-syntax-ns#" xmlns="http://www.w3.org/2000/svg" xmlns:dc="http://purl.org/dc/elements/1.1/" version="1.0" xmlns:cc="http://creativecommons.org/ns#">
<metadata>
<rdf:RDF>
<cc:Work rdf:about="">
<dc:format>image/svg+xml</dc:format>
<dc:type rdf:resource="http://purl.org/dc/dcmitype/StillImage"/>
</cc:Work>
</rdf:RDF>
</metadata>
<path fill="#fff" d="m432 33.4h-2v-5l-2 3.3h-1l-1-3.3v5h-2v-8.5h2l2 4.6 2-4.6h2zm-9-7h-2v7h-2v-7h-2v-1.5h6zm-11 31.5h-6v-19.2l-7 12.5h-4l-6-12.5v19.2h-7v-33h7l8 17.8 9-17.8h6zm-39 0h-7l-2-5.8h-11l-2 5.8h-7l12-33h5zm-10-11.3-4-12-4 12zm-29 11.3h-22v-33h22v5.7h-15v7.8h13v5.7h-13v8.1h15zm-32-27.3h-8v27.3h-7v-27.3h-9v-5.7h24zm-32 17.6c0 6.8-6 9.9-12 10-6 0-10-1.4-12-4.4l4-4.1c2 1.8 4 2.8 8 2.8s6-1.4 6-4.1c0-2.5-2-3.6-4-4l-4-0.5c-6-0.8-9-3.9-9-9.3 0-3 1-5.4 3-7.3 2-1.8 5-2.7 8-2.7 5 0 8 1.3 11 3.8l-4 4.1c-2-1.5-4-2.3-7-2.3-3 0.2-5 1.3-5 4.2 0 2.3 2 3.4 4 3.6l4 0.6c5 0.6 9 4 9 9.6zm-51-6c0 9-8 16.3-17 16.3s-16-7.3-16-16.3c0-8.9 7-16.2 16-16.2s17 7.3 17 16.2zm-17-30.2c-16 0-30 13.4-30 30.1l-19 27.1c-1-0.1-1-0.2-2-0.2-4 0-8 1.2-12 3.2l-85.4-34.4c-2.3-10.2-11.4-17.8-22.2-17.8-12.4 0-22.62 10.2-22.62 22.7 0 12.4 10.22 22.6 22.62 22.6 4.3 0 8.2-1.1 11.6-3.2l86 34.4c2 10.5 11 17.5 22 17.5s21-9 22-20.1l29-21.2c17 0 31-13.6 31-30.4 0-16.7-14-30.3-31-30.3zm0 10c12 0 21 9.1 21 20.3 0 11.3-9 20.4-21 20.4-11 0-20-9.1-20-20.4 0-11.2 9-20.3 20-20.3zm-170.6 4c6.4 0 12 3.5 14.8 8.8l-8.3-3.3c-6.7-2.4-14.1 0.9-16.8 7.5-2.6 6.7 0.4 14.2 6.9 17.1l7 2.8c-1.1 0.3-2.3 0.4-3.6 0.4-9.2 0-16.6-7.4-16.6-16.6 0-9.3 7.4-16.7 16.6-16.7zm119.6 49c9 0 16 7.5 16 16.7 0 9.3-7 16.3-16 16.3-7 0-12-3-15-8.5 3 1.5 5 2.5 8 3.5 7 3 14-1 17-7.4 2-6.2 0-14.7-7-17.4l-7-2.8c1-0.2 3-0.4 4-0.4z"/>
</svg>
