<?xml version="1.0" encoding="UTF-8" standalone="no"?>
<!-- Created with Inkscape (http://www.inkscape.org/) -->

<svg
   xmlns:dc="http://purl.org/dc/elements/1.1/"
   xmlns:cc="http://creativecommons.org/ns#"
   xmlns:rdf="http://www.w3.org/1999/02/22-rdf-syntax-ns#"
   xmlns:svg="http://www.w3.org/2000/svg"
   xmlns="http://www.w3.org/2000/svg"
   xmlns:xlink="http://www.w3.org/1999/xlink"
   xmlns:sodipodi="http://sodipodi.sourceforge.net/DTD/sodipodi-0.dtd"
   xmlns:inkscape="http://www.inkscape.org/namespaces/inkscape"
   width="1200"
   height="800"
   id="svg13193"
   version="1.1"
   inkscape:version="0.48.5 r10040"
   sodipodi:docname="wall.svg">
  <defs
     id="defs13195">
    <linearGradient
       id="linearGradient14157">
      <stop
         style="stop-color:#138a14;stop-opacity:1;"
         offset="0"
         id="stop14159" />
      <stop
         style="stop-color:#0e690f;stop-opacity:1;"
         offset="1"
         id="stop14161" />
    </linearGradient>
    <filter
       inkscape:collect="always"
       id="filter14083">
      <feGaussianBlur
         inkscape:collect="always"
         stdDeviation="2.3142858"
         id="feGaussianBlur14085" />
    </filter>
    <linearGradient
       inkscape:collect="always"
       xlink:href="#linearGradient14157"
       id="linearGradient14163"
       x1="836.5625"
       y1="151.42188"
       x2="1024.5625"
       y2="151.42188"
       gradientUnits="userSpaceOnUse"
       gradientTransform="matrix(0.99934154,-0.0362834,0.0362834,0.99934154,-4.9869803,284.60761)" />
  </defs>
  <sodipodi:namedview
     id="base"
     pagecolor="#ffffff"
     bordercolor="#666666"
     borderopacity="1.0"
     inkscape:pageopacity="0.0"
     inkscape:pageshadow="2"
     inkscape:zoom="0.7"
     inkscape:cx="599.88325"
     inkscape:cy="339.1357"
     inkscape:document-units="px"
     inkscape:current-layer="layer1"
     showgrid="false"
     inkscape:snap-bbox="true"
     inkscape:snap-page="false"
     inkscape:window-width="1413"
     inkscape:window-height="907"
     inkscape:window-x="233"
     inkscape:window-y="23"
     inkscape:window-maximized="0"
     inkscape:object-nodes="true" />
  <metadata
     id="metadata13198">
    <rdf:RDF>
      <cc:Work
         rdf:about="">
        <dc:format>image/svg+xml</dc:format>
        <dc:type
           rdf:resource="http://purl.org/dc/dcmitype/StillImage" />
        <dc:title></dc:title>
      </cc:Work>
    </rdf:RDF>
  </metadata>
  <g
     inkscape:label="Layer 1"
     inkscape:groupmode="layer"
     id="layer1"
     transform="translate(0,-252.36218)">
    <path
       style="fill:#afbfe2;fill-opacity:1;stroke:none"
       d="m 153.54318,758.40779 -23.2335,-38.3858 c 0,0 21.2132,-40.4061 41.41625,-43.43656 20.20305,-3.03045 90.91373,8.08122 118.18785,4.04061 27.27412,-4.04061 102.02541,6.06092 120.20815,9.09138 18.18275,3.03045 102.02541,-17.1726 135.36044,-8.08122 33.33504,9.09137 115.15739,-16.16244 156.57365,-8.08122 41.41625,8.08122 87.88327,12.12183 138.3909,2.0203 50.50763,-10.10152 79.80205,-11.11168 110.10663,-6.06091 30.30457,5.05076 96.97465,-2.02031 115.15735,11.11167 18.1828,13.13199 26.264,42.42641 26.264,42.42641 l -38.3858,37.37564 z"
       id="path14175"
       inkscape:connector-curvature="0"
       sodipodi:nodetypes="ccssssssssccc" />
    <path
       style="fill:#8ea3d5;fill-opacity:1;stroke:#7289bd;stroke-opacity:1;stroke-width:4;stroke-miterlimit:4;stroke-dasharray:none;stroke-linejoin:round;stroke-linecap:round"
       d="m 137.38075,823.05755 c -12.12183,-33.33503 -16.46828,-89.7662 -4.04061,-107.07617 28.28426,-39.39594 98.99495,-11.11168 156.57364,-18.18275 72.22347,-8.86955 108.21036,19.86839 148.49243,12.12184 105.05586,-20.20306 131.31983,11.11167 184.85791,-4.04061 74.15729,-20.98791 143.44166,20.20305 213.14219,-9.09137 59.26414,-24.90812 120.20815,3.03045 174.75639,-1.01016 42.07,-3.11629 79.802,4.04061 81.8224,35.35534 2.0203,31.31473 -33.3351,97.9848 -33.3351,97.9848 l -38.3858,234.35543 -835.39613,2.0203 z"
       id="path14173"
       inkscape:connector-curvature="0"
       sodipodi:nodetypes="cssssssscccc" />
    <path
       style="fill:#afbfe2;fill-opacity:1;stroke:none"
       d="M -2.0203051,871.54487 57.578695,804.87481 c 0,0 20.203051,-15.15229 42.426405,-9.09138 22.22336,6.06092 40.4061,6.06092 61.61931,62.62946 21.2132,56.56854 27.27412,209.10161 27.27412,209.10161 l -29.29442,28.2842 -47.47718,-218.19291 z"
       id="path14169"
       inkscape:connector-curvature="0"
       sodipodi:nodetypes="ccsscccc" />
    <path
       style="fill:#8ea4d5;fill-opacity:1;stroke:#7289bd;stroke-opacity:1;stroke-width:4;stroke-miterlimit:4;stroke-dasharray:none;stroke-linejoin:round;stroke-linecap:round"
       d="m 68.690373,1065.4942 c 2.020305,-37.3757 5.050763,-68.69041 -25.253814,-84.85285 -30.304576,-16.16244 -58.588847,-45.45687 -55.55839,-78.7919 3.0304581,-33.33503 36.365492,-57.57869 79.802052,-50.50763 43.436559,7.07107 67.680219,34.34519 79.802049,89.90358 12.12183,55.55839 16.16244,147.4823 15.15229,172.7361 -1.01015,25.2538 -93.944187,-48.4873 -93.944187,-48.4873 z"
       id="path14165"
       inkscape:connector-curvature="0" />
    <path
       style="fill:#afbfe2;fill-opacity:1;stroke:none"
       d="m 1048.5383,1078.6261 50.5077,-195.96955 101.0152,-19.1929 -56.5685,-64.64976 c 0,0 -37.3757,-12.12183 -65.6599,5.05076 -28.2843,17.1726 -41.4163,55.55839 -45.4569,77.78175 -4.0406,22.22336 -14.1421,187.8884 -14.1421,187.8884 z"
       id="path14171"
       inkscape:connector-curvature="0"
       sodipodi:nodetypes="ccccsscc" />
    <path
       style="fill:#8ea4d5;fill-opacity:1;stroke:#7289bd;stroke-opacity:1;stroke-width:4;stroke-miterlimit:4;stroke-dasharray:none;stroke-linejoin:round;stroke-linecap:round"
       d="m 1046.518,1096.8089 c 3.0305,-39.396 4.0406,-136.3706 21.2132,-175.76655 17.1726,-39.39595 46.4671,-75.76144 86.8732,-68.69037 40.4061,7.07106 64.6497,14.14213 65.6599,46.46701 1.0101,32.32488 -16.1625,62.62946 -36.3655,72.73099 -20.2031,10.10152 -44.4467,18.18274 -44.4467,45.45682 0,27.2742 -2.0203,65.66 0,79.8021 2.0203,14.1421 -92.9341,0 -92.9341,0 z"
       id="path14167"
       inkscape:connector-curvature="0" />
    <path
       style="fill:#afbfe2;stroke:#7289bd;stroke-width:4;stroke-linecap:round;stroke-linejoin:round;stroke-opacity:1;fill-opacity:1;stroke-miterlimit:4;stroke-dasharray:none"
       d="m 159.6041,740.401 c -3.03046,-20.20305 23.23351,-76.77159 37.37565,-79.80205 14.14213,-3.03046 253.54829,-6.06092 261.62951,4.04061 8.08122,10.10152 18.18274,96.97464 16.16244,107.07617 -2.02031,10.10152 -17.1726,37.37564 -17.1726,37.37564 z"
       id="path14205"
       inkscape:connector-curvature="0"
       transform="translate(0,252.36218)" />
    <path
       style="fill:#afbfe2;fill-opacity:1;stroke:#7289bd;stroke-width:4;stroke-linecap:round;stroke-linejoin:round;stroke-opacity:1;stroke-miterlimit:4;stroke-dasharray:none"
       d="m 788.92914,810.10153 c -12.12183,-8.08122 -26.26397,-28.28428 -26.26397,-45.45687 0,-17.1726 1.01015,-101.01525 12.12183,-107.07617 11.11168,-6.06091 240.4163,-3.03046 251.528,4.04061 11.1117,7.07107 37.3756,48.48732 30.3046,60.60915 -7.0711,12.12183 -17.1726,52.52794 -17.1726,52.52794 z"
       id="path14209"
       inkscape:connector-curvature="0"
       transform="translate(0,252.36218)"
       sodipodi:nodetypes="csssscc" />
    <path
       style="fill:#8ea4d5;stroke:#7289bd;stroke-width:4;stroke-linecap:round;stroke-linejoin:round;stroke-opacity:1;fill-opacity:1;stroke-miterlimit:4;stroke-dasharray:none"
       d="m 786.90883,816.16244 c -9.09137,-8.08122 -5.05076,-97.9848 5.05077,-106.06602 10.10152,-8.08122 250.5178,5.05077 256.5787,20.20305 6.061,15.15229 -10.1015,84.85282 -21.2132,88.89343 -11.1116,4.04061 -240.41627,-3.03046 -240.41627,-3.03046 z"
       id="path14203"
       inkscape:connector-curvature="0"
       transform="translate(0,252.36218)" />
    <path
       style="fill:#afbfe2;stroke:#7289bd;stroke-width:4;stroke-linecap:round;stroke-linejoin:round;stroke-opacity:1;fill-opacity:1;stroke-miterlimit:4;stroke-dasharray:none"
       d="m 457.5991,728.27917 c -7.07106,-20.20305 7.07107,-64.64976 16.16244,-67.68022 9.09138,-3.03046 268.70058,-19.1929 284.86302,-1.01015 16.16244,18.18274 25.25381,61.6193 17.17259,81.82235 C 767.71593,761.6142 457.5991,728.27917 457.5991,728.27917 z"
       id="path14207"
       inkscape:connector-curvature="0"
       transform="translate(0,252.36218)"
       sodipodi:nodetypes="csssc" />
    <path
       style="fill:#8ea4d5;stroke:#7289bd;stroke-width:4;stroke-linecap:round;stroke-linejoin:round;stroke-opacity:1;fill-opacity:1;stroke-miterlimit:4;stroke-dasharray:none"
       d="m 484.87322,815.15228 c -20.20305,-11.11167 -32.32488,-88.89342 -30.30457,-95.96448 2.0203,-7.07107 315.16759,-14.14214 321.2285,-3.03046 6.06092,11.11168 -8.08122,93.94419 -18.18274,98.99495 -10.10153,5.05076 -272.74119,-10e-6 -272.74119,-10e-6 z"
       id="path14201"
       inkscape:connector-curvature="0"
       transform="translate(0,252.36218)"
       sodipodi:nodetypes="csssc" />
    <path
       style="fill:#8ea4d5;stroke:#7289bd;stroke-width:4;stroke-linecap:round;stroke-linejoin:round;stroke-opacity:1;fill-opacity:1;stroke-miterlimit:4;stroke-dasharray:none"
       d="m 175.76654,816.16244 c -8.08122,-12.12183 -22.22335,-78.7919 -18.18274,-81.82236 4.04061,-3.03045 4.04061,-3.03045 4.04061,-3.03045 0,0 118.18785,-24.24366 156.57364,-23.23351 38.3858,1.01015 125.25892,2.0203 128.28938,14.14213 3.03045,12.12183 23.2335,85.86297 13.13198,92.93404 -10.10153,7.07107 -283.85287,1.01015 -283.85287,1.01015 z"
       id="path14199"
       inkscape:connector-curvature="0"
       transform="translate(0,252.36218)" />
    <path
       style="fill:none;stroke:#7289bd;stroke-width:4;stroke-linecap:round;stroke-linejoin:round;stroke-opacity:1;stroke-miterlimit:4;stroke-dasharray:none"
       d="M 146.47212,821.2132 C 140.4112,746.46192 129.29953,658.57864 104.04571,640.3959 78.791899,622.21315 37.375644,614.13193 21.213203,627.26391 5.0507627,640.3959 2.0203051,670.70047 14.142136,680.802 c 12.12183,10.10153 47.477169,7.07107 59.599,-9.09137 12.12183,-16.16244 -12.121831,-30.30458 -24.243661,-30.30458"
       id="path14219"
       inkscape:connector-curvature="0"
       transform="translate(0,252.36218)" />
    <path
       style="fill:none;stroke:#7289bd;stroke-width:4;stroke-linecap:round;stroke-linejoin:round;stroke-opacity:1;stroke-miterlimit:4;stroke-dasharray:none"
       d="m 1064.7008,818.18275 c 2.0203,-39.39595 14.1421,-173.74624 64.6497,-193.94929 50.5077,-20.20305 70.7107,10.10152 71.7209,30.30457 1.0101,20.20305 -15.1523,46.46702 -31.3148,48.48733 -16.1624,2.0203 -47.4771,-23.23351 -41.4162,-40.40611 6.0609,-17.17259 36.3655,-31.31473 42.4264,-24.24366"
       id="path14221"
       inkscape:connector-curvature="0"
       transform="translate(0,252.36218)" />
    <path
       sodipodi:type="arc"
       style="opacity:0.29999999999999999;color:#000000;fill:#0a1014;fill-opacity:1;fill-rule:nonzero;stroke:#3e6683;stroke-width:4;stroke-linecap:round;stroke-linejoin:round;stroke-miterlimit:4;stroke-opacity:1;stroke-dasharray:none;stroke-dashoffset:0;marker:none;visibility:visible;display:inline;overflow:visible;enable-background:accumulate"
       id="path14223"
       sodipodi:cx="213.14218"
       sodipodi:cy="504.5304"
       sodipodi:rx="7.0710678"
       sodipodi:ry="7.5761442"
       d="m 220.21325,504.5304 a 7.0710678,7.5761442 0 1 1 -14.14214,0 7.0710678,7.5761442 0 1 1 14.14214,0 z"
       transform="translate(180.81731,354.38759)" />
    <path
       sodipodi:type="arc"
       style="opacity:0.29999999999999999;color:#000000;fill:#0a1014;fill-opacity:1;fill-rule:nonzero;stroke:#3e6683;stroke-width:4;stroke-linecap:round;stroke-linejoin:round;stroke-miterlimit:4;stroke-opacity:1;stroke-dasharray:none;stroke-dashoffset:0;marker:none;visibility:visible;display:inline;overflow:visible;enable-background:accumulate"
       id="path14223-0"
       sodipodi:cx="213.14218"
       sodipodi:cy="504.5304"
       sodipodi:rx="7.0710678"
       sodipodi:ry="7.5761442"
       d="m 220.21325,504.5304 a 7.0710678,7.5761442 0 1 1 -14.14214,0 7.0710678,7.5761442 0 1 1 14.14214,0 z"
       transform="translate(400.02042,353.88249)" />
    <path
       sodipodi:type="arc"
       style="opacity:0.29999999999999999;color:#000000;fill:#0a1014;fill-opacity:1;fill-rule:nonzero;stroke:#3e6683;stroke-width:4;stroke-linecap:round;stroke-linejoin:round;stroke-miterlimit:4;stroke-opacity:1;stroke-dasharray:none;stroke-dashoffset:0;marker:none;visibility:visible;display:inline;overflow:visible;enable-background:accumulate"
       id="path14223-5"
       sodipodi:cx="213.14218"
       sodipodi:cy="504.5304"
       sodipodi:rx="7.0710678"
       sodipodi:ry="7.5761442"
       d="m 220.21325,504.5304 a 7.0710678,7.5761442 0 1 1 -14.14214,0 7.0710678,7.5761442 0 1 1 14.14214,0 z"
       transform="translate(595.99001,355.9028)" />
    <path
       sodipodi:type="arc"
       style="opacity:0.29999999999999999;color:#000000;fill:#0a1014;fill-opacity:1;fill-rule:nonzero;stroke:#3e6683;stroke-width:4;stroke-linecap:round;stroke-linejoin:round;stroke-miterlimit:4;stroke-opacity:1;stroke-dasharray:none;stroke-dashoffset:0;marker:none;visibility:visible;display:inline;overflow:visible;enable-background:accumulate"
       id="path14223-4"
       sodipodi:cx="213.14218"
       sodipodi:cy="504.5304"
       sodipodi:rx="7.0710678"
       sodipodi:ry="7.5761442"
       d="m 220.21325,504.5304 a 7.0710678,7.5761442 0 1 1 -14.14214,0 7.0710678,7.5761442 0 1 1 14.14214,0 z"
       transform="translate(280.82241,275.0906)" />
    <path
       sodipodi:type="arc"
       style="opacity:0.29999999999999999;color:#000000;fill:#0a1014;fill-opacity:1;fill-rule:nonzero;stroke:#3e6683;stroke-width:4;stroke-linecap:round;stroke-linejoin:round;stroke-miterlimit:4;stroke-opacity:1;stroke-dasharray:none;stroke-dashoffset:0;marker:none;visibility:visible;display:inline;overflow:visible;enable-background:accumulate"
       id="path14223-6"
       sodipodi:cx="213.14218"
       sodipodi:cy="504.5304"
       sodipodi:rx="7.0710678"
       sodipodi:ry="7.5761442"
       d="m 220.21325,504.5304 a 7.0710678,7.5761442 0 1 1 -14.14214,0 7.0710678,7.5761442 0 1 1 14.14214,0 z"
       transform="translate(489.92399,272.06014)" />
    <path
       sodipodi:type="arc"
       style="opacity:0.29999999999999999;color:#000000;fill:#0a1014;fill-opacity:1;fill-rule:nonzero;stroke:#3e6683;stroke-width:4;stroke-linecap:round;stroke-linejoin:round;stroke-miterlimit:4;stroke-opacity:1;stroke-dasharray:none;stroke-dashoffset:0;marker:none;visibility:visible;display:inline;overflow:visible;enable-background:accumulate"
       id="path14223-7"
       sodipodi:cx="213.14218"
       sodipodi:cy="504.5304"
       sodipodi:rx="7.0710678"
       sodipodi:ry="7.5761442"
       d="m 220.21325,504.5304 a 7.0710678,7.5761442 0 1 1 -14.14214,0 7.0710678,7.5761442 0 1 1 14.14214,0 z"
       transform="translate(698.01541,269.02968)" />
    <path
       sodipodi:type="arc"
       style="opacity:0.29999999999999999;color:#000000;fill:#0a1014;fill-opacity:1;fill-rule:nonzero;stroke:#3e6683;stroke-width:4;stroke-linecap:round;stroke-linejoin:round;stroke-miterlimit:4;stroke-opacity:1;stroke-dasharray:none;stroke-dashoffset:0;marker:none;visibility:visible;display:inline;overflow:visible;enable-background:accumulate"
       id="path14223-9"
       sodipodi:cx="213.14218"
       sodipodi:cy="504.5304"
       sodipodi:rx="7.0710678"
       sodipodi:ry="7.5761442"
       d="m 220.21325,504.5304 a 7.0710678,7.5761442 0 1 1 -14.14214,0 7.0710678,7.5761442 0 1 1 14.14214,0 z"
       transform="translate(85.862972,269.02968)" />
    <path
       sodipodi:type="arc"
       style="opacity:0.3;color:#000000;fill:#96b5cd;fill-opacity:1;fill-rule:nonzero;stroke:#3e6683;stroke-width:4;stroke-linecap:round;stroke-linejoin:round;stroke-miterlimit:4;stroke-opacity:1;stroke-dasharray:none;stroke-dashoffset:0;marker:none;visibility:visible;display:inline;overflow:visible;enable-background:accumulate"
       id="path14223-3"
       sodipodi:cx="213.14218"
       sodipodi:cy="504.5304"
       sodipodi:rx="7.0710678"
       sodipodi:ry="7.5761442"
       d="m 220.21325,504.5304 a 7.0710678,7.5761442 0 1 1 -14.14214,0 7.0710678,7.5761442 0 1 1 14.14214,0 z"
       transform="translate(1.0101582,355.9028)" />
    <path
       sodipodi:type="arc"
       style="opacity:0.29999999999999999;color:#000000;fill:#0a1014;fill-opacity:1;fill-rule:nonzero;stroke:#3e6683;stroke-width:4;stroke-linecap:round;stroke-linejoin:round;stroke-miterlimit:4;stroke-opacity:1;stroke-dasharray:none;stroke-dashoffset:0;marker:none;visibility:visible;display:inline;overflow:visible;enable-background:accumulate"
       id="path14223-47"
       sodipodi:cx="213.14218"
       sodipodi:cy="504.5304"
       sodipodi:rx="7.0710678"
       sodipodi:ry="7.5761442"
       d="m 220.21325,504.5304 a 7.0710678,7.5761442 0 1 1 -14.14214,0 7.0710678,7.5761442 0 1 1 14.14214,0 z"
       transform="translate(770.7464,360.95356)" />
    <path
       style="fill:#df7777;fill-opacity:1;stroke:#944545;stroke-width:4;stroke-linecap:round;stroke-linejoin:round;stroke-miterlimit:4;stroke-opacity:1;stroke-dasharray:none"
       d="m 134.37059,816.16923 c 4.04061,-13.13198 28.28427,-8.08122 47.47717,-16.16244 19.1929,-8.08122 47.47717,-28.28427 56.56855,-24.24366 7.39164,2.88892 16.44436,2.74915 19.28563,11.96515 4.90949,15.92453 -31.06317,150.05675 -52.79358,159.67116 -16.94077,6.11294 -24.44439,-5.21024 -30.13166,-9.00175 -15.85849,-10.57232 -12.12184,-43.43656 -14.14214,-57.5787 -2.02031,-14.14213 -28.28427,-49.49747 -26.26397,-64.64976 z"
       id="path14338"
       inkscape:connector-curvature="0"
       sodipodi:nodetypes="cscscssc" />
    <path
       style="fill:#cd5050;fill-opacity:1;stroke:#944545;stroke-width:4;stroke-linecap:round;stroke-linejoin:round;stroke-miterlimit:4;stroke-opacity:1;stroke-dasharray:none"
       d="m 151.44047,824.7203 c 4.04061,-13.13198 28.28428,-8.08122 47.47718,-16.16244 19.1929,-8.08122 47.47717,-28.28427 56.56854,-24.24366 9.09137,4.04061 11.11167,61.6193 20.20305,75.76144 9.09137,14.14213 25.25381,38.3858 19.1929,47.47717 -6.06092,9.09137 -86.87311,49.49747 -103.03555,39.39595 -16.16245,-10.10153 -12.12184,-43.43656 -14.14214,-57.5787 -2.02031,-14.14213 -28.28428,-49.49747 -26.26398,-64.64976 z"
       id="path14338-1"
       inkscape:connector-curvature="0" />
    <path
       style="fill:#f4d193;fill-opacity:1;stroke:#944545;stroke-width:3;stroke-linecap:round;stroke-linejoin:round;stroke-miterlimit:4;stroke-opacity:1;stroke-dasharray:none"
       d="m 157.6041,844.95858 16.16244,-13.13199 25.25382,3.53554 14.14213,-17.17259 24.74874,3.53553 12.12183,-17.67767 13.63706,4.54569 4.04061,20.70812 -14.14214,-3.03045 -11.11167,15.65736 -26.26397,-5.05076 -13.63706,18.18274 -25.75889,-6.06091 -12.62691,11.61675 z"
       id="path14360"
       inkscape:connector-curvature="0" />
    <path
       style="fill:#f4d193;fill-opacity:1;stroke:#944545;stroke-width:3;stroke-linecap:round;stroke-linejoin:round;stroke-miterlimit:4;stroke-opacity:1;stroke-dasharray:none"
       d="m 179.07143,909.71932 8.21428,-8.92857 27.5,2.14286 13.92858,-17.5 24.64285,5 10.71429,-16.42857 20,0 8.57143,14.64285 -20.71429,2.14286 -10.71428,16.07143 -26.78572,-1.42857 -14.28571,16.07143 -26.78572,-3.92857 -12.14285,10.71428 z"
       id="path14362"
       inkscape:connector-curvature="0" />
  </g>
</svg>
