<?xml version="1.0" encoding="UTF-8" standalone="no"?>
<svg viewBox="0 0 300 149.14" xmlns:cc="http://creativecommons.org/ns#" xml:space="preserve" xmlns:dc="http://purl.org/dc/elements/1.1/" xmlns:rdf="http://www.w3.org/1999/02/22-rdf-syntax-ns#" version="1.1" xmlns="http://www.w3.org/2000/svg"><metadata><rdf:RDF><cc:Work rdf:about=""><dc:format>image/svg+xml</dc:format><dc:type rdf:resource="http://purl.org/dc/dcmitype/StillImage"/><dc:title/></cc:Work></rdf:RDF></metadata><g transform="matrix(1.25 0 0 -1.25 -929.9 198.14)"><g transform="matrix(2.5255 0 0 2.5255 -1134.9 -59.796)"><path fill="#e63129" d="m795.14 86.278c-0.311-0.046-0.61-1.191-1.211-1.788-0.439-0.43-0.988-0.404-1.279-0.936-0.111-0.198-0.075-0.538-0.2-0.863-0.246-0.652-1.109-0.71-1.109-1.42-0.003-0.767 0.719-0.913 1.346-1.458 0.489-0.437 0.536-0.739 1.128-0.952 0.506-0.171 1.258 0.39 1.935 0.188 0.555-0.165 1.087-0.284 1.213-0.855 0.111-0.527-0.008-1.342-0.682-1.248-0.227 0.026-1.213 0.357-2.422 0.228-1.461-0.166-3.127-0.642-3.29-2.271-0.09-0.909 1.036-1.982 2.123-1.764 0.751 0.147 0.396 1.034 0.804 1.464 0.537 0.552 3.578-1.925 6.403-1.925 1.19 0 2.075 0.301 2.954 1.221 0.082 0.071 0.182 0.221 0.309 0.231 0.12-0.01 0.329-0.128 0.398-0.178 2.275-1.829 3.996-5.499 12.361-5.541 1.177-0.007 2.516-0.569 3.611-1.567 0.976-0.902 1.546-2.307 2.101-3.731 0.838-2.137 2.337-4.216 4.612-6.529 0.124-0.124 1.997-1.58 2.147-1.688 0.023-0.017 0.161-0.345 0.113-0.528-0.055-1.388-0.257-5.421 2.75-5.604 0.735-0.037 0.543 0.48 0.543 0.835-0.002 0.703-0.13 1.401 0.24 2.121 0.506 0.989-1.074 1.444-1.028 3.583 0.033 1.595-1.307 1.323-1.986 2.538-0.392 0.704-0.74 1.077-0.715 1.938 0.153 4.845-1.031 8.029-1.621 8.811-0.461 0.59-0.842 0.824-0.421 1.097 2.51 1.659 3.079 3.2 3.079 3.2 1.335 3.137 2.535 6.002 4.19 7.264 0.333 0.261 1.188 0.899 1.712 1.149 1.545 0.728 2.357 1.17 2.806 1.606 0.709 0.691 1.271 2.134 0.59 3.008-0.846 1.079-2.309 0.223-2.954-0.16-4.614-2.738-5.294-7.568-6.892-10.342-1.275-2.216-3.348-3.844-5.202-3.977-1.388-0.103-2.887 0.178-4.378 0.833-3.627 1.59-5.611 3.643-6.081 4.006-0.974 0.752-8.538 8.179-14.668 8.482 0 0-0.761 1.524-0.952 1.548-0.448 0.058-0.907-0.909-1.236-1.022-0.309-0.102-0.829 1.047-1.141 0.996"/></g></g></svg>
