<?xml version="1.0" encoding="UTF-8" standalone="no"?>
<!DOCTYPE svg  PUBLIC '-//W3C//DTD SVG 1.1//EN'  'http://www.w3.org/Graphics/SVG/1.1/DTD/svg11.dtd'>
<svg viewBox="0 0 300 300" enable-background="new 0 0 300 300" version="1.1" xmlns="http://www.w3.org/2000/svg" xml:space="preserve" x="0px" y="0px">
				<path d="m151.15 4.931c-3.52 0-10.388 0.368-10.668 0.385 1.331 0.355-102.73 53.74-102.73 53.18-0.032 0.181-0.081 0.331-0.176 0.449-20.628 25.234-32.872 57.29-32.872 92.426 0 28.958 8.437 55.93 22.944 78.656 0.098-0.053 36.938 35.63 36.487 39.123 24.333 18 54.419 28.654 87.006 28.654 11.382 0 22.439-1.344 33.08-3.795-0.194-1.154-0.37-2.309-0.528-3.447l-1.923-13.5c-0.579-3.693-3.604-28.793-3.604-28.793l-0.01-0.074 3.219-1.236s4.232 0.175 4.127 0.188c0 0 4.291 25.244 5.037 29.623l0.807 4.635c0.312 1.867 0.575 3.718 0.96 5.636 0.27 1.595 0.51 3.124 0.746 4.647 3.471-1.043 6.891-2.201 10.246-3.483-0.51-2.869-1.065-5.826-1.112-6.263l-1.729-10.27c-2.284-10.595-3.74-18.454-4.807-23.682-0.152-0.751-0.436-2.086-0.436-2.086l3.305-1.322 4.36 0.34s5.562 24.34 6.951 31.699l1.586 8.193c2.983-1.349 5.937-2.775 8.805-4.318l-0.917-4.204c-0.098-0.407-0.204-0.896-0.329-1.44-1.868-8.222-6.827-31.125-6.827-31.125l3.977-1.562 3.885 0.547h0.019s4.991 21.114 8.23 33.131c5.562-3.452 10.891-7.243 15.915-11.387 0 0 46.373-69.416 46.705-69.187 4.347-13.857 6.701-28.604 6.701-43.899 0-80.884-65.56-146.45-146.43-146.45z" fill="#A3080C"/>
	<path d="m187.83 77.833s-18.29-34.49-25.751-39.667c-7.452-5.177-19.735-8.409-28.25-7.333-10.781 1.361-35.439 14.41-37.078 14.841 0.012 0.126-9.187 11.473-11.589 23.159-0.534 2.597-10 44-10 44l18 52 64.146 30.604 23.521-25.604s3.001-25.333 9.334-44.333 4.333-29.333 4.333-29.333l-6.66-18.334z" fill="#FFF1E2"/>
	<path d="m114.55 210.38c-0.195 0.074-0.373 0.153-0.54 0.228 0.17-0.08 0.35-0.16 0.54-0.23" fill="#fff"/>
	<path d="m114.01 210.61z" fill="#fff"/>
	<path d="m109.27 111.34c-1.018 0.58-1.771 0.716-2.241 0.966-0.471 0.257-1.214 0.809-1.03 1.796 0.194 0.992 0.466 1.314 0.561 2.079 0.09 0.757-0.274 2.129-1.154 3.687-0.866 1.562-2.252 2.69-3.039 3.147-0.774 0.463-1.249 0.588-1.689 0.82-0.1 0.046-0.19 0.285-0.28 0.765l-0.009 0.009c0.056-0.044 0.118-0.085 0.204-0.118 0.169-0.072 0.517-0.081 0.83-0.139 0.303-0.056 0.526-0.127 0.637-0.142 0.118-0.014 0.82-0.113 0.938-0.139 0.118-0.023 2.245-0.468 3.563-1.075 1.311-0.61 3.613-1.72 4.932-3.314 0.969-1.167 2.136-3.292 2.25-5.401 0.027-0.436 0.022-0.707 0.022-0.707s0.005 0 0.005-0.005c0.015 0 0.028-0.004 0.042-0.004-0.218-0.009-0.408-0.081-0.563-0.208-0.353-0.276-0.638-0.48-1.72-1.636-0.696-0.746-0.648-1.293-0.272-1.918-0.009 0.014-0.025 0.028-0.035 0.042-0.32 0.28-0.94 0.89-1.95 1.47" fill="#fff"/>
	<path d="m163.05 104.45s-0.594 0.051-0.798 0.141c-0.162 0.067-0.468 0.181-0.677 0.461-0.208 0.285-0.256 0.783 0.181 1.318 0.445 0.533 1.057 1.529 1.006 2.382-0.032 0.375 0.023 1.601-0.375 2.484-0.445 1.001-0.959 1.988-1.312 2.433-0.204 0.262-1.146 1.304-1.284 2.042-0.037 0.155 0 0.327 0.073 0.489 0 0 0.011-0.009 0.011 0.004-0.005 0.005 0 0.014-0.005 0.023 0.019-0.058 0.042-0.114 0.088-0.167 0.235-0.264 0.714-0.531 1.548-0.788 1.106-0.35 1.891-0.767 2.503-1.233-0.074 0.086-0.093 0.186-0.14 0.285 0.064-0.153 0.135-0.304 0.272-0.424 0.329-0.283 4.669-3.196 4.78-7.899 0.042-1.766-2.249-1.999-3.203-2.031-0.709-0.03-2.045 0.62-2.61 0.483-0.009-0.004-0.026-0.019-0.046-0.023 0.009 0 0.009 0.004 0.009 0.004 0.01 0.03-0.01 0.03-0.01 0.04" fill="#fff"/>
	<path d="m116.83 136.92s17.25 5.334 25.5-4.25c8.25-9.583 22.5 5.084 23.416 9.417 0.918 4.333-21.416 16.333-28.166 16.583s-33.5-3.333-33.5-6.083 12.75-15.67 12.75-15.67z" fill="#fff"/>
	<path d="m187.62 68.375c-2.743-29.092-16.129-43.673-25.75-50.75-10.111-6.662-34.164-12.53-45.5-12-13.37 0.625-44.258 15.214-45.453 16.292-1.139 1.039-21.854 35.677-19.292 41.865s6.192 35.413 7.375 37.76c0.36 0.703 6.269 19.743 10.167 19.042 3.929-0.707 7.592-18.072 7.417-19.417-0.5-3.833-7.457-21.106-6.917-23.542 0.547-2.429 19.128-31.52 20.458-32.542 0.938-0.714 32.811-4.678 32.996-4.37-0.004-0.009-0.004-0.019-0.017-0.028l-0.004-0.005c2.228-1.942 7.395-7.061 12.012-6.877 4.613 0.19 17.802 1.838 25.254 7.021 7.461 5.177 9.765 10.245 10.398 11.663-0.005 0-0.014 0.007-0.019 0.007 0.25 0.037 10.629 23.631 13.671 23.715 2.03 0.062 3.55-4.33 3.21-7.827z" fill="#fff"/>
	<path d="m174.71 87.718c-1.107 0.129-4.134 0.405-4.468 0.447-0.594 0.077-0.579 0.413-0.542 0.665 0.031 0.26 0.125 1.256 0.161 1.685 0.037 0.426 0.482 0.676 0.938 0.639 0.459-0.032 3.354-0.294 3.786-0.361 0.422-0.069 0.839-0.426 0.834-0.767-0.009-0.343-0.004-1.249-0.009-1.615-0.01-0.369-0.28-0.74-0.7-0.693" fill="#fff"/>
	<path d="m54.274 226.84c0.575 0.125 1.188 0.265 1.78 0.403-1.323-0.307-2.762-0.621-3.587-0.825-0.408-0.103-1.05-0.162-1.793-0.147-1.24 0.027-2.771 0.27-4.007 0.891-1.563 0.777-11.493 5.812-15.655 7.914 4.764 6.826 10.08 13.228 15.908 19.141 0.364-1.501 6.873-8.331 7.789-12.334 1.254-5.49-1.867-12.73-0.435-15.04" fill="#fff"/>
	<path d="m220.02 242.72l-7.847 1.012s5.645 26.063 7.156 32.564l0.911 4.204c2.73-1.47 5.399-3.022 8.022-4.653-3.244-12.017-8.235-33.127-8.235-33.127z" fill="#fff"/>
	<g fill="none">
		<polygon points="172.61 223.62 171.82 221.37 170.92 221.37 170.92 224.52 171.49 224.52 171.49 221.99 172.37 224.52 172.87 224.52 173.74 221.99 173.74 224.52 174.32 224.52 174.32 221.37 173.42 221.37"/>
		<polygon points="167.71 221.9 168.73 221.9 168.73 224.52 169.36 224.52 169.36 221.9 170.38 221.9 170.38 221.37 167.71 221.37"/>
	</g>
	<path d="m265.49 138.44c-3.963 2.994-6.158 7.038-6.146 11.085 0.019 5.999 4.871 11.776 16.113 11.739 2.79-0.019 5.251-0.301 7.488-0.681 0.653-0.106 1.293-0.224 1.9-0.349l1.307-5.584c-2.178 0.728-4.931 1.33-7.137 1.34-5.987 0.019-10.001-3.531-10.01-8.186-0.01-2.481 1.01-4.66 2.854-6.254 1.975-1.708 4.886-2.741 8.527-2.741 2.883 0 4.569 0.797 5.719 1.935 0.231 0.223 0.444 0.457 0.63 0.702h0.938l1.835-6.59c-1.891-0.624-4.694-1.149-7.651-1.182-6.88-0.09-12.47 1.83-16.36 4.77" fill="#fff"/>
	<path d="m256.11 139.35c0.808 0 1.479 0.294 1.929 0.679 0.385 0.327 0.616 0.716 0.616 1.052h0.923l1.789-7.156h-24.295l-0.355 1.4-0.084 0.34s2.66 0.299 1.845 2.957l-6.065 22.034 10.315 0.02h1.809l0.459-1.892s-2.268-0.547-1.675-2.642c0.028-0.131 0.882-3.264 1.392-5.145 0.228-0.812 0.39-1.396 0.39-1.396l5.552-0.004c0.908 0 1.604 0.167 2.142 0.375 1.112 0.426 1.539 1.072 1.539 1.072l1.611-6.548h-9.36l1.011-3.74 0.38-1.395 8.12-0.01z" fill="#fff"/>
	<path d="m226.59 156.73c-0.719-0.77-6.961-10.493-6.961-10.493l11.039-8.835 0.366-0.294c0.494-0.413 0.959-0.705 1.366-0.917 1.173-0.603 1.929-0.517 1.929-0.517l0.443-1.761-14.189 0.021-0.353 1.395-0.084 0.345c0.964 0.067 2.31 0.929 1.21 1.956-0.144 0.123-11.404 8.727-11.404 8.727l0.088-0.304 2.341-8.481c0.495-1.694 2.315-1.898 2.315-1.898l0.445-1.745-13.546 0.004-0.348 1.395-0.089 0.345c0.648 0.167 2.498 0.526 1.857 2.957-4.521 16.338-4.004 14.721-4.31 15.611-1.012 3.873-2.53 4.406-3.443 4.505-0.199 0.019-0.371 0.019-0.496 0.026l-0.186 0.732-0.287 1.158h14.168l0.473-1.918s-2.248-0.445-1.82-2.067c0.218-0.815 0.786-2.883 1.287-4.708 0.486-1.771 0.917-3.323 0.917-3.323 2.457 3.939 3.022 4.426 5.988 8.495 2.729 3.764 5.646 3.588 12.688 3.54 0.574-0.004 1.168-0.009 1.808-0.009l0.468-1.882c-1.79 0.01-2.98-1.29-3.69-2.06" fill="#fff"/>
	<path d="m293.4 134.39c-0.352-0.345-0.769-0.517-1.27-0.517-0.491 0-0.908 0.172-1.261 0.517-0.344 0.345-0.52 0.769-0.52 1.263 0 0.498 0.176 0.92 0.52 1.272 0.344 0.346 0.77 0.526 1.261 0.526 0.501 0 0.918-0.181 1.27-0.526 0.349-0.352 0.524-0.774 0.524-1.272 0.01-0.49-0.17-0.91-0.52-1.26m-0.18 2.36c-0.297 0.303-0.667 0.457-1.094 0.457-0.426 0-0.788-0.153-1.084-0.457-0.297-0.299-0.45-0.665-0.45-1.096 0-0.422 0.153-0.788 0.45-1.087 0.301-0.303 0.658-0.456 1.084-0.456 0.427 0 0.788 0.153 1.094 0.456 0.297 0.299 0.445 0.665 0.445 1.087 0.01 0.43-0.14 0.8-0.44 1.1" fill="#fff"/>
	<path d="m292.94 135.23c0-0.246-0.106-0.412-0.302-0.498-0.13-0.042-0.297-0.065-0.537-0.065h-0.687v1.963h0.339v-0.776h0.272c0.189 0 0.314 0.023 0.395 0.065 0.116 0.076 0.181 0.225 0.176 0.452v0.151l0.015 0.067v0.023s0 0.009 0.01 0.019h0.319l-0.005-0.028c-0.019-0.014-0.019-0.046-0.027-0.1v-0.29c0-0.1-0.037-0.209-0.11-0.309-0.065-0.1-0.187-0.167-0.334-0.19 0.12-0.019 0.213-0.046 0.282-0.095 0.12-0.06 0.19-0.19 0.19-0.37m-0.54 0.35c-0.069 0.028-0.177 0.037-0.319 0.037h-0.319v-0.707h0.292c0.194-0.004 0.338 0.023 0.426 0.072 0.084 0.046 0.13 0.146 0.13 0.29-0.01 0.14-0.08 0.25-0.21 0.31" fill="#fff"/>
	<path d="m273.5 189.5c-18.667-5.667-57-4.333-57-4.333l31.333 73.833s2.902-1.455 3.264-0.661c16.999-15.892 30.198-35.764 38.113-58.146-0.61-0.48 2.97-5.02-15.7-10.69z" fill="#fff"/>
		<polygon points="174.32 221.75 174.32 221.37 174.01 221.37" fill="none"/>
			<polygon points="174.32 221.75 174.32 221.37 174.01 221.37" fill="none"/>
			<path d="m209.84 276.62c-1.399-7.358-6.966-31.699-6.966-31.699s7.391-1.942 9.124-6.173c1.733-4.229-2.189-10.745-2.375-13.313-0.801-7.666-3.813-39.063-8.75-45.563-2.875-3.785-16.096-11.253-17.125-11.208-4.75 0.208-14.25 20.896-22.188 22.771-5.291 1.25-9.028-3.897-8.172-3.508-0.015-0.011-0.033-0.02-0.042-0.029 0 0 0.009-0.592-0.876-3.373-0.885-2.791-2.739-5.719-3.082-6.381-0.333-0.664-1.339-2.109-1.374-2.275-0.028-0.163-0.394-1.094-0.653-2.79-0.493-3.272-0.267-5.464-0.248-5.663 0.01-0.2 0.101-0.793 0.128-0.913 0.021-0.126-0.028-0.339-0.179-0.376-0.158-0.027-0.58-0.13-1.021 0.324-0.92 0.928-0.962 1.104-0.979 1.261-0.032 0.147 0.063 0.427 0.035 0.751-0.1 1.029-0.28 1.816-0.741 2.567-0.459 0.76-0.758 1.021-1.408 0.959-0.661-0.06-1.211-0.584-1.291-1.941-0.086-1.356-0.353-1.821-0.625-2.141-0.271-0.334-0.889-0.487-1.1-0.474-0.208 0-0.382 0.186-1.812 0.537-1.418 0.361-3.672 0.482-4.004 0.496-0.339 0.02-1.576 0.145-1.585 0.148 0.259 0.968-5.198-0.52-6.116 0.216-1.875 1.5-2.751 11.24-3.667 16.291-0.001 0.004-0.001 0.009-0.002 0.015l-30.75 3.09-10.75 25s3.25 49.5 3.25 50.25 68-14.75 68-14.75l25.655-0.555s0.006 0.019 0.011 0.068c0.181 1.479 3.025 25.104 3.604 28.803l1.923 13.49c0.158 1.146 0.334 2.305 0.528 3.448 2.976-0.687 5.923-1.45 8.829-2.321-0.236-1.521-0.479-3.055-0.746-4.64-0.381-1.923-0.645-3.772-0.955-5.64l-0.814-4.635c-0.742-4.375-5.042-29.613-5.042-29.613l4.507-2.846 5.216 1.594c0.139 0.64 0.278 1.334 0.436 2.086 1.07 5.236 2.53 13.087 4.807 23.672l1.729 10.279c0.047 0.436 0.604 3.393 1.117 6.266 2.743-1.053 5.445-2.188 8.11-3.393l-1.59-8.21z" fill="#fff"/>
<g fill="#F5D4B7">
	<path d="m158.88 89.083c-5.667 0.833-13.917 5.458-13.542 8.833 0.231 2.092 12.05 2.412 17.375 2.792s6.204-4.739 5.918-7.521c-0.3-2.784-3.8-4.982-9.76-4.106z"/>
	<path d="m197.55 179.94c-2.813-0.293-1.506 4.267-1.539 4.729v0.009c1.423 5.367 2.604 10.721 3.518 15.567 0.011 0.478 0.047 0.897 0.106 1.237 0.403 2.112 1.237 8.938 2.841 24.357 0.371 5.135 0.695 10.492 0.909 14.997 0.146-0.01 9.618 0.539 9.618 0.539s-0.375-13.25-3.313-29.875c-2.95-16.65-7.36-31.08-12.15-31.58z"/>
	<path d="m172.01 138.19c0.426-2.345-0.062-3.504-0.83-4.875-0.755-1.367-2.215-2.646-4.102-3.886-1.825-1.214-5.95-4.854-6.35-5.198-0.39-0.336-2.316-2.157-2.762-2.519-0.464-0.357-1.363-1.105-3.337-2.106-4.783-2.412-8.629-0.607-8.778-0.524-0.146 0.082-0.856 0.656-1.536 1.302-0.67 0.635-0.167 1.863 0.09 2.311 0 0 25.384 18.607 25.435 19.041l0.019 0.014c0 0.01 1.79-1.64 2.15-3.55"/>
	<path d="m161.5 115.27c-0.834 0.257-1.313 0.523-1.548 0.788-0.046 0.053-0.064 0.111-0.083 0.167-0.02 0.044-0.02 0.09-0.02 0.134v0.102c0.009 0.044 0.027 0.081 0.037 0.121 0.022 0.046 0.046 0.095 0.074 0.141 0.019 0.03 0.037 0.063 0.063 0.095 0.037 0.058 0.089 0.113 0.14 0.171 0.022 0.028 0.047 0.051 0.074 0.077 0.064 0.064 0.135 0.132 0.214 0.199 0.019 0.019 0.037 0.037 0.06 0.051 0.089 0.077 0.182 0.148 0.273 0.225 0.019 0.009 0.027 0.019 0.047 0.033 0.111 0.081 0.223 0.155 0.334 0.231 0.004 0.005 0.009 0.005 0.014 0.009 0.125 0.081 0.245 0.158 0.361 0.234 0.125 0.074 0.301 0.113 0.515 0.118 0.203 0.009 0.454-0.019 0.724-0.067 0.89-0.176 2.029-0.625 2.993-1.087 0 0.005-0.01 0-0.019 0.005-0.056 0.019-1.821-2.894-1.752-2.98-0.58 0.48-1.36 0.9-2.48 1.25"/>
	<path d="m127.42 132.68c0.07 0.028 0.132 0.069 0.204 0.097-0.009-0.009-0.015-0.014-0.02-0.023-0.361-0.375-0.389-0.459-0.515-0.969-0.137-0.531-0.484-1.182-0.63-1.55-0.157-0.371-0.855-1.629-1.124-2.444-0.268-0.816-0.389-1.314-0.443-2.132-0.208-0.617-0.366-1.845-0.271-2.955 0.081-0.982 0.299-2.113 0.922-5.292 0.422-2.088-0.239-4.493-0.262-6.72-0.02-1.717-0.19-5.937-0.143-10.184v-0.014c-0.294 0.1-38.097-8.01-37.831-8.05 0.005 0 0.015-0.005 0.023-0.005 0.299-3.13 0.118-7.341-0.051-10.534 0.978-9.591 2.453-20.693 5.842-28.094 2.619-5.691 2.269-3.816 3.563-6.498 0.072-0.144 0.167-0.313 0.182-0.512 0.014-0.134-0.096-0.887-0.118-1.126v-0.009c-0.077 0.023-9.29-2.557-20.753 23.752-4.799 10.994 1.586 38.556 1.586 38.556l9.979 3.313 6.5-3.531 15.375-3.156 6.281 3.063s-1.934 5.881-1.95 5.881c0 0.004-0.005 0.004-0.005 0.004s0.005 0.276-0.027 0.707c-0.108 2.113-1.276 4.238-2.25 5.406-1.313 1.59-3.614 2.7-4.924 3.313-1.32 0.603-3.445 1.052-3.57 1.073-0.113 0.027-0.82 0.123-0.935 0.141-0.114 0.009-0.332 0.081-0.635 0.141-0.315 0.054-0.66 0.063-0.832 0.135-0.086 0.032-0.151 0.074-0.204 0.123-0.095 0.077-0.146 0.167-0.171 0.267-0.005 0.009-0.009 0.028-0.009 0.042-0.02 0.095-0.02 0.19-0.005 0.276 0.063 0.313 0.402 0.749 0.442 0.825 0.142 0.271 0.957 1.045 2.292 0.746 1.756-0.394 2.891-0.746 4.063-1.124 1.182-0.385 2.749-1.063 2.988-1.272 0.243-0.202 0.893-0.698 0.997-0.755 0-0.005 0.004-0.005 0.004-0.005 0.135-0.123 0.263-0.239 0.39-0.348 0.054-0.046 0.108-0.104 0.163-0.146 0.013-0.011 0.022-0.02 0.036-0.031 0.207 2.477-2.764 9.914-2.764 9.914s-6.922 2.463-6.483 2.137-0.008 0-0.008 0.004c-0.563 0.276-1.391 0.575-2.229-0.081 0 0-0.815-0.952-1.813-2.215-0.598-0.755-1.258-1.617-1.855-2.458-0.422-0.593-0.723-1.077-0.945-1.476-0.431-0.734-0.603-1.205-0.679-1.499-0.009-0.023-0.019-0.049-0.019-0.067-0.186-0.489-0.341-1.281-0.341-1.281-1.249-0.155-2.563-0.44-3.776-0.883 0.009 0.004 0.009 0.016 0.019 0.025 0.101 0.09-8.573 1.982-8.573 1.982l8.975 36.563s16.75 26.333 27.25 21.25c1.565-0.758 4.29-6.095 3.167-7.917-1.154-1.867-18.917-31.333-18.917-31.333s24.6-13.17 24.84-13.06z"/>
	<path d="m161.47 232.06c3.281 2.178 4.422 2.688 8.009 4.188 1.141 0.538 4.152-0.074 5.44-2.002-0.023 0.01-0.046 0.037-0.064 0.052-0.01 0.004-0.01 0.004-0.019 0.004-0.084 0.051-17.861-13.898-20.178-14.723-0.825-0.292-5.365 1.374-4.781 2.213 0.523 0.755 2.718 3.042 2.77 3.13 3.09 2.41 6.99 5.63 8.82 7.14"/>
	<path d="m123.67 206.33l-29.729-17.021s0.867 8.433 0.862 8.565c0.005 0.005 0.005 0.005 0.009 0.011 2.169 1.94 5.566 4.264 6.103 4.629 0.198 0.131 1.58 1.043 1.875 1.373 0.365 0.397 4.033 3.006 4.313 3.201 0.268 0.182 4.229 2.368 6.629 3.646 0.086-0.047-1.67 1.391-1.643 1.345-0.844 0.056-1.456 0.444-2.387 0.741-4.167 2.341-1.694 7.211-1.301 10.604 0.797 2.859 1.804 7.823 5.511 8.286 2.822 0.339 9.282-1.427 12.697-2.127 0.484-0.856 5.435-1.163 5.374-1.094 0.874-0.261 2.046-0.673 2.401-0.607 0.213 0.037-0.774 1.085-1.346 2.155-0.575 1.08-4.129 11.572-7.438 17.161-1.11 2.289-0.584 1.344-1.26 3.008v0.005l6.705 1.535 10.833-27.501-18.2-17.93z"/>
	<path d="m89.943 227.71c1.154 2.141 4.479 6.632 4.642 6.887 0.162 0.25 0.878 1.021 1.722 1.965 0.846 0.94 1.571 1.762 1.775 2.002 0.204 0.232 1.789 1.877 2.198 2.254 0.408 0.375 0.881 1.14 1.224 1.459 1.173 1.053 5.492 4.807 5.909 5.117 0.417 0.318 2.477 1.699 2.848 1.75 3.71 0.47 5.531-1.562 5.907-2.164 0.38-0.588 0.452-0.842 0.218-1.724-0.005 0.063-14.322-10.694-23.822-31.382-0.368-0.801-3.663-4.791-6.688-2.375-2.484 1.984-0.688 6.738-0.688 6.738v0.027c0.939 1.94 3.764 7.61 4.751 9.44"/>
	<path d="m61.833 229.75c0.958-3.584-6.987-2.785-7.56-2.915-2.477 4.009-5.106 17.625-6.445 24.002-0.232 0.718-0.544 1.872-0.911 3.364 1.824 1.854 3.688 3.666 5.604 5.418 1.383-5.38 9.058-28.92 9.312-29.87z"/>
</g>
		<path d="m292.61 136.59c0 0.009 0.005 0.019 0.005 0.023 0 0 0 0.009 0.005 0.019-0.005-0.009-0.005-0.019-0.005-0.019s-0.01-0.01-0.01-0.02" fill="#A3080C"/>
		<path d="m274.56 187.91c-4.431-0.981-14.923-3.087-29.066-4.386-14.136-1.287-25.707-2.391-27.297-2.563-1.456-0.145-1.983-1.479-3.305-2.143-4.792-2.403-13.848-4.633-19.523-6.631-1.404-0.486-2.327-1.729-4.265-4.092-1.178-1.441-1.975-2.091-2.983-3.004-0.604-0.552-1.919-1.664-2.271-1.933-0.343-0.278-0.584-1.075-0.287-2.623 0.297-1.554 1.225-7.614 1.149-14.67-0.02-1.894 0.814-3.107 1.701-3.55 0.477-0.241 3.582-1.622 3.373-4.674-0.219-3.089-1.173-7.398 1.312-13.463 2.405-5.876 5.408-16.364 5.771-23.283 0.385-7.35-1.461-12.091-4.361-14.658-1.131-0.992-2.466-2.491-1.376-5.691 1.163-3.443 3.275-12.846 1.2-19.066-0.465-1.381-0.992-1.39-1.309-1.557-0.318-0.162-1.825-1.316-2.391-3.854-0.761-3.346-3.207-15.238-12.43-27.327-4.886-6.418-10.104-10.235-12.188-11.773-1.428-0.929-3.935-2.676-6.934-4.271-4.291-2.269-7.697-4-14.548-6.217-0.648-0.204-2.115-0.653-4.053-1.17h-0.022s-5.837-1.562-12.149-2.299c-1.078-0.1-2.553-0.236-4.227-0.35-6.498-0.38-8.87 0.019-12.249 0.359-0.361 0.035-0.729 0.09-1.092 0.139-0.674 0.09-1.371 0.194-2.1 0.308-10.04 1.719-20.254 6.428-25.222 8.797-2.805 1.332-5.286 2.718-7.568 4.018-0.063 0.04-0.144 0.086-0.186 0.111-0.588 0.359-1.509 0.872-2.407 1.365-1.404 0.792-2.746 1.534-4.046 2.169-4.021 1.956-7.558 2.957-10.144 3.854-0.47 0.176-0.863 0.325-1.168 0.429-1.864 0.726-3.052 1.476-3.27 2.713-0.398 2.22 2.215 4.28 1.282 7.821-2.297 8.708-12.126 17.066-13.702 18.03-4.565 2.786-4.28 4.725-4.456 5.717 0 0.922 0.189 1.946 0.714 3.052 1.521 3.223 4.335 5.985 5.712 8.898 1.381 2.915 2.168 8.024 1.135 13.996-0.986 5.775-1.295 7.056-1.808 8.115-0.51 1.063-1.539 3.128-0.12 5.584 1.425 2.463 4.428 4.975 6.312 6.421 1.002 0.774 1.521 1.476 0.778 2.871-1.224 2.283-0.911 7.666 0.248 10.678 1.75 4.595 3.805 8.975 5.712 11.79 1.909 2.813 5.315 7.601 7.318 9.333 1.995 1.743 2.269 4.764 2.23 6.639-0.042 1.865-0.304 7.153 5.13 10.462 2.678 1.646 2.918 1.232 3.9 2.039 0.982 0.793 1.444 1.205 2.123 3.346 0.679 2.133 3.768 9.612 8.021 14.877 1.241 1.529 1.93 2.613 2.078 2.864 0.15 0.25 0.381 0.528-0.157 1.788-0.535 1.261-2.682 8.439-4.395 15.859-0.313 1.361-0.773 3.15-2.48 3.99-1.71 0.824-5.529 2.934-6.919 3.702-1.399 0.769-2.089 1.187-3.698 3.188-0.716 0.89-1.237 1.412-1.689 1.955-0.26 0.314-0.375 0.515-1.735 1.224-1.178 0.612-18.66 6.763-37.198 18.103-0.459 0.277-0.888 0.523-1.314 0.76 1.092 1.705 2.206 3.394 3.365 5.043 4.162-2.104 14.091-7.137 15.652-7.915 1.232-0.621 2.765-0.862 4.004-0.892 0.746-0.014 1.386 0.047 1.793 0.148 0.832 0.204 2.264 0.52 3.594 0.824 0.123 0.027 0.246 0.057 0.373 0.084 0.082 0.019 0.163 0.037 0.248 0.061 0.549 0.135 1.057 0.256 1.467 0.366 0.023 0.009 0.042 0.009 0.065 0.019 0.199 0.057 0.38 0.106 0.519 0.148 1.181 0.389 1.809 2.604 1.17 4.62-0.113 0.38-0.481 1.659-1.02 3.55-0.268 0.95-0.575 2.044-0.911 3.258-0.338 1.215-0.707 2.551-1.096 3.969-1.367 4.967-2.972 10.928-4.353 16.309 3.7 3.373 7.582 6.548 11.616 9.531 0.452-3.493 0.927-7.131 1.295-9.777 0.964-6.904 6.479-32.479 8.036-38.294 1.133-4.231 1.722-6.159 3.211-6.826 0.447-0.194 0.955-0.491 1.249-0.635 0.294-0.136 0.938-0.292 0.739 0.829-0.228 1.33-1.376 6.757-3.065 24.367-1.173 12.217-1.201 23.037-0.779 29.545 0.182 2.771 0.229 6.688 4.469 4.99 4.954-1.979 21.842-8.035 30.864-10.815 14.527-4.481 41.755-10.466 67.998-14.339l7.338-1.043s4.296 25.242 5.036 29.617l0.815 4.631-0.807-4.631c-0.746-4.375-5.037-29.617-5.037-29.617 1.028-0.141 2.063-0.273 3.082-0.403 2.35-0.297 4.556-0.574 6.632-0.844l7.665-0.982c3.587-0.459 6.664-0.853 9.272-1.194 0 0 4.954 22.902 6.817 31.129 0.13 0.541 0.241 1.029 0.334 1.437l0.917 4.204h0.014l-0.912-4.204c-1.512-6.507-7.155-32.565-7.155-32.565l7.847-1.011c2.321-0.296 5.278-0.667 6.159-0.709 1.844-0.077 2.649-1.12 1.241-1.543-1.016-0.297-3.364-0.532-4.552-0.561-0.453-0.005-1.278-0.015-1.771-0.023-1.816-0.032-2.335-0.39-2.734-3.067-1.131-7.852-5.505-27.314-8.646-37.575-3.04-9.899-3.791-12.749-4.523-14.929-0.64-1.877 0.6-1.992 1.196-1.965 2.215 0.106 5.283 1.256 6.163 3.151 1.947 4.222 15.266 39.108 20.614 52.114 3.374 8.193 7.304 18.056 11.016 26.842 2.378-1.955 4.672-4.014 6.919-6.117-6.909-15.191-22.291-49.605-30.401-67.021-0.292-0.627-0.686-1.642-0.885-2.238-0.069-0.199-0.098-0.376-0.098-0.533 0.01-1.111 1.479-1.266 2.206-1.195 2.863 0.287 28.872 2.002 35.973 2.68 4.686 0.443 9.361 1.158 12.484 1.715 0.724 0.134 1.361 0.255 1.899 0.361 0.667 0.133 1.168 0.239 1.492 0.328 2.317 0.604 6.404 2.221 10.188 4.25 1.565 0.834 3.346 2.049 5.255 3.514 0.575-1.633 1.148-3.269 1.669-4.922-1.362-0.945-2.893-1.91-4.395-2.717-4.32-2.33-7.97-3.8-11.92-4.68m-211.78-86.25c-0.707 0.304-1.346 0.385-1.835-0.579-1.186-2.345-2.087-6.521-2.431-9.234-0.354-2.711-0.896-10.803-0.725-15.224 0.189-4.424-0.675-6.896-2.256-9.012-1.585-2.113-2.604-3.58-2.993-4.292-0.489-0.888-0.162-1.495 0.773-2.173 0.454-0.318 1.381-0.127 2.098-0.276 1.418-0.285 6.153-2.002 9.681-4.769 3.52-2.767 9.13-8.119 12.937-10.179 3.795-2.06 5.48-2.999 9.922-3.532 0.788-0.092 1.97 0.329 0.636 1.344-1.333 1.015-5.608 2.53-10.593 10.052-3.061 4.602-3.56 7.26-4.529 9.325-0.974 2.064-1.905 2.648-3.446 4.319-0.75 0.797-2.278 2.472-2.829 4.901-0.535 2.431-2.748 10.995-1.448 23.948 0.153 1.508 0.774 3.515-0.64 4.245-0.873 0.46-1.622 0.84-2.322 1.14m6.104 17.45c-0.753-0.535-3.831-4.702-5.33-9.333-0.165-0.489-0.345-1.733 0.466-2.088 0.665-0.285 1.548-0.797 2.007-1.015 0.465-0.234 1.624-0.538 1.784 1.133 0.162 1.675 0.308 3.649 2.217 8.59 0.346 0.883 0.417 1.159 0.507 1.513 0.247 1.03-0.954 1.7-1.651 1.2m6.27-15.73c-0.204 0.035-2.316 0.29-3.455 0.503-0.707 0.13-1.435 0.394-1.516-0.287-0.095-0.774-0.322-1.796-0.389-2.072-0.061-0.287 0.077-0.559 0.419-0.64 0.839-0.194 4.081-0.739 4.394-0.755 0.313-0.004 0.63 0.102 0.766 0.751 0.123 0.651 0.279 1.344 0.316 1.626 0.038 0.29 0.119 0.78-0.535 0.88m1.152-10.581c-0.195-0.987-0.468-2.677-0.38-3.729 0.03-0.419 0.157-1.467 0.66-2.032 0.711-0.806 1.656-1.539 2.269-2.035 1.115-0.913 0.883-3.276 0.964-4.632 0.246-3.939-0.104-16.378 7.968-28.279 0.311-0.452 0.628-0.869 0.94-1.263 0.095-0.118 0.19-0.227 0.285-0.343 0.232-0.273 0.463-0.536 0.702-0.779 0.1-0.109 0.199-0.213 0.304-0.313 0.285-0.281 0.575-0.549 0.864-0.792 0.042-0.033 0.079-0.07 0.118-0.104 0.327-0.264 0.655-0.503 0.981-0.73 0.118-0.077 0.236-0.153 0.354-0.222 0.225-0.148 0.452-0.281 0.679-0.41 0.129-0.07 0.257-0.142 0.389-0.209 0.248-0.127 0.503-0.246 0.755-0.359 0.096-0.04 0.19-0.086 0.285-0.13 0.327-0.137 0.663-0.259 0.996-0.373 0.143-0.049 0.281-0.09 0.422-0.134 0.224-0.07 0.447-0.137 0.67-0.199 0.076-0.019 0.146-0.046 0.223-0.065v0.009c1.643-0.438 3.328-0.684 5.03-0.973 4.805-0.816 10.406-0.053 13.287 0.864 2.29 0.725 3.45 1.281 4.216 0.558 0.769-0.72 2.775-2.994 3.626-3.8 0.117-0.114 0.209-0.239 0.272-0.362 0.026-0.042 0.04-0.085 0.059-0.127 0.031-0.081 0.058-0.167 0.071-0.252 0.005-0.046 0.015-0.095 0.015-0.146 0-0.081-0.01-0.162-0.023-0.248-0.009-0.042-0.009-0.09-0.03-0.132-0.031-0.118-0.083-0.232-0.154-0.341-0.187-0.311-0.484-0.588-0.852-0.809-0.934-0.549-10.312-7.431-22.954-7.739-12.353-0.309-22.379 4.062-25.038 4.977-0.538 0.181-0.814 0.276-1.13 0.28-0.313 0.009-1.391-0.359-0.992-1.138 0.438-0.832 1.534-2.113 2.673-3.151 1.195-1.077 7.04-6.579 12.813-9.127 1.068-0.468 1.328-0.663 2.012-0.929 0.874-0.331 1.391-2.301-0.54-2.306-1.979-0.014-2.767 0.208-3.812 0.371-1.047 0.174-1.622-0.294-0.961-1.191 0.653-0.894 1.944-1.886 4.274-3.151 5.059-2.757 14.313-5.663 18.688-6.62 5.705-1.249 6.402-1.33 10.188-1.562 3.541-0.204 6.373 0.046 7.713 0.1 11.343 0.431 24.406 4.185 34.519 10.844 9.616 7.075 23.455 18.862 26.198 47.959 0.329 3.492 0.098 5.471-0.037 6.345-0.12 0.874-1.112 2.481-1.983 0.656-2.869-6.013-7.304-13.882-12.309-21.341-0.297-0.443-0.599-0.656-0.844-0.688-0.103-0.021-0.19-0.004-0.278 0.033-0.022 0.014-0.037 0.037-0.06 0.053-0.048 0.037-0.099 0.083-0.136 0.146-0.019 0.044-0.042 0.09-0.056 0.137-0.023 0.063-0.037 0.134-0.046 0.204-0.01 0.063-0.02 0.121-0.02 0.186 0 0.148 0.01 0.311 0.052 0.489 0.125 0.528 1.719 8.418 1.778 9.517 0.069 1.096-0.468 3.786 3.619 8.75 1.669 2.037 3.151 3.777 3.912 6.782 0.75 2.994 1.005 4.275 1.01 4.593 0.011 0.313 0.371 1.205-1.075 1.214-1.437 0.004-6.924-0.394-9.272-0.341-2.35 0.056-18.569 1.647-24.603 2.929-6.035 1.284-9.282 2.804-12.381 6.06-0.746 0.783-1.789 1.513-2.026 1.58-0.224 0.063-1.011 0.046-2.549-0.058-1.532-0.1-4.189 0.276-5.584 0.906-1.404 0.628-2.405 1.212-4.096 0.523-2.417-0.978-6.563-5.443-17.328-4.917-6.48 0.317-9.8 0.494-14.297 1.159-0.262 0.042-0.533 0.081-0.802 0.123-0.171 0.028-0.348 0.055-0.523 0.085-0.095 0.014-0.194 0.028-0.294 0.046-1.831 0.299-3.899 0.684-6.452 1.182-0.354 0.067-0.702 0.139-1.068 0.208-1.009 0.199-1.697-0.247-1.882-1.287m99.128-2.776c0 0.343-0.417 0.698-0.844 0.77-0.422 0.067-3.318 0.332-3.781 0.366-0.454 0.032-0.899-0.218-0.937-0.646-0.037-0.422-0.131-1.423-0.157-1.685-0.047-0.246-0.057-0.589 0.533-0.665 0.343-0.042 3.363-0.313 4.477-0.445 0.417-0.049 0.69 0.327 0.7 0.692 0 0.366 0 1.273 0.01 1.613m-13.55 3.251c-0.896-0.63-2.471-1.622-3.425-1.97-0.658-0.236-0.428-1.059 0.51-1.191 3.263-0.475 5.356-0.475 6.979 0.538 1.187 0.735 1.975 2.162 1.612 3.42-0.427 1.444-0.992 1.131-1.701 1.119-0.71-0.013-3.09-1.283-3.98-1.916m1.89 6.366c-0.574 0.387-2.451 0.042-3.133-0.225-1.399-0.549-2.392-0.929-4.338-2.164-1.271-0.806-3.48-1.205-5.413-0.621-1.274 0.385-2.298 0.707-3.42 1.14-1.124 0.431-1.354-0.593-1.06-1.031 0.29-0.437 2.069-2.52 4.429-3.406 0.496-0.19 1.506-0.294 2.002-0.304 1.521-0.044 3.406 0.698 4.834 1.74 1.44 1.05 3.726 2.762 5.228 3.404 0.7 0.303 2.23 0.526 0.87 1.467m-46.92 50.65c-5.692 1.993-7.288-0.009-7.795-0.603-0.505-0.593 0.118-1.172 0.721-1.453 1.354-0.63 3.166-2.002 4.081-2.895 0.92-0.892 2.707-3.997 3.997-5.088 0.612-0.521 3.918-1.645 6.405-0.459 2.957 1.409 7.561 1.555 10.388 1.187 2.825-0.38 3.902-2.445 4.515-3.664 0.611-1.23 2.11-1.68 2.898-2.004 2.169-0.887 5.04-3.863 5.334-4.166 0.294-0.313 1.189-0.753 2.612 0.081 2.59 1.522 3.907 3.536 6.312 6.268 2.405 2.734 5.251 3.161 6.085 3.214 0.835 0.053 1.354 1.02 1.392 1.286 0.046 0.266-0.649 1.191-1.168 1.58-0.521 0.389-0.808 1.078-5.413 1.187-23.1 0.56-33.5 3.12-40.36 5.52m31.35 2.78c-1.371 0.709-5.449 2.246-7.479 2.637-2.037 0.391-8.5 1.701-9.591 1.789-1.358 0.105-3.261-0.302-4.913-1.432-0.332-0.229-0.783-1.117 0.422-1.295 2.236-0.332 5.846-2.01 18.978-2.679 1.411-0.073 2.074-0.102 2.412-0.11 0.33-0.01 1.55 0.37 0.17 1.08m-30.43 29.16c-4.586 0.756-16.795-2.826-24.733-22.416-2.046-5.039 0.198-10.053 2.167-11.067 1.168-0.593 1.8-0.834 2.198-0.934 0.432-0.109 2.51-0.38 2.746 1.958 0.187 1.891 3.858 17.417 8.794 22.551 1.217 1.273 2.179 1.195 2.493-0.12 0.27-1.205 0.802-2.79 0.957-3.394 0.109-0.436 1.3-1.752 1.975-0.074 1.452 3.561 3.204 8.223 4.355 10.09 1.13 1.81 0.77 3.11-0.95 3.4m0.91-51.22c0.431 0.598 0.698 1.685 0.665 2.165-0.044 0.554-1.938 1.559-3.907-0.651-1.97-2.215-1.585-5.276-0.77-6.576 1.3-2.074 3.854-1.041 3.607-0.301-0.85 2.56-0.03 4.75 0.41 5.36m-14.64-28.69c-1.473-0.048-3.058-0.229-5.747 0.767-3.01 1.112-4.945 2.563-6.345 3.422-1.439 0.897-2.962 1.282-3.472 1.319-0.507 0.044-2.355-0.199-1.082-1.537 0.338-0.366 1.149-0.642 2.38-1.539 0.88-0.648 1.532-1.11 2.533-1.953 1.784-1.52 5.42-3.717 7.005-3.912 1.163-0.139 3.219 0.081 4.442 1.082 1.28 1.04 1.77 2.4 0.29 2.35m-25.326 2.61c0.155-0.964 1.209-3.506 3.43-4.243 0.299-0.09 1.406-0.45 2.331-0.688 1.091-0.275 2.264-0.517 2.862-0.625 1.607-0.28 1.946 0.943 0.934 1.74-0.663 0.528-1.722 1.216-2.658 1.974-1.423 1.164-2.79 2.458-3.847 3.337-1.287 1.07-3.372 0.48-3.052-1.5m7.545 27.68c-0.005-0.004-0.009-0.009-0.009-0.009-0.009-0.014-0.015-0.023-0.023-0.035-0.398-0.559-0.77-1.147-1.117-1.745-0.073-0.132-0.146-0.267-0.222-0.399-0.346-0.642-0.67-1.291-0.925-1.974-0.498-1.323 0.336-1.518 0.892-1.23 0.555 0.297 2.179 1.244 3.914 1.61 1.06 0.218 1.689-0.29 1.938-1.054 0.037-0.114 0.085-0.255 0.137-0.408 0.03-0.067 0.053-0.139 0.076-0.213 0.014-0.044 0.027-0.09 0.044-0.139 0.022-0.083 0.042-0.164 0.06-0.25 0.015-0.044 0.02-0.09 0.028-0.134 0.021-0.088 0.03-0.174 0.04-0.264 0.004-0.044 0.004-0.086 0.009-0.135 0-0.088-0.009-0.174-0.019-0.264-0.005-0.039-0.01-0.081-0.02-0.118-0.021-0.095-0.058-0.185-0.1-0.275-0.018-0.028-0.026-0.058-0.04-0.081-0.061-0.104-0.143-0.2-0.241-0.29-0.129-0.113-0.29-0.218-0.498-0.299-1.511-0.607-5.795-1.96-9.012-7.943-0.466-0.846-0.025-1.566 0.288-1.819 0.314-0.25 1.434-0.964 1.97-1.295 0.542-0.332 1.276-0.294 2.041 0.234 0.735 0.526 2.332 1.689 3.613 1.576 1.19-0.116 1.309-0.604 1.521-0.913 0.839-1.224 3.112-5.67 9.069-5.742 2.458-0.032 4.76 0.195 5.584 0.144 0.815-0.053 3.722-0.315 5.434-1.48 1.686-1.159 2.405-0.325 1.431 0.943-0.145 0.19-0.276 0.357-0.399 0.524-0.048 0.06-0.085 0.113-0.129 0.169-0.132 0.176-0.246 0.343-0.346 0.503-0.371 0.628-0.417 1.172 0.275 1.918 1.087 1.156 1.37 1.363 1.723 1.636 0.157 0.125 0.345 0.199 0.564 0.204 0.09 0 0.19-0.019 0.29-0.046 0.042-0.014 0.083-0.014 0.132-0.032 0.15-0.067 0.309-0.158 0.484-0.306 0.621-0.549 1.038-0.876 1.58-1.576 0.403-0.517 0.744 0.004 0.644 0.813-0.079 0.63 0.204 4.674-4.203 9.646-0.144 0.167-0.479 0.443-0.896 0.797-0.1 0.081-0.194 0.162-0.303 0.257-0.054 0.046-0.109 0.1-0.163 0.146-0.138 0.12-0.275 0.248-0.417 0.38-0.113 0.104-0.228 0.229-0.343 0.343-0.118 0.118-0.232 0.227-0.351 0.354-0.072 0.077-0.144 0.167-0.218 0.253-0.148 0.167-0.299 0.336-0.447 0.521-0.046 0.063-0.09 0.127-0.132 0.186-0.167 0.218-0.329 0.438-0.475 0.669-0.187 0.299-0.361 0.612-0.513 0.938-1.226 2.616-1.067 3.479-1.2 4.433-0.12 0.945-0.854 1.321-1.68 1.703-0.498 0.229-1.818 0.992-3.281 2.099l0.008-0.007c-0.438 0.329-0.884 0.695-1.326 1.073-0.085 0.077-0.167 0.148-0.246 0.225-0.442 0.389-0.878 0.802-1.281 1.232-0.267 0.281-0.542 0.528-0.818 0.751-0.095 0.074-0.183 0.132-0.277 0.199-0.194 0.141-0.395 0.273-0.593 0.389-0.104 0.061-0.216 0.118-0.319 0.165-0.2 0.1-0.399 0.181-0.604 0.252-0.108 0.037-0.213 0.082-0.321 0.109-0.054 0.014-0.104 0.037-0.153 0.053-0.127 0.028-0.255 0.032-0.382 0.051-0.158 0.028-0.315 0.058-0.476 0.067-0.176 0.009-0.356 0-0.537-0.009-0.155-0.017-0.313-0.017-0.464-0.035-0.186-0.028-0.37-0.086-0.552-0.137-0.154-0.04-0.308-0.072-0.465-0.127-0.174-0.067-0.346-0.163-0.521-0.248-0.167-0.081-0.327-0.146-0.489-0.246-0.015-0.012-0.032-0.016-0.046-0.025-0.294-0.186-0.594-0.403-0.894-0.649-0.773-0.665-1.62-1.439-2.458-2.283-0.022-0.025-0.044-0.048-0.066-0.067-0.023-0.023-0.046-0.051-0.067-0.077-0.431-0.436-0.862-0.901-1.281-1.386-0.022 0-1-1.18-1.417-1.76m52.961 92.91c-0.271 1.408-1.42 6.153-5.638 15.918-0.285 0.658-0.562 1.293-0.832 1.906-0.065 0.144-0.132 0.281-0.195 0.426-0.104 0.235-0.213 0.473-0.316 0.694-0.01 0.019-0.015 0.037-0.023 0.056-0.153 0.34-0.308 0.658-0.466 0.975 0 0-0.009 0.009-0.009 0.02-0.02 0.037-0.042 0.078-0.067 0.119-0.056 0.111-0.114 0.219-0.169 0.324-0.076 0.141-0.148 0.292-0.229 0.428 0 0.014-0.005 0.019-0.009 0.026-0.019 0.028-0.037 0.056-0.056 0.093-0.072 0.125-0.176 0.307-0.181 0.315-0.01 0.019-0.023 0.036-0.033 0.056v0.01c-0.054 0.078-0.101 0.157-0.148 0.231-0.014 0.026-0.027 0.056-0.042 0.078-0.009 0.01-0.016 0.022-0.03 0.036-0.064 0.106-0.132 0.205-0.198 0.315-0.015 0.015-0.028 0.027-0.037 0.042-0.076 0.111-0.153 0.219-0.228 0.324-0.004 0-0.016 0.02-0.029 0.027-0.064 0.089-0.133 0.177-0.199 0.26-0.02 0.02-0.032 0.037-0.046 0.047-0.076 0.102-0.157 0.182-0.228 0.27-0.011 0-0.021 0.014-0.029 0.026-0.042 0.042-0.091 0.084-0.133 0.13h-0.004c-0.022 0.028-0.049 0.051-0.077 0.074-0.014 0.014-0.036 0.027-0.051 0.047-0.081 0.073-0.158 0.145-0.239 0.199-0.009 0.009-0.014 0.014-0.027 0.02-0.072 0.06-0.148 0.109-0.224 0.156-0.021 0.014-0.038 0.027-0.058 0.037-0.014 0.009-0.028 0.014-0.037 0.02-0.016 0.014-0.03 0.022-0.044 0.022-0.056 0.037-0.114 0.069-0.172 0.103 0 0-0.009 0-0.019 0.004-0.074 0.041-0.155 0.069-0.241 0.098-0.02 0.01-0.04 0.02-0.063 0.027-0.09 0.027-0.176 0.052-0.271 0.074-0.876 0.189-1.813 0.324-2.361 0.418-0.081 0.008-0.642 0.102-0.688 0.119-0.229 0.033-0.476 0.07-0.741 0.116v-0.005c-6.331 1.066-23.552 4.031-31.54 5.645-5.299 1.058-4.778-1.611-6.108-6.428-0.559-2.025-2.527-19.941-1.504-31.186 0.343-3.734 0.507-4.828 1.177-5.24 0.669-0.413 1.694-1.08 2.002-1.168 0.3-0.079 1.213-0.32 1.639 0.449 0.417 0.76 8.151 16.451 13.206 22.134 4.485 5.065 7.638 8.739 11.419 11.206 0.25 0.167 0.465 0.27 0.66 0.334 0.019 0.009 0.042 0.021 0.064 0.027 0.09 0.027 0.171 0.041 0.248 0.051 0.076 0.01 0.146 0.005 0.213 0 0.02-0.004 0.037-0.004 0.057-0.01 0.125-0.027 0.225-0.088 0.301-0.166 0.009-0.01 0.019-0.023 0.033-0.037 0.071-0.088 0.123-0.199 0.149-0.319 0.005-0.019 0.005-0.042 0.005-0.062 0.104-0.584-0.174-1.469-0.729-2.07-0.834-0.899-4.289-4.454-8.84-10.928-5.887-8.356-9.876-20.688-10.949-24.638-0.702-2.586-1.096-6.664-1.031-9.918h-0.009c0.005-0.144 0.009-0.269 0.017-0.407 0.004-0.103 0.009-0.203 0.015-0.311 0.009-0.219 0.019-0.436 0.031-0.645 0.023-0.307 0.046-0.604 0.082-0.881 0.015-0.121 0.032-0.228 0.046-0.344 0.03-0.193 0.059-0.38 0.087-0.552 0.019-0.103 0.039-0.199 0.063-0.292 0.051-0.25 0.109-0.481 0.181-0.682 0.916-2.617 1.681-2.336 2.491-1.459 0.812 0.885 8.12 7.517 20.169 12.916 2.559 1.145 4.085 1.672 4.434 2.049 0.345 0.365 0.896 1.14-0.199 1.398-1.082 0.256-4.296 0.37-7.661 1.7-0.195 0.079-0.375 0.158-0.54 0.231-1.177 0.528-1.729 1.058-1.979 1.627-0.049 0.11-0.086 0.228-0.113 0.344-0.021 0.078-0.04 0.171-0.049 0.255-0.015 0.129-0.02 0.259-0.015 0.389 0 0.085-0.005 0.173 0.004 0.261 0.01 0.166 0.028 0.334 0.046 0.51 0.04 0.297 0.081 0.603 0.111 0.939 0.178 1.826 0.494 3.129 0.726 5.571 0.227 2.451 0.086 4.666 1.281 5.7 1.191 1.02 2.817 1.626 7.16 0.783 4.12-0.803 5.492-1.154 5.98-1.168 0.479-0.015 1.636-0.209 0.929 1.14-0.067 0.13-0.155 0.287-0.259 0.478-0.95 1.691-3.251 5.502-4.035 8.041-0.869 2.799-1.045 3.573-1.121 4.051-0.07 0.481 0.262 1.408 1.117 0.371 0.853-1.039 2.542-4.908 6.785-9.834 0.569-0.658 1.091-1.237 1.581-1.771 0.004 0 0.009-0.01 0.019-0.02 0.384-0.412 0.741-0.787 1.082-1.131 0.095-0.098 0.185-0.186 0.276-0.272 0.29-0.282 0.561-0.542 0.814-0.788 0.067-0.057 0.14-0.125 0.199-0.182 0.633-0.573 1.177-1.015 1.652-1.361 0.048-0.027 0.09-0.057 0.134-0.088 0.183-0.135 0.364-0.256 0.531-0.357 0.046-0.027 0.095-0.06 0.141-0.093 0.167-0.103 0.325-0.188 0.471-0.269 0.023-0.02 0.059-0.037 0.085-0.051 0.02-0.006 0.033-0.02 0.046-0.027 0.172-0.079 0.315-0.163 0.461-0.229 1.21-0.57 1.53 0.24 1.17 2.11m7.03 21.56c-0.68 0.157-3.617 0.603-4.071 0.61-0.447 0.011-0.827-0.407-0.637-0.728 0.189-0.315 2.211-2.946 3.322-7.526 0.187-0.746 0.654-1.265 0.957-0.193 0.234 0.783 1.141 4.676 1.35 6.141 0.03 0.26 0.19 1.44-0.92 1.7m1.23-37.34c-1.93 0.724-4.076-1.445-5.813-2.604-3.904-2.669-7.496-5.241-10.443-8.842-4.514-5.511-4.092-9.353-2.781-16.472 0.911-5.057-0.741-9.812-1.101-10.482-0.357-0.672 0.046-1.354 1.114-0.854 1.067 0.502 2.088 2.059 3.184 3.394 1.087 1.335 1.328 0.386 1.418-0.521 0.208-2.094-0.264-3.771-0.525-4.744h-0.006c-0.014-0.047-0.026-0.106-0.036-0.157-0.153-0.58-0.693-1.873-1.829-2.108-1.522-0.32-3.018-0.455-3.83-1.039-0.378-0.272-0.808-0.828-0.382-1.236 0.775-0.751 1.901-1.747 2.971-2.113 1.455-0.5 2.854-1.261 4.697-1.251 12.438 0.079 15.792-2.799 20.547-4.772 0.932-0.391 1.491-0.565 2.289-0.315 0.802 0.241 2.976 1.058 3.525 2.024 0.552 0.97 0.649 5.011 1.711 7.926 1.047 2.924 2.831-0.106 3.222-1.357 0.375-1.257 0.522-4.245 0.542-5.001 0.019-0.756 0.24-3.944 1.241-5.019 1.988-2.123 2.456-4.635 2.697-5.617 0.213-0.881 0.38-3.344-0.056-6.843-0.047-0.431-0.111-0.883-0.187-1.346-0.672-4.22-1.521-4.577-2.665-5.344-1.148-0.765-2.35-0.433-5.272-2.435-2.614-1.798-4.987-4.94-6.966-6.857-1.971-1.914-5.088-3.839-8.376-4.178-0.208-0.019-0.39-0.023-0.557-0.023h-0.037c-0.146 0.009-0.284 0.019-0.402 0.044-0.023 0.004-0.037 0.014-0.063 0.019-0.104 0.019-0.199 0.046-0.28 0.079-0.022 0.016-0.042 0.03-0.069 0.04-0.063 0.037-0.125 0.072-0.176 0.113-0.023 0.023-0.042 0.046-0.067 0.072-0.037 0.037-0.074 0.077-0.1 0.123-0.023 0.032-0.037 0.072-0.057 0.109-0.014 0.04-0.035 0.072-0.044 0.109-0.019 0.058-0.028 0.114-0.037 0.176 0 0.023-0.004 0.042-0.004 0.067-0.005 0.081-0.005 0.165 0.004 0.25h-0.004c0.067 0.813 0.653 1.805 0.802 2.213 0.208 0.554 0.734 2.248-0.199 3.235-0.94 0.987-6.436 5.904-11.583 5.781-2.326-0.053-4.267-0.531-5.896-1.226 0.009 0.009 0.015 0.016 0.02 0.025-0.069-0.03-0.127-0.067-0.199-0.1-0.389-0.171-0.758-0.357-1.11-0.552-0.056-0.032-0.123-0.06-0.186-0.095-0.395-0.227-0.757-0.466-1.102-0.711-0.104-0.077-0.204-0.153-0.304-0.227-0.262-0.199-0.512-0.403-0.746-0.612-0.069-0.063-0.149-0.125-0.218-0.186-0.28-0.267-0.54-0.528-0.783-0.788-0.06-0.072-0.113-0.139-0.174-0.204-0.186-0.215-0.356-0.429-0.52-0.637-0.051-0.067-0.1-0.127-0.146-0.195-0.185-0.262-0.356-0.512-0.502-0.753-0.02-0.03-0.03-0.053-0.049-0.081-0.127-0.22-0.236-0.429-0.332-0.619-0.023-0.051-0.048-0.097-0.072-0.151-0.095-0.204-0.176-0.403-0.231-0.57-0.751-2.259 1.114-7.598 1.048-11.421-0.023-1.675-0.369-4.889-0.626-7.119-0.256-2.231 0.92-5.234 1.467-5.962 0.123-0.16 0.308-0.313 0.521-0.463 0.054-0.04 0.114-0.072 0.171-0.109 0.199-0.13 0.427-0.253 0.685-0.366 0.037-0.019 0.072-0.037 0.114-0.058 0.252-0.104 0.521-0.213 0.814-0.308v0.014c0.48-0.165 0.997-0.318 1.563-0.445 1.833-0.408 3.976 0.499 4.527 2.012 1.916 5.278 4.039 6.393 4.75 6.738 0.722 0.352 1.856-0.693 2.301-1.078 0.447-0.373 1.524-1.789 1.046-2.41-0.737-0.943-1.141-1.522-1.354-2.111-0.361-0.996 0.941-1.017 1.249-0.878 3.923 1.662 5.802 2.011 9.6 1.884 3.791-0.118 9.688-2.616 10.418-2.63 0.595-0.014 1.771 0.352 2.212 0.964 0.073 0.104 0.172 0.252 0.265 0.398 0.38 0.565 0.89 1.323 1.344 1.481 0.02 0.004 0.032 0.014 0.051 0.019 0.562 0.139 1.9 0.037 2.609 0.067 0.959 0.033 2.623-0.299 2.576 1.462-0.106 4.702-3.823 7.635-4.161 7.92-0.13 0.118-0.204 0.269-0.271 0.422-0.019 0.042-0.055 0.086-0.063 0.132-0.02 0.086-0.037 0.172-0.037 0.253 0 0.085 0.01 0.162 0.028 0.227 0.088 0.28 0.49 1.295 0.662 1.571 0.061 0.1 0.135 0.195 0.23 0.285 0.023 0.023 0.062 0.042 0.089 0.067 0.074 0.056 0.147 0.109 0.231 0.146 0.042 0.023 0.098 0.028 0.147 0.044 0.078 0.019 0.167 0.037 0.256 0.032 0.056 0 0.125-0.019 0.181-0.032 0.139-0.03 0.269-0.058 0.417-0.148 3.15-1.884 4.431-4.111 5.802-6.91 1.367-2.786 2.086-11.987 2.165-13.496 0.078-1.52 0.556-2.454 1.302-3.065 0.741-0.614 4.421-2.971 4.94-3.091 0.528-0.123 1.131-0.174 1.724 1.198 0.604 1.381 1.919 9.864 2.169 11.168 0.283 1.386 1.001 1.221 1.363 0.955 0.787-0.575 1.357-1.282 2.058-2.486 0.724-1.205 0.194-2.867-0.51-3.641-0.694-0.778-1.794-2.021-1.326-3.255 1.066-2.804 3.306-2.663 3.907-2.563 0.589 0.1 2.859 1.122 3.269 7.232 0.593 9.051-3.098 18.41-3.978 20.783-1.946 5.276-2.354 8.868-2.655 10.578-0.292 1.703-1.585 1.395-1.896 1.119-0.315-0.275-0.719-1.594-0.918-1.789-0.204-0.195-0.714-0.095-1.048 1.358-0.333 1.45-1.445 3.464-2.096 4.56-0.436 0.711-0.355 1.731-0.25 2.523 0.195 1.539 0.996 7.427 0.751 14.121-0.444 11.91-4.426 19.412-7.396 23.339-6.988 9.241-13.542 13.103-14.329 13.651-1.011 0.705-2.702 0.595-3.268 0.408-0.575-0.162-1.08-0.756-2.155-1.523-0.088-0.069-0.176-0.106-0.25-0.145-0.854-0.395-0.982 0.807-0.974 1.121 0.01 0.334 0.527 1.571 0.819 2.771 0.558 2.262-0.699 4.996-1.992 7.154-1.845 3.051-3.904 6.405-3.474 10.09 0.02 0.34 0.02 0.58-0.26 0.69m59.22 3.52c1.053 6.054 2.238 13.431 3.577 22.474 0.069 0.477 0.12 0.885 0.157 1.265 0.01 0.047 0.02 0.099 0.02 0.144 0.037 0.357 0.056 0.683 0.056 0.95 0 0.028-0.004 0.052-0.004 0.074 0 0.12 0 0.25-0.01 0.353-0.015 0.103-0.032 0.189-0.052 0.278 0 0.036-0.01 0.073-0.01 0.106-0.046 0.185-0.109 0.343-0.193 0.477-0.01 0.02-0.027 0.037-0.047 0.064-0.073 0.103-0.167 0.195-0.265 0.27-0.032 0.023-0.061 0.047-0.098 0.074-0.125 0.079-0.265 0.148-0.437 0.204-0.041 0.019-0.102 0.026-0.157 0.046-0.13 0.042-0.272 0.079-0.427 0.121-0.097 0.02-0.193 0.037-0.292 0.064-0.203 0.041-0.421 0.084-0.652 0.129-0.427 0.088-1.053 0.177-1.487 0.213-0.751 0.074-1.627 0.148-2.581 0.232-9.223 0.844-27.273 2.674-41.733 4.495-0.272 0.026-0.551 0.056-0.848 0.103-1.126 0.158-1.779-0.022-1.868-1.127-0.069-1.015-1.761-11.053-6.872-19.604-0.469-0.788-0.964-1.566-1.488-2.32-0.583-0.84 0.283-1.479 1.108-1.188 2.316 0.814 8.73 3.749 17.879 10.297 2.336 1.669 2.943 2.188 3.467 2.633 0.069 0.061 0.177 0.12 0.273 0.167 0.037 0.019 0.079 0.027 0.125 0.046 0.063 0.023 0.144 0.047 0.223 0.065 0.042 0.009 0.083 0.019 0.125 0.022 0.088 0.01 0.176 0.014 0.255 0.01h0.099c0.105-0.015 0.208-0.047 0.292-0.099 0.213-0.134 0.311-0.394 0.144-0.843-0.569-1.604-3.629-4.755-11.456-12.018-1.117-1.033-1.136-1.469 0.022-1.59 1.154-0.11 4.292 0.032 5.96-0.037 1.673-0.073 5.408-0.177 4.676-5.065-0.561-3.786-1.001-7.702-1.07-8.874-0.063-1.168-0.269-3.352-3.003-3.661-2.716-0.312-7.271 0.319-11.357 1.751-1.127 0.391-1.525-0.129-0.691-0.89 0.83-0.755 8.004-5.423 14.117-12.443 6.72-7.729 9.676-13.416 11.354-18.588 0.303-0.918 0.69-0.606 1.066-0.396 0.371 0.219 2.892 2.258 3.786 7.271 0.876 5.023 2.614 11.994-0.449 30.3-1.683 10.028-3.74 15.951-4.218 17.365-0.481 1.399 0.343 2.188 1.27 0.933 2.16-2.949 5.016-11.123 7.426-20.521 2.373-9.273 3.233-17.223 3.597-22.319v-0.005c0.037-0.468 0.069-0.908 0.092-1.33l0.015-0.171c0.02-0.412 0.041-0.808 0.069-1.163 0-0.218 0.027-0.39 0.064-0.547 0.01-0.047 0.027-0.084 0.042-0.125 0.022-0.07 0.042-0.148 0.068-0.204 0-0.01 0.011-0.01 0.011-0.019 0.046-0.088 0.102-0.162 0.151-0.219 0.016-0.019 0.028-0.037 0.042-0.047 0.046-0.041 0.088-0.06 0.13-0.082 0.032-0.015 0.064-0.037 0.094-0.048 0.026-0.004 0.046-0.004 0.073-0.009 0.052-0.01 0.103-0.02 0.148-0.02 0.019 0 0.037 0 0.06 0.01h0.07s0.027 0.015 0.036 0.015c0.186 0.032 0.356 0.106 0.487 0.162 0.478 0.187 2.591 0.797 3.692 5.867 0.046 0.204 0.093 0.426 0.148 0.647 0.009 0.074 0.026 0.157 0.046 0.231 0.052 0.204 0.098 0.408 0.147 0.631l0.011 0.037c0.91 3.99 2.56 10.89 4.99 24.98"/>
		<polygon points="167.71 221.9 168.73 221.9 168.73 224.52 169.36 224.52 169.36 221.9 170.38 221.9 170.38 221.37 167.71 221.37"/>
		<polygon points="172.61 223.62 171.82 221.37 170.92 221.37 170.92 224.52 171.5 224.52 171.5 221.99 172.37 224.52 172.88 224.52 173.74 221.99 173.74 224.52 174.31 224.52 174.31 221.37 173.42 221.37"/>
</svg>
