<?xml version="1.0" encoding="UTF-8" standalone="no"?>
<svg x="0px" y="0px" version="1.1" xmlns:cc="http://creativecommons.org/ns#" height="180.04" xmlns:rdf="http://www.w3.org/1999/02/22-rdf-syntax-ns#" xmlns="http://www.w3.org/2000/svg" xmlns:dc="http://purl.org/dc/elements/1.1/" xml:space="preserve" enable-background="new 0 0 250 190" width="240" viewBox="0 0 240 180.037"><metadata><rdf:RDF><cc:Work rdf:about=""><dc:format>image/svg+xml</dc:format><dc:type rdf:resource="http://purl.org/dc/dcmitype/StillImage"/></cc:Work></rdf:RDF></metadata>
<g transform="translate(-5,-4.982)">
	<path d="m243.55 27.344s-6.881-5.327-29.167-13.512c-19.555-7.197-34.493-8.85-34.493-8.85l0.075 42.679c0 18.039-20.385 37.194-55.199 37.194h-0.996c-34.798 0-55.176-19.155-55.176-37.194l0.068-42.679s-14.923 1.652-34.486 8.85c-22.285 8.185-29.166 13.512-29.166 13.512 1.652 34.229 54.826 62.43 119.26 62.445h0.015c64.44-0.015 117.63-28.216 119.27-62.445"/>
	<path d="m243.58 123.18s-6.881 5.312-29.167 13.504c-19.57 7.198-34.493 8.843-34.493 8.843l0.075-42.672c0-18.035-20.385-37.183-55.199-37.183l-0.49-0.015h-0.015l-0.483 0.015c-34.817 0-55.195 19.148-55.195 37.183l0.076 42.672s-14.931-1.645-34.493-8.843c-22.289-8.19-29.184-13.51-29.184-13.51 1.652-34.221 54.84-62.422 119.29-62.444 64.44 0.022 117.63 28.223 119.27 62.449"/>
</g>
</svg>
