<?xml version="1.0" encoding="UTF-8" standalone="no"?>
<svg enable-background="new 0 0 250 190" width="240" version="1.1" xmlns:rdf="http://www.w3.org/1999/02/22-rdf-syntax-ns#" xmlns="http://www.w3.org/2000/svg" height="180.04" x="0px" y="0px" viewBox="0 0 240 180.037" xmlns:dc="http://purl.org/dc/elements/1.1/" xmlns:cc="http://creativecommons.org/ns#" xml:space="preserve"><metadata><rdf:RDF><cc:Work rdf:about=""><dc:format>image/svg+xml</dc:format><dc:type rdf:resource="http://purl.org/dc/dcmitype/StillImage"/></cc:Work></rdf:RDF></metadata>
<g transform="translate(-5,-4.982)">
	<path d="m243.55 27.344s-6.881-5.327-29.167-13.512c-19.555-7.197-34.493-8.85-34.493-8.85l0.075 42.679c0 18.039-20.385 37.194-55.199 37.194h-0.996c-34.798 0-55.176-19.155-55.176-37.194l0.068-42.679s-14.923 1.652-34.486 8.85c-22.285 8.185-29.166 13.512-29.166 13.512 1.652 34.229 54.826 62.43 119.26 62.445h0.015c64.44-0.015 117.63-28.216 119.27-62.445"/>
	<path d="m243.58 123.18s-6.881 5.312-29.167 13.504c-19.57 7.198-34.493 8.843-34.493 8.843l0.075-42.672c0-18.035-20.385-37.183-55.199-37.183l-0.49-0.015h-0.015l-0.483 0.015c-34.817 0-55.195 19.148-55.195 37.183l0.076 42.672s-14.931-1.645-34.493-8.843c-22.289-8.19-29.184-13.51-29.184-13.51 1.652-34.221 54.84-62.422 119.29-62.444 64.44 0.022 117.63 28.223 119.27 62.449"/>
	<path d="m16.611 184.93c-5.432 0-5.53-4.134-5.53-5.733v-7.529c0-0.468-0.03-1.071 0.936-1.071h2.799c0.92 0 0.868 0.634 0.868 1.071v7.529c0 0.543 0.091 1.977 2.067 1.977h4.708c1.939 0 2.052-1.434 2.052-1.977v-7.529c0-0.438-0.061-1.071 0.853-1.071h2.836c1.019 0 0.928 0.634 0.928 1.071v7.529c0 1.6-0.106 5.733-5.545 5.733"/>
	<path d="m42.632 184.01c-1.916-2.58-4.655-5.824-7.446-9.265v9.174c0 0.407 0.098 1.011-0.86 1.011h-2.618c-0.943 0-0.837-0.604-0.837-1.011v-12.268c0-0.422-0.038-1.056 0.837-1.056h5.107c1.441 0 3.501 2.897 4.844 4.828 1.049 1.449 2.965 3.651 4.255 5.312v-9.084c0-0.422-0.053-1.056 0.898-1.056h2.844c0.905 0 0.853 0.634 0.853 1.056v13.278h-5.243c-1.125 0.001-1.608 0.077-2.634-0.919"/>
	<path d="m52.244 184.93v-14.319h12.652c0.77 0 5.968-0.105 5.968 5.356 0 5.568 0.596 8.963-5.862 8.963h-6.82l-1.471-2.987v2.987m7.513-3.772c2.301 0 2.127-2.203 2.127-3.214 0-3.38-0.951-3.517-2.467-3.517h-7.22v6.73h7.56z"/>
	<path d="m75.813 170.7h11.664c0.981 0 0.853 0.648 0.853 1.841 0 1.116 0.151 1.75-0.853 1.75h-9.219c-0.242 0-1.086-0.12-1.086 0.74 0 0.875-0.159 1.222 0.762 1.222h8.148l1.313 2.61c0.188 0.362 0.166 0.679-0.551 0.679h-8.435l-1.305-2.55v3.757c0 0.876 0.777 0.71 1.003 0.71h9.574c0.951 0 0.868 0.663 0.868 1.75 0 1.162 0.083 1.811-0.868 1.811h-12.118c-1.011 0-2.98-0.316-2.98-3.471v-7.892c0-0.829 0.43-2.957 3.23-2.957"/>
	<path d="m91.475 170.61h12.758c1.712 0 4.202-0.015 4.202 4.603 0 3.018-0.641 3.169-2.015 4.104 2.301 0.392 1.992 3.334 1.992 4.858 0 0.77-0.279 0.754-0.506 0.754h-3.742c-0.785 0-0.596-1.237-0.596-1.886 0-1.75-0.981-1.675-1.366-1.675h-5.507c-0.528-0.921-1.554-2.973-1.554-2.973v5.945l-0.702 0.588h-3.765l-0.377-0.468v-12.614c0.001-0.888 0.627-1.236 1.178-1.236m10.162 3.788h-5.681c-0.951 0-0.905 0.316-0.905 0.604v2.564h5.847c2.837 0 2.837-0.709 2.837-1.448-0.001-1.478-0.121-1.72-2.098-1.72"/>
	<path d="m130.4 170.7c0.936 0 1.848 0.423 2.833 2.339 0.663 1.373 5.296 9.747 6.276 11.498v0.482h-4.828l-1.389-2.52h-5.873l-1.268-2.882c-0.362 0.588-2.301 4.27-2.965 5.401h-4.843v-0.316c0.988-1.856 7.733-14.003 7.733-14.003m2.816 3.97-2.369 4.3 0.219 0.212h4.391l0.219-0.212-2.24-4.315-0.22 0.015"/>
	<path d="m142.58 170.61h12.765c1.705 0 4.195-0.015 4.195 4.603 0 3.018-0.634 3.169-2.007 4.104 2.309 0.392 1.991 3.334 1.991 4.858 0 0.77-0.286 0.754-0.513 0.754h-3.742c-0.784 0-0.589-1.237-0.589-1.886 0-1.75-0.98-1.675-1.357-1.675h-5.522c-0.528-0.921-1.555-2.973-1.555-2.973v5.945l-0.693 0.588h-3.772l-0.377-0.468v-12.614c-0.001-0.888 0.632-1.236 1.176-1.236m10.17 3.788h-5.688c-0.951 0-0.905 0.316-0.905 0.604v2.564h5.854c2.821 0 2.821-0.709 2.821-1.448 0-1.478-0.105-1.72-2.082-1.72"/>
	<path d="m170.69 184.93c-0.95-1.78-3.591-6.699-5.372-9.928v8.933c0 0.377 0.061 0.995-0.859 0.995h-2.58c-0.966 0-0.891-0.618-0.891-0.995v-12.268c0-0.438-0.061-1.057 0.891-1.057h4.466c0.664 0 1.614-0.15 2.671 1.977 0.8 1.705 2.489 5.251 3.667 7.122 1.177-1.871 2.912-5.417 3.711-7.122 1.042-2.127 1.962-1.977 2.717-1.977h4.451c0.905 0 0.8 0.619 0.8 1.057v12.268c0 0.377 0.136 0.995-0.8 0.995h-2.61c-0.951 0-0.875-0.618-0.875-0.995v-8.92c-1.812 3.229-4.422 8.147-5.417 9.928"/>
	<path d="m190.09 184.96c-4.225 0-4.044-4.526-4.044-7.483 0-2.687-0.302-6.896 4.994-6.941h9.416c5.312 0 4.964 4.271 4.964 6.941 0 2.957 0.212 7.483-4.089 7.483m-2.731-3.682c2.143 0 2.067-2.218 2.067-3.696 0-1.343 0.317-3.426-2.475-3.426h-4.737c-2.776 0-2.445 2.083-2.445 3.426 0 1.479-0.136 3.696 2.007 3.696h5.583z"/>
	<path d="m212.5 184.93c-5.417 0-5.522-4.134-5.522-5.733v-7.529c0-0.468-0.03-1.071 0.936-1.071h2.807c0.92 0 0.859 0.634 0.859 1.071v7.529c0 0.543 0.091 1.977 2.067 1.977h4.708c1.946 0 2.052-1.434 2.052-1.977v-7.529c0-0.438-0.045-1.071 0.86-1.071h2.821c1.026 0 0.936 0.634 0.936 1.071v7.529c0 1.6-0.091 5.733-5.553 5.733"/>
	<path d="m228.04 170.61h12.766c1.705 0 4.194-0.015 4.194 4.603 0 3.018-0.648 3.169-2.021 4.104 2.309 0.392 2.007 3.334 2.007 4.858 0 0.77-0.287 0.754-0.514 0.754h-3.741c-0.77 0-0.589-1.237-0.589-1.886 0-1.75-0.996-1.675-1.373-1.675h-5.508c-0.527-0.921-1.554-2.973-1.554-2.973v5.945l-0.709 0.588h-3.758l-0.377-0.468v-12.614c0-0.888 0.634-1.236 1.177-1.236m10.155 3.788h-5.674c-0.95 0-0.905 0.316-0.905 0.604v2.564h5.854c2.822 0 2.822-0.709 2.822-1.448 0.001-1.478-0.12-1.72-2.097-1.72"/>
</g>
</svg>
